  0
SECTION
  2
HEADER
  9
$ACADVER
  1
AC1014
  9
$ACADMAINTVER
 70
     9
  9
$DWGCODEPAGE
  3
ANSI_1252
  9
$INSBASE
 10
0.0
 20
0.0
 30
0.0
  9
$EXTMIN
 10
1.000000000000000E+20
 20
1.000000000000000E+20
 30
1.000000000000000E+20
  9
$EXTMAX
 10
-1.000000000000000E+20
 20
-1.000000000000000E+20
 30
-1.000000000000000E+20
  9
$LIMMIN
 10
0.0
 20
0.0
  9
$LIMMAX
 10
12.0
 20
9.0
  9
$ORTHOMODE
 70
     0
  9
$REGENMODE
 70
     1
  9
$FILLMODE
 70
     1
  9
$QTEXTMODE
 70
     0
  9
$MIRRTEXT
 70
     1
  9
$DRAGMODE
 70
     2
  9
$LTSCALE
 40
1.0
  9
$OSMODE
 70
    37
  9
$ATTMODE
 70
     1
  9
$TEXTSIZE
 40
0.2
  9
$TRACEWID
 40
0.05
  9
$TEXTSTYLE
  7
STANDARD
  9
$CLAYER
  8
0
  9
$CELTYPE
  6
BYLAYER
  9
$CECOLOR
 62
   256
  9
$CELTSCALE
 40
1.0
  9
$DELOBJ
 70
     1
  9
$DISPSILH
 70
     0
  9
$DIMSCALE
 40
1.0
  9
$DIMASZ
 40
0.18
  9
$DIMEXO
 40
0.0625
  9
$DIMDLI
 40
0.38
  9
$DIMRND
 40
0.0
  9
$DIMDLE
 40
0.0
  9
$DIMEXE
 40
0.18
  9
$DIMTP
 40
0.0
  9
$DIMTM
 40
0.0
  9
$DIMTXT
 40
0.18
  9
$DIMCEN
 40
0.09
  9
$DIMTSZ
 40
0.0
  9
$DIMTOL
 70
     0
  9
$DIMLIM
 70
     0
  9
$DIMTIH
 70
     1
  9
$DIMTOH
 70
     1
  9
$DIMSE1
 70
     0
  9
$DIMSE2
 70
     0
  9
$DIMTAD
 70
     0
  9
$DIMZIN
 70
     0
  9
$DIMBLK
  1

  9
$DIMASO
 70
     1
  9
$DIMSHO
 70
     1
  9
$DIMPOST
  1

  9
$DIMAPOST
  1

  9
$DIMALT
 70
     0
  9
$DIMALTD
 70
     2
  9
$DIMALTF
 40
25.4
  9
$DIMLFAC
 40
1.0
  9
$DIMTOFL
 70
     0
  9
$DIMTVP
 40
0.0
  9
$DIMTIX
 70
     0
  9
$DIMSOXD
 70
     0
  9
$DIMSAH
 70
     0
  9
$DIMBLK1
  1

  9
$DIMBLK2
  1

  9
$DIMSTYLE
  2
STANDARD
  9
$DIMCLRD
 70
     0
  9
$DIMCLRE
 70
     0
  9
$DIMCLRT
 70
     0
  9
$DIMTFAC
 40
1.0
  9
$DIMGAP
 40
0.09
  9
$DIMJUST
 70
     0
  9
$DIMSD1
 70
     0
  9
$DIMSD2
 70
     0
  9
$DIMTOLJ
 70
     1
  9
$DIMTZIN
 70
     0
  9
$DIMALTZ
 70
     0
  9
$DIMALTTZ
 70
     0
  9
$DIMFIT
 70
     3
  9
$DIMUPT
 70
     0
  9
$DIMUNIT
 70
     2
  9
$DIMDEC
 70
     4
  9
$DIMTDEC
 70
     4
  9
$DIMALTU
 70
     2
  9
$DIMALTTD
 70
     2
  9
$DIMTXSTY
  7
STANDARD
  9
$DIMAUNIT
 70
     0
  9
$LUNITS
 70
     2
  9
$LUPREC
 70
     4
  9
$SKETCHINC
 40
0.1
  9
$FILLETRAD
 40
0.5
  9
$AUNITS
 70
     0
  9
$AUPREC
 70
     0
  9
$MENU
  1
.
  9
$ELEVATION
 40
0.0
  9
$PELEVATION
 40
0.0
  9
$THICKNESS
 40
0.0
  9
$LIMCHECK
 70
     0
  9
$CHAMFERA
 40
0.0
  9
$CHAMFERB
 40
0.0
  9
$CHAMFERC
 40
0.0
  9
$CHAMFERD
 40
0.0
  9
$SKPOLY
 70
     0
  9
$TDCREATE
 40
2457595.911678229
  9
$TDUPDATE
 40
2457595.9117125
  9
$TDINDWG
 40
0.0000000116
  9
$TDUSRTIMER
 40
0.0000000116
  9
$USRTIMER
 70
     1
  9
$ANGBASE
 50
0.0
  9
$ANGDIR
 70
     0
  9
$PDMODE
 70
     0
  9
$PDSIZE
 40
0.0
  9
$PLINEWID
 40
0.0
  9
$COORDS
 70
     1
  9
$SPLFRAME
 70
     0
  9
$SPLINETYPE
 70
     6
  9
$SPLINESEGS
 70
     8
  9
$ATTDIA
 70
     0
  9
$ATTREQ
 70
     1
  9
$HANDLING
 70
     1
  9
$HANDSEED
  5
185
  9
$SURFTAB1
 70
     6
  9
$SURFTAB2
 70
     6
  9
$SURFTYPE
 70
     6
  9
$SURFU
 70
     6
  9
$SURFV
 70
     6
  9
$UCSNAME
  2

  9
$UCSORG
 10
0.0
 20
0.0
 30
0.0
  9
$UCSXDIR
 10
1.0
 20
0.0
 30
0.0
  9
$UCSYDIR
 10
0.0
 20
1.0
 30
0.0
  9
$PUCSNAME
  2

  9
$PUCSORG
 10
0.0
 20
0.0
 30
0.0
  9
$PUCSXDIR
 10
1.0
 20
0.0
 30
0.0
  9
$PUCSYDIR
 10
0.0
 20
1.0
 30
0.0
  9
$USERI1
 70
     0
  9
$USERI2
 70
     0
  9
$USERI3
 70
     0
  9
$USERI4
 70
     0
  9
$USERI5
 70
     0
  9
$USERR1
 40
0.0
  9
$USERR2
 40
0.0
  9
$USERR3
 40
0.0
  9
$USERR4
 40
0.0
  9
$USERR5
 40
0.0
  9
$WORLDVIEW
 70
     1
  9
$SHADEDGE
 70
     3
  9
$SHADEDIF
 70
    70
  9
$TILEMODE
 70
     1
  9
$MAXACTVP
 70
    64
  9
$PINSBASE
 10
0.0
 20
0.0
 30
0.0
  9
$PLIMCHECK
 70
     0
  9
$PEXTMIN
 10
1.000000000000000E+20
 20
1.000000000000000E+20
 30
1.000000000000000E+20
  9
$PEXTMAX
 10
-1.000000000000000E+20
 20
-1.000000000000000E+20
 30
-1.000000000000000E+20
  9
$PLIMMIN
 10
0.0
 20
0.0
  9
$PLIMMAX
 10
12.0
 20
9.0
  9
$UNITMODE
 70
     0
  9
$VISRETAIN
 70
     1
  9
$PLINEGEN
 70
     0
  9
$PSLTSCALE
 70
     1
  9
$TREEDEPTH
 70
  3020
  9
$PICKSTYLE
 70
     1
  9
$CMLSTYLE
  2
STANDARD
  9
$CMLJUST
 70
     0
  9
$CMLSCALE
 40
1.0
  9
$PROXYGRAPHICS
 70
     1
  9
$MEASUREMENT
 70
     1
  0
ENDSEC
  0
SECTION
  2
CLASSES
  0
CLASS
  1
ACDBDICTIONARYWDFLT
  2
AcDbDictionaryWithDefault
  3
ObjectDBX Classes
 90
        0
280
     0
281
     0
  0
CLASS
  1
VISUALSTYLE
  2
AcDbVisualStyle
  3
ObjectDBX Classes
 90
     4095
280
     0
281
     0
  0
CLASS
  1
MATERIAL
  2
AcDbMaterial
  3
ObjectDBX Classes
 90
     1153
280
     0
281
     0
  0
CLASS
  1
SCALE
  2
AcDbScale
  3
ObjectDBX Classes
 90
     1153
280
     0
281
     0
  0
CLASS
  1
SUN
  2
AcDbSun
  3
SCENEOE
 90
     1153
280
     0
281
     0
  0
CLASS
  1
DICTIONARYVAR
  2
AcDbDictionaryVar
  3
ObjectDBX Classes
 90
        0
280
     0
281
     0
  0
CLASS
  1
XRECORD
  2
AcDbXrecord
  3
ObjectDBX Classes
 90
        0
280
     0
281
     0
  0
CLASS
  1
LWPOLYLINE
  2
AcDbPolyline
  3
ObjectDBX Classes
 90
        0
280
     0
281
     1
  0
CLASS
  1
HATCH
  2
AcDbHatch
  3
ObjectDBX Classes
 90
        0
280
     0
281
     1
  0
CLASS
  1
ACDBPLACEHOLDER
  2
AcDbPlaceHolder
  3
ObjectDBX Classes
 90
        0
280
     0
281
     0
  0
CLASS
  1
LAYOUT
  2
AcDbLayout
  3
ObjectDBX Classes
 90
        0
280
     0
281
     0
  0
ENDSEC
  0
SECTION
  2
TABLES
  0
TABLE
  2
VPORT
  5
8
102
{ACAD_XDICTIONARY
360
17B
102
}
330
0
100
AcDbSymbolTable
 70
     1
  0
VPORT
  5
29
330
8
100
AcDbSymbolTableRecord
100
AcDbViewportTableRecord
  2
*ACTIVE
 70
     0
 10
0.0
 20
0.0
 11
1.0
 21
1.0
 12
0.0
 22
0.0
 13
0.0
 23
0.0
 14
0.5
 24
0.5
 15
0.5
 25
0.5
 16
0.0
 26
0.0
 36
1.0
 17
0.0
 27
0.0
 37
-1000.0
 40
255.5789473684212
 41
1.656448202959831
 42
50.0
 43
173.9243690565321
 44
1111.54607362871
 50
0.0
 51
0.0
 71
     0
 72
   100
 73
     1
 74
     3
 75
     0
 76
     0
 77
     0
 78
     0
  0
ENDTAB
  0
TABLE
  2
LTYPE
  5
5
330
0
100
AcDbSymbolTable
 70
     1
  0
LTYPE
  5
14
330
5
100
AcDbSymbolTableRecord
100
AcDbLinetypeTableRecord
  2
BYBLOCK
 70
     0
  3

 72
    65
 73
     0
 40
0.0
  0
LTYPE
  5
15
330
5
100
AcDbSymbolTableRecord
100
AcDbLinetypeTableRecord
  2
BYLAYER
 70
     0
  3

 72
    65
 73
     0
 40
0.0
  0
LTYPE
  5
16
330
5
100
AcDbSymbolTableRecord
100
AcDbLinetypeTableRecord
  2
CONTINUOUS
 70
     0
  3
Solid line
 72
    65
 73
     0
 40
0.0
  0
ENDTAB
  0
TABLE
  2
LAYER
  5
2
330
0
100
AcDbSymbolTable
 70
     3
  0
LAYER
  5
10
330
2
100
AcDbSymbolTableRecord
100
AcDbLayerTableRecord
  2
0
 70
     0
 62
     7
  6
CONTINUOUS
  0
LAYER
  5
6A
330
2
100
AcDbSymbolTableRecord
100
AcDbLayerTableRecord
  2
PROFILEEDGES
 70
     0
 62
     7
  6
CONTINUOUS
  0
LAYER
  5
6B
330
2
100
AcDbSymbolTableRecord
100
AcDbLayerTableRecord
  2
SECTIONCUTEDGES
 70
     0
 62
     7
  6
CONTINUOUS
  0
ENDTAB
  0
TABLE
  2
STYLE
  5
3
330
0
100
AcDbSymbolTable
 70
     1
  0
STYLE
  5
11
330
3
100
AcDbSymbolTableRecord
100
AcDbTextStyleTableRecord
  2
STANDARD
 70
     0
 40
0.0
 41
1.0
 50
0.0
 71
     0
 42
0.2
  3
txt
  4

  0
ENDTAB
  0
TABLE
  2
VIEW
  5
6
330
0
100
AcDbSymbolTable
 70
     0
  0
ENDTAB
  0
TABLE
  2
UCS
  5
7
330
0
100
AcDbSymbolTable
 70
     0
  0
ENDTAB
  0
TABLE
  2
APPID
  5
9
330
0
100
AcDbSymbolTable
 70
     1
  0
APPID
  5
12
330
9
100
AcDbSymbolTableRecord
100
AcDbRegAppTableRecord
  2
ACAD
 70
     0
  0
ENDTAB
  0
TABLE
  2
DIMSTYLE
  5
A
330
0
100
AcDbSymbolTable
 70
     1
  0
DIMSTYLE
105
27
330
A
100
AcDbSymbolTableRecord
100
AcDbDimStyleTableRecord
  2
STANDARD
 70
     0
  3

  4

  5

  6

  7

 40
1.0
 41
0.18
 42
0.0625
 43
0.38
 44
0.18
 45
0.0
 46
0.0
 47
0.0
 48
0.0
140
0.18
141
0.09
142
0.0
143
25.4
144
1.0
145
0.0
146
1.0
147
0.09
 71
     0
 72
     0
 73
     1
 74
     1
 75
     0
 76
     0
 77
     0
 78
     0
170
     0
171
     2
172
     0
173
     0
174
     0
175
     0
176
     0
177
     0
178
     0
270
     2
271
     4
272
     4
273
     2
274
     2
340
11
275
     0
280
     0
281
     0
282
     0
283
     1
284
     0
285
     0
286
     0
287
     3
288
     0
  0
ENDTAB
  0
TABLE
  2
BLOCK_RECORD
  5
1
330
0
100
AcDbSymbolTable
 70
     1
  0
BLOCK_RECORD
  5
1F
330
1
100
AcDbSymbolTableRecord
100
AcDbBlockTableRecord
  2
*MODEL_SPACE
  0
BLOCK_RECORD
  5
1B
330
1
100
AcDbSymbolTableRecord
100
AcDbBlockTableRecord
  2
*PAPER_SPACE
  0
ENDTAB
  0
ENDSEC
  0
SECTION
  2
BLOCKS
  0
BLOCK
  5
20
330
1F
100
AcDbEntity
  8
0
100
AcDbBlockBegin
  2
*MODEL_SPACE
 70
     0
 10
0.0
 20
0.0
 30
0.0
  3
*MODEL_SPACE
  1

  0
ENDBLK
  5
21
330
1F
100
AcDbEntity
  8
0
100
AcDbBlockEnd
  0
BLOCK
  5
1C
330
1B
100
AcDbEntity
 67
     1
  8
0
100
AcDbBlockBegin
  2
*PAPER_SPACE
 70
     0
 10
0.0
 20
0.0
 30
0.0
  3
*PAPER_SPACE
  1

  0
ENDBLK
  5
1D
330
1B
100
AcDbEntity
 67
     1
  8
0
100
AcDbBlockEnd
  0
ENDSEC
  0
SECTION
  2
ENTITIES
  0
LINE
  5
6C
330
1F
100
AcDbEntity
  8
0
100
AcDbLine
 10
35.64339159855952
 20
-64.70085233666582
 30
0.0
 11
35.80787100634168
 21
-64.93623718068963
 31
0.0
  0
LINE
  5
6D
330
1F
100
AcDbEntity
  8
0
100
AcDbLine
 10
35.80787100634168
 20
-64.93623718068963
 30
0.0
 11
35.9058238336494
 21
-65.20617188391036
 31
0.0
  0
LINE
  5
6E
330
1F
100
AcDbEntity
  8
0
100
AcDbLine
 10
35.9058238336494
 20
-65.20617188391036
 30
0.0
 11
35.93057475717629
 21
-65.49226084239181
 31
0.0
  0
LINE
  5
6F
330
1F
100
AcDbEntity
  8
0
100
AcDbLine
 10
35.93057475717629
 20
-65.49226084239181
 30
0.0
 11
35.88043704238688
 21
-65.77500756639792
 31
0.0
  0
LINE
  5
70
330
1F
100
AcDbEntity
  8
0
100
AcDbLine
 10
35.88043704238688
 20
-65.77500756639792
 30
0.0
 11
35.75882749168758
 21
-66.03514333394848
 31
0.0
  0
LINE
  5
71
330
1F
100
AcDbEntity
  8
0
100
AcDbLine
 10
19.84437292993929
 20
-121.4000000000001
 30
0.0
 11
19.84437292993929
 21
-87.20149915977177
 31
0.0
  0
LINE
  5
72
330
1F
100
AcDbEntity
  8
0
100
AcDbLine
 10
-2.155627070060759
 20
-117.899999986226
 30
0.0
 11
-2.155627070060759
 21
-121.4000000000001
 31
0.0
  0
LINE
  5
73
330
1F
100
AcDbEntity
  8
0
100
AcDbLine
 10
-2.155627070060759
 20
-121.4000000000001
 30
0.0
 11
19.84437292993929
 21
-121.4000000000001
 31
0.0
  0
LINE
  5
74
330
1F
100
AcDbEntity
  8
0
100
AcDbLine
 10
-40.03166860391734
 20
-43.89999998622578
 30
0.0
 11
-40.03166860391734
 21
-117.899999986226
 31
0.0
  0
LINE
  5
75
330
1F
100
AcDbEntity
  8
0
100
AcDbLine
 10
-2.155627070060759
 20
-43.89999998622578
 30
0.0
 11
-40.03166860391734
 21
-43.89999998622578
 31
0.0
  0
LINE
  5
76
330
1F
100
AcDbEntity
  8
0
100
AcDbLine
 10
-2.155627070060759
 20
-117.899999986226
 30
0.0
 11
-40.03166860391734
 21
-117.899999986226
 31
0.0
  0
LINE
  5
77
330
1F
100
AcDbEntity
  8
0
100
AcDbLine
 10
-14.03448372890678
 20
-54.80116962610285
 30
0.0
 11
-14.18932938378878
 21
-55.17500010619407
 31
0.0
  0
LINE
  5
78
330
1F
100
AcDbEntity
  8
0
100
AcDbLine
 10
-17.0288537904025
 20
-54.80116962610412
 30
0.0
 11
-17.08166875965464
 21
-54.40000010619533
 31
0.0
  0
LINE
  5
79
330
1F
100
AcDbEntity
  8
0
100
AcDbLine
 10
-14.18932938378878
 20
-55.17500010619407
 30
0.0
 11
-14.43565324881539
 21
-55.49601561703331
 31
0.0
  0
LINE
  5
7A
330
1F
100
AcDbEntity
  8
0
100
AcDbLine
 10
-14.43565324881539
 20
-55.49601561703331
 30
0.0
 11
-14.75666875965436
 21
-55.7423394820601
 31
0.0
  0
LINE
  5
7B
330
1F
100
AcDbEntity
  8
0
100
AcDbLine
 10
-14.75666875965436
 20
-55.7423394820601
 30
0.0
 11
-15.13049923974539
 21
-55.89718513694228
 31
0.0
  0
LINE
  5
7C
330
1F
100
AcDbEntity
  8
0
100
AcDbLine
 10
-15.13049923974539
 20
-55.89718513694228
 30
0.0
 11
-15.53166875965418
 21
-55.95000010619443
 31
0.0
  0
LINE
  5
7D
330
1F
100
AcDbEntity
  8
0
100
AcDbLine
 10
-15.53166875965418
 20
-55.95000010619443
 30
0.0
 11
-15.93283827956307
 21
-55.89718513694265
 31
0.0
  0
LINE
  5
7E
330
1F
100
AcDbEntity
  8
0
100
AcDbLine
 10
-15.93283827956307
 20
-55.89718513694265
 30
0.0
 11
-16.30666875965419
 21
-55.74233948206064
 31
0.0
  0
LINE
  5
7F
330
1F
100
AcDbEntity
  8
0
100
AcDbLine
 10
-16.30666875965419
 20
-55.74233948206064
 30
0.0
 11
-16.62768427049343
 21
-55.49601561703403
 31
0.0
  0
LINE
  5
80
330
1F
100
AcDbEntity
  8
0
100
AcDbLine
 10
-16.62768427049343
 20
-55.49601561703403
 30
0.0
 11
-16.87400813552022
 21
-55.17500010619515
 31
0.0
  0
LINE
  5
81
330
1F
100
AcDbEntity
  8
0
100
AcDbLine
 10
-16.87400813552022
 20
-55.17500010619515
 30
0.0
 11
-17.0288537904025
 21
-54.80116962610412
 31
0.0
  0
LINE
  5
82
330
1F
100
AcDbEntity
  8
0
100
AcDbLine
 10
-15.13049930681502
 20
-108.8971851600214
 30
0.0
 11
-15.53166882672382
 21
-108.9500001292732
 31
0.0
  0
LINE
  5
83
330
1F
100
AcDbEntity
  8
0
100
AcDbLine
 10
-15.53166882672382
 20
-108.9500001292732
 30
0.0
 11
-15.93283834663261
 21
-108.897185160021
 31
0.0
  0
LINE
  5
84
330
1F
100
AcDbEntity
  8
0
100
AcDbLine
 10
-17.08166875965464
 20
-54.40000010619533
 30
0.0
 11
-17.02885379040286
 21
-53.99883058628635
 31
0.0
  0
LINE
  5
85
330
1F
100
AcDbEntity
  8
0
100
AcDbLine
 10
-17.02885379040286
 20
-53.99883058628635
 30
0.0
 11
-16.87400813552085
 21
-53.62500010619532
 31
0.0
  0
LINE
  5
86
330
1F
100
AcDbEntity
  8
0
100
AcDbLine
 10
-16.87400813552085
 20
-53.62500010619532
 30
0.0
 11
-16.62768427049425
 21
-53.30398459535608
 31
0.0
  0
LINE
  5
87
330
1F
100
AcDbEntity
  8
0
100
AcDbLine
 10
-16.62768427049425
 20
-53.30398459535608
 30
0.0
 11
-16.30666875965527
 21
-53.05766073032929
 31
0.0
  0
LINE
  5
88
330
1F
100
AcDbEntity
  8
0
100
AcDbLine
 10
-16.30666875965527
 20
-53.05766073032929
 30
0.0
 11
-15.93283827956424
 21
-52.90281507544692
 31
0.0
  0
LINE
  5
89
330
1F
100
AcDbEntity
  8
0
100
AcDbLine
 10
-15.93283827956424
 20
-52.90281507544692
 30
0.0
 11
-15.53166875965545
 21
-52.85000010619478
 31
0.0
  0
LINE
  5
8A
330
1F
100
AcDbEntity
  8
0
100
AcDbLine
 10
-15.53166875965545
 20
-52.85000010619478
 30
0.0
 11
-15.13049923974657
 21
-52.90281507544656
 31
0.0
  0
LINE
  5
8B
330
1F
100
AcDbEntity
  8
0
100
AcDbLine
 10
-15.13049923974657
 20
-52.90281507544656
 30
0.0
 11
-14.75666875965544
 21
-53.05766073032856
 31
0.0
  0
LINE
  5
8C
330
1F
100
AcDbEntity
  8
0
100
AcDbLine
 10
-14.75666875965544
 20
-53.05766073032856
 30
0.0
 11
-14.4356532488162
 21
-53.30398459535517
 31
0.0
  0
LINE
  5
8D
330
1F
100
AcDbEntity
  8
0
100
AcDbLine
 10
-14.4356532488162
 20
-53.30398459535517
 30
0.0
 11
-14.18932938378941
 21
-53.62500010619424
 31
0.0
  0
LINE
  5
8E
330
1F
100
AcDbEntity
  8
0
100
AcDbLine
 10
-14.18932938378941
 20
-53.62500010619424
 30
0.0
 11
-14.03448372890714
 21
-53.99883058628527
 31
0.0
  0
LINE
  5
8F
330
1F
100
AcDbEntity
  8
0
100
AcDbLine
 10
-14.03448372890714
 20
-53.99883058628527
 30
0.0
 11
-13.98166875965499
 21
-54.40000010619406
 31
0.0
  0
LINE
  5
90
330
1F
100
AcDbEntity
  8
0
100
AcDbLine
 10
-13.98166875965499
 20
-54.40000010619406
 30
0.0
 11
-14.03448372890678
 21
-54.80116962610285
 31
0.0
  0
LINE
  5
91
330
1F
100
AcDbEntity
  8
0
100
AcDbLine
 10
-14.75666882672399
 20
-108.7423395051395
 30
0.0
 11
-15.13049930681502
 21
-108.8971851600214
 31
0.0
  0
LINE
  5
92
330
1F
100
AcDbEntity
  8
0
100
AcDbLine
 10
-29.6845509727466
 20
-54.91063222258497
 30
0.0
 11
-30.0873590775674
 21
-54.94899933573745
 31
0.0
  0
LINE
  5
93
330
1F
100
AcDbEntity
  8
0
100
AcDbLine
 10
-15.93283834663261
 20
-108.897185160021
 30
0.0
 11
-16.30666882672355
 21
-108.7423395051387
 31
0.0
  0
LINE
  5
94
330
1F
100
AcDbEntity
  8
0
100
AcDbLine
 10
-16.30666882672355
 20
-108.7423395051387
 30
0.0
 11
-16.62768433756243
 21
-108.4960156401119
 31
0.0
  0
LINE
  5
95
330
1F
100
AcDbEntity
  8
0
100
AcDbLine
 10
-16.62768433756243
 20
-108.4960156401119
 30
0.0
 11
-16.87400820258895
 21
-108.1750001292727
 31
0.0
  0
LINE
  5
96
330
1F
100
AcDbEntity
  8
0
100
AcDbLine
 10
-16.87400820258895
 20
-108.1750001292727
 30
0.0
 11
-17.02885385747086
 21
-107.8011696491817
 31
0.0
  0
LINE
  5
97
330
1F
100
AcDbEntity
  8
0
100
AcDbLine
 10
-17.02885385747086
 20
-107.8011696491817
 30
0.0
 11
-17.08166882672265
 21
-107.4000001292729
 31
0.0
  0
LINE
  5
98
330
1F
100
AcDbEntity
  8
0
100
AcDbLine
 10
-17.08166882672265
 20
-107.4000001292729
 30
0.0
 11
-17.02885385747051
 21
-106.9988306093641
 31
0.0
  0
LINE
  5
99
330
1F
100
AcDbEntity
  8
0
100
AcDbLine
 10
-17.02885385747051
 20
-106.9988306093641
 30
0.0
 11
-16.87400820258823
 21
-106.6250001292731
 31
0.0
  0
LINE
  5
9A
330
1F
100
AcDbEntity
  8
0
100
AcDbLine
 10
-16.87400820258823
 20
-106.6250001292731
 30
0.0
 11
-16.62768433756135
 21
-106.3039846184343
 31
0.0
  0
LINE
  5
9B
330
1F
100
AcDbEntity
  8
0
100
AcDbLine
 10
-16.62768433756135
 20
-106.3039846184343
 30
0.0
 11
-16.30666882672219
 21
-106.0576607534078
 31
0.0
  0
LINE
  5
9C
330
1F
100
AcDbEntity
  8
0
100
AcDbLine
 10
-16.30666882672219
 20
-106.0576607534078
 30
0.0
 11
-15.93283834663116
 21
-105.9028150985258
 31
0.0
  0
LINE
  5
9D
330
1F
100
AcDbEntity
  8
0
100
AcDbLine
 10
-15.93283834663116
 20
-105.9028150985258
 30
0.0
 11
-15.53166882672237
 21
-105.8500001292741
 31
0.0
  0
LINE
  5
9E
330
1F
100
AcDbEntity
  8
0
100
AcDbLine
 10
-15.53166882672237
 20
-105.8500001292741
 30
0.0
 11
-15.13049930681358
 21
-105.9028150985262
 31
0.0
  0
LINE
  5
9F
330
1F
100
AcDbEntity
  8
0
100
AcDbLine
 10
-15.13049930681358
 20
-105.9028150985262
 30
0.0
 11
-14.75666882672264
 21
-106.0576607534085
 31
0.0
  0
LINE
  5
A0
330
1F
100
AcDbEntity
  8
0
100
AcDbLine
 10
-14.75666882672264
 20
-106.0576607534085
 30
0.0
 11
-14.43565331588376
 21
-106.3039846184354
 31
0.0
  0
LINE
  5
A1
330
1F
100
AcDbEntity
  8
0
100
AcDbLine
 10
-14.43565331588376
 20
-106.3039846184354
 30
0.0
 11
-14.18932945085724
 21
-106.6250001292745
 31
0.0
  0
LINE
  5
A2
330
1F
100
AcDbEntity
  8
0
100
AcDbLine
 10
-14.18932945085724
 20
-106.6250001292745
 30
0.0
 11
-14.03448379597532
 21
-106.9988306093655
 31
0.0
  0
LINE
  5
A3
330
1F
100
AcDbEntity
  8
0
100
AcDbLine
 10
-14.03448379597532
 20
-106.9988306093655
 30
0.0
 11
-13.98166882672354
 21
-107.4000001292743
 31
0.0
  0
LINE
  5
A4
330
1F
100
AcDbEntity
  8
0
100
AcDbLine
 10
-13.98166882672354
 20
-107.4000001292743
 30
0.0
 11
-14.03448379597569
 21
-107.8011696491831
 31
0.0
  0
LINE
  5
A5
330
1F
100
AcDbEntity
  8
0
100
AcDbLine
 10
-14.03448379597569
 20
-107.8011696491831
 30
0.0
 11
-14.18932945085796
 21
-108.1750001292741
 31
0.0
  0
LINE
  5
A6
330
1F
100
AcDbEntity
  8
0
100
AcDbLine
 10
-14.18932945085796
 20
-108.1750001292741
 30
0.0
 11
-14.43565331588484
 21
-108.4960156401129
 31
0.0
  0
LINE
  5
A7
330
1F
100
AcDbEntity
  8
0
100
AcDbLine
 10
-14.43565331588484
 20
-108.4960156401129
 30
0.0
 11
-14.75666882672399
 21
-108.7423395051395
 31
0.0
  0
LINE
  5
A8
330
1F
100
AcDbEntity
  8
0
100
AcDbLine
 10
-29.30539836085099
 20
-54.76931802806168
 30
0.0
 11
-29.6845509727466
 21
-54.91063222258497
 31
0.0
  0
LINE
  5
A9
330
1F
100
AcDbEntity
  8
0
100
AcDbLine
 10
-30.43283812382624
 20
-106.9028150889973
 30
0.0
 11
-30.03166860391736
 21
-106.8500001197453
 31
0.0
  0
LINE
  5
AA
330
1F
100
AcDbEntity
  8
0
100
AcDbLine
 10
-30.03166860391736
 20
-106.8500001197453
 30
0.0
 11
-29.63049908400848
 21
-106.9028150889973
 31
0.0
  0
LINE
  5
AB
330
1F
100
AcDbEntity
  8
0
100
AcDbLine
 10
-29.63049908400848
 20
-106.9028150889973
 30
0.0
 11
-29.25666860391735
 21
-107.0576607438795
 31
0.0
  0
LINE
  5
AC
330
1F
100
AcDbEntity
  8
0
100
AcDbLine
 10
-30.0873590775674
 20
-54.94899933573745
 30
0.0
 11
-30.48637196864193
 21
-54.88180471216224
 31
0.0
  0
LINE
  5
AD
330
1F
100
AcDbEntity
  8
0
100
AcDbLine
 10
-30.48637196864193
 20
-54.88180471216224
 30
0.0
 11
-30.85439757684324
 21
-54.71362755441164
 31
0.0
  0
LINE
  5
AE
330
1F
100
AcDbEntity
  8
0
100
AcDbLine
 10
-30.85439757684324
 20
-54.71362755441164
 30
0.0
 11
-31.16635556516355
 21
-54.45592885786039
 31
0.0
  0
LINE
  5
AF
330
1F
100
AcDbEntity
  8
0
100
AcDbLine
 10
-31.16635556516355
 20
-54.45592885786039
 30
0.0
 11
-31.40098651223385
 21
-54.12627036281147
 31
0.0
  0
LINE
  5
B0
330
1F
100
AcDbEntity
  8
0
100
AcDbLine
 10
-31.40098651223385
 20
-54.12627036281147
 30
0.0
 11
-31.54230070675721
 21
-53.74711775091596
 31
0.0
  0
LINE
  5
B1
330
1F
100
AcDbEntity
  8
0
100
AcDbLine
 10
-31.54230070675721
 20
-53.74711775091596
 30
0.0
 11
-31.58066781990961
 21
-53.34430964609506
 31
0.0
  0
LINE
  5
B2
330
1F
100
AcDbEntity
  8
0
100
AcDbLine
 10
-31.58066781990961
 20
-53.34430964609506
 30
0.0
 11
-31.5134731963344
 21
-52.94529675502054
 31
0.0
  0
LINE
  5
B3
330
1F
100
AcDbEntity
  8
0
100
AcDbLine
 10
-31.5134731963344
 20
-52.94529675502054
 30
0.0
 11
-31.3452960385838
 21
-52.57727114681932
 31
0.0
  0
LINE
  5
B4
330
1F
100
AcDbEntity
  8
0
100
AcDbLine
 10
-31.3452960385838
 20
-52.57727114681932
 30
0.0
 11
-31.08759734203264
 21
-52.265313158499
 31
0.0
  0
LINE
  5
B5
330
1F
100
AcDbEntity
  8
0
100
AcDbLine
 10
-31.08759734203264
 20
-52.265313158499
 30
0.0
 11
-30.75793884698373
 21
-52.03068221142871
 31
0.0
  0
LINE
  5
B6
330
1F
100
AcDbEntity
  8
0
100
AcDbLine
 10
-30.75793884698373
 20
-52.03068221142871
 30
0.0
 11
-30.37878623508812
 21
-51.88936801690525
 31
0.0
  0
LINE
  5
B7
330
1F
100
AcDbEntity
  8
0
100
AcDbLine
 10
-30.37878623508812
 20
-51.88936801690525
 30
0.0
 11
-29.97597813026731
 21
-51.85100090375295
 31
0.0
  0
LINE
  5
B8
330
1F
100
AcDbEntity
  8
0
100
AcDbLine
 10
-29.97597813026731
 20
-51.85100090375295
 30
0.0
 11
-29.57696523919278
 21
-51.91819552732815
 31
0.0
  0
LINE
  5
B9
330
1F
100
AcDbEntity
  8
0
100
AcDbLine
 10
-29.57696523919278
 20
-51.91819552732815
 30
0.0
 11
-29.20893963099148
 21
-52.08637268507876
 31
0.0
  0
LINE
  5
BA
330
1F
100
AcDbEntity
  8
0
100
AcDbLine
 10
-29.20893963099148
 20
-52.08637268507876
 30
0.0
 11
-28.89698164267116
 21
-52.34407138162982
 31
0.0
  0
LINE
  5
BB
330
1F
100
AcDbEntity
  8
0
100
AcDbLine
 10
-28.89698164267116
 20
-52.34407138162982
 30
0.0
 11
-28.66235069560087
 21
-52.67372987667874
 31
0.0
  0
LINE
  5
BC
330
1F
100
AcDbEntity
  8
0
100
AcDbLine
 10
-28.66235069560087
 20
-52.67372987667874
 30
0.0
 11
-28.5210365010775
 21
-53.05288248857444
 31
0.0
  0
LINE
  5
BD
330
1F
100
AcDbEntity
  8
0
100
AcDbLine
 10
-28.5210365010775
 20
-53.05288248857444
 30
0.0
 11
-28.48266938792511
 21
-53.45569059339515
 31
0.0
  0
LINE
  5
BE
330
1F
100
AcDbEntity
  8
0
100
AcDbLine
 10
-28.48266938792511
 20
-53.45569059339515
 30
0.0
 11
-28.54986401150031
 21
-53.85470348446968
 31
0.0
  0
LINE
  5
BF
330
1F
100
AcDbEntity
  8
0
100
AcDbLine
 10
-28.54986401150031
 20
-53.85470348446968
 30
0.0
 11
-28.71804116925091
 21
-54.22272909267108
 31
0.0
  0
LINE
  5
C0
330
1F
100
AcDbEntity
  8
0
100
AcDbLine
 10
-28.71804116925091
 20
-54.22272909267108
 30
0.0
 11
-28.97573986580208
 21
-54.53468708099139
 31
0.0
  0
LINE
  5
C1
330
1F
100
AcDbEntity
  8
0
100
AcDbLine
 10
-28.97573986580208
 20
-54.53468708099139
 30
0.0
 11
-29.30539836085099
 21
-54.76931802806168
 31
0.0
  0
LINE
  5
C2
330
1F
100
AcDbEntity
  8
0
100
AcDbLine
 10
-30.03166860391736
 20
-109.9500001197453
 30
0.0
 11
-30.43283812382624
 21
-109.8971851504934
 31
0.0
  0
LINE
  5
C3
330
1F
100
AcDbEntity
  8
0
100
AcDbLine
 10
-30.43283812382624
 20
-109.8971851504934
 30
0.0
 11
-30.80666860391736
 21
-109.7423394956112
 31
0.0
  0
LINE
  5
C4
330
1F
100
AcDbEntity
  8
0
100
AcDbLine
 10
-30.80666860391736
 20
-109.7423394956112
 30
0.0
 11
-31.12768411475652
 21
-109.4960156305845
 31
0.0
  0
LINE
  5
C5
330
1F
100
AcDbEntity
  8
0
100
AcDbLine
 10
-31.12768411475652
 20
-109.4960156305845
 30
0.0
 11
-31.37400797978322
 21
-109.1750001197453
 31
0.0
  0
LINE
  5
C6
330
1F
100
AcDbEntity
  8
0
100
AcDbLine
 10
-31.37400797978322
 20
-109.1750001197453
 30
0.0
 11
-31.5288536346654
 21
-108.8011696396542
 31
0.0
  0
LINE
  5
C7
330
1F
100
AcDbEntity
  8
0
100
AcDbLine
 10
-31.5288536346654
 20
-108.8011696396542
 30
0.0
 11
-31.58166860391737
 21
-108.4000001197453
 31
0.0
  0
LINE
  5
C8
330
1F
100
AcDbEntity
  8
0
100
AcDbLine
 10
-31.58166860391737
 20
-108.4000001197453
 30
0.0
 11
-31.5288536346654
 21
-107.9988305998364
 31
0.0
  0
LINE
  5
C9
330
1F
100
AcDbEntity
  8
0
100
AcDbLine
 10
-31.5288536346654
 20
-107.9988305998364
 30
0.0
 11
-31.37400797978322
 21
-107.6250001197453
 31
0.0
  0
LINE
  5
CA
330
1F
100
AcDbEntity
  8
0
100
AcDbLine
 10
-31.37400797978322
 20
-107.6250001197453
 30
0.0
 11
-31.12768411475652
 21
-107.3039846089062
 31
0.0
  0
LINE
  5
CB
330
1F
100
AcDbEntity
  8
0
100
AcDbLine
 10
-31.12768411475652
 20
-107.3039846089062
 30
0.0
 11
-30.80666860391736
 21
-107.0576607438795
 31
0.0
  0
LINE
  5
CC
330
1F
100
AcDbEntity
  8
0
100
AcDbLine
 10
-30.80666860391736
 20
-107.0576607438795
 30
0.0
 11
-30.43283812382624
 21
-106.9028150889973
 31
0.0
  0
LINE
  5
CD
330
1F
100
AcDbEntity
  8
0
100
AcDbLine
 10
26.32697836162997
 20
-64.97486010701613
 30
0.0
 11
26.41428377268353
 21
-65.2484241133862
 31
0.0
  0
LINE
  5
CE
330
1F
100
AcDbEntity
  8
0
100
AcDbLine
 10
26.41428377268353
 20
-65.2484241133862
 30
0.0
 11
26.4278107490918
 21
-65.53526295540328
 31
0.0
  0
LINE
  5
CF
330
1F
100
AcDbEntity
  8
0
100
AcDbLine
 10
26.4278107490918
 20
-65.53526295540328
 30
0.0
 11
26.36663744976701
 21
-65.8158290400075
 31
0.0
  0
LINE
  5
D0
330
1F
100
AcDbEntity
  8
0
100
AcDbLine
 10
26.36663744976701
 20
-65.8158290400075
 30
0.0
 11
26.23493273396443
 21
-66.07100225219058
 31
0.0
  0
LINE
  5
D1
330
1F
100
AcDbEntity
  8
0
100
AcDbLine
 10
26.23493273396443
 20
-66.07100225219058
 30
0.0
 11
26.04167206041369
 21
-66.28339295923578
 31
0.0
  0
LINE
  5
D2
330
1F
100
AcDbEntity
  8
0
100
AcDbLine
 10
26.04167206041369
 20
-66.28339295923578
 30
0.0
 11
25.80002582463894
 21
-66.43852708545032
 31
0.0
  0
LINE
  5
D3
330
1F
100
AcDbEntity
  8
0
100
AcDbLine
 10
-29.25666860391735
 20
-107.0576607438795
 30
0.0
 11
-28.9356530930782
 21
-107.3039846089062
 31
0.0
  0
LINE
  5
D4
330
1F
100
AcDbEntity
  8
0
100
AcDbLine
 10
-28.9356530930782
 20
-107.3039846089062
 30
0.0
 11
-28.6893292280515
 21
-107.6250001197453
 31
0.0
  0
LINE
  5
D5
330
1F
100
AcDbEntity
  8
0
100
AcDbLine
 10
-28.6893292280515
 20
-107.6250001197453
 30
0.0
 11
-28.53448357316932
 21
-107.9988305998364
 31
0.0
  0
LINE
  5
D6
330
1F
100
AcDbEntity
  8
0
100
AcDbLine
 10
-28.53448357316932
 20
-107.9988305998364
 30
0.0
 11
-28.48166860391735
 21
-108.4000001197453
 31
0.0
  0
LINE
  5
D7
330
1F
100
AcDbEntity
  8
0
100
AcDbLine
 10
-28.48166860391735
 20
-108.4000001197453
 30
0.0
 11
-28.53448357316932
 21
-108.8011696396542
 31
0.0
  0
LINE
  5
D8
330
1F
100
AcDbEntity
  8
0
100
AcDbLine
 10
-28.53448357316932
 20
-108.8011696396542
 30
0.0
 11
-28.6893292280515
 21
-109.1750001197453
 31
0.0
  0
LINE
  5
D9
330
1F
100
AcDbEntity
  8
0
100
AcDbLine
 10
-28.6893292280515
 20
-109.1750001197453
 30
0.0
 11
-28.9356530930782
 21
-109.4960156305845
 31
0.0
  0
LINE
  5
DA
330
1F
100
AcDbEntity
  8
0
100
AcDbLine
 10
-28.9356530930782
 20
-109.4960156305845
 30
0.0
 11
-29.25666860391735
 21
-109.7423394956112
 31
0.0
  0
LINE
  5
DB
330
1F
100
AcDbEntity
  8
0
100
AcDbLine
 10
-29.25666860391735
 20
-109.7423394956112
 30
0.0
 11
-29.63049908400848
 21
-109.8971851504934
 31
0.0
  0
LINE
  5
DC
330
1F
100
AcDbEntity
  8
0
100
AcDbLine
 10
-29.63049908400848
 20
-109.8971851504934
 30
0.0
 11
-30.03166860391736
 21
-109.9500001197453
 31
0.0
  0
LINE
  5
DD
330
1F
100
AcDbEntity
  8
0
100
AcDbLine
 10
40.03166860391734
 20
-87.20149915977177
 30
0.0
 11
40.03166860391734
 21
-62.34321732773768
 31
0.0
  0
LINE
  5
DE
330
1F
100
AcDbEntity
  8
0
100
AcDbLine
 10
19.84437292993929
 20
-87.20149915977177
 30
0.0
 11
40.03166860391734
 21
-87.20149915977177
 31
0.0
  0
LINE
  5
DF
330
1F
100
AcDbEntity
  8
0
100
AcDbLine
 10
34.01994560927518
 20
-66.18558231880957
 30
0.0
 11
33.85546620149302
 21
-65.95019747478584
 31
0.0
  0
LINE
  5
E0
330
1F
100
AcDbEntity
  8
0
100
AcDbLine
 10
33.85546620149302
 20
-65.95019747478584
 30
0.0
 11
33.7575133741853
 21
-65.68026277156511
 31
0.0
  0
LINE
  5
E1
330
1F
100
AcDbEntity
  8
0
100
AcDbLine
 10
33.7575133741853
 20
-65.68026277156511
 30
0.0
 11
33.73276245065841
 21
-65.39417381308357
 31
0.0
  0
LINE
  5
E2
330
1F
100
AcDbEntity
  8
0
100
AcDbLine
 10
33.73276245065841
 20
-65.39417381308357
 30
0.0
 11
33.78290016544782
 21
-65.11142708907757
 31
0.0
  0
LINE
  5
E3
330
1F
100
AcDbEntity
  8
0
100
AcDbLine
 10
33.78290016544782
 20
-65.11142708907757
 30
0.0
 11
33.90450971614712
 21
-64.8512913215269
 31
0.0
  0
LINE
  5
E4
330
1F
100
AcDbEntity
  8
0
100
AcDbLine
 10
33.90450971614712
 20
-64.8512913215269
 30
0.0
 11
34.08930361284548
 21
-64.63149433309552
 31
0.0
  0
LINE
  5
E5
330
1F
100
AcDbEntity
  8
0
100
AcDbLine
 10
34.08930361284548
 20
-64.63149433309552
 30
0.0
 11
34.32468845686923
 21
-64.46701492531342
 31
0.0
  0
LINE
  5
E6
330
1F
100
AcDbEntity
  8
0
100
AcDbLine
 10
34.32468845686923
 20
-64.46701492531342
 30
0.0
 11
34.59462316008999
 21
-64.36906209800568
 31
0.0
  0
LINE
  5
E7
330
1F
100
AcDbEntity
  8
0
100
AcDbLine
 10
34.59462316008999
 20
-64.36906209800568
 30
0.0
 11
34.88071211857147
 21
-64.34431117447875
 31
0.0
  0
LINE
  5
E8
330
1F
100
AcDbEntity
  8
0
100
AcDbLine
 10
34.88071211857147
 20
-64.34431117447875
 30
0.0
 11
35.1634588425775
 21
-64.39444888926819
 31
0.0
  0
LINE
  5
E9
330
1F
100
AcDbEntity
  8
0
100
AcDbLine
 10
35.1634588425775
 20
-64.39444888926819
 30
0.0
 11
35.42359461012816
 21
-64.51605843996747
 31
0.0
  0
LINE
  5
EA
330
1F
100
AcDbEntity
  8
0
100
AcDbLine
 10
35.42359461012816
 20
-64.51605843996747
 30
0.0
 11
35.64339159855952
 21
-64.70085233666582
 31
0.0
  0
LINE
  5
EB
330
1F
100
AcDbEntity
  8
0
100
AcDbLine
 10
22.31436810148585
 20
117.2900435094136
 30
0.0
 11
22.391499834922
 21
116.8928318525123
 31
0.0
  0
LINE
  5
EC
330
1F
100
AcDbEntity
  8
0
100
AcDbLine
 10
22.391499834922
 20
116.8928318525123
 30
0.0
 11
22.3631974265317
 21
116.4891916930134
 31
0.0
  0
LINE
  5
ED
330
1F
100
AcDbEntity
  8
0
100
AcDbLine
 10
22.3631974265317
 20
116.4891916930134
 30
0.0
 11
22.23138963867477
 21
116.1066304407396
 31
0.0
  0
LINE
  5
EE
330
1F
100
AcDbEntity
  8
0
100
AcDbLine
 10
22.23138963867477
 20
116.1066304407396
 30
0.0
 11
22.00505895427101
 21
115.7712190128211
 31
0.0
  0
LINE
  5
EF
330
1F
100
AcDbEntity
  8
0
100
AcDbLine
 10
22.00505895427101
 20
115.7712190128211
 30
0.0
 11
21.69962943543338
 21
115.5058151437768
 31
0.0
  0
LINE
  5
F0
330
1F
100
AcDbEntity
  8
0
100
AcDbLine
 10
35.75882749168758
 20
-66.03514333394848
 30
0.0
 11
35.57403359498922
 21
-66.25494032237987
 31
0.0
  0
LINE
  5
F1
330
1F
100
AcDbEntity
  8
0
100
AcDbLine
 10
35.57403359498922
 20
-66.25494032237987
 30
0.0
 11
35.33864875096548
 21
-66.41941973016205
 31
0.0
  0
LINE
  5
F2
330
1F
100
AcDbEntity
  8
0
100
AcDbLine
 10
35.33864875096548
 20
-66.41941973016205
 30
0.0
 11
35.06871404774471
 21
-66.51737255746978
 31
0.0
  0
LINE
  5
F3
330
1F
100
AcDbEntity
  8
0
100
AcDbLine
 10
35.06871404774471
 20
-66.51737255746978
 30
0.0
 11
34.78262508926322
 21
-66.54212348099664
 31
0.0
  0
LINE
  5
F4
330
1F
100
AcDbEntity
  8
0
100
AcDbLine
 10
34.78262508926322
 20
-66.54212348099664
 30
0.0
 11
34.4998783652572
 21
-66.49198576620729
 31
0.0
  0
LINE
  5
F5
330
1F
100
AcDbEntity
  8
0
100
AcDbLine
 10
34.4998783652572
 20
-66.49198576620729
 30
0.0
 11
34.23974259770654
 21
-66.37037621550793
 31
0.0
  0
LINE
  5
F6
330
1F
100
AcDbEntity
  8
0
100
AcDbLine
 10
34.23974259770654
 20
-66.37037621550793
 30
0.0
 11
34.01994560927518
 21
-66.18558231880957
 31
0.0
  0
LINE
  5
F7
330
1F
100
AcDbEntity
  8
0
100
AcDbLine
 10
24.33635884620471
 20
-65.91157454845926
 30
0.0
 11
24.24905343515116
 21
-65.63801054208928
 31
0.0
  0
LINE
  5
F8
330
1F
100
AcDbEntity
  8
0
100
AcDbLine
 10
24.24905343515116
 20
-65.63801054208928
 30
0.0
 11
24.23552645874289
 21
-65.35117170007219
 31
0.0
  0
LINE
  5
F9
330
1F
100
AcDbEntity
  8
0
100
AcDbLine
 10
24.23552645874289
 20
-65.35117170007219
 30
0.0
 11
24.29669975806768
 21
-65.07060561546788
 31
0.0
  0
LINE
  5
FA
330
1F
100
AcDbEntity
  8
0
100
AcDbLine
 10
24.29669975806768
 20
-65.07060561546788
 30
0.0
 11
24.42840447387026
 21
-64.81543240328489
 31
0.0
  0
LINE
  5
FB
330
1F
100
AcDbEntity
  8
0
100
AcDbLine
 10
24.42840447387026
 20
-64.81543240328489
 30
0.0
 11
24.621665147421
 21
-64.6030416962396
 31
0.0
  0
LINE
  5
FC
330
1F
100
AcDbEntity
  8
0
100
AcDbLine
 10
24.621665147421
 20
-64.6030416962396
 30
0.0
 11
24.86331138319575
 21
-64.44790757002507
 31
0.0
  0
LINE
  5
FD
330
1F
100
AcDbEntity
  8
0
100
AcDbLine
 10
24.86331138319575
 20
-64.44790757002507
 30
0.0
 11
25.13687538956579
 21
-64.36060215897159
 31
0.0
  0
LINE
  5
FE
330
1F
100
AcDbEntity
  8
0
100
AcDbLine
 10
25.13687538956579
 20
-64.36060215897159
 30
0.0
 11
25.42371423158289
 21
-64.34707518256323
 31
0.0
  0
LINE
  5
FF
330
1F
100
AcDbEntity
  8
0
100
AcDbLine
 10
25.42371423158289
 20
-64.34707518256323
 30
0.0
 11
25.70428031618716
 21
-64.40824848188802
 31
0.0
  0
LINE
  5
100
330
1F
100
AcDbEntity
  8
0
100
AcDbLine
 10
25.70428031618716
 20
-64.40824848188802
 30
0.0
 11
25.95945352837022
 21
-64.53995319769065
 31
0.0
  0
LINE
  5
101
330
1F
100
AcDbEntity
  8
0
100
AcDbLine
 10
25.95945352837022
 20
-64.53995319769065
 30
0.0
 11
26.17184423541545
 21
-64.73321387124139
 31
0.0
  0
LINE
  5
102
330
1F
100
AcDbEntity
  8
0
100
AcDbLine
 10
26.17184423541545
 20
-64.73321387124139
 30
0.0
 11
26.32697836162997
 21
-64.97486010701613
 31
0.0
  0
LINE
  5
103
330
1F
100
AcDbEntity
  8
0
100
AcDbLine
 10
-7.25164258089991
 20
117.8945163510674
 30
0.0
 11
-6.930627070060756
 21
118.1408402160942
 31
0.0
  0
LINE
  5
104
330
1F
100
AcDbEntity
  8
0
100
AcDbLine
 10
-6.930627070060756
 20
118.1408402160942
 30
0.0
 11
-6.556796589969657
 21
118.2956858709764
 31
0.0
  0
LINE
  5
105
330
1F
100
AcDbEntity
  8
0
100
AcDbLine
 10
-6.556796589969657
 20
118.2956858709764
 30
0.0
 11
-6.155627070060752
 21
118.3485008402283
 31
0.0
  0
LINE
  5
106
330
1F
100
AcDbEntity
  8
0
100
AcDbLine
 10
-6.155627070060752
 20
118.3485008402283
 30
0.0
 11
-5.754457550151846
 21
118.2956858709764
 31
0.0
  0
LINE
  5
107
330
1F
100
AcDbEntity
  8
0
100
AcDbLine
 10
-5.754457550151846
 20
118.2956858709764
 30
0.0
 11
-5.380627070060747
 21
118.1408402160942
 31
0.0
  0
LINE
  5
108
330
1F
100
AcDbEntity
  8
0
100
AcDbLine
 10
-5.380627070060747
 20
118.1408402160942
 30
0.0
 11
-5.059611559221593
 21
117.8945163510674
 31
0.0
  0
LINE
  5
109
330
1F
100
AcDbEntity
  8
0
100
AcDbLine
 10
-5.059611559221593
 20
117.8945163510674
 30
0.0
 11
-4.813287694194873
 21
117.5735008402283
 31
0.0
  0
LINE
  5
10A
330
1F
100
AcDbEntity
  8
0
100
AcDbLine
 10
-4.813287694194873
 20
117.5735008402283
 30
0.0
 11
-4.658442039312688
 21
117.1996703601372
 31
0.0
  0
LINE
  5
10B
330
1F
100
AcDbEntity
  8
0
100
AcDbLine
 10
25.80002582463894
 20
-66.43852708545032
 30
0.0
 11
25.5264618182689
 21
-66.5258324965039
 31
0.0
  0
LINE
  5
10C
330
1F
100
AcDbEntity
  8
0
100
AcDbLine
 10
25.5264618182689
 20
-66.5258324965039
 30
0.0
 11
25.2396229762518
 21
-66.53935947291215
 31
0.0
  0
LINE
  5
10D
330
1F
100
AcDbEntity
  8
0
100
AcDbLine
 10
25.2396229762518
 20
-66.53935947291215
 30
0.0
 11
24.95905689164753
 21
-66.47818617358736
 31
0.0
  0
LINE
  5
10E
330
1F
100
AcDbEntity
  8
0
100
AcDbLine
 10
24.95905689164753
 20
-66.47818617358736
 30
0.0
 11
24.70388367946448
 21
-66.34648145778482
 31
0.0
  0
LINE
  5
10F
330
1F
100
AcDbEntity
  8
0
100
AcDbLine
 10
24.70388367946448
 20
-66.34648145778482
 30
0.0
 11
24.49149297241923
 21
-66.1532207842341
 31
0.0
  0
LINE
  5
110
330
1F
100
AcDbEntity
  8
0
100
AcDbLine
 10
24.49149297241923
 20
-66.1532207842341
 30
0.0
 11
24.33635884620471
 21
-65.91157454845926
 31
0.0
  0
LINE
  5
111
330
1F
100
AcDbEntity
  8
0
100
AcDbLine
 10
0.2943729299392255
 20
-111.4000000000001
 30
0.0
 11
0.3471878991911705
 21
-110.9988304800912
 31
0.0
  0
LINE
  5
112
330
1F
100
AcDbEntity
  8
0
100
AcDbLine
 10
0.3471878991911705
 20
-110.9988304800912
 30
0.0
 11
0.5020335540733553
 21
-110.6250000000001
 31
0.0
  0
LINE
  5
113
330
1F
100
AcDbEntity
  8
0
100
AcDbLine
 10
0.5020335540733553
 20
-110.6250000000001
 30
0.0
 11
0.7483574191000758
 21
-110.303984489161
 31
0.0
  0
LINE
  5
114
330
1F
100
AcDbEntity
  8
0
100
AcDbLine
 10
0.7483574191000758
 20
-110.303984489161
 30
0.0
 11
1.06937292993923
 21
-110.0576606241342
 31
0.0
  0
LINE
  5
115
330
1F
100
AcDbEntity
  8
0
100
AcDbLine
 10
1.06937292993923
 20
-110.0576606241342
 30
0.0
 11
1.443203410030329
 21
-109.902814969252
 31
0.0
  0
LINE
  5
116
330
1F
100
AcDbEntity
  8
0
100
AcDbLine
 10
1.443203410030329
 20
-109.902814969252
 30
0.0
 11
1.844372929939234
 21
-109.8500000000001
 31
0.0
  0
LINE
  5
117
330
1F
100
AcDbEntity
  8
0
100
AcDbLine
 10
1.844372929939234
 20
-109.8500000000001
 30
0.0
 11
2.245542449848139
 21
-109.902814969252
 31
0.0
  0
LINE
  5
118
330
1F
100
AcDbEntity
  8
0
100
AcDbLine
 10
2.245542449848139
 20
-109.902814969252
 30
0.0
 11
2.619372929939238
 21
-110.0576606241342
 31
0.0
  0
LINE
  5
119
330
1F
100
AcDbEntity
  8
0
100
AcDbLine
 10
2.619372929939238
 20
-110.0576606241342
 30
0.0
 11
2.940388440778392
 21
-110.303984489161
 31
0.0
  0
LINE
  5
11A
330
1F
100
AcDbEntity
  8
0
100
AcDbLine
 10
2.940388440778392
 20
-110.303984489161
 30
0.0
 11
3.186712305805113
 21
-110.6250000000001
 31
0.0
  0
LINE
  5
11B
330
1F
100
AcDbEntity
  8
0
100
AcDbLine
 10
3.186712305805113
 20
-110.6250000000001
 30
0.0
 11
3.341557960687297
 21
-110.9988304800912
 31
0.0
  0
LINE
  5
11C
330
1F
100
AcDbEntity
  8
0
100
AcDbLine
 10
3.341557960687297
 20
-110.9988304800912
 30
0.0
 11
3.394372929939242
 21
-111.4000000000001
 31
0.0
  0
LINE
  5
11D
330
1F
100
AcDbEntity
  8
0
100
AcDbLine
 10
3.394372929939242
 20
-111.4000000000001
 30
0.0
 11
3.341557960687297
 21
-111.801169519909
 31
0.0
  0
LINE
  5
11E
330
1F
100
AcDbEntity
  8
0
100
AcDbLine
 10
3.341557960687297
 20
-111.801169519909
 30
0.0
 11
3.186712305805113
 21
-112.1750000000001
 31
0.0
  0
LINE
  5
11F
330
1F
100
AcDbEntity
  8
0
100
AcDbLine
 10
3.186712305805113
 20
-112.1750000000001
 30
0.0
 11
2.940388440778392
 21
-112.4960155108393
 31
0.0
  0
LINE
  5
120
330
1F
100
AcDbEntity
  8
0
100
AcDbLine
 10
2.940388440778392
 20
-112.4960155108393
 30
0.0
 11
2.619372929939238
 21
-112.742339375866
 31
0.0
  0
LINE
  5
121
330
1F
100
AcDbEntity
  8
0
100
AcDbLine
 10
2.619372929939238
 20
-112.742339375866
 30
0.0
 11
2.245542449848139
 21
-112.8971850307481
 31
0.0
  0
LINE
  5
122
330
1F
100
AcDbEntity
  8
0
100
AcDbLine
 10
2.245542449848139
 20
-112.8971850307481
 30
0.0
 11
1.844372929939234
 21
-112.9500000000001
 31
0.0
  0
LINE
  5
123
330
1F
100
AcDbEntity
  8
0
100
AcDbLine
 10
1.844372929939234
 20
-112.9500000000001
 30
0.0
 11
1.443203410030329
 21
-112.8971850307481
 31
0.0
  0
LINE
  5
124
330
1F
100
AcDbEntity
  8
0
100
AcDbLine
 10
1.443203410030329
 20
-112.8971850307481
 30
0.0
 11
1.06937292993923
 21
-112.742339375866
 31
0.0
  0
LINE
  5
125
330
1F
100
AcDbEntity
  8
0
100
AcDbLine
 10
1.06937292993923
 20
-112.742339375866
 30
0.0
 11
0.7483574191000758
 21
-112.4960155108393
 31
0.0
  0
LINE
  5
126
330
1F
100
AcDbEntity
  8
0
100
AcDbLine
 10
0.7483574191000758
 20
-112.4960155108393
 30
0.0
 11
0.5020335540733553
 21
-112.1750000000001
 31
0.0
  0
LINE
  5
127
330
1F
100
AcDbEntity
  8
0
100
AcDbLine
 10
0.5020335540733553
 20
-112.1750000000001
 30
0.0
 11
0.3471878991911705
 21
-111.801169519909
 31
0.0
  0
LINE
  5
128
330
1F
100
AcDbEntity
  8
0
100
AcDbLine
 10
0.3471878991911705
 20
-111.801169519909
 30
0.0
 11
0.2943729299392255
 21
-111.4000000000001
 31
0.0
  0
LINE
  5
129
330
1F
100
AcDbEntity
  8
0
100
AcDbLine
 10
-10.65562707006077
 20
121.3999999999999
 30
0.0
 11
-10.65562707006077
 21
111.6001188000015
 31
0.0
  0
LINE
  5
12A
330
1F
100
AcDbEntity
  8
0
100
AcDbLine
 10
26.8443729299393
 20
121.4000000000001
 30
0.0
 11
-10.65562707006077
 21
121.3999999999999
 31
0.0
  0
LINE
  5
12B
330
1F
100
AcDbEntity
  8
0
100
AcDbLine
 10
22.13705862639068
 20
117.6537573457224
 30
0.0
 11
22.31436810148585
 21
117.2900435094136
 31
0.0
  0
LINE
  5
12C
330
1F
100
AcDbEntity
  8
0
100
AcDbLine
 10
21.69962943543338
 20
115.5058151437768
 30
0.0
 11
21.33591559912453
 21
115.3285056686817
 31
0.0
  0
LINE
  5
12D
330
1F
100
AcDbEntity
  8
0
100
AcDbLine
 10
21.33591559912453
 20
115.3285056686817
 30
0.0
 11
20.93870394222338
 21
115.2513739352456
 31
0.0
  0
LINE
  5
12E
330
1F
100
AcDbEntity
  8
0
100
AcDbLine
 10
20.93870394222338
 20
115.2513739352456
 30
0.0
 11
20.53506378272445
 21
115.2796763436359
 31
0.0
  0
LINE
  5
12F
330
1F
100
AcDbEntity
  8
0
100
AcDbLine
 10
20.53506378272445
 20
115.2796763436359
 30
0.0
 11
20.15250253045066
 21
115.4114841314928
 31
0.0
  0
LINE
  5
130
330
1F
100
AcDbEntity
  8
0
100
AcDbLine
 10
20.15250253045066
 20
115.4114841314928
 30
0.0
 11
19.81709110253212
 21
115.6378148158966
 31
0.0
  0
LINE
  5
131
330
1F
100
AcDbEntity
  8
0
100
AcDbLine
 10
19.81709110253212
 20
115.6378148158966
 30
0.0
 11
19.5516872334879
 21
115.9432443347342
 31
0.0
  0
LINE
  5
132
330
1F
100
AcDbEntity
  8
0
100
AcDbLine
 10
19.5516872334879
 20
115.9432443347342
 30
0.0
 11
19.37437775839273
 21
116.306958171043
 31
0.0
  0
LINE
  5
133
330
1F
100
AcDbEntity
  8
0
100
AcDbLine
 10
19.37437775839273
 20
116.306958171043
 30
0.0
 11
19.29724602495657
 21
116.7041698279441
 31
0.0
  0
LINE
  5
134
330
1F
100
AcDbEntity
  8
0
100
AcDbLine
 10
19.29724602495657
 20
116.7041698279441
 30
0.0
 11
19.32554843334687
 21
117.1078099874431
 31
0.0
  0
LINE
  5
135
330
1F
100
AcDbEntity
  8
0
100
AcDbLine
 10
19.32554843334687
 20
117.1078099874431
 30
0.0
 11
19.45735622120381
 21
117.4903712397169
 31
0.0
  0
LINE
  5
136
330
1F
100
AcDbEntity
  8
0
100
AcDbLine
 10
19.45735622120381
 20
117.4903712397169
 30
0.0
 11
19.68368690560756
 21
117.8257826676355
 31
0.0
  0
LINE
  5
137
330
1F
100
AcDbEntity
  8
0
100
AcDbLine
 10
19.68368690560756
 20
117.8257826676355
 30
0.0
 11
19.9891164244452
 21
118.0911865366796
 31
0.0
  0
LINE
  5
138
330
1F
100
AcDbEntity
  8
0
100
AcDbLine
 10
19.9891164244452
 20
118.0911865366796
 30
0.0
 11
20.35283026075405
 21
118.2684960117748
 31
0.0
  0
LINE
  5
139
330
1F
100
AcDbEntity
  8
0
100
AcDbLine
 10
20.35283026075405
 20
118.2684960117748
 30
0.0
 11
20.7500419176552
 21
118.345627745211
 31
0.0
  0
LINE
  5
13A
330
1F
100
AcDbEntity
  8
0
100
AcDbLine
 10
20.7500419176552
 20
118.345627745211
 30
0.0
 11
21.15368207715413
 21
118.3173253368207
 31
0.0
  0
LINE
  5
13B
330
1F
100
AcDbEntity
  8
0
100
AcDbLine
 10
21.15368207715413
 20
118.3173253368207
 30
0.0
 11
21.53624332942791
 21
118.1855175489637
 31
0.0
  0
LINE
  5
13C
330
1F
100
AcDbEntity
  8
0
100
AcDbLine
 10
21.53624332942791
 20
118.1855175489637
 30
0.0
 11
21.87165475734646
 21
117.95918686456
 31
0.0
  0
LINE
  5
13D
330
1F
100
AcDbEntity
  8
0
100
AcDbLine
 10
21.87165475734646
 20
117.95918686456
 30
0.0
 11
22.13705862639068
 21
117.6537573457224
 31
0.0
  0
LINE
  5
13E
330
1F
100
AcDbEntity
  8
0
100
AcDbLine
 10
-4.605627070060743
 20
116.7985008402283
 30
0.0
 11
-4.658442039312688
 21
116.3973313203193
 31
0.0
  0
LINE
  5
13F
330
1F
100
AcDbEntity
  8
0
100
AcDbLine
 10
-4.658442039312688
 20
116.3973313203193
 30
0.0
 11
-4.813287694194873
 21
116.0235008402283
 31
0.0
  0
LINE
  5
140
330
1F
100
AcDbEntity
  8
0
100
AcDbLine
 10
-4.813287694194873
 20
116.0235008402283
 30
0.0
 11
-5.059611559221593
 21
115.7024853293891
 31
0.0
  0
LINE
  5
141
330
1F
100
AcDbEntity
  8
0
100
AcDbLine
 10
-5.059611559221593
 20
115.7024853293891
 30
0.0
 11
-5.380627070060747
 21
115.4561614643624
 31
0.0
  0
LINE
  5
142
330
1F
100
AcDbEntity
  8
0
100
AcDbLine
 10
-5.380627070060747
 20
115.4561614643624
 30
0.0
 11
-5.754457550151846
 21
115.3013158094802
 31
0.0
  0
LINE
  5
143
330
1F
100
AcDbEntity
  8
0
100
AcDbLine
 10
-5.754457550151846
 20
115.3013158094802
 30
0.0
 11
-6.155627070060752
 21
115.2485008402283
 31
0.0
  0
LINE
  5
144
330
1F
100
AcDbEntity
  8
0
100
AcDbLine
 10
-6.155627070060752
 20
115.2485008402283
 30
0.0
 11
-6.556796589969657
 21
115.3013158094802
 31
0.0
  0
LINE
  5
145
330
1F
100
AcDbEntity
  8
0
100
AcDbLine
 10
-6.556796589969657
 20
115.3013158094802
 30
0.0
 11
-6.930627070060756
 21
115.4561614643624
 31
0.0
  0
LINE
  5
146
330
1F
100
AcDbEntity
  8
0
100
AcDbLine
 10
-6.930627070060756
 20
115.4561614643624
 30
0.0
 11
-7.25164258089991
 21
115.7024853293891
 31
0.0
  0
LINE
  5
147
330
1F
100
AcDbEntity
  8
0
100
AcDbLine
 10
-7.25164258089991
 20
115.7024853293891
 30
0.0
 11
-7.49796644592663
 21
116.0235008402283
 31
0.0
  0
LINE
  5
148
330
1F
100
AcDbEntity
  8
0
100
AcDbLine
 10
-7.49796644592663
 20
116.0235008402283
 30
0.0
 11
-7.652812100808815
 21
116.3973313203193
 31
0.0
  0
LINE
  5
149
330
1F
100
AcDbEntity
  8
0
100
AcDbLine
 10
-7.652812100808815
 20
116.3973313203193
 30
0.0
 11
-7.70562707006076
 21
116.7985008402283
 31
0.0
  0
LINE
  5
14A
330
1F
100
AcDbEntity
  8
0
100
AcDbLine
 10
-7.70562707006076
 20
116.7985008402283
 30
0.0
 11
-7.652812100808815
 21
117.1996703601372
 31
0.0
  0
LINE
  5
14B
330
1F
100
AcDbEntity
  8
0
100
AcDbLine
 10
-7.652812100808815
 20
117.1996703601372
 30
0.0
 11
-7.49796644592663
 21
117.5735008402283
 31
0.0
  0
LINE
  5
14C
330
1F
100
AcDbEntity
  8
0
100
AcDbLine
 10
-7.49796644592663
 20
117.5735008402283
 30
0.0
 11
-7.25164258089991
 21
117.8945163510674
 31
0.0
  0
LINE
  5
14D
330
1F
100
AcDbEntity
  8
0
100
AcDbLine
 10
-4.658442039312688
 20
117.1996703601372
 30
0.0
 11
-4.605627070060743
 21
116.7985008402283
 31
0.0
  0
LINE
  5
14E
330
1F
100
AcDbEntity
  8
0
100
AcDbLine
 10
40.03166860391734
 20
-62.34321732773768
 30
0.0
 11
19.84437292993929
 21
-62.34321732773768
 31
0.0
  0
LINE
  5
14F
330
1F
100
AcDbEntity
  8
0
100
AcDbLine
 10
19.84437292993929
 20
-62.34321732773768
 30
0.0
 11
19.84437292993929
 21
111.6001188000015
 31
0.0
  0
LINE
  5
150
330
1F
100
AcDbEntity
  8
0
100
AcDbLine
 10
19.84437292993929
 20
111.6001188000015
 30
0.0
 11
26.8443729299393
 21
111.6001188000015
 31
0.0
  0
LINE
  5
151
330
1F
100
AcDbEntity
  8
0
100
AcDbLine
 10
26.8443729299393
 20
111.6001188000015
 30
0.0
 11
26.8443729299393
 21
121.4000000000001
 31
0.0
  0
LINE
  5
152
330
1F
100
AcDbEntity
  8
0
100
AcDbLine
 10
-2.155627070060759
 20
111.6001188000015
 30
0.0
 11
-10.65562707006077
 21
111.6001188000015
 31
0.0
  0
LINE
  5
153
330
1F
100
AcDbEntity
  8
0
100
AcDbLine
 10
-2.155627070060759
 20
-43.89999998622578
 30
0.0
 11
-2.155627070060759
 21
111.6001188000015
 31
0.0
  0
ENDSEC
  0
SECTION
  2
OBJECTS
  0
DICTIONARY
  5
C
330
0
100
AcDbDictionary
  3
ACAD_GROUP
350
D
  3
ACAD_LAYOUT
350
1A
  3
ACAD_MATERIAL
350
43
  3
ACAD_MLEADERSTYLE
350
176
  3
ACAD_MLINESTYLE
350
17
  3
ACAD_PLOTSETTINGS
350
19
  3
ACAD_SCALELIST
350
47
  3
ACAD_VISUALSTYLE
350
2A
  3
ACDBHEADERROUNDTRIPXREC
350
154
  3
ACDBVARIABLEDICTIONARY
350
174
  0
DICTIONARY
  5
17B
330
8
100
AcDbDictionary
280
     1
  3
ACAD_XREC_ROUNDTRIP
360
17C
  0
DICTIONARY
  5
D
102
{ACAD_REACTORS
330
C
102
}
330
C
100
AcDbDictionary
  0
DICTIONARY
  5
1A
102
{ACAD_REACTORS
330
C
102
}
330
C
100
AcDbDictionary
  0
DICTIONARY
  5
43
102
{ACAD_REACTORS
330
C
102
}
330
C
100
AcDbDictionary
  3
BYBLOCK
350
45
  3
BYLAYER
350
44
  3
GLOBAL
350
46
  0
DICTIONARY
  5
176
102
{ACAD_REACTORS
330
C
102
}
330
C
100
AcDbDictionary
  0
DICTIONARY
  5
17
102
{ACAD_REACTORS
330
C
102
}
330
C
100
AcDbDictionary
  3
STANDARD
350
18
  0
DICTIONARY
  5
19
102
{ACAD_REACTORS
330
C
102
}
330
C
100
AcDbDictionary
  0
DICTIONARY
  5
47
102
{ACAD_REACTORS
330
C
102
}
330
C
100
AcDbDictionary
  3
A0
350
48
  3
A1
350
49
  3
A2
350
4A
  3
A3
350
4B
  3
A4
350
4C
  3
A5
350
4D
  3
A6
350
4E
  3
A7
350
4F
  3
A8
350
50
  3
A9
350
51
  3
B0
350
52
  3
B1
350
53
  3
B2
350
54
  3
B3
350
55
  3
B4
350
56
  3
B5
350
57
  3
B6
350
58
  3
B7
350
59
  3
B8
350
5A
  3
B9
350
5B
  3
C0
350
5C
  3
C1
350
5D
  3
C2
350
5E
  3
C3
350
5F
  3
C4
350
60
  3
C5
350
61
  3
C6
350
62
  3
C7
350
63
  3
C8
350
64
  3
C9
350
65
  3
D0
350
66
  3
D1
350
67
  3
D2
350
68
  0
DICTIONARY
  5
2A
102
{ACAD_REACTORS
330
C
102
}
330
C
100
AcDbDictionary
  3
2DWIREFRAME
350
2F
  3
BASIC
350
32
  3
BRIGHTEN
350
36
  3
COLORCHANGE
350
3A
  3
CONCEPTUAL
350
34
  3
DIM
350
35
  3
EDGECOLOROFF
350
3D
  3
FACEPATTERN
350
39
  3
FLAT
350
2B
  3
FLATWITHEDGES
350
2C
  3
GOURAUD
350
2D
  3
GOURAUDWITHEDGES
350
2E
  3
HIDDEN
350
31
  3
JITTEROFF
350
3B
  3
LINEPATTERN
350
38
  3
OVERHANGOFF
350
3C
  3
REALISTIC
350
33
  3
SHADED
350
42
  3
SHADED_WITH_EDGES
350
41
  3
SHADES_OF_GRAY
350
3E
  3
SKETCHY
350
3F
  3
THICKEN
350
37
  3
WIREFRAME
350
30
  3
X-RAY
350
40
  0
DICTIONARY
  5
154
102
{ACAD_REACTORS
330
C
102
}
330
C
100
AcDbDictionary
  3
CEPSNTYPE
350
15D
  3
DIMSTYLEDATA
350
173
  3
FINGERPRINTGUID
350
15E
  3
HYPERLINKBASE
350
157
  3
INSUNITS
350
15C
  3
LAYOUTDICT
350
159
  3
LWETCUNION
350
15B
  3
PLOTSETDICT
350
15A
  3
PSVPSCALE
350
160
  3
PUCSBASE
350
163
  3
PUCSORGBACK
350
169
  3
PUCSORGBOTTOM
350
165
  3
PUCSORGFRONT
350
168
  3
PUCSORGLEFT
350
166
  3
PUCSORGRIGHT
350
167
  3
PUCSORGTOP
350
164
  3
PUCSORTHOREF
350
161
  3
PUCSORTHOVIEW
350
162
  3
STYLESHEET
350
158
  3
TSTACKALIGN
350
155
  3
TSTACKSIZE
350
156
  3
UCSBASE
350
16C
  3
UCSORGBACK
350
172
  3
UCSORGBOTTOM
350
16E
  3
UCSORGFRONT
350
171
  3
UCSORGLEFT
350
16F
  3
UCSORGRIGHT
350
170
  3
UCSORGTOP
350
16D
  3
UCSORTHOREF
350
16A
  3
UCSORTHOVIEW
350
16B
  3
VERSIONGUID
350
15F
  0
DICTIONARY
  5
174
102
{ACAD_REACTORS
330
C
102
}
330
C
100
AcDbDictionary
  3
CANNOSCALE
350
17D
  3
DIMASSOC
350
179
  3
HIDETEXT
350
17A
  3
MSLTSCALE
350
17E
  0
XRECORD
  5
17C
102
{ACAD_REACTORS
330
17B
102
}
330
17B
100
AcDbXrecord
102
VTR_0.000_0.000_1.000_1.000_GRIDDISPLAY
 70
     3
102
VTR_0.000_0.000_1.000_1.000_GRIDMAJOR
 70
     5
102
VTR_0.000_0.000_1.000_1.000_DEFAULTLIGHTING
280
     1
102
VTR_0.000_0.000_1.000_1.000_DEFAULTLIGHTINGTYPE
 70
     1
102
VTR_0.000_0.000_1.000_1.000_BRIGHTNESS
141
0.0
102
VTR_0.000_0.000_1.000_1.000_CONTRAST
142
0.0
  0
MATERIAL
  5
45
102
{ACAD_REACTORS
330
43
102
}
102
{ACAD_XDICTIONARY
360
181
102
}
330
43
100
AcDbMaterial
  1
BYBLOCK
  0
MATERIAL
  5
44
102
{ACAD_REACTORS
330
43
102
}
102
{ACAD_XDICTIONARY
360
17F
102
}
330
43
100
AcDbMaterial
  1
BYLAYER
  0
MATERIAL
  5
46
102
{ACAD_REACTORS
330
43
102
}
102
{ACAD_XDICTIONARY
360
183
102
}
330
43
100
AcDbMaterial
  1
GLOBAL
  0
MLINESTYLE
  5
18
102
{ACAD_REACTORS
330
17
102
}
330
17
100
AcDbMlineStyle
  2
Standard
 70
     0
  3

 62
   256
 51
90.0
 52
90.0
 71
     2
 49
0.5
 62
   256
  6
BYLAYER
 49
-0.5
 62
   256
  6
BYLAYER
  0
ACAD_PROXY_OBJECT
  5
48
102
{ACAD_REACTORS
330
47
102
}
330
47
100
AcDbProxyObject
 90
      499
 91
      503
 93
       41
310
903313A31580
  0
ACAD_PROXY_OBJECT
  5
49
102
{ACAD_REACTORS
330
47
102
}
330
47
100
AcDbProxyObject
 90
      499
 91
      503
 93
      105
310
903313A324000000000000004000
  0
ACAD_PROXY_OBJECT
  5
4A
102
{ACAD_REACTORS
330
47
102
}
330
47
100
AcDbProxyObject
 90
      499
 91
      503
 93
      105
310
903313A344000000000000104000
  0
ACAD_PROXY_OBJECT
  5
4B
102
{ACAD_REACTORS
330
47
102
}
330
47
100
AcDbProxyObject
 90
      499
 91
      503
 93
      105
310
903313A354000000000000144000
  0
ACAD_PROXY_OBJECT
  5
4C
102
{ACAD_REACTORS
330
47
102
}
330
47
100
AcDbProxyObject
 90
      499
 91
      503
 93
      105
310
903313A384000000000000204000
  0
ACAD_PROXY_OBJECT
  5
4D
102
{ACAD_REACTORS
330
47
102
}
330
47
100
AcDbProxyObject
 90
      499
 91
      503
 93
      113
310
904313A31304000000000000244000
  0
ACAD_PROXY_OBJECT
  5
4E
102
{ACAD_REACTORS
330
47
102
}
330
47
100
AcDbProxyObject
 90
      499
 91
      503
 93
      113
310
904313A31364000000000000304000
  0
ACAD_PROXY_OBJECT
  5
4F
102
{ACAD_REACTORS
330
47
102
}
330
47
100
AcDbProxyObject
 90
      499
 91
      503
 93
      113
310
904313A32304000000000000344000
  0
ACAD_PROXY_OBJECT
  5
50
102
{ACAD_REACTORS
330
47
102
}
330
47
100
AcDbProxyObject
 90
      499
 91
      503
 93
      113
310
904313A333040000000000003E4000
  0
ACAD_PROXY_OBJECT
  5
51
102
{ACAD_REACTORS
330
47
102
}
330
47
100
AcDbProxyObject
 90
      499
 91
      503
 93
      113
310
904313A34304000000000000444000
  0
ACAD_PROXY_OBJECT
  5
52
102
{ACAD_REACTORS
330
47
102
}
330
47
100
AcDbProxyObject
 90
      499
 91
      503
 93
      113
310
904313A35304000000000000494000
  0
ACAD_PROXY_OBJECT
  5
53
102
{ACAD_REACTORS
330
47
102
}
330
47
100
AcDbProxyObject
 90
      499
 91
      503
 93
      121
310
905313A3130304000000000000594000
  0
ACAD_PROXY_OBJECT
  5
54
102
{ACAD_REACTORS
330
47
102
}
330
47
100
AcDbProxyObject
 90
      499
 91
      503
 93
      105
310
903323A310000000000000010100
  0
ACAD_PROXY_OBJECT
  5
55
102
{ACAD_REACTORS
330
47
102
}
330
47
100
AcDbProxyObject
 90
      499
 91
      503
 93
      105
310
903343A310000000000000410100
  0
ACAD_PROXY_OBJECT
  5
56
102
{ACAD_REACTORS
330
47
102
}
330
47
100
AcDbProxyObject
 90
      499
 91
      503
 93
      105
310
903383A310000000000000810100
  0
ACAD_PROXY_OBJECT
  5
57
102
{ACAD_REACTORS
330
47
102
}
330
47
100
AcDbProxyObject
 90
      499
 91
      503
 93
      113
310
90431303A310000000000000910100
  0
ACAD_PROXY_OBJECT
  5
58
102
{ACAD_REACTORS
330
47
102
}
330
47
100
AcDbProxyObject
 90
      499
 91
      503
 93
      121
310
9053130303A310000000000001650100
  0
ACAD_PROXY_OBJECT
  5
59
102
{ACAD_REACTORS
330
47
102
}
330
47
100
AcDbProxyObject
 90
      499
 91
      503
 93
      257
310
90E312F31323822203D2031272D3022000000000000200FC000000000000284000
  0
ACAD_PROXY_OBJECT
  5
5A
102
{ACAD_REACTORS
330
47
102
}
330
47
100
AcDbProxyObject
 90
      499
 91
      503
 93
      249
310
90D312F363422203D2031272D3022000000000000240FC000000000000284000
  0
ACAD_PROXY_OBJECT
  5
5B
102
{ACAD_REACTORS
330
47
102
}
330
47
100
AcDbProxyObject
 90
      499
 91
      503
 93
      249
310
90D312F333222203D2031272D3022000000000000280FC000000000000284000
  0
ACAD_PROXY_OBJECT
  5
5C
102
{ACAD_REACTORS
330
47
102
}
330
47
100
AcDbProxyObject
 90
      499
 91
      503
 93
      249
310
90D312F313622203D2031272D30220000000000002C0FC000000000000284000
  0
ACAD_PROXY_OBJECT
  5
5D
102
{ACAD_REACTORS
330
47
102
}
330
47
100
AcDbProxyObject
 90
      499
 91
      503
 93
      249
310
90D332F333222203D2031272D30220000000000002E0FC000000000000284000
  0
ACAD_PROXY_OBJECT
  5
5E
102
{ACAD_REACTORS
330
47
102
}
330
47
100
AcDbProxyObject
 90
      499
 91
      503
 93
      241
310
90C312F3822203D2031272D3022000000000000300FC000000000000284000
  0
ACAD_PROXY_OBJECT
  5
5F
102
{ACAD_REACTORS
330
47
102
}
330
47
100
AcDbProxyObject
 90
      499
 91
      503
 93
      249
310
90D332F313622203D2031272D3022000000000000320FC000000000000284000
  0
ACAD_PROXY_OBJECT
  5
60
102
{ACAD_REACTORS
330
47
102
}
330
47
100
AcDbProxyObject
 90
      499
 91
      503
 93
      241
310
90C312F3422203D2031272D3022000000000000340FC000000000000284000
  0
ACAD_PROXY_OBJECT
  5
61
102
{ACAD_REACTORS
330
47
102
}
330
47
100
AcDbProxyObject
 90
      499
 91
      503
 93
      241
310
90C332F3822203D2031272D3022000000000000360FC000000000000284000
  0
ACAD_PROXY_OBJECT
  5
62
102
{ACAD_REACTORS
330
47
102
}
330
47
100
AcDbProxyObject
 90
      499
 91
      503
 93
      241
310
90C312F3222203D2031272D3022000000000000380FC000000000000284000
  0
ACAD_PROXY_OBJECT
  5
63
102
{ACAD_REACTORS
330
47
102
}
330
47
100
AcDbProxyObject
 90
      499
 91
      503
 93
      241
310
90C332F3422203D2031272D30220000000000003A0FC000000000000284000
  0
ACAD_PROXY_OBJECT
  5
64
102
{ACAD_REACTORS
330
47
102
}
330
47
100
AcDbProxyObject
 90
      499
 91
      503
 93
      161
310
90A3122203D2031272D30224000000000000284000
  0
ACAD_PROXY_OBJECT
  5
65
102
{ACAD_REACTORS
330
47
102
}
330
47
100
AcDbProxyObject
 90
      499
 91
      503
 93
      257
310
90E312D312F3222203D2031272D30220000000000003E0FC000000000000284000
  0
ACAD_PROXY_OBJECT
  5
66
102
{ACAD_REACTORS
330
47
102
}
330
47
100
AcDbProxyObject
 90
      499
 91
      503
 93
      225
310
90A3322203D2031272D302200000000000002100000000000000284000
  0
ACAD_PROXY_OBJECT
  5
67
102
{ACAD_REACTORS
330
47
102
}
330
47
100
AcDbProxyObject
 90
      499
 91
      503
 93
      225
310
90A3622203D2031272D302200000000000006100000000000000284000
  0
ACAD_PROXY_OBJECT
  5
68
102
{ACAD_REACTORS
330
47
102
}
330
47
100
AcDbProxyObject
 90
      499
 91
      503
 93
      249
310
90D31272D3022203D2031272D30220000000000000A100000000000000284000
  0
ACAD_PROXY_OBJECT
  5
2F
102
{ACAD_REACTORS
330
2A
102
}
330
2A
100
AcDbProxyObject
 90
      499
 91
      501
 93
      436
310
42CC9915DA5C99599C985B595049028333333333333E33F0000000000000F90107901411070040501600405405064090741402480A0340
1001
ACAD
1000
AcDbSavedByObjectVersion
1070
     0
  0
ACAD_PROXY_OBJECT
  5
32
102
{ACAD_REACTORS
330
2A
102
}
330
2A
100
AcDbProxyObject
 90
      499
 91
      501
 93
      388
310
4150985CDA58D07406404333333333333E33F0000000000000F90107A41107004050150841D405064090741402480A0350
1001
ACAD
1000
AcDbSavedByObjectVersion
1070
     0
  0
ACAD_PROXY_OBJECT
  5
36
102
{ACAD_REACTORS
330
2A
102
}
330
2A
100
AcDbProxyObject
 90
      499
 91
      501
 93
      428
310
42109C9A59DA1D195B90C409028333333333333E33F0000000000000F9010790141107004050150841D405064090741402480A029950
1001
ACAD
1000
AcDbSavedByObjectVersion
1070
     0
  0
ACAD_PROXY_OBJECT
  5
3A
102
{ACAD_REACTORS
330
2A
102
}
330
2A
100
AcDbProxyObject
 90
      499
 91
      501
 93
      452
310
42D0DBDB1BDC90DA185B99D95104090240C333333333333E33F0000000000000F90108901411070040501508421405064090741402480A0350
1001
ACAD
1000
AcDbSavedByObjectVersion
1070
     0
  0
ACAD_PROXY_OBJECT
  5
34
102
{ACAD_REACTORS
330
2A
102
}
330
2A
100
AcDbProxyObject
 90
      499
 91
      501
 93
      500
310
4290DBDB98D95C1D1D585B10940D028333333333333E33F0000000000000F90107902409070040501000000000018199010841D405064090740C02480A0340
1001
ACAD
1000
AcDbSavedByObjectVersion
1070
     0
  0
ACAD_PROXY_OBJECT
  5
35
102
{ACAD_REACTORS
330
2A
102
}
330
2A
100
AcDbProxyObject
 90
      499
 91
      501
 93
      412
310
40D11A5B50B409028333333333333E33F0000000000000F9010790141107004050150841D405064090741402480A02677FFFFFD0
1001
ACAD
1000
AcDbSavedByObjectVersion
1070
     0
  0
ACAD_PROXY_OBJECT
  5
3D
102
{ACAD_REACTORS
330
2A
102
}
330
2A
100
AcDbProxyObject
 90
      499
 91
      501
 93
      452
310
43115919D950DBDB1BDC93D999916409028333333333333E33F0000000000000F9010790141107004050150841D405064090741402480A0350
1001
ACAD
1000
AcDbSavedByObjectVersion
1070
     0
  0
ACAD_PROXY_OBJECT
  5
39
102
{ACAD_REACTORS
330
2A
102
}
330
2A
100
AcDbProxyObject
 90
      499
 91
      501
 93
      444
310
42D19858D95C185D1D195C9B90F409028333333333333E33F0000000000000F9010790141107004050150841D405064090741402480A0350
1001
ACAD
1000
AcDbSavedByObjectVersion
1070
     0
  0
ACAD_PROXY_OBJECT
  5
2B
102
{ACAD_REACTORS
330
2A
102
}
330
2A
100
AcDbProxyObject
 90
      499
 91
      501
 93
      380
310
41119B185D240901404333333333333E33F0000000000000F9010740A907004050150841D405064090741402480A1B50
1001
ACAD
1000
AcDbSavedByObjectVersion
1070
     0
  0
ACAD_PROXY_OBJECT
  5
2C
102
{ACAD_REACTORS
330
2A
102
}
330
2A
100
AcDbProxyObject
 90
      499
 91
      501
 93
      468
310
43519B185D15DA5D1A115919D95CD0140901404333333333333E33F0000000000000F90107409019070040501600405405064090741402480A1B50
1001
ACAD
1000
AcDbSavedByObjectVersion
1070
     0
  0
ACAD_PROXY_OBJECT
  5
2D
102
{ACAD_REACTORS
330
2A
102
}
330
2A
100
AcDbProxyObject
 90
      499
 91
      501
 93
      404
310
41D1DBDD5C985D5910240902404333333333333E33F0000000000000F9010740A9070040501641D405064090741402480A1B50
1001
ACAD
1000
AcDbSavedByObjectVersion
1070
     0
  0
ACAD_PROXY_OBJECT
  5
2E
102
{ACAD_REACTORS
330
2A
102
}
330
2A
100
AcDbProxyObject
 90
      499
 91
      501
 93
      492
310
4411DBDD5C985D5915DA5D1A115919D95CD0340902404333333333333E33F0000000000000F90107409019070040501600405405064090741402480A1B50
1001
ACAD
1000
AcDbSavedByObjectVersion
1070
     0
  0
ACAD_PROXY_OBJECT
  5
31
102
{ACAD_REACTORS
330
2A
102
}
330
2A
100
AcDbProxyObject
 90
      499
 91
      501
 93
      476
310
41921A5919195B90640502408333333333333E33F0000000000000F901079024090700405020000000000001110200405405064090740C02480A0340
1001
ACAD
1000
AcDbSavedByObjectVersion
1070
     0
  0
ACAD_PROXY_OBJECT
  5
3B
102
{ACAD_REACTORS
330
2A
102
}
330
2A
100
AcDbProxyObject
 90
      499
 91
      501
 93
      428
310
42529A5D1D195C93D999914409028333333333333E33F0000000000000F9010790141107004050150A41D405064090741402480A0350
1001
ACAD
1000
AcDbSavedByObjectVersion
1070
     0
  0
ACAD_PROXY_OBJECT
  5
38
102
{ACAD_REACTORS
330
2A
102
}
330
2A
100
AcDbProxyObject
 90
      499
 91
      501
 93
      444
310
42D31A5B995C185D1D195C9B90E409028333333333333E33F0000000000000F9010790141107004050750841D405064090741402483A0350
1001
ACAD
1000
AcDbSavedByObjectVersion
1070
     0
  0
ACAD_PROXY_OBJECT
  5
3C
102
{ACAD_REACTORS
330
2A
102
}
330
2A
100
AcDbProxyObject
 90
      499
 91
      501
 93
      444
310
42D3DD995C9A185B99D3D999915409028333333333333E33F0000000000000F9010790141107004050150941D405064090741402480A0350
1001
ACAD
1000
AcDbSavedByObjectVersion
1070
     0
  0
ACAD_PROXY_OBJECT
  5
33
102
{ACAD_REACTORS
330
2A
102
}
330
2A
100
AcDbProxyObject
 90
      499
 91
      501
 93
      428
310
425499585B1A5CDD1A58D08409038333333333333E33F0000000000000F9010740A907004050150800405405064090740C02480A1B40
1001
ACAD
1000
AcDbSavedByObjectVersion
1070
     0
  0
ACAD_PROXY_OBJECT
  5
42
102
{ACAD_REACTORS
330
2A
102
}
330
2A
100
AcDbProxyObject
 90
      499
 91
      501
 93
      420
310
4194DA1859195911B40902404333333333333E33F0000000000000F9010740A41107004050150800405405064090840C02480A0B40
1001
ACAD
1000
AcDbSavedByObjectVersion
1070
     0
  0
ACAD_PROXY_OBJECT
  5
41
102
{ACAD_REACTORS
330
2A
102
}
330
2A
100
AcDbProxyObject
 90
      499
 91
      501
 93
      516
310
4454DA18591959081DDA5D1A08195919D95CD1A40902404333333333333E33F0000000000000F901074090142907004050250800405405064090740C02480A0B40
1001
ACAD
1000
AcDbSavedByObjectVersion
1070
     0
  0
ACAD_PROXY_OBJECT
  5
3E
102
{ACAD_REACTORS
330
2A
102
}
330
2A
100
AcDbProxyObject
 90
      499
 91
      501
 93
      532
310
4394DA1859195CC81BD98811DC985E5174090240C333333333333E33F0000000000000F901079024090741D01000000000000111010841D405064090740C02480A0340
1001
ACAD
1000
AcDbSavedByObjectVersion
1070
     0
  0
ACAD_PROXY_OBJECT
  5
3F
102
{ACAD_REACTORS
330
2A
102
}
330
2A
100
AcDbProxyObject
 90
      499
 91
      501
 93
      476
310
41D4DAD95D18DA1E51840502408333333333333E33F0000000000000F901079024090741D01000000000000111010B41D405064090741802480A0340
1001
ACAD
1000
AcDbSavedByObjectVersion
1070
     0
  0
ACAD_PROXY_OBJECT
  5
37
102
{ACAD_REACTORS
330
2A
102
}
330
2A
100
AcDbProxyObject
 90
      499
 91
      501
 93
      412
310
41D51A1A58DAD95B90D409028333333333333E33F0000000000000F9010790141107004050150C41D405064090741402480A0350
1001
ACAD
1000
AcDbSavedByObjectVersion
1070
     0
  0
ACAD_PROXY_OBJECT
  5
30
102
{ACAD_REACTORS
330
2A
102
}
330
2A
100
AcDbProxyObject
 90
      499
 91
      501
 93
      420
310
4255DA5C99599C985B595059028333333333333E33F0000000000000F90107901411070040501600405405064090740C02480A0340
1001
ACAD
1000
AcDbSavedByObjectVersion
1070
     0
  0
ACAD_PROXY_OBJECT
  5
40
102
{ACAD_REACTORS
330
2A
102
}
330
2A
100
AcDbProxyObject
 90
      499
 91
      501
 93
      404
310
41560B54985E51940902404000000000000E03F0000000000000F9010740501907004050150841D405064090740C02480A1B40
1001
ACAD
1000
AcDbSavedByObjectVersion
1070
     0
  0
XRECORD
  5
15D
102
{ACAD_REACTORS
330
154
102
}
330
154
100
AcDbXrecord
 90
        0
  0
XRECORD
  5
173
102
{ACAD_REACTORS
330
154
102
}
330
154
100
AcDbXrecord
1000
DSTYLE
1002
{
1070
   171
 70
     2
1070
   143
 40
25.4
1070
   274
 70
     2
1070
    41
 40
0.18
1070
   141
 40
0.09
1070
   271
 70
     4
1070
    43
 40
0.38
1070
   278
 70
    46
1070
    44
 40
0.18
1070
    42
 40
0.0625
1070
   147
 40
0.09
1070
    77
 70
     0
1070
   272
 70
     4
1070
    73
 70
     1
1070
   172
 70
     0
1070
    74
 70
     1
1070
   283
 70
     1
1070
   340
340
11
1070
   140
 40
0.18
1070
   284
 70
     0
1070
    78
 70
     0
1002
}
  0
XRECORD
  5
15E
102
{ACAD_REACTORS
330
154
102
}
330
154
100
AcDbXrecord
  1
{8669E4D1-25AC-4195-A6CF-66096D2BC26E}
  0
XRECORD
  5
157
102
{ACAD_REACTORS
330
154
102
}
330
154
100
AcDbXrecord
  1

  0
XRECORD
  5
15C
102
{ACAD_REACTORS
330
154
102
}
330
154
100
AcDbXrecord
 90
        4
  0
XRECORD
  5
159
102
{ACAD_REACTORS
330
154
102
}
330
154
100
AcDbXrecord
340
1A
  0
XRECORD
  5
15B
102
{ACAD_REACTORS
330
154
102
}
330
154
100
AcDbXrecord
 90
    10781
  0
XRECORD
  5
15A
102
{ACAD_REACTORS
330
154
102
}
330
154
100
AcDbXrecord
340
19
  0
XRECORD
  5
160
102
{ACAD_REACTORS
330
154
102
}
330
154
100
AcDbXrecord
 40
0.0
  0
XRECORD
  5
163
102
{ACAD_REACTORS
330
154
102
}
330
154
100
AcDbXrecord
340
0
  0
XRECORD
  5
169
102
{ACAD_REACTORS
330
154
102
}
330
154
100
AcDbXrecord
 10
0.0
 20
0.0
 30
0.0
  0
XRECORD
  5
165
102
{ACAD_REACTORS
330
154
102
}
330
154
100
AcDbXrecord
 10
0.0
 20
0.0
 30
0.0
  0
XRECORD
  5
168
102
{ACAD_REACTORS
330
154
102
}
330
154
100
AcDbXrecord
 10
0.0
 20
0.0
 30
0.0
  0
XRECORD
  5
166
102
{ACAD_REACTORS
330
154
102
}
330
154
100
AcDbXrecord
 10
0.0
 20
0.0
 30
0.0
  0
XRECORD
  5
167
102
{ACAD_REACTORS
330
154
102
}
330
154
100
AcDbXrecord
 10
0.0
 20
0.0
 30
0.0
  0
XRECORD
  5
164
102
{ACAD_REACTORS
330
154
102
}
330
154
100
AcDbXrecord
 10
0.0
 20
0.0
 30
0.0
  0
XRECORD
  5
161
102
{ACAD_REACTORS
330
154
102
}
330
154
100
AcDbXrecord
340
0
  0
XRECORD
  5
162
102
{ACAD_REACTORS
330
154
102
}
330
154
100
AcDbXrecord
 70
     0
  0
XRECORD
  5
158
102
{ACAD_REACTORS
330
154
102
}
330
154
100
AcDbXrecord
  1

  0
XRECORD
  5
155
102
{ACAD_REACTORS
330
154
102
}
330
154
100
AcDbXrecord
 90
        1
  0
XRECORD
  5
156
102
{ACAD_REACTORS
330
154
102
}
330
154
100
AcDbXrecord
 90
       70
  0
XRECORD
  5
16C
102
{ACAD_REACTORS
330
154
102
}
330
154
100
AcDbXrecord
340
0
  0
XRECORD
  5
172
102
{ACAD_REACTORS
330
154
102
}
330
154
100
AcDbXrecord
 10
0.0
 20
0.0
 30
0.0
  0
XRECORD
  5
16E
102
{ACAD_REACTORS
330
154
102
}
330
154
100
AcDbXrecord
 10
0.0
 20
0.0
 30
0.0
  0
XRECORD
  5
171
102
{ACAD_REACTORS
330
154
102
}
330
154
100
AcDbXrecord
 10
0.0
 20
0.0
 30
0.0
  0
XRECORD
  5
16F
102
{ACAD_REACTORS
330
154
102
}
330
154
100
AcDbXrecord
 10
0.0
 20
0.0
 30
0.0
  0
XRECORD
  5
170
102
{ACAD_REACTORS
330
154
102
}
330
154
100
AcDbXrecord
 10
0.0
 20
0.0
 30
0.0
  0
XRECORD
  5
16D
102
{ACAD_REACTORS
330
154
102
}
330
154
100
AcDbXrecord
 10
0.0
 20
0.0
 30
0.0
  0
XRECORD
  5
16A
102
{ACAD_REACTORS
330
154
102
}
330
154
100
AcDbXrecord
340
0
  0
XRECORD
  5
16B
102
{ACAD_REACTORS
330
154
102
}
330
154
100
AcDbXrecord
 70
     0
  0
XRECORD
  5
15F
102
{ACAD_REACTORS
330
154
102
}
330
154
100
AcDbXrecord
  1
{FAEB1C32-E019-11D5-929B-00C0DF256EC4}
  0
DICTIONARYVAR
  5
17D
102
{ACAD_REACTORS
330
174
102
}
330
174
100
DictionaryVariables
280
     0
  1
1:1
  0
DICTIONARYVAR
  5
179
102
{ACAD_REACTORS
330
174
102
}
330
174
100
DictionaryVariables
280
     0
  1
2
  0
DICTIONARYVAR
  5
17A
102
{ACAD_REACTORS
330
174
102
}
330
174
100
DictionaryVariables
280
     0
  1
1
  0
DICTIONARYVAR
  5
17E
102
{ACAD_REACTORS
330
174
102
}
330
174
100
DictionaryVariables
280
     0
  1
1
  0
DICTIONARY
  5
181
330
45
100
AcDbDictionary
280
     1
  3
ACAD_XREC_ROUNDTRIP
360
182
  0
DICTIONARY
  5
17F
330
44
100
AcDbDictionary
280
     1
  3
ACAD_XREC_ROUNDTRIP
360
180
  0
DICTIONARY
  5
183
330
46
100
AcDbDictionary
280
     1
  3
ACAD_XREC_ROUNDTRIP
360
184
  0
XRECORD
  5
182
102
{ACAD_REACTORS
330
181
102
}
330
181
100
AcDbXrecord
102
MATERIAL
148
0.0
149
0.0
149
0.0
 93
        0
 94
      127
282
     0
 72
     1
 77
     1
171
     1
175
     1
179
     1
273
     0
  0
XRECORD
  5
180
102
{ACAD_REACTORS
330
17F
102
}
330
17F
100
AcDbXrecord
102
MATERIAL
148
0.0
149
0.0
149
0.0
 93
        0
 94
      127
282
     0
 72
     1
 77
     1
171
     1
175
     1
179
     1
273
     0
  0
XRECORD
  5
184
102
{ACAD_REACTORS
330
183
102
}
330
183
100
AcDbXrecord
102
MATERIAL
148
0.0
149
0.0
149
0.0
 93
        0
 94
      127
282
     0
 72
     1
 77
     1
171
     1
175
     1
179
     1
273
     0
  0
ENDSEC
  0
EOF
