  0
SECTION
  2
HEADER
  9
$ACADVER
  1
AC1014
  9
$ACADMAINTVER
 70
     9
  9
$DWGCODEPAGE
  3
ANSI_1252
  9
$INSBASE
 10
0.0
 20
0.0
 30
0.0
  9
$EXTMIN
 10
1.000000000000000E+20
 20
1.000000000000000E+20
 30
1.000000000000000E+20
  9
$EXTMAX
 10
-1.000000000000000E+20
 20
-1.000000000000000E+20
 30
-1.000000000000000E+20
  9
$LIMMIN
 10
0.0
 20
0.0
  9
$LIMMAX
 10
12.0
 20
9.0
  9
$ORTHOMODE
 70
     0
  9
$REGENMODE
 70
     1
  9
$FILLMODE
 70
     1
  9
$QTEXTMODE
 70
     0
  9
$MIRRTEXT
 70
     1
  9
$DRAGMODE
 70
     2
  9
$LTSCALE
 40
1.0
  9
$OSMODE
 70
    37
  9
$ATTMODE
 70
     1
  9
$TEXTSIZE
 40
0.2
  9
$TRACEWID
 40
0.05
  9
$TEXTSTYLE
  7
STANDARD
  9
$CLAYER
  8
0
  9
$CELTYPE
  6
BYLAYER
  9
$CECOLOR
 62
   256
  9
$CELTSCALE
 40
1.0
  9
$DELOBJ
 70
     1
  9
$DISPSILH
 70
     0
  9
$DIMSCALE
 40
1.0
  9
$DIMASZ
 40
0.18
  9
$DIMEXO
 40
0.0625
  9
$DIMDLI
 40
0.38
  9
$DIMRND
 40
0.0
  9
$DIMDLE
 40
0.0
  9
$DIMEXE
 40
0.18
  9
$DIMTP
 40
0.0
  9
$DIMTM
 40
0.0
  9
$DIMTXT
 40
0.18
  9
$DIMCEN
 40
0.09
  9
$DIMTSZ
 40
0.0
  9
$DIMTOL
 70
     0
  9
$DIMLIM
 70
     0
  9
$DIMTIH
 70
     1
  9
$DIMTOH
 70
     1
  9
$DIMSE1
 70
     0
  9
$DIMSE2
 70
     0
  9
$DIMTAD
 70
     0
  9
$DIMZIN
 70
     0
  9
$DIMBLK
  1

  9
$DIMASO
 70
     1
  9
$DIMSHO
 70
     1
  9
$DIMPOST
  1

  9
$DIMAPOST
  1

  9
$DIMALT
 70
     0
  9
$DIMALTD
 70
     2
  9
$DIMALTF
 40
25.4
  9
$DIMLFAC
 40
1.0
  9
$DIMTOFL
 70
     0
  9
$DIMTVP
 40
0.0
  9
$DIMTIX
 70
     0
  9
$DIMSOXD
 70
     0
  9
$DIMSAH
 70
     0
  9
$DIMBLK1
  1

  9
$DIMBLK2
  1

  9
$DIMSTYLE
  2
STANDARD
  9
$DIMCLRD
 70
     0
  9
$DIMCLRE
 70
     0
  9
$DIMCLRT
 70
     0
  9
$DIMTFAC
 40
1.0
  9
$DIMGAP
 40
0.09
  9
$DIMJUST
 70
     0
  9
$DIMSD1
 70
     0
  9
$DIMSD2
 70
     0
  9
$DIMTOLJ
 70
     1
  9
$DIMTZIN
 70
     0
  9
$DIMALTZ
 70
     0
  9
$DIMALTTZ
 70
     0
  9
$DIMFIT
 70
     3
  9
$DIMUPT
 70
     0
  9
$DIMUNIT
 70
     2
  9
$DIMDEC
 70
     4
  9
$DIMTDEC
 70
     4
  9
$DIMALTU
 70
     2
  9
$DIMALTTD
 70
     2
  9
$DIMTXSTY
  7
STANDARD
  9
$DIMAUNIT
 70
     0
  9
$LUNITS
 70
     2
  9
$LUPREC
 70
     4
  9
$SKETCHINC
 40
0.1
  9
$FILLETRAD
 40
0.5
  9
$AUNITS
 70
     0
  9
$AUPREC
 70
     0
  9
$MENU
  1
.
  9
$ELEVATION
 40
0.0
  9
$PELEVATION
 40
0.0
  9
$THICKNESS
 40
0.0
  9
$LIMCHECK
 70
     0
  9
$CHAMFERA
 40
0.0
  9
$CHAMFERB
 40
0.0
  9
$CHAMFERC
 40
0.0
  9
$CHAMFERD
 40
0.0
  9
$SKPOLY
 70
     0
  9
$TDCREATE
 40
2457674.362018519
  9
$TDUPDATE
 40
2457674.362063195
  9
$TDINDWG
 40
0.0000000116
  9
$TDUSRTIMER
 40
0.0000000116
  9
$USRTIMER
 70
     1
  9
$ANGBASE
 50
0.0
  9
$ANGDIR
 70
     0
  9
$PDMODE
 70
     0
  9
$PDSIZE
 40
0.0
  9
$PLINEWID
 40
0.0
  9
$COORDS
 70
     1
  9
$SPLFRAME
 70
     0
  9
$SPLINETYPE
 70
     6
  9
$SPLINESEGS
 70
     8
  9
$ATTDIA
 70
     0
  9
$ATTREQ
 70
     1
  9
$HANDLING
 70
     1
  9
$HANDSEED
  5
184
  9
$SURFTAB1
 70
     6
  9
$SURFTAB2
 70
     6
  9
$SURFTYPE
 70
     6
  9
$SURFU
 70
     6
  9
$SURFV
 70
     6
  9
$UCSNAME
  2

  9
$UCSORG
 10
0.0
 20
0.0
 30
0.0
  9
$UCSXDIR
 10
1.0
 20
0.0
 30
0.0
  9
$UCSYDIR
 10
0.0
 20
1.0
 30
0.0
  9
$PUCSNAME
  2

  9
$PUCSORG
 10
0.0
 20
0.0
 30
0.0
  9
$PUCSXDIR
 10
1.0
 20
0.0
 30
0.0
  9
$PUCSYDIR
 10
0.0
 20
1.0
 30
0.0
  9
$USERI1
 70
     0
  9
$USERI2
 70
     0
  9
$USERI3
 70
     0
  9
$USERI4
 70
     0
  9
$USERI5
 70
     0
  9
$USERR1
 40
0.0
  9
$USERR2
 40
0.0
  9
$USERR3
 40
0.0
  9
$USERR4
 40
0.0
  9
$USERR5
 40
0.0
  9
$WORLDVIEW
 70
     1
  9
$SHADEDGE
 70
     3
  9
$SHADEDIF
 70
    70
  9
$TILEMODE
 70
     1
  9
$MAXACTVP
 70
    64
  9
$PINSBASE
 10
0.0
 20
0.0
 30
0.0
  9
$PLIMCHECK
 70
     0
  9
$PEXTMIN
 10
1.000000000000000E+20
 20
1.000000000000000E+20
 30
1.000000000000000E+20
  9
$PEXTMAX
 10
-1.000000000000000E+20
 20
-1.000000000000000E+20
 30
-1.000000000000000E+20
  9
$PLIMMIN
 10
0.0
 20
0.0
  9
$PLIMMAX
 10
12.0
 20
9.0
  9
$UNITMODE
 70
     0
  9
$VISRETAIN
 70
     1
  9
$PLINEGEN
 70
     0
  9
$PSLTSCALE
 70
     1
  9
$TREEDEPTH
 70
  3020
  9
$PICKSTYLE
 70
     1
  9
$CMLSTYLE
  2
STANDARD
  9
$CMLJUST
 70
     0
  9
$CMLSCALE
 40
1.0
  9
$PROXYGRAPHICS
 70
     1
  9
$MEASUREMENT
 70
     1
  0
ENDSEC
  0
SECTION
  2
CLASSES
  0
CLASS
  1
ACDBDICTIONARYWDFLT
  2
AcDbDictionaryWithDefault
  3
ObjectDBX Classes
 90
        0
280
     0
281
     0
  0
CLASS
  1
VISUALSTYLE
  2
AcDbVisualStyle
  3
ObjectDBX Classes
 90
     4095
280
     0
281
     0
  0
CLASS
  1
MATERIAL
  2
AcDbMaterial
  3
ObjectDBX Classes
 90
     1153
280
     0
281
     0
  0
CLASS
  1
SCALE
  2
AcDbScale
  3
ObjectDBX Classes
 90
     1153
280
     0
281
     0
  0
CLASS
  1
SUN
  2
AcDbSun
  3
SCENEOE
 90
     1153
280
     0
281
     0
  0
CLASS
  1
DICTIONARYVAR
  2
AcDbDictionaryVar
  3
ObjectDBX Classes
 90
        0
280
     0
281
     0
  0
CLASS
  1
XRECORD
  2
AcDbXrecord
  3
ObjectDBX Classes
 90
        0
280
     0
281
     0
  0
CLASS
  1
LWPOLYLINE
  2
AcDbPolyline
  3
ObjectDBX Classes
 90
        0
280
     0
281
     1
  0
CLASS
  1
HATCH
  2
AcDbHatch
  3
ObjectDBX Classes
 90
        0
280
     0
281
     1
  0
CLASS
  1
ACDBPLACEHOLDER
  2
AcDbPlaceHolder
  3
ObjectDBX Classes
 90
        0
280
     0
281
     0
  0
CLASS
  1
LAYOUT
  2
AcDbLayout
  3
ObjectDBX Classes
 90
        0
280
     0
281
     0
  0
ENDSEC
  0
SECTION
  2
TABLES
  0
TABLE
  2
VPORT
  5
8
102
{ACAD_XDICTIONARY
360
17A
102
}
330
0
100
AcDbSymbolTable
 70
     1
  0
VPORT
  5
29
330
8
100
AcDbSymbolTableRecord
100
AcDbViewportTableRecord
  2
*ACTIVE
 70
     0
 10
0.0
 20
0.0
 11
1.0
 21
1.0
 12
0.0
 22
0.0
 13
0.0
 23
0.0
 14
0.5
 24
0.5
 15
0.5
 25
0.5
 16
0.0
 26
0.0
 36
1.0
 17
0.0
 27
0.0
 37
-1000.0
 40
58.98824731732226
 41
1.391891891891892
 42
50.0
 43
18.67033610888562
 44
18670.33610888562
 50
0.0
 51
0.0
 71
     0
 72
   100
 73
     1
 74
     3
 75
     0
 76
     0
 77
     0
 78
     0
  0
ENDTAB
  0
TABLE
  2
LTYPE
  5
5
330
0
100
AcDbSymbolTable
 70
     1
  0
LTYPE
  5
14
330
5
100
AcDbSymbolTableRecord
100
AcDbLinetypeTableRecord
  2
BYBLOCK
 70
     0
  3

 72
    65
 73
     0
 40
0.0
  0
LTYPE
  5
15
330
5
100
AcDbSymbolTableRecord
100
AcDbLinetypeTableRecord
  2
BYLAYER
 70
     0
  3

 72
    65
 73
     0
 40
0.0
  0
LTYPE
  5
16
330
5
100
AcDbSymbolTableRecord
100
AcDbLinetypeTableRecord
  2
CONTINUOUS
 70
     0
  3
Solid line
 72
    65
 73
     0
 40
0.0
  0
ENDTAB
  0
TABLE
  2
LAYER
  5
2
330
0
100
AcDbSymbolTable
 70
     3
  0
LAYER
  5
10
330
2
100
AcDbSymbolTableRecord
100
AcDbLayerTableRecord
  2
0
 70
     0
 62
     7
  6
CONTINUOUS
  0
LAYER
  5
6A
330
2
100
AcDbSymbolTableRecord
100
AcDbLayerTableRecord
  2
PROFILEEDGES
 70
     0
 62
     7
  6
CONTINUOUS
  0
LAYER
  5
6B
330
2
100
AcDbSymbolTableRecord
100
AcDbLayerTableRecord
  2
SECTIONCUTEDGES
 70
     0
 62
     7
  6
CONTINUOUS
  0
ENDTAB
  0
TABLE
  2
STYLE
  5
3
330
0
100
AcDbSymbolTable
 70
     1
  0
STYLE
  5
11
330
3
100
AcDbSymbolTableRecord
100
AcDbTextStyleTableRecord
  2
STANDARD
 70
     0
 40
0.0
 41
1.0
 50
0.0
 71
     0
 42
0.2
  3
txt
  4

  0
ENDTAB
  0
TABLE
  2
VIEW
  5
6
330
0
100
AcDbSymbolTable
 70
     0
  0
ENDTAB
  0
TABLE
  2
UCS
  5
7
330
0
100
AcDbSymbolTable
 70
     0
  0
ENDTAB
  0
TABLE
  2
APPID
  5
9
330
0
100
AcDbSymbolTable
 70
     1
  0
APPID
  5
12
330
9
100
AcDbSymbolTableRecord
100
AcDbRegAppTableRecord
  2
ACAD
 70
     0
  0
ENDTAB
  0
TABLE
  2
DIMSTYLE
  5
A
330
0
100
AcDbSymbolTable
 70
     1
  0
DIMSTYLE
105
27
330
A
100
AcDbSymbolTableRecord
100
AcDbDimStyleTableRecord
  2
STANDARD
 70
     0
  3

  4

  5

  6

  7

 40
1.0
 41
0.18
 42
0.0625
 43
0.38
 44
0.18
 45
0.0
 46
0.0
 47
0.0
 48
0.0
140
0.18
141
0.09
142
0.0
143
25.4
144
1.0
145
0.0
146
1.0
147
0.09
 71
     0
 72
     0
 73
     1
 74
     1
 75
     0
 76
     0
 77
     0
 78
     0
170
     0
171
     2
172
     0
173
     0
174
     0
175
     0
176
     0
177
     0
178
     0
270
     2
271
     4
272
     4
273
     2
274
     2
340
11
275
     0
280
     0
281
     0
282
     0
283
     1
284
     0
285
     0
286
     0
287
     3
288
     0
  0
ENDTAB
  0
TABLE
  2
BLOCK_RECORD
  5
1
330
0
100
AcDbSymbolTable
 70
     1
  0
BLOCK_RECORD
  5
1F
330
1
100
AcDbSymbolTableRecord
100
AcDbBlockTableRecord
  2
*MODEL_SPACE
  0
BLOCK_RECORD
  5
1B
330
1
100
AcDbSymbolTableRecord
100
AcDbBlockTableRecord
  2
*PAPER_SPACE
  0
ENDTAB
  0
ENDSEC
  0
SECTION
  2
BLOCKS
  0
BLOCK
  5
20
330
1F
100
AcDbEntity
  8
0
100
AcDbBlockBegin
  2
*MODEL_SPACE
 70
     0
 10
0.0
 20
0.0
 30
0.0
  3
*MODEL_SPACE
  1

  0
ENDBLK
  5
21
330
1F
100
AcDbEntity
  8
0
100
AcDbBlockEnd
  0
BLOCK
  5
1C
330
1B
100
AcDbEntity
 67
     1
  8
0
100
AcDbBlockBegin
  2
*PAPER_SPACE
 70
     0
 10
0.0
 20
0.0
 30
0.0
  3
*PAPER_SPACE
  1

  0
ENDBLK
  5
1D
330
1B
100
AcDbEntity
 67
     1
  8
0
100
AcDbBlockEnd
  0
ENDSEC
  0
SECTION
  2
ENTITIES
  0
LINE
  5
6C
330
1F
100
AcDbEntity
  8
0
100
AcDbLine
 10
-16.25000026572044
 20
19.00290878123459
 30
0.0
 11
-15.88822883337414
 21
19.15275941499153
 31
0.0
  0
LINE
  5
6D
330
1F
100
AcDbEntity
  8
0
100
AcDbLine
 10
-15.88822883337414
 20
19.15275941499153
 30
0.0
 11
-15.50000026572061
 21
19.20387067555793
 31
0.0
  0
LINE
  5
6E
330
1F
100
AcDbEntity
  8
0
100
AcDbLine
 10
-15.50000026572061
 20
19.20387067555793
 30
0.0
 11
-15.11177169806672
 21
19.15275941499153
 31
0.0
  0
LINE
  5
6F
330
1F
100
AcDbEntity
  8
0
100
AcDbLine
 10
-15.11177169806672
 20
19.15275941499153
 30
0.0
 11
-14.75000026572042
 21
19.00290878123459
 31
0.0
  0
LINE
  5
70
330
1F
100
AcDbEntity
  8
0
100
AcDbLine
 10
14.19509534976617
 20
9.46412440332832
 30
0.0
 11
14.04809846464348
 21
9.827064753060156
 31
0.0
  0
LINE
  5
71
330
1F
100
AcDbEntity
  8
0
100
AcDbLine
 10
-14.05111152628701
 20
-12.90790075678831
 30
0.0
 11
-14.00000026572032
 21
-13.29612932444209
 31
0.0
  0
LINE
  5
72
330
1F
100
AcDbEntity
  8
0
100
AcDbLine
 10
-14.20096216004402
 20
-21.5461293244421
 30
0.0
 11
-14.43934009394063
 21
-21.85678949622194
 31
0.0
  0
LINE
  5
73
330
1F
100
AcDbEntity
  8
0
100
AcDbLine
 10
-14.43934009394063
 20
-21.85678949622194
 30
0.0
 11
-14.7500002657206
 21
-22.09516743011876
 31
0.0
  0
LINE
  5
74
330
1F
100
AcDbEntity
  8
0
100
AcDbLine
 10
-14.43934009394054
 20
-12.23546915266226
 30
0.0
 11
-14.20096216004394
 21
-12.54612932444208
 31
0.0
  0
LINE
  5
75
330
1F
100
AcDbEntity
  8
0
100
AcDbLine
 10
-14.20096216004394
 20
-12.54612932444208
 30
0.0
 11
-14.05111152628701
 21
-12.90790075678831
 31
0.0
  0
LINE
  5
76
330
1F
100
AcDbEntity
  8
0
100
AcDbLine
 10
14.20096162860271
 20
-12.54612932444217
 30
0.0
 11
14.43933956249967
 21
-12.23546915266234
 31
0.0
  0
LINE
  5
77
330
1F
100
AcDbEntity
  8
0
100
AcDbLine
 10
-14.00000026572032
 20
-13.29612932444209
 30
0.0
 11
-14.02555589600366
 21
-13.49024360826898
 31
0.0
  0
LINE
  5
78
330
1F
100
AcDbEntity
  8
0
100
AcDbLine
 10
14.66178590983593
 20
-22.04007368996334
 30
0.0
 11
14.36839086045213
 21
-21.78074161193165
 31
0.0
  0
LINE
  5
79
330
1F
100
AcDbEntity
  8
0
100
AcDbLine
 10
-14.75000026572051
 20
-11.99709121876542
 30
0.0
 11
-14.43934009394054
 21
-12.23546915266226
 31
0.0
  0
LINE
  5
7A
330
1F
100
AcDbEntity
  8
0
100
AcDbLine
 10
14.04809846464348
 20
9.827064753060156
 30
0.0
 11
14.00004625166652
 21
10.21568380370898
 31
0.0
  0
LINE
  5
7B
330
1F
100
AcDbEntity
  8
0
100
AcDbLine
 10
16.56065990605927
 20
-12.23546915266235
 30
0.0
 11
16.79903783995623
 21
-12.54612932444217
 31
0.0
  0
LINE
  5
7C
330
1F
100
AcDbEntity
  8
0
100
AcDbLine
 10
16.79903783995623
 20
-12.54612932444217
 30
0.0
 11
16.94888847371316
 21
-12.9079007567884
 31
0.0
  0
LINE
  5
7D
330
1F
100
AcDbEntity
  8
0
100
AcDbLine
 10
16.99639406793714
 20
-20.90007160745297
 30
0.0
 11
16.9185034250373
 21
-21.28382521257984
 31
0.0
  0
LINE
  5
7E
330
1F
100
AcDbEntity
  8
0
100
AcDbLine
 10
16.9185034250373
 20
-21.28382521257984
 30
0.0
 11
16.74394409980051
 21
-21.63434314888568
 31
0.0
  0
LINE
  5
7F
330
1F
100
AcDbEntity
  8
0
100
AcDbLine
 10
-14.70810077213204
 20
8.929941638266333
 30
0.0
 11
-15.06480118999843
 21
8.768391046830713
 31
0.0
  0
LINE
  5
80
330
1F
100
AcDbEntity
  8
0
100
AcDbLine
 10
14.43933956249967
 20
-12.23546915266234
 30
0.0
 11
14.74999973427964
 21
-11.9970912187655
 31
0.0
  0
LINE
  5
81
330
1F
100
AcDbEntity
  8
0
100
AcDbLine
 10
16.94888847371325
 20
18.0920992432116
 30
0.0
 11
16.99999973427958
 21
17.70387067555782
 31
0.0
  0
LINE
  5
82
330
1F
100
AcDbEntity
  8
0
100
AcDbLine
 10
28.04999962276549
 20
-17.29612933744129
 30
0.0
 11
27.99718464753564
 21
-16.89495981831929
 31
0.0
  0
LINE
  5
83
330
1F
100
AcDbEntity
  8
0
100
AcDbLine
 10
27.9971846594914
 20
-17.69729885813728
 30
0.0
 11
28.04999962276549
 21
-17.29612933744129
 31
0.0
  0
LINE
  5
84
330
1F
100
AcDbEntity
  8
0
100
AcDbLine
 10
27.84233901017957
 20
-18.07112934053583
 30
0.0
 11
27.9971846594914
 21
-17.69729885813728
 31
0.0
  0
LINE
  5
85
330
1F
100
AcDbEntity
  8
0
100
AcDbLine
 10
27.59601514993626
 20
-18.39214485504553
 30
0.0
 11
27.84233901017957
 21
-18.07112934053583
 31
0.0
  0
LINE
  5
86
330
1F
100
AcDbEntity
  8
0
100
AcDbLine
 10
27.27499964276757
 20
-18.63846872485578
 30
0.0
 11
27.59601514993626
 21
-18.39214485504553
 31
0.0
  0
LINE
  5
87
330
1F
100
AcDbEntity
  8
0
100
AcDbLine
 10
26.90116916498377
 20
-18.79331438530845
 30
0.0
 11
27.27499964276757
 21
-18.63846872485578
 31
0.0
  0
LINE
  5
88
330
1F
100
AcDbEntity
  8
0
100
AcDbLine
 10
26.49999964586177
 20
-18.84612936053825
 30
0.0
 11
26.90116916498377
 21
-18.79331438530845
 31
0.0
  0
LINE
  5
89
330
1F
100
AcDbEntity
  8
0
100
AcDbLine
 10
26.09883012516573
 20
-18.79331439726414
 30
0.0
 11
26.49999964586177
 21
-18.84612936053825
 31
0.0
  0
LINE
  5
8A
330
1F
100
AcDbEntity
  8
0
100
AcDbLine
 10
25.7249996427672
 20
-18.63846874795239
 30
0.0
 11
26.09883012516573
 21
-18.79331439726414
 31
0.0
  0
LINE
  5
8B
330
1F
100
AcDbEntity
  8
0
100
AcDbLine
 10
25.40398412825749
 20
-18.39214488770907
 30
0.0
 11
25.7249996427672
 21
-18.63846874795239
 31
0.0
  0
LINE
  5
8C
330
1F
100
AcDbEntity
  8
0
100
AcDbLine
 10
25.15766025844723
 20
-18.07112938054033
 30
0.0
 11
25.40398412825749
 21
-18.39214488770907
 31
0.0
  0
LINE
  5
8D
330
1F
100
AcDbEntity
  8
0
100
AcDbLine
 10
25.00281459799459
 20
-17.69729890275651
 30
0.0
 11
25.15766025844723
 21
-18.07112938054033
 31
0.0
  0
LINE
  5
8E
330
1F
100
AcDbEntity
  8
0
100
AcDbLine
 10
24.94999962276475
 20
-17.29612938363451
 30
0.0
 11
25.00281459799459
 21
-17.69729890275651
 31
0.0
  0
LINE
  5
8F
330
1F
100
AcDbEntity
  8
0
100
AcDbLine
 10
25.00281458603884
 20
-16.89495986293852
 30
0.0
 11
24.94999962276475
 21
-17.29612938363451
 31
0.0
  0
LINE
  5
90
330
1F
100
AcDbEntity
  8
0
100
AcDbLine
 10
25.15766023535066
 20
-16.52112938053997
 30
0.0
 11
25.00281458603884
 21
-16.89495986293852
 31
0.0
  0
LINE
  5
91
330
1F
100
AcDbEntity
  8
0
100
AcDbLine
 10
25.40398409559398
 20
-16.20011386603028
 30
0.0
 11
25.15766023535066
 21
-16.52112938053997
 31
0.0
  0
LINE
  5
92
330
1F
100
AcDbEntity
  8
0
100
AcDbLine
 10
25.72499960276266
 20
-15.95378999622002
 30
0.0
 11
25.40398409559398
 21
-16.20011386603028
 31
0.0
  0
LINE
  5
93
330
1F
100
AcDbEntity
  8
0
100
AcDbLine
 10
-27.84233950473347
 20
0.978870675555908
 30
0.0
 11
-27.99718515961565
 21
0.6050401954649105
 31
0.0
  0
LINE
  5
94
330
1F
100
AcDbEntity
  8
0
100
AcDbLine
 10
-27.59601563970677
 20
1.299886186394966
 30
0.0
 11
-27.84233950473347
 21
0.978870675555908
 31
0.0
  0
LINE
  5
95
330
1F
100
AcDbEntity
  8
0
100
AcDbLine
 10
-27.27500012886771
 20
1.546210051421613
 30
0.0
 11
-27.59601563970677
 21
1.299886186394966
 31
0.0
  0
LINE
  5
96
330
1F
100
AcDbEntity
  8
0
100
AcDbLine
 10
-26.90116964877668
 20
1.701055706303725
 30
0.0
 11
-27.27500012886771
 21
1.546210051421613
 31
0.0
  0
LINE
  5
97
330
1F
100
AcDbEntity
  8
0
100
AcDbLine
 10
-26.50000012886789
 20
1.753870675555625
 30
0.0
 11
-26.90116964877668
 21
1.701055706303725
 31
0.0
  0
LINE
  5
98
330
1F
100
AcDbEntity
  8
0
100
AcDbLine
 10
-26.09883060895909
 20
1.701055706303663
 30
0.0
 11
-26.50000012886789
 21
1.753870675555625
 31
0.0
  0
LINE
  5
99
330
1F
100
AcDbEntity
  8
0
100
AcDbLine
 10
-25.72500012886806
 20
1.546210051421489
 30
0.0
 11
-26.09883060895909
 21
1.701055706303663
 31
0.0
  0
LINE
  5
9A
330
1F
100
AcDbEntity
  8
0
100
AcDbLine
 10
-25.403984618029
 20
1.299886186394791
 30
0.0
 11
-25.72500012886806
 21
1.546210051421489
 31
0.0
  0
LINE
  5
9B
330
1F
100
AcDbEntity
  8
0
100
AcDbLine
 10
-25.15766075300239
 20
0.9788706755556937
 30
0.0
 11
-25.403984618029
 21
1.299886186394791
 31
0.0
  0
LINE
  5
9C
330
1F
100
AcDbEntity
  8
0
100
AcDbLine
 10
-25.00281509812021
 20
0.6050401954646737
 30
0.0
 11
-25.15766075300239
 21
0.9788706755556937
 31
0.0
  0
LINE
  5
9D
330
1F
100
AcDbEntity
  8
0
100
AcDbLine
 10
-24.95000012886833
 20
0.2038706755558502
 30
0.0
 11
-25.00281509812021
 21
0.6050401954646737
 31
0.0
  0
LINE
  5
9E
330
1F
100
AcDbEntity
  8
0
100
AcDbLine
 10
-25.00281509812029
 20
-0.1972988443529619
 30
0.0
 11
-24.95000012886833
 21
0.2038706755558502
 31
0.0
  0
LINE
  5
9F
330
1F
100
AcDbEntity
  8
0
100
AcDbLine
 10
25.40398428311164
 20
1.299886133968856
 30
0.0
 11
25.15766042286824
 21
0.978870619459347
 31
0.0
  0
LINE
  5
A0
330
1F
100
AcDbEntity
  8
0
100
AcDbLine
 10
25.72499979028033
 20
1.546210003778911
 30
0.0
 11
25.40398428311164
 21
1.299886133968856
 31
0.0
  0
LINE
  5
A1
330
1F
100
AcDbEntity
  8
0
100
AcDbLine
 10
26.09883026806413
 20
1.701055664231393
 30
0.0
 11
25.72499979028033
 21
1.546210003778911
 31
0.0
  0
LINE
  5
A2
330
1F
100
AcDbEntity
  8
0
100
AcDbLine
 10
26.49999978718604
 20
1.753870639461018
 30
0.0
 11
26.09883026806413
 21
1.701055664231393
 31
0.0
  0
LINE
  5
A3
330
1F
100
AcDbEntity
  8
0
100
AcDbLine
 10
26.90116930788189
 20
1.701055676186765
 30
0.0
 11
26.49999978718604
 21
1.753870639461018
 31
0.0
  0
LINE
  5
A4
330
1F
100
AcDbEntity
  8
0
100
AcDbLine
 10
27.27499979028024
 20
1.546210026874922
 30
0.0
 11
26.90116930788189
 21
1.701055676186765
 31
0.0
  0
LINE
  5
A5
330
1F
100
AcDbEntity
  8
0
100
AcDbLine
 10
27.59601530478978
 20
1.299886166631547
 30
0.0
 11
27.27499979028024
 21
1.546210026874922
 31
0.0
  0
LINE
  5
A6
330
1F
100
AcDbEntity
  8
0
100
AcDbLine
 10
27.84233917459986
 20
0.9788706594628048
 30
0.0
 11
27.59601530478978
 21
1.299886166631547
 31
0.0
  0
LINE
  5
A7
330
1F
100
AcDbEntity
  8
0
100
AcDbLine
 10
27.99718483505231
 20
0.6050401816790419
 30
0.0
 11
27.84233917459986
 21
0.9788706594628048
 31
0.0
  0
LINE
  5
A8
330
1F
100
AcDbEntity
  8
0
100
AcDbLine
 10
28.04999981028189
 20
0.2038706625571414
 30
0.0
 11
27.99718483505231
 21
0.6050401816790419
 31
0.0
  0
LINE
  5
A9
330
1F
100
AcDbEntity
  8
0
100
AcDbLine
 10
27.99718484700771
 20
-0.1972988581387149
 30
0.0
 11
28.04999981028189
 21
0.2038706625571414
 31
0.0
  0
LINE
  5
AA
330
1F
100
AcDbEntity
  8
0
100
AcDbLine
 10
27.84233919769579
 20
-0.5711293405370823
 30
0.0
 11
27.99718484700771
 21
-0.1972988581387149
 31
0.0
  0
LINE
  5
AB
330
1F
100
AcDbEntity
  8
0
100
AcDbLine
 10
27.59601533745248
 20
-0.8921448550465918
 30
0.0
 11
27.84233919769579
 21
-0.5711293405370823
 31
0.0
  0
LINE
  5
AC
330
1F
100
AcDbEntity
  8
0
100
AcDbLine
 10
25.00281477355641
 20
0.6050401370609795
 30
0.0
 11
24.94999981028214
 21
0.2038706163651204
 31
0.0
  0
LINE
  5
AD
330
1F
100
AcDbEntity
  8
0
100
AcDbLine
 10
25.15766042286824
 20
0.978870619459347
 30
0.0
 11
25.00281477355641
 21
0.6050401370609795
 31
0.0
  0
LINE
  5
AE
330
1F
100
AcDbEntity
  8
0
100
AcDbLine
 10
-26.90116964877695
 20
-1.293314355191708
 30
0.0
 11
-26.50000012886807
 21
-1.346129324443673
 31
0.0
  0
LINE
  5
AF
330
1F
100
AcDbEntity
  8
0
100
AcDbLine
 10
-27.27500012886789
 20
-1.138468700309538
 30
0.0
 11
-26.90116964877695
 21
-1.293314355191708
 31
0.0
  0
LINE
  5
B0
330
1F
100
AcDbEntity
  8
0
100
AcDbLine
 10
-27.59601563970695
 20
-0.8921448352828371
 30
0.0
 11
-27.27500012886789
 21
-1.138468700309538
 31
0.0
  0
LINE
  5
B1
330
1F
100
AcDbEntity
  8
0
100
AcDbLine
 10
-27.84233950473365
 20
-0.5711293244437423
 30
0.0
 11
-27.59601563970695
 21
-0.8921448352828371
 31
0.0
  0
LINE
  5
B2
330
1F
100
AcDbEntity
  8
0
100
AcDbLine
 10
-27.99718515961575
 20
-0.1972988443527222
 30
0.0
 11
-27.84233950473365
 21
-0.5711293244437423
 31
0.0
  0
LINE
  5
B3
330
1F
100
AcDbEntity
  8
0
100
AcDbLine
 10
-28.05000012886762
 20
0.2038706755560984
 30
0.0
 11
-27.99718515961575
 21
-0.1972988443527222
 31
0.0
  0
LINE
  5
B4
330
1F
100
AcDbEntity
  8
0
100
AcDbLine
 10
-27.99718515961565
 20
0.6050401954649105
 30
0.0
 11
-28.05000012886762
 21
0.2038706755560984
 31
0.0
  0
LINE
  5
B5
330
1F
100
AcDbEntity
  8
0
100
AcDbLine
 10
27.2749998302837
 20
-1.138468724856647
 30
0.0
 11
27.59601533745248
 21
-0.8921448550465918
 31
0.0
  0
LINE
  5
B6
330
1F
100
AcDbEntity
  8
0
100
AcDbLine
 10
26.9011693524999
 20
-1.293314385309128
 30
0.0
 11
27.2749998302837
 21
-1.138468724856647
 31
0.0
  0
LINE
  5
B7
330
1F
100
AcDbEntity
  8
0
100
AcDbLine
 10
26.49999983337808
 20
-1.346129360538753
 30
0.0
 11
26.9011693524999
 21
-1.293314385309128
 31
0.0
  0
LINE
  5
B8
330
1F
100
AcDbEntity
  8
0
100
AcDbLine
 10
26.09883031268222
 20
-1.293314397264503
 30
0.0
 11
26.49999983337808
 21
-1.346129360538753
 31
0.0
  0
LINE
  5
B9
330
1F
100
AcDbEntity
  8
0
100
AcDbLine
 10
25.72499983028379
 20
-1.138468747952655
 30
0.0
 11
26.09883031268222
 21
-1.293314397264503
 31
0.0
  0
LINE
  5
BA
330
1F
100
AcDbEntity
  8
0
100
AcDbLine
 10
25.40398431577434
 20
-0.8921448877092822
 30
0.0
 11
25.72499983028379
 21
-1.138468747952655
 31
0.0
  0
LINE
  5
BB
330
1F
100
AcDbEntity
  8
0
100
AcDbLine
 10
25.15766044596426
 20
-0.5711293805405431
 30
0.0
 11
25.40398431577434
 21
-0.8921448877092822
 31
0.0
  0
LINE
  5
BC
330
1F
100
AcDbEntity
  8
0
100
AcDbLine
 10
25.00281478551181
 20
-0.1972989027567802
 30
0.0
 11
25.15766044596426
 21
-0.5711293805405431
 31
0.0
  0
LINE
  5
BD
330
1F
100
AcDbEntity
  8
0
100
AcDbLine
 10
24.94999981028214
 20
0.2038706163651204
 30
0.0
 11
25.00281478551181
 21
-0.1972989027567802
 31
0.0
  0
LINE
  5
BE
330
1F
100
AcDbEntity
  8
0
100
AcDbLine
 10
-27.84233963866816
 20
-16.52112932444248
 30
0.0
 11
-27.99718529355017
 21
-16.89495980453357
 31
0.0
  0
LINE
  5
BF
330
1F
100
AcDbEntity
  8
0
100
AcDbLine
 10
-27.59601577364155
 20
-16.2001138136033
 30
0.0
 11
-27.84233963866816
 21
-16.52112932444248
 31
0.0
  0
LINE
  5
C0
330
1F
100
AcDbEntity
  8
0
100
AcDbLine
 10
-27.27500026280258
 20
-15.9537899485765
 30
0.0
 11
-27.59601577364155
 21
-16.2001138136033
 31
0.0
  0
LINE
  5
C1
330
1F
100
AcDbEntity
  8
0
100
AcDbLine
 10
-26.90116978271155
 20
-15.79894429369423
 30
0.0
 11
-27.27500026280258
 21
-15.9537899485765
 31
0.0
  0
LINE
  5
C2
330
1F
100
AcDbEntity
  8
0
100
AcDbLine
 10
-26.50000026280276
 20
-15.74612932444216
 30
0.0
 11
-26.90116978271155
 21
-15.79894429369423
 31
0.0
  0
LINE
  5
C3
330
1F
100
AcDbEntity
  8
0
100
AcDbLine
 10
-26.09883074289387
 20
-15.79894429369396
 30
0.0
 11
-26.50000026280276
 21
-15.74612932444216
 31
0.0
  0
LINE
  5
C4
330
1F
100
AcDbEntity
  8
0
100
AcDbLine
 10
-25.72500026280275
 20
-15.95378994857599
 30
0.0
 11
-26.09883074289387
 21
-15.79894429369396
 31
0.0
  0
LINE
  5
C5
330
1F
100
AcDbEntity
  8
0
100
AcDbLine
 10
26.49999959966846
 20
-15.74612936053755
 30
0.0
 11
26.09883008054646
 21
-15.79894433576735
 31
0.0
  0
LINE
  5
C6
330
1F
100
AcDbEntity
  8
0
100
AcDbLine
 10
26.9011691203645
 20
-15.79894432381166
 30
0.0
 11
26.49999959966846
 21
-15.74612936053755
 31
0.0
  0
LINE
  5
C7
330
1F
100
AcDbEntity
  8
0
100
AcDbLine
 10
27.27499960276303
 20
-15.95378997312341
 30
0.0
 11
26.9011691203645
 21
-15.79894432381166
 31
0.0
  0
LINE
  5
C8
330
1F
100
AcDbEntity
  8
0
100
AcDbLine
 10
27.59601511727274
 20
-16.20011383336673
 30
0.0
 11
27.27499960276303
 21
-15.95378997312341
 31
0.0
  0
LINE
  5
C9
330
1F
100
AcDbEntity
  8
0
100
AcDbLine
 10
27.84233898708301
 20
-16.52112934053547
 30
0.0
 11
27.59601511727274
 21
-16.20011383336673
 31
0.0
  0
LINE
  5
CA
330
1F
100
AcDbEntity
  8
0
100
AcDbLine
 10
27.99718464753564
 20
-16.89495981831929
 30
0.0
 11
27.84233898708301
 21
-16.52112934053547
 31
0.0
  0
LINE
  5
CB
330
1F
100
AcDbEntity
  8
0
100
AcDbLine
 10
14.74999973427973
 20
19.0029087812345
 30
0.0
 11
15.11177116662567
 21
19.15275941499144
 31
0.0
  0
LINE
  5
CC
330
1F
100
AcDbEntity
  8
0
100
AcDbLine
 10
15.88822830193345
 20
19.15275941499144
 30
0.0
 11
16.24999973427939
 21
19.00290878123449
 31
0.0
  0
LINE
  5
CD
330
1F
100
AcDbEntity
  8
0
100
AcDbLine
 10
16.79903783995632
 20
18.45387067555783
 30
0.0
 11
16.94888847371325
 21
18.0920992432116
 31
0.0
  0
LINE
  5
CE
330
1F
100
AcDbEntity
  8
0
100
AcDbLine
 10
16.94888847371316
 20
-12.9079007567884
 30
0.0
 11
16.99999973427949
 21
-13.29612932444218
 31
0.0
  0
LINE
  5
CF
330
1F
100
AcDbEntity
  8
0
100
AcDbLine
 10
15.78689455120997
 20
-22.26843750006929
 30
0.0
 11
15.39605745126866
 21
-22.29252365809977
 31
0.0
  0
LINE
  5
D0
330
1F
100
AcDbEntity
  8
0
100
AcDbLine
 10
15.01230384614177
 20
-22.21463301520005
 30
0.0
 11
14.66178590983593
 21
-22.04007368996334
 31
0.0
  0
LINE
  5
D1
330
1F
100
AcDbEntity
  8
0
100
AcDbLine
 10
14.36839086045213
 20
-21.78074161193165
 30
0.0
 11
14.15211308574771
 21
-21.45430983365628
 31
0.0
  0
LINE
  5
D2
330
1F
100
AcDbEntity
  8
0
100
AcDbLine
 10
14.15211308574771
 20
-21.45430983365628
 30
0.0
 11
14.02769155865225
 21
-21.08302414137269
 31
0.0
  0
LINE
  5
D3
330
1F
100
AcDbEntity
  8
0
100
AcDbLine
 10
14.02769155865225
 20
-21.08302414137269
 30
0.0
 11
13.99999973427945
 21
-13.29612932444218
 31
0.0
  0
LINE
  5
D4
330
1F
100
AcDbEntity
  8
0
100
AcDbLine
 10
14.74999973427964
 20
-11.9970912187655
 30
0.0
 11
15.11177116662558
 21
-11.84724058500856
 31
0.0
  0
LINE
  5
D5
330
1F
100
AcDbEntity
  8
0
100
AcDbLine
 10
-16.56066043750041
 20
18.76453084733775
 30
0.0
 11
-16.25000026572044
 21
19.00290878123459
 31
0.0
  0
LINE
  5
D6
330
1F
100
AcDbEntity
  8
0
100
AcDbLine
 10
-14.75000026572042
 20
19.00290878123459
 30
0.0
 11
-14.43934009394045
 21
18.76453084733774
 31
0.0
  0
LINE
  5
D7
330
1F
100
AcDbEntity
  8
0
100
AcDbLine
 10
-0.0000002657206139
 20
-18.79612932444214
 30
0.0
 11
-3.494057374604553
 21
-18.33612797934455
 31
0.0
  0
LINE
  5
D8
330
1F
100
AcDbEntity
  8
0
100
AcDbLine
 10
-3.494057374604553
 20
-18.33612797934455
 30
0.0
 11
-6.750000265720523
 21
-16.98747227553205
 31
0.0
  0
LINE
  5
D9
330
1F
100
AcDbEntity
  8
0
100
AcDbLine
 10
-9.545941811738826
 20
-14.84207087046051
 30
0.0
 11
-11.6913432168104
 21
-12.04612932444212
 31
0.0
  0
LINE
  5
DA
330
1F
100
AcDbEntity
  8
0
100
AcDbLine
 10
-11.6913432168104
 20
-12.04612932444212
 30
0.0
 11
-13.03999892062276
 21
-8.790186433326157
 31
0.0
  0
LINE
  5
DB
330
1F
100
AcDbEntity
  8
0
100
AcDbLine
 10
-6.750000265720523
 20
-16.98747227553205
 30
0.0
 11
-9.545941811738826
 21
-14.84207087046051
 31
0.0
  0
LINE
  5
DC
330
1F
100
AcDbEntity
  8
0
100
AcDbLine
 10
11.69134268536953
 20
-12.04612932444218
 30
0.0
 11
9.54594128029796
 21
-14.84207087046056
 31
0.0
  0
LINE
  5
DD
330
1F
100
AcDbEntity
  8
0
100
AcDbLine
 10
9.54594128029796
 20
-14.84207087046056
 30
0.0
 11
6.749999734279295
 21
-16.98747227553208
 31
0.0
  0
LINE
  5
DE
330
1F
100
AcDbEntity
  8
0
100
AcDbLine
 10
6.749999734279295
 20
-16.98747227553208
 30
0.0
 11
3.494056843163686
 21
-18.33612797934458
 31
0.0
  0
LINE
  5
DF
330
1F
100
AcDbEntity
  8
0
100
AcDbLine
 10
3.494056843163686
 20
-18.33612797934458
 30
0.0
 11
-0.0000002657206139
 21
-18.79612932444214
 31
0.0
  0
LINE
  5
E0
330
1F
100
AcDbEntity
  8
0
100
AcDbLine
 10
-13.03999892062276
 20
-8.790186433326157
 30
0.0
 11
-13.50000026572043
 21
-5.296129324442118
 31
0.0
  0
LINE
  5
E1
330
1F
100
AcDbEntity
  8
0
100
AcDbLine
 10
13.49999973427956
 20
-5.296129324442196
 30
0.0
 11
13.0399983891819
 21
-8.79018643332622
 31
0.0
  0
LINE
  5
E2
330
1F
100
AcDbEntity
  8
0
100
AcDbLine
 10
13.0399983891819
 20
-8.79018643332622
 30
0.0
 11
11.69134268536953
 21
-12.04612932444218
 31
0.0
  0
LINE
  5
E3
330
1F
100
AcDbEntity
  8
0
100
AcDbLine
 10
-17.00000026572036
 20
-20.79612932444208
 30
0.0
 11
-17.00000026572036
 21
-13.29612932444208
 31
0.0
  0
LINE
  5
E4
330
1F
100
AcDbEntity
  8
0
100
AcDbLine
 10
14.00004625166652
 20
10.21568380370898
 30
0.0
 11
13.99999973427954
 21
17.70387067555782
 31
0.0
  0
LINE
  5
E5
330
1F
100
AcDbEntity
  8
0
100
AcDbLine
 10
16.99999973427958
 20
17.70387067555782
 30
0.0
 11
16.99995321689242
 21
10.19205754740666
 31
0.0
  0
LINE
  5
E6
330
1F
100
AcDbEntity
  8
0
100
AcDbLine
 10
-16.99920492142783
 20
10.15503011551222
 30
0.0
 11
-17.00000026572027
 21
17.70387067555792
 31
0.0
  0
LINE
  5
E7
330
1F
100
AcDbEntity
  8
0
100
AcDbLine
 10
38.99999999999989
 20
-24.7961293244423
 30
0.0
 11
38.99999999999808
 21
24.79612932444207
 31
0.0
  0
LINE
  5
E8
330
1F
100
AcDbEntity
  8
0
100
AcDbLine
 10
38.99999999999808
 20
24.79612932444207
 30
0.0
 11
-38.99999999999952
 21
24.7961293244423
 31
0.0
  0
LINE
  5
E9
330
1F
100
AcDbEntity
  8
0
100
AcDbLine
 10
-38.99999999999952
 20
24.7961293244423
 30
0.0
 11
-38.99999999999989
 21
-24.79612932444201
 31
0.0
  0
LINE
  5
EA
330
1F
100
AcDbEntity
  8
0
100
AcDbLine
 10
-38.99999999999989
 20
-24.79612932444201
 30
0.0
 11
38.99999999999989
 21
-24.7961293244423
 31
0.0
  0
LINE
  5
EB
330
1F
100
AcDbEntity
  8
0
100
AcDbLine
 10
12.4903104951533
 20
5.516284398547173
 30
0.0
 11
13.3905678655302
 21
2.109002052642076
 31
0.0
  0
LINE
  5
EC
330
1F
100
AcDbEntity
  8
0
100
AcDbLine
 10
13.49999973427956
 20
1.803870675557802
 30
0.0
 11
13.3905678655302
 21
2.109002052642076
 31
0.0
  0
LINE
  5
ED
330
1F
100
AcDbEntity
  8
0
100
AcDbLine
 10
13.49999973427956
 20
-5.296129324442196
 30
0.0
 11
13.49999973427956
 21
1.803870675557802
 31
0.0
  0
LINE
  5
EE
330
1F
100
AcDbEntity
  8
0
100
AcDbLine
 10
-13.50000026572043
 20
-5.296129324442118
 30
0.0
 11
-13.50000026572043
 21
1.80387067555788
 31
0.0
  0
LINE
  5
EF
330
1F
100
AcDbEntity
  8
0
100
AcDbLine
 10
-13.50000026572043
 20
1.80387067555788
 30
0.0
 11
-13.37828067816357
 21
2.202336543311072
 31
0.0
  0
LINE
  5
F0
330
1F
100
AcDbEntity
  8
0
100
AcDbLine
 10
-13.37828067816357
 20
2.202336543311072
 30
0.0
 11
-12.45428525790156
 21
5.603258297919629
 31
0.0
  0
LINE
  5
F1
330
1F
100
AcDbEntity
  8
0
100
AcDbLine
 10
-12.45428525790156
 20
5.603258297919629
 30
0.0
 11
-10.68155089710183
 21
8.649148841533066
 31
0.0
  0
LINE
  5
F2
330
1F
100
AcDbEntity
  8
0
100
AcDbLine
 10
-10.68155089710183
 20
8.649148841533066
 30
0.0
 11
-8.180886512870156
 21
11.13243576717625
 31
0.0
  0
LINE
  5
F3
330
1F
100
AcDbEntity
  8
0
100
AcDbLine
 10
-8.180886512870156
 20
11.13243576717625
 30
0.0
 11
-5.122708250449121
 21
12.8838871746923
 31
0.0
  0
LINE
  5
F4
330
1F
100
AcDbEntity
  8
0
100
AcDbLine
 10
-5.122708250449121
 20
12.8838871746923
 30
0.0
 11
-1.715425904544087
 21
13.78414454506928
 31
0.0
  0
LINE
  5
F5
330
1F
100
AcDbEntity
  8
0
100
AcDbLine
 10
-1.715425904544087
 20
13.78414454506928
 30
0.0
 11
1.808759863772182
 21
13.77185682626166
 31
0.0
  0
LINE
  5
F6
330
1F
100
AcDbEntity
  8
0
100
AcDbLine
 10
1.808759863772182
 20
13.77185682626166
 30
0.0
 11
5.209681618380654
 21
12.84786140599976
 31
0.0
  0
LINE
  5
F7
330
1F
100
AcDbEntity
  8
0
100
AcDbLine
 10
5.209681618380654
 20
12.84786140599976
 30
0.0
 11
8.255572161993838
 21
11.07512704519979
 31
0.0
  0
LINE
  5
F8
330
1F
100
AcDbEntity
  8
0
100
AcDbLine
 10
8.255572161993838
 20
11.07512704519979
 30
0.0
 11
10.73885908763713
 21
8.574462660968235
 31
0.0
  0
LINE
  5
F9
330
1F
100
AcDbEntity
  8
0
100
AcDbLine
 10
10.73885908763713
 20
8.574462660968235
 30
0.0
 11
12.4903104951533
 21
5.516284398547173
 31
0.0
  0
LINE
  5
FA
330
1F
100
AcDbEntity
  8
0
100
AcDbLine
 10
13.99999973427945
 20
-13.29612932444218
 30
0.0
 11
14.05111099484578
 21
-12.90790075678839
 31
0.0
  0
LINE
  5
FB
330
1F
100
AcDbEntity
  8
0
100
AcDbLine
 10
14.05111099484578
 20
-12.90790075678839
 30
0.0
 11
14.20096162860271
 21
-12.54612932444217
 31
0.0
  0
LINE
  5
FC
330
1F
100
AcDbEntity
  8
0
100
AcDbLine
 10
15.11177116662558
 20
-11.84724058500856
 30
0.0
 11
15.49999973427947
 21
-11.79612932444216
 31
0.0
  0
LINE
  5
FD
330
1F
100
AcDbEntity
  8
0
100
AcDbLine
 10
15.49999973427947
 20
-11.79612932444216
 30
0.0
 11
15.88822830193336
 21
-11.84724058500856
 31
0.0
  0
LINE
  5
FE
330
1F
100
AcDbEntity
  8
0
100
AcDbLine
 10
15.88822830193336
 20
-11.84724058500856
 30
0.0
 11
16.2499997342793
 21
-11.99709121876551
 31
0.0
  0
LINE
  5
FF
330
1F
100
AcDbEntity
  8
0
100
AcDbLine
 10
16.2499997342793
 20
-11.99709121876551
 30
0.0
 11
16.56065990605927
 21
-12.23546915266235
 31
0.0
  0
LINE
  5
100
330
1F
100
AcDbEntity
  8
0
100
AcDbLine
 10
16.99999973427949
 20
-13.29612932444218
 30
0.0
 11
16.99639406793714
 21
-20.90007160745297
 31
0.0
  0
LINE
  5
101
330
1F
100
AcDbEntity
  8
0
100
AcDbLine
 10
16.74394409980051
 20
-21.63434314888568
 30
0.0
 11
16.484612021769
 21
-21.92773819826954
 31
0.0
  0
LINE
  5
102
330
1F
100
AcDbEntity
  8
0
100
AcDbLine
 10
16.484612021769
 20
-21.92773819826954
 30
0.0
 11
16.1581802434936
 21
-22.14401597297414
 31
0.0
  0
LINE
  5
103
330
1F
100
AcDbEntity
  8
0
100
AcDbLine
 10
16.1581802434936
 20
-22.14401597297414
 30
0.0
 11
15.78689455120997
 21
-22.26843750006929
 31
0.0
  0
LINE
  5
104
330
1F
100
AcDbEntity
  8
0
100
AcDbLine
 10
15.39605745126866
 20
-22.29252365809977
 30
0.0
 11
15.01230384614177
 21
-22.21463301520005
 31
0.0
  0
LINE
  5
105
330
1F
100
AcDbEntity
  8
0
100
AcDbLine
 10
-17.00000026572036
 20
-13.29612932444208
 30
0.0
 11
-16.94888900515403
 21
-12.9079007567883
 31
0.0
  0
LINE
  5
106
330
1F
100
AcDbEntity
  8
0
100
AcDbLine
 10
-16.94888900515403
 20
-12.9079007567883
 30
0.0
 11
-16.7990383713971
 21
-12.54612932444207
 31
0.0
  0
LINE
  5
107
330
1F
100
AcDbEntity
  8
0
100
AcDbLine
 10
-16.7990383713971
 20
-12.54612932444207
 30
0.0
 11
-16.5606604375005
 21
-12.23546915266225
 31
0.0
  0
LINE
  5
108
330
1F
100
AcDbEntity
  8
0
100
AcDbLine
 10
-16.5606604375005
 20
-12.23546915266225
 30
0.0
 11
-16.25000026572053
 21
-11.99709121876541
 31
0.0
  0
LINE
  5
109
330
1F
100
AcDbEntity
  8
0
100
AcDbLine
 10
-16.25000026572053
 20
-11.99709121876541
 30
0.0
 11
-15.88822883337423
 21
-11.84724058500847
 31
0.0
  0
LINE
  5
10A
330
1F
100
AcDbEntity
  8
0
100
AcDbLine
 10
-15.88822883337423
 20
-11.84724058500847
 30
0.0
 11
-15.5000002657207
 21
-11.79612932444207
 31
0.0
  0
LINE
  5
10B
330
1F
100
AcDbEntity
  8
0
100
AcDbLine
 10
-15.5000002657207
 20
-11.79612932444207
 30
0.0
 11
-15.11177169806681
 21
-11.84724058500847
 31
0.0
  0
LINE
  5
10C
330
1F
100
AcDbEntity
  8
0
100
AcDbLine
 10
-15.11177169806681
 20
-11.84724058500847
 30
0.0
 11
-14.75000026572051
 21
-11.99709121876542
 31
0.0
  0
LINE
  5
10D
330
1F
100
AcDbEntity
  8
0
100
AcDbLine
 10
-14.02555589600366
 20
-13.49024360826898
 30
0.0
 11
-14.00000026572032
 21
-20.79612932444209
 31
0.0
  0
LINE
  5
10E
330
1F
100
AcDbEntity
  8
0
100
AcDbLine
 10
-14.00000026572032
 20
-20.79612932444209
 30
0.0
 11
-14.0511115262871
 21
-21.18435789209589
 31
0.0
  0
LINE
  5
10F
330
1F
100
AcDbEntity
  8
0
100
AcDbLine
 10
-14.0511115262871
 20
-21.18435789209589
 30
0.0
 11
-14.20096216004402
 21
-21.5461293244421
 31
0.0
  0
LINE
  5
110
330
1F
100
AcDbEntity
  8
0
100
AcDbLine
 10
-14.7500002657206
 20
-22.09516743011876
 30
0.0
 11
-15.1117716980669
 21
-22.2450180638757
 31
0.0
  0
LINE
  5
111
330
1F
100
AcDbEntity
  8
0
100
AcDbLine
 10
-15.1117716980669
 20
-22.2450180638757
 30
0.0
 11
-15.50000026572079
 21
-22.2961293244421
 31
0.0
  0
LINE
  5
112
330
1F
100
AcDbEntity
  8
0
100
AcDbLine
 10
-15.50000026572079
 20
-22.2961293244421
 30
0.0
 11
-15.88822883337432
 21
-22.2450180638757
 31
0.0
  0
LINE
  5
113
330
1F
100
AcDbEntity
  8
0
100
AcDbLine
 10
-15.88822883337432
 20
-22.2450180638757
 30
0.0
 11
-16.25000026572062
 21
-22.09516743011875
 31
0.0
  0
LINE
  5
114
330
1F
100
AcDbEntity
  8
0
100
AcDbLine
 10
-16.25000026572062
 20
-22.09516743011875
 30
0.0
 11
-16.56066043750059
 21
-21.85678949622193
 31
0.0
  0
LINE
  5
115
330
1F
100
AcDbEntity
  8
0
100
AcDbLine
 10
-16.56066043750059
 20
-21.85678949622193
 30
0.0
 11
-16.79903837139719
 21
-21.54612932444209
 31
0.0
  0
LINE
  5
116
330
1F
100
AcDbEntity
  8
0
100
AcDbLine
 10
-16.79903837139719
 20
-21.54612932444209
 30
0.0
 11
-16.94888900515412
 21
-21.18435789209588
 31
0.0
  0
LINE
  5
117
330
1F
100
AcDbEntity
  8
0
100
AcDbLine
 10
-16.94888900515412
 20
-21.18435789209588
 30
0.0
 11
-17.00000026572036
 21
-20.79612932444208
 31
0.0
  0
LINE
  5
118
330
1F
100
AcDbEntity
  8
0
100
AcDbLine
 10
-16.93547989444745
 20
9.768671599835935
 30
0.0
 11
-16.99920492142783
 21
10.15503011551222
 31
0.0
  0
LINE
  5
119
330
1F
100
AcDbEntity
  8
0
100
AcDbLine
 10
-17.00000026572027
 20
17.70387067555792
 30
0.0
 11
-16.94888900515394
 21
18.0920992432117
 31
0.0
  0
LINE
  5
11A
330
1F
100
AcDbEntity
  8
0
100
AcDbLine
 10
-16.94888900515394
 20
18.0920992432117
 30
0.0
 11
-16.79903837139701
 21
18.45387067555793
 31
0.0
  0
LINE
  5
11B
330
1F
100
AcDbEntity
  8
0
100
AcDbLine
 10
-16.79903837139701
 20
18.45387067555793
 30
0.0
 11
-16.56066043750041
 21
18.76453084733775
 31
0.0
  0
LINE
  5
11C
330
1F
100
AcDbEntity
  8
0
100
AcDbLine
 10
-14.43934009394045
 20
18.76453084733774
 30
0.0
 11
-14.20096216004385
 21
18.45387067555792
 31
0.0
  0
LINE
  5
11D
330
1F
100
AcDbEntity
  8
0
100
AcDbLine
 10
-14.20096216004385
 20
18.45387067555792
 30
0.0
 11
-14.05111152628692
 21
18.0920992432117
 31
0.0
  0
LINE
  5
11E
330
1F
100
AcDbEntity
  8
0
100
AcDbLine
 10
-14.05111152628692
 20
18.0920992432117
 30
0.0
 11
-14.00000026572023
 21
17.70387067555791
 31
0.0
  0
LINE
  5
11F
330
1F
100
AcDbEntity
  8
0
100
AcDbLine
 10
-14.00079561001303
 20
10.25271123560361
 30
0.0
 11
-14.00000026572023
 21
17.70387067555791
 31
0.0
  0
LINE
  5
120
330
1F
100
AcDbEntity
  8
0
100
AcDbLine
 10
-14.00079561001303
 20
10.25271123560361
 30
0.0
 11
-14.03923890276681
 21
9.863024316473053
 31
0.0
  0
LINE
  5
121
330
1F
100
AcDbEntity
  8
0
100
AcDbLine
 10
-14.03923890276681
 20
9.863024316473053
 30
0.0
 11
-14.17723066838332
 21
9.49656551343889
 31
0.0
  0
LINE
  5
122
330
1F
100
AcDbEntity
  8
0
100
AcDbLine
 10
-14.17723066838332
 20
9.49656551343889
 30
0.0
 11
-14.40536699607827
 21
9.178308388326094
 31
0.0
  0
LINE
  5
123
330
1F
100
AcDbEntity
  8
0
100
AcDbLine
 10
-14.40536699607827
 20
9.178308388326094
 30
0.0
 11
-14.70810077213204
 21
8.929941638266333
 31
0.0
  0
LINE
  5
124
330
1F
100
AcDbEntity
  8
0
100
AcDbLine
 10
-15.06480118999843
 20
8.768391046830713
 30
0.0
 11
-15.45115970567483
 21
8.704666019850615
 31
0.0
  0
LINE
  5
125
330
1F
100
AcDbEntity
  8
0
100
AcDbLine
 10
-15.45115970567483
 20
8.704666019850615
 30
0.0
 11
-15.84084662480548
 21
8.743109312604112
 31
0.0
  0
LINE
  5
126
330
1F
100
AcDbEntity
  8
0
100
AcDbLine
 10
-15.84084662480548
 20
8.743109312604112
 30
0.0
 11
-16.20730542783962
 21
8.881101078220636
 31
0.0
  0
LINE
  5
127
330
1F
100
AcDbEntity
  8
0
100
AcDbLine
 10
-16.20730542783962
 20
8.881101078220636
 30
0.0
 11
-16.52556255295223
 21
9.109237405915577
 31
0.0
  0
LINE
  5
128
330
1F
100
AcDbEntity
  8
0
100
AcDbLine
 10
-16.52556255295223
 20
9.109237405915577
 30
0.0
 11
-16.77392930301221
 21
9.41197118196963
 31
0.0
  0
LINE
  5
129
330
1F
100
AcDbEntity
  8
0
100
AcDbLine
 10
-16.77392930301221
 20
9.41197118196963
 30
0.0
 11
-16.93547989444745
 21
9.768671599835935
 31
0.0
  0
LINE
  5
12A
330
1F
100
AcDbEntity
  8
0
100
AcDbLine
 10
13.99999973427954
 20
17.70387067555782
 30
0.0
 11
14.05111099484587
 21
18.09209924321161
 31
0.0
  0
LINE
  5
12B
330
1F
100
AcDbEntity
  8
0
100
AcDbLine
 10
14.05111099484587
 20
18.09209924321161
 30
0.0
 11
14.2009616286028
 21
18.45387067555783
 31
0.0
  0
LINE
  5
12C
330
1F
100
AcDbEntity
  8
0
100
AcDbLine
 10
14.2009616286028
 20
18.45387067555783
 30
0.0
 11
14.43933956249976
 21
18.76453084733766
 31
0.0
  0
LINE
  5
12D
330
1F
100
AcDbEntity
  8
0
100
AcDbLine
 10
14.43933956249976
 20
18.76453084733766
 30
0.0
 11
14.74999973427973
 21
19.0029087812345
 31
0.0
  0
LINE
  5
12E
330
1F
100
AcDbEntity
  8
0
100
AcDbLine
 10
15.11177116662567
 20
19.15275941499144
 30
0.0
 11
15.49999973427956
 21
19.20387067555784
 31
0.0
  0
LINE
  5
12F
330
1F
100
AcDbEntity
  8
0
100
AcDbLine
 10
15.49999973427956
 20
19.20387067555784
 30
0.0
 11
15.88822830193345
 21
19.15275941499144
 31
0.0
  0
LINE
  5
130
330
1F
100
AcDbEntity
  8
0
100
AcDbLine
 10
16.24999973427939
 20
19.00290878123449
 30
0.0
 11
16.56065990605936
 21
18.76453084733765
 31
0.0
  0
LINE
  5
131
330
1F
100
AcDbEntity
  8
0
100
AcDbLine
 10
16.56065990605936
 20
18.76453084733765
 30
0.0
 11
16.79903783995632
 21
18.45387067555783
 31
0.0
  0
LINE
  5
132
330
1F
100
AcDbEntity
  8
0
100
AcDbLine
 10
16.99995321689242
 20
10.19205754740666
 30
0.0
 11
16.94578607882013
 21
9.80424354191923
 31
0.0
  0
LINE
  5
133
330
1F
100
AcDbEntity
  8
0
100
AcDbLine
 10
16.94578607882013
 20
9.80424354191923
 30
0.0
 11
16.7930909906418
 21
9.443663465174197
 31
0.0
  0
LINE
  5
134
330
1F
100
AcDbEntity
  8
0
100
AcDbLine
 10
16.7930909906418
 20
9.443663465174197
 30
0.0
 11
16.55227387027687
 21
9.134890253514993
 31
0.0
  0
LINE
  5
135
330
1F
100
AcDbEntity
  8
0
100
AcDbLine
 10
16.55227387027687
 20
9.134890253514993
 30
0.0
 11
16.23974600650884
 21
8.898966291044326
 31
0.0
  0
LINE
  5
136
330
1F
100
AcDbEntity
  8
0
100
AcDbLine
 10
16.23974600650884
 20
8.898966291044326
 30
0.0
 11
15.87680565677699
 21
8.751969405921814
 31
0.0
  0
LINE
  5
137
330
1F
100
AcDbEntity
  8
0
100
AcDbLine
 10
15.87680565677699
 20
8.751969405921814
 30
0.0
 11
15.48818660612814
 21
8.70391719294469
 31
0.0
  0
LINE
  5
138
330
1F
100
AcDbEntity
  8
0
100
AcDbLine
 10
15.48818660612814
 20
8.70391719294469
 30
0.0
 11
15.10037260064088
 21
8.758084331017324
 31
0.0
  0
LINE
  5
139
330
1F
100
AcDbEntity
  8
0
100
AcDbLine
 10
15.10037260064088
 20
8.758084331017324
 30
0.0
 11
14.73979252389589
 21
8.910779419195487
 31
0.0
  0
LINE
  5
13A
330
1F
100
AcDbEntity
  8
0
100
AcDbLine
 10
14.73979252389589
 20
8.910779419195487
 30
0.0
 11
14.43101931223669
 21
9.151596539560403
 31
0.0
  0
LINE
  5
13B
330
1F
100
AcDbEntity
  8
0
100
AcDbLine
 10
14.43101931223669
 20
9.151596539560403
 30
0.0
 11
14.19509534976617
 21
9.46412440332832
 31
0.0
  0
LINE
  5
13C
330
1F
100
AcDbEntity
  8
0
100
AcDbLine
 10
-25.4039847519636
 20
-16.20011381360257
 30
0.0
 11
-25.72500026280275
 21
-15.95378994857599
 31
0.0
  0
LINE
  5
13D
330
1F
100
AcDbEntity
  8
0
100
AcDbLine
 10
-25.15766088693681
 20
-16.52112932444159
 30
0.0
 11
-25.4039847519636
 21
-16.20011381360257
 31
0.0
  0
LINE
  5
13E
330
1F
100
AcDbEntity
  8
0
100
AcDbLine
 10
-25.00281523205454
 20
-16.89495980453258
 30
0.0
 11
-25.15766088693681
 21
-16.52112932444159
 31
0.0
  0
LINE
  5
13F
330
1F
100
AcDbEntity
  8
0
100
AcDbLine
 10
-24.95000026280248
 20
-17.29612932444141
 30
0.0
 11
-25.00281523205454
 21
-16.89495980453258
 31
0.0
  0
LINE
  5
140
330
1F
100
AcDbEntity
  8
0
100
AcDbLine
 10
-25.00281523205426
 20
-17.69729884435027
 30
0.0
 11
-24.95000026280248
 21
-17.29612932444141
 31
0.0
  0
LINE
  5
141
330
1F
100
AcDbEntity
  8
0
100
AcDbLine
 10
-25.15766088693627
 20
-18.07112932444135
 30
0.0
 11
-25.00281523205426
 21
-17.69729884435027
 31
0.0
  0
LINE
  5
142
330
1F
100
AcDbEntity
  8
0
100
AcDbLine
 10
-25.40398475196288
 20
-18.39214483528054
 30
0.0
 11
-25.15766088693627
 21
-18.07112932444135
 31
0.0
  0
LINE
  5
143
330
1F
100
AcDbEntity
  8
0
100
AcDbLine
 10
-25.72500026280185
 20
-18.63846870030734
 30
0.0
 11
-25.40398475196288
 21
-18.39214483528054
 31
0.0
  0
LINE
  5
144
330
1F
100
AcDbEntity
  8
0
100
AcDbLine
 10
-26.09883074289288
 20
-18.79331435518961
 30
0.0
 11
-25.72500026280185
 21
-18.63846870030734
 31
0.0
  0
LINE
  5
145
330
1F
100
AcDbEntity
  8
0
100
AcDbLine
 10
-26.50000026280167
 20
-18.84612932444168
 30
0.0
 11
-26.09883074289288
 21
-18.79331435518961
 31
0.0
  0
LINE
  5
146
330
1F
100
AcDbEntity
  8
0
100
AcDbLine
 10
-26.90116978271056
 20
-18.79331435518987
 30
0.0
 11
-26.50000026280167
 21
-18.84612932444168
 31
0.0
  0
LINE
  5
147
330
1F
100
AcDbEntity
  8
0
100
AcDbLine
 10
-27.27500026280168
 20
-18.63846870030785
 30
0.0
 11
-26.90116978271056
 21
-18.79331435518987
 31
0.0
  0
LINE
  5
148
330
1F
100
AcDbEntity
  8
0
100
AcDbLine
 10
-27.59601577364083
 20
-18.39214483528126
 30
0.0
 11
-27.27500026280168
 21
-18.63846870030785
 31
0.0
  0
LINE
  5
149
330
1F
100
AcDbEntity
  8
0
100
AcDbLine
 10
-27.84233963866762
 20
-18.07112932444224
 30
0.0
 11
-27.59601577364083
 21
-18.39214483528126
 31
0.0
  0
LINE
  5
14A
330
1F
100
AcDbEntity
  8
0
100
AcDbLine
 10
-27.9971852935499
 20
-17.69729884435126
 30
0.0
 11
-27.84233963866762
 21
-18.07112932444224
 31
0.0
  0
LINE
  5
14B
330
1F
100
AcDbEntity
  8
0
100
AcDbLine
 10
-28.05000026280196
 20
-17.29612932444243
 30
0.0
 11
-27.9971852935499
 21
-17.69729884435126
 31
0.0
  0
LINE
  5
14C
330
1F
100
AcDbEntity
  8
0
100
AcDbLine
 10
-27.99718529355017
 20
-16.89495980453357
 30
0.0
 11
-28.05000026280196
 21
-17.29612932444243
 31
0.0
  0
LINE
  5
14D
330
1F
100
AcDbEntity
  8
0
100
AcDbLine
 10
26.09883008054646
 20
-15.79894433576735
 30
0.0
 11
25.72499960276266
 21
-15.95378999622002
 31
0.0
  0
LINE
  5
14E
330
1F
100
AcDbEntity
  8
0
100
AcDbLine
 10
-25.15766075300248
 20
-0.5711293244439566
 30
0.0
 11
-25.00281509812029
 21
-0.1972988443529619
 31
0.0
  0
LINE
  5
14F
330
1F
100
AcDbEntity
  8
0
100
AcDbLine
 10
-25.40398461802918
 20
-0.8921448352830147
 30
0.0
 11
-25.15766075300248
 21
-0.5711293244439566
 31
0.0
  0
LINE
  5
150
330
1F
100
AcDbEntity
  8
0
100
AcDbLine
 10
-25.72500012886824
 20
-1.138468700309662
 30
0.0
 11
-25.40398461802918
 21
-0.8921448352830147
 31
0.0
  0
LINE
  5
151
330
1F
100
AcDbEntity
  8
0
100
AcDbLine
 10
-26.09883060895927
 20
-1.293314355191773
 30
0.0
 11
-25.72500012886824
 21
-1.138468700309662
 31
0.0
  0
LINE
  5
152
330
1F
100
AcDbEntity
  8
0
100
AcDbLine
 10
-26.50000012886807
 20
-1.346129324443673
 30
0.0
 11
-26.09883060895927
 21
-1.293314355191773
 31
0.0
  0
ENDSEC
  0
SECTION
  2
OBJECTS
  0
DICTIONARY
  5
C
330
0
100
AcDbDictionary
  3
ACAD_GROUP
350
D
  3
ACAD_LAYOUT
350
1A
  3
ACAD_MATERIAL
350
43
  3
ACAD_MLEADERSTYLE
350
175
  3
ACAD_MLINESTYLE
350
17
  3
ACAD_PLOTSETTINGS
350
19
  3
ACAD_SCALELIST
350
47
  3
ACAD_VISUALSTYLE
350
2A
  3
ACDBHEADERROUNDTRIPXREC
350
153
  3
ACDBVARIABLEDICTIONARY
350
173
  0
DICTIONARY
  5
17A
330
8
100
AcDbDictionary
280
     1
  3
ACAD_XREC_ROUNDTRIP
360
17B
  0
DICTIONARY
  5
D
102
{ACAD_REACTORS
330
C
102
}
330
C
100
AcDbDictionary
  0
DICTIONARY
  5
1A
102
{ACAD_REACTORS
330
C
102
}
330
C
100
AcDbDictionary
  0
DICTIONARY
  5
43
102
{ACAD_REACTORS
330
C
102
}
330
C
100
AcDbDictionary
  3
BYBLOCK
350
45
  3
BYLAYER
350
44
  3
GLOBAL
350
46
  0
DICTIONARY
  5
175
102
{ACAD_REACTORS
330
C
102
}
330
C
100
AcDbDictionary
  0
DICTIONARY
  5
17
102
{ACAD_REACTORS
330
C
102
}
330
C
100
AcDbDictionary
  3
STANDARD
350
18
  0
DICTIONARY
  5
19
102
{ACAD_REACTORS
330
C
102
}
330
C
100
AcDbDictionary
  0
DICTIONARY
  5
47
102
{ACAD_REACTORS
330
C
102
}
330
C
100
AcDbDictionary
  3
A0
350
48
  3
A1
350
49
  3
A2
350
4A
  3
A3
350
4B
  3
A4
350
4C
  3
A5
350
4D
  3
A6
350
4E
  3
A7
350
4F
  3
A8
350
50
  3
A9
350
51
  3
B0
350
52
  3
B1
350
53
  3
B2
350
54
  3
B3
350
55
  3
B4
350
56
  3
B5
350
57
  3
B6
350
58
  3
B7
350
59
  3
B8
350
5A
  3
B9
350
5B
  3
C0
350
5C
  3
C1
350
5D
  3
C2
350
5E
  3
C3
350
5F
  3
C4
350
60
  3
C5
350
61
  3
C6
350
62
  3
C7
350
63
  3
C8
350
64
  3
C9
350
65
  3
D0
350
66
  3
D1
350
67
  3
D2
350
68
  0
DICTIONARY
  5
2A
102
{ACAD_REACTORS
330
C
102
}
330
C
100
AcDbDictionary
  3
2DWIREFRAME
350
2F
  3
BASIC
350
32
  3
BRIGHTEN
350
36
  3
COLORCHANGE
350
3A
  3
CONCEPTUAL
350
34
  3
DIM
350
35
  3
EDGECOLOROFF
350
3D
  3
FACEPATTERN
350
39
  3
FLAT
350
2B
  3
FLATWITHEDGES
350
2C
  3
GOURAUD
350
2D
  3
GOURAUDWITHEDGES
350
2E
  3
HIDDEN
350
31
  3
JITTEROFF
350
3B
  3
LINEPATTERN
350
38
  3
OVERHANGOFF
350
3C
  3
REALISTIC
350
33
  3
SHADED
350
42
  3
SHADED_WITH_EDGES
350
41
  3
SHADES_OF_GRAY
350
3E
  3
SKETCHY
350
3F
  3
THICKEN
350
37
  3
WIREFRAME
350
30
  3
X-RAY
350
40
  0
DICTIONARY
  5
153
102
{ACAD_REACTORS
330
C
102
}
330
C
100
AcDbDictionary
  3
CEPSNTYPE
350
15C
  3
DIMSTYLEDATA
350
172
  3
FINGERPRINTGUID
350
15D
  3
HYPERLINKBASE
350
156
  3
INSUNITS
350
15B
  3
LAYOUTDICT
350
158
  3
LWETCUNION
350
15A
  3
PLOTSETDICT
350
159
  3
PSVPSCALE
350
15F
  3
PUCSBASE
350
162
  3
PUCSORGBACK
350
168
  3
PUCSORGBOTTOM
350
164
  3
PUCSORGFRONT
350
167
  3
PUCSORGLEFT
350
165
  3
PUCSORGRIGHT
350
166
  3
PUCSORGTOP
350
163
  3
PUCSORTHOREF
350
160
  3
PUCSORTHOVIEW
350
161
  3
STYLESHEET
350
157
  3
TSTACKALIGN
350
154
  3
TSTACKSIZE
350
155
  3
UCSBASE
350
16B
  3
UCSORGBACK
350
171
  3
UCSORGBOTTOM
350
16D
  3
UCSORGFRONT
350
170
  3
UCSORGLEFT
350
16E
  3
UCSORGRIGHT
350
16F
  3
UCSORGTOP
350
16C
  3
UCSORTHOREF
350
169
  3
UCSORTHOVIEW
350
16A
  3
VERSIONGUID
350
15E
  0
DICTIONARY
  5
173
102
{ACAD_REACTORS
330
C
102
}
330
C
100
AcDbDictionary
  3
CANNOSCALE
350
17C
  3
DIMASSOC
350
178
  3
HIDETEXT
350
179
  3
MSLTSCALE
350
17D
  0
XRECORD
  5
17B
102
{ACAD_REACTORS
330
17A
102
}
330
17A
100
AcDbXrecord
102
VTR_0.000_0.000_1.000_1.000_GRIDDISPLAY
 70
     3
102
VTR_0.000_0.000_1.000_1.000_GRIDMAJOR
 70
     5
102
VTR_0.000_0.000_1.000_1.000_DEFAULTLIGHTING
280
     1
102
VTR_0.000_0.000_1.000_1.000_DEFAULTLIGHTINGTYPE
 70
     1
102
VTR_0.000_0.000_1.000_1.000_BRIGHTNESS
141
0.0
102
VTR_0.000_0.000_1.000_1.000_CONTRAST
142
0.0
  0
MATERIAL
  5
45
102
{ACAD_REACTORS
330
43
102
}
102
{ACAD_XDICTIONARY
360
180
102
}
330
43
100
AcDbMaterial
  1
BYBLOCK
  0
MATERIAL
  5
44
102
{ACAD_REACTORS
330
43
102
}
102
{ACAD_XDICTIONARY
360
17E
102
}
330
43
100
AcDbMaterial
  1
BYLAYER
  0
MATERIAL
  5
46
102
{ACAD_REACTORS
330
43
102
}
102
{ACAD_XDICTIONARY
360
182
102
}
330
43
100
AcDbMaterial
  1
GLOBAL
  0
MLINESTYLE
  5
18
102
{ACAD_REACTORS
330
17
102
}
330
17
100
AcDbMlineStyle
  2
Standard
 70
     0
  3

 62
   256
 51
90.0
 52
90.0
 71
     2
 49
0.5
 62
   256
  6
BYLAYER
 49
-0.5
 62
   256
  6
BYLAYER
  0
ACAD_PROXY_OBJECT
  5
48
102
{ACAD_REACTORS
330
47
102
}
330
47
100
AcDbProxyObject
 90
      499
 91
      503
 93
       41
310
903313A31580
  0
ACAD_PROXY_OBJECT
  5
49
102
{ACAD_REACTORS
330
47
102
}
330
47
100
AcDbProxyObject
 90
      499
 91
      503
 93
      105
310
903313A324000000000000004000
  0
ACAD_PROXY_OBJECT
  5
4A
102
{ACAD_REACTORS
330
47
102
}
330
47
100
AcDbProxyObject
 90
      499
 91
      503
 93
      105
310
903313A344000000000000104000
  0
ACAD_PROXY_OBJECT
  5
4B
102
{ACAD_REACTORS
330
47
102
}
330
47
100
AcDbProxyObject
 90
      499
 91
      503
 93
      105
310
903313A354000000000000144000
  0
ACAD_PROXY_OBJECT
  5
4C
102
{ACAD_REACTORS
330
47
102
}
330
47
100
AcDbProxyObject
 90
      499
 91
      503
 93
      105
310
903313A384000000000000204000
  0
ACAD_PROXY_OBJECT
  5
4D
102
{ACAD_REACTORS
330
47
102
}
330
47
100
AcDbProxyObject
 90
      499
 91
      503
 93
      113
310
904313A31304000000000000244000
  0
ACAD_PROXY_OBJECT
  5
4E
102
{ACAD_REACTORS
330
47
102
}
330
47
100
AcDbProxyObject
 90
      499
 91
      503
 93
      113
310
904313A31364000000000000304000
  0
ACAD_PROXY_OBJECT
  5
4F
102
{ACAD_REACTORS
330
47
102
}
330
47
100
AcDbProxyObject
 90
      499
 91
      503
 93
      113
310
904313A32304000000000000344000
  0
ACAD_PROXY_OBJECT
  5
50
102
{ACAD_REACTORS
330
47
102
}
330
47
100
AcDbProxyObject
 90
      499
 91
      503
 93
      113
310
904313A333040000000000003E4000
  0
ACAD_PROXY_OBJECT
  5
51
102
{ACAD_REACTORS
330
47
102
}
330
47
100
AcDbProxyObject
 90
      499
 91
      503
 93
      113
310
904313A34304000000000000444000
  0
ACAD_PROXY_OBJECT
  5
52
102
{ACAD_REACTORS
330
47
102
}
330
47
100
AcDbProxyObject
 90
      499
 91
      503
 93
      113
310
904313A35304000000000000494000
  0
ACAD_PROXY_OBJECT
  5
53
102
{ACAD_REACTORS
330
47
102
}
330
47
100
AcDbProxyObject
 90
      499
 91
      503
 93
      121
310
905313A3130304000000000000594000
  0
ACAD_PROXY_OBJECT
  5
54
102
{ACAD_REACTORS
330
47
102
}
330
47
100
AcDbProxyObject
 90
      499
 91
      503
 93
      105
310
903323A310000000000000010100
  0
ACAD_PROXY_OBJECT
  5
55
102
{ACAD_REACTORS
330
47
102
}
330
47
100
AcDbProxyObject
 90
      499
 91
      503
 93
      105
310
903343A310000000000000410100
  0
ACAD_PROXY_OBJECT
  5
56
102
{ACAD_REACTORS
330
47
102
}
330
47
100
AcDbProxyObject
 90
      499
 91
      503
 93
      105
310
903383A310000000000000810100
  0
ACAD_PROXY_OBJECT
  5
57
102
{ACAD_REACTORS
330
47
102
}
330
47
100
AcDbProxyObject
 90
      499
 91
      503
 93
      113
310
90431303A310000000000000910100
  0
ACAD_PROXY_OBJECT
  5
58
102
{ACAD_REACTORS
330
47
102
}
330
47
100
AcDbProxyObject
 90
      499
 91
      503
 93
      121
310
9053130303A310000000000001650100
  0
ACAD_PROXY_OBJECT
  5
59
102
{ACAD_REACTORS
330
47
102
}
330
47
100
AcDbProxyObject
 90
      499
 91
      503
 93
      257
310
90E312F31323822203D2031272D3022000000000000200FC000000000000284000
  0
ACAD_PROXY_OBJECT
  5
5A
102
{ACAD_REACTORS
330
47
102
}
330
47
100
AcDbProxyObject
 90
      499
 91
      503
 93
      249
310
90D312F363422203D2031272D3022000000000000240FC000000000000284000
  0
ACAD_PROXY_OBJECT
  5
5B
102
{ACAD_REACTORS
330
47
102
}
330
47
100
AcDbProxyObject
 90
      499
 91
      503
 93
      249
310
90D312F333222203D2031272D3022000000000000280FC000000000000284000
  0
ACAD_PROXY_OBJECT
  5
5C
102
{ACAD_REACTORS
330
47
102
}
330
47
100
AcDbProxyObject
 90
      499
 91
      503
 93
      249
310
90D312F313622203D2031272D30220000000000002C0FC000000000000284000
  0
ACAD_PROXY_OBJECT
  5
5D
102
{ACAD_REACTORS
330
47
102
}
330
47
100
AcDbProxyObject
 90
      499
 91
      503
 93
      249
310
90D332F333222203D2031272D30220000000000002E0FC000000000000284000
  0
ACAD_PROXY_OBJECT
  5
5E
102
{ACAD_REACTORS
330
47
102
}
330
47
100
AcDbProxyObject
 90
      499
 91
      503
 93
      241
310
90C312F3822203D2031272D3022000000000000300FC000000000000284000
  0
ACAD_PROXY_OBJECT
  5
5F
102
{ACAD_REACTORS
330
47
102
}
330
47
100
AcDbProxyObject
 90
      499
 91
      503
 93
      249
310
90D332F313622203D2031272D3022000000000000320FC000000000000284000
  0
ACAD_PROXY_OBJECT
  5
60
102
{ACAD_REACTORS
330
47
102
}
330
47
100
AcDbProxyObject
 90
      499
 91
      503
 93
      241
310
90C312F3422203D2031272D3022000000000000340FC000000000000284000
  0
ACAD_PROXY_OBJECT
  5
61
102
{ACAD_REACTORS
330
47
102
}
330
47
100
AcDbProxyObject
 90
      499
 91
      503
 93
      241
310
90C332F3822203D2031272D3022000000000000360FC000000000000284000
  0
ACAD_PROXY_OBJECT
  5
62
102
{ACAD_REACTORS
330
47
102
}
330
47
100
AcDbProxyObject
 90
      499
 91
      503
 93
      241
310
90C312F3222203D2031272D3022000000000000380FC000000000000284000
  0
ACAD_PROXY_OBJECT
  5
63
102
{ACAD_REACTORS
330
47
102
}
330
47
100
AcDbProxyObject
 90
      499
 91
      503
 93
      241
310
90C332F3422203D2031272D30220000000000003A0FC000000000000284000
  0
ACAD_PROXY_OBJECT
  5
64
102
{ACAD_REACTORS
330
47
102
}
330
47
100
AcDbProxyObject
 90
      499
 91
      503
 93
      161
310
90A3122203D2031272D30224000000000000284000
  0
ACAD_PROXY_OBJECT
  5
65
102
{ACAD_REACTORS
330
47
102
}
330
47
100
AcDbProxyObject
 90
      499
 91
      503
 93
      257
310
90E312D312F3222203D2031272D30220000000000003E0FC000000000000284000
  0
ACAD_PROXY_OBJECT
  5
66
102
{ACAD_REACTORS
330
47
102
}
330
47
100
AcDbProxyObject
 90
      499
 91
      503
 93
      225
310
90A3322203D2031272D302200000000000002100000000000000284000
  0
ACAD_PROXY_OBJECT
  5
67
102
{ACAD_REACTORS
330
47
102
}
330
47
100
AcDbProxyObject
 90
      499
 91
      503
 93
      225
310
90A3622203D2031272D302200000000000006100000000000000284000
  0
ACAD_PROXY_OBJECT
  5
68
102
{ACAD_REACTORS
330
47
102
}
330
47
100
AcDbProxyObject
 90
      499
 91
      503
 93
      249
310
90D31272D3022203D2031272D30220000000000000A100000000000000284000
  0
ACAD_PROXY_OBJECT
  5
2F
102
{ACAD_REACTORS
330
2A
102
}
330
2A
100
AcDbProxyObject
 90
      499
 91
      501
 93
      436
310
42CC9915DA5C99599C985B595049028333333333333E33F0000000000000F90107901411070040501600405405064090741402480A0340
1001
ACAD
1000
AcDbSavedByObjectVersion
1070
     0
  0
ACAD_PROXY_OBJECT
  5
32
102
{ACAD_REACTORS
330
2A
102
}
330
2A
100
AcDbProxyObject
 90
      499
 91
      501
 93
      388
310
4150985CDA58D07406404333333333333E33F0000000000000F90107A41107004050150841D405064090741402480A0350
1001
ACAD
1000
AcDbSavedByObjectVersion
1070
     0
  0
ACAD_PROXY_OBJECT
  5
36
102
{ACAD_REACTORS
330
2A
102
}
330
2A
100
AcDbProxyObject
 90
      499
 91
      501
 93
      428
310
42109C9A59DA1D195B90C409028333333333333E33F0000000000000F9010790141107004050150841D405064090741402480A029950
1001
ACAD
1000
AcDbSavedByObjectVersion
1070
     0
  0
ACAD_PROXY_OBJECT
  5
3A
102
{ACAD_REACTORS
330
2A
102
}
330
2A
100
AcDbProxyObject
 90
      499
 91
      501
 93
      452
310
42D0DBDB1BDC90DA185B99D95104090240C333333333333E33F0000000000000F90108901411070040501508421405064090741402480A0350
1001
ACAD
1000
AcDbSavedByObjectVersion
1070
     0
  0
ACAD_PROXY_OBJECT
  5
34
102
{ACAD_REACTORS
330
2A
102
}
330
2A
100
AcDbProxyObject
 90
      499
 91
      501
 93
      500
310
4290DBDB98D95C1D1D585B10940D028333333333333E33F0000000000000F90107902409070040501000000000018199010841D405064090740C02480A0340
1001
ACAD
1000
AcDbSavedByObjectVersion
1070
     0
  0
ACAD_PROXY_OBJECT
  5
35
102
{ACAD_REACTORS
330
2A
102
}
330
2A
100
AcDbProxyObject
 90
      499
 91
      501
 93
      412
310
40D11A5B50B409028333333333333E33F0000000000000F9010790141107004050150841D405064090741402480A02677FFFFFD0
1001
ACAD
1000
AcDbSavedByObjectVersion
1070
     0
  0
ACAD_PROXY_OBJECT
  5
3D
102
{ACAD_REACTORS
330
2A
102
}
330
2A
100
AcDbProxyObject
 90
      499
 91
      501
 93
      452
310
43115919D950DBDB1BDC93D999916409028333333333333E33F0000000000000F9010790141107004050150841D405064090741402480A0350
1001
ACAD
1000
AcDbSavedByObjectVersion
1070
     0
  0
ACAD_PROXY_OBJECT
  5
39
102
{ACAD_REACTORS
330
2A
102
}
330
2A
100
AcDbProxyObject
 90
      499
 91
      501
 93
      444
310
42D19858D95C185D1D195C9B90F409028333333333333E33F0000000000000F9010790141107004050150841D405064090741402480A0350
1001
ACAD
1000
AcDbSavedByObjectVersion
1070
     0
  0
ACAD_PROXY_OBJECT
  5
2B
102
{ACAD_REACTORS
330
2A
102
}
330
2A
100
AcDbProxyObject
 90
      499
 91
      501
 93
      380
310
41119B185D240901404333333333333E33F0000000000000F9010740A907004050150841D405064090741402480A1B50
1001
ACAD
1000
AcDbSavedByObjectVersion
1070
     0
  0
ACAD_PROXY_OBJECT
  5
2C
102
{ACAD_REACTORS
330
2A
102
}
330
2A
100
AcDbProxyObject
 90
      499
 91
      501
 93
      468
310
43519B185D15DA5D1A115919D95CD0140901404333333333333E33F0000000000000F90107409019070040501600405405064090741402480A1B50
1001
ACAD
1000
AcDbSavedByObjectVersion
1070
     0
  0
ACAD_PROXY_OBJECT
  5
2D
102
{ACAD_REACTORS
330
2A
102
}
330
2A
100
AcDbProxyObject
 90
      499
 91
      501
 93
      404
310
41D1DBDD5C985D5910240902404333333333333E33F0000000000000F9010740A9070040501641D405064090741402480A1B50
1001
ACAD
1000
AcDbSavedByObjectVersion
1070
     0
  0
ACAD_PROXY_OBJECT
  5
2E
102
{ACAD_REACTORS
330
2A
102
}
330
2A
100
AcDbProxyObject
 90
      499
 91
      501
 93
      492
310
4411DBDD5C985D5915DA5D1A115919D95CD0340902404333333333333E33F0000000000000F90107409019070040501600405405064090741402480A1B50
1001
ACAD
1000
AcDbSavedByObjectVersion
1070
     0
  0
ACAD_PROXY_OBJECT
  5
31
102
{ACAD_REACTORS
330
2A
102
}
330
2A
100
AcDbProxyObject
 90
      499
 91
      501
 93
      476
310
41921A5919195B90640502408333333333333E33F0000000000000F901079024090700405020000000000001110200405405064090740C02480A0340
1001
ACAD
1000
AcDbSavedByObjectVersion
1070
     0
  0
ACAD_PROXY_OBJECT
  5
3B
102
{ACAD_REACTORS
330
2A
102
}
330
2A
100
AcDbProxyObject
 90
      499
 91
      501
 93
      428
310
42529A5D1D195C93D999914409028333333333333E33F0000000000000F9010790141107004050150A41D405064090741402480A0350
1001
ACAD
1000
AcDbSavedByObjectVersion
1070
     0
  0
ACAD_PROXY_OBJECT
  5
38
102
{ACAD_REACTORS
330
2A
102
}
330
2A
100
AcDbProxyObject
 90
      499
 91
      501
 93
      444
310
42D31A5B995C185D1D195C9B90E409028333333333333E33F0000000000000F9010790141107004050750841D405064090741402483A0350
1001
ACAD
1000
AcDbSavedByObjectVersion
1070
     0
  0
ACAD_PROXY_OBJECT
  5
3C
102
{ACAD_REACTORS
330
2A
102
}
330
2A
100
AcDbProxyObject
 90
      499
 91
      501
 93
      444
310
42D3DD995C9A185B99D3D999915409028333333333333E33F0000000000000F9010790141107004050150941D405064090741402480A0350
1001
ACAD
1000
AcDbSavedByObjectVersion
1070
     0
  0
ACAD_PROXY_OBJECT
  5
33
102
{ACAD_REACTORS
330
2A
102
}
330
2A
100
AcDbProxyObject
 90
      499
 91
      501
 93
      428
310
425499585B1A5CDD1A58D08409038333333333333E33F0000000000000F9010740A907004050150800405405064090740C02480A1B40
1001
ACAD
1000
AcDbSavedByObjectVersion
1070
     0
  0
ACAD_PROXY_OBJECT
  5
42
102
{ACAD_REACTORS
330
2A
102
}
330
2A
100
AcDbProxyObject
 90
      499
 91
      501
 93
      420
310
4194DA1859195911B40902404333333333333E33F0000000000000F9010740A41107004050150800405405064090840C02480A0B40
1001
ACAD
1000
AcDbSavedByObjectVersion
1070
     0
  0
ACAD_PROXY_OBJECT
  5
41
102
{ACAD_REACTORS
330
2A
102
}
330
2A
100
AcDbProxyObject
 90
      499
 91
      501
 93
      516
310
4454DA18591959081DDA5D1A08195919D95CD1A40902404333333333333E33F0000000000000F901074090142907004050250800405405064090740C02480A0B40
1001
ACAD
1000
AcDbSavedByObjectVersion
1070
     0
  0
ACAD_PROXY_OBJECT
  5
3E
102
{ACAD_REACTORS
330
2A
102
}
330
2A
100
AcDbProxyObject
 90
      499
 91
      501
 93
      532
310
4394DA1859195CC81BD98811DC985E5174090240C333333333333E33F0000000000000F901079024090741D01000000000000111010841D405064090740C02480A0340
1001
ACAD
1000
AcDbSavedByObjectVersion
1070
     0
  0
ACAD_PROXY_OBJECT
  5
3F
102
{ACAD_REACTORS
330
2A
102
}
330
2A
100
AcDbProxyObject
 90
      499
 91
      501
 93
      476
310
41D4DAD95D18DA1E51840502408333333333333E33F0000000000000F901079024090741D01000000000000111010B41D405064090741802480A0340
1001
ACAD
1000
AcDbSavedByObjectVersion
1070
     0
  0
ACAD_PROXY_OBJECT
  5
37
102
{ACAD_REACTORS
330
2A
102
}
330
2A
100
AcDbProxyObject
 90
      499
 91
      501
 93
      412
310
41D51A1A58DAD95B90D409028333333333333E33F0000000000000F9010790141107004050150C41D405064090741402480A0350
1001
ACAD
1000
AcDbSavedByObjectVersion
1070
     0
  0
ACAD_PROXY_OBJECT
  5
30
102
{ACAD_REACTORS
330
2A
102
}
330
2A
100
AcDbProxyObject
 90
      499
 91
      501
 93
      420
310
4255DA5C99599C985B595059028333333333333E33F0000000000000F90107901411070040501600405405064090740C02480A0340
1001
ACAD
1000
AcDbSavedByObjectVersion
1070
     0
  0
ACAD_PROXY_OBJECT
  5
40
102
{ACAD_REACTORS
330
2A
102
}
330
2A
100
AcDbProxyObject
 90
      499
 91
      501
 93
      404
310
41560B54985E51940902404000000000000E03F0000000000000F9010740501907004050150841D405064090740C02480A1B40
1001
ACAD
1000
AcDbSavedByObjectVersion
1070
     0
  0
XRECORD
  5
15C
102
{ACAD_REACTORS
330
153
102
}
330
153
100
AcDbXrecord
 90
        0
  0
XRECORD
  5
172
102
{ACAD_REACTORS
330
153
102
}
330
153
100
AcDbXrecord
1000
DSTYLE
1002
{
1070
   171
 70
     2
1070
   143
 40
25.4
1070
   274
 70
     2
1070
    41
 40
0.18
1070
   141
 40
0.09
1070
   271
 70
     4
1070
    43
 40
0.38
1070
   278
 70
    46
1070
    44
 40
0.18
1070
    42
 40
0.0625
1070
   147
 40
0.09
1070
    77
 70
     0
1070
   272
 70
     4
1070
    73
 70
     1
1070
   172
 70
     0
1070
    74
 70
     1
1070
   283
 70
     1
1070
   340
340
11
1070
   140
 40
0.18
1070
   284
 70
     0
1070
    78
 70
     0
1002
}
  0
XRECORD
  5
15D
102
{ACAD_REACTORS
330
153
102
}
330
153
100
AcDbXrecord
  1
{1417B512-DB5A-42A1-8ABE-3D1B31501636}
  0
XRECORD
  5
156
102
{ACAD_REACTORS
330
153
102
}
330
153
100
AcDbXrecord
  1

  0
XRECORD
  5
15B
102
{ACAD_REACTORS
330
153
102
}
330
153
100
AcDbXrecord
 90
        4
  0
XRECORD
  5
158
102
{ACAD_REACTORS
330
153
102
}
330
153
100
AcDbXrecord
340
1A
  0
XRECORD
  5
15A
102
{ACAD_REACTORS
330
153
102
}
330
153
100
AcDbXrecord
 90
    10781
  0
XRECORD
  5
159
102
{ACAD_REACTORS
330
153
102
}
330
153
100
AcDbXrecord
340
19
  0
XRECORD
  5
15F
102
{ACAD_REACTORS
330
153
102
}
330
153
100
AcDbXrecord
 40
0.0
  0
XRECORD
  5
162
102
{ACAD_REACTORS
330
153
102
}
330
153
100
AcDbXrecord
340
0
  0
XRECORD
  5
168
102
{ACAD_REACTORS
330
153
102
}
330
153
100
AcDbXrecord
 10
0.0
 20
0.0
 30
0.0
  0
XRECORD
  5
164
102
{ACAD_REACTORS
330
153
102
}
330
153
100
AcDbXrecord
 10
0.0
 20
0.0
 30
0.0
  0
XRECORD
  5
167
102
{ACAD_REACTORS
330
153
102
}
330
153
100
AcDbXrecord
 10
0.0
 20
0.0
 30
0.0
  0
XRECORD
  5
165
102
{ACAD_REACTORS
330
153
102
}
330
153
100
AcDbXrecord
 10
0.0
 20
0.0
 30
0.0
  0
XRECORD
  5
166
102
{ACAD_REACTORS
330
153
102
}
330
153
100
AcDbXrecord
 10
0.0
 20
0.0
 30
0.0
  0
XRECORD
  5
163
102
{ACAD_REACTORS
330
153
102
}
330
153
100
AcDbXrecord
 10
0.0
 20
0.0
 30
0.0
  0
XRECORD
  5
160
102
{ACAD_REACTORS
330
153
102
}
330
153
100
AcDbXrecord
340
0
  0
XRECORD
  5
161
102
{ACAD_REACTORS
330
153
102
}
330
153
100
AcDbXrecord
 70
     0
  0
XRECORD
  5
157
102
{ACAD_REACTORS
330
153
102
}
330
153
100
AcDbXrecord
  1

  0
XRECORD
  5
154
102
{ACAD_REACTORS
330
153
102
}
330
153
100
AcDbXrecord
 90
        1
  0
XRECORD
  5
155
102
{ACAD_REACTORS
330
153
102
}
330
153
100
AcDbXrecord
 90
       70
  0
XRECORD
  5
16B
102
{ACAD_REACTORS
330
153
102
}
330
153
100
AcDbXrecord
340
0
  0
XRECORD
  5
171
102
{ACAD_REACTORS
330
153
102
}
330
153
100
AcDbXrecord
 10
0.0
 20
0.0
 30
0.0
  0
XRECORD
  5
16D
102
{ACAD_REACTORS
330
153
102
}
330
153
100
AcDbXrecord
 10
0.0
 20
0.0
 30
0.0
  0
XRECORD
  5
170
102
{ACAD_REACTORS
330
153
102
}
330
153
100
AcDbXrecord
 10
0.0
 20
0.0
 30
0.0
  0
XRECORD
  5
16E
102
{ACAD_REACTORS
330
153
102
}
330
153
100
AcDbXrecord
 10
0.0
 20
0.0
 30
0.0
  0
XRECORD
  5
16F
102
{ACAD_REACTORS
330
153
102
}
330
153
100
AcDbXrecord
 10
0.0
 20
0.0
 30
0.0
  0
XRECORD
  5
16C
102
{ACAD_REACTORS
330
153
102
}
330
153
100
AcDbXrecord
 10
0.0
 20
0.0
 30
0.0
  0
XRECORD
  5
169
102
{ACAD_REACTORS
330
153
102
}
330
153
100
AcDbXrecord
340
0
  0
XRECORD
  5
16A
102
{ACAD_REACTORS
330
153
102
}
330
153
100
AcDbXrecord
 70
     0
  0
XRECORD
  5
15E
102
{ACAD_REACTORS
330
153
102
}
330
153
100
AcDbXrecord
  1
{FAEB1C32-E019-11D5-929B-00C0DF256EC4}
  0
DICTIONARYVAR
  5
17C
102
{ACAD_REACTORS
330
173
102
}
330
173
100
DictionaryVariables
280
     0
  1
1:1
  0
DICTIONARYVAR
  5
178
102
{ACAD_REACTORS
330
173
102
}
330
173
100
DictionaryVariables
280
     0
  1
2
  0
DICTIONARYVAR
  5
179
102
{ACAD_REACTORS
330
173
102
}
330
173
100
DictionaryVariables
280
     0
  1
1
  0
DICTIONARYVAR
  5
17D
102
{ACAD_REACTORS
330
173
102
}
330
173
100
DictionaryVariables
280
     0
  1
1
  0
DICTIONARY
  5
180
330
45
100
AcDbDictionary
280
     1
  3
ACAD_XREC_ROUNDTRIP
360
181
  0
DICTIONARY
  5
17E
330
44
100
AcDbDictionary
280
     1
  3
ACAD_XREC_ROUNDTRIP
360
17F
  0
DICTIONARY
  5
182
330
46
100
AcDbDictionary
280
     1
  3
ACAD_XREC_ROUNDTRIP
360
183
  0
XRECORD
  5
181
102
{ACAD_REACTORS
330
180
102
}
330
180
100
AcDbXrecord
102
MATERIAL
148
0.0
149
0.0
149
0.0
 93
        0
 94
      127
282
     0
 72
     1
 77
     1
171
     1
175
     1
179
     1
273
     0
  0
XRECORD
  5
17F
102
{ACAD_REACTORS
330
17E
102
}
330
17E
100
AcDbXrecord
102
MATERIAL
148
0.0
149
0.0
149
0.0
 93
        0
 94
      127
282
     0
 72
     1
 77
     1
171
     1
175
     1
179
     1
273
     0
  0
XRECORD
  5
183
102
{ACAD_REACTORS
330
182
102
}
330
182
100
AcDbXrecord
102
MATERIAL
148
0.0
149
0.0
149
0.0
 93
        0
 94
      127
282
     0
 72
     1
 77
     1
171
     1
175
     1
179
     1
273
     0
  0
ENDSEC
  0
EOF
