  0
SECTION
  2
HEADER
  9
$ACADVER
  1
AC1014
  9
$ACADMAINTVER
 70
     9
  9
$DWGCODEPAGE
  3
ANSI_1252
  9
$INSBASE
 10
0.0
 20
0.0
 30
0.0
  9
$EXTMIN
 10
1.000000000000000E+20
 20
1.000000000000000E+20
 30
1.000000000000000E+20
  9
$EXTMAX
 10
-1.000000000000000E+20
 20
-1.000000000000000E+20
 30
-1.000000000000000E+20
  9
$LIMMIN
 10
0.0
 20
0.0
  9
$LIMMAX
 10
12.0
 20
9.0
  9
$ORTHOMODE
 70
     0
  9
$REGENMODE
 70
     1
  9
$FILLMODE
 70
     1
  9
$QTEXTMODE
 70
     0
  9
$MIRRTEXT
 70
     1
  9
$DRAGMODE
 70
     2
  9
$LTSCALE
 40
1.0
  9
$OSMODE
 70
    37
  9
$ATTMODE
 70
     1
  9
$TEXTSIZE
 40
0.2
  9
$TRACEWID
 40
0.05
  9
$TEXTSTYLE
  7
STANDARD
  9
$CLAYER
  8
0
  9
$CELTYPE
  6
BYLAYER
  9
$CECOLOR
 62
   256
  9
$CELTSCALE
 40
1.0
  9
$DELOBJ
 70
     1
  9
$DISPSILH
 70
     0
  9
$DIMSCALE
 40
1.0
  9
$DIMASZ
 40
0.18
  9
$DIMEXO
 40
0.0625
  9
$DIMDLI
 40
0.38
  9
$DIMRND
 40
0.0
  9
$DIMDLE
 40
0.0
  9
$DIMEXE
 40
0.18
  9
$DIMTP
 40
0.0
  9
$DIMTM
 40
0.0
  9
$DIMTXT
 40
0.18
  9
$DIMCEN
 40
0.09
  9
$DIMTSZ
 40
0.0
  9
$DIMTOL
 70
     0
  9
$DIMLIM
 70
     0
  9
$DIMTIH
 70
     1
  9
$DIMTOH
 70
     1
  9
$DIMSE1
 70
     0
  9
$DIMSE2
 70
     0
  9
$DIMTAD
 70
     0
  9
$DIMZIN
 70
     0
  9
$DIMBLK
  1

  9
$DIMASO
 70
     1
  9
$DIMSHO
 70
     1
  9
$DIMPOST
  1

  9
$DIMAPOST
  1

  9
$DIMALT
 70
     0
  9
$DIMALTD
 70
     2
  9
$DIMALTF
 40
25.4
  9
$DIMLFAC
 40
1.0
  9
$DIMTOFL
 70
     0
  9
$DIMTVP
 40
0.0
  9
$DIMTIX
 70
     0
  9
$DIMSOXD
 70
     0
  9
$DIMSAH
 70
     0
  9
$DIMBLK1
  1

  9
$DIMBLK2
  1

  9
$DIMSTYLE
  2
STANDARD
  9
$DIMCLRD
 70
     0
  9
$DIMCLRE
 70
     0
  9
$DIMCLRT
 70
     0
  9
$DIMTFAC
 40
1.0
  9
$DIMGAP
 40
0.09
  9
$DIMJUST
 70
     0
  9
$DIMSD1
 70
     0
  9
$DIMSD2
 70
     0
  9
$DIMTOLJ
 70
     1
  9
$DIMTZIN
 70
     0
  9
$DIMALTZ
 70
     0
  9
$DIMALTTZ
 70
     0
  9
$DIMFIT
 70
     3
  9
$DIMUPT
 70
     0
  9
$DIMUNIT
 70
     2
  9
$DIMDEC
 70
     4
  9
$DIMTDEC
 70
     4
  9
$DIMALTU
 70
     2
  9
$DIMALTTD
 70
     2
  9
$DIMTXSTY
  7
STANDARD
  9
$DIMAUNIT
 70
     0
  9
$LUNITS
 70
     2
  9
$LUPREC
 70
     4
  9
$SKETCHINC
 40
0.1
  9
$FILLETRAD
 40
0.5
  9
$AUNITS
 70
     0
  9
$AUPREC
 70
     0
  9
$MENU
  1
.
  9
$ELEVATION
 40
0.0
  9
$PELEVATION
 40
0.0
  9
$THICKNESS
 40
0.0
  9
$LIMCHECK
 70
     0
  9
$CHAMFERA
 40
0.5
  9
$CHAMFERB
 40
0.5
  9
$CHAMFERC
 40
1.0
  9
$CHAMFERD
 40
0.0
  9
$SKPOLY
 70
     0
  9
$TDCREATE
 40
2457237.522968588
  9
$TDUPDATE
 40
2457237.5229686
  9
$TDINDWG
 40
0.0000000116
  9
$TDUSRTIMER
 40
0.0000000116
  9
$USRTIMER
 70
     1
  9
$ANGBASE
 50
0.0
  9
$ANGDIR
 70
     0
  9
$PDMODE
 70
     0
  9
$PDSIZE
 40
0.0
  9
$PLINEWID
 40
0.0
  9
$COORDS
 70
     1
  9
$SPLFRAME
 70
     0
  9
$SPLINETYPE
 70
     6
  9
$SPLINESEGS
 70
     8
  9
$ATTDIA
 70
     0
  9
$ATTREQ
 70
     1
  9
$HANDLING
 70
     1
  9
$HANDSEED
  5
1DC
  9
$SURFTAB1
 70
     6
  9
$SURFTAB2
 70
     6
  9
$SURFTYPE
 70
     6
  9
$SURFU
 70
     6
  9
$SURFV
 70
     6
  9
$UCSNAME
  2

  9
$UCSORG
 10
0.0
 20
0.0
 30
0.0
  9
$UCSXDIR
 10
1.0
 20
0.0
 30
0.0
  9
$UCSYDIR
 10
0.0
 20
1.0
 30
0.0
  9
$PUCSNAME
  2

  9
$PUCSORG
 10
0.0
 20
0.0
 30
0.0
  9
$PUCSXDIR
 10
1.0
 20
0.0
 30
0.0
  9
$PUCSYDIR
 10
0.0
 20
1.0
 30
0.0
  9
$USERI1
 70
     0
  9
$USERI2
 70
     0
  9
$USERI3
 70
     0
  9
$USERI4
 70
     0
  9
$USERI5
 70
     0
  9
$USERR1
 40
0.0
  9
$USERR2
 40
0.0
  9
$USERR3
 40
0.0
  9
$USERR4
 40
0.0
  9
$USERR5
 40
0.0
  9
$WORLDVIEW
 70
     1
  9
$SHADEDGE
 70
     3
  9
$SHADEDIF
 70
    70
  9
$TILEMODE
 70
     1
  9
$MAXACTVP
 70
    64
  9
$PINSBASE
 10
0.0
 20
0.0
 30
0.0
  9
$PLIMCHECK
 70
     0
  9
$PEXTMIN
 10
1.000000000000000E+20
 20
1.000000000000000E+20
 30
1.000000000000000E+20
  9
$PEXTMAX
 10
-1.000000000000000E+20
 20
-1.000000000000000E+20
 30
-1.000000000000000E+20
  9
$PLIMMIN
 10
0.0
 20
0.0
  9
$PLIMMAX
 10
12.0
 20
9.0
  9
$UNITMODE
 70
     0
  9
$VISRETAIN
 70
     1
  9
$PLINEGEN
 70
     0
  9
$PSLTSCALE
 70
     1
  9
$TREEDEPTH
 70
  3020
  9
$PICKSTYLE
 70
     1
  9
$CMLSTYLE
  2
STANDARD
  9
$CMLJUST
 70
     0
  9
$CMLSCALE
 40
1.0
  9
$PROXYGRAPHICS
 70
     1
  9
$MEASUREMENT
 70
     0
  0
ENDSEC
  0
SECTION
  2
CLASSES
  0
CLASS
  1
ACDBDICTIONARYWDFLT
  2
AcDbDictionaryWithDefault
  3
ObjectDBX Classes
 90
        0
280
     0
281
     0
  0
CLASS
  1
VISUALSTYLE
  2
AcDbVisualStyle
  3
ObjectDBX Classes
 90
     4095
280
     0
281
     0
  0
CLASS
  1
MATERIAL
  2
AcDbMaterial
  3
ObjectDBX Classes
 90
     1153
280
     0
281
     0
  0
CLASS
  1
DICTIONARYVAR
  2
AcDbDictionaryVar
  3
ObjectDBX Classes
 90
        0
280
     0
281
     0
  0
CLASS
  1
XRECORD
  2
AcDbXrecord
  3
AutoCAD 2000
 90
        0
280
     0
281
     0
  0
CLASS
  1
LWPOLYLINE
  2
AcDbPolyline
  3
AutoCAD 2000
 90
        0
280
     0
281
     1
  0
CLASS
  1
HATCH
  2
AcDbHatch
  3
AutoCAD 2000
 90
        0
280
     0
281
     1
  0
CLASS
  1
ACDBPLACEHOLDER
  2
AcDbPlaceHolder
  3
ObjectDBX Classes
 90
        0
280
     0
281
     0
  0
CLASS
  1
LAYOUT
  2
AcDbLayout
  3
ObjectDBX Classes
 90
        0
280
     0
281
     0
  0
ENDSEC
  0
SECTION
  2
TABLES
  0
TABLE
  2
VPORT
  5
8
330
0
100
AcDbSymbolTable
 70
     1
  0
VPORT
  5
29
330
8
100
AcDbSymbolTableRecord
100
AcDbViewportTableRecord
  2
*ACTIVE
 70
     0
 10
0.0
 20
0.0
 11
1.0
 21
1.0
 12
0.0
 22
0.0
 13
0.0
 23
0.0
 14
0.5
 24
0.5
 15
0.5
 25
0.5
 16
0.0
 26
0.0
 36
1.0
 17
0.0
 27
0.0
 37
-1000.0
 40
489.1710590237326
 41
1.914432989690722
 42
50.0
 43
2377.681945558441
 44
3266.711739703757
 50
0.0
 51
0.0
 71
     0
 72
   100
 73
     1
 74
     3
 75
     0
 76
     0
 77
     0
 78
     0
  0
ENDTAB
  0
TABLE
  2
LTYPE
  5
5
330
0
100
AcDbSymbolTable
 70
     1
  0
LTYPE
  5
14
330
5
100
AcDbSymbolTableRecord
100
AcDbLinetypeTableRecord
  2
BYBLOCK
 70
     0
  3

 72
    65
 73
     0
 40
0.0
  0
LTYPE
  5
15
330
5
100
AcDbSymbolTableRecord
100
AcDbLinetypeTableRecord
  2
BYLAYER
 70
     0
  3

 72
    65
 73
     0
 40
0.0
  0
LTYPE
  5
16
330
5
100
AcDbSymbolTableRecord
100
AcDbLinetypeTableRecord
  2
CONTINUOUS
 70
     0
  3
Solid line
 72
    65
 73
     0
 40
0.0
  0
ENDTAB
  0
TABLE
  2
LAYER
  5
2
330
0
100
AcDbSymbolTable
 70
     3
  0
LAYER
  5
10
330
2
100
AcDbSymbolTableRecord
100
AcDbLayerTableRecord
  2
0
 70
     0
 62
     7
  6
CONTINUOUS
  0
LAYER
  5
3F
330
2
100
AcDbSymbolTableRecord
100
AcDbLayerTableRecord
  2
PROFILEEDGES
 70
     0
 62
     7
  6
CONTINUOUS
  0
LAYER
  5
40
330
2
100
AcDbSymbolTableRecord
100
AcDbLayerTableRecord
  2
SECTIONCUTEDGES
 70
     0
 62
     7
  6
CONTINUOUS
  0
ENDTAB
  0
TABLE
  2
STYLE
  5
3
330
0
100
AcDbSymbolTable
 70
     1
  0
STYLE
  5
11
330
3
100
AcDbSymbolTableRecord
100
AcDbTextStyleTableRecord
  2
STANDARD
 70
     0
 40
0.0
 41
1.0
 50
0.0
 71
     0
 42
0.2
  3
txt
  4

  0
ENDTAB
  0
TABLE
  2
VIEW
  5
6
330
0
100
AcDbSymbolTable
 70
     0
  0
ENDTAB
  0
TABLE
  2
UCS
  5
7
330
0
100
AcDbSymbolTable
 70
     0
  0
ENDTAB
  0
TABLE
  2
APPID
  5
9
330
0
100
AcDbSymbolTable
 70
     1
  0
APPID
  5
12
330
9
100
AcDbSymbolTableRecord
100
AcDbRegAppTableRecord
  2
ACAD
 70
     0
  0
ENDTAB
  0
TABLE
  2
DIMSTYLE
  5
A
330
0
100
AcDbSymbolTable
 70
     1
  0
DIMSTYLE
105
27
330
A
100
AcDbSymbolTableRecord
100
AcDbDimStyleTableRecord
  2
STANDARD
 70
     0
  3

  4

  5

  6

  7

 40
1.0
 41
0.18
 42
0.0625
 43
0.38
 44
0.18
 45
0.0
 46
0.0
 47
0.0
 48
0.0
140
0.18
141
0.09
142
0.0
143
25.4
144
1.0
145
0.0
146
1.0
147
0.09
 71
     0
 72
     0
 73
     1
 74
     1
 75
     0
 76
     0
 77
     0
 78
     0
170
     0
171
     2
172
     0
173
     0
174
     0
175
     0
176
     0
177
     0
178
     0
270
     2
271
     4
272
     4
273
     2
274
     2
340
11
275
     0
280
     0
281
     0
282
     0
283
     1
284
     0
285
     0
286
     0
287
     3
288
     0
  0
ENDTAB
  0
TABLE
  2
BLOCK_RECORD
  5
1
330
0
100
AcDbSymbolTable
 70
     1
  0
BLOCK_RECORD
  5
1F
330
1
100
AcDbSymbolTableRecord
100
AcDbBlockTableRecord
  2
*MODEL_SPACE
  0
BLOCK_RECORD
  5
1B
330
1
100
AcDbSymbolTableRecord
100
AcDbBlockTableRecord
  2
*PAPER_SPACE
  0
ENDTAB
  0
ENDSEC
  0
SECTION
  2
BLOCKS
  0
BLOCK
  5
20
330
1F
100
AcDbEntity
  8
0
100
AcDbBlockBegin
  2
*MODEL_SPACE
 70
     0
 10
0.0
 20
0.0
 30
0.0
  3
*MODEL_SPACE
  1

  0
ENDBLK
  5
21
330
1F
100
AcDbEntity
  8
0
100
AcDbBlockEnd
  0
BLOCK
  5
1C
330
1B
100
AcDbEntity
 67
     1
  8
0
100
AcDbBlockBegin
  2
*PAPER_SPACE
 70
     0
 10
0.0
 20
0.0
 30
0.0
  3
*PAPER_SPACE
  1

  0
ENDBLK
  5
1D
330
1B
100
AcDbEntity
 67
     1
  8
0
100
AcDbBlockEnd
  0
ENDSEC
  0
SECTION
  2
ENTITIES
  0
LINE
  5
41
330
1F
100
AcDbEntity
  8
0
100
AcDbLine
 10
-255.435654278454
 20
-90.82640912416986
 30
0.0
 11
-254.8518689073434
 21
-90.76163529226008
 31
0.0
  0
LINE
  5
42
330
1F
100
AcDbEntity
  8
0
100
AcDbLine
 10
-256.0163123467424
 20
-90.73788106898411
 30
0.0
 11
-255.435654278454
 21
-90.82640912416986
 31
0.0
  0
LINE
  5
43
330
1F
100
AcDbEntity
  8
0
100
AcDbLine
 10
-256.5542722244369
 20
-90.50208416736318
 30
0.0
 11
-256.0163123467424
 21
-90.73788106898411
 31
0.0
  0
LINE
  5
44
330
1F
100
AcDbEntity
  8
0
100
AcDbLine
 10
-257.0128728348939
 20
-90.13508758848056
 30
0.0
 11
-256.5542722244369
 21
-90.50208416736318
 31
0.0
  0
LINE
  5
45
330
1F
100
AcDbEntity
  8
0
100
AcDbLine
 10
44.62777950686134
 20
-90.82680874101801
 30
0.0
 11
45.20950685260297
 21
-90.74560342075125
 31
0.0
  0
LINE
  5
46
330
1F
100
AcDbEntity
  8
0
100
AcDbLine
 10
43.50046323668046
 20
-90.53414713836335
 30
0.0
 11
44.04485655630231
 21
-90.75468494096062
 31
0.0
  0
LINE
  5
47
330
1F
100
AcDbEntity
  8
0
100
AcDbLine
 10
43.03169905307593
 20
-90.18022462001679
 30
0.0
 11
43.50046323668046
 21
-90.53414713836335
 31
0.0
  0
LINE
  5
48
330
1F
100
AcDbEntity
  8
0
100
AcDbLine
 10
42.67050950993193
 20
-89.7170366206617
 30
0.0
 11
43.03169905307593
 21
-90.18022462001679
 31
0.0
  0
LINE
  5
49
330
1F
100
AcDbEntity
  8
0
100
AcDbLine
 10
42.4415090777191
 20
-89.17614863700014
 30
0.0
 11
42.67050950993193
 21
-89.7170366206617
 31
0.0
  0
LINE
  5
4A
330
1F
100
AcDbEntity
  8
0
100
AcDbLine
 10
42.3603037574527
 20
-88.59442129125851
 30
0.0
 11
42.4415090777191
 21
-89.17614863700014
 31
0.0
  0
LINE
  5
4B
330
1F
100
AcDbEntity
  8
0
100
AcDbLine
 10
42.4324275575101
 20
-88.01149834069912
 30
0.0
 11
42.3603037574527
 21
-88.59442129125851
 31
0.0
  0
LINE
  5
4C
330
1F
100
AcDbEntity
  8
0
100
AcDbLine
 10
42.65296536010737
 20
-87.46710502107763
 30
0.0
 11
42.4324275575101
 21
-88.01149834069912
 31
0.0
  0
LINE
  5
4D
330
1F
100
AcDbEntity
  8
0
100
AcDbLine
 10
43.47007587780865
 20
-86.63715129432873
 30
0.0
 11
43.00688787845392
 21
-86.9983408374731
 31
0.0
  0
LINE
  5
4E
330
1F
100
AcDbEntity
  8
0
100
AcDbLine
 10
-5.907308792787495
 20
-127.3269455418496
 30
0.0
 11
-6.48903613852876
 21
-127.4081508621163
 31
0.0
  0
LINE
  5
4F
330
1F
100
AcDbEntity
  8
0
100
AcDbLine
 10
-4.779992522606613
 20
-127.6196071445042
 30
0.0
 11
-5.324385842228102
 21
-127.399069341907
 31
0.0
  0
LINE
  5
50
330
1F
100
AcDbEntity
  8
0
100
AcDbLine
 10
-4.311228339002082
 20
-127.9735296628508
 30
0.0
 11
-4.779992522606613
 21
-127.6196071445042
 31
0.0
  0
LINE
  5
51
330
1F
100
AcDbEntity
  8
0
100
AcDbLine
 10
-3.950038795857725
 20
-128.4367176622059
 30
0.0
 11
-4.311228339002082
 21
-127.9735296628508
 31
0.0
  0
LINE
  5
52
330
1F
100
AcDbEntity
  8
0
100
AcDbLine
 10
-3.721038363645252
 20
-128.9776056458674
 30
0.0
 11
-3.950038795857725
 21
-128.4367176622059
 31
0.0
  0
LINE
  5
53
330
1F
100
AcDbEntity
  8
0
100
AcDbLine
 10
-3.639833043378848
 20
-129.5593329916091
 30
0.0
 11
-3.721038363645252
 21
-128.9776056458674
 31
0.0
  0
LINE
  5
54
330
1F
100
AcDbEntity
  8
0
100
AcDbLine
 10
-3.711956843435888
 20
-130.1422559421685
 30
0.0
 11
-3.639833043378848
 21
-129.5593329916091
 31
0.0
  0
LINE
  5
55
330
1F
100
AcDbEntity
  8
0
100
AcDbLine
 10
-3.932494646033157
 20
-130.68664926179
 30
0.0
 11
-3.711956843435888
 21
-130.1422559421685
 31
0.0
  0
LINE
  5
56
330
1F
100
AcDbEntity
  8
0
100
AcDbLine
 10
-203.8047402417009
 20
118.4520261971447
 30
0.0
 11
-203.3315541959162
 21
118.8000146666347
 31
0.0
  0
LINE
  5
57
330
1F
100
AcDbEntity
  8
0
100
AcDbLine
 10
-204.3518689073437
 20
118.2383647077393
 30
0.0
 11
-203.8047402417009
 21
118.4520261971447
 31
0.0
  0
LINE
  5
58
330
1F
100
AcDbEntity
  8
0
100
AcDbLine
 10
-204.9356542784543
 20
118.1735908758292
 30
0.0
 11
-204.3518689073437
 21
118.2383647077393
 31
0.0
  0
LINE
  5
59
330
1F
100
AcDbEntity
  8
0
100
AcDbLine
 10
-107.6392966256993
 20
120.4690124940577
 30
0.0
 11
-107.5745227937892
 21
119.8852271229467
 31
0.0
  0
LINE
  5
5A
330
1F
100
AcDbEntity
  8
0
100
AcDbLine
 10
-107.5507685705132
 20
121.0496705623457
 30
0.0
 11
-107.6392966256993
 21
120.4690124940577
 31
0.0
  0
LINE
  5
5B
330
1F
100
AcDbEntity
  8
0
100
AcDbLine
 10
-206.0542722244372
 20
118.4979158326359
 30
0.0
 11
-205.5163123467423
 21
118.2621189310153
 31
0.0
  0
LINE
  5
5C
330
1F
100
AcDbEntity
  8
0
100
AcDbLine
 10
-206.8608613043839
 20
119.3380984573032
 30
0.0
 11
-206.5128728348942
 21
118.8649124115188
 31
0.0
  0
LINE
  5
5D
330
1F
100
AcDbEntity
  8
0
100
AcDbLine
 10
-207.0745227937896
 20
119.8852271229464
 30
0.0
 11
-206.8608613043839
 21
119.3380984573032
 31
0.0
  0
LINE
  5
5E
330
1F
100
AcDbEntity
  8
0
100
AcDbLine
 10
-207.1392966256994
 20
120.469012494057
 30
0.0
 11
-207.0745227937896
 21
119.8852271229464
 31
0.0
  0
LINE
  5
5F
330
1F
100
AcDbEntity
  8
0
100
AcDbLine
 10
-207.0507685705137
 20
121.0496705623453
 30
0.0
 11
-207.1392966256994
 21
120.469012494057
 31
0.0
  0
LINE
  5
60
330
1F
100
AcDbEntity
  8
0
100
AcDbLine
 10
-206.8149716688928
 20
121.5876304400398
 30
0.0
 11
-207.0507685705137
 21
121.0496705623453
 31
0.0
  0
LINE
  5
61
330
1F
100
AcDbEntity
  8
0
100
AcDbLine
 10
-206.4479750900101
 20
122.0462310504969
 30
0.0
 11
-206.8149716688928
 21
121.5876304400398
 31
0.0
  0
LINE
  5
62
330
1F
100
AcDbEntity
  8
0
100
AcDbLine
 10
-205.9747890442254
 20
122.3942195199869
 30
0.0
 11
-206.4479750900101
 21
122.0462310504969
 31
0.0
  0
LINE
  5
63
330
1F
100
AcDbEntity
  8
0
100
AcDbLine
 10
-205.4276603785826
 20
122.6078810093923
 30
0.0
 11
-205.9747890442254
 21
122.3942195199869
 31
0.0
  0
LINE
  5
64
330
1F
100
AcDbEntity
  8
0
100
AcDbLine
 10
-204.2632169391836
 20
122.5841267861163
 30
0.0
 11
-204.843875007472
 21
122.6726548413024
 31
0.0
  0
LINE
  5
65
330
1F
100
AcDbEntity
  8
0
100
AcDbLine
 10
-203.7252570614891
 20
122.3483298844954
 30
0.0
 11
-204.2632169391836
 21
122.5841267861163
 31
0.0
  0
LINE
  5
66
330
1F
100
AcDbEntity
  8
0
100
AcDbLine
 10
-203.266656451032
 20
121.9813333056128
 30
0.0
 11
-203.7252570614891
 21
122.3483298844954
 31
0.0
  0
LINE
  5
67
330
1F
100
AcDbEntity
  8
0
100
AcDbLine
 10
-202.918667981542
 20
121.508147259828
 30
0.0
 11
-203.266656451032
 21
121.9813333056128
 31
0.0
  0
LINE
  5
68
330
1F
100
AcDbEntity
  8
0
100
AcDbLine
 10
-202.7050064921366
 20
120.9610185941852
 30
0.0
 11
-202.918667981542
 21
121.508147259828
 31
0.0
  0
LINE
  5
69
330
1F
100
AcDbEntity
  8
0
100
AcDbLine
 10
-202.7287607154126
 20
119.7965751547863
 30
0.0
 11
-202.6402326602265
 21
120.3772332230746
 31
0.0
  0
LINE
  5
6A
330
1F
100
AcDbEntity
  8
0
100
AcDbLine
 10
-202.9645576170335
 20
119.2586152770918
 30
0.0
 11
-202.7287607154126
 21
119.7965751547863
 31
0.0
  0
LINE
  5
6B
330
1F
100
AcDbEntity
  8
0
100
AcDbLine
 10
43.0316990530763
 20
77.81977537998398
 30
0.0
 11
43.50046323668082
 21
77.46585286163743
 31
0.0
  0
LINE
  5
6C
330
1F
100
AcDbEntity
  8
0
100
AcDbLine
 10
42.67050950993229
 20
78.28296337933871
 30
0.0
 11
43.0316990530763
 21
77.81977537998398
 31
0.0
  0
LINE
  5
6D
330
1F
100
AcDbEntity
  8
0
100
AcDbLine
 10
-105.3438750074715
 20
122.6726548413028
 30
0.0
 11
-105.9276603785825
 21
122.6078810093927
 31
0.0
  0
LINE
  5
6E
330
1F
100
AcDbEntity
  8
0
100
AcDbLine
 10
-104.7632169391835
 20
122.5841267861167
 30
0.0
 11
-105.3438750074715
 21
122.6726548413028
 31
0.0
  0
LINE
  5
6F
330
1F
100
AcDbEntity
  8
0
100
AcDbLine
 10
-104.2252570614886
 20
122.3483298844961
 30
0.0
 11
-104.7632169391835
 21
122.5841267861167
 31
0.0
  0
LINE
  5
70
330
1F
100
AcDbEntity
  8
0
100
AcDbLine
 10
-103.7666564510319
 20
121.9813333056132
 30
0.0
 11
-104.2252570614886
 21
122.3483298844961
 31
0.0
  0
LINE
  5
71
330
1F
100
AcDbEntity
  8
0
100
AcDbLine
 10
-103.4186679815419
 20
121.5081472598288
 30
0.0
 11
-103.7666564510319
 21
121.9813333056132
 31
0.0
  0
LINE
  5
72
330
1F
100
AcDbEntity
  8
0
100
AcDbLine
 10
-103.2050064921362
 20
120.9610185941856
 30
0.0
 11
-103.4186679815419
 21
121.5081472598288
 31
0.0
  0
LINE
  5
73
330
1F
100
AcDbEntity
  8
0
100
AcDbLine
 10
-103.1402326602264
 20
120.377233223075
 30
0.0
 11
-103.2050064921362
 21
120.9610185941856
 31
0.0
  0
LINE
  5
74
330
1F
100
AcDbEntity
  8
0
100
AcDbLine
 10
-103.2287607154122
 20
119.796575154787
 30
0.0
 11
-103.1402326602264
 21
120.377233223075
 31
0.0
  0
LINE
  5
75
330
1F
100
AcDbEntity
  8
0
100
AcDbLine
 10
-103.8315541959161
 20
118.8000146666354
 30
0.0
 11
-103.4645576170331
 21
119.2586152770921
 31
0.0
  0
LINE
  5
76
330
1F
100
AcDbEntity
  8
0
100
AcDbLine
 10
-104.3047402417004
 20
118.4520261971454
 30
0.0
 11
-103.8315541959161
 21
118.8000146666354
 31
0.0
  0
LINE
  5
77
330
1F
100
AcDbEntity
  8
0
100
AcDbLine
 10
-104.8518689073436
 20
118.23836470774
 30
0.0
 11
-104.3047402417004
 21
118.4520261971454
 31
0.0
  0
LINE
  5
78
330
1F
100
AcDbEntity
  8
0
100
AcDbLine
 10
-105.4356542784539
 20
118.1735908758299
 30
0.0
 11
-104.8518689073436
 21
118.23836470774
 31
0.0
  0
LINE
  5
79
330
1F
100
AcDbEntity
  8
0
100
AcDbLine
 10
-106.0163123467422
 20
118.2621189310156
 30
0.0
 11
-105.4356542784539
 21
118.1735908758299
 31
0.0
  0
LINE
  5
7A
330
1F
100
AcDbEntity
  8
0
100
AcDbLine
 10
-107.0128728348941
 20
118.8649124115192
 30
0.0
 11
-106.5542722244367
 21
118.4979158326366
 31
0.0
  0
LINE
  5
7B
330
1F
100
AcDbEntity
  8
0
100
AcDbLine
 10
-107.3608613043838
 20
119.3380984573039
 30
0.0
 11
-107.0128728348941
 21
118.8649124115192
 31
0.0
  0
LINE
  5
7C
330
1F
100
AcDbEntity
  8
0
100
AcDbLine
 10
-107.5745227937892
 20
119.8852271229467
 30
0.0
 11
-107.3608613043838
 21
119.3380984573039
 31
0.0
  0
LINE
  5
7D
330
1F
100
AcDbEntity
  8
0
100
AcDbLine
 10
46.56750535396618
 20
-89.6866492617899
 30
0.0
 11
46.78804315656345
 21
-89.1422559421684
 31
0.0
  0
LINE
  5
7E
330
1F
100
AcDbEntity
  8
0
100
AcDbLine
 10
46.21358283561963
 20
-90.15541344539443
 30
0.0
 11
46.56750535396618
 21
-89.6866492617899
 31
0.0
  0
LINE
  5
7F
330
1F
100
AcDbEntity
  8
0
100
AcDbLine
 10
45.20950685260297
 20
-90.74560342075125
 30
0.0
 11
45.7503948362649
 21
-90.51660298853878
 31
0.0
  0
LINE
  5
80
330
1F
100
AcDbEntity
  8
0
100
AcDbLine
 10
-106.94797509001
 20
122.0462310504973
 30
0.0
 11
-107.3149716688926
 21
121.5876304400406
 31
0.0
  0
LINE
  5
81
330
1F
100
AcDbEntity
  8
0
100
AcDbLine
 10
-6.427660378582726
 20
122.607881009393
 30
0.0
 11
-6.974789044225528
 21
122.3942195199877
 31
0.0
  0
LINE
  5
82
330
1F
100
AcDbEntity
  8
0
100
AcDbLine
 10
-5.843875007471757
 20
122.6726548413032
 30
0.0
 11
-6.427660378582726
 21
122.607881009393
 31
0.0
  0
LINE
  5
83
330
1F
100
AcDbEntity
  8
0
100
AcDbLine
 10
-5.263216939183769
 20
122.5841267861171
 30
0.0
 11
-5.843875007471757
 21
122.6726548413032
 31
0.0
  0
LINE
  5
84
330
1F
100
AcDbEntity
  8
0
100
AcDbLine
 10
-4.725257061488895
 20
122.3483298844965
 30
0.0
 11
-5.263216939183769
 21
122.5841267861171
 31
0.0
  0
LINE
  5
85
330
1F
100
AcDbEntity
  8
0
100
AcDbLine
 10
-4.266656451032196
 20
121.9813333056135
 30
0.0
 11
-4.725257061488895
 21
122.3483298844965
 31
0.0
  0
LINE
  5
86
330
1F
100
AcDbEntity
  8
0
100
AcDbLine
 10
-3.918667981542154
 20
121.5081472598291
 30
0.0
 11
-4.266656451032196
 21
121.9813333056135
 31
0.0
  0
LINE
  5
87
330
1F
100
AcDbEntity
  8
0
100
AcDbLine
 10
-3.640232660226655
 20
120.3772332230754
 30
0.0
 11
-3.705006492136425
 21
120.961018594186
 31
0.0
  0
LINE
  5
88
330
1F
100
AcDbEntity
  8
0
100
AcDbLine
 10
-3.728760715412397
 20
119.7965751547874
 30
0.0
 11
-3.640232660226655
 21
120.3772332230754
 31
0.0
  0
LINE
  5
89
330
1F
100
AcDbEntity
  8
0
100
AcDbLine
 10
-3.964557617033324
 20
119.2586152770925
 30
0.0
 11
-3.728760715412397
 21
119.7965751547874
 31
0.0
  0
LINE
  5
8A
330
1F
100
AcDbEntity
  8
0
100
AcDbLine
 10
-4.331554195916305
 20
118.8000146666354
 30
0.0
 11
-3.964557617033324
 21
119.2586152770925
 31
0.0
  0
LINE
  5
8B
330
1F
100
AcDbEntity
  8
0
100
AcDbLine
 10
-5.35186890734349
 20
118.2383647077404
 30
0.0
 11
-4.804740241700688
 21
118.4520261971458
 31
0.0
  0
LINE
  5
8C
330
1F
100
AcDbEntity
  8
0
100
AcDbLine
 10
-6.516312346742446
 20
118.262118931016
 30
0.0
 11
-5.935654278454098
 21
118.1735908758303
 31
0.0
  0
LINE
  5
8D
330
1F
100
AcDbEntity
  8
0
100
AcDbLine
 10
-7.05427222443696
 20
118.4979158326369
 30
0.0
 11
-6.516312346742446
 21
118.262118931016
 31
0.0
  0
LINE
  5
8E
330
1F
100
AcDbEntity
  8
0
100
AcDbLine
 10
-7.512872834894019
 20
118.8649124115196
 30
0.0
 11
-7.05427222443696
 21
118.4979158326369
 31
0.0
  0
LINE
  5
8F
330
1F
100
AcDbEntity
  8
0
100
AcDbLine
 10
-7.860861304384062
 20
119.3380984573043
 30
0.0
 11
-7.512872834894019
 21
118.8649124115196
 31
0.0
  0
LINE
  5
90
330
1F
100
AcDbEntity
  8
0
100
AcDbLine
 10
-8.074522793789429
 20
119.8852271229471
 30
0.0
 11
-7.860861304384062
 21
119.3380984573043
 31
0.0
  0
LINE
  5
91
330
1F
100
AcDbEntity
  8
0
100
AcDbLine
 10
-8.13929662569956
 20
120.4690124940581
 30
0.0
 11
-8.074522793789429
 21
119.8852271229471
 31
0.0
  0
LINE
  5
92
330
1F
100
AcDbEntity
  8
0
100
AcDbLine
 10
-8.050768570513457
 20
121.0496705623461
 30
0.0
 11
-8.13929662569956
 21
120.4690124940581
 31
0.0
  0
LINE
  5
93
330
1F
100
AcDbEntity
  8
0
100
AcDbLine
 10
-7.814971668892891
 20
121.5876304400409
 30
0.0
 11
-8.050768570513457
 21
121.0496705623461
 31
0.0
  0
LINE
  5
94
330
1F
100
AcDbEntity
  8
0
100
AcDbLine
 10
-7.447975090010271
 20
122.0462310504976
 30
0.0
 11
-7.814971668892891
 21
121.5876304400409
 31
0.0
  0
LINE
  5
95
330
1F
100
AcDbEntity
  8
0
100
AcDbLine
 10
43.50046323668082
 20
77.46585286163743
 30
0.0
 11
44.04485655630268
 21
77.2453150590398
 31
0.0
  0
LINE
  5
96
330
1F
100
AcDbEntity
  8
0
100
AcDbLine
 10
-104.2799925226064
 20
-127.6196071445057
 30
0.0
 11
-104.8243858422282
 21
-127.399069341908
 31
0.0
  0
LINE
  5
97
330
1F
100
AcDbEntity
  8
0
100
AcDbLine
 10
-103.8112283390018
 20
-127.9735296628522
 30
0.0
 11
-104.2799925226064
 21
-127.6196071445057
 31
0.0
  0
LINE
  5
98
330
1F
100
AcDbEntity
  8
0
100
AcDbLine
 10
-103.4500387958578
 20
-128.4367176622069
 30
0.0
 11
-103.8112283390018
 21
-127.9735296628522
 31
0.0
  0
LINE
  5
99
330
1F
100
AcDbEntity
  8
0
100
AcDbLine
 10
-103.2210383636454
 20
-128.9776056458689
 30
0.0
 11
-103.4500387958578
 21
-128.4367176622069
 31
0.0
  0
LINE
  5
9A
330
1F
100
AcDbEntity
  8
0
100
AcDbLine
 10
42.36030375745306
 20
79.40557870874227
 30
0.0
 11
42.44150907771982
 21
78.82385136300064
 31
0.0
  0
LINE
  5
9B
330
1F
100
AcDbEntity
  8
0
100
AcDbLine
 10
42.4324275575101
 20
79.98850165930129
 30
0.0
 11
42.36030375745306
 21
79.40557870874227
 31
0.0
  0
LINE
  5
9C
330
1F
100
AcDbEntity
  8
0
100
AcDbLine
 10
42.65296536010773
 20
80.53289497892278
 30
0.0
 11
42.4324275575101
 21
79.98850165930129
 31
0.0
  0
LINE
  5
9D
330
1F
100
AcDbEntity
  8
0
100
AcDbLine
 10
43.00688787845429
 20
81.00165916252732
 30
0.0
 11
42.65296536010773
 21
80.53289497892278
 31
0.0
  0
LINE
  5
9E
330
1F
100
AcDbEntity
  8
0
100
AcDbLine
 10
43.47007587780937
 20
81.36284870567168
 30
0.0
 11
43.00688787845429
 21
81.00165916252732
 31
0.0
  0
LINE
  5
9F
330
1F
100
AcDbEntity
  8
0
100
AcDbLine
 10
44.01096386147094
 20
81.59184913788415
 30
0.0
 11
43.47007587780937
 21
81.36284870567168
 31
0.0
  0
LINE
  5
A0
330
1F
100
AcDbEntity
  8
0
100
AcDbLine
 10
44.59269120721257
 20
81.67305445815055
 30
0.0
 11
44.01096386147094
 21
81.59184913788415
 31
0.0
  0
LINE
  5
A1
330
1F
100
AcDbEntity
  8
0
100
AcDbLine
 10
45.17561415777161
 20
81.60093065809352
 30
0.0
 11
44.59269120721257
 21
81.67305445815055
 31
0.0
  0
LINE
  5
A2
330
1F
100
AcDbEntity
  8
0
100
AcDbLine
 10
45.72000747739309
 20
81.38039285549624
 30
0.0
 11
45.17561415777161
 21
81.60093065809352
 31
0.0
  0
LINE
  5
A3
330
1F
100
AcDbEntity
  8
0
100
AcDbLine
 10
46.18877166099762
 20
81.02647033714969
 30
0.0
 11
45.72000747739309
 21
81.38039285549624
 31
0.0
  0
LINE
  5
A4
330
1F
100
AcDbEntity
  8
0
100
AcDbLine
 10
46.54996120414198
 20
80.5632823377946
 30
0.0
 11
46.18877166099762
 21
81.02647033714969
 31
0.0
  0
LINE
  5
A5
330
1F
100
AcDbEntity
  8
0
100
AcDbLine
 10
46.77896163635445
 20
80.02239435413267
 30
0.0
 11
46.54996120414198
 21
80.5632823377946
 31
0.0
  0
LINE
  5
A6
330
1F
100
AcDbEntity
  8
0
100
AcDbLine
 10
46.86016695662121
 20
79.4406670083914
 30
0.0
 11
46.77896163635445
 21
80.02239435413267
 31
0.0
  0
LINE
  5
A7
330
1F
100
AcDbEntity
  8
0
100
AcDbLine
 10
46.56750535396655
 20
78.31335073821052
 30
0.0
 11
46.78804315656382
 21
78.85774405783236
 31
0.0
  0
LINE
  5
A8
330
1F
100
AcDbEntity
  8
0
100
AcDbLine
 10
46.21358283561999
 20
77.84458655460598
 30
0.0
 11
46.56750535396655
 21
78.31335073821052
 31
0.0
  0
LINE
  5
A9
330
1F
100
AcDbEntity
  8
0
100
AcDbLine
 10
45.7503948362649
 20
77.48339701146199
 30
0.0
 11
46.21358283561999
 21
77.84458655460598
 31
0.0
  0
LINE
  5
AA
330
1F
100
AcDbEntity
  8
0
100
AcDbLine
 10
45.20950685260333
 20
77.25439657924916
 30
0.0
 11
45.7503948362649
 21
77.48339701146199
 31
0.0
  0
LINE
  5
AB
330
1F
100
AcDbEntity
  8
0
100
AcDbLine
 10
44.62777950686171
 20
77.17319125898275
 30
0.0
 11
45.20950685260333
 21
77.25439657924916
 31
0.0
  0
LINE
  5
AC
330
1F
100
AcDbEntity
  8
0
100
AcDbLine
 10
44.04485655630268
 20
77.2453150590398
 30
0.0
 11
44.62777950686171
 21
77.17319125898275
 31
0.0
  0
LINE
  5
AD
330
1F
100
AcDbEntity
  8
0
100
AcDbLine
 10
44.01096386147059
 20
-86.40815086211626
 30
0.0
 11
43.47007587780865
 21
-86.63715129432873
 31
0.0
  0
LINE
  5
AE
330
1F
100
AcDbEntity
  8
0
100
AcDbLine
 10
44.59269120721221
 20
-86.32694554184987
 30
0.0
 11
44.01096386147059
 21
-86.40815086211626
 31
0.0
  0
LINE
  5
AF
330
1F
100
AcDbEntity
  8
0
100
AcDbLine
 10
45.17561415777124
 20
-86.3990693419069
 30
0.0
 11
44.59269120721221
 21
-86.32694554184987
 31
0.0
  0
LINE
  5
B0
330
1F
100
AcDbEntity
  8
0
100
AcDbLine
 10
46.18877166099762
 20
-86.97352966285109
 30
0.0
 11
45.72000747739309
 21
-86.61960714450453
 31
0.0
  0
LINE
  5
B1
330
1F
100
AcDbEntity
  8
0
100
AcDbLine
 10
46.54996120414162
 20
-87.43671766220581
 30
0.0
 11
46.18877166099762
 21
-86.97352966285109
 31
0.0
  0
LINE
  5
B2
330
1F
100
AcDbEntity
  8
0
100
AcDbLine
 10
46.77896163635445
 20
-87.97760564586774
 30
0.0
 11
46.54996120414162
 21
-87.43671766220581
 31
0.0
  0
LINE
  5
B3
330
1F
100
AcDbEntity
  8
0
100
AcDbLine
 10
46.78804315656345
 20
-89.1422559421684
 30
0.0
 11
46.86016695662086
 21
-88.55933299160937
 31
0.0
  0
LINE
  5
B4
330
1F
100
AcDbEntity
  8
0
100
AcDbLine
 10
-205.5163123467423
 20
118.2621189310153
 30
0.0
 11
-204.9356542784543
 21
118.1735908758292
 31
0.0
  0
LINE
  5
B5
330
1F
100
AcDbEntity
  8
0
100
AcDbLine
 10
-253.4186679815425
 20
80.50814725982907
 30
0.0
 11
-253.7666564510321
 21
80.98133330561346
 31
0.0
  0
LINE
  5
B6
330
1F
100
AcDbEntity
  8
0
100
AcDbLine
 10
-6.974789044225528
 20
122.3942195199877
 30
0.0
 11
-7.447975090010271
 21
122.0462310504976
 31
0.0
  0
LINE
  5
B7
330
1F
100
AcDbEntity
  8
0
100
AcDbLine
 10
-5.290493147396734
 20
-131.7456034207513
 30
0.0
 11
-4.749605163734802
 21
-131.5166029885388
 31
0.0
  0
LINE
  5
B8
330
1F
100
AcDbEntity
  8
0
100
AcDbLine
 10
-255.343875007472
 20
-2.327345158697281
 30
0.0
 11
-255.927660378583
 21
-2.392118990607051
 31
0.0
  0
LINE
  5
B9
330
1F
100
AcDbEntity
  8
0
100
AcDbLine
 10
-69.4897646429629
 20
-111.7139327108705
 30
0.0
 11
-69.43524596502529
 21
-111.2998222387064
 31
0.0
  0
LINE
  5
BA
330
1F
100
AcDbEntity
  8
0
100
AcDbLine
 10
-106.5542722244367
 20
118.4979158326366
 30
0.0
 11
-106.0163123467422
 21
118.2621189310156
 31
0.0
  0
LINE
  5
BB
330
1F
100
AcDbEntity
  8
0
100
AcDbLine
 10
-204.843875007472
 20
122.6726548413024
 30
0.0
 11
-205.4276603785826
 21
122.6078810093923
 31
0.0
  0
LINE
  5
BC
330
1F
100
AcDbEntity
  8
0
100
AcDbLine
 10
-207.0675724424895
 20
-129.0114983407017
 30
0.0
 11
-207.1396962425469
 21
-129.5944212912607
 31
0.0
  0
LINE
  5
BD
330
1F
100
AcDbEntity
  8
0
100
AcDbLine
 10
-66.51001805507711
 20
-81.5240557590656
 30
0.0
 11
-66.76670705373895
 21
-81.85355617995431
 31
0.0
  0
LINE
  5
BE
330
1F
100
AcDbEntity
  8
0
100
AcDbLine
 10
-69.43823631255043
 20
-81.11671737850956
 30
0.0
 11
-69.48972176295467
 21
-80.7022188648853
 31
0.0
  0
LINE
  5
BF
330
1F
100
AcDbEntity
  8
0
100
AcDbLine
 10
46.86016695662086
 20
-88.55933299160937
 30
0.0
 11
46.77896163635445
 21
-87.97760564586774
 31
0.0
  0
LINE
  5
C0
330
1F
100
AcDbEntity
  8
0
100
AcDbLine
 10
-253.7666564510321
 20
80.98133330561346
 30
0.0
 11
-254.2252570614892
 21
81.34832988449644
 31
0.0
  0
LINE
  5
C1
330
1F
100
AcDbEntity
  8
0
100
AcDbLine
 10
53.6102353570369
 20
-138.5768771414338
 30
0.0
 11
53.6102353570369
 21
129.3231228585663
 31
0.0
  0
LINE
  5
C2
330
1F
100
AcDbEntity
  8
0
100
AcDbLine
 10
53.6102353570369
 20
129.3231228585663
 30
0.0
 11
-264.3897646429633
 21
129.3231228585663
 31
0.0
  0
LINE
  5
C3
330
1F
100
AcDbEntity
  8
0
100
AcDbLine
 10
-264.3897646429633
 20
129.3231228585663
 30
0.0
 11
-264.3897646429633
 21
-138.5768771414341
 31
0.0
  0
LINE
  5
C4
330
1F
100
AcDbEntity
  8
0
100
AcDbLine
 10
-264.3897646429633
 20
-138.5768771414341
 30
0.0
 11
53.6102353570369
 21
-138.5768771414338
 31
0.0
  0
LINE
  5
C5
330
1F
100
AcDbEntity
  8
0
100
AcDbLine
 10
-203.3315541959162
 20
118.8000146666347
 30
0.0
 11
-202.9645576170335
 21
119.2586152770918
 31
0.0
  0
LINE
  5
C6
330
1F
100
AcDbEntity
  8
0
100
AcDbLine
 10
-206.5128728348942
 20
118.8649124115188
 30
0.0
 11
-206.0542722244372
 21
118.4979158326359
 31
0.0
  0
LINE
  5
C7
330
1F
100
AcDbEntity
  8
0
100
AcDbLine
 10
-202.6402326602265
 20
120.3772332230746
 30
0.0
 11
-202.7050064921366
 21
120.9610185941852
 31
0.0
  0
LINE
  5
C8
330
1F
100
AcDbEntity
  8
0
100
AcDbLine
 10
-106.4747890442253
 20
122.3942195199873
 30
0.0
 11
-106.94797509001
 21
122.0462310504973
 31
0.0
  0
LINE
  5
C9
330
1F
100
AcDbEntity
  8
0
100
AcDbLine
 10
-105.9276603785825
 20
122.6078810093927
 30
0.0
 11
-106.4747890442253
 21
122.3942195199873
 31
0.0
  0
LINE
  5
CA
330
1F
100
AcDbEntity
  8
0
100
AcDbLine
 10
-103.4645576170331
 20
119.2586152770921
 30
0.0
 11
-103.2287607154122
 21
119.796575154787
 31
0.0
  0
LINE
  5
CB
330
1F
100
AcDbEntity
  8
0
100
AcDbLine
 10
-107.3149716688926
 20
121.5876304400406
 30
0.0
 11
-107.5507685705132
 21
121.0496705623457
 31
0.0
  0
LINE
  5
CC
330
1F
100
AcDbEntity
  8
0
100
AcDbLine
 10
-3.705006492136425
 20
120.961018594186
 30
0.0
 11
-3.918667981542154
 21
121.5081472598291
 31
0.0
  0
LINE
  5
CD
330
1F
100
AcDbEntity
  8
0
100
AcDbLine
 10
-4.804740241700688
 20
118.4520261971458
 30
0.0
 11
-4.331554195916305
 21
118.8000146666354
 31
0.0
  0
LINE
  5
CE
330
1F
100
AcDbEntity
  8
0
100
AcDbLine
 10
-5.935654278454098
 20
118.1735908758303
 30
0.0
 11
-5.35186890734349
 21
118.2383647077404
 31
0.0
  0
LINE
  5
CF
330
1F
100
AcDbEntity
  8
0
100
AcDbLine
 10
42.44150907771982
 20
78.82385136300064
 30
0.0
 11
42.67050950993229
 21
78.28296337933871
 31
0.0
  0
LINE
  5
D0
330
1F
100
AcDbEntity
  8
0
100
AcDbLine
 10
46.78804315656382
 20
78.85774405783236
 30
0.0
 11
46.86016695662121
 21
79.4406670083914
 31
0.0
  0
LINE
  5
D1
330
1F
100
AcDbEntity
  8
0
100
AcDbLine
 10
45.72000747739309
 20
-86.61960714450453
 30
0.0
 11
45.17561415777124
 21
-86.3990693419069
 31
0.0
  0
LINE
  5
D2
330
1F
100
AcDbEntity
  8
0
100
AcDbLine
 10
45.7503948362649
 20
-90.51660298853878
 30
0.0
 11
46.21358283561963
 21
-90.15541344539443
 31
0.0
  0
LINE
  5
D3
330
1F
100
AcDbEntity
  8
0
100
AcDbLine
 10
44.04485655630231
 20
-90.75468494096062
 30
0.0
 11
44.62777950686134
 21
-90.82680874101801
 31
0.0
  0
LINE
  5
D4
330
1F
100
AcDbEntity
  8
0
100
AcDbLine
 10
43.00688787845392
 20
-86.9983408374731
 30
0.0
 11
42.65296536010737
 21
-87.46710502107763
 31
0.0
  0
LINE
  5
D5
330
1F
100
AcDbEntity
  8
0
100
AcDbLine
 10
-5.324385842228102
 20
-127.399069341907
 30
0.0
 11
-5.907308792787495
 21
-127.3269455418496
 31
0.0
  0
LINE
  5
D6
330
1F
100
AcDbEntity
  8
0
100
AcDbLine
 10
-4.286417164379716
 20
-131.1554134453945
 30
0.0
 11
-3.932494646033157
 21
-130.68664926179
 31
0.0
  0
LINE
  5
D7
330
1F
100
AcDbEntity
  8
0
100
AcDbLine
 10
-4.749605163734802
 20
-131.5166029885388
 30
0.0
 11
-4.286417164379716
 21
-131.1554134453945
 31
0.0
  0
LINE
  5
D8
330
1F
100
AcDbEntity
  8
0
100
AcDbLine
 10
-5.87222049313836
 20
-131.8268087410177
 30
0.0
 11
-5.290493147396734
 21
-131.7456034207513
 31
0.0
  0
LINE
  5
D9
330
1F
100
AcDbEntity
  8
0
100
AcDbLine
 10
-6.455143443697391
 20
-131.7546849409607
 30
0.0
 11
-5.87222049313836
 21
-131.8268087410177
 31
0.0
  0
LINE
  5
DA
330
1F
100
AcDbEntity
  8
0
100
AcDbLine
 10
-6.99953676331888
 20
-131.534147138363
 30
0.0
 11
-6.455143443697391
 21
-131.7546849409607
 31
0.0
  0
LINE
  5
DB
330
1F
100
AcDbEntity
  8
0
100
AcDbLine
 10
-7.468300946923412
 20
-131.1802246200168
 30
0.0
 11
-6.99953676331888
 21
-131.534147138363
 31
0.0
  0
LINE
  5
DC
330
1F
100
AcDbEntity
  8
0
100
AcDbLine
 10
-7.829490490067769
 20
-130.7170366206618
 30
0.0
 11
-7.468300946923412
 21
-131.1802246200168
 31
0.0
  0
LINE
  5
DD
330
1F
100
AcDbEntity
  8
0
100
AcDbLine
 10
-8.058490922280242
 20
-130.1761486369998
 30
0.0
 11
-7.829490490067769
 21
-130.7170366206618
 31
0.0
  0
LINE
  5
DE
330
1F
100
AcDbEntity
  8
0
100
AcDbLine
 10
-8.139696242547005
 20
-129.5944212912582
 30
0.0
 11
-8.058490922280242
 21
-130.1761486369998
 31
0.0
  0
LINE
  5
DF
330
1F
100
AcDbEntity
  8
0
100
AcDbLine
 10
-8.067572442489606
 20
-129.0114983406992
 30
0.0
 11
-8.139696242547005
 21
-129.5944212912582
 31
0.0
  0
LINE
  5
E0
330
1F
100
AcDbEntity
  8
0
100
AcDbLine
 10
-7.847034639892336
 20
-128.4671050210777
 30
0.0
 11
-8.067572442489606
 21
-129.0114983406992
 31
0.0
  0
LINE
  5
E1
330
1F
100
AcDbEntity
  8
0
100
AcDbLine
 10
-7.493112121545778
 20
-127.9983408374732
 30
0.0
 11
-7.847034639892336
 21
-128.4671050210777
 31
0.0
  0
LINE
  5
E2
330
1F
100
AcDbEntity
  8
0
100
AcDbLine
 10
-7.029924122190693
 20
-127.6371512943288
 30
0.0
 11
-7.493112121545778
 21
-127.9983408374732
 31
0.0
  0
LINE
  5
E3
330
1F
100
AcDbEntity
  8
0
100
AcDbLine
 10
-6.48903613852876
 20
-127.4081508621163
 30
0.0
 11
-7.029924122190693
 21
-127.6371512943288
 31
0.0
  0
LINE
  5
E4
330
1F
100
AcDbEntity
  8
0
100
AcDbLine
 10
-105.4073087927872
 20
-127.326945541851
 30
0.0
 11
-105.9890361385289
 21
-127.4081508621174
 31
0.0
  0
LINE
  5
E5
330
1F
100
AcDbEntity
  8
0
100
AcDbLine
 10
-104.8243858422282
 20
-127.399069341908
 30
0.0
 11
-105.4073087927872
 21
-127.326945541851
 31
0.0
  0
LINE
  5
E6
330
1F
100
AcDbEntity
  8
0
100
AcDbLine
 10
-103.1398330433786
 20
-129.5593329916105
 30
0.0
 11
-103.2210383636454
 21
-128.9776056458689
 31
0.0
  0
LINE
  5
E7
330
1F
100
AcDbEntity
  8
0
100
AcDbLine
 10
-103.2119568434356
 20
-130.1422559421696
 30
0.0
 11
-103.1398330433786
 21
-129.5593329916105
 31
0.0
  0
LINE
  5
E8
330
1F
100
AcDbEntity
  8
0
100
AcDbLine
 10
-103.4324946460333
 20
-130.686649261791
 30
0.0
 11
-103.2119568434356
 21
-130.1422559421696
 31
0.0
  0
LINE
  5
E9
330
1F
100
AcDbEntity
  8
0
100
AcDbLine
 10
-103.7864171643798
 20
-131.1554134453956
 30
0.0
 11
-103.4324946460333
 21
-130.686649261791
 31
0.0
  0
LINE
  5
EA
330
1F
100
AcDbEntity
  8
0
100
AcDbLine
 10
-104.2496051637349
 20
-131.5166029885399
 30
0.0
 11
-103.7864171643798
 21
-131.1554134453956
 31
0.0
  0
LINE
  5
EB
330
1F
100
AcDbEntity
  8
0
100
AcDbLine
 10
-104.7904931473965
 20
-131.7456034207524
 30
0.0
 11
-104.2496051637349
 21
-131.5166029885399
 31
0.0
  0
LINE
  5
EC
330
1F
100
AcDbEntity
  8
0
100
AcDbLine
 10
-105.3722204931381
 20
-131.8268087410192
 30
0.0
 11
-104.7904931473965
 21
-131.7456034207524
 31
0.0
  0
LINE
  5
ED
330
1F
100
AcDbEntity
  8
0
100
AcDbLine
 10
-105.9551434436971
 20
-131.7546849409618
 30
0.0
 11
-105.3722204931381
 21
-131.8268087410192
 31
0.0
  0
LINE
  5
EE
330
1F
100
AcDbEntity
  8
0
100
AcDbLine
 10
-106.499536763319
 20
-131.5341471383645
 30
0.0
 11
-105.9551434436971
 21
-131.7546849409618
 31
0.0
  0
LINE
  5
EF
330
1F
100
AcDbEntity
  8
0
100
AcDbLine
 10
-106.9683009469235
 20
-131.1802246200179
 30
0.0
 11
-106.499536763319
 21
-131.5341471383645
 31
0.0
  0
LINE
  5
F0
330
1F
100
AcDbEntity
  8
0
100
AcDbLine
 10
-107.3294904900675
 20
-130.7170366206628
 30
0.0
 11
-106.9683009469235
 21
-131.1802246200179
 31
0.0
  0
LINE
  5
F1
330
1F
100
AcDbEntity
  8
0
100
AcDbLine
 10
-107.55849092228
 20
-130.1761486370013
 30
0.0
 11
-107.3294904900675
 21
-130.7170366206628
 31
0.0
  0
LINE
  5
F2
330
1F
100
AcDbEntity
  8
0
100
AcDbLine
 10
-107.6396962425468
 20
-129.5944212912597
 30
0.0
 11
-107.55849092228
 21
-130.1761486370013
 31
0.0
  0
LINE
  5
F3
330
1F
100
AcDbEntity
  8
0
100
AcDbLine
 10
-107.5675724424894
 20
-129.0114983407006
 30
0.0
 11
-107.6396962425468
 21
-129.5944212912597
 31
0.0
  0
LINE
  5
F4
330
1F
100
AcDbEntity
  8
0
100
AcDbLine
 10
-107.3470346398921
 20
-128.4671050210788
 30
0.0
 11
-107.5675724424894
 21
-129.0114983407006
 31
0.0
  0
LINE
  5
F5
330
1F
100
AcDbEntity
  8
0
100
AcDbLine
 10
-106.9931121215455
 20
-127.9983408374742
 30
0.0
 11
-107.3470346398921
 21
-128.4671050210788
 31
0.0
  0
LINE
  5
F6
330
1F
100
AcDbEntity
  8
0
100
AcDbLine
 10
-106.5299241221904
 20
-127.6371512943302
 30
0.0
 11
-106.9931121215455
 21
-127.9983408374742
 31
0.0
  0
LINE
  5
F7
330
1F
100
AcDbEntity
  8
0
100
AcDbLine
 10
-105.9890361385289
 20
-127.4081508621174
 30
0.0
 11
-106.5299241221904
 21
-127.6371512943302
 31
0.0
  0
LINE
  5
F8
330
1F
100
AcDbEntity
  8
0
100
AcDbLine
 10
-204.3243858422283
 20
-127.3990693419095
 30
0.0
 11
-204.9073087927873
 21
-127.3269455418521
 31
0.0
  0
LINE
  5
F9
330
1F
100
AcDbEntity
  8
0
100
AcDbLine
 10
-203.7799925226068
 20
-127.6196071445068
 30
0.0
 11
-204.3243858422283
 21
-127.3990693419095
 31
0.0
  0
LINE
  5
FA
330
1F
100
AcDbEntity
  8
0
100
AcDbLine
 10
-203.3112283390023
 20
-127.9735296628533
 30
0.0
 11
-203.7799925226068
 21
-127.6196071445068
 31
0.0
  0
LINE
  5
FB
330
1F
100
AcDbEntity
  8
0
100
AcDbLine
 10
-202.9500387958579
 20
-128.4367176622084
 30
0.0
 11
-203.3112283390023
 21
-127.9735296628533
 31
0.0
  0
LINE
  5
FC
330
1F
100
AcDbEntity
  8
0
100
AcDbLine
 10
-202.7210383636455
 20
-128.97760564587
 30
0.0
 11
-202.9500387958579
 21
-128.4367176622084
 31
0.0
  0
LINE
  5
FD
330
1F
100
AcDbEntity
  8
0
100
AcDbLine
 10
-202.6398330433787
 20
-129.5593329916116
 30
0.0
 11
-202.7210383636455
 21
-128.97760564587
 31
0.0
  0
LINE
  5
FE
330
1F
100
AcDbEntity
  8
0
100
AcDbLine
 10
-202.7119568434361
 20
-130.1422559421706
 30
0.0
 11
-202.6398330433787
 21
-129.5593329916116
 31
0.0
  0
LINE
  5
FF
330
1F
100
AcDbEntity
  8
0
100
AcDbLine
 10
-202.9324946460334
 20
-130.6866492617925
 30
0.0
 11
-202.7119568434361
 21
-130.1422559421706
 31
0.0
  0
LINE
  5
100
330
1F
100
AcDbEntity
  8
0
100
AcDbLine
 10
-203.2864171643799
 20
-131.155413445397
 30
0.0
 11
-202.9324946460334
 21
-130.6866492617925
 31
0.0
  0
LINE
  5
101
330
1F
100
AcDbEntity
  8
0
100
AcDbLine
 10
-203.7496051637347
 20
-131.516602988541
 30
0.0
 11
-203.2864171643799
 21
-131.155413445397
 31
0.0
  0
LINE
  5
102
330
1F
100
AcDbEntity
  8
0
100
AcDbLine
 10
-204.2904931473966
 20
-131.7456034207538
 30
0.0
 11
-203.7496051637347
 21
-131.516602988541
 31
0.0
  0
LINE
  5
103
330
1F
100
AcDbEntity
  8
0
100
AcDbLine
 10
-204.8722204931382
 20
-131.8268087410202
 30
0.0
 11
-204.2904931473966
 21
-131.7456034207538
 31
0.0
  0
LINE
  5
104
330
1F
100
AcDbEntity
  8
0
100
AcDbLine
 10
-205.4551434436972
 20
-131.7546849409632
 30
0.0
 11
-204.8722204931382
 21
-131.8268087410202
 31
0.0
  0
LINE
  5
105
330
1F
100
AcDbEntity
  8
0
100
AcDbLine
 10
-205.9995367633187
 20
-131.5341471383659
 30
0.0
 11
-205.4551434436972
 21
-131.7546849409632
 31
0.0
  0
LINE
  5
106
330
1F
100
AcDbEntity
  8
0
100
AcDbLine
 10
-206.4683009469233
 20
-131.1802246200194
 30
0.0
 11
-205.9995367633187
 21
-131.5341471383659
 31
0.0
  0
LINE
  5
107
330
1F
100
AcDbEntity
  8
0
100
AcDbLine
 10
-206.8294904900676
 20
-130.7170366206643
 30
0.0
 11
-206.4683009469233
 21
-131.1802246200194
 31
0.0
  0
LINE
  5
108
330
1F
100
AcDbEntity
  8
0
100
AcDbLine
 10
-207.0584909222801
 20
-130.1761486370024
 30
0.0
 11
-206.8294904900676
 21
-130.7170366206643
 31
0.0
  0
LINE
  5
109
330
1F
100
AcDbEntity
  8
0
100
AcDbLine
 10
-207.1396962425469
 20
-129.5944212912607
 30
0.0
 11
-207.0584909222801
 21
-130.1761486370024
 31
0.0
  0
LINE
  5
10A
330
1F
100
AcDbEntity
  8
0
100
AcDbLine
 10
-206.8470346398922
 20
-128.4671050210802
 30
0.0
 11
-207.0675724424895
 21
-129.0114983407017
 31
0.0
  0
LINE
  5
10B
330
1F
100
AcDbEntity
  8
0
100
AcDbLine
 10
-206.4931121215456
 20
-127.9983408374757
 30
0.0
 11
-206.8470346398922
 21
-128.4671050210802
 31
0.0
  0
LINE
  5
10C
330
1F
100
AcDbEntity
  8
0
100
AcDbLine
 10
-206.0299241221909
 20
-127.6371512943313
 30
0.0
 11
-206.4931121215456
 21
-127.9983408374757
 31
0.0
  0
LINE
  5
10D
330
1F
100
AcDbEntity
  8
0
100
AcDbLine
 10
-205.489036138529
 20
-127.4081508621188
 30
0.0
 11
-206.0299241221909
 21
-127.6371512943313
 31
0.0
  0
LINE
  5
10E
330
1F
100
AcDbEntity
  8
0
100
AcDbLine
 10
-204.9073087927873
 20
-127.3269455418521
 30
0.0
 11
-205.489036138529
 21
-127.4081508621188
 31
0.0
  0
LINE
  5
10F
330
1F
100
AcDbEntity
  8
0
100
AcDbLine
 10
-254.8518689073434
 20
-90.76163529226008
 30
0.0
 11
-254.3047402417002
 21
-90.54797380285471
 31
0.0
  0
LINE
  5
110
330
1F
100
AcDbEntity
  8
0
100
AcDbLine
 10
-257.360861304384
 20
-89.66190154269582
 30
0.0
 11
-257.0128728348939
 21
-90.13508758848056
 31
0.0
  0
LINE
  5
111
330
1F
100
AcDbEntity
  8
0
100
AcDbLine
 10
-257.574522793789
 20
-89.11477287705301
 30
0.0
 11
-257.360861304384
 21
-89.66190154269582
 31
0.0
  0
LINE
  5
112
330
1F
100
AcDbEntity
  8
0
100
AcDbLine
 10
-257.6392966256995
 20
-88.5309875059424
 30
0.0
 11
-257.574522793789
 21
-89.11477287705301
 31
0.0
  0
LINE
  5
113
330
1F
100
AcDbEntity
  8
0
100
AcDbLine
 10
-257.550768570513
 20
-87.95032943765406
 30
0.0
 11
-257.6392966256995
 21
-88.5309875059424
 31
0.0
  0
LINE
  5
114
330
1F
100
AcDbEntity
  8
0
100
AcDbLine
 10
-257.3149716688924
 20
-87.41236955995954
 30
0.0
 11
-257.550768570513
 21
-87.95032943765406
 31
0.0
  0
LINE
  5
115
330
1F
100
AcDbEntity
  8
0
100
AcDbLine
 10
-256.9479750900098
 20
-86.95376894950249
 30
0.0
 11
-257.3149716688924
 21
-87.41236955995954
 31
0.0
  0
LINE
  5
116
330
1F
100
AcDbEntity
  8
0
100
AcDbLine
 10
-256.4747890442251
 20
-86.60578048001244
 30
0.0
 11
-256.9479750900098
 21
-86.95376894950249
 31
0.0
  0
LINE
  5
117
330
1F
100
AcDbEntity
  8
0
100
AcDbLine
 10
-255.9276603785823
 20
-86.39211899060707
 30
0.0
 11
-256.4747890442251
 21
-86.60578048001244
 31
0.0
  0
LINE
  5
118
330
1F
100
AcDbEntity
  8
0
100
AcDbLine
 10
-255.3438750074713
 20
-86.32734515869694
 30
0.0
 11
-255.9276603785823
 21
-86.39211899060707
 31
0.0
  0
LINE
  5
119
330
1F
100
AcDbEntity
  8
0
100
AcDbLine
 10
-254.7632169391833
 20
-86.41587321388305
 30
0.0
 11
-255.3438750074713
 21
-86.32734515869694
 31
0.0
  0
LINE
  5
11A
330
1F
100
AcDbEntity
  8
0
100
AcDbLine
 10
-254.2252570614885
 20
-86.65167011550398
 30
0.0
 11
-254.7632169391833
 21
-86.41587321388305
 31
0.0
  0
LINE
  5
11B
330
1F
100
AcDbEntity
  8
0
100
AcDbLine
 10
-253.7666564510318
 20
-87.0186666943866
 30
0.0
 11
-254.2252570614885
 21
-86.65167011550398
 31
0.0
  0
LINE
  5
11C
330
1F
100
AcDbEntity
  8
0
100
AcDbLine
 10
-253.4186679815417
 20
-87.49185274017134
 30
0.0
 11
-253.7666564510318
 21
-87.0186666943866
 31
0.0
  0
LINE
  5
11D
330
1F
100
AcDbEntity
  8
0
100
AcDbLine
 10
-253.2050064921364
 20
-88.03898140581414
 30
0.0
 11
-253.4186679815417
 21
-87.49185274017134
 31
0.0
  0
LINE
  5
11E
330
1F
100
AcDbEntity
  8
0
100
AcDbLine
 10
-253.1402326602262
 20
-88.62276677692475
 30
0.0
 11
-253.2050064921364
 21
-88.03898140581414
 31
0.0
  0
LINE
  5
11F
330
1F
100
AcDbEntity
  8
0
100
AcDbLine
 10
-253.2287607154123
 20
-89.20342484521309
 30
0.0
 11
-253.1402326602262
 21
-88.62276677692475
 31
0.0
  0
LINE
  5
120
330
1F
100
AcDbEntity
  8
0
100
AcDbLine
 10
-253.4645576170329
 20
-89.74138472290761
 30
0.0
 11
-253.2287607154123
 21
-89.20342484521309
 31
0.0
  0
LINE
  5
121
330
1F
100
AcDbEntity
  8
0
100
AcDbLine
 10
-253.8315541959159
 20
-90.19998533336467
 30
0.0
 11
-253.4645576170329
 21
-89.74138472290761
 31
0.0
  0
LINE
  5
122
330
1F
100
AcDbEntity
  8
0
100
AcDbLine
 10
-254.3047402417002
 20
-90.54797380285471
 30
0.0
 11
-253.8315541959159
 21
-90.19998533336467
 31
0.0
  0
LINE
  5
123
330
1F
100
AcDbEntity
  8
0
100
AcDbLine
 10
-254.2252570614892
 20
-2.65167011550395
 30
0.0
 11
-254.763216939184
 21
-2.415873213883023
 31
0.0
  0
LINE
  5
124
330
1F
100
AcDbEntity
  8
0
100
AcDbLine
 10
-253.7666564510325
 20
-3.01866669438657
 30
0.0
 11
-254.2252570614892
 21
-2.65167011550395
 31
0.0
  0
LINE
  5
125
330
1F
100
AcDbEntity
  8
0
100
AcDbLine
 10
-253.4186679815425
 20
-3.491852740171313
 30
0.0
 11
-253.7666564510325
 21
-3.01866669438657
 31
0.0
  0
LINE
  5
126
330
1F
100
AcDbEntity
  8
0
100
AcDbLine
 10
-253.2050064921367
 20
-4.038981405814115
 30
0.0
 11
-253.4186679815425
 21
-3.491852740171313
 31
0.0
  0
LINE
  5
127
330
1F
100
AcDbEntity
  8
0
100
AcDbLine
 10
-253.140232660227
 20
-4.622766776924723
 30
0.0
 11
-253.2050064921367
 21
-4.038981405814115
 31
0.0
  0
LINE
  5
128
330
1F
100
AcDbEntity
  8
0
100
AcDbLine
 10
-253.2287607154127
 20
-5.203424845213072
 30
0.0
 11
-253.140232660227
 21
-4.622766776924723
 31
0.0
  0
LINE
  5
129
330
1F
100
AcDbEntity
  8
0
100
AcDbLine
 10
-253.4645576170336
 20
-5.741384722907585
 30
0.0
 11
-253.2287607154127
 21
-5.203424845213072
 31
0.0
  0
LINE
  5
12A
330
1F
100
AcDbEntity
  8
0
100
AcDbLine
 10
-253.8315541959166
 20
-6.199985333364645
 30
0.0
 11
-253.4645576170336
 21
-5.741384722907585
 31
0.0
  0
LINE
  5
12B
330
1F
100
AcDbEntity
  8
0
100
AcDbLine
 10
-254.304740241701
 20
-6.547973802854687
 30
0.0
 11
-253.8315541959166
 21
-6.199985333364645
 31
0.0
  0
LINE
  5
12C
330
1F
100
AcDbEntity
  8
0
100
AcDbLine
 10
-254.8518689073441
 20
-6.761635292260055
 30
0.0
 11
-254.304740241701
 21
-6.547973802854687
 31
0.0
  0
LINE
  5
12D
330
1F
100
AcDbEntity
  8
0
100
AcDbLine
 10
-255.4356542784547
 20
-6.826409124170186
 30
0.0
 11
-254.8518689073441
 21
-6.761635292260055
 31
0.0
  0
LINE
  5
12E
330
1F
100
AcDbEntity
  8
0
100
AcDbLine
 10
-256.0163123467431
 20
-6.737881068984083
 30
0.0
 11
-255.4356542784547
 21
-6.826409124170186
 31
0.0
  0
LINE
  5
12F
330
1F
100
AcDbEntity
  8
0
100
AcDbLine
 10
-256.5542722244372
 20
-6.502084167363517
 30
0.0
 11
-256.0163123467431
 21
-6.737881068984083
 31
0.0
  0
LINE
  5
130
330
1F
100
AcDbEntity
  8
0
100
AcDbLine
 10
-257.0128728348947
 20
-6.135087588480536
 30
0.0
 11
-256.5542722244372
 21
-6.502084167363517
 31
0.0
  0
LINE
  5
131
330
1F
100
AcDbEntity
  8
0
100
AcDbLine
 10
-257.3608613043847
 20
-5.661901542696153
 30
0.0
 11
-257.0128728348947
 21
-6.135087588480536
 31
0.0
  0
LINE
  5
132
330
1F
100
AcDbEntity
  8
0
100
AcDbLine
 10
-257.5745227937897
 20
-5.114772877052991
 30
0.0
 11
-257.3608613043847
 21
-5.661901542696153
 31
0.0
  0
LINE
  5
133
330
1F
100
AcDbEntity
  8
0
100
AcDbLine
 10
-257.6392966257002
 20
-4.530987505942383
 30
0.0
 11
-257.5745227937897
 21
-5.114772877052991
 31
0.0
  0
LINE
  5
134
330
1F
100
AcDbEntity
  8
0
100
AcDbLine
 10
-257.5507685705138
 20
-3.950329437654034
 30
0.0
 11
-257.6392966257002
 21
-4.530987505942383
 31
0.0
  0
LINE
  5
135
330
1F
100
AcDbEntity
  8
0
100
AcDbLine
 10
-257.3149716688932
 20
-3.412369559959521
 30
0.0
 11
-257.5507685705138
 21
-3.950329437654034
 31
0.0
  0
LINE
  5
136
330
1F
100
AcDbEntity
  8
0
100
AcDbLine
 10
-256.9479750900106
 20
-2.953768949502461
 30
0.0
 11
-257.3149716688932
 21
-3.412369559959521
 31
0.0
  0
LINE
  5
137
330
1F
100
AcDbEntity
  8
0
100
AcDbLine
 10
-256.4747890442258
 20
-2.60578048001278
 30
0.0
 11
-256.9479750900106
 21
-2.953768949502461
 31
0.0
  0
LINE
  5
138
330
1F
100
AcDbEntity
  8
0
100
AcDbLine
 10
-255.927660378583
 20
-2.392118990607051
 30
0.0
 11
-256.4747890442258
 21
-2.60578048001278
 31
0.0
  0
LINE
  5
139
330
1F
100
AcDbEntity
  8
0
100
AcDbLine
 10
-254.763216939184
 20
-2.415873213883023
 30
0.0
 11
-255.343875007472
 21
-2.327345158697281
 31
0.0
  0
LINE
  5
13A
330
1F
100
AcDbEntity
  8
0
100
AcDbLine
 10
-255.9276603785827
 20
81.60788100939297
 30
0.0
 11
-256.4747890442255
 21
81.3942195199876
 31
0.0
  0
LINE
  5
13B
330
1F
100
AcDbEntity
  8
0
100
AcDbLine
 10
-255.343875007472
 20
81.6726548413031
 30
0.0
 11
-255.9276603785827
 21
81.60788100939297
 31
0.0
  0
LINE
  5
13C
330
1F
100
AcDbEntity
  8
0
100
AcDbLine
 10
-254.763216939184
 20
81.584126786117
 30
0.0
 11
-255.343875007472
 21
81.6726548413031
 31
0.0
  0
LINE
  5
13D
330
1F
100
AcDbEntity
  8
0
100
AcDbLine
 10
-254.2252570614892
 20
81.34832988449644
 30
0.0
 11
-254.763216939184
 21
81.584126786117
 31
0.0
  0
LINE
  5
13E
330
1F
100
AcDbEntity
  8
0
100
AcDbLine
 10
-253.2050064921367
 20
79.96101859418592
 30
0.0
 11
-253.4186679815425
 21
80.50814725982907
 31
0.0
  0
LINE
  5
13F
330
1F
100
AcDbEntity
  8
0
100
AcDbLine
 10
-253.140232660227
 20
79.37723322307531
 30
0.0
 11
-253.2050064921367
 21
79.96101859418592
 31
0.0
  0
LINE
  5
140
330
1F
100
AcDbEntity
  8
0
100
AcDbLine
 10
-253.2287607154127
 20
78.79657515478732
 30
0.0
 11
-253.140232660227
 21
79.37723322307531
 31
0.0
  0
LINE
  5
141
330
1F
100
AcDbEntity
  8
0
100
AcDbLine
 10
-253.4645576170336
 20
78.25861527709245
 30
0.0
 11
-253.2287607154127
 21
78.79657515478732
 31
0.0
  0
LINE
  5
142
330
1F
100
AcDbEntity
  8
0
100
AcDbLine
 10
-253.8315541959162
 20
77.80001466663538
 30
0.0
 11
-253.4645576170336
 21
78.25861527709245
 31
0.0
  0
LINE
  5
143
330
1F
100
AcDbEntity
  8
0
100
AcDbLine
 10
-254.304740241701
 20
77.4520261971457
 30
0.0
 11
-253.8315541959162
 21
77.80001466663538
 31
0.0
  0
LINE
  5
144
330
1F
100
AcDbEntity
  8
0
100
AcDbLine
 10
-254.8518689073438
 20
77.23836470774033
 30
0.0
 11
-254.304740241701
 21
77.4520261971457
 31
0.0
  0
LINE
  5
145
330
1F
100
AcDbEntity
  8
0
100
AcDbLine
 10
-255.4356542784544
 20
77.1735908758302
 30
0.0
 11
-254.8518689073438
 21
77.23836470774033
 31
0.0
  0
LINE
  5
146
330
1F
100
AcDbEntity
  8
0
100
AcDbLine
 10
-256.0163123467427
 20
77.26211893101595
 30
0.0
 11
-255.4356542784544
 21
77.1735908758302
 31
0.0
  0
LINE
  5
147
330
1F
100
AcDbEntity
  8
0
100
AcDbLine
 10
-256.5542722244372
 20
77.49791583263686
 30
0.0
 11
-256.0163123467427
 21
77.26211893101595
 31
0.0
  0
LINE
  5
148
330
1F
100
AcDbEntity
  8
0
100
AcDbLine
 10
-257.0128728348943
 20
77.86491241151948
 30
0.0
 11
-256.5542722244372
 21
77.49791583263686
 31
0.0
  0
LINE
  5
149
330
1F
100
AcDbEntity
  8
0
100
AcDbLine
 10
-257.360861304384
 20
78.33809845730423
 30
0.0
 11
-257.0128728348943
 21
77.86491241151948
 31
0.0
  0
LINE
  5
14A
330
1F
100
AcDbEntity
  8
0
100
AcDbLine
 10
-257.5745227937897
 20
78.88522712294703
 30
0.0
 11
-257.360861304384
 21
78.33809845730423
 31
0.0
  0
LINE
  5
14B
330
1F
100
AcDbEntity
  8
0
100
AcDbLine
 10
-257.6392966256998
 20
79.469012494058
 30
0.0
 11
-257.5745227937897
 21
78.88522712294703
 31
0.0
  0
LINE
  5
14C
330
1F
100
AcDbEntity
  8
0
100
AcDbLine
 10
-257.5507685705138
 20
80.049670562346
 30
0.0
 11
-257.6392966256998
 21
79.469012494058
 31
0.0
  0
LINE
  5
14D
330
1F
100
AcDbEntity
  8
0
100
AcDbLine
 10
-257.3149716688928
 20
80.58763044004087
 30
0.0
 11
-257.5507685705138
 21
80.049670562346
 31
0.0
  0
LINE
  5
14E
330
1F
100
AcDbEntity
  8
0
100
AcDbLine
 10
-256.9479750900102
 20
81.04623105049757
 30
0.0
 11
-257.3149716688928
 21
80.58763044004087
 31
0.0
  0
LINE
  5
14F
330
1F
100
AcDbEntity
  8
0
100
AcDbLine
 10
-256.4747890442255
 20
81.3942195199876
 30
0.0
 11
-256.9479750900102
 21
81.04623105049757
 31
0.0
  0
LINE
  5
150
330
1F
100
AcDbEntity
  8
0
100
AcDbLine
 10
-66.28976464296291
 20
-111.7139327108705
 30
0.0
 11
-66.34428332090052
 21
-112.1280431830345
 31
0.0
  0
LINE
  5
151
330
1F
100
AcDbEntity
  8
0
100
AcDbLine
 10
-66.34428332090052
 20
-112.1280431830345
 30
0.0
 11
-66.50412399690795
 21
-112.5139327108703
 31
0.0
  0
LINE
  5
152
330
1F
100
AcDbEntity
  8
0
100
AcDbLine
 10
-66.50412399690795
 20
-112.5139327108703
 30
0.0
 11
-66.75839379306457
 21
-112.8453035607688
 31
0.0
  0
LINE
  5
153
330
1F
100
AcDbEntity
  8
0
100
AcDbLine
 10
-66.75839379306457
 20
-112.8453035607688
 30
0.0
 11
-67.08976464296272
 21
-113.0995733569254
 31
0.0
  0
LINE
  5
154
330
1F
100
AcDbEntity
  8
0
100
AcDbLine
 10
-67.08976464296272
 20
-113.0995733569254
 30
0.0
 11
-67.47565417079885
 21
-113.2594140329329
 31
0.0
  0
LINE
  5
155
330
1F
100
AcDbEntity
  8
0
100
AcDbLine
 10
-67.47565417079885
 20
-113.2594140329329
 30
0.0
 11
-67.8897646429629
 21
-113.3139327108705
 31
0.0
  0
LINE
  5
156
330
1F
100
AcDbEntity
  8
0
100
AcDbLine
 10
-67.8897646429629
 20
-113.3139327108705
 30
0.0
 11
-68.30387511512696
 21
-113.2594140329329
 31
0.0
  0
LINE
  5
157
330
1F
100
AcDbEntity
  8
0
100
AcDbLine
 10
-68.30387511512696
 20
-113.2594140329329
 30
0.0
 11
-68.68976464296308
 21
-113.0995733569254
 31
0.0
  0
LINE
  5
158
330
1F
100
AcDbEntity
  8
0
100
AcDbLine
 10
-68.68976464296308
 20
-113.0995733569254
 30
0.0
 11
-69.02113549286123
 21
-112.8453035607688
 31
0.0
  0
LINE
  5
159
330
1F
100
AcDbEntity
  8
0
100
AcDbLine
 10
-69.02113549286123
 20
-112.8453035607688
 30
0.0
 11
-69.27540528901785
 21
-112.5139327108703
 31
0.0
  0
LINE
  5
15A
330
1F
100
AcDbEntity
  8
0
100
AcDbLine
 10
-69.27540528901785
 20
-112.5139327108703
 30
0.0
 11
-69.43524596502529
 21
-112.1280431830345
 31
0.0
  0
LINE
  5
15B
330
1F
100
AcDbEntity
  8
0
100
AcDbLine
 10
-69.43524596502529
 20
-112.1280431830345
 30
0.0
 11
-69.4897646429629
 21
-111.7139327108705
 31
0.0
  0
LINE
  5
15C
330
1F
100
AcDbEntity
  8
0
100
AcDbLine
 10
-69.43524596502529
 20
-111.2998222387064
 30
0.0
 11
-69.27540528901785
 21
-110.9139327108703
 31
0.0
  0
LINE
  5
15D
330
1F
100
AcDbEntity
  8
0
100
AcDbLine
 10
-69.27540528901785
 20
-110.9139327108703
 30
0.0
 11
-69.02113549286123
 21
-110.5825618609718
 31
0.0
  0
LINE
  5
15E
330
1F
100
AcDbEntity
  8
0
100
AcDbLine
 10
-69.02113549286123
 20
-110.5825618609718
 30
0.0
 11
-68.68976464296308
 21
-110.3282920648151
 31
0.0
  0
LINE
  5
15F
330
1F
100
AcDbEntity
  8
0
100
AcDbLine
 10
-68.68976464296308
 20
-110.3282920648151
 30
0.0
 11
-68.30387511512696
 21
-110.1684513888077
 31
0.0
  0
LINE
  5
160
330
1F
100
AcDbEntity
  8
0
100
AcDbLine
 10
-68.30387511512696
 20
-110.1684513888077
 30
0.0
 11
-67.8897646429629
 21
-110.1139327108705
 31
0.0
  0
LINE
  5
161
330
1F
100
AcDbEntity
  8
0
100
AcDbLine
 10
-67.8897646429629
 20
-110.1139327108705
 30
0.0
 11
-67.47565417079885
 21
-110.1684513888077
 31
0.0
  0
LINE
  5
162
330
1F
100
AcDbEntity
  8
0
100
AcDbLine
 10
-67.47565417079885
 20
-110.1684513888077
 30
0.0
 11
-67.08976464296272
 21
-110.3282920648151
 31
0.0
  0
LINE
  5
163
330
1F
100
AcDbEntity
  8
0
100
AcDbLine
 10
-67.08976464296272
 20
-110.3282920648151
 30
0.0
 11
-66.75839379306457
 21
-110.5825618609718
 31
0.0
  0
LINE
  5
164
330
1F
100
AcDbEntity
  8
0
100
AcDbLine
 10
-66.75839379306457
 20
-110.5825618609718
 30
0.0
 11
-66.50412399690795
 21
-110.9139327108703
 31
0.0
  0
LINE
  5
165
330
1F
100
AcDbEntity
  8
0
100
AcDbLine
 10
-66.50412399690795
 20
-110.9139327108703
 30
0.0
 11
-66.34428332090052
 21
-111.2998222387064
 31
0.0
  0
LINE
  5
166
330
1F
100
AcDbEntity
  8
0
100
AcDbLine
 10
-66.34428332090052
 20
-111.2998222387064
 30
0.0
 11
-66.28976464296291
 21
-111.7139327108705
 31
0.0
  0
LINE
  5
167
330
1F
100
AcDbEntity
  8
0
100
AcDbLine
 10
-66.76670705373895
 20
-81.85355617995431
 30
0.0
 11
-67.09993057116608
 21
-82.10539314474144
 31
0.0
  0
LINE
  5
168
330
1F
100
AcDbEntity
  8
0
100
AcDbLine
 10
-67.09993057116608
 20
-82.10539314474144
 30
0.0
 11
-67.48697997532399
 21
-82.26240438045781
 31
0.0
  0
LINE
  5
169
330
1F
100
AcDbEntity
  8
0
100
AcDbLine
 10
-67.48697997532399
 20
-82.26240438045781
 30
0.0
 11
-67.9014784889479
 21
-82.31388983086205
 31
0.0
  0
LINE
  5
16A
330
1F
100
AcDbEntity
  8
0
100
AcDbLine
 10
-67.9014784889479
 20
-82.31388983086205
 30
0.0
 11
-68.31517872332648
 21
-82.25634084759322
 31
0.0
  0
LINE
  5
16B
330
1F
100
AcDbEntity
  8
0
100
AcDbLine
 10
-68.31517872332648
 20
-82.25634084759322
 30
0.0
 11
-68.69988769115785
 21
-82.09367929875644
 31
0.0
  0
LINE
  5
16C
330
1F
100
AcDbEntity
  8
0
100
AcDbLine
 10
-68.69988769115785
 20
-82.09367929875644
 30
0.0
 11
-69.02938811204656
 21
-81.83699030009424
 31
0.0
  0
LINE
  5
16D
330
1F
100
AcDbEntity
  8
0
100
AcDbLine
 10
-69.02938811204656
 20
-81.83699030009424
 30
0.0
 11
-69.28122507683405
 21
-81.50376678266711
 31
0.0
  0
LINE
  5
16E
330
1F
100
AcDbEntity
  8
0
100
AcDbLine
 10
-69.28122507683405
 20
-81.50376678266711
 30
0.0
 11
-69.43823631255043
 21
-81.11671737850956
 31
0.0
  0
LINE
  5
16F
330
1F
100
AcDbEntity
  8
0
100
AcDbLine
 10
-69.48972176295467
 20
-80.7022188648853
 30
0.0
 11
-69.43217277968547
 21
-80.28851863050707
 31
0.0
  0
LINE
  5
170
330
1F
100
AcDbEntity
  8
0
100
AcDbLine
 10
-69.43217277968547
 20
-80.28851863050707
 30
0.0
 11
-69.26951123084905
 21
-79.90380966267534
 31
0.0
  0
LINE
  5
171
330
1F
100
AcDbEntity
  8
0
100
AcDbLine
 10
-69.26951123084905
 20
-79.90380966267534
 30
0.0
 11
-69.01282223218685
 21
-79.57430924178664
 31
0.0
  0
LINE
  5
172
330
1F
100
AcDbEntity
  8
0
100
AcDbLine
 10
-69.01282223218685
 20
-79.57430924178664
 30
0.0
 11
-68.67959871475972
 21
-79.32247227699914
 31
0.0
  0
LINE
  5
173
330
1F
100
AcDbEntity
  8
0
100
AcDbLine
 10
-68.67959871475972
 20
-79.32247227699914
 30
0.0
 11
-68.29254931060218
 21
-79.16546104128277
 31
0.0
  0
LINE
  5
174
330
1F
100
AcDbEntity
  8
0
100
AcDbLine
 10
-68.29254931060218
 20
-79.16546104128277
 30
0.0
 11
-67.8780507969779
 21
-79.11397559087852
 31
0.0
  0
LINE
  5
175
330
1F
100
AcDbEntity
  8
0
100
AcDbLine
 10
-67.8780507969779
 20
-79.11397559087852
 30
0.0
 11
-67.46435056259934
 21
-79.17152457414772
 31
0.0
  0
LINE
  5
176
330
1F
100
AcDbEntity
  8
0
100
AcDbLine
 10
-67.46435056259934
 20
-79.17152457414772
 30
0.0
 11
-67.07964159476795
 21
-79.3341861229845
 31
0.0
  0
LINE
  5
177
330
1F
100
AcDbEntity
  8
0
100
AcDbLine
 10
-67.07964159476795
 20
-79.3341861229845
 30
0.0
 11
-66.75014117387924
 21
-79.59087512164633
 31
0.0
  0
LINE
  5
178
330
1F
100
AcDbEntity
  8
0
100
AcDbLine
 10
-66.75014117387924
 20
-79.59087512164633
 30
0.0
 11
-66.49830420909176
 21
-79.92409863907383
 31
0.0
  0
LINE
  5
179
330
1F
100
AcDbEntity
  8
0
100
AcDbLine
 10
-66.49830420909176
 20
-79.92409863907383
 30
0.0
 11
-66.34129297337537
 21
-80.31114804323138
 31
0.0
  0
LINE
  5
17A
330
1F
100
AcDbEntity
  8
0
100
AcDbLine
 10
-66.34129297337537
 20
-80.31114804323138
 30
0.0
 11
-66.28980752297113
 21
-80.72564655685565
 31
0.0
  0
LINE
  5
17B
330
1F
100
AcDbEntity
  8
0
100
AcDbLine
 10
-66.28980752297113
 20
-80.72564655685565
 30
0.0
 11
-66.34735650624033
 21
-81.13934679123386
 31
0.0
  0
LINE
  5
17C
330
1F
100
AcDbEntity
  8
0
100
AcDbLine
 10
-66.34735650624033
 20
-81.13934679123386
 30
0.0
 11
-66.51001805507711
 21
-81.5240557590656
 31
0.0
  0
LINE
  5
17D
330
1F
100
AcDbEntity
  8
0
100
AcDbLine
 10
-141.906850972103
 20
-79.45144282353027
 30
0.0
 11
-141.6135865161738
 21
-79.74885790096991
 31
0.0
  0
LINE
  5
17E
330
1F
100
AcDbEntity
  8
0
100
AcDbLine
 10
-141.6135865161738
 20
-79.74885790096991
 30
0.0
 11
-141.407291490601
 21
-80.11204123184298
 31
0.0
  0
LINE
  5
17F
330
1F
100
AcDbEntity
  8
0
100
AcDbLine
 10
-141.407291490601
 20
-80.11204123184298
 30
0.0
 11
-141.3020245604591
 21
-80.5162424723389
 31
0.0
  0
LINE
  5
180
330
1F
100
AcDbEntity
  8
0
100
AcDbLine
 10
-141.3020245604591
 20
-80.5162424723389
 30
0.0
 11
-141.3049594930754
 21
-80.93391597589208
 31
0.0
  0
LINE
  5
181
330
1F
100
AcDbEntity
  8
0
100
AcDbLine
 10
-141.3049594930754
 20
-80.93391597589208
 30
0.0
 11
-141.415896277642
 21
-81.33659798347362
 31
0.0
  0
LINE
  5
182
330
1F
100
AcDbEntity
  8
0
100
AcDbLine
 10
-141.415896277642
 20
-81.33659798347362
 30
0.0
 11
-141.6272747556228
 21
-81.69684638173042
 31
0.0
  0
LINE
  5
183
330
1F
100
AcDbEntity
  8
0
100
AcDbLine
 10
-141.6272747556228
 20
-81.69684638173042
 30
0.0
 11
-141.9246898330624
 21
-81.99011083765967
 31
0.0
  0
LINE
  5
184
330
1F
100
AcDbEntity
  8
0
100
AcDbLine
 10
-141.9246898330624
 20
-81.99011083765967
 30
0.0
 11
-142.2878731639355
 21
-82.19640586323246
 31
0.0
  0
LINE
  5
185
330
1F
100
AcDbEntity
  8
0
100
AcDbLine
 10
-142.2878731639355
 20
-82.19640586323246
 30
0.0
 11
-142.6920744044314
 21
-82.30167279337438
 31
0.0
  0
LINE
  5
186
330
1F
100
AcDbEntity
  8
0
100
AcDbLine
 10
-142.6920744044314
 20
-82.30167279337438
 30
0.0
 11
-143.1097479079846
 21
-82.2987378607581
 31
0.0
  0
LINE
  5
187
330
1F
100
AcDbEntity
  8
0
100
AcDbLine
 10
-143.1097479079846
 20
-82.2987378607581
 30
0.0
 11
-143.5124299155661
 21
-82.18780107619142
 31
0.0
  0
LINE
  5
188
330
1F
100
AcDbEntity
  8
0
100
AcDbLine
 10
-143.5124299155661
 20
-82.18780107619142
 30
0.0
 11
-143.8726783138233
 21
-81.97642259821068
 31
0.0
  0
LINE
  5
189
330
1F
100
AcDbEntity
  8
0
100
AcDbLine
 10
-143.8726783138233
 20
-81.97642259821068
 30
0.0
 11
-144.1659427697522
 21
-81.67900752077104
 31
0.0
  0
LINE
  5
18A
330
1F
100
AcDbEntity
  8
0
100
AcDbLine
 10
-144.1659427697522
 20
-81.67900752077104
 30
0.0
 11
-144.372237795325
 21
-81.31582418989797
 31
0.0
  0
LINE
  5
18B
330
1F
100
AcDbEntity
  8
0
100
AcDbLine
 10
-144.372237795325
 20
-81.31582418989797
 30
0.0
 11
-144.4775047254669
 21
-80.91162294940204
 31
0.0
  0
LINE
  5
18C
330
1F
100
AcDbEntity
  8
0
100
AcDbLine
 10
-144.4775047254669
 20
-80.91162294940204
 30
0.0
 11
-144.4745697928506
 21
-80.49394944584887
 31
0.0
  0
LINE
  5
18D
330
1F
100
AcDbEntity
  8
0
100
AcDbLine
 10
-144.4745697928506
 20
-80.49394944584887
 30
0.0
 11
-144.363633008284
 21
-80.09126743826695
 31
0.0
  0
LINE
  5
18E
330
1F
100
AcDbEntity
  8
0
100
AcDbLine
 10
-144.363633008284
 20
-80.09126743826695
 30
0.0
 11
-144.1522545303032
 21
-79.73101904001052
 31
0.0
  0
LINE
  5
18F
330
1F
100
AcDbEntity
  8
0
100
AcDbLine
 10
-144.1522545303032
 20
-79.73101904001052
 30
0.0
 11
-143.8548394528636
 21
-79.43775458408126
 31
0.0
  0
LINE
  5
190
330
1F
100
AcDbEntity
  8
0
100
AcDbLine
 10
-143.8548394528636
 20
-79.43775458408126
 30
0.0
 11
-143.4916561219908
 21
-79.23145955850849
 31
0.0
  0
LINE
  5
191
330
1F
100
AcDbEntity
  8
0
100
AcDbLine
 10
-143.4916561219908
 20
-79.23145955850849
 30
0.0
 11
-143.0874548814946
 21
-79.12619262836657
 31
0.0
  0
LINE
  5
192
330
1F
100
AcDbEntity
  8
0
100
AcDbLine
 10
-143.0874548814946
 20
-79.12619262836657
 30
0.0
 11
-142.6697813779414
 21
-79.12912756098284
 31
0.0
  0
LINE
  5
193
330
1F
100
AcDbEntity
  8
0
100
AcDbLine
 10
-142.6697813779414
 20
-79.12912756098284
 30
0.0
 11
-142.2670993703595
 21
-79.24006434554951
 31
0.0
  0
LINE
  5
194
330
1F
100
AcDbEntity
  8
0
100
AcDbLine
 10
-142.2670993703595
 20
-79.24006434554951
 30
0.0
 11
-141.906850972103
 21
-79.45144282353027
 31
0.0
  0
LINE
  5
195
330
1F
100
AcDbEntity
  8
0
100
AcDbLine
 10
-143.689764642963
 20
-110.3282920648155
 30
0.0
 11
-143.3038751151269
 21
-110.1684513888081
 31
0.0
  0
LINE
  5
196
330
1F
100
AcDbEntity
  8
0
100
AcDbLine
 10
-143.3038751151269
 20
-110.1684513888081
 30
0.0
 11
-142.8897646429628
 21
-110.1139327108705
 31
0.0
  0
LINE
  5
197
330
1F
100
AcDbEntity
  8
0
100
AcDbLine
 10
-142.8897646429628
 20
-110.1139327108705
 30
0.0
 11
-142.4756541707987
 21
-110.1684513888081
 31
0.0
  0
LINE
  5
198
330
1F
100
AcDbEntity
  8
0
100
AcDbLine
 10
-142.4756541707987
 20
-110.1684513888081
 30
0.0
 11
-142.089764642963
 21
-110.3282920648155
 31
0.0
  0
LINE
  5
199
330
1F
100
AcDbEntity
  8
0
100
AcDbLine
 10
-142.089764642963
 20
-110.3282920648155
 30
0.0
 11
-141.7583937930645
 21
-110.5825618609721
 31
0.0
  0
LINE
  5
19A
330
1F
100
AcDbEntity
  8
0
100
AcDbLine
 10
-141.7583937930645
 20
-110.5825618609721
 30
0.0
 11
-141.5041239969079
 21
-110.9139327108703
 31
0.0
  0
LINE
  5
19B
330
1F
100
AcDbEntity
  8
0
100
AcDbLine
 10
-141.5041239969079
 20
-110.9139327108703
 30
0.0
 11
-141.3442833209008
 21
-111.2998222387064
 31
0.0
  0
LINE
  5
19C
330
1F
100
AcDbEntity
  8
0
100
AcDbLine
 10
-141.3442833209008
 20
-111.2998222387064
 30
0.0
 11
-141.2897646429632
 21
-111.7139327108705
 31
0.0
  0
LINE
  5
19D
330
1F
100
AcDbEntity
  8
0
100
AcDbLine
 10
-141.2897646429632
 20
-111.7139327108705
 30
0.0
 11
-141.3442833209008
 21
-112.1280431830345
 31
0.0
  0
LINE
  5
19E
330
1F
100
AcDbEntity
  8
0
100
AcDbLine
 10
-141.3442833209008
 20
-112.1280431830345
 30
0.0
 11
-141.5041239969079
 21
-112.5139327108703
 31
0.0
  0
LINE
  5
19F
330
1F
100
AcDbEntity
  8
0
100
AcDbLine
 10
-141.5041239969079
 20
-112.5139327108703
 30
0.0
 11
-141.7583937930645
 21
-112.8453035607688
 31
0.0
  0
LINE
  5
1A0
330
1F
100
AcDbEntity
  8
0
100
AcDbLine
 10
-141.7583937930645
 20
-112.8453035607688
 30
0.0
 11
-142.089764642963
 21
-113.0995733569254
 31
0.0
  0
LINE
  5
1A1
330
1F
100
AcDbEntity
  8
0
100
AcDbLine
 10
-142.089764642963
 20
-113.0995733569254
 30
0.0
 11
-142.4756541707987
 21
-113.2594140329329
 31
0.0
  0
LINE
  5
1A2
330
1F
100
AcDbEntity
  8
0
100
AcDbLine
 10
-142.4756541707987
 20
-113.2594140329329
 30
0.0
 11
-142.8897646429628
 21
-113.3139327108705
 31
0.0
  0
LINE
  5
1A3
330
1F
100
AcDbEntity
  8
0
100
AcDbLine
 10
-142.8897646429628
 20
-113.3139327108705
 30
0.0
 11
-143.3038751151269
 21
-113.2594140329329
 31
0.0
  0
LINE
  5
1A4
330
1F
100
AcDbEntity
  8
0
100
AcDbLine
 10
-143.3038751151269
 20
-113.2594140329329
 30
0.0
 11
-143.689764642963
 21
-113.0995733569254
 31
0.0
  0
LINE
  5
1A5
330
1F
100
AcDbEntity
  8
0
100
AcDbLine
 10
-143.689764642963
 20
-113.0995733569254
 30
0.0
 11
-144.0211354928615
 21
-112.8453035607688
 31
0.0
  0
LINE
  5
1A6
330
1F
100
AcDbEntity
  8
0
100
AcDbLine
 10
-144.0211354928615
 20
-112.8453035607688
 30
0.0
 11
-144.2754052890181
 21
-112.5139327108703
 31
0.0
  0
LINE
  5
1A7
330
1F
100
AcDbEntity
  8
0
100
AcDbLine
 10
-144.2754052890181
 20
-112.5139327108703
 30
0.0
 11
-144.4352459650256
 21
-112.1280431830345
 31
0.0
  0
LINE
  5
1A8
330
1F
100
AcDbEntity
  8
0
100
AcDbLine
 10
-144.4352459650256
 20
-112.1280431830345
 30
0.0
 11
-144.4897646429632
 21
-111.7139327108705
 31
0.0
  0
LINE
  5
1A9
330
1F
100
AcDbEntity
  8
0
100
AcDbLine
 10
-144.4897646429632
 20
-111.7139327108705
 30
0.0
 11
-144.4352459650256
 21
-111.2998222387064
 31
0.0
  0
LINE
  5
1AA
330
1F
100
AcDbEntity
  8
0
100
AcDbLine
 10
-144.4352459650256
 20
-111.2998222387064
 30
0.0
 11
-144.2754052890181
 21
-110.9139327108703
 31
0.0
  0
LINE
  5
1AB
330
1F
100
AcDbEntity
  8
0
100
AcDbLine
 10
-144.2754052890181
 20
-110.9139327108703
 30
0.0
 11
-144.0211354928615
 21
-110.5825618609721
 31
0.0
  0
LINE
  5
1AC
330
1F
100
AcDbEntity
  8
0
100
AcDbLine
 10
-144.0211354928615
 20
-110.5825618609721
 30
0.0
 11
-143.689764642963
 21
-110.3282920648155
 31
0.0
  0
LINE
  5
1AD
330
1F
100
AcDbEntity
  8
0
100
AcDbLine
 10
-69.28976464296295
 20
-109.3139327108703
 30
0.0
 11
-69.28976464296295
 21
-83.11393271087047
 31
0.0
  0
LINE
  5
1AE
330
1F
100
AcDbEntity
  8
0
100
AcDbLine
 10
-141.4897646429631
 20
-109.3139327108703
 30
0.0
 11
-69.28976464296295
 21
-109.3139327108703
 31
0.0
  0
LINE
  5
1AF
330
1F
100
AcDbEntity
  8
0
100
AcDbLine
 10
-141.4897646429631
 20
-83.11393271087047
 30
0.0
 11
-141.4897646429631
 21
-109.3139327108703
 31
0.0
  0
LINE
  5
1B0
330
1F
100
AcDbEntity
  8
0
100
AcDbLine
 10
-69.28976464296295
 20
-83.11393271087047
 30
0.0
 11
-141.4897646429631
 21
-83.11393271087047
 31
0.0
  0
ENDSEC
  0
SECTION
  2
OBJECTS
  0
DICTIONARY
  5
C
330
0
100
AcDbDictionary
  3
ACAD_GROUP
350
D
  3
ACAD_LAYOUT
350
1A
  3
ACAD_MATERIAL
350
3B
  3
ACAD_MLEADERSTYLE
350
1D3
  3
ACAD_MLINESTYLE
350
17
  3
ACAD_PLOTSETTINGS
350
19
  3
ACAD_VISUALSTYLE
350
2A
  3
ACDBHEADERROUNDTRIPXREC
350
1B1
  3
ACDBVARIABLEDICTIONARY
350
1D1
  0
DICTIONARY
  5
D
102
{ACAD_REACTORS
330
C
102
}
330
C
100
AcDbDictionary
  0
DICTIONARY
  5
1A
102
{ACAD_REACTORS
330
C
102
}
330
C
100
AcDbDictionary
  0
DICTIONARY
  5
3B
102
{ACAD_REACTORS
330
C
102
}
330
C
100
AcDbDictionary
  3
BYBLOCK
350
3D
  3
BYLAYER
350
3C
  3
GLOBAL
350
3E
  0
DICTIONARY
  5
1D3
102
{ACAD_REACTORS
330
C
102
}
330
C
100
AcDbDictionary
  0
DICTIONARY
  5
17
102
{ACAD_REACTORS
330
C
102
}
330
C
100
AcDbDictionary
  3
STANDARD
350
18
  0
DICTIONARY
  5
19
102
{ACAD_REACTORS
330
C
102
}
330
C
100
AcDbDictionary
  0
DICTIONARY
  5
2A
102
{ACAD_REACTORS
330
C
102
}
330
C
100
AcDbDictionary
  3
2DWIREFRAME
350
2F
  3
3D_HIDDEN
350
31
  3
3DWIREFRAME
350
30
  3
BASIC
350
32
  3
BRIGHTEN
350
36
  3
COLORCHANGE
350
3A
  3
CONCEPTUAL
350
34
  3
DIM
350
35
  3
FACEPATTERN
350
39
  3
FLAT
350
2B
  3
FLATWITHEDGES
350
2C
  3
GOURAUD
350
2D
  3
GOURAUDWITHEDGES
350
2E
  3
LINEPATTERN
350
38
  3
REALISTIC
350
33
  3
THICKEN
350
37
  0
DICTIONARY
  5
1B1
102
{ACAD_REACTORS
330
C
102
}
330
C
100
AcDbDictionary
  3
CEPSNTYPE
350
1BA
  3
DIMSTYLEDATA
350
1D0
  3
FINGERPRINTGUID
350
1BB
  3
HYPERLINKBASE
350
1B4
  3
INSUNITS
350
1B9
  3
LAYOUTDICT
350
1B6
  3
LWETCUNION
350
1B8
  3
PLOTSETDICT
350
1B7
  3
PSVPSCALE
350
1BD
  3
PUCSBASE
350
1C0
  3
PUCSORGBACK
350
1C6
  3
PUCSORGBOTTOM
350
1C2
  3
PUCSORGFRONT
350
1C5
  3
PUCSORGLEFT
350
1C3
  3
PUCSORGRIGHT
350
1C4
  3
PUCSORGTOP
350
1C1
  3
PUCSORTHOREF
350
1BE
  3
PUCSORTHOVIEW
350
1BF
  3
STYLESHEET
350
1B5
  3
TSTACKALIGN
350
1B2
  3
TSTACKSIZE
350
1B3
  3
UCSBASE
350
1C9
  3
UCSORGBACK
350
1CF
  3
UCSORGBOTTOM
350
1CB
  3
UCSORGFRONT
350
1CE
  3
UCSORGLEFT
350
1CC
  3
UCSORGRIGHT
350
1CD
  3
UCSORGTOP
350
1CA
  3
UCSORTHOREF
350
1C7
  3
UCSORTHOVIEW
350
1C8
  3
VERSIONGUID
350
1BC
  0
DICTIONARY
  5
1D1
102
{ACAD_REACTORS
330
C
102
}
330
C
100
AcDbDictionary
  3
DIMASSOC
350
1D4
  3
HIDETEXT
350
1D5
  0
MATERIAL
  5
3D
102
{ACAD_REACTORS
330
3B
102
}
102
{ACAD_XDICTIONARY
360
1D8
102
}
330
3B
100
AcDbMaterial
  1
ByBlock
  0
MATERIAL
  5
3C
102
{ACAD_REACTORS
330
3B
102
}
102
{ACAD_XDICTIONARY
360
1D6
102
}
330
3B
100
AcDbMaterial
  1
ByLayer
  0
MATERIAL
  5
3E
102
{ACAD_REACTORS
330
3B
102
}
102
{ACAD_XDICTIONARY
360
1DA
102
}
330
3B
100
AcDbMaterial
  1
Global
  0
MLINESTYLE
  5
18
102
{ACAD_REACTORS
330
17
102
}
330
17
100
AcDbMlineStyle
  2
Standard
 70
     0
  3

 62
   256
 51
90.0
 52
90.0
 71
     2
 49
0.5
 62
   256
  6
BYLAYER
 49
-0.5
 62
   256
  6
BYLAYER
  0
ACAD_PROXY_OBJECT
  5
2F
102
{ACAD_REACTORS
330
2A
102
}
330
2A
100
AcDbProxyObject
 90
      499
 91
      501
 93
      436
310
42CC9915DA5C99599C985B595049028333333333333E3BF0000000000000FB0107901411070040501600405405064090741402480A0340
1001
ACAD
1000
AcDbSavedByObjectVersion
1070
     0
  0
ACAD_PROXY_OBJECT
  5
31
102
{ACAD_REACTORS
330
2A
102
}
330
2A
100
AcDbProxyObject
 90
      499
 91
      501
 93
      500
310
424CD108121A5919195B90640502408333333333333E3BF0000000000000FB01079024090700405020000000000001110200405405064090740C02480A0340
1001
ACAD
1000
AcDbSavedByObjectVersion
1070
     0
  0
ACAD_PROXY_OBJECT
  5
30
102
{ACAD_REACTORS
330
2A
102
}
330
2A
100
AcDbProxyObject
 90
      499
 91
      501
 93
      436
310
42CCD915DA5C99599C985B595059028333333333333E3BF0000000000000FB0107901411070040501600405405064090741402480A0340
1001
ACAD
1000
AcDbSavedByObjectVersion
1070
     0
  0
ACAD_PROXY_OBJECT
  5
32
102
{ACAD_REACTORS
330
2A
102
}
330
2A
100
AcDbProxyObject
 90
      499
 91
      501
 93
      388
310
4150985CDA58D07406404333333333333E3BF0000000000000FB0107A41107004050150841D405064090741402480A0350
1001
ACAD
1000
AcDbSavedByObjectVersion
1070
     0
  0
ACAD_PROXY_OBJECT
  5
36
102
{ACAD_REACTORS
330
2A
102
}
330
2A
100
AcDbProxyObject
 90
      499
 91
      501
 93
      428
310
42109C9A59DA1D195B90C409028333333333333E3BF0000000000000FB010790141107004050150841D405064090741402480A029950
1001
ACAD
1000
AcDbSavedByObjectVersion
1070
     0
  0
ACAD_PROXY_OBJECT
  5
3A
102
{ACAD_REACTORS
330
2A
102
}
330
2A
100
AcDbProxyObject
 90
      499
 91
      501
 93
      452
310
42D0DBDB1BDC90DA185B99D95104090240C333333333333E3BF0000000000000FB0108901411070040501508421405064090741402480A0350
1001
ACAD
1000
AcDbSavedByObjectVersion
1070
     0
  0
ACAD_PROXY_OBJECT
  5
34
102
{ACAD_REACTORS
330
2A
102
}
330
2A
100
AcDbProxyObject
 90
      499
 91
      501
 93
      500
310
4290DBDB98D95C1D1D585B10940D028333333333333E3BF0000000000000FB0107902409070040501000000000000111010841D405064090740C02480A0340
1001
ACAD
1000
AcDbSavedByObjectVersion
1070
     0
  0
ACAD_PROXY_OBJECT
  5
35
102
{ACAD_REACTORS
330
2A
102
}
330
2A
100
AcDbProxyObject
 90
      499
 91
      501
 93
      412
310
40D11A5B50B409028333333333333E3BF0000000000000FB010790141107004050150841D405064090741402480A02677FFFFFD0
1001
ACAD
1000
AcDbSavedByObjectVersion
1070
     0
  0
ACAD_PROXY_OBJECT
  5
39
102
{ACAD_REACTORS
330
2A
102
}
330
2A
100
AcDbProxyObject
 90
      499
 91
      501
 93
      444
310
42D19858D95C185D1D195C9B90F409028333333333333E3BF0000000000000FB010790141107004050150841D405064090741402480A0350
1001
ACAD
1000
AcDbSavedByObjectVersion
1070
     0
  0
ACAD_PROXY_OBJECT
  5
2B
102
{ACAD_REACTORS
330
2A
102
}
330
2A
100
AcDbProxyObject
 90
      499
 91
      501
 93
      388
310
41119B185D240901404333333333333E3BF0000000000000F9010740A41107004050150841D405064090741402480A1B50
1001
ACAD
1000
AcDbSavedByObjectVersion
1070
     0
  0
ACAD_PROXY_OBJECT
  5
2C
102
{ACAD_REACTORS
330
2A
102
}
330
2A
100
AcDbProxyObject
 90
      499
 91
      501
 93
      476
310
43519B185D15DA5D1A115919D95CD0140901404333333333333E3BF0000000000000F9010740901411070040501600405405064090741402480A1B50
1001
ACAD
1000
AcDbSavedByObjectVersion
1070
     0
  0
ACAD_PROXY_OBJECT
  5
2D
102
{ACAD_REACTORS
330
2A
102
}
330
2A
100
AcDbProxyObject
 90
      499
 91
      501
 93
      412
310
41D1DBDD5C985D5910240902404333333333333E3BF0000000000000F9010740A411070040501641D405064090741402480A1B50
1001
ACAD
1000
AcDbSavedByObjectVersion
1070
     0
  0
ACAD_PROXY_OBJECT
  5
2E
102
{ACAD_REACTORS
330
2A
102
}
330
2A
100
AcDbProxyObject
 90
      499
 91
      501
 93
      500
310
4411DBDD5C985D5915DA5D1A115919D95CD0340902404333333333333E3BF0000000000000F9010740901411070040501600405405064090741402480A1B50
1001
ACAD
1000
AcDbSavedByObjectVersion
1070
     0
  0
ACAD_PROXY_OBJECT
  5
38
102
{ACAD_REACTORS
330
2A
102
}
330
2A
100
AcDbProxyObject
 90
      499
 91
      501
 93
      444
310
42D31A5B995C185D1D195C9B90E409028333333333333E3BF0000000000000FB010790141107004050750841D405064090741402483A0350
1001
ACAD
1000
AcDbSavedByObjectVersion
1070
     0
  0
ACAD_PROXY_OBJECT
  5
33
102
{ACAD_REACTORS
330
2A
102
}
330
2A
100
AcDbProxyObject
 90
      499
 91
      501
 93
      420
310
425499585B1A5CDD1A58D08409028333333333333E3BF0000000000000FB01079019070040501508421405064090741402480A1B40
1001
ACAD
1000
AcDbSavedByObjectVersion
1070
     0
  0
ACAD_PROXY_OBJECT
  5
37
102
{ACAD_REACTORS
330
2A
102
}
330
2A
100
AcDbProxyObject
 90
      499
 91
      501
 93
      412
310
41D51A1A58DAD95B90D409028333333333333E3BF0000000000000FB010790141107004050150C41D405064090741402480A0350
1001
ACAD
1000
AcDbSavedByObjectVersion
1070
     0
  0
XRECORD
  5
1BA
102
{ACAD_REACTORS
330
1B1
102
}
330
1B1
100
AcDbXrecord
 90
        0
  0
XRECORD
  5
1D0
102
{ACAD_REACTORS
330
1B1
102
}
330
1B1
100
AcDbXrecord
1000
DSTYLE
1002
{
1070
   340
340
11
1002
}
  0
XRECORD
  5
1BB
102
{ACAD_REACTORS
330
1B1
102
}
330
1B1
100
AcDbXrecord
  1
{4D21DB92-ECA1-4DEE-9099-E5916582E063}
  0
XRECORD
  5
1B4
102
{ACAD_REACTORS
330
1B1
102
}
330
1B1
100
AcDbXrecord
  1

  0
XRECORD
  5
1B9
102
{ACAD_REACTORS
330
1B1
102
}
330
1B1
100
AcDbXrecord
 90
        1
  0
XRECORD
  5
1B6
102
{ACAD_REACTORS
330
1B1
102
}
330
1B1
100
AcDbXrecord
340
1A
  0
XRECORD
  5
1B8
102
{ACAD_REACTORS
330
1B1
102
}
330
1B1
100
AcDbXrecord
 90
    10781
  0
XRECORD
  5
1B7
102
{ACAD_REACTORS
330
1B1
102
}
330
1B1
100
AcDbXrecord
340
19
  0
XRECORD
  5
1BD
102
{ACAD_REACTORS
330
1B1
102
}
330
1B1
100
AcDbXrecord
 40
0.0
  0
XRECORD
  5
1C0
102
{ACAD_REACTORS
330
1B1
102
}
330
1B1
100
AcDbXrecord
340
0
  0
XRECORD
  5
1C6
102
{ACAD_REACTORS
330
1B1
102
}
330
1B1
100
AcDbXrecord
 10
0.0
 20
0.0
 30
0.0
  0
XRECORD
  5
1C2
102
{ACAD_REACTORS
330
1B1
102
}
330
1B1
100
AcDbXrecord
 10
0.0
 20
0.0
 30
0.0
  0
XRECORD
  5
1C5
102
{ACAD_REACTORS
330
1B1
102
}
330
1B1
100
AcDbXrecord
 10
0.0
 20
0.0
 30
0.0
  0
XRECORD
  5
1C3
102
{ACAD_REACTORS
330
1B1
102
}
330
1B1
100
AcDbXrecord
 10
0.0
 20
0.0
 30
0.0
  0
XRECORD
  5
1C4
102
{ACAD_REACTORS
330
1B1
102
}
330
1B1
100
AcDbXrecord
 10
0.0
 20
0.0
 30
0.0
  0
XRECORD
  5
1C1
102
{ACAD_REACTORS
330
1B1
102
}
330
1B1
100
AcDbXrecord
 10
0.0
 20
0.0
 30
0.0
  0
XRECORD
  5
1BE
102
{ACAD_REACTORS
330
1B1
102
}
330
1B1
100
AcDbXrecord
340
0
  0
XRECORD
  5
1BF
102
{ACAD_REACTORS
330
1B1
102
}
330
1B1
100
AcDbXrecord
 70
     0
  0
XRECORD
  5
1B5
102
{ACAD_REACTORS
330
1B1
102
}
330
1B1
100
AcDbXrecord
  1

  0
XRECORD
  5
1B2
102
{ACAD_REACTORS
330
1B1
102
}
330
1B1
100
AcDbXrecord
 90
        1
  0
XRECORD
  5
1B3
102
{ACAD_REACTORS
330
1B1
102
}
330
1B1
100
AcDbXrecord
 90
       70
  0
XRECORD
  5
1C9
102
{ACAD_REACTORS
330
1B1
102
}
330
1B1
100
AcDbXrecord
340
0
  0
XRECORD
  5
1CF
102
{ACAD_REACTORS
330
1B1
102
}
330
1B1
100
AcDbXrecord
 10
0.0
 20
0.0
 30
0.0
  0
XRECORD
  5
1CB
102
{ACAD_REACTORS
330
1B1
102
}
330
1B1
100
AcDbXrecord
 10
0.0
 20
0.0
 30
0.0
  0
XRECORD
  5
1CE
102
{ACAD_REACTORS
330
1B1
102
}
330
1B1
100
AcDbXrecord
 10
0.0
 20
0.0
 30
0.0
  0
XRECORD
  5
1CC
102
{ACAD_REACTORS
330
1B1
102
}
330
1B1
100
AcDbXrecord
 10
0.0
 20
0.0
 30
0.0
  0
XRECORD
  5
1CD
102
{ACAD_REACTORS
330
1B1
102
}
330
1B1
100
AcDbXrecord
 10
0.0
 20
0.0
 30
0.0
  0
XRECORD
  5
1CA
102
{ACAD_REACTORS
330
1B1
102
}
330
1B1
100
AcDbXrecord
 10
0.0
 20
0.0
 30
0.0
  0
XRECORD
  5
1C7
102
{ACAD_REACTORS
330
1B1
102
}
330
1B1
100
AcDbXrecord
340
0
  0
XRECORD
  5
1C8
102
{ACAD_REACTORS
330
1B1
102
}
330
1B1
100
AcDbXrecord
 70
     0
  0
XRECORD
  5
1BC
102
{ACAD_REACTORS
330
1B1
102
}
330
1B1
100
AcDbXrecord
  1
{FAEB1C32-E019-11D5-929B-00C0DF256EC4}
  0
DICTIONARYVAR
  5
1D4
102
{ACAD_REACTORS
330
1D1
102
}
330
1D1
100
DictionaryVariables
280
     0
  1
2
  0
DICTIONARYVAR
  5
1D5
102
{ACAD_REACTORS
330
1D1
102
}
330
1D1
100
DictionaryVariables
280
     0
  1
1
  0
DICTIONARY
  5
1D8
330
3D
100
AcDbDictionary
280
     1
  3
ACAD_XREC_ROUNDTRIP
360
1D9
  0
DICTIONARY
  5
1D6
330
3C
100
AcDbDictionary
280
     1
  3
ACAD_XREC_ROUNDTRIP
360
1D7
  0
DICTIONARY
  5
1DA
330
3E
100
AcDbDictionary
280
     1
  3
ACAD_XREC_ROUNDTRIP
360
1DB
  0
XRECORD
  5
1D9
102
{ACAD_REACTORS
330
1D8
102
}
330
1D8
100
AcDbXrecord
102
MATERIAL
148
0.0
149
0.0
149
0.0
 93
        0
 94
      127
282
     0
 72
     1
 77
     1
171
     1
175
     1
179
     1
273
     0
  0
XRECORD
  5
1D7
102
{ACAD_REACTORS
330
1D6
102
}
330
1D6
100
AcDbXrecord
102
MATERIAL
148
0.0
149
0.0
149
0.0
 93
        0
 94
      127
282
     0
 72
     1
 77
     1
171
     1
175
     1
179
     1
273
     0
  0
XRECORD
  5
1DB
102
{ACAD_REACTORS
330
1DA
102
}
330
1DA
100
AcDbXrecord
102
MATERIAL
148
0.0
149
0.0
149
0.0
 93
        0
 94
      127
282
     0
 72
     1
 77
     1
171
     1
175
     1
179
     1
273
     0
  0
ENDSEC
  0
EOF
