  0
SECTION
  2
HEADER
  9
$ACADVER
  1
AC1014
  9
$ACADMAINTVER
 70
     9
  9
$DWGCODEPAGE
  3
ANSI_1252
  9
$INSBASE
 10
0.0
 20
0.0
 30
0.0
  9
$EXTMIN
 10
1.000000000000000E+20
 20
1.000000000000000E+20
 30
1.000000000000000E+20
  9
$EXTMAX
 10
-1.000000000000000E+20
 20
-1.000000000000000E+20
 30
-1.000000000000000E+20
  9
$LIMMIN
 10
0.0
 20
0.0
  9
$LIMMAX
 10
12.0
 20
9.0
  9
$ORTHOMODE
 70
     0
  9
$REGENMODE
 70
     1
  9
$FILLMODE
 70
     1
  9
$QTEXTMODE
 70
     0
  9
$MIRRTEXT
 70
     1
  9
$DRAGMODE
 70
     2
  9
$LTSCALE
 40
1.0
  9
$OSMODE
 70
    37
  9
$ATTMODE
 70
     1
  9
$TEXTSIZE
 40
0.2
  9
$TRACEWID
 40
0.05
  9
$TEXTSTYLE
  7
STANDARD
  9
$CLAYER
  8
0
  9
$CELTYPE
  6
BYLAYER
  9
$CECOLOR
 62
   256
  9
$CELTSCALE
 40
1.0
  9
$DELOBJ
 70
     1
  9
$DISPSILH
 70
     0
  9
$DIMSCALE
 40
1.0
  9
$DIMASZ
 40
0.18
  9
$DIMEXO
 40
0.0625
  9
$DIMDLI
 40
0.38
  9
$DIMRND
 40
0.0
  9
$DIMDLE
 40
0.0
  9
$DIMEXE
 40
0.18
  9
$DIMTP
 40
0.0
  9
$DIMTM
 40
0.0
  9
$DIMTXT
 40
0.18
  9
$DIMCEN
 40
0.09
  9
$DIMTSZ
 40
0.0
  9
$DIMTOL
 70
     0
  9
$DIMLIM
 70
     0
  9
$DIMTIH
 70
     1
  9
$DIMTOH
 70
     1
  9
$DIMSE1
 70
     0
  9
$DIMSE2
 70
     0
  9
$DIMTAD
 70
     0
  9
$DIMZIN
 70
     0
  9
$DIMBLK
  1

  9
$DIMASO
 70
     1
  9
$DIMSHO
 70
     1
  9
$DIMPOST
  1

  9
$DIMAPOST
  1

  9
$DIMALT
 70
     0
  9
$DIMALTD
 70
     2
  9
$DIMALTF
 40
25.4
  9
$DIMLFAC
 40
1.0
  9
$DIMTOFL
 70
     0
  9
$DIMTVP
 40
0.0
  9
$DIMTIX
 70
     0
  9
$DIMSOXD
 70
     0
  9
$DIMSAH
 70
     0
  9
$DIMBLK1
  1

  9
$DIMBLK2
  1

  9
$DIMSTYLE
  2
STANDARD
  9
$DIMCLRD
 70
     0
  9
$DIMCLRE
 70
     0
  9
$DIMCLRT
 70
     0
  9
$DIMTFAC
 40
1.0
  9
$DIMGAP
 40
0.09
  9
$DIMJUST
 70
     0
  9
$DIMSD1
 70
     0
  9
$DIMSD2
 70
     0
  9
$DIMTOLJ
 70
     1
  9
$DIMTZIN
 70
     0
  9
$DIMALTZ
 70
     0
  9
$DIMALTTZ
 70
     0
  9
$DIMFIT
 70
     3
  9
$DIMUPT
 70
     0
  9
$DIMUNIT
 70
     2
  9
$DIMDEC
 70
     4
  9
$DIMTDEC
 70
     4
  9
$DIMALTU
 70
     2
  9
$DIMALTTD
 70
     2
  9
$DIMTXSTY
  7
STANDARD
  9
$DIMAUNIT
 70
     0
  9
$LUNITS
 70
     2
  9
$LUPREC
 70
     4
  9
$SKETCHINC
 40
0.1
  9
$FILLETRAD
 40
0.5
  9
$AUNITS
 70
     0
  9
$AUPREC
 70
     0
  9
$MENU
  1
.
  9
$ELEVATION
 40
0.0
  9
$PELEVATION
 40
0.0
  9
$THICKNESS
 40
0.0
  9
$LIMCHECK
 70
     0
  9
$CHAMFERA
 40
0.0
  9
$CHAMFERB
 40
0.0
  9
$CHAMFERC
 40
0.0
  9
$CHAMFERD
 40
0.0
  9
$SKPOLY
 70
     0
  9
$TDCREATE
 40
2457596.687337766
  9
$TDUPDATE
 40
2457596.687389491
  9
$TDINDWG
 40
0.0000000116
  9
$TDUSRTIMER
 40
0.0000000116
  9
$USRTIMER
 70
     1
  9
$ANGBASE
 50
0.0
  9
$ANGDIR
 70
     0
  9
$PDMODE
 70
     0
  9
$PDSIZE
 40
0.0
  9
$PLINEWID
 40
0.0
  9
$COORDS
 70
     1
  9
$SPLFRAME
 70
     0
  9
$SPLINETYPE
 70
     6
  9
$SPLINESEGS
 70
     8
  9
$ATTDIA
 70
     0
  9
$ATTREQ
 70
     1
  9
$HANDLING
 70
     1
  9
$HANDSEED
  5
2C9
  9
$SURFTAB1
 70
     6
  9
$SURFTAB2
 70
     6
  9
$SURFTYPE
 70
     6
  9
$SURFU
 70
     6
  9
$SURFV
 70
     6
  9
$UCSNAME
  2

  9
$UCSORG
 10
0.0
 20
0.0
 30
0.0
  9
$UCSXDIR
 10
1.0
 20
0.0
 30
0.0
  9
$UCSYDIR
 10
0.0
 20
1.0
 30
0.0
  9
$PUCSNAME
  2

  9
$PUCSORG
 10
0.0
 20
0.0
 30
0.0
  9
$PUCSXDIR
 10
1.0
 20
0.0
 30
0.0
  9
$PUCSYDIR
 10
0.0
 20
1.0
 30
0.0
  9
$USERI1
 70
     0
  9
$USERI2
 70
     0
  9
$USERI3
 70
     0
  9
$USERI4
 70
     0
  9
$USERI5
 70
     0
  9
$USERR1
 40
0.0
  9
$USERR2
 40
0.0
  9
$USERR3
 40
0.0
  9
$USERR4
 40
0.0
  9
$USERR5
 40
0.0
  9
$WORLDVIEW
 70
     1
  9
$SHADEDGE
 70
     3
  9
$SHADEDIF
 70
    70
  9
$TILEMODE
 70
     1
  9
$MAXACTVP
 70
    64
  9
$PINSBASE
 10
0.0
 20
0.0
 30
0.0
  9
$PLIMCHECK
 70
     0
  9
$PEXTMIN
 10
1.000000000000000E+20
 20
1.000000000000000E+20
 30
1.000000000000000E+20
  9
$PEXTMAX
 10
-1.000000000000000E+20
 20
-1.000000000000000E+20
 30
-1.000000000000000E+20
  9
$PLIMMIN
 10
0.0
 20
0.0
  9
$PLIMMAX
 10
12.0
 20
9.0
  9
$UNITMODE
 70
     0
  9
$VISRETAIN
 70
     1
  9
$PLINEGEN
 70
     0
  9
$PSLTSCALE
 70
     1
  9
$TREEDEPTH
 70
  3020
  9
$PICKSTYLE
 70
     1
  9
$CMLSTYLE
  2
STANDARD
  9
$CMLJUST
 70
     0
  9
$CMLSCALE
 40
1.0
  9
$PROXYGRAPHICS
 70
     1
  9
$MEASUREMENT
 70
     1
  0
ENDSEC
  0
SECTION
  2
CLASSES
  0
CLASS
  1
ACDBDICTIONARYWDFLT
  2
AcDbDictionaryWithDefault
  3
ObjectDBX Classes
 90
        0
280
     0
281
     0
  0
CLASS
  1
VISUALSTYLE
  2
AcDbVisualStyle
  3
ObjectDBX Classes
 90
     4095
280
     0
281
     0
  0
CLASS
  1
MATERIAL
  2
AcDbMaterial
  3
ObjectDBX Classes
 90
     1153
280
     0
281
     0
  0
CLASS
  1
SCALE
  2
AcDbScale
  3
ObjectDBX Classes
 90
     1153
280
     0
281
     0
  0
CLASS
  1
SUN
  2
AcDbSun
  3
SCENEOE
 90
     1153
280
     0
281
     0
  0
CLASS
  1
DICTIONARYVAR
  2
AcDbDictionaryVar
  3
ObjectDBX Classes
 90
        0
280
     0
281
     0
  0
CLASS
  1
XRECORD
  2
AcDbXrecord
  3
ObjectDBX Classes
 90
        0
280
     0
281
     0
  0
CLASS
  1
LWPOLYLINE
  2
AcDbPolyline
  3
ObjectDBX Classes
 90
        0
280
     0
281
     1
  0
CLASS
  1
HATCH
  2
AcDbHatch
  3
ObjectDBX Classes
 90
        0
280
     0
281
     1
  0
CLASS
  1
ACDBPLACEHOLDER
  2
AcDbPlaceHolder
  3
ObjectDBX Classes
 90
        0
280
     0
281
     0
  0
CLASS
  1
LAYOUT
  2
AcDbLayout
  3
ObjectDBX Classes
 90
        0
280
     0
281
     0
  0
ENDSEC
  0
SECTION
  2
TABLES
  0
TABLE
  2
VPORT
  5
8
102
{ACAD_XDICTIONARY
360
2BF
102
}
330
0
100
AcDbSymbolTable
 70
     1
  0
VPORT
  5
29
330
8
100
AcDbSymbolTableRecord
100
AcDbViewportTableRecord
  2
*ACTIVE
 70
     0
 10
0.0
 20
0.0
 11
1.0
 21
1.0
 12
0.0
 22
0.0
 13
0.0
 23
0.0
 14
0.5
 24
0.5
 15
0.5
 25
0.5
 16
0.0
 26
0.0
 36
1.0
 17
0.0
 27
0.0
 37
-1000.0
 40
337.8947368421058
 41
1.391891891891892
 42
50.0
 43
0.8226676996851899
 44
822.6676996851899
 50
0.0
 51
0.0
 71
     0
 72
   100
 73
     1
 74
     3
 75
     0
 76
     0
 77
     0
 78
     0
  0
ENDTAB
  0
TABLE
  2
LTYPE
  5
5
330
0
100
AcDbSymbolTable
 70
     1
  0
LTYPE
  5
14
330
5
100
AcDbSymbolTableRecord
100
AcDbLinetypeTableRecord
  2
BYBLOCK
 70
     0
  3

 72
    65
 73
     0
 40
0.0
  0
LTYPE
  5
15
330
5
100
AcDbSymbolTableRecord
100
AcDbLinetypeTableRecord
  2
BYLAYER
 70
     0
  3

 72
    65
 73
     0
 40
0.0
  0
LTYPE
  5
16
330
5
100
AcDbSymbolTableRecord
100
AcDbLinetypeTableRecord
  2
CONTINUOUS
 70
     0
  3
Solid line
 72
    65
 73
     0
 40
0.0
  0
ENDTAB
  0
TABLE
  2
LAYER
  5
2
330
0
100
AcDbSymbolTable
 70
     3
  0
LAYER
  5
10
330
2
100
AcDbSymbolTableRecord
100
AcDbLayerTableRecord
  2
0
 70
     0
 62
     7
  6
CONTINUOUS
  0
LAYER
  5
6A
330
2
100
AcDbSymbolTableRecord
100
AcDbLayerTableRecord
  2
PROFILEEDGES
 70
     0
 62
     7
  6
CONTINUOUS
  0
LAYER
  5
6B
330
2
100
AcDbSymbolTableRecord
100
AcDbLayerTableRecord
  2
SECTIONCUTEDGES
 70
     0
 62
     7
  6
CONTINUOUS
  0
ENDTAB
  0
TABLE
  2
STYLE
  5
3
330
0
100
AcDbSymbolTable
 70
     1
  0
STYLE
  5
11
330
3
100
AcDbSymbolTableRecord
100
AcDbTextStyleTableRecord
  2
STANDARD
 70
     0
 40
0.0
 41
1.0
 50
0.0
 71
     0
 42
0.2
  3
txt
  4

  0
ENDTAB
  0
TABLE
  2
VIEW
  5
6
330
0
100
AcDbSymbolTable
 70
     0
  0
ENDTAB
  0
TABLE
  2
UCS
  5
7
330
0
100
AcDbSymbolTable
 70
     0
  0
ENDTAB
  0
TABLE
  2
APPID
  5
9
330
0
100
AcDbSymbolTable
 70
     1
  0
APPID
  5
12
330
9
100
AcDbSymbolTableRecord
100
AcDbRegAppTableRecord
  2
ACAD
 70
     0
  0
ENDTAB
  0
TABLE
  2
DIMSTYLE
  5
A
330
0
100
AcDbSymbolTable
 70
     1
  0
DIMSTYLE
105
27
330
A
100
AcDbSymbolTableRecord
100
AcDbDimStyleTableRecord
  2
STANDARD
 70
     0
  3

  4

  5

  6

  7

 40
1.0
 41
0.18
 42
0.0625
 43
0.38
 44
0.18
 45
0.0
 46
0.0
 47
0.0
 48
0.0
140
0.18
141
0.09
142
0.0
143
25.4
144
1.0
145
0.0
146
1.0
147
0.09
 71
     0
 72
     0
 73
     1
 74
     1
 75
     0
 76
     0
 77
     0
 78
     0
170
     0
171
     2
172
     0
173
     0
174
     0
175
     0
176
     0
177
     0
178
     0
270
     2
271
     4
272
     4
273
     2
274
     2
340
11
275
     0
280
     0
281
     0
282
     0
283
     1
284
     0
285
     0
286
     0
287
     3
288
     0
  0
ENDTAB
  0
TABLE
  2
BLOCK_RECORD
  5
1
330
0
100
AcDbSymbolTable
 70
     1
  0
BLOCK_RECORD
  5
1F
330
1
100
AcDbSymbolTableRecord
100
AcDbBlockTableRecord
  2
*MODEL_SPACE
  0
BLOCK_RECORD
  5
1B
330
1
100
AcDbSymbolTableRecord
100
AcDbBlockTableRecord
  2
*PAPER_SPACE
  0
ENDTAB
  0
ENDSEC
  0
SECTION
  2
BLOCKS
  0
BLOCK
  5
20
330
1F
100
AcDbEntity
  8
0
100
AcDbBlockBegin
  2
*MODEL_SPACE
 70
     0
 10
0.0
 20
0.0
 30
0.0
  3
*MODEL_SPACE
  1

  0
ENDBLK
  5
21
330
1F
100
AcDbEntity
  8
0
100
AcDbBlockEnd
  0
BLOCK
  5
1C
330
1B
100
AcDbEntity
 67
     1
  8
0
100
AcDbBlockBegin
  2
*PAPER_SPACE
 70
     0
 10
0.0
 20
0.0
 30
0.0
  3
*PAPER_SPACE
  1

  0
ENDBLK
  5
1D
330
1B
100
AcDbEntity
 67
     1
  8
0
100
AcDbBlockEnd
  0
ENDSEC
  0
SECTION
  2
ENTITIES
  0
LINE
  5
6C
330
1F
100
AcDbEntity
  8
0
100
AcDbLine
 10
87.70096189432326
 20
85.25000000000064
 30
0.0
 11
87.93933982822004
 21
85.56066017178061
 31
0.0
  0
LINE
  5
6D
330
1F
100
AcDbEntity
  8
0
100
AcDbLine
 10
88.24999999999983
 20
85.79903810567721
 30
0.0
 11
87.93933982822004
 21
85.56066017178061
 31
0.0
  0
LINE
  5
6E
330
1F
100
AcDbEntity
  8
0
100
AcDbLine
 10
88.61177143234595
 20
85.94888873943432
 30
0.0
 11
88.24999999999983
 21
85.79903810567721
 31
0.0
  0
LINE
  5
6F
330
1F
100
AcDbEntity
  8
0
100
AcDbLine
 10
89.00000000000001
 20
86.00000000000047
 30
0.0
 11
88.61177143234595
 21
85.94888873943432
 31
0.0
  0
LINE
  5
70
330
1F
100
AcDbEntity
  8
0
100
AcDbLine
 10
89.38822856765346
 20
85.94888873943415
 30
0.0
 11
89.00000000000001
 21
86.00000000000047
 31
0.0
  0
LINE
  5
71
330
1F
100
AcDbEntity
  8
0
100
AcDbLine
 10
103.5988304800912
 20
-151.4971850307453
 30
0.0
 11
103.2250000000001
 21
-151.3423393758631
 31
0.0
  0
LINE
  5
72
330
1F
100
AcDbEntity
  8
0
100
AcDbLine
 10
103.2250000000001
 20
-151.3423393758631
 30
0.0
 11
102.903984489161
 21
-151.0960155108364
 31
0.0
  0
LINE
  5
73
330
1F
100
AcDbEntity
  8
0
100
AcDbLine
 10
102.903984489161
 20
-151.0960155108364
 30
0.0
 11
102.6576606241343
 21
-150.7749999999973
 31
0.0
  0
LINE
  5
74
330
1F
100
AcDbEntity
  8
0
100
AcDbLine
 10
102.6576606241343
 20
-150.7749999999973
 30
0.0
 11
102.5028149692521
 21
-150.4011695199061
 31
0.0
  0
LINE
  5
75
330
1F
100
AcDbEntity
  8
0
100
AcDbLine
 10
102.5028149692521
 20
-150.4011695199061
 30
0.0
 11
102.4500000000001
 21
-149.9999999999973
 31
0.0
  0
LINE
  5
76
330
1F
100
AcDbEntity
  8
0
100
AcDbLine
 10
100.9999999888241
 20
-85.99999999999777
 30
0.0
 11
100.611771419752
 21
-85.9488887360565
 31
0.0
  0
LINE
  5
77
330
1F
100
AcDbEntity
  8
0
100
AcDbLine
 10
119.1431513269327
 20
-97.95662457658365
 30
0.0
 11
119.5377285170746
 21
-98.04626410860415
 31
0.0
  0
LINE
  5
78
330
1F
100
AcDbEntity
  8
0
100
AcDbLine
 10
-129.4999999999999
 20
160.5000000000005
 30
0.0
 11
129.5000000000001
 21
160.5000000000005
 31
0.0
  0
LINE
  5
79
330
1F
100
AcDbEntity
  8
0
100
AcDbLine
 10
-129.4999999999999
 20
160.5000000000005
 30
0.0
 11
-129.4999999999999
 21
-160.5000000000003
 31
0.0
  0
LINE
  5
7A
330
1F
100
AcDbEntity
  8
0
100
AcDbLine
 10
129.5000000000001
 20
-160.5000000000003
 30
0.0
 11
-129.4999999999999
 21
-160.5000000000003
 31
0.0
  0
LINE
  5
7B
330
1F
100
AcDbEntity
  8
0
100
AcDbLine
 10
129.5000000000001
 20
160.5000000000005
 30
0.0
 11
129.5000000000001
 21
-160.5000000000003
 31
0.0
  0
LINE
  5
7C
330
1F
100
AcDbEntity
  8
0
100
AcDbLine
 10
102.5000000000001
 20
-15.49999999999738
 30
0.0
 11
102.5000000000001
 21
-84.49999999999774
 31
0.0
  0
LINE
  5
7D
330
1F
100
AcDbEntity
  8
0
100
AcDbLine
 10
102.5000000000001
 20
-84.49999999999774
 30
0.0
 11
102.4488887389515
 21
-84.88822856945065
 31
0.0
  0
LINE
  5
7E
330
1F
100
AcDbEntity
  8
0
100
AcDbLine
 10
102.4488887389515
 20
-84.88822856945065
 30
0.0
 11
102.2990381038143
 21
-85.2500000032238
 31
0.0
  0
LINE
  5
7F
330
1F
100
AcDbEntity
  8
0
100
AcDbLine
 10
102.2990381038143
 20
-85.2500000032238
 30
0.0
 11
102.0606601678286
 21
-85.56066017572857
 31
0.0
  0
LINE
  5
80
330
1F
100
AcDbEntity
  8
0
100
AcDbLine
 10
102.0606601678286
 20
-85.56066017572857
 30
0.0
 11
101.7499999935476
 21
-85.79903810939958
 31
0.0
  0
LINE
  5
81
330
1F
100
AcDbEntity
  8
0
100
AcDbLine
 10
101.7499999935476
 20
-85.79903810939958
 30
0.0
 11
101.388228558658
 21
-85.94888874184154
 31
0.0
  0
LINE
  5
82
330
1F
100
AcDbEntity
  8
0
100
AcDbLine
 10
101.388228558658
 20
-85.94888874184154
 30
0.0
 11
100.9999999888241
 21
-85.99999999999777
 31
0.0
  0
LINE
  5
83
330
1F
100
AcDbEntity
  8
0
100
AcDbLine
 10
100.611771419752
 20
-85.9488887360565
 30
0.0
 11
100.2499999870953
 21
-85.79903809822385
 31
0.0
  0
LINE
  5
84
330
1F
100
AcDbEntity
  8
0
100
AcDbLine
 10
100.2499999870953
 20
-85.79903809822385
 30
0.0
 11
99.93933981636646
 21
-85.5606601599234
 31
0.0
  0
LINE
  5
85
330
1F
100
AcDbEntity
  8
0
100
AcDbLine
 10
99.93933981636646
 20
-85.5606601599234
 30
0.0
 11
99.70096188501007
 21
-85.24999998386683
 31
0.0
  0
LINE
  5
86
330
1F
100
AcDbEntity
  8
0
100
AcDbLine
 10
99.70096188501007
 20
-85.24999998386683
 30
0.0
 11
99.55111125526355
 21
-84.88822854786044
 31
0.0
  0
LINE
  5
87
330
1F
100
AcDbEntity
  8
0
100
AcDbLine
 10
99.55111125526355
 20
-84.88822854786044
 30
0.0
 11
99.5000000000002
 21
-84.49999999999739
 31
0.0
  0
LINE
  5
88
330
1F
100
AcDbEntity
  8
0
100
AcDbLine
 10
99.5000000000002
 20
-84.49999999999739
 30
0.0
 11
99.49999999999984
 21
-15.49999999999756
 31
0.0
  0
LINE
  5
89
330
1F
100
AcDbEntity
  8
0
100
AcDbLine
 10
99.55111126056634
 20
-15.11177143234367
 30
0.0
 11
99.49999999999984
 21
-15.49999999999756
 31
0.0
  0
LINE
  5
8A
330
1F
100
AcDbEntity
  8
0
100
AcDbLine
 10
99.70096189432327
 20
-14.74999999999755
 30
0.0
 11
99.55111126056634
 21
-15.11177143234367
 31
0.0
  0
LINE
  5
8B
330
1F
100
AcDbEntity
  8
0
100
AcDbLine
 10
99.93933982822024
 20
-14.43933982821758
 30
0.0
 11
99.70096189432327
 21
-14.74999999999755
 31
0.0
  0
LINE
  5
8C
330
1F
100
AcDbEntity
  8
0
100
AcDbLine
 10
100.25
 20
-14.20096189432079
 30
0.0
 11
99.93933982822024
 21
-14.43933982821758
 31
0.0
  0
LINE
  5
8D
330
1F
100
AcDbEntity
  8
0
100
AcDbLine
 10
100.6117714323463
 20
-14.05111126056386
 30
0.0
 11
100.25
 21
-14.20096189432079
 31
0.0
  0
LINE
  5
8E
330
1F
100
AcDbEntity
  8
0
100
AcDbLine
 10
101.0
 20
-13.99999999999736
 30
0.0
 11
100.6117714323463
 21
-14.05111126056386
 31
0.0
  0
LINE
  5
8F
330
1F
100
AcDbEntity
  8
0
100
AcDbLine
 10
101.3882285676539
 20
-14.05111126056368
 30
0.0
 11
101.0
 21
-13.99999999999736
 31
0.0
  0
LINE
  5
90
330
1F
100
AcDbEntity
  8
0
100
AcDbLine
 10
101.75
 20
-14.20096189432079
 30
0.0
 11
101.3882285676539
 21
-14.05111126056368
 31
0.0
  0
LINE
  5
91
330
1F
100
AcDbEntity
  8
0
100
AcDbLine
 10
102.0606601717798
 20
-14.43933982821776
 30
0.0
 11
101.75
 21
-14.20096189432079
 31
0.0
  0
LINE
  5
92
330
1F
100
AcDbEntity
  8
0
100
AcDbLine
 10
102.2990381056768
 20
-14.74999999999737
 30
0.0
 11
102.0606601717798
 21
-14.43933982821776
 31
0.0
  0
LINE
  5
93
330
1F
100
AcDbEntity
  8
0
100
AcDbLine
 10
102.4488887394337
 20
-15.11177143234349
 30
0.0
 11
102.2990381056768
 21
-14.74999999999737
 31
0.0
  0
LINE
  5
94
330
1F
100
AcDbEntity
  8
0
100
AcDbLine
 10
102.5000000000001
 20
-15.49999999999738
 30
0.0
 11
102.4488887394337
 21
-15.11177143234349
 31
0.0
  0
LINE
  5
95
330
1F
100
AcDbEntity
  8
0
100
AcDbLine
 10
114.5
 20
84.50000000000027
 30
0.0
 11
114.5
 21
15.50000000000225
 31
0.0
  0
LINE
  5
96
330
1F
100
AcDbEntity
  8
0
100
AcDbLine
 10
114.5
 20
15.50000000000225
 30
0.0
 11
114.4488887389517
 21
15.11177143054954
 31
0.0
  0
LINE
  5
97
330
1F
100
AcDbEntity
  8
0
100
AcDbLine
 10
114.4488887389517
 20
15.11177143054954
 30
0.0
 11
114.2990381038141
 21
14.7499999967762
 31
0.0
  0
LINE
  5
98
330
1F
100
AcDbEntity
  8
0
100
AcDbLine
 10
114.2990381038141
 20
14.7499999967762
 30
0.0
 11
114.0606601678286
 21
14.43933982427125
 31
0.0
  0
LINE
  5
99
330
1F
100
AcDbEntity
  8
0
100
AcDbLine
 10
114.0606601678286
 20
14.43933982427125
 30
0.0
 11
113.7499999935478
 21
14.2009618906006
 31
0.0
  0
LINE
  5
9A
330
1F
100
AcDbEntity
  8
0
100
AcDbLine
 10
113.7499999935478
 20
14.2009618906006
 30
0.0
 11
113.388228558658
 21
14.05111125815846
 31
0.0
  0
LINE
  5
9B
330
1F
100
AcDbEntity
  8
0
100
AcDbLine
 10
113.388228558658
 20
14.05111125815846
 30
0.0
 11
112.9999999888241
 21
14.00000000000241
 31
0.0
  0
LINE
  5
9C
330
1F
100
AcDbEntity
  8
0
100
AcDbLine
 10
112.9999999888241
 20
14.00000000000241
 30
0.0
 11
112.6117714197521
 21
14.05111126394331
 31
0.0
  0
LINE
  5
9D
330
1F
100
AcDbEntity
  8
0
100
AcDbLine
 10
112.6117714197521
 20
14.05111126394331
 30
0.0
 11
112.2499999870951
 21
14.20096190177633
 31
0.0
  0
LINE
  5
9E
330
1F
100
AcDbEntity
  8
0
100
AcDbLine
 10
112.2499999870951
 20
14.20096190177633
 30
0.0
 11
111.9393398163664
 21
14.43933984007641
 31
0.0
  0
LINE
  5
9F
330
1F
100
AcDbEntity
  8
0
100
AcDbLine
 10
111.9393398163664
 20
14.43933984007641
 30
0.0
 11
111.7009618850102
 21
14.75000001613335
 31
0.0
  0
LINE
  5
A0
330
1F
100
AcDbEntity
  8
0
100
AcDbLine
 10
111.7009618850102
 20
14.75000001613335
 30
0.0
 11
111.5511112552635
 21
15.11177145213956
 31
0.0
  0
LINE
  5
A1
330
1F
100
AcDbEntity
  8
0
100
AcDbLine
 10
111.5511112552635
 20
15.11177145213956
 30
0.0
 11
111.5
 21
15.50000000000225
 31
0.0
  0
LINE
  5
A2
330
1F
100
AcDbEntity
  8
0
100
AcDbLine
 10
111.5
 20
15.50000000000225
 30
0.0
 11
111.5
 21
84.5000000000001
 31
0.0
  0
LINE
  5
A3
330
1F
100
AcDbEntity
  8
0
100
AcDbLine
 10
111.5511112605665
 20
84.88822856765398
 30
0.0
 11
111.5
 21
84.5000000000001
 31
0.0
  0
LINE
  5
A4
330
1F
100
AcDbEntity
  8
0
100
AcDbLine
 10
111.7009618943233
 20
85.2500000000001
 30
0.0
 11
111.5511112605665
 21
84.88822856765398
 31
0.0
  0
LINE
  5
A5
330
1F
100
AcDbEntity
  8
0
100
AcDbLine
 10
111.9393398282202
 20
85.56066017178007
 30
0.0
 11
111.7009618943233
 21
85.2500000000001
 31
0.0
  0
LINE
  5
A6
330
1F
100
AcDbEntity
  8
0
100
AcDbLine
 10
112.25
 20
85.79903810567686
 30
0.0
 11
111.9393398282202
 21
85.56066017178007
 31
0.0
  0
LINE
  5
A7
330
1F
100
AcDbEntity
  8
0
100
AcDbLine
 10
112.6117714323461
 20
85.94888873943378
 30
0.0
 11
112.25
 21
85.79903810567686
 31
0.0
  0
LINE
  5
A8
330
1F
100
AcDbEntity
  8
0
100
AcDbLine
 10
113.0000000000002
 20
86.0000000000003
 30
0.0
 11
112.6117714323461
 21
85.94888873943378
 31
0.0
  0
LINE
  5
A9
330
1F
100
AcDbEntity
  8
0
100
AcDbLine
 10
113.3882285676538
 20
85.94888873943378
 30
0.0
 11
113.0000000000002
 21
86.0000000000003
 31
0.0
  0
LINE
  5
AA
330
1F
100
AcDbEntity
  8
0
100
AcDbLine
 10
113.7499999999998
 20
85.79903810567667
 30
0.0
 11
113.3882285676538
 21
85.94888873943378
 31
0.0
  0
LINE
  5
AB
330
1F
100
AcDbEntity
  8
0
100
AcDbLine
 10
114.0606601717798
 20
85.5606601717799
 30
0.0
 11
113.7499999999998
 21
85.79903810567667
 31
0.0
  0
LINE
  5
AC
330
1F
100
AcDbEntity
  8
0
100
AcDbLine
 10
114.2990381056766
 20
85.2500000000001
 30
0.0
 11
114.0606601717798
 21
85.5606601717799
 31
0.0
  0
LINE
  5
AD
330
1F
100
AcDbEntity
  8
0
100
AcDbLine
 10
114.4488887394339
 20
84.88822856765398
 30
0.0
 11
114.2990381056766
 21
85.2500000000001
 31
0.0
  0
LINE
  5
AE
330
1F
100
AcDbEntity
  8
0
100
AcDbLine
 10
114.5
 20
84.50000000000027
 30
0.0
 11
114.4488887394339
 21
84.88822856765398
 31
0.0
  0
LINE
  5
AF
330
1F
100
AcDbEntity
  8
0
100
AcDbLine
 10
114.4999999999999
 20
-15.49999999999756
 30
0.0
 11
114.5
 21
-84.49999999999774
 31
0.0
  0
LINE
  5
B0
330
1F
100
AcDbEntity
  8
0
100
AcDbLine
 10
114.5
 20
-84.49999999999774
 30
0.0
 11
114.4488887389515
 21
-84.88822856945065
 31
0.0
  0
LINE
  5
B1
330
1F
100
AcDbEntity
  8
0
100
AcDbLine
 10
114.4488887389515
 20
-84.88822856945065
 30
0.0
 11
114.2990381038141
 21
-85.2500000032238
 31
0.0
  0
LINE
  5
B2
330
1F
100
AcDbEntity
  8
0
100
AcDbLine
 10
114.2990381038141
 20
-85.2500000032238
 30
0.0
 11
114.0606601678284
 21
-85.56066017572857
 31
0.0
  0
LINE
  5
B3
330
1F
100
AcDbEntity
  8
0
100
AcDbLine
 10
114.0606601678284
 20
-85.56066017572857
 30
0.0
 11
113.7499999935476
 21
-85.79903810939939
 31
0.0
  0
LINE
  5
B4
330
1F
100
AcDbEntity
  8
0
100
AcDbLine
 10
113.7499999935476
 20
-85.79903810939939
 30
0.0
 11
113.3882285586578
 21
-85.94888874184154
 31
0.0
  0
LINE
  5
B5
330
1F
100
AcDbEntity
  8
0
100
AcDbLine
 10
113.3882285586578
 20
-85.94888874184154
 30
0.0
 11
112.9999999888241
 21
-85.99999999999758
 31
0.0
  0
LINE
  5
B6
330
1F
100
AcDbEntity
  8
0
100
AcDbLine
 10
112.9999999888241
 20
-85.99999999999758
 30
0.0
 11
112.611771419752
 21
-85.94888873605669
 31
0.0
  0
LINE
  5
B7
330
1F
100
AcDbEntity
  8
0
100
AcDbLine
 10
112.611771419752
 20
-85.94888873605669
 30
0.0
 11
112.2499999870953
 21
-85.79903809822366
 31
0.0
  0
LINE
  5
B8
330
1F
100
AcDbEntity
  8
0
100
AcDbLine
 10
112.2499999870953
 20
-85.79903809822366
 30
0.0
 11
111.9393398163664
 21
-85.5606601599234
 31
0.0
  0
LINE
  5
B9
330
1F
100
AcDbEntity
  8
0
100
AcDbLine
 10
111.9393398163664
 20
-85.5606601599234
 30
0.0
 11
111.7009618850102
 21
-85.24999998386646
 31
0.0
  0
LINE
  5
BA
330
1F
100
AcDbEntity
  8
0
100
AcDbLine
 10
111.7009618850102
 20
-85.24999998386646
 30
0.0
 11
111.5511112552634
 21
-84.88822854786044
 31
0.0
  0
LINE
  5
BB
330
1F
100
AcDbEntity
  8
0
100
AcDbLine
 10
111.5511112552634
 20
-84.88822854786044
 30
0.0
 11
111.5
 21
-84.49999999999774
 31
0.0
  0
LINE
  5
BC
330
1F
100
AcDbEntity
  8
0
100
AcDbLine
 10
111.5
 20
-84.49999999999774
 30
0.0
 11
111.5
 21
-15.49999999999756
 31
0.0
  0
LINE
  5
BD
330
1F
100
AcDbEntity
  8
0
100
AcDbLine
 10
111.5511112605665
 20
-15.11177143234367
 30
0.0
 11
111.5
 21
-15.49999999999756
 31
0.0
  0
LINE
  5
BE
330
1F
100
AcDbEntity
  8
0
100
AcDbLine
 10
111.7009618943234
 20
-14.74999999999737
 30
0.0
 11
111.5511112605665
 21
-15.11177143234367
 31
0.0
  0
LINE
  5
BF
330
1F
100
AcDbEntity
  8
0
100
AcDbLine
 10
111.9393398282203
 20
-14.43933982821758
 30
0.0
 11
111.7009618943234
 21
-14.74999999999737
 31
0.0
  0
LINE
  5
C0
330
1F
100
AcDbEntity
  8
0
100
AcDbLine
 10
112.25
 20
-14.20096189432079
 30
0.0
 11
111.9393398282203
 21
-14.43933982821758
 31
0.0
  0
LINE
  5
C1
330
1F
100
AcDbEntity
  8
0
100
AcDbLine
 10
112.6117714323461
 20
-14.05111126056386
 30
0.0
 11
112.25
 21
-14.20096189432079
 31
0.0
  0
LINE
  5
C2
330
1F
100
AcDbEntity
  8
0
100
AcDbLine
 10
112.9999999999999
 20
-13.99999999999754
 30
0.0
 11
112.6117714323461
 21
-14.05111126056386
 31
0.0
  0
LINE
  5
C3
330
1F
100
AcDbEntity
  8
0
100
AcDbLine
 10
113.3882285676537
 20
-14.05111126056386
 30
0.0
 11
112.9999999999999
 21
-13.99999999999754
 31
0.0
  0
LINE
  5
C4
330
1F
100
AcDbEntity
  8
0
100
AcDbLine
 10
113.75
 20
-14.20096189432079
 30
0.0
 11
113.3882285676537
 21
-14.05111126056386
 31
0.0
  0
LINE
  5
C5
330
1F
100
AcDbEntity
  8
0
100
AcDbLine
 10
114.0606601717796
 20
-14.43933982821776
 30
0.0
 11
113.75
 21
-14.20096189432079
 31
0.0
  0
LINE
  5
C6
330
1F
100
AcDbEntity
  8
0
100
AcDbLine
 10
114.2990381056766
 20
-14.74999999999737
 30
0.0
 11
114.0606601717796
 21
-14.43933982821776
 31
0.0
  0
LINE
  5
C7
330
1F
100
AcDbEntity
  8
0
100
AcDbLine
 10
114.4488887394337
 20
-15.11177143234367
 30
0.0
 11
114.2990381056766
 21
-14.74999999999737
 31
0.0
  0
LINE
  5
C8
330
1F
100
AcDbEntity
  8
0
100
AcDbLine
 10
114.4999999999999
 20
-15.49999999999756
 30
0.0
 11
114.4488887394337
 21
-15.11177143234367
 31
0.0
  0
LINE
  5
C9
330
1F
100
AcDbEntity
  8
0
100
AcDbLine
 10
120.5000000000001
 20
-15.49999999999738
 30
0.0
 11
120.5000000000001
 21
-84.49999999999774
 31
0.0
  0
LINE
  5
CA
330
1F
100
AcDbEntity
  8
0
100
AcDbLine
 10
120.5000000000001
 20
-84.49999999999774
 30
0.0
 11
120.4488887389516
 21
-84.88822856945046
 31
0.0
  0
LINE
  5
CB
330
1F
100
AcDbEntity
  8
0
100
AcDbLine
 10
120.4488887389516
 20
-84.88822856945046
 30
0.0
 11
120.299038103814
 21
-85.2500000032238
 31
0.0
  0
LINE
  5
CC
330
1F
100
AcDbEntity
  8
0
100
AcDbLine
 10
120.299038103814
 20
-85.2500000032238
 30
0.0
 11
120.0606601678287
 21
-85.56066017572857
 31
0.0
  0
LINE
  5
CD
330
1F
100
AcDbEntity
  8
0
100
AcDbLine
 10
120.0606601678287
 20
-85.56066017572857
 30
0.0
 11
119.7499999935475
 21
-85.79903810939939
 31
0.0
  0
LINE
  5
CE
330
1F
100
AcDbEntity
  8
0
100
AcDbLine
 10
119.7499999935475
 20
-85.79903810939939
 30
0.0
 11
119.3882285586581
 21
-85.94888874184154
 31
0.0
  0
LINE
  5
CF
330
1F
100
AcDbEntity
  8
0
100
AcDbLine
 10
119.3882285586581
 20
-85.94888874184154
 30
0.0
 11
118.9999999888242
 21
-85.99999999999758
 31
0.0
  0
LINE
  5
D0
330
1F
100
AcDbEntity
  8
0
100
AcDbLine
 10
118.9999999888242
 20
-85.99999999999758
 30
0.0
 11
118.6117714197519
 21
-85.94888873605669
 31
0.0
  0
LINE
  5
D1
330
1F
100
AcDbEntity
  8
0
100
AcDbLine
 10
118.6117714197519
 20
-85.94888873605669
 30
0.0
 11
118.2499999870954
 21
-85.79903809822348
 31
0.0
  0
LINE
  5
D2
330
1F
100
AcDbEntity
  8
0
100
AcDbLine
 10
118.2499999870954
 20
-85.79903809822348
 30
0.0
 11
117.9393398163663
 21
-85.56066015992359
 31
0.0
  0
LINE
  5
D3
330
1F
100
AcDbEntity
  8
0
100
AcDbLine
 10
117.9393398163663
 20
-85.56066015992359
 30
0.0
 11
117.7009618850101
 21
-85.24999998386646
 31
0.0
  0
LINE
  5
D4
330
1F
100
AcDbEntity
  8
0
100
AcDbLine
 10
117.7009618850101
 20
-85.24999998386646
 30
0.0
 11
117.5511112552634
 21
-84.88822854786044
 31
0.0
  0
LINE
  5
D5
330
1F
100
AcDbEntity
  8
0
100
AcDbLine
 10
117.5511112552634
 20
-84.88822854786044
 30
0.0
 11
117.5000000000001
 21
-84.49999999999739
 31
0.0
  0
LINE
  5
D6
330
1F
100
AcDbEntity
  8
0
100
AcDbLine
 10
117.5000000000001
 20
-84.49999999999739
 30
0.0
 11
117.4999999999997
 21
-15.49999999999756
 31
0.0
  0
LINE
  5
D7
330
1F
100
AcDbEntity
  8
0
100
AcDbLine
 10
117.5511112605664
 20
-15.11177143234367
 30
0.0
 11
117.4999999999997
 21
-15.49999999999756
 31
0.0
  0
LINE
  5
D8
330
1F
100
AcDbEntity
  8
0
100
AcDbLine
 10
117.7009618943233
 20
-14.74999999999737
 30
0.0
 11
117.5511112605664
 21
-15.11177143234367
 31
0.0
  0
LINE
  5
D9
330
1F
100
AcDbEntity
  8
0
100
AcDbLine
 10
117.9393398282201
 20
-14.43933982821776
 30
0.0
 11
117.7009618943233
 21
-14.74999999999737
 31
0.0
  0
LINE
  5
DA
330
1F
100
AcDbEntity
  8
0
100
AcDbLine
 10
118.2499999999999
 20
-14.20096189432079
 30
0.0
 11
117.9393398282201
 21
-14.43933982821776
 31
0.0
  0
LINE
  5
DB
330
1F
100
AcDbEntity
  8
0
100
AcDbLine
 10
118.6117714323465
 20
-14.05111126056368
 30
0.0
 11
118.2499999999999
 21
-14.20096189432079
 31
0.0
  0
LINE
  5
DC
330
1F
100
AcDbEntity
  8
0
100
AcDbLine
 10
118.9999999999999
 20
-13.99999999999754
 30
0.0
 11
118.6117714323465
 21
-14.05111126056368
 31
0.0
  0
LINE
  5
DD
330
1F
100
AcDbEntity
  8
0
100
AcDbLine
 10
119.3882285676538
 20
-14.05111126056386
 30
0.0
 11
118.9999999999999
 21
-13.99999999999754
 31
0.0
  0
LINE
  5
DE
330
1F
100
AcDbEntity
  8
0
100
AcDbLine
 10
119.7499999999999
 20
-14.20096189432079
 30
0.0
 11
119.3882285676538
 21
-14.05111126056386
 31
0.0
  0
LINE
  5
DF
330
1F
100
AcDbEntity
  8
0
100
AcDbLine
 10
120.0606601717799
 20
-14.43933982821758
 30
0.0
 11
119.7499999999999
 21
-14.20096189432079
 31
0.0
  0
LINE
  5
E0
330
1F
100
AcDbEntity
  8
0
100
AcDbLine
 10
120.2990381056767
 20
-14.74999999999737
 30
0.0
 11
120.0606601717799
 21
-14.43933982821758
 31
0.0
  0
LINE
  5
E1
330
1F
100
AcDbEntity
  8
0
100
AcDbLine
 10
120.4488887394336
 20
-15.11177143234367
 30
0.0
 11
120.2990381056767
 21
-14.74999999999737
 31
0.0
  0
LINE
  5
E2
330
1F
100
AcDbEntity
  8
0
100
AcDbLine
 10
120.5000000000001
 20
-15.49999999999738
 30
0.0
 11
120.4488887394336
 21
-15.11177143234367
 31
0.0
  0
LINE
  5
E3
330
1F
100
AcDbEntity
  8
0
100
AcDbLine
 10
102.5000000000002
 20
84.50000000000027
 30
0.0
 11
102.4999999999999
 21
15.50000000000225
 31
0.0
  0
LINE
  5
E4
330
1F
100
AcDbEntity
  8
0
100
AcDbLine
 10
102.4999999999999
 20
15.50000000000225
 30
0.0
 11
102.4488887389515
 21
15.11177143054936
 31
0.0
  0
LINE
  5
E5
330
1F
100
AcDbEntity
  8
0
100
AcDbLine
 10
102.4488887389515
 20
15.11177143054936
 30
0.0
 11
102.2990381038141
 21
14.7499999967762
 31
0.0
  0
LINE
  5
E6
330
1F
100
AcDbEntity
  8
0
100
AcDbLine
 10
102.2990381038141
 20
14.7499999967762
 30
0.0
 11
102.0606601678285
 21
14.43933982427125
 31
0.0
  0
LINE
  5
E7
330
1F
100
AcDbEntity
  8
0
100
AcDbLine
 10
102.0606601678285
 20
14.43933982427125
 30
0.0
 11
101.7499999935476
 21
14.20096189060024
 31
0.0
  0
LINE
  5
E8
330
1F
100
AcDbEntity
  8
0
100
AcDbLine
 10
101.7499999935476
 20
14.20096189060024
 30
0.0
 11
101.388228558658
 21
14.05111125815846
 31
0.0
  0
LINE
  5
E9
330
1F
100
AcDbEntity
  8
0
100
AcDbLine
 10
101.388228558658
 20
14.05111125815846
 30
0.0
 11
100.9999999888241
 21
14.00000000000223
 31
0.0
  0
LINE
  5
EA
330
1F
100
AcDbEntity
  8
0
100
AcDbLine
 10
100.9999999888241
 20
14.00000000000223
 30
0.0
 11
100.6117714197522
 21
14.05111126394331
 31
0.0
  0
LINE
  5
EB
330
1F
100
AcDbEntity
  8
0
100
AcDbLine
 10
100.6117714197522
 20
14.05111126394331
 30
0.0
 11
100.2499999870953
 21
14.20096190177615
 31
0.0
  0
LINE
  5
EC
330
1F
100
AcDbEntity
  8
0
100
AcDbLine
 10
100.2499999870953
 20
14.20096190177615
 30
0.0
 11
99.93933981636646
 21
14.43933984007623
 31
0.0
  0
LINE
  5
ED
330
1F
100
AcDbEntity
  8
0
100
AcDbLine
 10
99.93933981636646
 20
14.43933984007623
 30
0.0
 11
99.70096188501026
 21
14.75000001613317
 31
0.0
  0
LINE
  5
EE
330
1F
100
AcDbEntity
  8
0
100
AcDbLine
 10
99.70096188501026
 20
14.75000001613317
 30
0.0
 11
99.55111125526355
 21
15.11177145213956
 31
0.0
  0
LINE
  5
EF
330
1F
100
AcDbEntity
  8
0
100
AcDbLine
 10
99.55111125526355
 20
15.11177145213956
 30
0.0
 11
99.5000000000002
 21
15.50000000000225
 31
0.0
  0
LINE
  5
F0
330
1F
100
AcDbEntity
  8
0
100
AcDbLine
 10
99.5000000000002
 20
15.50000000000225
 30
0.0
 11
99.5000000000002
 21
84.50000000000027
 31
0.0
  0
LINE
  5
F1
330
1F
100
AcDbEntity
  8
0
100
AcDbLine
 10
99.55111126056661
 20
84.88822856765398
 30
0.0
 11
99.5000000000002
 21
84.50000000000027
 31
0.0
  0
LINE
  5
F2
330
1F
100
AcDbEntity
  8
0
100
AcDbLine
 10
99.70096189432346
 20
85.2500000000001
 30
0.0
 11
99.55111126056661
 21
84.88822856765398
 31
0.0
  0
LINE
  5
F3
330
1F
100
AcDbEntity
  8
0
100
AcDbLine
 10
99.93933982822024
 20
85.56066017178007
 30
0.0
 11
99.70096189432346
 21
85.2500000000001
 31
0.0
  0
LINE
  5
F4
330
1F
100
AcDbEntity
  8
0
100
AcDbLine
 10
100.25
 20
85.79903810567667
 30
0.0
 11
99.93933982822024
 21
85.56066017178007
 31
0.0
  0
LINE
  5
F5
330
1F
100
AcDbEntity
  8
0
100
AcDbLine
 10
100.6117714323461
 20
85.94888873943378
 30
0.0
 11
100.25
 21
85.79903810567667
 31
0.0
  0
LINE
  5
F6
330
1F
100
AcDbEntity
  8
0
100
AcDbLine
 10
101.0000000000002
 20
85.99999999999993
 30
0.0
 11
100.6117714323461
 21
85.94888873943378
 31
0.0
  0
LINE
  5
F7
330
1F
100
AcDbEntity
  8
0
100
AcDbLine
 10
101.3882285676537
 20
85.94888873943378
 30
0.0
 11
101.0000000000002
 21
85.99999999999993
 31
0.0
  0
LINE
  5
F8
330
1F
100
AcDbEntity
  8
0
100
AcDbLine
 10
101.7499999999999
 20
85.79903810567686
 30
0.0
 11
101.3882285676537
 21
85.94888873943378
 31
0.0
  0
LINE
  5
F9
330
1F
100
AcDbEntity
  8
0
100
AcDbLine
 10
102.06066017178
 20
85.56066017178007
 30
0.0
 11
101.7499999999999
 21
85.79903810567686
 31
0.0
  0
LINE
  5
FA
330
1F
100
AcDbEntity
  8
0
100
AcDbLine
 10
102.2990381056767
 20
85.2500000000001
 30
0.0
 11
102.06066017178
 21
85.56066017178007
 31
0.0
  0
LINE
  5
FB
330
1F
100
AcDbEntity
  8
0
100
AcDbLine
 10
102.4488887394338
 20
84.88822856765398
 30
0.0
 11
102.2990381056767
 21
85.2500000000001
 31
0.0
  0
LINE
  5
FC
330
1F
100
AcDbEntity
  8
0
100
AcDbLine
 10
102.5000000000002
 20
84.50000000000027
 30
0.0
 11
102.4488887394338
 21
84.88822856765398
 31
0.0
  0
LINE
  5
FD
330
1F
100
AcDbEntity
  8
0
100
AcDbLine
 10
120.5000000000001
 20
84.50000000000027
 30
0.0
 11
120.5
 21
15.50000000000225
 31
0.0
  0
LINE
  5
FE
330
1F
100
AcDbEntity
  8
0
100
AcDbLine
 10
120.5
 20
15.50000000000225
 30
0.0
 11
120.4488887389516
 21
15.11177143054936
 31
0.0
  0
LINE
  5
FF
330
1F
100
AcDbEntity
  8
0
100
AcDbLine
 10
120.4488887389516
 20
15.11177143054936
 30
0.0
 11
120.2990381038142
 21
14.7499999967762
 31
0.0
  0
LINE
  5
100
330
1F
100
AcDbEntity
  8
0
100
AcDbLine
 10
120.2990381038142
 20
14.7499999967762
 30
0.0
 11
120.0606601678287
 21
14.43933982427143
 31
0.0
  0
LINE
  5
101
330
1F
100
AcDbEntity
  8
0
100
AcDbLine
 10
120.0606601678287
 20
14.43933982427143
 30
0.0
 11
119.7499999935476
 21
14.2009618906006
 31
0.0
  0
LINE
  5
102
330
1F
100
AcDbEntity
  8
0
100
AcDbLine
 10
119.7499999935476
 20
14.2009618906006
 30
0.0
 11
119.3882285586577
 21
14.05111125815828
 31
0.0
  0
LINE
  5
103
330
1F
100
AcDbEntity
  8
0
100
AcDbLine
 10
119.3882285586577
 20
14.05111125815828
 30
0.0
 11
118.9999999888241
 21
14.00000000000223
 31
0.0
  0
LINE
  5
104
330
1F
100
AcDbEntity
  8
0
100
AcDbLine
 10
118.9999999888241
 20
14.00000000000223
 30
0.0
 11
118.6117714197521
 21
14.05111126394367
 31
0.0
  0
LINE
  5
105
330
1F
100
AcDbEntity
  8
0
100
AcDbLine
 10
118.6117714197521
 20
14.05111126394367
 30
0.0
 11
118.249999987095
 21
14.20096190177615
 31
0.0
  0
LINE
  5
106
330
1F
100
AcDbEntity
  8
0
100
AcDbLine
 10
118.249999987095
 20
14.20096190177615
 30
0.0
 11
117.9393398163663
 21
14.43933984007623
 31
0.0
  0
LINE
  5
107
330
1F
100
AcDbEntity
  8
0
100
AcDbLine
 10
117.9393398163663
 20
14.43933984007623
 30
0.0
 11
117.7009618850101
 21
14.75000001613335
 31
0.0
  0
LINE
  5
108
330
1F
100
AcDbEntity
  8
0
100
AcDbLine
 10
117.7009618850101
 20
14.75000001613335
 30
0.0
 11
117.5511112552634
 21
15.11177145213956
 31
0.0
  0
LINE
  5
109
330
1F
100
AcDbEntity
  8
0
100
AcDbLine
 10
117.5511112552634
 20
15.11177145213956
 30
0.0
 11
117.5
 21
15.50000000000225
 31
0.0
  0
LINE
  5
10A
330
1F
100
AcDbEntity
  8
0
100
AcDbLine
 10
117.5
 20
15.50000000000225
 30
0.0
 11
117.5000000000003
 21
84.50000000000027
 31
0.0
  0
LINE
  5
10B
330
1F
100
AcDbEntity
  8
0
100
AcDbLine
 10
117.5511112605665
 20
84.88822856765398
 30
0.0
 11
117.5000000000003
 21
84.50000000000027
 31
0.0
  0
LINE
  5
10C
330
1F
100
AcDbEntity
  8
0
100
AcDbLine
 10
117.7009618943233
 20
85.25000000000028
 30
0.0
 11
117.5511112605665
 21
84.88822856765398
 31
0.0
  0
LINE
  5
10D
330
1F
100
AcDbEntity
  8
0
100
AcDbLine
 10
117.9393398282203
 20
85.56066017178007
 30
0.0
 11
117.7009618943233
 21
85.25000000000028
 31
0.0
  0
LINE
  5
10E
330
1F
100
AcDbEntity
  8
0
100
AcDbLine
 10
118.2500000000001
 20
85.79903810567686
 30
0.0
 11
117.9393398282203
 21
85.56066017178007
 31
0.0
  0
LINE
  5
10F
330
1F
100
AcDbEntity
  8
0
100
AcDbLine
 10
118.6117714323464
 20
85.94888873943378
 30
0.0
 11
118.2500000000001
 21
85.79903810567686
 31
0.0
  0
LINE
  5
110
330
1F
100
AcDbEntity
  8
0
100
AcDbLine
 10
119.0000000000001
 20
86.00000000000011
 30
0.0
 11
118.6117714323464
 21
85.94888873943378
 31
0.0
  0
LINE
  5
111
330
1F
100
AcDbEntity
  8
0
100
AcDbLine
 10
119.3882285676536
 20
85.94888873943378
 30
0.0
 11
119.0000000000001
 21
86.00000000000011
 31
0.0
  0
LINE
  5
112
330
1F
100
AcDbEntity
  8
0
100
AcDbLine
 10
119.7500000000001
 20
85.79903810567686
 30
0.0
 11
119.3882285676536
 21
85.94888873943378
 31
0.0
  0
LINE
  5
113
330
1F
100
AcDbEntity
  8
0
100
AcDbLine
 10
120.0606601717799
 20
85.5606601717799
 30
0.0
 11
119.7500000000001
 21
85.79903810567686
 31
0.0
  0
LINE
  5
114
330
1F
100
AcDbEntity
  8
0
100
AcDbLine
 10
120.2990381056767
 20
85.2500000000001
 30
0.0
 11
120.0606601717799
 21
85.5606601717799
 31
0.0
  0
LINE
  5
115
330
1F
100
AcDbEntity
  8
0
100
AcDbLine
 10
120.4488887394336
 20
84.88822856765398
 30
0.0
 11
120.2990381056767
 21
85.2500000000001
 31
0.0
  0
LINE
  5
116
330
1F
100
AcDbEntity
  8
0
100
AcDbLine
 10
120.5000000000001
 20
84.50000000000027
 30
0.0
 11
120.4488887394336
 21
84.88822856765398
 31
0.0
  0
LINE
  5
117
330
1F
100
AcDbEntity
  8
0
100
AcDbLine
 10
108.5
 20
84.5000000000001
 30
0.0
 11
108.5000000000001
 21
15.50000000000225
 31
0.0
  0
LINE
  5
118
330
1F
100
AcDbEntity
  8
0
100
AcDbLine
 10
108.5000000000001
 20
15.50000000000225
 30
0.0
 11
108.4488887389516
 21
15.11177143054936
 31
0.0
  0
LINE
  5
119
330
1F
100
AcDbEntity
  8
0
100
AcDbLine
 10
108.4488887389516
 20
15.11177143054936
 30
0.0
 11
108.299038103814
 21
14.7499999967762
 31
0.0
  0
LINE
  5
11A
330
1F
100
AcDbEntity
  8
0
100
AcDbLine
 10
108.299038103814
 20
14.7499999967762
 30
0.0
 11
108.0606601678289
 21
14.43933982427143
 31
0.0
  0
LINE
  5
11B
330
1F
100
AcDbEntity
  8
0
100
AcDbLine
 10
108.0606601678289
 20
14.43933982427143
 30
0.0
 11
107.7499999935479
 21
14.2009618906006
 31
0.0
  0
LINE
  5
11C
330
1F
100
AcDbEntity
  8
0
100
AcDbLine
 10
107.7499999935479
 20
14.2009618906006
 30
0.0
 11
107.3882285586579
 21
14.05111125815846
 31
0.0
  0
LINE
  5
11D
330
1F
100
AcDbEntity
  8
0
100
AcDbLine
 10
107.3882285586579
 20
14.05111125815846
 30
0.0
 11
106.9999999888238
 21
14.00000000000223
 31
0.0
  0
LINE
  5
11E
330
1F
100
AcDbEntity
  8
0
100
AcDbLine
 10
106.9999999888238
 20
14.00000000000223
 30
0.0
 11
106.6117714197519
 21
14.05111126394331
 31
0.0
  0
LINE
  5
11F
330
1F
100
AcDbEntity
  8
0
100
AcDbLine
 10
106.6117714197519
 20
14.05111126394331
 30
0.0
 11
106.2499999870954
 21
14.20096190177652
 31
0.0
  0
LINE
  5
120
330
1F
100
AcDbEntity
  8
0
100
AcDbLine
 10
106.2499999870954
 20
14.20096190177652
 30
0.0
 11
105.9393398163664
 21
14.43933984007623
 31
0.0
  0
LINE
  5
121
330
1F
100
AcDbEntity
  8
0
100
AcDbLine
 10
105.9393398163664
 20
14.43933984007623
 30
0.0
 11
105.7009618850103
 21
14.75000001613335
 31
0.0
  0
LINE
  5
122
330
1F
100
AcDbEntity
  8
0
100
AcDbLine
 10
105.7009618850103
 20
14.75000001613335
 30
0.0
 11
105.5511112552635
 21
15.11177145213956
 31
0.0
  0
LINE
  5
123
330
1F
100
AcDbEntity
  8
0
100
AcDbLine
 10
105.5511112552635
 20
15.11177145213956
 30
0.0
 11
105.5000000000001
 21
15.50000000000225
 31
0.0
  0
LINE
  5
124
330
1F
100
AcDbEntity
  8
0
100
AcDbLine
 10
105.5000000000001
 20
15.50000000000225
 30
0.0
 11
105.4999999999999
 21
84.5000000000001
 31
0.0
  0
LINE
  5
125
330
1F
100
AcDbEntity
  8
0
100
AcDbLine
 10
105.5511112605666
 20
84.88822856765398
 30
0.0
 11
105.4999999999999
 21
84.5000000000001
 31
0.0
  0
LINE
  5
126
330
1F
100
AcDbEntity
  8
0
100
AcDbLine
 10
105.7009618943234
 20
85.25000000000028
 30
0.0
 11
105.5511112605666
 21
84.88822856765398
 31
0.0
  0
LINE
  5
127
330
1F
100
AcDbEntity
  8
0
100
AcDbLine
 10
105.9393398282203
 20
85.5606601717799
 30
0.0
 11
105.7009618943234
 21
85.25000000000028
 31
0.0
  0
LINE
  5
128
330
1F
100
AcDbEntity
  8
0
100
AcDbLine
 10
106.2500000000001
 20
85.79903810567667
 30
0.0
 11
105.9393398282203
 21
85.5606601717799
 31
0.0
  0
LINE
  5
129
330
1F
100
AcDbEntity
  8
0
100
AcDbLine
 10
106.611771432346
 20
85.9488887394336
 30
0.0
 11
106.2500000000001
 21
85.79903810567667
 31
0.0
  0
LINE
  5
12A
330
1F
100
AcDbEntity
  8
0
100
AcDbLine
 10
107.0000000000001
 20
86.00000000000011
 30
0.0
 11
106.611771432346
 21
85.9488887394336
 31
0.0
  0
LINE
  5
12B
330
1F
100
AcDbEntity
  8
0
100
AcDbLine
 10
107.3882285676538
 20
85.94888873943378
 30
0.0
 11
107.0000000000001
 21
86.00000000000011
 31
0.0
  0
LINE
  5
12C
330
1F
100
AcDbEntity
  8
0
100
AcDbLine
 10
107.7500000000001
 20
85.79903810567686
 30
0.0
 11
107.3882285676538
 21
85.94888873943378
 31
0.0
  0
LINE
  5
12D
330
1F
100
AcDbEntity
  8
0
100
AcDbLine
 10
108.0606601717799
 20
85.56066017178007
 30
0.0
 11
107.7500000000001
 21
85.79903810567686
 31
0.0
  0
LINE
  5
12E
330
1F
100
AcDbEntity
  8
0
100
AcDbLine
 10
108.2990381056767
 20
85.25000000000028
 30
0.0
 11
108.0606601717799
 21
85.56066017178007
 31
0.0
  0
LINE
  5
12F
330
1F
100
AcDbEntity
  8
0
100
AcDbLine
 10
108.4488887394336
 20
84.88822856765398
 30
0.0
 11
108.2990381056767
 21
85.25000000000028
 31
0.0
  0
LINE
  5
130
330
1F
100
AcDbEntity
  8
0
100
AcDbLine
 10
108.5
 20
84.5000000000001
 30
0.0
 11
108.4488887394336
 21
84.88822856765398
 31
0.0
  0
LINE
  5
131
330
1F
100
AcDbEntity
  8
0
100
AcDbLine
 10
108.5
 20
-15.49999999999738
 30
0.0
 11
108.5
 21
-84.49999999999774
 31
0.0
  0
LINE
  5
132
330
1F
100
AcDbEntity
  8
0
100
AcDbLine
 10
108.5
 20
-84.49999999999774
 30
0.0
 11
108.4488887389514
 21
-84.88822856945065
 31
0.0
  0
LINE
  5
133
330
1F
100
AcDbEntity
  8
0
100
AcDbLine
 10
108.4488887389514
 20
-84.88822856945065
 30
0.0
 11
108.299038103814
 21
-85.2500000032238
 31
0.0
  0
LINE
  5
134
330
1F
100
AcDbEntity
  8
0
100
AcDbLine
 10
108.299038103814
 20
-85.2500000032238
 30
0.0
 11
108.0606601678285
 21
-85.56066017572857
 31
0.0
  0
LINE
  5
135
330
1F
100
AcDbEntity
  8
0
100
AcDbLine
 10
108.0606601678285
 20
-85.56066017572857
 30
0.0
 11
107.7499999935475
 21
-85.79903810939939
 31
0.0
  0
LINE
  5
136
330
1F
100
AcDbEntity
  8
0
100
AcDbLine
 10
107.7499999935475
 20
-85.79903810939939
 30
0.0
 11
107.3882285586581
 21
-85.94888874184154
 31
0.0
  0
LINE
  5
137
330
1F
100
AcDbEntity
  8
0
100
AcDbLine
 10
107.3882285586581
 20
-85.94888874184154
 30
0.0
 11
106.9999999888242
 21
-85.99999999999758
 31
0.0
  0
LINE
  5
138
330
1F
100
AcDbEntity
  8
0
100
AcDbLine
 10
106.9999999888242
 20
-85.99999999999758
 30
0.0
 11
106.6117714197519
 21
-85.94888873605669
 31
0.0
  0
LINE
  5
139
330
1F
100
AcDbEntity
  8
0
100
AcDbLine
 10
106.6117714197519
 20
-85.94888873605669
 30
0.0
 11
106.2499999870954
 21
-85.79903809822366
 31
0.0
  0
LINE
  5
13A
330
1F
100
AcDbEntity
  8
0
100
AcDbLine
 10
106.2499999870954
 20
-85.79903809822366
 30
0.0
 11
105.9393398163664
 21
-85.56066015992359
 31
0.0
  0
LINE
  5
13B
330
1F
100
AcDbEntity
  8
0
100
AcDbLine
 10
105.9393398163664
 20
-85.56066015992359
 30
0.0
 11
105.7009618850103
 21
-85.24999998386646
 31
0.0
  0
LINE
  5
13C
330
1F
100
AcDbEntity
  8
0
100
AcDbLine
 10
105.7009618850103
 20
-85.24999998386646
 30
0.0
 11
105.5511112552635
 21
-84.88822854786025
 31
0.0
  0
LINE
  5
13D
330
1F
100
AcDbEntity
  8
0
100
AcDbLine
 10
105.5511112552635
 20
-84.88822854786025
 30
0.0
 11
105.5000000000001
 21
-84.49999999999774
 31
0.0
  0
LINE
  5
13E
330
1F
100
AcDbEntity
  8
0
100
AcDbLine
 10
105.5000000000001
 20
-84.49999999999774
 30
0.0
 11
105.4999999999999
 21
-15.49999999999756
 31
0.0
  0
LINE
  5
13F
330
1F
100
AcDbEntity
  8
0
100
AcDbLine
 10
105.5511112605664
 20
-15.11177143234367
 30
0.0
 11
105.4999999999999
 21
-15.49999999999756
 31
0.0
  0
LINE
  5
140
330
1F
100
AcDbEntity
  8
0
100
AcDbLine
 10
105.7009618943234
 20
-14.74999999999737
 30
0.0
 11
105.5511112605664
 21
-15.11177143234367
 31
0.0
  0
LINE
  5
141
330
1F
100
AcDbEntity
  8
0
100
AcDbLine
 10
105.9393398282201
 20
-14.43933982821758
 30
0.0
 11
105.7009618943234
 21
-14.74999999999737
 31
0.0
  0
LINE
  5
142
330
1F
100
AcDbEntity
  8
0
100
AcDbLine
 10
106.2499999999999
 20
-14.20096189432079
 30
0.0
 11
105.9393398282201
 21
-14.43933982821758
 31
0.0
  0
LINE
  5
143
330
1F
100
AcDbEntity
  8
0
100
AcDbLine
 10
106.6117714323464
 20
-14.05111126056368
 30
0.0
 11
106.2499999999999
 21
-14.20096189432079
 31
0.0
  0
LINE
  5
144
330
1F
100
AcDbEntity
  8
0
100
AcDbLine
 10
107.0000000000001
 20
-13.99999999999736
 30
0.0
 11
106.6117714323464
 21
-14.05111126056368
 31
0.0
  0
LINE
  5
145
330
1F
100
AcDbEntity
  8
0
100
AcDbLine
 10
107.3882285676538
 20
-14.05111126056386
 30
0.0
 11
107.0000000000001
 21
-13.99999999999736
 31
0.0
  0
LINE
  5
146
330
1F
100
AcDbEntity
  8
0
100
AcDbLine
 10
107.75
 20
-14.20096189432079
 30
0.0
 11
107.3882285676538
 21
-14.05111126056386
 31
0.0
  0
LINE
  5
147
330
1F
100
AcDbEntity
  8
0
100
AcDbLine
 10
108.0606601717797
 20
-14.43933982821758
 30
0.0
 11
107.75
 21
-14.20096189432079
 31
0.0
  0
LINE
  5
148
330
1F
100
AcDbEntity
  8
0
100
AcDbLine
 10
108.2990381056767
 20
-14.74999999999737
 30
0.0
 11
108.0606601717797
 21
-14.43933982821758
 31
0.0
  0
LINE
  5
149
330
1F
100
AcDbEntity
  8
0
100
AcDbLine
 10
108.448888739434
 20
-15.11177143234349
 30
0.0
 11
108.2990381056767
 21
-14.74999999999737
 31
0.0
  0
LINE
  5
14A
330
1F
100
AcDbEntity
  8
0
100
AcDbLine
 10
108.5
 20
-15.49999999999738
 30
0.0
 11
108.448888739434
 21
-15.11177143234349
 31
0.0
  0
LINE
  5
14B
330
1F
100
AcDbEntity
  8
0
100
AcDbLine
 10
118.0098920461976
 20
-98.30744549817487
 30
0.0
 11
118.3522849740023
 21
-98.09182201227809
 31
0.0
  0
LINE
  5
14C
330
1F
100
AcDbEntity
  8
0
100
AcDbLine
 10
118.3522849740023
 20
-98.09182201227809
 30
0.0
 11
118.7388186104293
 21
-97.97216352912038
 31
0.0
  0
LINE
  5
14D
330
1F
100
AcDbEntity
  8
0
100
AcDbLine
 10
118.7388186104293
 20
-97.97216352912038
 30
0.0
 11
119.1431513269327
 21
-97.95662457658365
 31
0.0
  0
LINE
  5
14E
330
1F
100
AcDbEntity
  8
0
100
AcDbLine
 10
119.5377285170746
 20
-98.04626410860415
 30
0.0
 11
119.8956603974161
 21
-98.2349733392108
 31
0.0
  0
LINE
  5
14F
330
1F
100
AcDbEntity
  8
0
100
AcDbLine
 10
119.8956603974161
 20
-98.2349733392108
 30
0.0
 11
120.1925545018225
 21
-98.5098920461948
 31
0.0
  0
LINE
  5
150
330
1F
100
AcDbEntity
  8
0
100
AcDbLine
 10
120.1925545018225
 20
-98.5098920461948
 30
0.0
 11
120.4081779877193
 21
-98.85228497399972
 31
0.0
  0
LINE
  5
151
330
1F
100
AcDbEntity
  8
0
100
AcDbLine
 10
120.4081779877193
 20
-98.85228497399972
 30
0.0
 11
120.5278364708771
 21
-99.2388186104265
 31
0.0
  0
LINE
  5
152
330
1F
100
AcDbEntity
  8
0
100
AcDbLine
 10
120.5278364708771
 20
-99.2388186104265
 30
0.0
 11
120.5433754234138
 21
-99.64315132693011
 31
0.0
  0
LINE
  5
153
330
1F
100
AcDbEntity
  8
0
100
AcDbLine
 10
120.5433754234138
 20
-99.64315132693011
 30
0.0
 11
120.4537358913934
 21
-100.0377285170718
 31
0.0
  0
LINE
  5
154
330
1F
100
AcDbEntity
  8
0
100
AcDbLine
 10
120.4537358913934
 20
-100.0377285170718
 30
0.0
 11
120.2650266607866
 21
-100.3956603974133
 31
0.0
  0
LINE
  5
155
330
1F
100
AcDbEntity
  8
0
100
AcDbLine
 10
120.2650266607866
 20
-100.3956603974133
 30
0.0
 11
119.9901079538026
 21
-100.6925545018198
 31
0.0
  0
LINE
  5
156
330
1F
100
AcDbEntity
  8
0
100
AcDbLine
 10
119.9901079538026
 20
-100.6925545018198
 30
0.0
 11
119.6477150259979
 21
-100.9081779877165
 31
0.0
  0
LINE
  5
157
330
1F
100
AcDbEntity
  8
0
100
AcDbLine
 10
119.6477150259979
 20
-100.9081779877165
 30
0.0
 11
119.2611813895709
 21
-101.0278364708744
 31
0.0
  0
LINE
  5
158
330
1F
100
AcDbEntity
  8
0
100
AcDbLine
 10
119.2611813895709
 20
-101.0278364708744
 30
0.0
 11
118.8568486730675
 21
-101.043375423411
 31
0.0
  0
LINE
  5
159
330
1F
100
AcDbEntity
  8
0
100
AcDbLine
 10
118.8568486730675
 20
-101.043375423411
 30
0.0
 11
118.4622714829256
 21
-100.9537358913907
 31
0.0
  0
LINE
  5
15A
330
1F
100
AcDbEntity
  8
0
100
AcDbLine
 10
118.4622714829256
 20
-100.9537358913907
 30
0.0
 11
118.1043396025841
 21
-100.7650266607838
 31
0.0
  0
LINE
  5
15B
330
1F
100
AcDbEntity
  8
0
100
AcDbLine
 10
118.1043396025841
 20
-100.7650266607838
 30
0.0
 11
117.8074454981777
 21
-100.4901079537998
 31
0.0
  0
LINE
  5
15C
330
1F
100
AcDbEntity
  8
0
100
AcDbLine
 10
117.8074454981777
 20
-100.4901079537998
 30
0.0
 11
117.5918220122809
 21
-100.1477150259951
 31
0.0
  0
LINE
  5
15D
330
1F
100
AcDbEntity
  8
0
100
AcDbLine
 10
117.5918220122809
 20
-100.1477150259951
 30
0.0
 11
117.4721635291231
 21
-99.76118138956812
 31
0.0
  0
LINE
  5
15E
330
1F
100
AcDbEntity
  8
0
100
AcDbLine
 10
117.4721635291231
 20
-99.76118138956812
 30
0.0
 11
117.4566245765864
 21
-99.3568486730647
 31
0.0
  0
LINE
  5
15F
330
1F
100
AcDbEntity
  8
0
100
AcDbLine
 10
117.4566245765864
 20
-99.3568486730647
 30
0.0
 11
117.5462641086068
 21
-98.9622714829228
 31
0.0
  0
LINE
  5
160
330
1F
100
AcDbEntity
  8
0
100
AcDbLine
 10
117.5462641086068
 20
-98.9622714829228
 30
0.0
 11
117.7349733392136
 21
-98.60433960258133
 31
0.0
  0
LINE
  5
161
330
1F
100
AcDbEntity
  8
0
100
AcDbLine
 10
117.7349733392136
 20
-98.60433960258133
 30
0.0
 11
118.0098920461976
 21
-98.30744549817487
 31
0.0
  0
LINE
  5
162
330
1F
100
AcDbEntity
  8
0
100
AcDbLine
 10
120.5364954905631
 20
0.2041607393221298
 30
0.0
 11
120.5369813639096
 21
-0.2004701648462301
 31
0.0
  0
LINE
  5
163
330
1F
100
AcDbEntity
  8
0
100
AcDbLine
 10
120.5369813639096
 20
-0.2004701648462301
 30
0.0
 11
120.4327244972876
 21
-0.591439358572714
 31
0.0
  0
LINE
  5
164
330
1F
100
AcDbEntity
  8
0
100
AcDbLine
 10
120.4327244972876
 20
-0.591439358572714
 30
0.0
 11
120.2308298238644
 21
-0.9421029374120692
 31
0.0
  0
LINE
  5
165
330
1F
100
AcDbEntity
  8
0
100
AcDbLine
 10
120.2308298238644
 20
-0.9421029374120692
 30
0.0
 11
119.9450561319875
 21
-1.22856375796543
 31
0.0
  0
LINE
  5
166
330
1F
100
AcDbEntity
  8
0
100
AcDbLine
 10
119.9450561319875
 20
-1.22856375796543
 30
0.0
 11
119.5948784264947
 21
-1.43129998871062
 31
0.0
  0
LINE
  5
167
330
1F
100
AcDbEntity
  8
0
100
AcDbLine
 10
119.5948784264947
 20
-1.43129998871062
 30
0.0
 11
119.2041607393192
 21
-1.536495490560159
 31
0.0
  0
LINE
  5
168
330
1F
100
AcDbEntity
  8
0
100
AcDbLine
 10
119.2041607393192
 20
-1.536495490560159
 30
0.0
 11
118.7995298351509
 21
-1.53698136390673
 31
0.0
  0
LINE
  5
169
330
1F
100
AcDbEntity
  8
0
100
AcDbLine
 10
118.7995298351509
 20
-1.53698136390673
 30
0.0
 11
118.4085606414244
 21
-1.432724497284492
 31
0.0
  0
LINE
  5
16A
330
1F
100
AcDbEntity
  8
0
100
AcDbLine
 10
118.4085606414244
 20
-1.432724497284492
 30
0.0
 11
118.0578970625851
 21
-1.230829823861502
 31
0.0
  0
LINE
  5
16B
330
1F
100
AcDbEntity
  8
0
100
AcDbLine
 10
118.0578970625851
 20
-1.230829823861502
 30
0.0
 11
117.7714362420319
 21
-0.9450561319845576
 31
0.0
  0
LINE
  5
16C
330
1F
100
AcDbEntity
  8
0
100
AcDbLine
 10
117.7714362420319
 20
-0.9450561319845576
 30
0.0
 11
117.5687000112865
 21
-0.5948784264915928
 31
0.0
  0
LINE
  5
16D
330
1F
100
AcDbEntity
  8
0
100
AcDbLine
 10
117.5687000112865
 20
-0.5948784264915928
 30
0.0
 11
117.463504509437
 21
-0.2041607393163545
 31
0.0
  0
LINE
  5
16E
330
1F
100
AcDbEntity
  8
0
100
AcDbLine
 10
117.463504509437
 20
-0.2041607393163545
 30
0.0
 11
117.4630186360906
 21
0.2004701648520054
 31
0.0
  0
LINE
  5
16F
330
1F
100
AcDbEntity
  8
0
100
AcDbLine
 10
117.4630186360906
 20
0.2004701648520054
 30
0.0
 11
117.5672755027126
 21
0.5914393585786698
 31
0.0
  0
LINE
  5
170
330
1F
100
AcDbEntity
  8
0
100
AcDbLine
 10
117.5672755027126
 20
0.5914393585786698
 30
0.0
 11
117.7691701761358
 21
0.9421029374178445
 31
0.0
  0
LINE
  5
171
330
1F
100
AcDbEntity
  8
0
100
AcDbLine
 10
117.7691701761358
 20
0.9421029374178445
 30
0.0
 11
118.0549438680127
 21
1.228563757971206
 31
0.0
  0
LINE
  5
172
330
1F
100
AcDbEntity
  8
0
100
AcDbLine
 10
118.0549438680127
 20
1.228563757971206
 30
0.0
 11
118.4051215735055
 21
1.431299988716395
 31
0.0
  0
LINE
  5
173
330
1F
100
AcDbEntity
  8
0
100
AcDbLine
 10
118.4051215735055
 20
1.431299988716395
 30
0.0
 11
118.7958392606809
 21
1.536495490565934
 31
0.0
  0
LINE
  5
174
330
1F
100
AcDbEntity
  8
0
100
AcDbLine
 10
118.7958392606809
 20
1.536495490565934
 30
0.0
 11
119.2004701648493
 21
1.536981363912505
 31
0.0
  0
LINE
  5
175
330
1F
100
AcDbEntity
  8
0
100
AcDbLine
 10
119.2004701648493
 20
1.536981363912505
 30
0.0
 11
119.5914393585758
 21
1.432724497290268
 31
0.0
  0
LINE
  5
176
330
1F
100
AcDbEntity
  8
0
100
AcDbLine
 10
119.5914393585758
 20
1.432724497290268
 30
0.0
 11
119.9421029374151
 21
1.230829823867277
 31
0.0
  0
LINE
  5
177
330
1F
100
AcDbEntity
  8
0
100
AcDbLine
 10
119.9421029374151
 20
1.230829823867277
 30
0.0
 11
120.2285637579683
 21
0.9450561319903329
 31
0.0
  0
LINE
  5
178
330
1F
100
AcDbEntity
  8
0
100
AcDbLine
 10
120.2285637579683
 20
0.9450561319903329
 30
0.0
 11
120.4312999887137
 21
0.5948784264973682
 31
0.0
  0
LINE
  5
179
330
1F
100
AcDbEntity
  8
0
100
AcDbLine
 10
120.4312999887137
 20
0.5948784264973682
 30
0.0
 11
120.5364954905631
 21
0.2041607393221298
 31
0.0
  0
LINE
  5
17A
330
1F
100
AcDbEntity
  8
0
100
AcDbLine
 10
117.8419013152931
 20
100.530197765714
 30
0.0
 11
118.1479973730388
 21
100.7948326237989
 31
0.0
  0
LINE
  5
17B
330
1F
100
AcDbEntity
  8
0
100
AcDbLine
 10
118.1479973730388
 20
100.7948326237989
 30
0.0
 11
118.5121560018109
 21
100.9712267783841
 31
0.0
  0
LINE
  5
17C
330
1F
100
AcDbEntity
  8
0
100
AcDbLine
 10
118.5121560018109
 20
100.9712267783841
 30
0.0
 11
118.9095603928593
 21
101.0473592593395
 31
0.0
  0
LINE
  5
17D
330
1F
100
AcDbEntity
  8
0
100
AcDbLine
 10
118.9095603928593
 20
101.0473592593395
 30
0.0
 11
119.3131280936759
 21
101.0180417639033
 31
0.0
  0
LINE
  5
17E
330
1F
100
AcDbEntity
  8
0
100
AcDbLine
 10
119.3131280936759
 20
101.0180417639033
 30
0.0
 11
119.6953566323771
 21
100.8852722309396
 31
0.0
  0
LINE
  5
17F
330
1F
100
AcDbEntity
  8
0
100
AcDbLine
 10
119.6953566323771
 20
100.8852722309396
 30
0.0
 11
120.030197765713
 21
100.6580986847082
 31
0.0
  0
LINE
  5
180
330
1F
100
AcDbEntity
  8
0
100
AcDbLine
 10
120.030197765713
 20
100.6580986847082
 30
0.0
 11
120.2948326237978
 21
100.3520026269626
 31
0.0
  0
LINE
  5
181
330
1F
100
AcDbEntity
  8
0
100
AcDbLine
 10
120.2948326237978
 20
100.3520026269626
 30
0.0
 11
120.4712267783829
 21
99.98784399819027
 31
0.0
  0
LINE
  5
182
330
1F
100
AcDbEntity
  8
0
100
AcDbLine
 10
120.4712267783829
 20
99.98784399819027
 30
0.0
 11
120.5473592593384
 21
99.59043960714189
 31
0.0
  0
LINE
  5
183
330
1F
100
AcDbEntity
  8
0
100
AcDbLine
 10
120.5473592593384
 20
99.59043960714189
 30
0.0
 11
120.5180417639022
 21
99.1868719063253
 31
0.0
  0
LINE
  5
184
330
1F
100
AcDbEntity
  8
0
100
AcDbLine
 10
120.5180417639022
 20
99.1868719063253
 30
0.0
 11
120.3852722309386
 21
98.80464336762412
 31
0.0
  0
LINE
  5
185
330
1F
100
AcDbEntity
  8
0
100
AcDbLine
 10
120.3852722309386
 20
98.80464336762412
 30
0.0
 11
120.1580986847071
 21
98.46980223428818
 31
0.0
  0
LINE
  5
186
330
1F
100
AcDbEntity
  8
0
100
AcDbLine
 10
120.1580986847071
 20
98.46980223428818
 30
0.0
 11
119.8520026269614
 21
98.20516737620345
 31
0.0
  0
LINE
  5
187
330
1F
100
AcDbEntity
  8
0
100
AcDbLine
 10
119.8520026269614
 20
98.20516737620345
 30
0.0
 11
119.4878439981893
 21
98.02877322161834
 31
0.0
  0
LINE
  5
188
330
1F
100
AcDbEntity
  8
0
100
AcDbLine
 10
119.4878439981893
 20
98.02877322161834
 30
0.0
 11
119.0904396071409
 21
97.95264074066274
 31
0.0
  0
LINE
  5
189
330
1F
100
AcDbEntity
  8
0
100
AcDbLine
 10
119.0904396071409
 20
97.95264074066274
 30
0.0
 11
118.6868719063243
 21
97.9819582360991
 31
0.0
  0
LINE
  5
18A
330
1F
100
AcDbEntity
  8
0
100
AcDbLine
 10
118.6868719063243
 20
97.9819582360991
 30
0.0
 11
118.3046433676231
 21
98.11472776906275
 31
0.0
  0
LINE
  5
18B
330
1F
100
AcDbEntity
  8
0
100
AcDbLine
 10
118.3046433676231
 20
98.11472776906275
 30
0.0
 11
117.9698022342872
 21
98.34190131529424
 31
0.0
  0
LINE
  5
18C
330
1F
100
AcDbEntity
  8
0
100
AcDbLine
 10
117.9698022342872
 20
98.34190131529424
 30
0.0
 11
117.7051673762023
 21
98.64799737303981
 31
0.0
  0
LINE
  5
18D
330
1F
100
AcDbEntity
  8
0
100
AcDbLine
 10
117.7051673762023
 20
98.64799737303981
 30
0.0
 11
117.5287732216172
 21
99.01215600181193
 31
0.0
  0
LINE
  5
18E
330
1F
100
AcDbEntity
  8
0
100
AcDbLine
 10
117.5287732216172
 20
99.01215600181193
 30
0.0
 11
117.4526407406617
 21
99.4095603928605
 31
0.0
  0
LINE
  5
18F
330
1F
100
AcDbEntity
  8
0
100
AcDbLine
 10
117.4526407406617
 20
99.4095603928605
 30
0.0
 11
117.481958236098
 21
99.8131280936771
 31
0.0
  0
LINE
  5
190
330
1F
100
AcDbEntity
  8
0
100
AcDbLine
 10
117.481958236098
 20
99.8131280936771
 30
0.0
 11
117.6147277690616
 21
100.1953566323783
 31
0.0
  0
LINE
  5
191
330
1F
100
AcDbEntity
  8
0
100
AcDbLine
 10
117.6147277690616
 20
100.1953566323783
 30
0.0
 11
117.8419013152931
 21
100.530197765714
 31
0.0
  0
LINE
  5
192
330
1F
100
AcDbEntity
  8
0
100
AcDbLine
 10
102.6576606241346
 20
149.2249999999998
 30
0.0
 11
102.5028149692524
 21
149.5988304800908
 31
0.0
  0
LINE
  5
193
330
1F
100
AcDbEntity
  8
0
100
AcDbLine
 10
102.5028149692524
 20
149.5988304800908
 30
0.0
 11
102.4500000000005
 21
149.9999999999998
 31
0.0
  0
LINE
  5
194
330
1F
100
AcDbEntity
  8
0
100
AcDbLine
 10
102.4500000000005
 20
149.9999999999998
 30
0.0
 11
102.5028149692524
 21
150.4011695199088
 31
0.0
  0
LINE
  5
195
330
1F
100
AcDbEntity
  8
0
100
AcDbLine
 10
102.5028149692524
 20
150.4011695199088
 30
0.0
 11
102.6576606241346
 21
150.7749999999998
 31
0.0
  0
LINE
  5
196
330
1F
100
AcDbEntity
  8
0
100
AcDbLine
 10
102.6576606241346
 20
150.7749999999998
 30
0.0
 11
102.9039844891613
 21
151.0960155108391
 31
0.0
  0
LINE
  5
197
330
1F
100
AcDbEntity
  8
0
100
AcDbLine
 10
102.9039844891613
 20
151.0960155108391
 30
0.0
 11
103.2250000000005
 21
151.3423393758657
 31
0.0
  0
LINE
  5
198
330
1F
100
AcDbEntity
  8
0
100
AcDbLine
 10
103.2250000000005
 20
151.3423393758657
 30
0.0
 11
103.5988304800915
 21
151.4971850307479
 31
0.0
  0
LINE
  5
199
330
1F
100
AcDbEntity
  8
0
100
AcDbLine
 10
103.5988304800915
 20
151.4971850307479
 30
0.0
 11
104.0000000000005
 21
151.5499999999998
 31
0.0
  0
LINE
  5
19A
330
1F
100
AcDbEntity
  8
0
100
AcDbLine
 10
104.0000000000005
 20
151.5499999999998
 30
0.0
 11
104.4011695199095
 21
151.4971850307479
 31
0.0
  0
LINE
  5
19B
330
1F
100
AcDbEntity
  8
0
100
AcDbLine
 10
104.4011695199095
 20
151.4971850307479
 30
0.0
 11
104.7750000000005
 21
151.3423393758657
 31
0.0
  0
LINE
  5
19C
330
1F
100
AcDbEntity
  8
0
100
AcDbLine
 10
104.7750000000005
 20
151.3423393758657
 30
0.0
 11
105.0960155108396
 21
151.0960155108391
 31
0.0
  0
LINE
  5
19D
330
1F
100
AcDbEntity
  8
0
100
AcDbLine
 10
105.0960155108396
 20
151.0960155108391
 30
0.0
 11
105.3423393758663
 21
150.7749999999998
 31
0.0
  0
LINE
  5
19E
330
1F
100
AcDbEntity
  8
0
100
AcDbLine
 10
105.3423393758663
 20
150.7749999999998
 30
0.0
 11
105.4971850307485
 21
150.4011695199088
 31
0.0
  0
LINE
  5
19F
330
1F
100
AcDbEntity
  8
0
100
AcDbLine
 10
105.4971850307485
 20
150.4011695199088
 30
0.0
 11
105.5500000000005
 21
149.9999999999998
 31
0.0
  0
LINE
  5
1A0
330
1F
100
AcDbEntity
  8
0
100
AcDbLine
 10
105.5500000000005
 20
149.9999999999998
 30
0.0
 11
105.4971850307485
 21
149.5988304800908
 31
0.0
  0
LINE
  5
1A1
330
1F
100
AcDbEntity
  8
0
100
AcDbLine
 10
105.4971850307485
 20
149.5988304800908
 30
0.0
 11
105.3423393758663
 21
149.2249999999998
 31
0.0
  0
LINE
  5
1A2
330
1F
100
AcDbEntity
  8
0
100
AcDbLine
 10
105.3423393758663
 20
149.2249999999998
 30
0.0
 11
105.0960155108396
 21
148.9039844891607
 31
0.0
  0
LINE
  5
1A3
330
1F
100
AcDbEntity
  8
0
100
AcDbLine
 10
105.0960155108396
 20
148.9039844891607
 30
0.0
 11
104.7750000000005
 21
148.657660624134
 31
0.0
  0
LINE
  5
1A4
330
1F
100
AcDbEntity
  8
0
100
AcDbLine
 10
104.7750000000005
 20
148.657660624134
 30
0.0
 11
104.4011695199095
 21
148.5028149692518
 31
0.0
  0
LINE
  5
1A5
330
1F
100
AcDbEntity
  8
0
100
AcDbLine
 10
104.4011695199095
 20
148.5028149692518
 30
0.0
 11
104.0000000000005
 21
148.4499999999998
 31
0.0
  0
LINE
  5
1A6
330
1F
100
AcDbEntity
  8
0
100
AcDbLine
 10
104.0000000000005
 20
148.4499999999998
 30
0.0
 11
103.5988304800915
 21
148.5028149692518
 31
0.0
  0
LINE
  5
1A7
330
1F
100
AcDbEntity
  8
0
100
AcDbLine
 10
103.5988304800915
 20
148.5028149692518
 30
0.0
 11
103.2250000000005
 21
148.657660624134
 31
0.0
  0
LINE
  5
1A8
330
1F
100
AcDbEntity
  8
0
100
AcDbLine
 10
103.2250000000005
 20
148.657660624134
 30
0.0
 11
102.9039844891613
 21
148.9039844891607
 31
0.0
  0
LINE
  5
1A9
330
1F
100
AcDbEntity
  8
0
100
AcDbLine
 10
102.9039844891613
 20
148.9039844891607
 30
0.0
 11
102.6576606241346
 21
149.2249999999998
 31
0.0
  0
LINE
  5
1AA
330
1F
100
AcDbEntity
  8
0
100
AcDbLine
 10
102.4500000000001
 20
-149.9999999999973
 30
0.0
 11
102.5028149692521
 21
-149.5988304800883
 31
0.0
  0
LINE
  5
1AB
330
1F
100
AcDbEntity
  8
0
100
AcDbLine
 10
102.5028149692521
 20
-149.5988304800883
 30
0.0
 11
102.6576606241343
 21
-149.2249999999973
 31
0.0
  0
LINE
  5
1AC
330
1F
100
AcDbEntity
  8
0
100
AcDbLine
 10
102.6576606241343
 20
-149.2249999999973
 30
0.0
 11
102.903984489161
 21
-148.903984489158
 31
0.0
  0
LINE
  5
1AD
330
1F
100
AcDbEntity
  8
0
100
AcDbLine
 10
102.903984489161
 20
-148.903984489158
 30
0.0
 11
103.2250000000001
 21
-148.6576606241312
 31
0.0
  0
LINE
  5
1AE
330
1F
100
AcDbEntity
  8
0
100
AcDbLine
 10
103.2250000000001
 20
-148.6576606241312
 30
0.0
 11
103.5988304800912
 21
-148.5028149692491
 31
0.0
  0
LINE
  5
1AF
330
1F
100
AcDbEntity
  8
0
100
AcDbLine
 10
103.5988304800912
 20
-148.5028149692491
 30
0.0
 11
104.0000000000001
 21
-148.4499999999973
 31
0.0
  0
LINE
  5
1B0
330
1F
100
AcDbEntity
  8
0
100
AcDbLine
 10
104.0000000000001
 20
-148.4499999999973
 30
0.0
 11
104.4011695199091
 21
-148.5028149692491
 31
0.0
  0
LINE
  5
1B1
330
1F
100
AcDbEntity
  8
0
100
AcDbLine
 10
104.4011695199091
 20
-148.5028149692491
 30
0.0
 11
104.7750000000001
 21
-148.6576606241312
 31
0.0
  0
LINE
  5
1B2
330
1F
100
AcDbEntity
  8
0
100
AcDbLine
 10
104.7750000000001
 20
-148.6576606241312
 30
0.0
 11
105.0960155108393
 21
-148.903984489158
 31
0.0
  0
LINE
  5
1B3
330
1F
100
AcDbEntity
  8
0
100
AcDbLine
 10
105.0960155108393
 20
-148.903984489158
 30
0.0
 11
105.342339375866
 21
-149.2249999999973
 31
0.0
  0
LINE
  5
1B4
330
1F
100
AcDbEntity
  8
0
100
AcDbLine
 10
105.342339375866
 20
-149.2249999999973
 30
0.0
 11
105.4971850307482
 21
-149.5988304800883
 31
0.0
  0
LINE
  5
1B5
330
1F
100
AcDbEntity
  8
0
100
AcDbLine
 10
105.4971850307482
 20
-149.5988304800883
 30
0.0
 11
105.5500000000001
 21
-149.9999999999973
 31
0.0
  0
LINE
  5
1B6
330
1F
100
AcDbEntity
  8
0
100
AcDbLine
 10
105.5500000000001
 20
-149.9999999999973
 30
0.0
 11
105.4971850307482
 21
-150.4011695199061
 31
0.0
  0
LINE
  5
1B7
330
1F
100
AcDbEntity
  8
0
100
AcDbLine
 10
105.4971850307482
 20
-150.4011695199061
 30
0.0
 11
105.342339375866
 21
-150.7749999999973
 31
0.0
  0
LINE
  5
1B8
330
1F
100
AcDbEntity
  8
0
100
AcDbLine
 10
105.342339375866
 20
-150.7749999999973
 30
0.0
 11
105.0960155108393
 21
-151.0960155108364
 31
0.0
  0
LINE
  5
1B9
330
1F
100
AcDbEntity
  8
0
100
AcDbLine
 10
105.0960155108393
 20
-151.0960155108364
 30
0.0
 11
104.7750000000001
 21
-151.3423393758631
 31
0.0
  0
LINE
  5
1BA
330
1F
100
AcDbEntity
  8
0
100
AcDbLine
 10
104.7750000000001
 20
-151.3423393758631
 30
0.0
 11
104.4011695199091
 21
-151.4971850307453
 31
0.0
  0
LINE
  5
1BB
330
1F
100
AcDbEntity
  8
0
100
AcDbLine
 10
104.4011695199091
 20
-151.4971850307453
 30
0.0
 11
104.0000000000001
 21
-151.5499999999973
 31
0.0
  0
LINE
  5
1BC
330
1F
100
AcDbEntity
  8
0
100
AcDbLine
 10
104.0000000000001
 20
-151.5499999999973
 30
0.0
 11
103.5988304800912
 21
-151.4971850307453
 31
0.0
  0
LINE
  5
1BD
330
1F
100
AcDbEntity
  8
0
100
AcDbLine
 10
-120.5960155108391
 20
98.90398448916093
 30
0.0
 11
-120.2749999999999
 21
98.65766062413414
 31
0.0
  0
LINE
  5
1BE
330
1F
100
AcDbEntity
  8
0
100
AcDbLine
 10
-120.8423393758658
 20
99.225
 30
0.0
 11
-120.5960155108391
 21
98.90398448916093
 31
0.0
  0
LINE
  5
1BF
330
1F
100
AcDbEntity
  8
0
100
AcDbLine
 10
-120.997185030748
 20
99.59883048009121
 30
0.0
 11
-120.8423393758658
 21
99.225
 31
0.0
  0
LINE
  5
1C0
330
1F
100
AcDbEntity
  8
0
100
AcDbLine
 10
-121.0499999999999
 20
100.0
 30
0.0
 11
-120.997185030748
 21
99.59883048009121
 31
0.0
  0
LINE
  5
1C1
330
1F
100
AcDbEntity
  8
0
100
AcDbLine
 10
-120.997185030748
 20
100.401169519909
 30
0.0
 11
-121.0499999999999
 21
100.0
 31
0.0
  0
LINE
  5
1C2
330
1F
100
AcDbEntity
  8
0
100
AcDbLine
 10
-120.8423393758658
 20
100.775
 30
0.0
 11
-120.997185030748
 21
100.401169519909
 31
0.0
  0
LINE
  5
1C3
330
1F
100
AcDbEntity
  8
0
100
AcDbLine
 10
-120.5960155108391
 20
101.0960155108393
 30
0.0
 11
-120.8423393758658
 21
100.775
 31
0.0
  0
LINE
  5
1C4
330
1F
100
AcDbEntity
  8
0
100
AcDbLine
 10
-120.2749999999999
 20
101.342339375866
 30
0.0
 11
-120.5960155108391
 21
101.0960155108393
 31
0.0
  0
LINE
  5
1C5
330
1F
100
AcDbEntity
  8
0
100
AcDbLine
 10
-119.9011695199088
 20
101.497185030748
 30
0.0
 11
-120.2749999999999
 21
101.342339375866
 31
0.0
  0
LINE
  5
1C6
330
1F
100
AcDbEntity
  8
0
100
AcDbLine
 10
-119.4999999999999
 20
101.55
 30
0.0
 11
-119.9011695199088
 21
101.497185030748
 31
0.0
  0
LINE
  5
1C7
330
1F
100
AcDbEntity
  8
0
100
AcDbLine
 10
-119.098830480091
 20
101.497185030748
 30
0.0
 11
-119.4999999999999
 21
101.55
 31
0.0
  0
LINE
  5
1C8
330
1F
100
AcDbEntity
  8
0
100
AcDbLine
 10
-118.7249999999999
 20
101.342339375866
 30
0.0
 11
-119.098830480091
 21
101.497185030748
 31
0.0
  0
LINE
  5
1C9
330
1F
100
AcDbEntity
  8
0
100
AcDbLine
 10
-118.4039844891608
 20
101.0960155108393
 30
0.0
 11
-118.7249999999999
 21
101.342339375866
 31
0.0
  0
LINE
  5
1CA
330
1F
100
AcDbEntity
  8
0
100
AcDbLine
 10
-118.157660624134
 20
100.775
 30
0.0
 11
-118.4039844891608
 21
101.0960155108393
 31
0.0
  0
LINE
  5
1CB
330
1F
100
AcDbEntity
  8
0
100
AcDbLine
 10
-118.0028149692519
 20
100.401169519909
 30
0.0
 11
-118.157660624134
 21
100.775
 31
0.0
  0
LINE
  5
1CC
330
1F
100
AcDbEntity
  8
0
100
AcDbLine
 10
-117.9499999999999
 20
100.0
 30
0.0
 11
-118.0028149692519
 21
100.401169519909
 31
0.0
  0
LINE
  5
1CD
330
1F
100
AcDbEntity
  8
0
100
AcDbLine
 10
-118.0028149692519
 20
99.59883048009121
 30
0.0
 11
-117.9499999999999
 21
100.0
 31
0.0
  0
LINE
  5
1CE
330
1F
100
AcDbEntity
  8
0
100
AcDbLine
 10
-118.157660624134
 20
99.225
 30
0.0
 11
-118.0028149692519
 21
99.59883048009121
 31
0.0
  0
LINE
  5
1CF
330
1F
100
AcDbEntity
  8
0
100
AcDbLine
 10
-118.4039844891608
 20
98.90398448916093
 30
0.0
 11
-118.157660624134
 21
99.225
 31
0.0
  0
LINE
  5
1D0
330
1F
100
AcDbEntity
  8
0
100
AcDbLine
 10
-118.7249999999999
 20
98.65766062413414
 30
0.0
 11
-118.4039844891608
 21
98.90398448916093
 31
0.0
  0
LINE
  5
1D1
330
1F
100
AcDbEntity
  8
0
100
AcDbLine
 10
-119.098830480091
 20
98.50281496925196
 30
0.0
 11
-118.7249999999999
 21
98.65766062413414
 31
0.0
  0
LINE
  5
1D2
330
1F
100
AcDbEntity
  8
0
100
AcDbLine
 10
-119.4999999999999
 20
98.44999999999999
 30
0.0
 11
-119.098830480091
 21
98.50281496925196
 31
0.0
  0
LINE
  5
1D3
330
1F
100
AcDbEntity
  8
0
100
AcDbLine
 10
-119.9011695199088
 20
98.50281496925196
 30
0.0
 11
-119.4999999999999
 21
98.44999999999999
 31
0.0
  0
LINE
  5
1D4
330
1F
100
AcDbEntity
  8
0
100
AcDbLine
 10
-120.2749999999999
 20
98.65766062413414
 30
0.0
 11
-119.9011695199088
 21
98.50281496925196
 31
0.0
  0
LINE
  5
1D5
330
1F
100
AcDbEntity
  8
0
100
AcDbLine
 10
-119.0439386970737
 20
1.481387217432748
 30
0.0
 11
-119.4428898341754
 21
1.548947522984251
 31
0.0
  0
LINE
  5
1D6
330
1F
100
AcDbEntity
  8
0
100
AcDbLine
 10
-118.6760673840894
 20
1.312872821121179
 30
0.0
 11
-119.0439386970737
 21
1.481387217432748
 31
0.0
  0
LINE
  5
1D7
330
1F
100
AcDbEntity
  8
0
100
AcDbLine
 10
-118.3643457172663
 20
1.054888311675198
 30
0.0
 11
-118.6760673840894
 21
1.312872821121179
 31
0.0
  0
LINE
  5
1D8
330
1F
100
AcDbEntity
  8
0
100
AcDbLine
 10
-118.1300170130541
 20
0.7250149070739581
 30
0.0
 11
-118.3643457172663
 21
1.054888311675198
 31
0.0
  0
LINE
  5
1D9
330
1F
100
AcDbEntity
  8
0
100
AcDbLine
 10
-117.9890503853984
 20
0.3457329346993319
 30
0.0
 11
-118.1300170130541
 21
0.7250149070739581
 31
0.0
  0
LINE
  5
1DA
330
1F
100
AcDbEntity
  8
0
100
AcDbLine
 10
-117.9510524770154
 20
-0.0571101658243961
 30
0.0
 11
-117.9890503853984
 21
0.3457329346993319
 31
0.0
  0
LINE
  5
1DB
330
1F
100
AcDbEntity
  8
0
100
AcDbLine
 10
-118.018612782567
 20
-0.4560613029261404
 30
0.0
 11
-117.9510524770154
 21
-0.0571101658243961
 31
0.0
  0
LINE
  5
1DC
330
1F
100
AcDbEntity
  8
0
100
AcDbLine
 10
-118.1871271788785
 20
-0.8239326159104734
 30
0.0
 11
-118.018612782567
 21
-0.4560613029261404
 31
0.0
  0
LINE
  5
1DD
330
1F
100
AcDbEntity
  8
0
100
AcDbLine
 10
-118.4451116883245
 20
-1.135654282733597
 30
0.0
 11
-118.1871271788785
 21
-0.8239326159104734
 31
0.0
  0
LINE
  5
1DE
330
1F
100
AcDbEntity
  8
0
100
AcDbLine
 10
-118.7749850929258
 20
-1.369982986945756
 30
0.0
 11
-118.4451116883245
 21
-1.135654282733597
 31
0.0
  0
LINE
  5
1DF
330
1F
100
AcDbEntity
  8
0
100
AcDbLine
 10
-119.1542670653005
 20
-1.510949614601519
 30
0.0
 11
-118.7749850929258
 21
-1.369982986945756
 31
0.0
  0
LINE
  5
1E0
330
1F
100
AcDbEntity
  8
0
100
AcDbLine
 10
-119.5571101658242
 20
-1.548947522984432
 30
0.0
 11
-119.1542670653005
 21
-1.510949614601519
 31
0.0
  0
LINE
  5
1E1
330
1F
100
AcDbEntity
  8
0
100
AcDbLine
 10
-119.9560613029259
 20
-1.481387217432929
 30
0.0
 11
-119.5571101658242
 21
-1.548947522984432
 31
0.0
  0
LINE
  5
1E2
330
1F
100
AcDbEntity
  8
0
100
AcDbLine
 10
-120.3239326159102
 20
-1.31287282112136
 30
0.0
 11
-119.9560613029259
 21
-1.481387217432929
 31
0.0
  0
LINE
  5
1E3
330
1F
100
AcDbEntity
  8
0
100
AcDbLine
 10
-120.6356542827333
 20
-1.054888311675378
 30
0.0
 11
-120.3239326159102
 21
-1.31287282112136
 31
0.0
  0
LINE
  5
1E4
330
1F
100
AcDbEntity
  8
0
100
AcDbLine
 10
-120.8699829869455
 20
-0.7250149070739581
 30
0.0
 11
-120.6356542827333
 21
-1.054888311675378
 31
0.0
  0
LINE
  5
1E5
330
1F
100
AcDbEntity
  8
0
100
AcDbLine
 10
-121.0109496146012
 20
-0.3457329346993319
 30
0.0
 11
-120.8699829869455
 21
-0.7250149070739581
 31
0.0
  0
LINE
  5
1E6
330
1F
100
AcDbEntity
  8
0
100
AcDbLine
 10
-121.0489475229842
 20
0.0571101658243961
 30
0.0
 11
-121.0109496146012
 21
-0.3457329346993319
 31
0.0
  0
LINE
  5
1E7
330
1F
100
AcDbEntity
  8
0
100
AcDbLine
 10
-120.9813872174326
 20
0.4560613029261404
 30
0.0
 11
-121.0489475229842
 21
0.0571101658243961
 31
0.0
  0
LINE
  5
1E8
330
1F
100
AcDbEntity
  8
0
100
AcDbLine
 10
-120.8128728211211
 20
0.823932615910293
 30
0.0
 11
-120.9813872174326
 21
0.4560613029261404
 31
0.0
  0
LINE
  5
1E9
330
1F
100
AcDbEntity
  8
0
100
AcDbLine
 10
-120.5548883116751
 20
1.135654282733417
 30
0.0
 11
-120.8128728211211
 21
0.823932615910293
 31
0.0
  0
LINE
  5
1EA
330
1F
100
AcDbEntity
  8
0
100
AcDbLine
 10
-120.2250149070738
 20
1.369982986945575
 30
0.0
 11
-120.5548883116751
 21
1.135654282733417
 31
0.0
  0
LINE
  5
1EB
330
1F
100
AcDbEntity
  8
0
100
AcDbLine
 10
-119.8457329346991
 20
1.510949614601338
 30
0.0
 11
-120.2250149070738
 21
1.369982986945575
 31
0.0
  0
LINE
  5
1EC
330
1F
100
AcDbEntity
  8
0
100
AcDbLine
 10
-119.4428898341754
 20
1.548947522984251
 30
0.0
 11
-119.8457329346991
 21
1.510949614601338
 31
0.0
  0
LINE
  5
1ED
330
1F
100
AcDbEntity
  8
0
100
AcDbLine
 10
-120.9454984171606
 20
-99.44050529405023
 30
0.0
 11
-121.0410521385293
 21
-99.83369213387785
 31
0.0
  0
LINE
  5
1EE
330
1F
100
AcDbEntity
  8
0
100
AcDbLine
 10
-120.7514363674616
 20
-99.0854470938244
 30
0.0
 11
-120.9454984171606
 21
-99.44050529405023
 31
0.0
  0
LINE
  5
1EF
330
1F
100
AcDbEntity
  8
0
100
AcDbLine
 10
-120.4720909974164
 20
-98.79271416278429
 30
0.0
 11
-120.7514363674616
 21
-99.0854470938244
 31
0.0
  0
LINE
  5
1F0
330
1F
100
AcDbEntity
  8
0
100
AcDbLine
 10
-120.1264992323536
 20
-98.58225576641627
 30
0.0
 11
-120.4720909974164
 21
-98.79271416278429
 31
0.0
  0
LINE
  5
1F1
330
1F
100
AcDbEntity
  8
0
100
AcDbLine
 10
-119.7382125799448
 20
-98.46841429663382
 30
0.0
 11
-120.1264992323536
 21
-98.58225576641627
 31
0.0
  0
LINE
  5
1F2
330
1F
100
AcDbEntity
  8
0
100
AcDbLine
 10
-119.3336921338777
 20
-98.45894786147073
 30
0.0
 11
-119.7382125799448
 21
-98.46841429663382
 31
0.0
  0
LINE
  5
1F3
330
1F
100
AcDbEntity
  8
0
100
AcDbLine
 10
-118.9405052940501
 20
-98.55450158283946
 30
0.0
 11
-119.3336921338777
 21
-98.45894786147073
 31
0.0
  0
LINE
  5
1F4
330
1F
100
AcDbEntity
  8
0
100
AcDbLine
 10
-118.5854470938242
 20
-98.74856363253843
 30
0.0
 11
-118.9405052940501
 21
-98.55450158283946
 31
0.0
  0
LINE
  5
1F5
330
1F
100
AcDbEntity
  8
0
100
AcDbLine
 10
-118.2927141627841
 20
-99.0279090025836
 30
0.0
 11
-118.5854470938242
 21
-98.74856363253843
 31
0.0
  0
LINE
  5
1F6
330
1F
100
AcDbEntity
  8
0
100
AcDbLine
 10
-118.0822557664161
 20
-99.37350076764652
 30
0.0
 11
-118.2927141627841
 21
-99.0279090025836
 31
0.0
  0
LINE
  5
1F7
330
1F
100
AcDbEntity
  8
0
100
AcDbLine
 10
-117.9684142966336
 20
-99.76178742005517
 30
0.0
 11
-118.0822557664161
 21
-99.37350076764652
 31
0.0
  0
LINE
  5
1F8
330
1F
100
AcDbEntity
  8
0
100
AcDbLine
 10
-117.9589478614706
 20
-100.1663078661223
 30
0.0
 11
-117.9684142966336
 21
-99.76178742005517
 31
0.0
  0
LINE
  5
1F9
330
1F
100
AcDbEntity
  8
0
100
AcDbLine
 10
-118.0545015828392
 20
-100.55949470595
 30
0.0
 11
-117.9589478614706
 21
-100.1663078661223
 31
0.0
  0
LINE
  5
1FA
330
1F
100
AcDbEntity
  8
0
100
AcDbLine
 10
-118.2485636325382
 20
-100.9145529061758
 30
0.0
 11
-118.0545015828392
 21
-100.55949470595
 31
0.0
  0
LINE
  5
1FB
330
1F
100
AcDbEntity
  8
0
100
AcDbLine
 10
-118.5279090025835
 20
-101.2072858372159
 30
0.0
 11
-118.2485636325382
 21
-100.9145529061758
 31
0.0
  0
LINE
  5
1FC
330
1F
100
AcDbEntity
  8
0
100
AcDbLine
 10
-118.8735007676462
 20
-101.4177442335839
 30
0.0
 11
-118.5279090025835
 21
-101.2072858372159
 31
0.0
  0
LINE
  5
1FD
330
1F
100
AcDbEntity
  8
0
100
AcDbLine
 10
-119.261787420055
 20
-101.5315857033664
 30
0.0
 11
-118.8735007676462
 21
-101.4177442335839
 31
0.0
  0
LINE
  5
1FE
330
1F
100
AcDbEntity
  8
0
100
AcDbLine
 10
-119.6663078661221
 20
-101.5410521385294
 30
0.0
 11
-119.261787420055
 21
-101.5315857033664
 31
0.0
  0
LINE
  5
1FF
330
1F
100
AcDbEntity
  8
0
100
AcDbLine
 10
-120.0594947059497
 20
-101.4454984171609
 30
0.0
 11
-119.6663078661221
 21
-101.5410521385294
 31
0.0
  0
LINE
  5
200
330
1F
100
AcDbEntity
  8
0
100
AcDbLine
 10
-120.4145529061756
 20
-101.2514363674617
 30
0.0
 11
-120.0594947059497
 21
-101.4454984171609
 31
0.0
  0
LINE
  5
201
330
1F
100
AcDbEntity
  8
0
100
AcDbLine
 10
-120.7072858372157
 20
-100.9720909974166
 30
0.0
 11
-120.4145529061756
 21
-101.2514363674617
 31
0.0
  0
LINE
  5
202
330
1F
100
AcDbEntity
  8
0
100
AcDbLine
 10
-120.9177442335837
 20
-100.6264992323538
 30
0.0
 11
-120.7072858372157
 21
-100.9720909974166
 31
0.0
  0
LINE
  5
203
330
1F
100
AcDbEntity
  8
0
100
AcDbLine
 10
-121.0315857033662
 20
-100.238212579945
 30
0.0
 11
-120.9177442335837
 21
-100.6264992323538
 31
0.0
  0
LINE
  5
204
330
1F
100
AcDbEntity
  8
0
100
AcDbLine
 10
-121.0410521385293
 20
-99.83369213387785
 30
0.0
 11
-121.0315857033662
 21
-100.238212579945
 31
0.0
  0
LINE
  5
205
330
1F
100
AcDbEntity
  8
0
100
AcDbLine
 10
-105.225
 20
151.3423393758655
 30
0.0
 11
-105.5988304800911
 21
151.4971850307477
 31
0.0
  0
LINE
  5
206
330
1F
100
AcDbEntity
  8
0
100
AcDbLine
 10
-104.9039844891608
 20
151.0960155108389
 30
0.0
 11
-105.225
 21
151.3423393758655
 31
0.0
  0
LINE
  5
207
330
1F
100
AcDbEntity
  8
0
100
AcDbLine
 10
-104.6576606241341
 20
150.7749999999998
 30
0.0
 11
-104.9039844891608
 21
151.0960155108389
 31
0.0
  0
LINE
  5
208
330
1F
100
AcDbEntity
  8
0
100
AcDbLine
 10
-104.5028149692519
 20
150.4011695199086
 30
0.0
 11
-104.6576606241341
 21
150.7749999999998
 31
0.0
  0
LINE
  5
209
330
1F
100
AcDbEntity
  8
0
100
AcDbLine
 10
-104.4499999999999
 20
149.9999999999998
 30
0.0
 11
-104.5028149692519
 21
150.4011695199086
 31
0.0
  0
LINE
  5
20A
330
1F
100
AcDbEntity
  8
0
100
AcDbLine
 10
-104.5028149692519
 20
149.598830480091
 30
0.0
 11
-104.4499999999999
 21
149.9999999999998
 31
0.0
  0
LINE
  5
20B
330
1F
100
AcDbEntity
  8
0
100
AcDbLine
 10
-104.657660624134
 20
149.2249999999998
 30
0.0
 11
-104.5028149692519
 21
149.598830480091
 31
0.0
  0
LINE
  5
20C
330
1F
100
AcDbEntity
  8
0
100
AcDbLine
 10
-104.9039844891607
 20
148.9039844891607
 30
0.0
 11
-104.657660624134
 21
149.2249999999998
 31
0.0
  0
LINE
  5
20D
330
1F
100
AcDbEntity
  8
0
100
AcDbLine
 10
-105.2249999999999
 20
148.657660624134
 30
0.0
 11
-104.9039844891607
 21
148.9039844891607
 31
0.0
  0
LINE
  5
20E
330
1F
100
AcDbEntity
  8
0
100
AcDbLine
 10
-105.5988304800909
 20
148.5028149692518
 30
0.0
 11
-105.2249999999999
 21
148.657660624134
 31
0.0
  0
LINE
  5
20F
330
1F
100
AcDbEntity
  8
0
100
AcDbLine
 10
-105.9999999999998
 20
148.4499999999998
 30
0.0
 11
-105.5988304800909
 21
148.5028149692518
 31
0.0
  0
LINE
  5
210
330
1F
100
AcDbEntity
  8
0
100
AcDbLine
 10
-106.4011695199087
 20
148.5028149692518
 30
0.0
 11
-105.9999999999998
 21
148.4499999999998
 31
0.0
  0
LINE
  5
211
330
1F
100
AcDbEntity
  8
0
100
AcDbLine
 10
-106.7749999999998
 20
148.6576606241338
 30
0.0
 11
-106.4011695199087
 21
148.5028149692518
 31
0.0
  0
LINE
  5
212
330
1F
100
AcDbEntity
  8
0
100
AcDbLine
 10
-107.0960155108389
 20
148.9039844891606
 30
0.0
 11
-106.7749999999998
 21
148.6576606241338
 31
0.0
  0
LINE
  5
213
330
1F
100
AcDbEntity
  8
0
100
AcDbLine
 10
-107.3423393758657
 20
149.2249999999996
 30
0.0
 11
-107.0960155108389
 21
148.9039844891606
 31
0.0
  0
LINE
  5
214
330
1F
100
AcDbEntity
  8
0
100
AcDbLine
 10
-107.4971850307478
 20
149.5988304800907
 30
0.0
 11
-107.3423393758657
 21
149.2249999999996
 31
0.0
  0
LINE
  5
215
330
1F
100
AcDbEntity
  8
0
100
AcDbLine
 10
-107.5499999999998
 20
149.9999999999996
 30
0.0
 11
-107.4971850307478
 21
149.5988304800907
 31
0.0
  0
LINE
  5
216
330
1F
100
AcDbEntity
  8
0
100
AcDbLine
 10
-107.4971850307479
 20
150.4011695199086
 30
0.0
 11
-107.5499999999998
 21
149.9999999999996
 31
0.0
  0
LINE
  5
217
330
1F
100
AcDbEntity
  8
0
100
AcDbLine
 10
-107.3423393758657
 20
150.7749999999996
 30
0.0
 11
-107.4971850307479
 21
150.4011695199086
 31
0.0
  0
LINE
  5
218
330
1F
100
AcDbEntity
  8
0
100
AcDbLine
 10
-107.096015510839
 20
151.0960155108387
 30
0.0
 11
-107.3423393758657
 21
150.7749999999996
 31
0.0
  0
LINE
  5
219
330
1F
100
AcDbEntity
  8
0
100
AcDbLine
 10
-106.7749999999999
 20
151.3423393758655
 30
0.0
 11
-107.096015510839
 21
151.0960155108387
 31
0.0
  0
LINE
  5
21A
330
1F
100
AcDbEntity
  8
0
100
AcDbLine
 10
-106.4011695199088
 20
151.4971850307477
 30
0.0
 11
-106.7749999999999
 21
151.3423393758655
 31
0.0
  0
LINE
  5
21B
330
1F
100
AcDbEntity
  8
0
100
AcDbLine
 10
-105.9999999999999
 20
151.5499999999996
 30
0.0
 11
-106.4011695199088
 21
151.4971850307477
 31
0.0
  0
LINE
  5
21C
330
1F
100
AcDbEntity
  8
0
100
AcDbLine
 10
-105.5988304800911
 20
151.4971850307477
 30
0.0
 11
-105.9999999999999
 21
151.5499999999996
 31
0.0
  0
LINE
  5
21D
330
1F
100
AcDbEntity
  8
0
100
AcDbLine
 10
-104.4500000000002
 20
-150.0000000000004
 30
0.0
 11
-104.5028149692521
 21
-149.5988304800914
 31
0.0
  0
LINE
  5
21E
330
1F
100
AcDbEntity
  8
0
100
AcDbLine
 10
-104.5028149692521
 20
-150.4011695199092
 30
0.0
 11
-104.4500000000002
 21
-150.0000000000004
 31
0.0
  0
LINE
  5
21F
330
1F
100
AcDbEntity
  8
0
100
AcDbLine
 10
-104.6576606241343
 20
-150.7750000000004
 30
0.0
 11
-104.5028149692521
 21
-150.4011695199092
 31
0.0
  0
LINE
  5
220
330
1F
100
AcDbEntity
  8
0
100
AcDbLine
 10
-104.903984489161
 20
-151.0960155108394
 30
0.0
 11
-104.6576606241343
 21
-150.7750000000004
 31
0.0
  0
LINE
  5
221
330
1F
100
AcDbEntity
  8
0
100
AcDbLine
 10
-105.2250000000002
 20
-151.3423393758662
 30
0.0
 11
-104.903984489161
 21
-151.0960155108394
 31
0.0
  0
LINE
  5
222
330
1F
100
AcDbEntity
  8
0
100
AcDbLine
 10
-105.5988304800913
 20
-151.4971850307484
 30
0.0
 11
-105.2250000000002
 21
-151.3423393758662
 31
0.0
  0
LINE
  5
223
330
1F
100
AcDbEntity
  8
0
100
AcDbLine
 10
-106.0000000000003
 20
-151.5500000000004
 30
0.0
 11
-105.5988304800913
 21
-151.4971850307484
 31
0.0
  0
LINE
  5
224
330
1F
100
AcDbEntity
  8
0
100
AcDbLine
 10
-106.4011695199092
 20
-151.4971850307484
 30
0.0
 11
-106.0000000000003
 21
-151.5500000000004
 31
0.0
  0
LINE
  5
225
330
1F
100
AcDbEntity
  8
0
100
AcDbLine
 10
-106.7750000000003
 20
-151.3423393758662
 30
0.0
 11
-106.4011695199092
 21
-151.4971850307484
 31
0.0
  0
LINE
  5
226
330
1F
100
AcDbEntity
  8
0
100
AcDbLine
 10
-107.0960155108394
 20
-151.0960155108394
 30
0.0
 11
-106.7750000000003
 21
-151.3423393758662
 31
0.0
  0
LINE
  5
227
330
1F
100
AcDbEntity
  8
0
100
AcDbLine
 10
-107.3423393758662
 20
-150.7750000000002
 30
0.0
 11
-107.0960155108394
 21
-151.0960155108394
 31
0.0
  0
LINE
  5
228
330
1F
100
AcDbEntity
  8
0
100
AcDbLine
 10
-107.4971850307483
 20
-150.4011695199092
 30
0.0
 11
-107.3423393758662
 21
-150.7750000000002
 31
0.0
  0
LINE
  5
229
330
1F
100
AcDbEntity
  8
0
100
AcDbLine
 10
-107.5500000000003
 20
-150.0000000000002
 30
0.0
 11
-107.4971850307483
 21
-150.4011695199092
 31
0.0
  0
LINE
  5
22A
330
1F
100
AcDbEntity
  8
0
100
AcDbLine
 10
-107.4971850307483
 20
-149.5988304800914
 30
0.0
 11
-107.5500000000003
 21
-150.0000000000002
 31
0.0
  0
LINE
  5
22B
330
1F
100
AcDbEntity
  8
0
100
AcDbLine
 10
-107.3423393758661
 20
-149.2250000000002
 30
0.0
 11
-107.4971850307483
 21
-149.5988304800914
 31
0.0
  0
LINE
  5
22C
330
1F
100
AcDbEntity
  8
0
100
AcDbLine
 10
-107.0960155108394
 20
-148.9039844891611
 30
0.0
 11
-107.3423393758661
 21
-149.2250000000002
 31
0.0
  0
LINE
  5
22D
330
1F
100
AcDbEntity
  8
0
100
AcDbLine
 10
-106.7750000000002
 20
-148.6576606241343
 30
0.0
 11
-107.0960155108394
 21
-148.9039844891611
 31
0.0
  0
LINE
  5
22E
330
1F
100
AcDbEntity
  8
0
100
AcDbLine
 10
-106.4011695199091
 20
-148.5028149692521
 30
0.0
 11
-106.7750000000002
 21
-148.6576606241343
 31
0.0
  0
LINE
  5
22F
330
1F
100
AcDbEntity
  8
0
100
AcDbLine
 10
-106.0000000000002
 20
-148.4500000000002
 30
0.0
 11
-106.4011695199091
 21
-148.5028149692521
 31
0.0
  0
LINE
  5
230
330
1F
100
AcDbEntity
  8
0
100
AcDbLine
 10
-105.5988304800913
 20
-148.5028149692521
 30
0.0
 11
-106.0000000000002
 21
-148.4500000000002
 31
0.0
  0
LINE
  5
231
330
1F
100
AcDbEntity
  8
0
100
AcDbLine
 10
-105.2250000000002
 20
-148.6576606241343
 30
0.0
 11
-105.5988304800913
 21
-148.5028149692521
 31
0.0
  0
LINE
  5
232
330
1F
100
AcDbEntity
  8
0
100
AcDbLine
 10
-104.903984489161
 20
-148.9039844891611
 30
0.0
 11
-105.2250000000002
 21
-148.6576606241343
 31
0.0
  0
LINE
  5
233
330
1F
100
AcDbEntity
  8
0
100
AcDbLine
 10
-104.6576606241343
 20
-149.2250000000004
 30
0.0
 11
-104.903984489161
 21
-148.9039844891611
 31
0.0
  0
LINE
  5
234
330
1F
100
AcDbEntity
  8
0
100
AcDbLine
 10
-104.5028149692521
 20
-149.5988304800914
 30
0.0
 11
-104.6576606241343
 21
-149.2250000000004
 31
0.0
  0
LINE
  5
235
330
1F
100
AcDbEntity
  8
0
100
AcDbLine
 10
96.06066016782833
 20
-85.56066017572803
 30
0.0
 11
95.7499999935473
 21
-85.79903810939885
 31
0.0
  0
LINE
  5
236
330
1F
100
AcDbEntity
  8
0
100
AcDbLine
 10
95.7499999935473
 20
-85.79903810939885
 30
0.0
 11
95.38822855865789
 21
-85.948888741841
 31
0.0
  0
LINE
  5
237
330
1F
100
AcDbEntity
  8
0
100
AcDbLine
 10
95.38822855865789
 20
-85.948888741841
 30
0.0
 11
94.999999988824
 21
-85.99999999999686
 31
0.0
  0
LINE
  5
238
330
1F
100
AcDbEntity
  8
0
100
AcDbLine
 10
94.61177141975173
 20
-85.94888873605615
 30
0.0
 11
94.999999988824
 21
-85.99999999999686
 31
0.0
  0
LINE
  5
239
330
1F
100
AcDbEntity
  8
0
100
AcDbLine
 10
94.2499999870952
 20
-85.79903809822312
 30
0.0
 11
94.61177141975173
 21
-85.94888873605615
 31
0.0
  0
LINE
  5
23A
330
1F
100
AcDbEntity
  8
0
100
AcDbLine
 10
94.2499999870952
 20
-85.79903809822312
 30
0.0
 11
93.93933981636614
 21
-85.56066015992305
 31
0.0
  0
LINE
  5
23B
330
1F
100
AcDbEntity
  8
0
100
AcDbLine
 10
93.93933981636614
 20
-85.56066015992305
 30
0.0
 11
93.70096188501013
 21
-85.24999998386592
 31
0.0
  0
LINE
  5
23C
330
1F
100
AcDbEntity
  8
0
100
AcDbLine
 10
93.70096188501013
 20
-85.24999998386592
 30
0.0
 11
93.55111125526324
 21
-84.88822854785971
 31
0.0
  0
LINE
  5
23D
330
1F
100
AcDbEntity
  8
0
100
AcDbLine
 10
93.55111125526324
 20
-84.88822854785971
 30
0.0
 11
93.4999999999999
 21
-84.4999999999972
 31
0.0
  0
LINE
  5
23E
330
1F
100
AcDbEntity
  8
0
100
AcDbLine
 10
93.4999999999999
 20
-84.4999999999972
 30
0.0
 11
93.49999999999972
 21
-15.49999999999702
 31
0.0
  0
LINE
  5
23F
330
1F
100
AcDbEntity
  8
0
100
AcDbLine
 10
93.55111126056623
 20
-15.11177143234313
 30
0.0
 11
93.49999999999972
 21
-15.49999999999702
 31
0.0
  0
LINE
  5
240
330
1F
100
AcDbEntity
  8
0
100
AcDbLine
 10
93.70096189432316
 20
-14.74999999999683
 30
0.0
 11
93.55111126056623
 21
-15.11177143234313
 31
0.0
  0
LINE
  5
241
330
1F
100
AcDbEntity
  8
0
100
AcDbLine
 10
93.93933982821993
 20
-14.43933982821703
 30
0.0
 11
93.70096189432316
 21
-14.74999999999683
 31
0.0
  0
LINE
  5
242
330
1F
100
AcDbEntity
  8
0
100
AcDbLine
 10
94.24999999999973
 20
-14.20096189432025
 30
0.0
 11
93.93933982821993
 21
-14.43933982821703
 31
0.0
  0
LINE
  5
243
330
1F
100
AcDbEntity
  8
0
100
AcDbLine
 10
94.6117714323462
 20
-14.05111126056314
 30
0.0
 11
94.24999999999973
 21
-14.20096189432025
 31
0.0
  0
LINE
  5
244
330
1F
100
AcDbEntity
  8
0
100
AcDbLine
 10
94.99999999999991
 20
-13.99999999999682
 30
0.0
 11
94.6117714323462
 21
-14.05111126056314
 31
0.0
  0
LINE
  5
245
330
1F
100
AcDbEntity
  8
0
100
AcDbLine
 10
95.38822856765363
 20
-14.05111126056332
 30
0.0
 11
94.99999999999991
 21
-13.99999999999682
 31
0.0
  0
LINE
  5
246
330
1F
100
AcDbEntity
  8
0
100
AcDbLine
 10
95.74999999999983
 20
-14.20096189432025
 30
0.0
 11
95.38822856765363
 21
-14.05111126056332
 31
0.0
  0
LINE
  5
247
330
1F
100
AcDbEntity
  8
0
100
AcDbLine
 10
95.74999999999983
 20
-14.20096189432025
 30
0.0
 11
96.06066017177953
 21
-14.43933982821703
 31
0.0
  0
LINE
  5
248
330
1F
100
AcDbEntity
  8
0
100
AcDbLine
 10
96.2990381056765
 20
-14.74999999999683
 30
0.0
 11
96.06066017177953
 21
-14.43933982821703
 31
0.0
  0
LINE
  5
249
330
1F
100
AcDbEntity
  8
0
100
AcDbLine
 10
96.44888873943378
 20
-15.11177143234294
 30
0.0
 11
96.2990381056765
 21
-14.74999999999683
 31
0.0
  0
LINE
  5
24A
330
1F
100
AcDbEntity
  8
0
100
AcDbLine
 10
96.49999999999984
 20
-15.49999999999684
 30
0.0
 11
96.44888873943378
 21
-15.11177143234294
 31
0.0
  0
LINE
  5
24B
330
1F
100
AcDbEntity
  8
0
100
AcDbLine
 10
96.49999999999984
 20
-15.49999999999684
 30
0.0
 11
96.49999999999976
 21
-84.4999999999972
 31
0.0
  0
LINE
  5
24C
330
1F
100
AcDbEntity
  8
0
100
AcDbLine
 10
96.49999999999976
 20
-84.4999999999972
 30
0.0
 11
96.4488887389512
 21
-84.8882285694501
 31
0.0
  0
LINE
  5
24D
330
1F
100
AcDbEntity
  8
0
100
AcDbLine
 10
96.4488887389512
 20
-84.8882285694501
 30
0.0
 11
96.29903810381379
 21
-85.25000000322326
 31
0.0
  0
LINE
  5
24E
330
1F
100
AcDbEntity
  8
0
100
AcDbLine
 10
96.29903810381379
 20
-85.25000000322326
 30
0.0
 11
96.06066016782833
 21
-85.56066017572803
 31
0.0
  0
LINE
  5
24F
330
1F
100
AcDbEntity
  8
0
100
AcDbLine
 10
89.74999999999976
 20
-14.20096189432025
 30
0.0
 11
89.38822856765373
 21
-14.05111126056314
 31
0.0
  0
LINE
  5
250
330
1F
100
AcDbEntity
  8
0
100
AcDbLine
 10
90.06066017177965
 20
-14.43933982821721
 30
0.0
 11
89.74999999999976
 21
-14.20096189432025
 31
0.0
  0
LINE
  5
251
330
1F
100
AcDbEntity
  8
0
100
AcDbLine
 10
90.2990381056766
 20
-14.74999999999683
 30
0.0
 11
90.06066017177965
 21
-14.43933982821721
 31
0.0
  0
LINE
  5
252
330
1F
100
AcDbEntity
  8
0
100
AcDbLine
 10
90.44888873943353
 20
-15.11177143234294
 30
0.0
 11
90.2990381056766
 21
-14.74999999999683
 31
0.0
  0
LINE
  5
253
330
1F
100
AcDbEntity
  8
0
100
AcDbLine
 10
90.49999999999986
 20
-15.49999999999684
 30
0.0
 11
90.44888873943353
 21
-15.11177143234294
 31
0.0
  0
LINE
  5
254
330
1F
100
AcDbEntity
  8
0
100
AcDbLine
 10
90.49999999999986
 20
-15.49999999999684
 30
0.0
 11
90.49999999999986
 21
-84.4999999999972
 31
0.0
  0
LINE
  5
255
330
1F
100
AcDbEntity
  8
0
100
AcDbLine
 10
90.49999999999986
 20
-84.4999999999972
 30
0.0
 11
90.4488887389513
 21
-84.8882285694501
 31
0.0
  0
LINE
  5
256
330
1F
100
AcDbEntity
  8
0
100
AcDbLine
 10
90.4488887389513
 20
-84.8882285694501
 30
0.0
 11
90.29903810381407
 21
-85.25000000322326
 31
0.0
  0
LINE
  5
257
330
1F
100
AcDbEntity
  8
0
100
AcDbLine
 10
90.06066016782843
 20
-85.56066017572803
 30
0.0
 11
90.29903810381407
 21
-85.25000000322326
 31
0.0
  0
LINE
  5
258
330
1F
100
AcDbEntity
  8
0
100
AcDbLine
 10
89.7499999935474
 20
-85.79903810939904
 30
0.0
 11
90.06066016782843
 21
-85.56066017572803
 31
0.0
  0
LINE
  5
259
330
1F
100
AcDbEntity
  8
0
100
AcDbLine
 10
89.7499999935474
 20
-85.79903810939904
 30
0.0
 11
89.38822855865781
 21
-85.948888741841
 31
0.0
  0
LINE
  5
25A
330
1F
100
AcDbEntity
  8
0
100
AcDbLine
 10
88.99999998882393
 20
-85.99999999999723
 30
0.0
 11
89.38822855865781
 21
-85.948888741841
 31
0.0
  0
LINE
  5
25B
330
1F
100
AcDbEntity
  8
0
100
AcDbLine
 10
88.99999998882393
 20
-85.99999999999723
 30
0.0
 11
88.61177141975185
 21
-85.94888873605596
 31
0.0
  0
LINE
  5
25C
330
1F
100
AcDbEntity
  8
0
100
AcDbLine
 10
88.61177141975185
 20
-85.94888873605596
 30
0.0
 11
88.24999998709512
 21
-85.79903809822312
 31
0.0
  0
LINE
  5
25D
330
1F
100
AcDbEntity
  8
0
100
AcDbLine
 10
88.24999998709512
 20
-85.79903809822312
 30
0.0
 11
87.93933981636626
 21
-85.56066015992286
 31
0.0
  0
LINE
  5
25E
330
1F
100
AcDbEntity
  8
0
100
AcDbLine
 10
87.70096188500987
 20
-85.24999998386629
 30
0.0
 11
87.93933981636626
 21
-85.56066015992286
 31
0.0
  0
LINE
  5
25F
330
1F
100
AcDbEntity
  8
0
100
AcDbLine
 10
87.70096188500987
 20
-85.24999998386629
 30
0.0
 11
87.55111125526335
 21
-84.8882285478599
 31
0.0
  0
LINE
  5
260
330
1F
100
AcDbEntity
  8
0
100
AcDbLine
 10
87.55111125526335
 20
-84.8882285478599
 30
0.0
 11
87.5
 21
-84.49999999999685
 31
0.0
  0
LINE
  5
261
330
1F
100
AcDbEntity
  8
0
100
AcDbLine
 10
87.5
 20
-84.49999999999685
 30
0.0
 11
87.49999999999963
 21
-15.49999999999702
 31
0.0
  0
LINE
  5
262
330
1F
100
AcDbEntity
  8
0
100
AcDbLine
 10
87.55111126056615
 20
-15.11177143234313
 30
0.0
 11
87.49999999999963
 21
-15.49999999999702
 31
0.0
  0
LINE
  5
263
330
1F
100
AcDbEntity
  8
0
100
AcDbLine
 10
87.70096189432307
 20
-14.74999999999701
 30
0.0
 11
87.55111126056615
 21
-15.11177143234313
 31
0.0
  0
LINE
  5
264
330
1F
100
AcDbEntity
  8
0
100
AcDbLine
 10
87.93933982822004
 20
-14.43933982821703
 30
0.0
 11
87.70096189432307
 21
-14.74999999999701
 31
0.0
  0
LINE
  5
265
330
1F
100
AcDbEntity
  8
0
100
AcDbLine
 10
88.24999999999983
 20
-14.20096189432025
 30
0.0
 11
87.93933982822004
 21
-14.43933982821703
 31
0.0
  0
LINE
  5
266
330
1F
100
AcDbEntity
  8
0
100
AcDbLine
 10
88.61177143234613
 20
-14.05111126056332
 30
0.0
 11
88.24999999999983
 21
-14.20096189432025
 31
0.0
  0
LINE
  5
267
330
1F
100
AcDbEntity
  8
0
100
AcDbLine
 10
88.99999999999984
 20
-13.99999999999682
 30
0.0
 11
88.61177143234613
 21
-14.05111126056332
 31
0.0
  0
LINE
  5
268
330
1F
100
AcDbEntity
  8
0
100
AcDbLine
 10
89.38822856765373
 20
-14.05111126056314
 30
0.0
 11
88.99999999999984
 21
-13.99999999999682
 31
0.0
  0
LINE
  5
269
330
1F
100
AcDbEntity
  8
0
100
AcDbLine
 10
88.24999998709512
 20
14.2009619017767
 30
0.0
 11
87.93933981636626
 21
14.43933984007678
 31
0.0
  0
LINE
  5
26A
330
1F
100
AcDbEntity
  8
0
100
AcDbLine
 10
87.70096188501006
 20
14.75000001613371
 30
0.0
 11
87.93933981636626
 21
14.43933984007678
 31
0.0
  0
LINE
  5
26B
330
1F
100
AcDbEntity
  8
0
100
AcDbLine
 10
87.55111125526335
 20
15.1117714521401
 30
0.0
 11
87.70096188501006
 21
14.75000001613371
 31
0.0
  0
LINE
  5
26C
330
1F
100
AcDbEntity
  8
0
100
AcDbLine
 10
87.55111125526335
 20
15.1117714521401
 30
0.0
 11
87.5
 21
15.50000000000279
 31
0.0
  0
LINE
  5
26D
330
1F
100
AcDbEntity
  8
0
100
AcDbLine
 10
87.5
 20
84.50000000000081
 30
0.0
 11
87.5
 21
15.50000000000279
 31
0.0
  0
LINE
  5
26E
330
1F
100
AcDbEntity
  8
0
100
AcDbLine
 10
87.55111126056642
 20
84.88822856765452
 30
0.0
 11
87.5
 21
84.50000000000081
 31
0.0
  0
LINE
  5
26F
330
1F
100
AcDbEntity
  8
0
100
AcDbLine
 10
87.70096189432326
 20
85.25000000000064
 30
0.0
 11
87.55111126056642
 21
84.88822856765452
 31
0.0
  0
LINE
  5
270
330
1F
100
AcDbEntity
  8
0
100
AcDbLine
 10
89.74999999999967
 20
85.79903810567721
 30
0.0
 11
89.38822856765346
 21
85.94888873943415
 31
0.0
  0
LINE
  5
271
330
1F
100
AcDbEntity
  8
0
100
AcDbLine
 10
90.06066017177982
 20
85.56066017178061
 30
0.0
 11
89.74999999999967
 21
85.79903810567721
 31
0.0
  0
LINE
  5
272
330
1F
100
AcDbEntity
  8
0
100
AcDbLine
 10
90.29903810567652
 20
85.25000000000064
 30
0.0
 11
90.06066017177982
 21
85.56066017178061
 31
0.0
  0
LINE
  5
273
330
1F
100
AcDbEntity
  8
0
100
AcDbLine
 10
90.44888873943361
 20
84.88822856765452
 30
0.0
 11
90.29903810567652
 21
85.25000000000064
 31
0.0
  0
LINE
  5
274
330
1F
100
AcDbEntity
  8
0
100
AcDbLine
 10
90.50000000000004
 20
84.50000000000081
 30
0.0
 11
90.44888873943361
 21
84.88822856765452
 31
0.0
  0
LINE
  5
275
330
1F
100
AcDbEntity
  8
0
100
AcDbLine
 10
90.50000000000004
 20
84.50000000000081
 30
0.0
 11
90.49999999999967
 21
15.50000000000279
 31
0.0
  0
LINE
  5
276
330
1F
100
AcDbEntity
  8
0
100
AcDbLine
 10
90.49999999999967
 20
15.50000000000279
 30
0.0
 11
90.4488887389513
 21
15.1117714305499
 31
0.0
  0
LINE
  5
277
330
1F
100
AcDbEntity
  8
0
100
AcDbLine
 10
90.4488887389513
 20
15.1117714305499
 30
0.0
 11
90.29903810381388
 21
14.74999999677674
 31
0.0
  0
LINE
  5
278
330
1F
100
AcDbEntity
  8
0
100
AcDbLine
 10
90.29903810381388
 20
14.74999999677674
 30
0.0
 11
90.06066016782826
 21
14.43933982427179
 31
0.0
  0
LINE
  5
279
330
1F
100
AcDbEntity
  8
0
100
AcDbLine
 10
90.06066016782826
 20
14.43933982427179
 30
0.0
 11
89.7499999935474
 21
14.20096189060079
 31
0.0
  0
LINE
  5
27A
330
1F
100
AcDbEntity
  8
0
100
AcDbLine
 10
89.7499999935474
 20
14.20096189060079
 30
0.0
 11
89.38822855865781
 21
14.051111258159
 31
0.0
  0
LINE
  5
27B
330
1F
100
AcDbEntity
  8
0
100
AcDbLine
 10
89.38822855865781
 20
14.051111258159
 30
0.0
 11
88.99999998882393
 21
14.00000000000277
 31
0.0
  0
LINE
  5
27C
330
1F
100
AcDbEntity
  8
0
100
AcDbLine
 10
88.61177141975202
 20
14.05111126394385
 30
0.0
 11
88.99999998882393
 21
14.00000000000277
 31
0.0
  0
LINE
  5
27D
330
1F
100
AcDbEntity
  8
0
100
AcDbLine
 10
88.61177141975202
 20
14.05111126394385
 30
0.0
 11
88.24999998709512
 21
14.2009619017767
 31
0.0
  0
LINE
  5
27E
330
1F
100
AcDbEntity
  8
0
100
AcDbLine
 10
93.70096188501013
 20
14.75000001613389
 30
0.0
 11
93.55111125526324
 21
15.1117714521401
 31
0.0
  0
LINE
  5
27F
330
1F
100
AcDbEntity
  8
0
100
AcDbLine
 10
93.55111125526324
 20
15.1117714521401
 30
0.0
 11
93.4999999999999
 21
15.50000000000279
 31
0.0
  0
LINE
  5
280
330
1F
100
AcDbEntity
  8
0
100
AcDbLine
 10
93.4999999999999
 20
15.50000000000279
 30
0.0
 11
93.49999999999972
 21
84.50000000000064
 31
0.0
  0
LINE
  5
281
330
1F
100
AcDbEntity
  8
0
100
AcDbLine
 10
93.5511112605664
 20
84.88822856765452
 30
0.0
 11
93.49999999999972
 21
84.50000000000064
 31
0.0
  0
LINE
  5
282
330
1F
100
AcDbEntity
  8
0
100
AcDbLine
 10
93.70096189432316
 20
85.25000000000082
 30
0.0
 11
93.5511112605664
 21
84.88822856765452
 31
0.0
  0
LINE
  5
283
330
1F
100
AcDbEntity
  8
0
100
AcDbLine
 10
93.70096189432316
 20
85.25000000000082
 30
0.0
 11
93.93933982822011
 21
85.56066017178044
 31
0.0
  0
LINE
  5
284
330
1F
100
AcDbEntity
  8
0
100
AcDbLine
 10
94.2499999999999
 20
85.79903810567721
 30
0.0
 11
93.93933982822011
 21
85.56066017178044
 31
0.0
  0
LINE
  5
285
330
1F
100
AcDbEntity
  8
0
100
AcDbLine
 10
94.61177143234585
 20
85.94888873943415
 30
0.0
 11
94.2499999999999
 21
85.79903810567721
 31
0.0
  0
LINE
  5
286
330
1F
100
AcDbEntity
  8
0
100
AcDbLine
 10
94.99999999999991
 20
86.00000000000065
 30
0.0
 11
94.61177143234585
 21
85.94888873943415
 31
0.0
  0
LINE
  5
287
330
1F
100
AcDbEntity
  8
0
100
AcDbLine
 10
95.38822856765363
 20
85.94888873943432
 30
0.0
 11
94.99999999999991
 21
86.00000000000065
 31
0.0
  0
LINE
  5
288
330
1F
100
AcDbEntity
  8
0
100
AcDbLine
 10
95.74999999999993
 20
85.7990381056774
 30
0.0
 11
95.38822856765363
 21
85.94888873943432
 31
0.0
  0
LINE
  5
289
330
1F
100
AcDbEntity
  8
0
100
AcDbLine
 10
96.06066017177972
 20
85.56066017178061
 30
0.0
 11
95.74999999999993
 21
85.7990381056774
 31
0.0
  0
LINE
  5
28A
330
1F
100
AcDbEntity
  8
0
100
AcDbLine
 10
96.2990381056765
 20
85.25000000000082
 30
0.0
 11
96.06066017177972
 21
85.56066017178061
 31
0.0
  0
LINE
  5
28B
330
1F
100
AcDbEntity
  8
0
100
AcDbLine
 10
96.44888873943343
 20
84.88822856765452
 30
0.0
 11
96.2990381056765
 21
85.25000000000082
 31
0.0
  0
LINE
  5
28C
330
1F
100
AcDbEntity
  8
0
100
AcDbLine
 10
96.49999999999976
 20
84.50000000000064
 30
0.0
 11
96.44888873943343
 21
84.88822856765452
 31
0.0
  0
LINE
  5
28D
330
1F
100
AcDbEntity
  8
0
100
AcDbLine
 10
96.49999999999976
 20
84.50000000000064
 30
0.0
 11
96.49999999999993
 21
15.50000000000279
 31
0.0
  0
LINE
  5
28E
330
1F
100
AcDbEntity
  8
0
100
AcDbLine
 10
96.49999999999993
 20
15.50000000000279
 30
0.0
 11
96.44888873895137
 21
15.1117714305499
 31
0.0
  0
LINE
  5
28F
330
1F
100
AcDbEntity
  8
0
100
AcDbLine
 10
96.44888873895137
 20
15.1117714305499
 30
0.0
 11
96.29903810381379
 21
14.74999999677674
 31
0.0
  0
LINE
  5
290
330
1F
100
AcDbEntity
  8
0
100
AcDbLine
 10
96.0606601678287
 20
14.43933982427197
 30
0.0
 11
96.29903810381379
 21
14.74999999677674
 31
0.0
  0
LINE
  5
291
330
1F
100
AcDbEntity
  8
0
100
AcDbLine
 10
96.0606601678287
 20
14.43933982427197
 30
0.0
 11
95.74999999354766
 21
14.20096189060115
 31
0.0
  0
LINE
  5
292
330
1F
100
AcDbEntity
  8
0
100
AcDbLine
 10
95.74999999354766
 20
14.20096189060115
 30
0.0
 11
95.3882285586577
 21
14.051111258159
 31
0.0
  0
LINE
  5
293
330
1F
100
AcDbEntity
  8
0
100
AcDbLine
 10
95.3882285586577
 20
14.051111258159
 30
0.0
 11
94.99999998882365
 21
14.00000000000277
 31
0.0
  0
LINE
  5
294
330
1F
100
AcDbEntity
  8
0
100
AcDbLine
 10
94.99999998882365
 20
14.00000000000277
 30
0.0
 11
94.61177141975173
 21
14.05111126394385
 31
0.0
  0
LINE
  5
295
330
1F
100
AcDbEntity
  8
0
100
AcDbLine
 10
94.61177141975173
 20
14.05111126394385
 30
0.0
 11
94.2499999870952
 21
14.20096190177706
 31
0.0
  0
LINE
  5
296
330
1F
100
AcDbEntity
  8
0
100
AcDbLine
 10
93.93933981636614
 20
14.43933984007678
 30
0.0
 11
94.2499999870952
 21
14.20096190177706
 31
0.0
  0
LINE
  5
297
330
1F
100
AcDbEntity
  8
0
100
AcDbLine
 10
93.93933981636614
 20
14.43933984007678
 30
0.0
 11
93.70096188501013
 21
14.75000001613389
 31
0.0
  0
ENDSEC
  0
SECTION
  2
OBJECTS
  0
DICTIONARY
  5
C
330
0
100
AcDbDictionary
  3
ACAD_GROUP
350
D
  3
ACAD_LAYOUT
350
1A
  3
ACAD_MATERIAL
350
43
  3
ACAD_MLEADERSTYLE
350
2BA
  3
ACAD_MLINESTYLE
350
17
  3
ACAD_PLOTSETTINGS
350
19
  3
ACAD_SCALELIST
350
47
  3
ACAD_VISUALSTYLE
350
2A
  3
ACDBHEADERROUNDTRIPXREC
350
298
  3
ACDBVARIABLEDICTIONARY
350
2B8
  0
DICTIONARY
  5
2BF
330
8
100
AcDbDictionary
280
     1
  3
ACAD_XREC_ROUNDTRIP
360
2C0
  0
DICTIONARY
  5
D
102
{ACAD_REACTORS
330
C
102
}
330
C
100
AcDbDictionary
  0
DICTIONARY
  5
1A
102
{ACAD_REACTORS
330
C
102
}
330
C
100
AcDbDictionary
  0
DICTIONARY
  5
43
102
{ACAD_REACTORS
330
C
102
}
330
C
100
AcDbDictionary
  3
BYBLOCK
350
45
  3
BYLAYER
350
44
  3
GLOBAL
350
46
  0
DICTIONARY
  5
2BA
102
{ACAD_REACTORS
330
C
102
}
330
C
100
AcDbDictionary
  0
DICTIONARY
  5
17
102
{ACAD_REACTORS
330
C
102
}
330
C
100
AcDbDictionary
  3
STANDARD
350
18
  0
DICTIONARY
  5
19
102
{ACAD_REACTORS
330
C
102
}
330
C
100
AcDbDictionary
  0
DICTIONARY
  5
47
102
{ACAD_REACTORS
330
C
102
}
330
C
100
AcDbDictionary
  3
A0
350
48
  3
A1
350
49
  3
A2
350
4A
  3
A3
350
4B
  3
A4
350
4C
  3
A5
350
4D
  3
A6
350
4E
  3
A7
350
4F
  3
A8
350
50
  3
A9
350
51
  3
B0
350
52
  3
B1
350
53
  3
B2
350
54
  3
B3
350
55
  3
B4
350
56
  3
B5
350
57
  3
B6
350
58
  3
B7
350
59
  3
B8
350
5A
  3
B9
350
5B
  3
C0
350
5C
  3
C1
350
5D
  3
C2
350
5E
  3
C3
350
5F
  3
C4
350
60
  3
C5
350
61
  3
C6
350
62
  3
C7
350
63
  3
C8
350
64
  3
C9
350
65
  3
D0
350
66
  3
D1
350
67
  3
D2
350
68
  0
DICTIONARY
  5
2A
102
{ACAD_REACTORS
330
C
102
}
330
C
100
AcDbDictionary
  3
2DWIREFRAME
350
2F
  3
BASIC
350
32
  3
BRIGHTEN
350
36
  3
COLORCHANGE
350
3A
  3
CONCEPTUAL
350
34
  3
DIM
350
35
  3
EDGECOLOROFF
350
3D
  3
FACEPATTERN
350
39
  3
FLAT
350
2B
  3
FLATWITHEDGES
350
2C
  3
GOURAUD
350
2D
  3
GOURAUDWITHEDGES
350
2E
  3
HIDDEN
350
31
  3
JITTEROFF
350
3B
  3
LINEPATTERN
350
38
  3
OVERHANGOFF
350
3C
  3
REALISTIC
350
33
  3
SHADED
350
42
  3
SHADED_WITH_EDGES
350
41
  3
SHADES_OF_GRAY
350
3E
  3
SKETCHY
350
3F
  3
THICKEN
350
37
  3
WIREFRAME
350
30
  3
X-RAY
350
40
  0
DICTIONARY
  5
298
102
{ACAD_REACTORS
330
C
102
}
330
C
100
AcDbDictionary
  3
CEPSNTYPE
350
2A1
  3
DIMSTYLEDATA
350
2B7
  3
FINGERPRINTGUID
350
2A2
  3
HYPERLINKBASE
350
29B
  3
INSUNITS
350
2A0
  3
LAYOUTDICT
350
29D
  3
LWETCUNION
350
29F
  3
PLOTSETDICT
350
29E
  3
PSVPSCALE
350
2A4
  3
PUCSBASE
350
2A7
  3
PUCSORGBACK
350
2AD
  3
PUCSORGBOTTOM
350
2A9
  3
PUCSORGFRONT
350
2AC
  3
PUCSORGLEFT
350
2AA
  3
PUCSORGRIGHT
350
2AB
  3
PUCSORGTOP
350
2A8
  3
PUCSORTHOREF
350
2A5
  3
PUCSORTHOVIEW
350
2A6
  3
STYLESHEET
350
29C
  3
TSTACKALIGN
350
299
  3
TSTACKSIZE
350
29A
  3
UCSBASE
350
2B0
  3
UCSORGBACK
350
2B6
  3
UCSORGBOTTOM
350
2B2
  3
UCSORGFRONT
350
2B5
  3
UCSORGLEFT
350
2B3
  3
UCSORGRIGHT
350
2B4
  3
UCSORGTOP
350
2B1
  3
UCSORTHOREF
350
2AE
  3
UCSORTHOVIEW
350
2AF
  3
VERSIONGUID
350
2A3
  0
DICTIONARY
  5
2B8
102
{ACAD_REACTORS
330
C
102
}
330
C
100
AcDbDictionary
  3
CANNOSCALE
350
2C1
  3
DIMASSOC
350
2BD
  3
HIDETEXT
350
2BE
  3
MSLTSCALE
350
2C2
  0
XRECORD
  5
2C0
102
{ACAD_REACTORS
330
2BF
102
}
330
2BF
100
AcDbXrecord
102
VTR_0.000_0.000_1.000_1.000_GRIDDISPLAY
 70
     3
102
VTR_0.000_0.000_1.000_1.000_GRIDMAJOR
 70
     5
102
VTR_0.000_0.000_1.000_1.000_DEFAULTLIGHTING
280
     1
102
VTR_0.000_0.000_1.000_1.000_DEFAULTLIGHTINGTYPE
 70
     1
102
VTR_0.000_0.000_1.000_1.000_BRIGHTNESS
141
0.0
102
VTR_0.000_0.000_1.000_1.000_CONTRAST
142
0.0
  0
MATERIAL
  5
45
102
{ACAD_REACTORS
330
43
102
}
102
{ACAD_XDICTIONARY
360
2C5
102
}
330
43
100
AcDbMaterial
  1
BYBLOCK
  0
MATERIAL
  5
44
102
{ACAD_REACTORS
330
43
102
}
102
{ACAD_XDICTIONARY
360
2C3
102
}
330
43
100
AcDbMaterial
  1
BYLAYER
  0
MATERIAL
  5
46
102
{ACAD_REACTORS
330
43
102
}
102
{ACAD_XDICTIONARY
360
2C7
102
}
330
43
100
AcDbMaterial
  1
GLOBAL
  0
MLINESTYLE
  5
18
102
{ACAD_REACTORS
330
17
102
}
330
17
100
AcDbMlineStyle
  2
Standard
 70
     0
  3

 62
   256
 51
90.0
 52
90.0
 71
     2
 49
0.5
 62
   256
  6
BYLAYER
 49
-0.5
 62
   256
  6
BYLAYER
  0
ACAD_PROXY_OBJECT
  5
48
102
{ACAD_REACTORS
330
47
102
}
330
47
100
AcDbProxyObject
 90
      499
 91
      503
 93
       41
310
903313A31580
  0
ACAD_PROXY_OBJECT
  5
49
102
{ACAD_REACTORS
330
47
102
}
330
47
100
AcDbProxyObject
 90
      499
 91
      503
 93
      105
310
903313A324000000000000004000
  0
ACAD_PROXY_OBJECT
  5
4A
102
{ACAD_REACTORS
330
47
102
}
330
47
100
AcDbProxyObject
 90
      499
 91
      503
 93
      105
310
903313A344000000000000104000
  0
ACAD_PROXY_OBJECT
  5
4B
102
{ACAD_REACTORS
330
47
102
}
330
47
100
AcDbProxyObject
 90
      499
 91
      503
 93
      105
310
903313A354000000000000144000
  0
ACAD_PROXY_OBJECT
  5
4C
102
{ACAD_REACTORS
330
47
102
}
330
47
100
AcDbProxyObject
 90
      499
 91
      503
 93
      105
310
903313A384000000000000204000
  0
ACAD_PROXY_OBJECT
  5
4D
102
{ACAD_REACTORS
330
47
102
}
330
47
100
AcDbProxyObject
 90
      499
 91
      503
 93
      113
310
904313A31304000000000000244000
  0
ACAD_PROXY_OBJECT
  5
4E
102
{ACAD_REACTORS
330
47
102
}
330
47
100
AcDbProxyObject
 90
      499
 91
      503
 93
      113
310
904313A31364000000000000304000
  0
ACAD_PROXY_OBJECT
  5
4F
102
{ACAD_REACTORS
330
47
102
}
330
47
100
AcDbProxyObject
 90
      499
 91
      503
 93
      113
310
904313A32304000000000000344000
  0
ACAD_PROXY_OBJECT
  5
50
102
{ACAD_REACTORS
330
47
102
}
330
47
100
AcDbProxyObject
 90
      499
 91
      503
 93
      113
310
904313A333040000000000003E4000
  0
ACAD_PROXY_OBJECT
  5
51
102
{ACAD_REACTORS
330
47
102
}
330
47
100
AcDbProxyObject
 90
      499
 91
      503
 93
      113
310
904313A34304000000000000444000
  0
ACAD_PROXY_OBJECT
  5
52
102
{ACAD_REACTORS
330
47
102
}
330
47
100
AcDbProxyObject
 90
      499
 91
      503
 93
      113
310
904313A35304000000000000494000
  0
ACAD_PROXY_OBJECT
  5
53
102
{ACAD_REACTORS
330
47
102
}
330
47
100
AcDbProxyObject
 90
      499
 91
      503
 93
      121
310
905313A3130304000000000000594000
  0
ACAD_PROXY_OBJECT
  5
54
102
{ACAD_REACTORS
330
47
102
}
330
47
100
AcDbProxyObject
 90
      499
 91
      503
 93
      105
310
903323A310000000000000010100
  0
ACAD_PROXY_OBJECT
  5
55
102
{ACAD_REACTORS
330
47
102
}
330
47
100
AcDbProxyObject
 90
      499
 91
      503
 93
      105
310
903343A310000000000000410100
  0
ACAD_PROXY_OBJECT
  5
56
102
{ACAD_REACTORS
330
47
102
}
330
47
100
AcDbProxyObject
 90
      499
 91
      503
 93
      105
310
903383A310000000000000810100
  0
ACAD_PROXY_OBJECT
  5
57
102
{ACAD_REACTORS
330
47
102
}
330
47
100
AcDbProxyObject
 90
      499
 91
      503
 93
      113
310
90431303A310000000000000910100
  0
ACAD_PROXY_OBJECT
  5
58
102
{ACAD_REACTORS
330
47
102
}
330
47
100
AcDbProxyObject
 90
      499
 91
      503
 93
      121
310
9053130303A310000000000001650100
  0
ACAD_PROXY_OBJECT
  5
59
102
{ACAD_REACTORS
330
47
102
}
330
47
100
AcDbProxyObject
 90
      499
 91
      503
 93
      257
310
90E312F31323822203D2031272D3022000000000000200FC000000000000284000
  0
ACAD_PROXY_OBJECT
  5
5A
102
{ACAD_REACTORS
330
47
102
}
330
47
100
AcDbProxyObject
 90
      499
 91
      503
 93
      249
310
90D312F363422203D2031272D3022000000000000240FC000000000000284000
  0
ACAD_PROXY_OBJECT
  5
5B
102
{ACAD_REACTORS
330
47
102
}
330
47
100
AcDbProxyObject
 90
      499
 91
      503
 93
      249
310
90D312F333222203D2031272D3022000000000000280FC000000000000284000
  0
ACAD_PROXY_OBJECT
  5
5C
102
{ACAD_REACTORS
330
47
102
}
330
47
100
AcDbProxyObject
 90
      499
 91
      503
 93
      249
310
90D312F313622203D2031272D30220000000000002C0FC000000000000284000
  0
ACAD_PROXY_OBJECT
  5
5D
102
{ACAD_REACTORS
330
47
102
}
330
47
100
AcDbProxyObject
 90
      499
 91
      503
 93
      249
310
90D332F333222203D2031272D30220000000000002E0FC000000000000284000
  0
ACAD_PROXY_OBJECT
  5
5E
102
{ACAD_REACTORS
330
47
102
}
330
47
100
AcDbProxyObject
 90
      499
 91
      503
 93
      241
310
90C312F3822203D2031272D3022000000000000300FC000000000000284000
  0
ACAD_PROXY_OBJECT
  5
5F
102
{ACAD_REACTORS
330
47
102
}
330
47
100
AcDbProxyObject
 90
      499
 91
      503
 93
      249
310
90D332F313622203D2031272D3022000000000000320FC000000000000284000
  0
ACAD_PROXY_OBJECT
  5
60
102
{ACAD_REACTORS
330
47
102
}
330
47
100
AcDbProxyObject
 90
      499
 91
      503
 93
      241
310
90C312F3422203D2031272D3022000000000000340FC000000000000284000
  0
ACAD_PROXY_OBJECT
  5
61
102
{ACAD_REACTORS
330
47
102
}
330
47
100
AcDbProxyObject
 90
      499
 91
      503
 93
      241
310
90C332F3822203D2031272D3022000000000000360FC000000000000284000
  0
ACAD_PROXY_OBJECT
  5
62
102
{ACAD_REACTORS
330
47
102
}
330
47
100
AcDbProxyObject
 90
      499
 91
      503
 93
      241
310
90C312F3222203D2031272D3022000000000000380FC000000000000284000
  0
ACAD_PROXY_OBJECT
  5
63
102
{ACAD_REACTORS
330
47
102
}
330
47
100
AcDbProxyObject
 90
      499
 91
      503
 93
      241
310
90C332F3422203D2031272D30220000000000003A0FC000000000000284000
  0
ACAD_PROXY_OBJECT
  5
64
102
{ACAD_REACTORS
330
47
102
}
330
47
100
AcDbProxyObject
 90
      499
 91
      503
 93
      161
310
90A3122203D2031272D30224000000000000284000
  0
ACAD_PROXY_OBJECT
  5
65
102
{ACAD_REACTORS
330
47
102
}
330
47
100
AcDbProxyObject
 90
      499
 91
      503
 93
      257
310
90E312D312F3222203D2031272D30220000000000003E0FC000000000000284000
  0
ACAD_PROXY_OBJECT
  5
66
102
{ACAD_REACTORS
330
47
102
}
330
47
100
AcDbProxyObject
 90
      499
 91
      503
 93
      225
310
90A3322203D2031272D302200000000000002100000000000000284000
  0
ACAD_PROXY_OBJECT
  5
67
102
{ACAD_REACTORS
330
47
102
}
330
47
100
AcDbProxyObject
 90
      499
 91
      503
 93
      225
310
90A3622203D2031272D302200000000000006100000000000000284000
  0
ACAD_PROXY_OBJECT
  5
68
102
{ACAD_REACTORS
330
47
102
}
330
47
100
AcDbProxyObject
 90
      499
 91
      503
 93
      249
310
90D31272D3022203D2031272D30220000000000000A100000000000000284000
  0
ACAD_PROXY_OBJECT
  5
2F
102
{ACAD_REACTORS
330
2A
102
}
330
2A
100
AcDbProxyObject
 90
      499
 91
      501
 93
      436
310
42CC9915DA5C99599C985B595049028333333333333E33F0000000000000F90107901411070040501600405405064090741402480A0340
1001
ACAD
1000
AcDbSavedByObjectVersion
1070
     0
  0
ACAD_PROXY_OBJECT
  5
32
102
{ACAD_REACTORS
330
2A
102
}
330
2A
100
AcDbProxyObject
 90
      499
 91
      501
 93
      388
310
4150985CDA58D07406404333333333333E33F0000000000000F90107A41107004050150841D405064090741402480A0350
1001
ACAD
1000
AcDbSavedByObjectVersion
1070
     0
  0
ACAD_PROXY_OBJECT
  5
36
102
{ACAD_REACTORS
330
2A
102
}
330
2A
100
AcDbProxyObject
 90
      499
 91
      501
 93
      428
310
42109C9A59DA1D195B90C409028333333333333E33F0000000000000F9010790141107004050150841D405064090741402480A029950
1001
ACAD
1000
AcDbSavedByObjectVersion
1070
     0
  0
ACAD_PROXY_OBJECT
  5
3A
102
{ACAD_REACTORS
330
2A
102
}
330
2A
100
AcDbProxyObject
 90
      499
 91
      501
 93
      452
310
42D0DBDB1BDC90DA185B99D95104090240C333333333333E33F0000000000000F90108901411070040501508421405064090741402480A0350
1001
ACAD
1000
AcDbSavedByObjectVersion
1070
     0
  0
ACAD_PROXY_OBJECT
  5
34
102
{ACAD_REACTORS
330
2A
102
}
330
2A
100
AcDbProxyObject
 90
      499
 91
      501
 93
      500
310
4290DBDB98D95C1D1D585B10940D028333333333333E33F0000000000000F90107902409070040501000000000018199010841D405064090740C02480A0340
1001
ACAD
1000
AcDbSavedByObjectVersion
1070
     0
  0
ACAD_PROXY_OBJECT
  5
35
102
{ACAD_REACTORS
330
2A
102
}
330
2A
100
AcDbProxyObject
 90
      499
 91
      501
 93
      412
310
40D11A5B50B409028333333333333E33F0000000000000F9010790141107004050150841D405064090741402480A02677FFFFFD0
1001
ACAD
1000
AcDbSavedByObjectVersion
1070
     0
  0
ACAD_PROXY_OBJECT
  5
3D
102
{ACAD_REACTORS
330
2A
102
}
330
2A
100
AcDbProxyObject
 90
      499
 91
      501
 93
      452
310
43115919D950DBDB1BDC93D999916409028333333333333E33F0000000000000F9010790141107004050150841D405064090741402480A0350
1001
ACAD
1000
AcDbSavedByObjectVersion
1070
     0
  0
ACAD_PROXY_OBJECT
  5
39
102
{ACAD_REACTORS
330
2A
102
}
330
2A
100
AcDbProxyObject
 90
      499
 91
      501
 93
      444
310
42D19858D95C185D1D195C9B90F409028333333333333E33F0000000000000F9010790141107004050150841D405064090741402480A0350
1001
ACAD
1000
AcDbSavedByObjectVersion
1070
     0
  0
ACAD_PROXY_OBJECT
  5
2B
102
{ACAD_REACTORS
330
2A
102
}
330
2A
100
AcDbProxyObject
 90
      499
 91
      501
 93
      380
310
41119B185D240901404333333333333E33F0000000000000F9010740A907004050150841D405064090741402480A1B50
1001
ACAD
1000
AcDbSavedByObjectVersion
1070
     0
  0
ACAD_PROXY_OBJECT
  5
2C
102
{ACAD_REACTORS
330
2A
102
}
330
2A
100
AcDbProxyObject
 90
      499
 91
      501
 93
      468
310
43519B185D15DA5D1A115919D95CD0140901404333333333333E33F0000000000000F90107409019070040501600405405064090741402480A1B50
1001
ACAD
1000
AcDbSavedByObjectVersion
1070
     0
  0
ACAD_PROXY_OBJECT
  5
2D
102
{ACAD_REACTORS
330
2A
102
}
330
2A
100
AcDbProxyObject
 90
      499
 91
      501
 93
      404
310
41D1DBDD5C985D5910240902404333333333333E33F0000000000000F9010740A9070040501641D405064090741402480A1B50
1001
ACAD
1000
AcDbSavedByObjectVersion
1070
     0
  0
ACAD_PROXY_OBJECT
  5
2E
102
{ACAD_REACTORS
330
2A
102
}
330
2A
100
AcDbProxyObject
 90
      499
 91
      501
 93
      492
310
4411DBDD5C985D5915DA5D1A115919D95CD0340902404333333333333E33F0000000000000F90107409019070040501600405405064090741402480A1B50
1001
ACAD
1000
AcDbSavedByObjectVersion
1070
     0
  0
ACAD_PROXY_OBJECT
  5
31
102
{ACAD_REACTORS
330
2A
102
}
330
2A
100
AcDbProxyObject
 90
      499
 91
      501
 93
      476
310
41921A5919195B90640502408333333333333E33F0000000000000F901079024090700405020000000000001110200405405064090740C02480A0340
1001
ACAD
1000
AcDbSavedByObjectVersion
1070
     0
  0
ACAD_PROXY_OBJECT
  5
3B
102
{ACAD_REACTORS
330
2A
102
}
330
2A
100
AcDbProxyObject
 90
      499
 91
      501
 93
      428
310
42529A5D1D195C93D999914409028333333333333E33F0000000000000F9010790141107004050150A41D405064090741402480A0350
1001
ACAD
1000
AcDbSavedByObjectVersion
1070
     0
  0
ACAD_PROXY_OBJECT
  5
38
102
{ACAD_REACTORS
330
2A
102
}
330
2A
100
AcDbProxyObject
 90
      499
 91
      501
 93
      444
310
42D31A5B995C185D1D195C9B90E409028333333333333E33F0000000000000F9010790141107004050750841D405064090741402483A0350
1001
ACAD
1000
AcDbSavedByObjectVersion
1070
     0
  0
ACAD_PROXY_OBJECT
  5
3C
102
{ACAD_REACTORS
330
2A
102
}
330
2A
100
AcDbProxyObject
 90
      499
 91
      501
 93
      444
310
42D3DD995C9A185B99D3D999915409028333333333333E33F0000000000000F9010790141107004050150941D405064090741402480A0350
1001
ACAD
1000
AcDbSavedByObjectVersion
1070
     0
  0
ACAD_PROXY_OBJECT
  5
33
102
{ACAD_REACTORS
330
2A
102
}
330
2A
100
AcDbProxyObject
 90
      499
 91
      501
 93
      428
310
425499585B1A5CDD1A58D08409038333333333333E33F0000000000000F9010740A907004050150800405405064090740C02480A1B40
1001
ACAD
1000
AcDbSavedByObjectVersion
1070
     0
  0
ACAD_PROXY_OBJECT
  5
42
102
{ACAD_REACTORS
330
2A
102
}
330
2A
100
AcDbProxyObject
 90
      499
 91
      501
 93
      420
310
4194DA1859195911B40902404333333333333E33F0000000000000F9010740A41107004050150800405405064090840C02480A0B40
1001
ACAD
1000
AcDbSavedByObjectVersion
1070
     0
  0
ACAD_PROXY_OBJECT
  5
41
102
{ACAD_REACTORS
330
2A
102
}
330
2A
100
AcDbProxyObject
 90
      499
 91
      501
 93
      516
310
4454DA18591959081DDA5D1A08195919D95CD1A40902404333333333333E33F0000000000000F901074090142907004050250800405405064090740C02480A0B40
1001
ACAD
1000
AcDbSavedByObjectVersion
1070
     0
  0
ACAD_PROXY_OBJECT
  5
3E
102
{ACAD_REACTORS
330
2A
102
}
330
2A
100
AcDbProxyObject
 90
      499
 91
      501
 93
      532
310
4394DA1859195CC81BD98811DC985E5174090240C333333333333E33F0000000000000F901079024090741D01000000000000111010841D405064090740C02480A0340
1001
ACAD
1000
AcDbSavedByObjectVersion
1070
     0
  0
ACAD_PROXY_OBJECT
  5
3F
102
{ACAD_REACTORS
330
2A
102
}
330
2A
100
AcDbProxyObject
 90
      499
 91
      501
 93
      476
310
41D4DAD95D18DA1E51840502408333333333333E33F0000000000000F901079024090741D01000000000000111010B41D405064090741802480A0340
1001
ACAD
1000
AcDbSavedByObjectVersion
1070
     0
  0
ACAD_PROXY_OBJECT
  5
37
102
{ACAD_REACTORS
330
2A
102
}
330
2A
100
AcDbProxyObject
 90
      499
 91
      501
 93
      412
310
41D51A1A58DAD95B90D409028333333333333E33F0000000000000F9010790141107004050150C41D405064090741402480A0350
1001
ACAD
1000
AcDbSavedByObjectVersion
1070
     0
  0
ACAD_PROXY_OBJECT
  5
30
102
{ACAD_REACTORS
330
2A
102
}
330
2A
100
AcDbProxyObject
 90
      499
 91
      501
 93
      420
310
4255DA5C99599C985B595059028333333333333E33F0000000000000F90107901411070040501600405405064090740C02480A0340
1001
ACAD
1000
AcDbSavedByObjectVersion
1070
     0
  0
ACAD_PROXY_OBJECT
  5
40
102
{ACAD_REACTORS
330
2A
102
}
330
2A
100
AcDbProxyObject
 90
      499
 91
      501
 93
      404
310
41560B54985E51940902404000000000000E03F0000000000000F9010740501907004050150841D405064090740C02480A1B40
1001
ACAD
1000
AcDbSavedByObjectVersion
1070
     0
  0
XRECORD
  5
2A1
102
{ACAD_REACTORS
330
298
102
}
330
298
100
AcDbXrecord
 90
        0
  0
XRECORD
  5
2B7
102
{ACAD_REACTORS
330
298
102
}
330
298
100
AcDbXrecord
1000
DSTYLE
1002
{
1070
   171
 70
     2
1070
   143
 40
25.4
1070
   274
 70
     2
1070
    41
 40
0.18
1070
   141
 40
0.09
1070
   271
 70
     4
1070
    43
 40
0.38
1070
   278
 70
    46
1070
    44
 40
0.18
1070
    42
 40
0.0625
1070
   147
 40
0.09
1070
    77
 70
     0
1070
   272
 70
     4
1070
    73
 70
     1
1070
   172
 70
     0
1070
    74
 70
     1
1070
   283
 70
     1
1070
   340
340
11
1070
   140
 40
0.18
1070
   284
 70
     0
1070
    78
 70
     0
1002
}
  0
XRECORD
  5
2A2
102
{ACAD_REACTORS
330
298
102
}
330
298
100
AcDbXrecord
  1
{AA79597B-19DE-4540-8EE5-8917A090742F}
  0
XRECORD
  5
29B
102
{ACAD_REACTORS
330
298
102
}
330
298
100
AcDbXrecord
  1

  0
XRECORD
  5
2A0
102
{ACAD_REACTORS
330
298
102
}
330
298
100
AcDbXrecord
 90
        4
  0
XRECORD
  5
29D
102
{ACAD_REACTORS
330
298
102
}
330
298
100
AcDbXrecord
340
1A
  0
XRECORD
  5
29F
102
{ACAD_REACTORS
330
298
102
}
330
298
100
AcDbXrecord
 90
    10781
  0
XRECORD
  5
29E
102
{ACAD_REACTORS
330
298
102
}
330
298
100
AcDbXrecord
340
19
  0
XRECORD
  5
2A4
102
{ACAD_REACTORS
330
298
102
}
330
298
100
AcDbXrecord
 40
0.0
  0
XRECORD
  5
2A7
102
{ACAD_REACTORS
330
298
102
}
330
298
100
AcDbXrecord
340
0
  0
XRECORD
  5
2AD
102
{ACAD_REACTORS
330
298
102
}
330
298
100
AcDbXrecord
 10
0.0
 20
0.0
 30
0.0
  0
XRECORD
  5
2A9
102
{ACAD_REACTORS
330
298
102
}
330
298
100
AcDbXrecord
 10
0.0
 20
0.0
 30
0.0
  0
XRECORD
  5
2AC
102
{ACAD_REACTORS
330
298
102
}
330
298
100
AcDbXrecord
 10
0.0
 20
0.0
 30
0.0
  0
XRECORD
  5
2AA
102
{ACAD_REACTORS
330
298
102
}
330
298
100
AcDbXrecord
 10
0.0
 20
0.0
 30
0.0
  0
XRECORD
  5
2AB
102
{ACAD_REACTORS
330
298
102
}
330
298
100
AcDbXrecord
 10
0.0
 20
0.0
 30
0.0
  0
XRECORD
  5
2A8
102
{ACAD_REACTORS
330
298
102
}
330
298
100
AcDbXrecord
 10
0.0
 20
0.0
 30
0.0
  0
XRECORD
  5
2A5
102
{ACAD_REACTORS
330
298
102
}
330
298
100
AcDbXrecord
340
0
  0
XRECORD
  5
2A6
102
{ACAD_REACTORS
330
298
102
}
330
298
100
AcDbXrecord
 70
     0
  0
XRECORD
  5
29C
102
{ACAD_REACTORS
330
298
102
}
330
298
100
AcDbXrecord
  1

  0
XRECORD
  5
299
102
{ACAD_REACTORS
330
298
102
}
330
298
100
AcDbXrecord
 90
        1
  0
XRECORD
  5
29A
102
{ACAD_REACTORS
330
298
102
}
330
298
100
AcDbXrecord
 90
       70
  0
XRECORD
  5
2B0
102
{ACAD_REACTORS
330
298
102
}
330
298
100
AcDbXrecord
340
0
  0
XRECORD
  5
2B6
102
{ACAD_REACTORS
330
298
102
}
330
298
100
AcDbXrecord
 10
0.0
 20
0.0
 30
0.0
  0
XRECORD
  5
2B2
102
{ACAD_REACTORS
330
298
102
}
330
298
100
AcDbXrecord
 10
0.0
 20
0.0
 30
0.0
  0
XRECORD
  5
2B5
102
{ACAD_REACTORS
330
298
102
}
330
298
100
AcDbXrecord
 10
0.0
 20
0.0
 30
0.0
  0
XRECORD
  5
2B3
102
{ACAD_REACTORS
330
298
102
}
330
298
100
AcDbXrecord
 10
0.0
 20
0.0
 30
0.0
  0
XRECORD
  5
2B4
102
{ACAD_REACTORS
330
298
102
}
330
298
100
AcDbXrecord
 10
0.0
 20
0.0
 30
0.0
  0
XRECORD
  5
2B1
102
{ACAD_REACTORS
330
298
102
}
330
298
100
AcDbXrecord
 10
0.0
 20
0.0
 30
0.0
  0
XRECORD
  5
2AE
102
{ACAD_REACTORS
330
298
102
}
330
298
100
AcDbXrecord
340
0
  0
XRECORD
  5
2AF
102
{ACAD_REACTORS
330
298
102
}
330
298
100
AcDbXrecord
 70
     0
  0
XRECORD
  5
2A3
102
{ACAD_REACTORS
330
298
102
}
330
298
100
AcDbXrecord
  1
{FAEB1C32-E019-11D5-929B-00C0DF256EC4}
  0
DICTIONARYVAR
  5
2C1
102
{ACAD_REACTORS
330
2B8
102
}
330
2B8
100
DictionaryVariables
280
     0
  1
1:1
  0
DICTIONARYVAR
  5
2BD
102
{ACAD_REACTORS
330
2B8
102
}
330
2B8
100
DictionaryVariables
280
     0
  1
2
  0
DICTIONARYVAR
  5
2BE
102
{ACAD_REACTORS
330
2B8
102
}
330
2B8
100
DictionaryVariables
280
     0
  1
1
  0
DICTIONARYVAR
  5
2C2
102
{ACAD_REACTORS
330
2B8
102
}
330
2B8
100
DictionaryVariables
280
     0
  1
1
  0
DICTIONARY
  5
2C5
330
45
100
AcDbDictionary
280
     1
  3
ACAD_XREC_ROUNDTRIP
360
2C6
  0
DICTIONARY
  5
2C3
330
44
100
AcDbDictionary
280
     1
  3
ACAD_XREC_ROUNDTRIP
360
2C4
  0
DICTIONARY
  5
2C7
330
46
100
AcDbDictionary
280
     1
  3
ACAD_XREC_ROUNDTRIP
360
2C8
  0
XRECORD
  5
2C6
102
{ACAD_REACTORS
330
2C5
102
}
330
2C5
100
AcDbXrecord
102
MATERIAL
148
0.0
149
0.0
149
0.0
 93
        0
 94
      127
282
     0
 72
     1
 77
     1
171
     1
175
     1
179
     1
273
     0
  0
XRECORD
  5
2C4
102
{ACAD_REACTORS
330
2C3
102
}
330
2C3
100
AcDbXrecord
102
MATERIAL
148
0.0
149
0.0
149
0.0
 93
        0
 94
      127
282
     0
 72
     1
 77
     1
171
     1
175
     1
179
     1
273
     0
  0
XRECORD
  5
2C8
102
{ACAD_REACTORS
330
2C7
102
}
330
2C7
100
AcDbXrecord
102
MATERIAL
148
0.0
149
0.0
149
0.0
 93
        0
 94
      127
282
     0
 72
     1
 77
     1
171
     1
175
     1
179
     1
273
     0
  0
ENDSEC
  0
EOF
