  0
SECTION
  2
HEADER
  9
$ACADVER
  1
AC1014
  9
$ACADMAINTVER
 70
     9
  9
$DWGCODEPAGE
  3
ANSI_1252
  9
$INSBASE
 10
0.0
 20
0.0
 30
0.0
  9
$EXTMIN
 10
1.000000000000000E+20
 20
1.000000000000000E+20
 30
1.000000000000000E+20
  9
$EXTMAX
 10
-1.000000000000000E+20
 20
-1.000000000000000E+20
 30
-1.000000000000000E+20
  9
$LIMMIN
 10
0.0
 20
0.0
  9
$LIMMAX
 10
12.0
 20
9.0
  9
$ORTHOMODE
 70
     0
  9
$REGENMODE
 70
     1
  9
$FILLMODE
 70
     1
  9
$QTEXTMODE
 70
     0
  9
$MIRRTEXT
 70
     1
  9
$DRAGMODE
 70
     2
  9
$LTSCALE
 40
1.0
  9
$OSMODE
 70
    37
  9
$ATTMODE
 70
     1
  9
$TEXTSIZE
 40
0.2
  9
$TRACEWID
 40
0.05
  9
$TEXTSTYLE
  7
STANDARD
  9
$CLAYER
  8
0
  9
$CELTYPE
  6
BYLAYER
  9
$CECOLOR
 62
   256
  9
$CELTSCALE
 40
1.0
  9
$DELOBJ
 70
     1
  9
$DISPSILH
 70
     0
  9
$DIMSCALE
 40
1.0
  9
$DIMASZ
 40
0.18
  9
$DIMEXO
 40
0.0625
  9
$DIMDLI
 40
0.38
  9
$DIMRND
 40
0.0
  9
$DIMDLE
 40
0.0
  9
$DIMEXE
 40
0.18
  9
$DIMTP
 40
0.0
  9
$DIMTM
 40
0.0
  9
$DIMTXT
 40
0.18
  9
$DIMCEN
 40
0.09
  9
$DIMTSZ
 40
0.0
  9
$DIMTOL
 70
     0
  9
$DIMLIM
 70
     0
  9
$DIMTIH
 70
     1
  9
$DIMTOH
 70
     1
  9
$DIMSE1
 70
     0
  9
$DIMSE2
 70
     0
  9
$DIMTAD
 70
     0
  9
$DIMZIN
 70
     0
  9
$DIMBLK
  1

  9
$DIMASO
 70
     1
  9
$DIMSHO
 70
     1
  9
$DIMPOST
  1

  9
$DIMAPOST
  1

  9
$DIMALT
 70
     0
  9
$DIMALTD
 70
     2
  9
$DIMALTF
 40
25.4
  9
$DIMLFAC
 40
1.0
  9
$DIMTOFL
 70
     0
  9
$DIMTVP
 40
0.0
  9
$DIMTIX
 70
     0
  9
$DIMSOXD
 70
     0
  9
$DIMSAH
 70
     0
  9
$DIMBLK1
  1

  9
$DIMBLK2
  1

  9
$DIMSTYLE
  2
STANDARD
  9
$DIMCLRD
 70
     0
  9
$DIMCLRE
 70
     0
  9
$DIMCLRT
 70
     0
  9
$DIMTFAC
 40
1.0
  9
$DIMGAP
 40
0.09
  9
$DIMJUST
 70
     0
  9
$DIMSD1
 70
     0
  9
$DIMSD2
 70
     0
  9
$DIMTOLJ
 70
     1
  9
$DIMTZIN
 70
     0
  9
$DIMALTZ
 70
     0
  9
$DIMALTTZ
 70
     0
  9
$DIMFIT
 70
     3
  9
$DIMUPT
 70
     0
  9
$DIMUNIT
 70
     2
  9
$DIMDEC
 70
     4
  9
$DIMTDEC
 70
     4
  9
$DIMALTU
 70
     2
  9
$DIMALTTD
 70
     2
  9
$DIMTXSTY
  7
STANDARD
  9
$DIMAUNIT
 70
     0
  9
$LUNITS
 70
     2
  9
$LUPREC
 70
     4
  9
$SKETCHINC
 40
0.1
  9
$FILLETRAD
 40
0.5
  9
$AUNITS
 70
     0
  9
$AUPREC
 70
     0
  9
$MENU
  1
.
  9
$ELEVATION
 40
0.0
  9
$PELEVATION
 40
0.0
  9
$THICKNESS
 40
0.0
  9
$LIMCHECK
 70
     0
  9
$CHAMFERA
 40
0.5
  9
$CHAMFERB
 40
0.5
  9
$CHAMFERC
 40
1.0
  9
$CHAMFERD
 40
0.0
  9
$SKPOLY
 70
     0
  9
$TDCREATE
 40
2457278.99408397
  9
$TDUPDATE
 40
2457278.994083981
  9
$TDINDWG
 40
0.0000000116
  9
$TDUSRTIMER
 40
0.0000000116
  9
$USRTIMER
 70
     1
  9
$ANGBASE
 50
0.0
  9
$ANGDIR
 70
     0
  9
$PDMODE
 70
     0
  9
$PDSIZE
 40
0.0
  9
$PLINEWID
 40
0.0
  9
$COORDS
 70
     1
  9
$SPLFRAME
 70
     0
  9
$SPLINETYPE
 70
     6
  9
$SPLINESEGS
 70
     8
  9
$ATTDIA
 70
     0
  9
$ATTREQ
 70
     1
  9
$HANDLING
 70
     1
  9
$HANDSEED
  5
418
  9
$SURFTAB1
 70
     6
  9
$SURFTAB2
 70
     6
  9
$SURFTYPE
 70
     6
  9
$SURFU
 70
     6
  9
$SURFV
 70
     6
  9
$UCSNAME
  2

  9
$UCSORG
 10
0.0
 20
0.0
 30
0.0
  9
$UCSXDIR
 10
1.0
 20
0.0
 30
0.0
  9
$UCSYDIR
 10
0.0
 20
1.0
 30
0.0
  9
$PUCSNAME
  2

  9
$PUCSORG
 10
0.0
 20
0.0
 30
0.0
  9
$PUCSXDIR
 10
1.0
 20
0.0
 30
0.0
  9
$PUCSYDIR
 10
0.0
 20
1.0
 30
0.0
  9
$USERI1
 70
     0
  9
$USERI2
 70
     0
  9
$USERI3
 70
     0
  9
$USERI4
 70
     0
  9
$USERI5
 70
     0
  9
$USERR1
 40
0.0
  9
$USERR2
 40
0.0
  9
$USERR3
 40
0.0
  9
$USERR4
 40
0.0
  9
$USERR5
 40
0.0
  9
$WORLDVIEW
 70
     1
  9
$SHADEDGE
 70
     3
  9
$SHADEDIF
 70
    70
  9
$TILEMODE
 70
     1
  9
$MAXACTVP
 70
    64
  9
$PINSBASE
 10
0.0
 20
0.0
 30
0.0
  9
$PLIMCHECK
 70
     0
  9
$PEXTMIN
 10
1.000000000000000E+20
 20
1.000000000000000E+20
 30
1.000000000000000E+20
  9
$PEXTMAX
 10
-1.000000000000000E+20
 20
-1.000000000000000E+20
 30
-1.000000000000000E+20
  9
$PLIMMIN
 10
0.0
 20
0.0
  9
$PLIMMAX
 10
12.0
 20
9.0
  9
$UNITMODE
 70
     0
  9
$VISRETAIN
 70
     1
  9
$PLINEGEN
 70
     0
  9
$PSLTSCALE
 70
     1
  9
$TREEDEPTH
 70
  3020
  9
$PICKSTYLE
 70
     1
  9
$CMLSTYLE
  2
STANDARD
  9
$CMLJUST
 70
     0
  9
$CMLSCALE
 40
1.0
  9
$PROXYGRAPHICS
 70
     1
  9
$MEASUREMENT
 70
     0
  0
ENDSEC
  0
SECTION
  2
CLASSES
  0
CLASS
  1
ACDBDICTIONARYWDFLT
  2
AcDbDictionaryWithDefault
  3
ObjectDBX Classes
 90
        0
280
     0
281
     0
  0
CLASS
  1
VISUALSTYLE
  2
AcDbVisualStyle
  3
ObjectDBX Classes
 90
     4095
280
     0
281
     0
  0
CLASS
  1
MATERIAL
  2
AcDbMaterial
  3
ObjectDBX Classes
 90
     1153
280
     0
281
     0
  0
CLASS
  1
DICTIONARYVAR
  2
AcDbDictionaryVar
  3
ObjectDBX Classes
 90
        0
280
     0
281
     0
  0
CLASS
  1
XRECORD
  2
AcDbXrecord
  3
AutoCAD 2000
 90
        0
280
     0
281
     0
  0
CLASS
  1
LWPOLYLINE
  2
AcDbPolyline
  3
AutoCAD 2000
 90
        0
280
     0
281
     1
  0
CLASS
  1
HATCH
  2
AcDbHatch
  3
AutoCAD 2000
 90
        0
280
     0
281
     1
  0
CLASS
  1
ACDBPLACEHOLDER
  2
AcDbPlaceHolder
  3
ObjectDBX Classes
 90
        0
280
     0
281
     0
  0
CLASS
  1
LAYOUT
  2
AcDbLayout
  3
ObjectDBX Classes
 90
        0
280
     0
281
     0
  0
ENDSEC
  0
SECTION
  2
TABLES
  0
TABLE
  2
VPORT
  5
8
330
0
100
AcDbSymbolTable
 70
     1
  0
VPORT
  5
29
330
8
100
AcDbSymbolTableRecord
100
AcDbViewportTableRecord
  2
*ACTIVE
 70
     0
 10
0.0
 20
0.0
 11
1.0
 21
1.0
 12
0.0
 22
0.0
 13
0.0
 23
0.0
 14
0.5
 24
0.5
 15
0.5
 25
0.5
 16
0.0
 26
0.0
 36
1.0
 17
0.0
 27
0.0
 37
-1000.0
 40
335.7435455891164
 41
1.914432989690722
 42
50.0
 43
423.1347319392355
 44
899.82070083584
 50
0.0
 51
0.0
 71
     0
 72
   100
 73
     1
 74
     3
 75
     0
 76
     0
 77
     0
 78
     0
  0
ENDTAB
  0
TABLE
  2
LTYPE
  5
5
330
0
100
AcDbSymbolTable
 70
     1
  0
LTYPE
  5
14
330
5
100
AcDbSymbolTableRecord
100
AcDbLinetypeTableRecord
  2
BYBLOCK
 70
     0
  3

 72
    65
 73
     0
 40
0.0
  0
LTYPE
  5
15
330
5
100
AcDbSymbolTableRecord
100
AcDbLinetypeTableRecord
  2
BYLAYER
 70
     0
  3

 72
    65
 73
     0
 40
0.0
  0
LTYPE
  5
16
330
5
100
AcDbSymbolTableRecord
100
AcDbLinetypeTableRecord
  2
CONTINUOUS
 70
     0
  3
Solid line
 72
    65
 73
     0
 40
0.0
  0
ENDTAB
  0
TABLE
  2
LAYER
  5
2
330
0
100
AcDbSymbolTable
 70
     3
  0
LAYER
  5
10
330
2
100
AcDbSymbolTableRecord
100
AcDbLayerTableRecord
  2
0
 70
     0
 62
     7
  6
CONTINUOUS
  0
LAYER
  5
3F
330
2
100
AcDbSymbolTableRecord
100
AcDbLayerTableRecord
  2
PROFILEEDGES
 70
     0
 62
     7
  6
CONTINUOUS
  0
LAYER
  5
40
330
2
100
AcDbSymbolTableRecord
100
AcDbLayerTableRecord
  2
SECTIONCUTEDGES
 70
     0
 62
     7
  6
CONTINUOUS
  0
ENDTAB
  0
TABLE
  2
STYLE
  5
3
330
0
100
AcDbSymbolTable
 70
     1
  0
STYLE
  5
11
330
3
100
AcDbSymbolTableRecord
100
AcDbTextStyleTableRecord
  2
STANDARD
 70
     0
 40
0.0
 41
1.0
 50
0.0
 71
     0
 42
0.2
  3
txt
  4

  0
ENDTAB
  0
TABLE
  2
VIEW
  5
6
330
0
100
AcDbSymbolTable
 70
     0
  0
ENDTAB
  0
TABLE
  2
UCS
  5
7
330
0
100
AcDbSymbolTable
 70
     0
  0
ENDTAB
  0
TABLE
  2
APPID
  5
9
330
0
100
AcDbSymbolTable
 70
     1
  0
APPID
  5
12
330
9
100
AcDbSymbolTableRecord
100
AcDbRegAppTableRecord
  2
ACAD
 70
     0
  0
ENDTAB
  0
TABLE
  2
DIMSTYLE
  5
A
330
0
100
AcDbSymbolTable
 70
     1
  0
DIMSTYLE
105
27
330
A
100
AcDbSymbolTableRecord
100
AcDbDimStyleTableRecord
  2
STANDARD
 70
     0
  3

  4

  5

  6

  7

 40
1.0
 41
0.18
 42
0.0625
 43
0.38
 44
0.18
 45
0.0
 46
0.0
 47
0.0
 48
0.0
140
0.18
141
0.09
142
0.0
143
25.4
144
1.0
145
0.0
146
1.0
147
0.09
 71
     0
 72
     0
 73
     1
 74
     1
 75
     0
 76
     0
 77
     0
 78
     0
170
     0
171
     2
172
     0
173
     0
174
     0
175
     0
176
     0
177
     0
178
     0
270
     2
271
     4
272
     4
273
     2
274
     2
340
11
275
     0
280
     0
281
     0
282
     0
283
     1
284
     0
285
     0
286
     0
287
     3
288
     0
  0
ENDTAB
  0
TABLE
  2
BLOCK_RECORD
  5
1
330
0
100
AcDbSymbolTable
 70
     1
  0
BLOCK_RECORD
  5
1F
330
1
100
AcDbSymbolTableRecord
100
AcDbBlockTableRecord
  2
*MODEL_SPACE
  0
BLOCK_RECORD
  5
1B
330
1
100
AcDbSymbolTableRecord
100
AcDbBlockTableRecord
  2
*PAPER_SPACE
  0
ENDTAB
  0
ENDSEC
  0
SECTION
  2
BLOCKS
  0
BLOCK
  5
20
330
1F
100
AcDbEntity
  8
0
100
AcDbBlockBegin
  2
*MODEL_SPACE
 70
     0
 10
0.0
 20
0.0
 30
0.0
  3
*MODEL_SPACE
  1

  0
ENDBLK
  5
21
330
1F
100
AcDbEntity
  8
0
100
AcDbBlockEnd
  0
BLOCK
  5
1C
330
1B
100
AcDbEntity
 67
     1
  8
0
100
AcDbBlockBegin
  2
*PAPER_SPACE
 70
     0
 10
0.0
 20
0.0
 30
0.0
  3
*PAPER_SPACE
  1

  0
ENDBLK
  5
1D
330
1B
100
AcDbEntity
 67
     1
  8
0
100
AcDbBlockEnd
  0
ENDSEC
  0
SECTION
  2
ENTITIES
  0
LINE
  5
41
330
1F
100
AcDbEntity
  8
0
100
AcDbLine
 10
13.70066917757525
 20
-5.400298740391218
 30
0.0
 11
13.75178043814165
 21
-5.012070172737688
 31
0.0
  0
LINE
  5
42
330
1F
100
AcDbEntity
  8
0
100
AcDbLine
 10
13.75178043814165
 20
48.48792982726242
 30
0.0
 11
13.75178043814165
 21
-5.012070172737688
 31
0.0
  0
LINE
  5
43
330
1F
100
AcDbEntity
  8
0
100
AcDbLine
 10
30.25178044931752
 20
49.98792982726243
 30
0.0
 11
30.64000901838967
 21
49.93681856332154
 31
0.0
  0
LINE
  5
44
330
1F
100
AcDbEntity
  8
0
100
AcDbLine
 10
29.86355187948376
 20
49.93681856910657
 30
0.0
 11
30.25178044931752
 21
49.98792982726243
 31
0.0
  0
LINE
  5
45
330
1F
100
AcDbEntity
  8
0
100
AcDbLine
 10
10.80289169919014
 20
48.87615839671531
 30
0.0
 11
10.95274233432764
 21
49.23792983048847
 31
0.0
  0
LINE
  5
46
330
1F
100
AcDbEntity
  8
0
100
AcDbLine
 10
22.95274233432764
 20
49.23792983048847
 30
0.0
 11
23.1911202703131
 21
49.5485900029936
 31
0.0
  0
LINE
  5
47
330
1F
100
AcDbEntity
  8
0
100
AcDbLine
 10
23.1911202703131
 20
-30.45140999700661
 30
0.0
 11
23.50178044459405
 21
-30.21303206333561
 31
0.0
  0
LINE
  5
48
330
1F
100
AcDbEntity
  8
0
100
AcDbLine
 10
18.64000900579543
 20
-86.46095891217124
 30
0.0
 11
19.00178043814165
 21
-86.31110827841431
 31
0.0
  0
LINE
  5
49
330
1F
100
AcDbEntity
  8
0
100
AcDbLine
 10
19.00178043814165
 20
-86.31110827841431
 30
0.0
 11
19.31244060992147
 21
-86.07273034451734
 31
0.0
  0
LINE
  5
4A
330
1F
100
AcDbEntity
  8
0
100
AcDbLine
 10
18.64000901838967
 20
-30.06318143667868
 30
0.0
 11
19.00178045104644
 21
-30.21303207451152
 31
0.0
  0
LINE
  5
4B
330
1F
100
AcDbEntity
  8
0
100
AcDbLine
 10
18.25178044931753
 20
-30.01207017273778
 30
0.0
 11
18.64000901838967
 21
-30.06318143667868
 31
0.0
  0
LINE
  5
4C
330
1F
100
AcDbEntity
  8
0
100
AcDbLine
 10
17.86355187048787
 20
-86.46095891217124
 30
0.0
 11
18.25178043814165
 21
-86.51207017273757
 31
0.0
  0
LINE
  5
4D
330
1F
100
AcDbEntity
  8
0
100
AcDbLine
 10
18.25178043814165
 20
-86.51207017273757
 30
0.0
 11
18.64000900579543
 21
-86.46095891217124
 31
0.0
  0
LINE
  5
4E
330
1F
100
AcDbEntity
  8
0
100
AcDbLine
 10
34.80289169870805
 20
-85.40029874039143
 30
0.0
 11
34.95274233246499
 21
-85.76207017273774
 31
0.0
  0
LINE
  5
4F
330
1F
100
AcDbEntity
  8
0
100
AcDbLine
 10
34.95274233246499
 20
-85.76207017273774
 30
0.0
 11
35.19112026636184
 21
-86.07273034451734
 31
0.0
  0
LINE
  5
50
330
1F
100
AcDbEntity
  8
0
100
AcDbLine
 10
36.64000900579543
 20
-86.46095891217124
 30
0.0
 11
37.00178043814167
 21
-86.31110827841431
 31
0.0
  0
LINE
  5
51
330
1F
100
AcDbEntity
  8
0
100
AcDbLine
 10
6.25178043814165
 20
-86.51207017273757
 30
0.0
 11
6.640009005795429
 21
-86.46095891217124
 31
0.0
  0
LINE
  5
52
330
1F
100
AcDbEntity
  8
0
100
AcDbLine
 10
6.640009005795429
 20
-86.46095891217124
 30
0.0
 11
7.001780438141649
 21
-86.31110827841431
 31
0.0
  0
LINE
  5
53
330
1F
100
AcDbEntity
  8
0
100
AcDbLine
 10
6.64000901838967
 20
-30.06318143667868
 30
0.0
 11
7.001780451046436
 21
-30.21303207451152
 31
0.0
  0
LINE
  5
54
330
1F
100
AcDbEntity
  8
0
100
AcDbLine
 10
6.251780449317522
 20
-30.01207017273778
 30
0.0
 11
6.64000901838967
 21
-30.06318143667868
 31
0.0
  0
LINE
  5
55
330
1F
100
AcDbEntity
  8
0
100
AcDbLine
 10
19.31244060992147
 20
-86.07273034451734
 30
0.0
 11
19.55081854381831
 21
-85.76207017273774
 31
0.0
  0
LINE
  5
56
330
1F
100
AcDbEntity
  8
0
100
AcDbLine
 10
19.55081854381831
 20
-85.76207017273774
 30
0.0
 11
19.70066917757526
 21
-85.40029874039143
 31
0.0
  0
LINE
  5
57
330
1F
100
AcDbEntity
  8
0
100
AcDbLine
 10
11.50178043814165
 20
-86.31110827841431
 30
0.0
 11
11.86355187048787
 21
-86.46095891217124
 31
0.0
  0
LINE
  5
58
330
1F
100
AcDbEntity
  8
0
100
AcDbLine
 10
12.64000900579543
 20
-86.46095891217124
 30
0.0
 11
13.00178043814165
 21
-86.31110827841431
 31
0.0
  0
LINE
  5
59
330
1F
100
AcDbEntity
  8
0
100
AcDbLine
 10
12.64000901838967
 20
-30.06318143667868
 30
0.0
 11
13.00178045104644
 21
-30.21303207451152
 31
0.0
  0
LINE
  5
5A
330
1F
100
AcDbEntity
  8
0
100
AcDbLine
 10
12.25178044931752
 20
-30.01207017273778
 30
0.0
 11
12.64000901838967
 21
-30.06318143667868
 31
0.0
  0
LINE
  5
5B
330
1F
100
AcDbEntity
  8
0
100
AcDbLine
 10
11.86355187048787
 20
-86.46095891217124
 30
0.0
 11
12.25178043814165
 21
-86.51207017273757
 31
0.0
  0
LINE
  5
5C
330
1F
100
AcDbEntity
  8
0
100
AcDbLine
 10
12.25178043814165
 20
-86.51207017273757
 30
0.0
 11
12.64000900579543
 21
-86.46095891217124
 31
0.0
  0
LINE
  5
5D
330
1F
100
AcDbEntity
  8
0
100
AcDbLine
 10
34.75178043814166
 20
-31.51207017273744
 30
0.0
 11
34.80289169919015
 21
-31.12384160328454
 31
0.0
  0
LINE
  5
5E
330
1F
100
AcDbEntity
  8
0
100
AcDbLine
 10
28.80289169870806
 20
-85.40029874039143
 30
0.0
 11
28.952742332465
 21
-85.76207017273774
 31
0.0
  0
LINE
  5
5F
330
1F
100
AcDbEntity
  8
0
100
AcDbLine
 10
28.952742332465
 20
-85.76207017273774
 30
0.0
 11
29.19112026636183
 21
-86.07273034451734
 31
0.0
  0
LINE
  5
60
330
1F
100
AcDbEntity
  8
0
100
AcDbLine
 10
28.75178043814166
 20
-85.01207017273754
 30
0.0
 11
28.75178043814166
 21
-31.51207017273744
 31
0.0
  0
LINE
  5
61
330
1F
100
AcDbEntity
  8
0
100
AcDbLine
 10
28.75178043814166
 20
-85.01207017273754
 30
0.0
 11
28.80289169870806
 21
-85.40029874039143
 31
0.0
  0
LINE
  5
62
330
1F
100
AcDbEntity
  8
0
100
AcDbLine
 10
24.64000901838968
 20
-30.06318143667868
 30
0.0
 11
25.00178045104644
 21
-30.21303207451152
 31
0.0
  0
LINE
  5
63
330
1F
100
AcDbEntity
  8
0
100
AcDbLine
 10
24.25178044931752
 20
-30.01207017273778
 30
0.0
 11
24.64000901838968
 21
-30.06318143667868
 31
0.0
  0
LINE
  5
64
330
1F
100
AcDbEntity
  8
0
100
AcDbLine
 10
24.64000900579543
 20
-86.46095891217124
 30
0.0
 11
25.00178043814165
 21
-86.31110827841431
 31
0.0
  0
LINE
  5
65
330
1F
100
AcDbEntity
  8
0
100
AcDbLine
 10
25.00178043814165
 20
-86.31110827841431
 30
0.0
 11
25.31244060992148
 21
-86.07273034451734
 31
0.0
  0
LINE
  5
66
330
1F
100
AcDbEntity
  8
0
100
AcDbLine
 10
37.55081854381832
 20
-85.76207017273774
 30
0.0
 11
37.70066917757526
 21
-85.40029874039143
 31
0.0
  0
LINE
  5
67
330
1F
100
AcDbEntity
  8
0
100
AcDbLine
 10
37.70066917757526
 20
-85.40029874039143
 30
0.0
 11
37.75178043814166
 21
-85.01207017273754
 31
0.0
  0
LINE
  5
68
330
1F
100
AcDbEntity
  8
0
100
AcDbLine
 10
35.86355187048787
 20
-86.46095891217124
 30
0.0
 11
36.25178043814166
 21
-86.51207017273757
 31
0.0
  0
LINE
  5
69
330
1F
100
AcDbEntity
  8
0
100
AcDbLine
 10
36.25178043814166
 20
-86.51207017273757
 30
0.0
 11
36.64000900579543
 21
-86.46095891217124
 31
0.0
  0
LINE
  5
6A
330
1F
100
AcDbEntity
  8
0
100
AcDbLine
 10
36.64000901838968
 20
-30.06318143667868
 30
0.0
 11
37.00178045104644
 21
-30.21303207451152
 31
0.0
  0
LINE
  5
6B
330
1F
100
AcDbEntity
  8
0
100
AcDbLine
 10
31.00178045104644
 20
-30.21303207451152
 30
0.0
 11
31.31244062177528
 21
-30.45141001281142
 31
0.0
  0
LINE
  5
6C
330
1F
100
AcDbEntity
  8
0
100
AcDbLine
 10
29.86355187948377
 20
-30.06318143089364
 30
0.0
 11
30.25178044931752
 21
-30.01207017273778
 31
0.0
  0
LINE
  5
6D
330
1F
100
AcDbEntity
  8
0
100
AcDbLine
 10
29.50178044459405
 20
-30.21303206333561
 30
0.0
 11
29.86355187948377
 21
-30.06318143089364
 31
0.0
  0
LINE
  5
6E
330
1F
100
AcDbEntity
  8
0
100
AcDbLine
 10
29.1911202703131
 20
-30.45140999700661
 30
0.0
 11
29.50178044459405
 21
-30.21303206333561
 31
0.0
  0
LINE
  5
6F
330
1F
100
AcDbEntity
  8
0
100
AcDbLine
 10
28.95274233432764
 20
-30.76207016951139
 30
0.0
 11
29.1911202703131
 21
-30.45140999700661
 31
0.0
  0
LINE
  5
70
330
1F
100
AcDbEntity
  8
0
100
AcDbLine
 10
28.80289169919014
 20
-31.12384160328454
 30
0.0
 11
28.95274233432764
 21
-30.76207016951139
 31
0.0
  0
LINE
  5
71
330
1F
100
AcDbEntity
  8
0
100
AcDbLine
 10
28.75178043814166
 20
-31.51207017273744
 30
0.0
 11
28.80289169919014
 21
-31.12384160328454
 31
0.0
  0
LINE
  5
72
330
1F
100
AcDbEntity
  8
0
100
AcDbLine
 10
23.86355187048787
 20
-86.46095891217124
 30
0.0
 11
24.25178043814166
 21
-86.51207017273757
 31
0.0
  0
LINE
  5
73
330
1F
100
AcDbEntity
  8
0
100
AcDbLine
 10
24.25178043814166
 20
-86.51207017273757
 30
0.0
 11
24.64000900579543
 21
-86.46095891217124
 31
0.0
  0
LINE
  5
74
330
1F
100
AcDbEntity
  8
0
100
AcDbLine
 10
37.31244062177527
 20
-30.45141001281142
 30
0.0
 11
37.55081855313153
 21
-30.76207018886872
 31
0.0
  0
LINE
  5
75
330
1F
100
AcDbEntity
  8
0
100
AcDbLine
 10
37.00178045104644
 20
-30.21303207451152
 30
0.0
 11
37.31244062177527
 21
-30.45141001281142
 31
0.0
  0
LINE
  5
76
330
1F
100
AcDbEntity
  8
0
100
AcDbLine
 10
35.1911202703131
 20
-30.45140999700661
 30
0.0
 11
35.50178044459405
 21
-30.21303206333561
 31
0.0
  0
LINE
  5
77
330
1F
100
AcDbEntity
  8
0
100
AcDbLine
 10
34.95274233432764
 20
-30.76207016951139
 30
0.0
 11
35.1911202703131
 21
-30.45140999700661
 31
0.0
  0
LINE
  5
78
330
1F
100
AcDbEntity
  8
0
100
AcDbLine
 10
34.80289169919015
 20
-31.12384160328454
 30
0.0
 11
34.95274233432764
 21
-30.76207016951139
 31
0.0
  0
LINE
  5
79
330
1F
100
AcDbEntity
  8
0
100
AcDbLine
 10
31.31244060992148
 20
-86.07273034451734
 30
0.0
 11
31.55081854381831
 21
-85.76207017273774
 31
0.0
  0
LINE
  5
7A
330
1F
100
AcDbEntity
  8
0
100
AcDbLine
 10
31.70066917757526
 20
-85.40029874039143
 30
0.0
 11
31.75178043814165
 21
-85.01207017273754
 31
0.0
  0
LINE
  5
7B
330
1F
100
AcDbEntity
  8
0
100
AcDbLine
 10
31.75178043814165
 20
-31.51207017273744
 30
0.0
 11
31.75178043814165
 21
-85.01207017273754
 31
0.0
  0
LINE
  5
7C
330
1F
100
AcDbEntity
  8
0
100
AcDbLine
 10
31.70066918287823
 20
-31.12384162487475
 30
0.0
 11
31.75178043814165
 21
-31.51207017273744
 31
0.0
  0
LINE
  5
7D
330
1F
100
AcDbEntity
  8
0
100
AcDbLine
 10
273.6557649273029
 20
-144.1080856835766
 30
0.0
 11
273.4094410622761
 21
-143.7870701727375
 31
0.0
  0
LINE
  5
7E
330
1F
100
AcDbEntity
  8
0
100
AcDbLine
 10
273.4094410622761
 20
-143.7870701727375
 30
0.0
 11
273.254595407394
 21
-143.4132396926463
 31
0.0
  0
LINE
  5
7F
330
1F
100
AcDbEntity
  8
0
100
AcDbLine
 10
273.254595407394
 20
-143.4132396926463
 30
0.0
 11
273.201780438142
 21
-143.0120701727373
 31
0.0
  0
LINE
  5
80
330
1F
100
AcDbEntity
  8
0
100
AcDbLine
 10
273.201780438142
 20
-143.0120701727373
 30
0.0
 11
273.254595407394
 21
-142.6109006528287
 31
0.0
  0
LINE
  5
81
330
1F
100
AcDbEntity
  8
0
100
AcDbLine
 10
273.254595407394
 20
-142.6109006528287
 30
0.0
 11
273.4094410622761
 21
-142.2370701727375
 31
0.0
  0
LINE
  5
82
330
1F
100
AcDbEntity
  8
0
100
AcDbLine
 10
273.4094410622761
 20
-142.2370701727375
 30
0.0
 11
273.6557649273029
 21
-141.9160546618985
 31
0.0
  0
LINE
  5
83
330
1F
100
AcDbEntity
  8
0
100
AcDbLine
 10
17.74047203267623
 20
-143.44369192423
 30
0.0
 11
17.57803416711527
 21
-143.8142865066418
 31
0.0
  0
LINE
  5
84
330
1F
100
AcDbEntity
  8
0
100
AcDbLine
 10
17.57803416711527
 20
-143.8142865066418
 30
0.0
 11
17.32521430166266
 21
-144.1302113716233
 31
0.0
  0
LINE
  5
85
330
1F
100
AcDbEntity
  8
0
100
AcDbLine
 10
17.32521430166266
 20
-144.1302113716233
 30
0.0
 11
16.99924169234442
 21
-144.3699367617164
 31
0.0
  0
LINE
  5
86
330
1F
100
AcDbEntity
  8
0
100
AcDbLine
 10
16.62233083379036
 20
-144.5171257877512
 30
0.0
 11
16.22016757813632
 21
-144.5617477608449
 31
0.0
  0
LINE
  5
87
330
1F
100
AcDbEntity
  8
0
100
AcDbLine
 10
16.22016757813632
 20
-144.5617477608449
 30
0.0
 11
15.82015868664891
 21
-144.5007617672722
 31
0.0
  0
LINE
  5
88
330
1F
100
AcDbEntity
  8
0
100
AcDbLine
 10
15.82015868664891
 20
-144.5007617672722
 30
0.0
 11
15.44956410423704
 21
-144.3383239017113
 31
0.0
  0
LINE
  5
89
330
1F
100
AcDbEntity
  8
0
100
AcDbLine
 10
15.13363923925558
 20
-144.0855040362585
 30
0.0
 11
14.8939138491625
 21
-143.7595314269405
 31
0.0
  0
LINE
  5
8A
330
1F
100
AcDbEntity
  8
0
100
AcDbLine
 10
14.8939138491625
 20
-143.7595314269405
 30
0.0
 11
14.74672482312769
 21
-143.3826205683863
 31
0.0
  0
LINE
  5
8B
330
1F
100
AcDbEntity
  8
0
100
AcDbLine
 10
14.74672482312769
 20
-143.3826205683863
 30
0.0
 11
14.70210285003407
 21
-142.9804573127323
 31
0.0
  0
LINE
  5
8C
330
1F
100
AcDbEntity
  8
0
100
AcDbLine
 10
14.70210285003407
 20
-142.9804573127323
 30
0.0
 11
14.76308884360666
 21
-142.5804484212451
 31
0.0
  0
LINE
  5
8D
330
1F
100
AcDbEntity
  8
0
100
AcDbLine
 10
14.76308884360666
 20
-142.5804484212451
 30
0.0
 11
14.92552670916762
 21
-142.2098538388329
 31
0.0
  0
LINE
  5
8E
330
1F
100
AcDbEntity
  8
0
100
AcDbLine
 10
14.92552670916762
 20
-142.2098538388329
 30
0.0
 11
15.17834657462023
 21
-141.8939289738517
 31
0.0
  0
LINE
  5
8F
330
1F
100
AcDbEntity
  8
0
100
AcDbLine
 10
15.17834657462023
 20
-141.8939289738517
 30
0.0
 11
15.50431918393848
 21
-141.6542035837587
 31
0.0
  0
LINE
  5
90
330
1F
100
AcDbEntity
  8
0
100
AcDbLine
 10
15.50431918393848
 20
-141.6542035837587
 30
0.0
 11
15.88123004249253
 21
-141.5070145577239
 31
0.0
  0
LINE
  5
91
330
1F
100
AcDbEntity
  8
0
100
AcDbLine
 10
15.88123004249253
 20
-141.5070145577239
 30
0.0
 11
16.28339329814657
 21
-141.4623925846301
 31
0.0
  0
LINE
  5
92
330
1F
100
AcDbEntity
  8
0
100
AcDbLine
 10
16.28339329814657
 20
-141.4623925846301
 30
0.0
 11
16.68340218963398
 21
-141.5233785782028
 31
0.0
  0
LINE
  5
93
330
1F
100
AcDbEntity
  8
0
100
AcDbLine
 10
17.05399677204585
 20
-141.6858164437637
 30
0.0
 11
17.36992163702731
 21
-141.9386363092162
 31
0.0
  0
LINE
  5
94
330
1F
100
AcDbEntity
  8
0
100
AcDbLine
 10
17.36992163702731
 20
-141.9386363092162
 30
0.0
 11
17.60964702712039
 21
-142.2646089185345
 31
0.0
  0
LINE
  5
95
330
1F
100
AcDbEntity
  8
0
100
AcDbLine
 10
17.60964702712039
 20
-142.2646089185345
 30
0.0
 11
17.7568360531552
 21
-142.6415197770884
 31
0.0
  0
LINE
  5
96
330
1F
100
AcDbEntity
  8
0
100
AcDbLine
 10
17.7568360531552
 20
-142.6415197770884
 30
0.0
 11
17.80145802624882
 21
-143.0436830327424
 31
0.0
  0
LINE
  5
97
330
1F
100
AcDbEntity
  8
0
100
AcDbLine
 10
31.85061091823281
 20
-96.51488514198925
 30
0.0
 11
32.25178043814172
 21
-96.4620701727371
 31
0.0
  0
LINE
  5
98
330
1F
100
AcDbEntity
  8
0
100
AcDbLine
 10
32.25178043814172
 20
-96.4620701727371
 30
0.0
 11
32.65294995805062
 21
-96.51488514198925
 31
0.0
  0
LINE
  5
99
330
1F
100
AcDbEntity
  8
0
100
AcDbLine
 10
32.65294995805062
 20
-96.51488514198925
 30
0.0
 11
33.02678043814171
 21
-96.66973079687125
 31
0.0
  0
LINE
  5
9A
330
1F
100
AcDbEntity
  8
0
100
AcDbLine
 10
33.02678043814171
 20
-96.66973079687125
 30
0.0
 11
33.34779594898086
 21
-96.91605466189823
 31
0.0
  0
LINE
  5
9B
330
1F
100
AcDbEntity
  8
0
100
AcDbLine
 10
33.34779594898086
 20
-96.91605466189823
 30
0.0
 11
33.59411981400759
 21
-97.23707017273729
 31
0.0
  0
LINE
  5
9C
330
1F
100
AcDbEntity
  8
0
100
AcDbLine
 10
33.59411981400759
 20
-97.23707017273729
 30
0.0
 11
33.74896546888976
 21
-97.61090065282814
 31
0.0
  0
LINE
  5
9D
330
1F
100
AcDbEntity
  8
0
100
AcDbLine
 10
33.74896546888976
 20
-97.61090065282814
 30
0.0
 11
33.80178043814171
 21
-98.01207017273711
 31
0.0
  0
LINE
  5
9E
330
1F
100
AcDbEntity
  8
0
100
AcDbLine
 10
33.80178043814171
 20
-98.01207017273711
 30
0.0
 11
33.74896546888976
 21
-98.41323969264609
 31
0.0
  0
LINE
  5
9F
330
1F
100
AcDbEntity
  8
0
100
AcDbLine
 10
33.74896546888976
 20
-98.41323969264609
 30
0.0
 11
33.59411981400759
 21
-98.7870701727373
 31
0.0
  0
LINE
  5
A0
330
1F
100
AcDbEntity
  8
0
100
AcDbLine
 10
33.59411981400759
 20
-98.7870701727373
 30
0.0
 11
33.34779594898086
 21
-99.10808568357636
 31
0.0
  0
LINE
  5
A1
330
1F
100
AcDbEntity
  8
0
100
AcDbLine
 10
33.34779594898086
 20
-99.10808568357636
 30
0.0
 11
33.02678043814171
 21
-99.35440954860297
 31
0.0
  0
LINE
  5
A2
330
1F
100
AcDbEntity
  8
0
100
AcDbLine
 10
33.02678043814171
 20
-99.35440954860297
 30
0.0
 11
32.65294995805062
 21
-99.50925520348534
 31
0.0
  0
LINE
  5
A3
330
1F
100
AcDbEntity
  8
0
100
AcDbLine
 10
32.65294995805062
 20
-99.50925520348534
 30
0.0
 11
32.25178043814172
 21
-99.56207017273712
 31
0.0
  0
LINE
  5
A4
330
1F
100
AcDbEntity
  8
0
100
AcDbLine
 10
32.25178043814172
 20
-99.56207017273712
 30
0.0
 11
31.85061091823281
 21
-99.50925520348534
 31
0.0
  0
LINE
  5
A5
330
1F
100
AcDbEntity
  8
0
100
AcDbLine
 10
31.85061091823281
 20
-99.50925520348534
 30
0.0
 11
31.47678043814172
 21
-99.35440954860297
 31
0.0
  0
LINE
  5
A6
330
1F
100
AcDbEntity
  8
0
100
AcDbLine
 10
31.47678043814172
 20
-99.35440954860297
 30
0.0
 11
31.15576492730257
 21
-99.10808568357636
 31
0.0
  0
LINE
  5
A7
330
1F
100
AcDbEntity
  8
0
100
AcDbLine
 10
31.15576492730257
 20
-99.10808568357636
 30
0.0
 11
30.90944106227584
 21
-98.7870701727373
 31
0.0
  0
LINE
  5
A8
330
1F
100
AcDbEntity
  8
0
100
AcDbLine
 10
30.90944106227584
 20
-98.7870701727373
 30
0.0
 11
30.75459540739366
 21
-98.41323969264609
 31
0.0
  0
LINE
  5
A9
330
1F
100
AcDbEntity
  8
0
100
AcDbLine
 10
30.75459540739366
 20
-98.41323969264609
 30
0.0
 11
30.70178043814172
 21
-98.01207017273711
 31
0.0
  0
LINE
  5
AA
330
1F
100
AcDbEntity
  8
0
100
AcDbLine
 10
30.70178043814172
 20
-98.01207017273711
 30
0.0
 11
30.75459540739366
 21
-97.61090065282814
 31
0.0
  0
LINE
  5
AB
330
1F
100
AcDbEntity
  8
0
100
AcDbLine
 10
30.75459540739366
 20
-97.61090065282814
 30
0.0
 11
30.90944106227584
 21
-97.23707017273729
 31
0.0
  0
LINE
  5
AC
330
1F
100
AcDbEntity
  8
0
100
AcDbLine
 10
30.90944106227584
 20
-97.23707017273729
 30
0.0
 11
31.15576492730257
 21
-96.91605466189823
 31
0.0
  0
LINE
  5
AD
330
1F
100
AcDbEntity
  8
0
100
AcDbLine
 10
31.15576492730257
 20
-96.91605466189823
 30
0.0
 11
31.47678043814172
 21
-96.66973079687125
 31
0.0
  0
LINE
  5
AE
330
1F
100
AcDbEntity
  8
0
100
AcDbLine
 10
31.47678043814172
 20
-96.66973079687125
 30
0.0
 11
31.85061091823281
 21
-96.51488514198925
 31
0.0
  0
LINE
  5
AF
330
1F
100
AcDbEntity
  8
0
100
AcDbLine
 10
-0.6236035802828818
 20
-96.73292873400308
 30
0.0
 11
-0.2627094274510675
 21
-96.54994836584093
 31
0.0
  0
LINE
  5
B0
330
1F
100
AcDbEntity
  8
0
100
AcDbLine
 10
-0.2627094274510675
 20
-96.54994836584093
 30
0.0
 11
0.1332463594861888
 21
-96.46660918254787
 31
0.0
  0
LINE
  5
B1
330
1F
100
AcDbEntity
  8
0
100
AcDbLine
 10
0.1332463594861888
 20
-96.46660918254787
 30
0.0
 11
0.5372800479969854
 21
-96.4885906117413
 31
0.0
  0
LINE
  5
B2
330
1F
100
AcDbEntity
  8
0
100
AcDbLine
 10
0.5372800479969854
 20
-96.4885906117413
 30
0.0
 11
0.921857409906551
 21
-96.61439465534787
 31
0.0
  0
LINE
  5
B3
330
1F
100
AcDbEntity
  8
0
100
AcDbLine
 10
0.921857409906551
 20
-96.61439465534787
 30
0.0
 11
1.260770133544892
 21
-96.8354479756962
 31
0.0
  0
LINE
  5
B4
330
1F
100
AcDbEntity
  8
0
100
AcDbLine
 10
1.260770133544892
 20
-96.8354479756962
 30
0.0
 11
1.530921876875812
 21
-97.13668615431293
 31
0.0
  0
LINE
  5
B5
330
1F
100
AcDbEntity
  8
0
100
AcDbLine
 10
1.530921876875812
 20
-97.13668615431293
 30
0.0
 11
1.713902245038172
 21
-97.49758030714459
 31
0.0
  0
LINE
  5
B6
330
1F
100
AcDbEntity
  8
0
100
AcDbLine
 10
1.347795948980789
 20
-19.1080856835765
 30
0.0
 11
1.026780438141637
 21
-19.35440954860312
 31
0.0
  0
LINE
  5
B7
330
1F
100
AcDbEntity
  8
0
100
AcDbLine
 10
0.6529499580505441
 20
-19.50925520348548
 30
0.0
 11
0.2517804381416333
 21
-19.56207017273726
 31
0.0
  0
LINE
  5
B8
330
1F
100
AcDbEntity
  8
0
100
AcDbLine
 10
0.2517804381416333
 20
-19.56207017273726
 30
0.0
 11
-0.1493890817672776
 21
-19.50925520348548
 31
0.0
  0
LINE
  5
B9
330
1F
100
AcDbEntity
  8
0
100
AcDbLine
 10
-0.1493890817672776
 20
-19.50925520348548
 30
0.0
 11
-0.5232195618583709
 21
-19.35440954860312
 31
0.0
  0
LINE
  5
BA
330
1F
100
AcDbEntity
  8
0
100
AcDbLine
 10
-0.5232195618583709
 20
-19.35440954860312
 30
0.0
 11
-0.8442350726975221
 21
-19.1080856835765
 31
0.0
  0
LINE
  5
BB
330
1F
100
AcDbEntity
  8
0
100
AcDbLine
 10
-0.8442350726975221
 20
-19.1080856835765
 30
0.0
 11
-1.090558937724254
 21
-18.78707017273744
 31
0.0
  0
LINE
  5
BC
330
1F
100
AcDbEntity
  8
0
100
AcDbLine
 10
-1.090558937724254
 20
-18.78707017273744
 30
0.0
 11
-1.24540459260643
 21
-18.41323969264623
 31
0.0
  0
LINE
  5
BD
330
1F
100
AcDbEntity
  8
0
100
AcDbLine
 10
-1.24540459260643
 20
-18.41323969264623
 30
0.0
 11
-1.298219561858375
 21
-18.01207017273726
 31
0.0
  0
LINE
  5
BE
330
1F
100
AcDbEntity
  8
0
100
AcDbLine
 10
-1.298219561858375
 20
-18.01207017273726
 30
0.0
 11
-1.24540459260643
 21
-17.61090065282828
 31
0.0
  0
LINE
  5
BF
330
1F
100
AcDbEntity
  8
0
100
AcDbLine
 10
-1.24540459260643
 20
-17.61090065282828
 30
0.0
 11
-1.090558937724254
 21
-17.23707017273744
 31
0.0
  0
LINE
  5
C0
330
1F
100
AcDbEntity
  8
0
100
AcDbLine
 10
-1.090558937724254
 20
-17.23707017273744
 30
0.0
 11
-0.8442350726975221
 21
-16.91605466189837
 31
0.0
  0
LINE
  5
C1
330
1F
100
AcDbEntity
  8
0
100
AcDbLine
 10
-0.8442350726975221
 20
-16.91605466189837
 30
0.0
 11
-0.5232195618583709
 21
-16.6697307968714
 31
0.0
  0
LINE
  5
C2
330
1F
100
AcDbEntity
  8
0
100
AcDbLine
 10
-0.5232195618583709
 20
-16.6697307968714
 30
0.0
 11
-0.1493890817672776
 21
-16.5148851419894
 31
0.0
  0
LINE
  5
C3
330
1F
100
AcDbEntity
  8
0
100
AcDbLine
 10
-0.1493890817672776
 20
-16.5148851419894
 30
0.0
 11
0.2517804381416333
 21
-16.46207017273725
 31
0.0
  0
LINE
  5
C4
330
1F
100
AcDbEntity
  8
0
100
AcDbLine
 10
0.2517804381416333
 20
-16.46207017273725
 30
0.0
 11
0.6529499580505413
 21
-16.5148851419894
 31
0.0
  0
LINE
  5
C5
330
1F
100
AcDbEntity
  8
0
100
AcDbLine
 10
0.6529499580505413
 20
-16.5148851419894
 30
0.0
 11
1.026780438141637
 21
-16.6697307968714
 31
0.0
  0
LINE
  5
C6
330
1F
100
AcDbEntity
  8
0
100
AcDbLine
 10
1.026780438141637
 20
-16.6697307968714
 30
0.0
 11
1.347795948980786
 21
-16.91605466189837
 31
0.0
  0
LINE
  5
C7
330
1F
100
AcDbEntity
  8
0
100
AcDbLine
 10
1.347795948980786
 20
-16.91605466189837
 30
0.0
 11
1.594119814007521
 21
-17.23707017273744
 31
0.0
  0
LINE
  5
C8
330
1F
100
AcDbEntity
  8
0
100
AcDbLine
 10
1.748965468889697
 20
-17.61090065282828
 30
0.0
 11
1.801780438141642
 21
-18.01207017273726
 31
0.0
  0
LINE
  5
C9
330
1F
100
AcDbEntity
  8
0
100
AcDbLine
 10
1.801780438141642
 20
-18.01207017273726
 30
0.0
 11
1.748965468889697
 21
-18.41323969264623
 31
0.0
  0
LINE
  5
CA
330
1F
100
AcDbEntity
  8
0
100
AcDbLine
 10
32.57948988753355
 20
-19.52703106885933
 30
0.0
 11
32.17622272632625
 21
-19.56022747488224
 31
0.0
  0
LINE
  5
CB
330
1F
100
AcDbEntity
  8
0
100
AcDbLine
 10
32.17622272632625
 20
-19.56022747488224
 30
0.0
 11
31.77810469831417
 21
-19.48791951921497
 31
0.0
  0
LINE
  5
CC
330
1F
100
AcDbEntity
  8
0
100
AcDbLine
 10
31.77810469831417
 20
-19.48791951921497
 30
0.0
 11
31.41226688918517
 21
-19.31503486954124
 31
0.0
  0
LINE
  5
CD
330
1F
100
AcDbEntity
  8
0
100
AcDbLine
 10
31.41226688918517
 20
-19.31503486954124
 30
0.0
 11
31.10364054105584
 21
-19.05335532903169
 31
0.0
  0
LINE
  5
CE
330
1F
100
AcDbEntity
  8
0
100
AcDbLine
 10
31.10364054105584
 20
-19.05335532903169
 30
0.0
 11
30.87325802952203
 21
-18.72071392592555
 31
0.0
  0
LINE
  5
CF
330
1F
100
AcDbEntity
  8
0
100
AcDbLine
 10
30.87325802952203
 20
-18.72071392592555
 30
0.0
 11
30.73681954201967
 21
-18.33977962212862
 31
0.0
  0
LINE
  5
D0
330
1F
100
AcDbEntity
  8
0
100
AcDbLine
 10
30.73681954201967
 20
-18.33977962212862
 30
0.0
 11
30.70362313599679
 21
-17.93651246092161
 31
0.0
  0
LINE
  5
D1
330
1F
100
AcDbEntity
  8
0
100
AcDbLine
 10
30.70362313599679
 20
-17.93651246092161
 30
0.0
 11
30.77593109166419
 21
-17.53839443290925
 31
0.0
  0
LINE
  5
D2
330
1F
100
AcDbEntity
  8
0
100
AcDbLine
 10
30.77593109166419
 20
-17.53839443290925
 30
0.0
 11
30.94881574133768
 21
-17.17255662378057
 31
0.0
  0
LINE
  5
D3
330
1F
100
AcDbEntity
  8
0
100
AcDbLine
 10
30.94881574133768
 20
-17.17255662378057
 30
0.0
 11
31.2104952818474
 21
-16.86393027565127
 31
0.0
  0
LINE
  5
D4
330
1F
100
AcDbEntity
  8
0
100
AcDbLine
 10
31.2104952818474
 20
-16.86393027565127
 30
0.0
 11
31.54313668495352
 21
-16.63354776411726
 31
0.0
  0
LINE
  5
D5
330
1F
100
AcDbEntity
  8
0
100
AcDbLine
 10
31.54313668495352
 20
-16.63354776411726
 30
0.0
 11
31.92407098875024
 21
-16.49710927661482
 31
0.0
  0
LINE
  5
D6
330
1F
100
AcDbEntity
  8
0
100
AcDbLine
 10
31.92407098875024
 20
-16.49710927661482
 30
0.0
 11
32.32733814995754
 21
-16.46391287059192
 31
0.0
  0
LINE
  5
D7
330
1F
100
AcDbEntity
  8
0
100
AcDbLine
 10
32.32733814995754
 20
-16.46391287059192
 30
0.0
 11
32.72545617796963
 21
-16.53622082625955
 31
0.0
  0
LINE
  5
D8
330
1F
100
AcDbEntity
  8
0
100
AcDbLine
 10
32.72545617796963
 20
-16.53622082625955
 30
0.0
 11
33.09129398709862
 21
-16.70910547593291
 31
0.0
  0
LINE
  5
D9
330
1F
100
AcDbEntity
  8
0
100
AcDbLine
 10
33.09129398709862
 20
-16.70910547593291
 30
0.0
 11
33.39992033522795
 21
-16.97078501644283
 31
0.0
  0
LINE
  5
DA
330
1F
100
AcDbEntity
  8
0
100
AcDbLine
 10
33.39992033522795
 20
-16.97078501644283
 30
0.0
 11
33.63030284676176
 21
-17.30342641954861
 31
0.0
  0
LINE
  5
DB
330
1F
100
AcDbEntity
  8
0
100
AcDbLine
 10
33.63030284676176
 20
-17.30342641954861
 30
0.0
 11
33.76674133426412
 21
-17.68436072334553
 31
0.0
  0
LINE
  5
DC
330
1F
100
AcDbEntity
  8
0
100
AcDbLine
 10
33.76674133426412
 20
-17.68436072334553
 30
0.0
 11
33.799937740287
 21
-18.08762788455291
 31
0.0
  0
LINE
  5
DD
330
1F
100
AcDbEntity
  8
0
100
AcDbLine
 10
33.799937740287
 20
-18.08762788455291
 30
0.0
 11
33.72762978461961
 21
-18.48574591256491
 31
0.0
  0
LINE
  5
DE
330
1F
100
AcDbEntity
  8
0
100
AcDbLine
 10
33.72762978461961
 20
-18.48574591256491
 30
0.0
 11
33.55474513494612
 21
-18.85158372169395
 31
0.0
  0
LINE
  5
DF
330
1F
100
AcDbEntity
  8
0
100
AcDbLine
 10
33.55474513494612
 20
-18.85158372169395
 30
0.0
 11
33.29306559443639
 21
-19.16021006982324
 31
0.0
  0
LINE
  5
E0
330
1F
100
AcDbEntity
  8
0
100
AcDbLine
 10
33.29306559443639
 20
-19.16021006982324
 30
0.0
 11
32.96042419133028
 21
-19.39059258135689
 31
0.0
  0
LINE
  5
E1
330
1F
100
AcDbEntity
  8
0
100
AcDbLine
 10
32.96042419133028
 20
-19.39059258135689
 30
0.0
 11
32.57948988753355
 21
-19.52703106885933
 31
0.0
  0
LINE
  5
E2
330
1F
100
AcDbEntity
  8
0
100
AcDbLine
 10
33.0267804381421
 20
63.33026920312845
 30
0.0
 11
33.34779594898125
 21
63.08394533810184
 31
0.0
  0
LINE
  5
E3
330
1F
100
AcDbEntity
  8
0
100
AcDbLine
 10
33.34779594898125
 20
63.08394533810184
 30
0.0
 11
33.59411981400798
 21
62.76292982726278
 31
0.0
  0
LINE
  5
E4
330
1F
100
AcDbEntity
  8
0
100
AcDbLine
 10
33.59411981400798
 20
62.76292982726278
 30
0.0
 11
33.74896546889016
 21
62.38909934717157
 31
0.0
  0
LINE
  5
E5
330
1F
100
AcDbEntity
  8
0
100
AcDbLine
 10
33.74896546889016
 20
62.38909934717157
 30
0.0
 11
33.80178043814211
 21
61.9879298272626
 31
0.0
  0
LINE
  5
E6
330
1F
100
AcDbEntity
  8
0
100
AcDbLine
 10
33.80178043814211
 20
61.9879298272626
 30
0.0
 11
33.74896546889016
 21
61.58676030735362
 31
0.0
  0
LINE
  5
E7
330
1F
100
AcDbEntity
  8
0
100
AcDbLine
 10
33.74896546889016
 20
61.58676030735362
 30
0.0
 11
33.59411981400799
 21
61.21292982726277
 31
0.0
  0
LINE
  5
E8
330
1F
100
AcDbEntity
  8
0
100
AcDbLine
 10
33.59411981400799
 20
61.21292982726277
 30
0.0
 11
33.34779594898125
 21
60.89191431642371
 31
0.0
  0
LINE
  5
E9
330
1F
100
AcDbEntity
  8
0
100
AcDbLine
 10
33.34779594898125
 20
60.89191431642371
 30
0.0
 11
33.0267804381421
 21
60.64559045139674
 31
0.0
  0
LINE
  5
EA
330
1F
100
AcDbEntity
  8
0
100
AcDbLine
 10
33.0267804381421
 20
60.64559045139674
 30
0.0
 11
32.65294995805101
 21
60.49074479651473
 31
0.0
  0
LINE
  5
EB
330
1F
100
AcDbEntity
  8
0
100
AcDbLine
 10
32.65294995805101
 20
60.49074479651473
 30
0.0
 11
32.2517804381421
 21
60.43792982726259
 31
0.0
  0
LINE
  5
EC
330
1F
100
AcDbEntity
  8
0
100
AcDbLine
 10
32.2517804381421
 20
60.43792982726259
 30
0.0
 11
31.85061091823319
 21
60.49074479651473
 31
0.0
  0
LINE
  5
ED
330
1F
100
AcDbEntity
  8
0
100
AcDbLine
 10
31.85061091823319
 20
60.49074479651473
 30
0.0
 11
31.4767804381421
 21
60.64559045139674
 31
0.0
  0
LINE
  5
EE
330
1F
100
AcDbEntity
  8
0
100
AcDbLine
 10
31.4767804381421
 20
60.64559045139674
 30
0.0
 11
31.15576492730295
 21
60.89191431642371
 31
0.0
  0
LINE
  5
EF
330
1F
100
AcDbEntity
  8
0
100
AcDbLine
 10
31.15576492730295
 20
60.89191431642371
 30
0.0
 11
30.90944106227622
 21
61.21292982726277
 31
0.0
  0
LINE
  5
F0
330
1F
100
AcDbEntity
  8
0
100
AcDbLine
 10
30.90944106227622
 20
61.21292982726277
 30
0.0
 11
30.75459540739404
 21
61.58676030735362
 31
0.0
  0
LINE
  5
F1
330
1F
100
AcDbEntity
  8
0
100
AcDbLine
 10
30.75459540739404
 20
61.58676030735362
 30
0.0
 11
30.70178043814209
 21
61.9879298272626
 31
0.0
  0
LINE
  5
F2
330
1F
100
AcDbEntity
  8
0
100
AcDbLine
 10
30.70178043814209
 20
61.9879298272626
 30
0.0
 11
30.75459540739404
 21
62.38909934717157
 31
0.0
  0
LINE
  5
F3
330
1F
100
AcDbEntity
  8
0
100
AcDbLine
 10
30.75459540739404
 20
62.38909934717157
 30
0.0
 11
30.90944106227621
 21
62.76292982726278
 31
0.0
  0
LINE
  5
F4
330
1F
100
AcDbEntity
  8
0
100
AcDbLine
 10
30.90944106227621
 20
62.76292982726278
 30
0.0
 11
31.15576492730295
 21
63.08394533810184
 31
0.0
  0
LINE
  5
F5
330
1F
100
AcDbEntity
  8
0
100
AcDbLine
 10
31.15576492730295
 20
63.08394533810184
 30
0.0
 11
31.4767804381421
 21
63.33026920312845
 31
0.0
  0
LINE
  5
F6
330
1F
100
AcDbEntity
  8
0
100
AcDbLine
 10
31.4767804381421
 20
63.33026920312845
 30
0.0
 11
31.85061091823319
 21
63.48511485801082
 31
0.0
  0
LINE
  5
F7
330
1F
100
AcDbEntity
  8
0
100
AcDbLine
 10
31.85061091823319
 20
63.48511485801082
 30
0.0
 11
32.2517804381421
 21
63.5379298272626
 31
0.0
  0
LINE
  5
F8
330
1F
100
AcDbEntity
  8
0
100
AcDbLine
 10
32.2517804381421
 20
63.5379298272626
 30
0.0
 11
32.65294995805101
 21
63.48511485801082
 31
0.0
  0
LINE
  5
F9
330
1F
100
AcDbEntity
  8
0
100
AcDbLine
 10
32.65294995805101
 20
63.48511485801082
 30
0.0
 11
33.0267804381421
 21
63.33026920312845
 31
0.0
  0
LINE
  5
FA
330
1F
100
AcDbEntity
  8
0
100
AcDbLine
 10
-0.8442350726975221
 20
63.08394533810149
 30
0.0
 11
-0.5232195618583709
 21
63.33026920312845
 31
0.0
  0
LINE
  5
FB
330
1F
100
AcDbEntity
  8
0
100
AcDbLine
 10
-9.748219561858349
 20
115.9879298272626
 30
0.0
 11
300.2517804381413
 21
115.9879298272626
 31
0.0
  0
LINE
  5
FC
330
1F
100
AcDbEntity
  8
0
100
AcDbLine
 10
-9.748219561858349
 20
-152.0120701727375
 30
0.0
 11
-9.748219561858349
 21
115.9879298272626
 31
0.0
  0
LINE
  5
FD
330
1F
100
AcDbEntity
  8
0
100
AcDbLine
 10
37.00178043814165
 20
-6.31110827841409
 30
0.0
 11
37.31244060992147
 21
-6.072730344517489
 31
0.0
  0
LINE
  5
FE
330
1F
100
AcDbEntity
  8
0
100
AcDbLine
 10
274.8124406217753
 20
49.54858998718844
 30
0.0
 11
275.0508185531315
 21
49.23792981113149
 31
0.0
  0
LINE
  5
FF
330
1F
100
AcDbEntity
  8
0
100
AcDbLine
 10
275.0508185531315
 20
49.23792981113149
 30
0.0
 11
275.2006691828782
 21
48.87615837512547
 31
0.0
  0
LINE
  5
100
330
1F
100
AcDbEntity
  8
0
100
AcDbLine
 10
272.2517804381417
 20
-5.012070172737688
 30
0.0
 11
272.2517804381417
 21
48.48792982726242
 31
0.0
  0
LINE
  5
101
330
1F
100
AcDbEntity
  8
0
100
AcDbLine
 10
34.75178043814166
 20
-85.01207017273754
 30
0.0
 11
34.80289169870805
 21
-85.40029874039143
 31
0.0
  0
LINE
  5
102
330
1F
100
AcDbEntity
  8
0
100
AcDbLine
 10
11.19112026636183
 20
-86.07273034451734
 30
0.0
 11
11.50178043814165
 21
-86.31110827841431
 31
0.0
  0
LINE
  5
103
330
1F
100
AcDbEntity
  8
0
100
AcDbLine
 10
-1.248219561858344
 20
-31.51207017273744
 30
0.0
 11
-1.197108300809859
 21
-31.12384160328454
 31
0.0
  0
LINE
  5
104
330
1F
100
AcDbEntity
  8
0
100
AcDbLine
 10
31.55081855313154
 20
-30.76207018886872
 30
0.0
 11
31.70066918287823
 21
-31.12384162487475
 31
0.0
  0
LINE
  5
105
330
1F
100
AcDbEntity
  8
0
100
AcDbLine
 10
31.31244062177528
 20
-30.45141001281142
 30
0.0
 11
31.55081855313154
 21
-30.76207018886872
 31
0.0
  0
LINE
  5
106
330
1F
100
AcDbEntity
  8
0
100
AcDbLine
 10
30.25178043814166
 20
-86.51207017273757
 30
0.0
 11
30.64000900579543
 21
-86.46095891217124
 31
0.0
  0
LINE
  5
107
330
1F
100
AcDbEntity
  8
0
100
AcDbLine
 10
30.64000901838968
 20
-30.06318143667868
 30
0.0
 11
31.00178045104644
 21
-30.21303207451152
 31
0.0
  0
LINE
  5
108
330
1F
100
AcDbEntity
  8
0
100
AcDbLine
 10
30.25178044931752
 20
-30.01207017273778
 30
0.0
 11
30.64000901838968
 21
-30.06318143667868
 31
0.0
  0
LINE
  5
109
330
1F
100
AcDbEntity
  8
0
100
AcDbLine
 10
30.64000900579543
 20
-86.46095891217124
 30
0.0
 11
31.00178043814165
 21
-86.31110827841431
 31
0.0
  0
LINE
  5
10A
330
1F
100
AcDbEntity
  8
0
100
AcDbLine
 10
31.00178043814165
 20
-86.31110827841431
 30
0.0
 11
31.31244060992148
 21
-86.07273034451734
 31
0.0
  0
LINE
  5
10B
330
1F
100
AcDbEntity
  8
0
100
AcDbLine
 10
35.86355187948377
 20
-30.06318143089364
 30
0.0
 11
36.25178044931752
 21
-30.01207017273742
 31
0.0
  0
LINE
  5
10C
330
1F
100
AcDbEntity
  8
0
100
AcDbLine
 10
35.50178044459405
 20
-30.21303206333561
 30
0.0
 11
35.86355187948377
 21
-30.06318143089364
 31
0.0
  0
LINE
  5
10D
330
1F
100
AcDbEntity
  8
0
100
AcDbLine
 10
255.7517804493176
 20
-30.01207017273742
 30
0.0
 11
256.1400090183897
 21
-30.06318143667868
 31
0.0
  0
LINE
  5
10E
330
1F
100
AcDbEntity
  8
0
100
AcDbLine
 10
256.1400090183897
 20
-30.06318143667868
 30
0.0
 11
256.5017804510464
 21
-30.21303207451152
 31
0.0
  0
LINE
  5
10F
330
1F
100
AcDbEntity
  8
0
100
AcDbLine
 10
256.8124406099215
 20
-86.07273034451734
 30
0.0
 11
257.0508185438183
 21
-85.76207017273774
 31
0.0
  0
LINE
  5
110
330
1F
100
AcDbEntity
  8
0
100
AcDbLine
 10
256.5017804381416
 20
-86.31110827841431
 30
0.0
 11
256.8124406099215
 21
-86.07273034451734
 31
0.0
  0
LINE
  5
111
330
1F
100
AcDbEntity
  8
0
100
AcDbLine
 10
255.3635518704879
 20
-86.46095891217124
 30
0.0
 11
255.7517804381417
 21
-86.51207017273757
 31
0.0
  0
LINE
  5
112
330
1F
100
AcDbEntity
  8
0
100
AcDbLine
 10
5.191120266361827
 20
-6.072730344517489
 30
0.0
 11
5.501780438141652
 21
-6.31110827841409
 31
0.0
  0
LINE
  5
113
330
1F
100
AcDbEntity
  8
0
100
AcDbLine
 10
5.501780438141652
 20
-6.31110827841409
 30
0.0
 11
5.863551870487866
 21
-6.460958912171381
 31
0.0
  0
LINE
  5
114
330
1F
100
AcDbEntity
  8
0
100
AcDbLine
 10
-1.248219561858344
 20
-85.01207017273754
 30
0.0
 11
-1.248219561858344
 21
-31.51207017273744
 31
0.0
  0
LINE
  5
115
330
1F
100
AcDbEntity
  8
0
100
AcDbLine
 10
-1.248219561858344
 20
-85.01207017273754
 30
0.0
 11
-1.197108301291949
 21
-85.40029874039143
 31
0.0
  0
LINE
  5
116
330
1F
100
AcDbEntity
  8
0
100
AcDbLine
 10
1.312440609921477
 20
-86.07273034451734
 30
0.0
 11
1.550818543818309
 21
-85.76207017273774
 31
0.0
  0
LINE
  5
117
330
1F
100
AcDbEntity
  8
0
100
AcDbLine
 10
1.550818543818309
 20
-85.76207017273774
 30
0.0
 11
1.700669177575255
 21
-85.40029874039143
 31
0.0
  0
LINE
  5
118
330
1F
100
AcDbEntity
  8
0
100
AcDbLine
 10
7.550818553131533
 20
-30.76207018886872
 30
0.0
 11
7.700669182878222
 21
-31.12384162487475
 31
0.0
  0
LINE
  5
119
330
1F
100
AcDbEntity
  8
0
100
AcDbLine
 10
7.312440621775271
 20
-30.45141001281142
 30
0.0
 11
7.550818553131533
 21
-30.76207018886872
 31
0.0
  0
LINE
  5
11A
330
1F
100
AcDbEntity
  8
0
100
AcDbLine
 10
1.550818553131536
 20
-30.76207018886872
 30
0.0
 11
1.700669182878225
 21
-31.12384162487475
 31
0.0
  0
LINE
  5
11B
330
1F
100
AcDbEntity
  8
0
100
AcDbLine
 10
1.751780438141656
 20
-31.51207017273744
 30
0.0
 11
1.751780438141656
 21
-85.01207017273754
 31
0.0
  0
LINE
  5
11C
330
1F
100
AcDbEntity
  8
0
100
AcDbLine
 10
1.700669182878225
 20
-31.12384162487475
 30
0.0
 11
1.751780438141656
 21
-31.51207017273744
 31
0.0
  0
LINE
  5
11D
330
1F
100
AcDbEntity
  8
0
100
AcDbLine
 10
-0.4982195554059549
 20
49.78696793666424
 30
0.0
 11
-0.1364481205162435
 21
49.93681856910657
 31
0.0
  0
LINE
  5
11E
330
1F
100
AcDbEntity
  8
0
100
AcDbLine
 10
-0.8088797296869044
 20
49.5485900029936
 30
0.0
 11
-0.4982195554059549
 21
49.78696793666424
 31
0.0
  0
LINE
  5
11F
330
1F
100
AcDbEntity
  8
0
100
AcDbLine
 10
-1.047257665672362
 20
49.23792983048847
 30
0.0
 11
-0.8088797296869044
 21
49.5485900029936
 31
0.0
  0
LINE
  5
120
330
1F
100
AcDbEntity
  8
0
100
AcDbLine
 10
-1.197108300809862
 20
48.87615839671531
 30
0.0
 11
-1.047257665672362
 21
49.23792983048847
 31
0.0
  0
LINE
  5
121
330
1F
100
AcDbEntity
  8
0
100
AcDbLine
 10
-1.248219561858347
 20
48.48792982726242
 30
0.0
 11
-1.197108300809862
 21
48.87615839671531
 31
0.0
  0
LINE
  5
122
330
1F
100
AcDbEntity
  8
0
100
AcDbLine
 10
7.001780438141649
 20
-6.31110827841409
 30
0.0
 11
7.312440609921475
 21
-6.072730344517489
 31
0.0
  0
LINE
  5
123
330
1F
100
AcDbEntity
  8
0
100
AcDbLine
 10
4.751780438141653
 20
-85.01207017273754
 30
0.0
 11
4.751780438141653
 21
-31.51207017273744
 31
0.0
  0
LINE
  5
124
330
1F
100
AcDbEntity
  8
0
100
AcDbLine
 10
4.751780438141653
 20
-85.01207017273754
 30
0.0
 11
4.802891698708048
 21
-85.40029874039143
 31
0.0
  0
LINE
  5
125
330
1F
100
AcDbEntity
  8
0
100
AcDbLine
 10
35.50178043814166
 20
-86.31110827841431
 30
0.0
 11
35.86355187048787
 21
-86.46095891217124
 31
0.0
  0
LINE
  5
126
330
1F
100
AcDbEntity
  8
0
100
AcDbLine
 10
274.5017804510464
 20
49.7869679254887
 30
0.0
 11
274.8124406217753
 21
49.54858998718844
 31
0.0
  0
LINE
  5
127
330
1F
100
AcDbEntity
  8
0
100
AcDbLine
 10
274.5017804381417
 20
-86.31110827841431
 30
0.0
 11
274.8124406099215
 21
-86.07273034451734
 31
0.0
  0
LINE
  5
128
330
1F
100
AcDbEntity
  8
0
100
AcDbLine
 10
274.1400090057954
 20
-86.46095891217124
 30
0.0
 11
274.5017804381417
 21
-86.31110827841431
 31
0.0
  0
LINE
  5
129
330
1F
100
AcDbEntity
  8
0
100
AcDbLine
 10
273.7517804381416
 20
-86.51207017273757
 30
0.0
 11
274.1400090057954
 21
-86.46095891217124
 31
0.0
  0
LINE
  5
12A
330
1F
100
AcDbEntity
  8
0
100
AcDbLine
 10
272.4527423343276
 20
49.23792983048883
 30
0.0
 11
272.6911202703131
 21
49.5485900029936
 31
0.0
  0
LINE
  5
12B
330
1F
100
AcDbEntity
  8
0
100
AcDbLine
 10
267.7517804381417
 20
-6.512070172737708
 30
0.0
 11
268.1400090057955
 21
-6.460958912171019
 31
0.0
  0
LINE
  5
12C
330
1F
100
AcDbEntity
  8
0
100
AcDbLine
 10
266.302891698708
 20
-5.400298740391218
 30
0.0
 11
266.452742332465
 21
-5.762070172737517
 31
0.0
  0
LINE
  5
12D
330
1F
100
AcDbEntity
  8
0
100
AcDbLine
 10
263.2006691775753
 20
-5.400298740391218
 30
0.0
 11
263.2517804381416
 21
-5.012070172737688
 31
0.0
  0
LINE
  5
12E
330
1F
100
AcDbEntity
  8
0
100
AcDbLine
 10
260.4527423343277
 20
49.23792983048883
 30
0.0
 11
260.6911202703131
 21
49.5485900029936
 31
0.0
  0
LINE
  5
12F
330
1F
100
AcDbEntity
  8
0
100
AcDbLine
 10
255.3635518794838
 20
49.93681856910657
 30
0.0
 11
255.7517804493176
 21
49.98792982726243
 31
0.0
  0
LINE
  5
130
330
1F
100
AcDbEntity
  8
0
100
AcDbLine
 10
255.7517804493176
 20
49.98792982726243
 30
0.0
 11
256.1400090183897
 21
49.93681856332154
 31
0.0
  0
LINE
  5
131
330
1F
100
AcDbEntity
  8
0
100
AcDbLine
 10
256.8124406217753
 20
49.54858998718844
 30
0.0
 11
257.0508185531315
 21
49.23792981113149
 31
0.0
  0
LINE
  5
132
330
1F
100
AcDbEntity
  8
0
100
AcDbLine
 10
257.0508185531315
 20
49.23792981113149
 30
0.0
 11
257.2006691828782
 21
48.87615837512547
 31
0.0
  0
LINE
  5
133
330
1F
100
AcDbEntity
  8
0
100
AcDbLine
 10
257.2006691828782
 20
48.87615837512547
 30
0.0
 11
257.2517804381417
 21
48.48792982726242
 31
0.0
  0
LINE
  5
134
330
1F
100
AcDbEntity
  8
0
100
AcDbLine
 10
257.2006691775753
 20
-5.400298740391218
 30
0.0
 11
257.2517804381417
 21
-5.012070172737688
 31
0.0
  0
LINE
  5
135
330
1F
100
AcDbEntity
  8
0
100
AcDbLine
 10
272.6911202663618
 20
-86.07273034451734
 30
0.0
 11
273.0017804381417
 21
-86.31110827841431
 31
0.0
  0
LINE
  5
136
330
1F
100
AcDbEntity
  8
0
100
AcDbLine
 10
272.452742332465
 20
-85.76207017273774
 30
0.0
 11
272.6911202663618
 21
-86.07273034451734
 31
0.0
  0
LINE
  5
137
330
1F
100
AcDbEntity
  8
0
100
AcDbLine
 10
263.2006691828782
 20
48.87615837512547
 30
0.0
 11
263.2517804381416
 21
48.48792982726242
 31
0.0
  0
LINE
  5
138
330
1F
100
AcDbEntity
  8
0
100
AcDbLine
 10
262.8124406099215
 20
-6.072730344517489
 30
0.0
 11
263.0508185438183
 21
-5.762070172737517
 31
0.0
  0
LINE
  5
139
330
1F
100
AcDbEntity
  8
0
100
AcDbLine
 10
262.1400090183897
 20
49.93681856332154
 30
0.0
 11
262.5017804510464
 21
49.7869679254887
 31
0.0
  0
LINE
  5
13A
330
1F
100
AcDbEntity
  8
0
100
AcDbLine
 10
260.3028916991901
 20
48.87615839671531
 30
0.0
 11
260.4527423343277
 21
49.23792983048883
 31
0.0
  0
LINE
  5
13B
330
1F
100
AcDbEntity
  8
0
100
AcDbLine
 10
260.2517804381417
 20
-5.012070172737688
 30
0.0
 11
260.3028916987081
 21
-5.400298740391218
 31
0.0
  0
LINE
  5
13C
330
1F
100
AcDbEntity
  8
0
100
AcDbLine
 10
263.0508185438183
 20
-5.762070172737517
 30
0.0
 11
263.2006691775753
 21
-5.400298740391218
 31
0.0
  0
LINE
  5
13D
330
1F
100
AcDbEntity
  8
0
100
AcDbLine
 10
273.3635518794838
 20
49.93681856910657
 30
0.0
 11
273.7517804493175
 21
49.98792982726243
 31
0.0
  0
LINE
  5
13E
330
1F
100
AcDbEntity
  8
0
100
AcDbLine
 10
273.7517804493175
 20
49.98792982726243
 30
0.0
 11
274.1400090183897
 21
49.93681856332154
 31
0.0
  0
LINE
  5
13F
330
1F
100
AcDbEntity
  8
0
100
AcDbLine
 10
273.3635518794838
 20
-30.06318143089364
 30
0.0
 11
273.7517804493175
 21
-30.01207017273742
 31
0.0
  0
LINE
  5
140
330
1F
100
AcDbEntity
  8
0
100
AcDbLine
 10
273.7517804493175
 20
-30.01207017273742
 30
0.0
 11
274.1400090183897
 21
-30.06318143667868
 31
0.0
  0
LINE
  5
141
330
1F
100
AcDbEntity
  8
0
100
AcDbLine
 10
274.1400090183897
 20
-30.06318143667868
 30
0.0
 11
274.5017804510464
 21
-30.21303207451152
 31
0.0
  0
LINE
  5
142
330
1F
100
AcDbEntity
  8
0
100
AcDbLine
 10
272.2517804381417
 20
48.48792982726242
 30
0.0
 11
272.3028916991901
 21
48.87615839671531
 31
0.0
  0
LINE
  5
143
330
1F
100
AcDbEntity
  8
0
100
AcDbLine
 10
275.2517804381417
 20
48.48792982726242
 30
0.0
 11
275.2517804381417
 21
-5.012070172737688
 31
0.0
  0
LINE
  5
144
330
1F
100
AcDbEntity
  8
0
100
AcDbLine
 10
275.0508185438183
 20
-5.762070172737517
 30
0.0
 11
275.2006691775753
 21
-5.400298740391218
 31
0.0
  0
LINE
  5
145
330
1F
100
AcDbEntity
  8
0
100
AcDbLine
 10
274.8124406099215
 20
-6.072730344517489
 30
0.0
 11
275.0508185438183
 21
-5.762070172737517
 31
0.0
  0
LINE
  5
146
330
1F
100
AcDbEntity
  8
0
100
AcDbLine
 10
274.5017804381417
 20
-6.31110827841409
 30
0.0
 11
274.8124406099215
 21
-6.072730344517489
 31
0.0
  0
LINE
  5
147
330
1F
100
AcDbEntity
  8
0
100
AcDbLine
 10
274.1400090057954
 20
-6.460958912171019
 30
0.0
 11
274.5017804381417
 21
-6.31110827841409
 31
0.0
  0
LINE
  5
148
330
1F
100
AcDbEntity
  8
0
100
AcDbLine
 10
273.7517804381416
 20
-6.512070172737708
 30
0.0
 11
274.1400090057954
 21
-6.460958912171019
 31
0.0
  0
LINE
  5
149
330
1F
100
AcDbEntity
  8
0
100
AcDbLine
 10
273.3635518704879
 20
-6.460958912171019
 30
0.0
 11
273.7517804381416
 21
-6.512070172737708
 31
0.0
  0
LINE
  5
14A
330
1F
100
AcDbEntity
  8
0
100
AcDbLine
 10
273.0017804381416
 20
-6.31110827841409
 30
0.0
 11
273.3635518704879
 21
-6.460958912171019
 31
0.0
  0
LINE
  5
14B
330
1F
100
AcDbEntity
  8
0
100
AcDbLine
 10
272.6911202663618
 20
-6.072730344517489
 30
0.0
 11
273.0017804381416
 21
-6.31110827841409
 31
0.0
  0
LINE
  5
14C
330
1F
100
AcDbEntity
  8
0
100
AcDbLine
 10
272.452742332465
 20
-5.762070172737517
 30
0.0
 11
272.6911202663618
 21
-6.072730344517489
 31
0.0
  0
LINE
  5
14D
330
1F
100
AcDbEntity
  8
0
100
AcDbLine
 10
272.302891698708
 20
-5.400298740391218
 30
0.0
 11
272.452742332465
 21
-5.762070172737517
 31
0.0
  0
LINE
  5
14E
330
1F
100
AcDbEntity
  8
0
100
AcDbLine
 10
272.2517804381417
 20
-5.012070172737688
 30
0.0
 11
272.302891698708
 21
-5.400298740391218
 31
0.0
  0
LINE
  5
14F
330
1F
100
AcDbEntity
  8
0
100
AcDbLine
 10
274.8124406099215
 20
-86.07273034451734
 30
0.0
 11
275.0508185438183
 21
-85.76207017273774
 31
0.0
  0
LINE
  5
150
330
1F
100
AcDbEntity
  8
0
100
AcDbLine
 10
273.0017804381417
 20
-86.31110827841431
 30
0.0
 11
273.3635518704879
 21
-86.46095891217124
 31
0.0
  0
LINE
  5
151
330
1F
100
AcDbEntity
  8
0
100
AcDbLine
 10
274.8124406217753
 20
-30.45141001281142
 30
0.0
 11
275.0508185531316
 21
-30.76207018886836
 31
0.0
  0
LINE
  5
152
330
1F
100
AcDbEntity
  8
0
100
AcDbLine
 10
254.4527423343276
 20
49.23792983048883
 30
0.0
 11
254.6911202703131
 21
49.5485900029936
 31
0.0
  0
LINE
  5
153
330
1F
100
AcDbEntity
  8
0
100
AcDbLine
 10
254.6911202703131
 20
49.5485900029936
 30
0.0
 11
255.0017804445941
 21
49.7869679366646
 31
0.0
  0
LINE
  5
154
330
1F
100
AcDbEntity
  8
0
100
AcDbLine
 10
255.0017804445941
 20
49.7869679366646
 30
0.0
 11
255.3635518794838
 21
49.93681856910657
 31
0.0
  0
LINE
  5
155
330
1F
100
AcDbEntity
  8
0
100
AcDbLine
 10
254.452742332465
 20
-5.762070172737517
 30
0.0
 11
254.6911202663618
 21
-6.072730344517489
 31
0.0
  0
LINE
  5
156
330
1F
100
AcDbEntity
  8
0
100
AcDbLine
 10
254.2517804381417
 20
-5.012070172737688
 30
0.0
 11
254.3028916987081
 21
-5.400298740391218
 31
0.0
  0
LINE
  5
157
330
1F
100
AcDbEntity
  8
0
100
AcDbLine
 10
266.6911202703131
 20
49.5485900029936
 30
0.0
 11
267.001780444594
 21
49.7869679366646
 31
0.0
  0
LINE
  5
158
330
1F
100
AcDbEntity
  8
0
100
AcDbLine
 10
269.2006691828782
 20
48.87615837512547
 30
0.0
 11
269.2517804381417
 21
48.48792982726242
 31
0.0
  0
LINE
  5
159
330
1F
100
AcDbEntity
  8
0
100
AcDbLine
 10
268.5017804510464
 20
49.7869679254887
 30
0.0
 11
268.8124406217753
 21
49.54858998718844
 31
0.0
  0
LINE
  5
15A
330
1F
100
AcDbEntity
  8
0
100
AcDbLine
 10
267.3635518704879
 20
-6.460958912171019
 30
0.0
 11
267.7517804381417
 21
-6.512070172737708
 31
0.0
  0
LINE
  5
15B
330
1F
100
AcDbEntity
  8
0
100
AcDbLine
 10
267.0017804381417
 20
-6.31110827841409
 30
0.0
 11
267.3635518704879
 21
-6.460958912171019
 31
0.0
  0
LINE
  5
15C
330
1F
100
AcDbEntity
  8
0
100
AcDbLine
 10
266.6911202663618
 20
-6.072730344517489
 30
0.0
 11
267.0017804381417
 21
-6.31110827841409
 31
0.0
  0
LINE
  5
15D
330
1F
100
AcDbEntity
  8
0
100
AcDbLine
 10
266.452742332465
 20
-5.762070172737517
 30
0.0
 11
266.6911202663618
 21
-6.072730344517489
 31
0.0
  0
LINE
  5
15E
330
1F
100
AcDbEntity
  8
0
100
AcDbLine
 10
266.2517804381416
 20
48.48792982726242
 30
0.0
 11
266.3028916991902
 21
48.87615839671531
 31
0.0
  0
LINE
  5
15F
330
1F
100
AcDbEntity
  8
0
100
AcDbLine
 10
269.2006691775753
 20
-5.400298740391218
 30
0.0
 11
269.2517804381417
 21
-5.012070172737688
 31
0.0
  0
LINE
  5
160
330
1F
100
AcDbEntity
  8
0
100
AcDbLine
 10
275.2006691775753
 20
-85.40029874039143
 30
0.0
 11
275.2517804381417
 21
-85.01207017273754
 31
0.0
  0
LINE
  5
161
330
1F
100
AcDbEntity
  8
0
100
AcDbLine
 10
268.1400090183897
 20
49.93681856332154
 30
0.0
 11
268.5017804510464
 21
49.7869679254887
 31
0.0
  0
LINE
  5
162
330
1F
100
AcDbEntity
  8
0
100
AcDbLine
 10
266.3028916991902
 20
48.87615839671531
 30
0.0
 11
266.4527423343276
 21
49.23792983048883
 31
0.0
  0
LINE
  5
163
330
1F
100
AcDbEntity
  8
0
100
AcDbLine
 10
266.2517804381416
 20
-5.012070172737688
 30
0.0
 11
266.302891698708
 21
-5.400298740391218
 31
0.0
  0
LINE
  5
164
330
1F
100
AcDbEntity
  8
0
100
AcDbLine
 10
268.8124406099215
 20
-6.072730344517489
 30
0.0
 11
269.0508185438183
 21
-5.762070172737517
 31
0.0
  0
LINE
  5
165
330
1F
100
AcDbEntity
  8
0
100
AcDbLine
 10
268.8124406217753
 20
49.54858998718844
 30
0.0
 11
269.0508185531315
 21
49.23792981113149
 31
0.0
  0
LINE
  5
166
330
1F
100
AcDbEntity
  8
0
100
AcDbLine
 10
269.0508185531315
 20
49.23792981113149
 30
0.0
 11
269.2006691828782
 21
48.87615837512547
 31
0.0
  0
LINE
  5
167
330
1F
100
AcDbEntity
  8
0
100
AcDbLine
 10
273.3635518704879
 20
-86.46095891217124
 30
0.0
 11
273.7517804381416
 21
-86.51207017273757
 31
0.0
  0
LINE
  5
168
330
1F
100
AcDbEntity
  8
0
100
AcDbLine
 10
272.2517804381417
 20
-85.01207017273754
 30
0.0
 11
272.302891698708
 21
-85.40029874039143
 31
0.0
  0
LINE
  5
169
330
1F
100
AcDbEntity
  8
0
100
AcDbLine
 10
263.2517804381416
 20
48.48792982726242
 30
0.0
 11
263.2517804381416
 21
-5.012070172737688
 31
0.0
  0
LINE
  5
16A
330
1F
100
AcDbEntity
  8
0
100
AcDbLine
 10
260.2517804381417
 20
48.48792982726242
 30
0.0
 11
260.3028916991901
 21
48.87615839671531
 31
0.0
  0
LINE
  5
16B
330
1F
100
AcDbEntity
  8
0
100
AcDbLine
 10
261.7517804493176
 20
49.98792982726243
 30
0.0
 11
262.1400090183897
 21
49.93681856332154
 31
0.0
  0
LINE
  5
16C
330
1F
100
AcDbEntity
  8
0
100
AcDbLine
 10
262.5017804510464
 20
49.7869679254887
 30
0.0
 11
262.8124406217752
 21
49.54858998718844
 31
0.0
  0
LINE
  5
16D
330
1F
100
AcDbEntity
  8
0
100
AcDbLine
 10
262.8124406217752
 20
49.54858998718844
 30
0.0
 11
263.0508185531315
 21
49.23792981113149
 31
0.0
  0
LINE
  5
16E
330
1F
100
AcDbEntity
  8
0
100
AcDbLine
 10
263.0508185531315
 20
49.23792981113149
 30
0.0
 11
263.2006691828782
 21
48.87615837512547
 31
0.0
  0
LINE
  5
16F
330
1F
100
AcDbEntity
  8
0
100
AcDbLine
 10
260.6911202663618
 20
-6.072730344517489
 30
0.0
 11
261.0017804381417
 21
-6.31110827841409
 31
0.0
  0
LINE
  5
170
330
1F
100
AcDbEntity
  8
0
100
AcDbLine
 10
256.1400090183897
 20
49.93681856332154
 30
0.0
 11
256.5017804510464
 21
49.7869679254887
 31
0.0
  0
LINE
  5
171
330
1F
100
AcDbEntity
  8
0
100
AcDbLine
 10
255.7517804381417
 20
-6.512070172737708
 30
0.0
 11
256.1400090057954
 21
-6.460958912171019
 31
0.0
  0
LINE
  5
172
330
1F
100
AcDbEntity
  8
0
100
AcDbLine
 10
254.3028916987081
 20
-5.400298740391218
 30
0.0
 11
254.452742332465
 21
-5.762070172737517
 31
0.0
  0
LINE
  5
173
330
1F
100
AcDbEntity
  8
0
100
AcDbLine
 10
257.0508185438183
 20
-5.762070172737517
 30
0.0
 11
257.2006691775753
 21
-5.400298740391218
 31
0.0
  0
LINE
  5
174
330
1F
100
AcDbEntity
  8
0
100
AcDbLine
 10
257.2517804381417
 20
48.48792982726242
 30
0.0
 11
257.2517804381417
 21
-5.012070172737688
 31
0.0
  0
LINE
  5
175
330
1F
100
AcDbEntity
  8
0
100
AcDbLine
 10
254.2517804381417
 20
-5.012070172737688
 30
0.0
 11
254.2517804381417
 21
48.48792982726242
 31
0.0
  0
LINE
  5
176
330
1F
100
AcDbEntity
  8
0
100
AcDbLine
 10
254.2517804381417
 20
48.48792982726242
 30
0.0
 11
254.3028916991901
 21
48.87615839671531
 31
0.0
  0
LINE
  5
177
330
1F
100
AcDbEntity
  8
0
100
AcDbLine
 10
255.3635518704879
 20
-6.460958912171019
 30
0.0
 11
255.7517804381417
 21
-6.512070172737708
 31
0.0
  0
LINE
  5
178
330
1F
100
AcDbEntity
  8
0
100
AcDbLine
 10
255.0017804381417
 20
-6.31110827841409
 30
0.0
 11
255.3635518704879
 21
-6.460958912171019
 31
0.0
  0
LINE
  5
179
330
1F
100
AcDbEntity
  8
0
100
AcDbLine
 10
254.6911202663618
 20
-6.072730344517489
 30
0.0
 11
255.0017804381417
 21
-6.31110827841409
 31
0.0
  0
LINE
  5
17A
330
1F
100
AcDbEntity
  8
0
100
AcDbLine
 10
266.4527423343276
 20
49.23792983048883
 30
0.0
 11
266.6911202703131
 21
49.5485900029936
 31
0.0
  0
LINE
  5
17B
330
1F
100
AcDbEntity
  8
0
100
AcDbLine
 10
269.0508185438183
 20
-5.762070172737517
 30
0.0
 11
269.2006691775753
 21
-5.400298740391218
 31
0.0
  0
LINE
  5
17C
330
1F
100
AcDbEntity
  8
0
100
AcDbLine
 10
269.2517804381417
 20
48.48792982726242
 30
0.0
 11
269.2517804381417
 21
-5.012070172737688
 31
0.0
  0
LINE
  5
17D
330
1F
100
AcDbEntity
  8
0
100
AcDbLine
 10
266.2517804381416
 20
-5.012070172737688
 30
0.0
 11
266.2517804381416
 21
48.48792982726242
 31
0.0
  0
LINE
  5
17E
330
1F
100
AcDbEntity
  8
0
100
AcDbLine
 10
272.4527423343276
 20
-30.76207016951139
 30
0.0
 11
272.6911202703131
 21
-30.45140999700661
 31
0.0
  0
LINE
  5
17F
330
1F
100
AcDbEntity
  8
0
100
AcDbLine
 10
273.001780444594
 20
-30.21303206333561
 30
0.0
 11
273.3635518794838
 21
-30.06318143089364
 31
0.0
  0
LINE
  5
180
330
1F
100
AcDbEntity
  8
0
100
AcDbLine
 10
272.2517804381417
 20
-85.01207017273754
 30
0.0
 11
272.2517804381417
 21
-31.51207017273744
 31
0.0
  0
LINE
  5
181
330
1F
100
AcDbEntity
  8
0
100
AcDbLine
 10
272.2517804381417
 20
-31.51207017273744
 30
0.0
 11
272.3028916991901
 21
-31.12384160328454
 31
0.0
  0
LINE
  5
182
330
1F
100
AcDbEntity
  8
0
100
AcDbLine
 10
272.3028916991901
 20
-31.12384160328454
 30
0.0
 11
272.4527423343276
 21
-30.76207016951139
 31
0.0
  0
LINE
  5
183
330
1F
100
AcDbEntity
  8
0
100
AcDbLine
 10
125.2489654688897
 20
80.38909934717144
 30
0.0
 11
125.3017804381417
 21
79.98792982726248
 31
0.0
  0
LINE
  5
184
330
1F
100
AcDbEntity
  8
0
100
AcDbLine
 10
125.3017804381417
 20
79.98792982726248
 30
0.0
 11
125.2489654688897
 21
79.5867603073535
 31
0.0
  0
LINE
  5
185
330
1F
100
AcDbEntity
  8
0
100
AcDbLine
 10
125.2489654688897
 20
79.5867603073535
 30
0.0
 11
125.0941198140075
 21
79.21292982726264
 31
0.0
  0
LINE
  5
186
330
1F
100
AcDbEntity
  8
0
100
AcDbLine
 10
9.801780438141645
 20
91.6619438940392
 30
0.0
 11
9.801780438141645
 21
72.46194389403924
 31
0.0
  0
LINE
  5
187
330
1F
100
AcDbEntity
  8
0
100
AcDbLine
 10
22.70178043814164
 20
72.46194389403924
 30
0.0
 11
22.70178043814164
 21
91.6619438940392
 31
0.0
  0
LINE
  5
188
330
1F
100
AcDbEntity
  8
0
100
AcDbLine
 10
9.801780438141645
 20
72.46194389403924
 30
0.0
 11
22.70178043814164
 21
72.46194389403924
 31
0.0
  0
LINE
  5
189
330
1F
100
AcDbEntity
  8
0
100
AcDbLine
 10
22.70178043814164
 20
91.6619438940392
 30
0.0
 11
9.801780438141645
 21
91.6619438940392
 31
0.0
  0
LINE
  5
18A
330
1F
100
AcDbEntity
  8
0
100
AcDbLine
 10
300.2517804381413
 20
-152.0120701727375
 30
0.0
 11
-9.748219561858349
 21
-152.0120701727375
 31
0.0
  0
LINE
  5
18B
330
1F
100
AcDbEntity
  8
0
100
AcDbLine
 10
300.2517804381413
 20
115.9879298272626
 30
0.0
 11
300.2517804381413
 21
-152.0120701727375
 31
0.0
  0
LINE
  5
18C
330
1F
100
AcDbEntity
  8
0
100
AcDbLine
 10
-1.248219561858347
 20
-5.012070172737688
 30
0.0
 11
-1.248219561858347
 21
48.48792982726242
 31
0.0
  0
LINE
  5
18D
330
1F
100
AcDbEntity
  8
0
100
AcDbLine
 10
-0.1364481205162435
 20
49.93681856910657
 30
0.0
 11
0.2517804493175214
 21
49.98792982726243
 31
0.0
  0
LINE
  5
18E
330
1F
100
AcDbEntity
  8
0
100
AcDbLine
 10
0.2517804493175214
 20
49.98792982726243
 30
0.0
 11
0.6400090183896697
 21
49.93681856332154
 31
0.0
  0
LINE
  5
18F
330
1F
100
AcDbEntity
  8
0
100
AcDbLine
 10
0.6400090183896697
 20
49.93681856332154
 30
0.0
 11
1.001780451046436
 21
49.78696792548833
 31
0.0
  0
LINE
  5
190
330
1F
100
AcDbEntity
  8
0
100
AcDbLine
 10
1.001780451046436
 20
49.78696792548833
 30
0.0
 11
1.312440621775271
 21
49.54858998718844
 31
0.0
  0
LINE
  5
191
330
1F
100
AcDbEntity
  8
0
100
AcDbLine
 10
1.312440621775271
 20
49.54858998718844
 30
0.0
 11
1.550818553131533
 21
49.23792981113149
 31
0.0
  0
LINE
  5
192
330
1F
100
AcDbEntity
  8
0
100
AcDbLine
 10
1.550818553131533
 20
49.23792981113149
 30
0.0
 11
1.700669182878222
 21
48.87615837512511
 31
0.0
  0
LINE
  5
193
330
1F
100
AcDbEntity
  8
0
100
AcDbLine
 10
1.700669182878222
 20
48.87615837512511
 30
0.0
 11
1.751780438141653
 21
48.48792982726242
 31
0.0
  0
LINE
  5
194
330
1F
100
AcDbEntity
  8
0
100
AcDbLine
 10
1.751780438141653
 20
48.48792982726242
 30
0.0
 11
1.751780438141653
 21
-5.012070172737688
 31
0.0
  0
LINE
  5
195
330
1F
100
AcDbEntity
  8
0
100
AcDbLine
 10
1.700669177575253
 20
-5.400298740391218
 30
0.0
 11
1.751780438141653
 21
-5.012070172737688
 31
0.0
  0
LINE
  5
196
330
1F
100
AcDbEntity
  8
0
100
AcDbLine
 10
1.550818543818306
 20
-5.762070172737517
 30
0.0
 11
1.700669177575253
 21
-5.400298740391218
 31
0.0
  0
LINE
  5
197
330
1F
100
AcDbEntity
  8
0
100
AcDbLine
 10
1.312440609921474
 20
-6.072730344517489
 30
0.0
 11
1.550818543818306
 21
-5.762070172737517
 31
0.0
  0
LINE
  5
198
330
1F
100
AcDbEntity
  8
0
100
AcDbLine
 10
1.001780438141649
 20
-6.31110827841409
 30
0.0
 11
1.312440609921474
 21
-6.072730344517489
 31
0.0
  0
LINE
  5
199
330
1F
100
AcDbEntity
  8
0
100
AcDbLine
 10
0.6400090057954287
 20
-6.460958912171381
 30
0.0
 11
1.001780438141649
 21
-6.31110827841409
 31
0.0
  0
LINE
  5
19A
330
1F
100
AcDbEntity
  8
0
100
AcDbLine
 10
0.2517804381416502
 20
-6.512070172737708
 30
0.0
 11
0.6400090057954287
 21
-6.460958912171381
 31
0.0
  0
LINE
  5
19B
330
1F
100
AcDbEntity
  8
0
100
AcDbLine
 10
-0.1364481295121339
 20
-6.460958912171381
 30
0.0
 11
0.2517804381416502
 21
-6.512070172737708
 31
0.0
  0
LINE
  5
19C
330
1F
100
AcDbEntity
  8
0
100
AcDbLine
 10
-0.4982195618583484
 20
-6.31110827841409
 30
0.0
 11
-0.1364481295121339
 21
-6.460958912171381
 31
0.0
  0
LINE
  5
19D
330
1F
100
AcDbEntity
  8
0
100
AcDbLine
 10
-0.8088797336381737
 20
-6.072730344517489
 30
0.0
 11
-0.4982195618583484
 21
-6.31110827841409
 31
0.0
  0
LINE
  5
19E
330
1F
100
AcDbEntity
  8
0
100
AcDbLine
 10
-1.047257667535006
 20
-5.762070172737517
 30
0.0
 11
-0.8088797336381737
 21
-6.072730344517489
 31
0.0
  0
LINE
  5
19F
330
1F
100
AcDbEntity
  8
0
100
AcDbLine
 10
-1.197108301291952
 20
-5.400298740391218
 30
0.0
 11
-1.047257667535006
 21
-5.762070172737517
 31
0.0
  0
LINE
  5
1A0
330
1F
100
AcDbEntity
  8
0
100
AcDbLine
 10
-1.248219561858347
 20
-5.012070172737688
 30
0.0
 11
-1.197108301291952
 21
-5.400298740391218
 31
0.0
  0
LINE
  5
1A1
330
1F
100
AcDbEntity
  8
0
100
AcDbLine
 10
-1.197108300809859
 20
-31.12384160328454
 30
0.0
 11
-1.047257665672359
 21
-30.76207016951139
 31
0.0
  0
LINE
  5
1A2
330
1F
100
AcDbEntity
  8
0
100
AcDbLine
 10
-1.047257665672359
 20
-30.76207016951139
 30
0.0
 11
-0.8088797296869016
 21
-30.45140999700661
 31
0.0
  0
LINE
  5
1A3
330
1F
100
AcDbEntity
  8
0
100
AcDbLine
 10
-0.8088797296869016
 20
-30.45140999700661
 30
0.0
 11
-0.4982195554059521
 21
-30.21303206333561
 31
0.0
  0
LINE
  5
1A4
330
1F
100
AcDbEntity
  8
0
100
AcDbLine
 10
-0.4982195554059521
 20
-30.21303206333561
 30
0.0
 11
-0.1364481205162406
 21
-30.06318143089364
 31
0.0
  0
LINE
  5
1A5
330
1F
100
AcDbEntity
  8
0
100
AcDbLine
 10
-0.1364481205162406
 20
-30.06318143089364
 30
0.0
 11
0.2517804493175242
 21
-30.01207017273778
 31
0.0
  0
LINE
  5
1A6
330
1F
100
AcDbEntity
  8
0
100
AcDbLine
 10
0.2517804493175242
 20
-30.01207017273778
 30
0.0
 11
0.6400090183896726
 21
-30.06318143667868
 31
0.0
  0
LINE
  5
1A7
330
1F
100
AcDbEntity
  8
0
100
AcDbLine
 10
0.6400090183896726
 20
-30.06318143667868
 30
0.0
 11
1.001780451046439
 21
-30.21303207451152
 31
0.0
  0
LINE
  5
1A8
330
1F
100
AcDbEntity
  8
0
100
AcDbLine
 10
1.001780451046439
 20
-30.21303207451152
 30
0.0
 11
1.312440621775274
 21
-30.45141001281142
 31
0.0
  0
LINE
  5
1A9
330
1F
100
AcDbEntity
  8
0
100
AcDbLine
 10
1.312440621775274
 20
-30.45141001281142
 30
0.0
 11
1.550818553131536
 21
-30.76207018886872
 31
0.0
  0
LINE
  5
1AA
330
1F
100
AcDbEntity
  8
0
100
AcDbLine
 10
1.700669177575255
 20
-85.40029874039143
 30
0.0
 11
1.751780438141656
 21
-85.01207017273754
 31
0.0
  0
LINE
  5
1AB
330
1F
100
AcDbEntity
  8
0
100
AcDbLine
 10
1.001780438141652
 20
-86.31110827841431
 30
0.0
 11
1.312440609921477
 21
-86.07273034451734
 31
0.0
  0
LINE
  5
1AC
330
1F
100
AcDbEntity
  8
0
100
AcDbLine
 10
0.6400090057954315
 20
-86.46095891217124
 30
0.0
 11
1.001780438141652
 21
-86.31110827841431
 31
0.0
  0
LINE
  5
1AD
330
1F
100
AcDbEntity
  8
0
100
AcDbLine
 10
0.251780438141653
 20
-86.51207017273757
 30
0.0
 11
0.6400090057954315
 21
-86.46095891217124
 31
0.0
  0
LINE
  5
1AE
330
1F
100
AcDbEntity
  8
0
100
AcDbLine
 10
-0.1364481295121311
 20
-86.46095891217124
 30
0.0
 11
0.251780438141653
 21
-86.51207017273757
 31
0.0
  0
LINE
  5
1AF
330
1F
100
AcDbEntity
  8
0
100
AcDbLine
 10
-0.4982195618583456
 20
-86.31110827841431
 30
0.0
 11
-0.1364481295121311
 21
-86.46095891217124
 31
0.0
  0
LINE
  5
1B0
330
1F
100
AcDbEntity
  8
0
100
AcDbLine
 10
-0.8088797336381709
 20
-86.07273034451734
 30
0.0
 11
-0.4982195618583456
 21
-86.31110827841431
 31
0.0
  0
LINE
  5
1B1
330
1F
100
AcDbEntity
  8
0
100
AcDbLine
 10
-1.047257667535003
 20
-85.76207017273774
 30
0.0
 11
-0.8088797336381709
 21
-86.07273034451734
 31
0.0
  0
LINE
  5
1B2
330
1F
100
AcDbEntity
  8
0
100
AcDbLine
 10
-1.197108301291949
 20
-85.40029874039143
 30
0.0
 11
-1.047257667535003
 21
-85.76207017273774
 31
0.0
  0
LINE
  5
1B3
330
1F
100
AcDbEntity
  8
0
100
AcDbLine
 10
31.55081854381831
 20
-85.76207017273774
 30
0.0
 11
31.70066917757526
 21
-85.40029874039143
 31
0.0
  0
LINE
  5
1B4
330
1F
100
AcDbEntity
  8
0
100
AcDbLine
 10
29.86355187048787
 20
-86.46095891217124
 30
0.0
 11
30.25178043814166
 21
-86.51207017273757
 31
0.0
  0
LINE
  5
1B5
330
1F
100
AcDbEntity
  8
0
100
AcDbLine
 10
29.50178043814166
 20
-86.31110827841431
 30
0.0
 11
29.86355187048787
 21
-86.46095891217124
 31
0.0
  0
LINE
  5
1B6
330
1F
100
AcDbEntity
  8
0
100
AcDbLine
 10
29.19112026636183
 20
-86.07273034451734
 30
0.0
 11
29.50178043814166
 21
-86.31110827841431
 31
0.0
  0
LINE
  5
1B7
330
1F
100
AcDbEntity
  8
0
100
AcDbLine
 10
4.751780438141653
 20
-5.012070172737688
 30
0.0
 11
4.751780438141653
 21
48.48792982726242
 31
0.0
  0
LINE
  5
1B8
330
1F
100
AcDbEntity
  8
0
100
AcDbLine
 10
4.751780438141653
 20
48.48792982726242
 30
0.0
 11
4.802891699190138
 21
48.87615839671531
 31
0.0
  0
LINE
  5
1B9
330
1F
100
AcDbEntity
  8
0
100
AcDbLine
 10
4.802891699190138
 20
48.87615839671531
 30
0.0
 11
4.952742334327639
 21
49.23792983048847
 31
0.0
  0
LINE
  5
1BA
330
1F
100
AcDbEntity
  8
0
100
AcDbLine
 10
4.952742334327639
 20
49.23792983048847
 30
0.0
 11
5.191120270313096
 21
49.5485900029936
 31
0.0
  0
LINE
  5
1BB
330
1F
100
AcDbEntity
  8
0
100
AcDbLine
 10
5.191120270313096
 20
49.5485900029936
 30
0.0
 11
5.501780444594045
 21
49.78696793666424
 31
0.0
  0
LINE
  5
1BC
330
1F
100
AcDbEntity
  8
0
100
AcDbLine
 10
5.501780444594045
 20
49.78696793666424
 30
0.0
 11
5.863551879483757
 21
49.93681856910657
 31
0.0
  0
LINE
  5
1BD
330
1F
100
AcDbEntity
  8
0
100
AcDbLine
 10
5.863551879483757
 20
49.93681856910657
 30
0.0
 11
6.251780449317522
 21
49.98792982726243
 31
0.0
  0
LINE
  5
1BE
330
1F
100
AcDbEntity
  8
0
100
AcDbLine
 10
6.251780449317522
 20
49.98792982726243
 30
0.0
 11
6.64000901838967
 21
49.93681856332154
 31
0.0
  0
LINE
  5
1BF
330
1F
100
AcDbEntity
  8
0
100
AcDbLine
 10
6.64000901838967
 20
49.93681856332154
 30
0.0
 11
7.001780451046436
 21
49.78696792548833
 31
0.0
  0
LINE
  5
1C0
330
1F
100
AcDbEntity
  8
0
100
AcDbLine
 10
7.001780451046436
 20
49.78696792548833
 30
0.0
 11
7.312440621775271
 21
49.54858998718844
 31
0.0
  0
LINE
  5
1C1
330
1F
100
AcDbEntity
  8
0
100
AcDbLine
 10
7.312440621775271
 20
49.54858998718844
 30
0.0
 11
7.550818553131533
 21
49.23792981113149
 31
0.0
  0
LINE
  5
1C2
330
1F
100
AcDbEntity
  8
0
100
AcDbLine
 10
7.550818553131533
 20
49.23792981113149
 30
0.0
 11
7.700669182878222
 21
48.87615837512511
 31
0.0
  0
LINE
  5
1C3
330
1F
100
AcDbEntity
  8
0
100
AcDbLine
 10
7.700669182878222
 20
48.87615837512511
 30
0.0
 11
7.751780438141654
 21
48.48792982726242
 31
0.0
  0
LINE
  5
1C4
330
1F
100
AcDbEntity
  8
0
100
AcDbLine
 10
7.751780438141654
 20
48.48792982726242
 30
0.0
 11
7.751780438141654
 21
-5.012070172737688
 31
0.0
  0
LINE
  5
1C5
330
1F
100
AcDbEntity
  8
0
100
AcDbLine
 10
7.700669177575253
 20
-5.400298740391218
 30
0.0
 11
7.751780438141654
 21
-5.012070172737688
 31
0.0
  0
LINE
  5
1C6
330
1F
100
AcDbEntity
  8
0
100
AcDbLine
 10
7.550818543818306
 20
-5.762070172737517
 30
0.0
 11
7.700669177575253
 21
-5.400298740391218
 31
0.0
  0
LINE
  5
1C7
330
1F
100
AcDbEntity
  8
0
100
AcDbLine
 10
7.312440609921475
 20
-6.072730344517489
 30
0.0
 11
7.550818543818306
 21
-5.762070172737517
 31
0.0
  0
LINE
  5
1C8
330
1F
100
AcDbEntity
  8
0
100
AcDbLine
 10
6.640009005795429
 20
-6.460958912171381
 30
0.0
 11
7.001780438141649
 21
-6.31110827841409
 31
0.0
  0
LINE
  5
1C9
330
1F
100
AcDbEntity
  8
0
100
AcDbLine
 10
6.25178043814165
 20
-6.512070172737708
 30
0.0
 11
6.640009005795429
 21
-6.460958912171381
 31
0.0
  0
LINE
  5
1CA
330
1F
100
AcDbEntity
  8
0
100
AcDbLine
 10
5.863551870487866
 20
-6.460958912171381
 30
0.0
 11
6.25178043814165
 21
-6.512070172737708
 31
0.0
  0
LINE
  5
1CB
330
1F
100
AcDbEntity
  8
0
100
AcDbLine
 10
4.952742332464995
 20
-5.762070172737517
 30
0.0
 11
5.191120266361827
 21
-6.072730344517489
 31
0.0
  0
LINE
  5
1CC
330
1F
100
AcDbEntity
  8
0
100
AcDbLine
 10
4.802891698708048
 20
-5.400298740391218
 30
0.0
 11
4.952742332464995
 21
-5.762070172737517
 31
0.0
  0
LINE
  5
1CD
330
1F
100
AcDbEntity
  8
0
100
AcDbLine
 10
4.751780438141653
 20
-5.012070172737688
 30
0.0
 11
4.802891698708048
 21
-5.400298740391218
 31
0.0
  0
LINE
  5
1CE
330
1F
100
AcDbEntity
  8
0
100
AcDbLine
 10
28.75178043814165
 20
-5.012070172737688
 30
0.0
 11
28.75178043814165
 21
48.48792982726242
 31
0.0
  0
LINE
  5
1CF
330
1F
100
AcDbEntity
  8
0
100
AcDbLine
 10
28.75178043814165
 20
48.48792982726242
 30
0.0
 11
28.80289169919014
 21
48.87615839671531
 31
0.0
  0
LINE
  5
1D0
330
1F
100
AcDbEntity
  8
0
100
AcDbLine
 10
28.80289169919014
 20
48.87615839671531
 30
0.0
 11
28.95274233432764
 21
49.23792983048847
 31
0.0
  0
LINE
  5
1D1
330
1F
100
AcDbEntity
  8
0
100
AcDbLine
 10
28.95274233432764
 20
49.23792983048847
 30
0.0
 11
29.1911202703131
 21
49.5485900029936
 31
0.0
  0
LINE
  5
1D2
330
1F
100
AcDbEntity
  8
0
100
AcDbLine
 10
29.1911202703131
 20
49.5485900029936
 30
0.0
 11
29.50178044459405
 21
49.78696793666424
 31
0.0
  0
LINE
  5
1D3
330
1F
100
AcDbEntity
  8
0
100
AcDbLine
 10
29.50178044459405
 20
49.78696793666424
 30
0.0
 11
29.86355187948376
 21
49.93681856910657
 31
0.0
  0
LINE
  5
1D4
330
1F
100
AcDbEntity
  8
0
100
AcDbLine
 10
30.64000901838967
 20
49.93681856332154
 30
0.0
 11
31.00178045104644
 21
49.78696792548833
 31
0.0
  0
LINE
  5
1D5
330
1F
100
AcDbEntity
  8
0
100
AcDbLine
 10
31.00178045104644
 20
49.78696792548833
 30
0.0
 11
31.31244062177527
 21
49.54858998718844
 31
0.0
  0
LINE
  5
1D6
330
1F
100
AcDbEntity
  8
0
100
AcDbLine
 10
31.31244062177527
 20
49.54858998718844
 30
0.0
 11
31.55081855313153
 21
49.23792981113149
 31
0.0
  0
LINE
  5
1D7
330
1F
100
AcDbEntity
  8
0
100
AcDbLine
 10
31.55081855313153
 20
49.23792981113149
 30
0.0
 11
31.70066918287822
 21
48.87615837512511
 31
0.0
  0
LINE
  5
1D8
330
1F
100
AcDbEntity
  8
0
100
AcDbLine
 10
31.70066918287822
 20
48.87615837512511
 30
0.0
 11
31.75178043814165
 21
48.48792982726242
 31
0.0
  0
LINE
  5
1D9
330
1F
100
AcDbEntity
  8
0
100
AcDbLine
 10
31.75178043814165
 20
48.48792982726242
 30
0.0
 11
31.75178043814165
 21
-5.012070172737688
 31
0.0
  0
LINE
  5
1DA
330
1F
100
AcDbEntity
  8
0
100
AcDbLine
 10
31.70066917757525
 20
-5.400298740391218
 30
0.0
 11
31.75178043814165
 21
-5.012070172737688
 31
0.0
  0
LINE
  5
1DB
330
1F
100
AcDbEntity
  8
0
100
AcDbLine
 10
31.55081854381831
 20
-5.762070172737517
 30
0.0
 11
31.70066917757525
 21
-5.400298740391218
 31
0.0
  0
LINE
  5
1DC
330
1F
100
AcDbEntity
  8
0
100
AcDbLine
 10
31.31244060992147
 20
-6.072730344517489
 30
0.0
 11
31.55081854381831
 21
-5.762070172737517
 31
0.0
  0
LINE
  5
1DD
330
1F
100
AcDbEntity
  8
0
100
AcDbLine
 10
31.00178043814165
 20
-6.31110827841409
 30
0.0
 11
31.31244060992147
 21
-6.072730344517489
 31
0.0
  0
LINE
  5
1DE
330
1F
100
AcDbEntity
  8
0
100
AcDbLine
 10
30.64000900579543
 20
-6.460958912171381
 30
0.0
 11
31.00178043814165
 21
-6.31110827841409
 31
0.0
  0
LINE
  5
1DF
330
1F
100
AcDbEntity
  8
0
100
AcDbLine
 10
30.25178043814165
 20
-6.512070172737708
 30
0.0
 11
30.64000900579543
 21
-6.460958912171381
 31
0.0
  0
LINE
  5
1E0
330
1F
100
AcDbEntity
  8
0
100
AcDbLine
 10
29.86355187048787
 20
-6.460958912171381
 30
0.0
 11
30.25178043814165
 21
-6.512070172737708
 31
0.0
  0
LINE
  5
1E1
330
1F
100
AcDbEntity
  8
0
100
AcDbLine
 10
29.50178043814165
 20
-6.31110827841409
 30
0.0
 11
29.86355187048787
 21
-6.460958912171381
 31
0.0
  0
LINE
  5
1E2
330
1F
100
AcDbEntity
  8
0
100
AcDbLine
 10
29.19112026636183
 20
-6.072730344517489
 30
0.0
 11
29.50178043814165
 21
-6.31110827841409
 31
0.0
  0
LINE
  5
1E3
330
1F
100
AcDbEntity
  8
0
100
AcDbLine
 10
28.952742332465
 20
-5.762070172737517
 30
0.0
 11
29.19112026636183
 21
-6.072730344517489
 31
0.0
  0
LINE
  5
1E4
330
1F
100
AcDbEntity
  8
0
100
AcDbLine
 10
28.80289169870805
 20
-5.400298740391218
 30
0.0
 11
28.952742332465
 21
-5.762070172737517
 31
0.0
  0
LINE
  5
1E5
330
1F
100
AcDbEntity
  8
0
100
AcDbLine
 10
28.75178043814165
 20
-5.012070172737688
 30
0.0
 11
28.80289169870805
 21
-5.400298740391218
 31
0.0
  0
LINE
  5
1E6
330
1F
100
AcDbEntity
  8
0
100
AcDbLine
 10
10.75178043814165
 20
-5.012070172737688
 30
0.0
 11
10.75178043814165
 21
48.48792982726242
 31
0.0
  0
LINE
  5
1E7
330
1F
100
AcDbEntity
  8
0
100
AcDbLine
 10
10.75178043814165
 20
48.48792982726242
 30
0.0
 11
10.80289169919014
 21
48.87615839671531
 31
0.0
  0
LINE
  5
1E8
330
1F
100
AcDbEntity
  8
0
100
AcDbLine
 10
10.95274233432764
 20
49.23792983048847
 30
0.0
 11
11.1911202703131
 21
49.5485900029936
 31
0.0
  0
LINE
  5
1E9
330
1F
100
AcDbEntity
  8
0
100
AcDbLine
 10
11.1911202703131
 20
49.5485900029936
 30
0.0
 11
11.50178044459405
 21
49.78696793666424
 31
0.0
  0
LINE
  5
1EA
330
1F
100
AcDbEntity
  8
0
100
AcDbLine
 10
11.50178044459405
 20
49.78696793666424
 30
0.0
 11
11.86355187948376
 21
49.93681856910657
 31
0.0
  0
LINE
  5
1EB
330
1F
100
AcDbEntity
  8
0
100
AcDbLine
 10
11.86355187948376
 20
49.93681856910657
 30
0.0
 11
12.25178044931752
 21
49.98792982726243
 31
0.0
  0
LINE
  5
1EC
330
1F
100
AcDbEntity
  8
0
100
AcDbLine
 10
12.25178044931752
 20
49.98792982726243
 30
0.0
 11
12.64000901838967
 21
49.93681856332154
 31
0.0
  0
LINE
  5
1ED
330
1F
100
AcDbEntity
  8
0
100
AcDbLine
 10
12.64000901838967
 20
49.93681856332154
 30
0.0
 11
13.00178045104644
 21
49.78696792548833
 31
0.0
  0
LINE
  5
1EE
330
1F
100
AcDbEntity
  8
0
100
AcDbLine
 10
13.00178045104644
 20
49.78696792548833
 30
0.0
 11
13.31244062177527
 21
49.54858998718844
 31
0.0
  0
LINE
  5
1EF
330
1F
100
AcDbEntity
  8
0
100
AcDbLine
 10
13.31244062177527
 20
49.54858998718844
 30
0.0
 11
13.55081855313153
 21
49.23792981113149
 31
0.0
  0
LINE
  5
1F0
330
1F
100
AcDbEntity
  8
0
100
AcDbLine
 10
13.55081855313153
 20
49.23792981113149
 30
0.0
 11
13.70066918287822
 21
48.87615837512511
 31
0.0
  0
LINE
  5
1F1
330
1F
100
AcDbEntity
  8
0
100
AcDbLine
 10
13.70066918287822
 20
48.87615837512511
 30
0.0
 11
13.75178043814165
 21
48.48792982726242
 31
0.0
  0
LINE
  5
1F2
330
1F
100
AcDbEntity
  8
0
100
AcDbLine
 10
13.55081854381831
 20
-5.762070172737517
 30
0.0
 11
13.70066917757525
 21
-5.400298740391218
 31
0.0
  0
LINE
  5
1F3
330
1F
100
AcDbEntity
  8
0
100
AcDbLine
 10
13.31244060992148
 20
-6.072730344517489
 30
0.0
 11
13.55081854381831
 21
-5.762070172737517
 31
0.0
  0
LINE
  5
1F4
330
1F
100
AcDbEntity
  8
0
100
AcDbLine
 10
13.00178043814165
 20
-6.31110827841409
 30
0.0
 11
13.31244060992148
 21
-6.072730344517489
 31
0.0
  0
LINE
  5
1F5
330
1F
100
AcDbEntity
  8
0
100
AcDbLine
 10
12.64000900579543
 20
-6.460958912171381
 30
0.0
 11
13.00178043814165
 21
-6.31110827841409
 31
0.0
  0
LINE
  5
1F6
330
1F
100
AcDbEntity
  8
0
100
AcDbLine
 10
12.25178043814165
 20
-6.512070172737708
 30
0.0
 11
12.64000900579543
 21
-6.460958912171381
 31
0.0
  0
LINE
  5
1F7
330
1F
100
AcDbEntity
  8
0
100
AcDbLine
 10
11.86355187048787
 20
-6.460958912171381
 30
0.0
 11
12.25178043814165
 21
-6.512070172737708
 31
0.0
  0
LINE
  5
1F8
330
1F
100
AcDbEntity
  8
0
100
AcDbLine
 10
11.50178043814165
 20
-6.31110827841409
 30
0.0
 11
11.86355187048787
 21
-6.460958912171381
 31
0.0
  0
LINE
  5
1F9
330
1F
100
AcDbEntity
  8
0
100
AcDbLine
 10
11.19112026636183
 20
-6.072730344517489
 30
0.0
 11
11.50178043814165
 21
-6.31110827841409
 31
0.0
  0
LINE
  5
1FA
330
1F
100
AcDbEntity
  8
0
100
AcDbLine
 10
10.95274233246499
 20
-5.762070172737517
 30
0.0
 11
11.19112026636183
 21
-6.072730344517489
 31
0.0
  0
LINE
  5
1FB
330
1F
100
AcDbEntity
  8
0
100
AcDbLine
 10
10.80289169870805
 20
-5.400298740391218
 30
0.0
 11
10.95274233246499
 21
-5.762070172737517
 31
0.0
  0
LINE
  5
1FC
330
1F
100
AcDbEntity
  8
0
100
AcDbLine
 10
10.75178043814165
 20
-5.012070172737688
 30
0.0
 11
10.80289169870805
 21
-5.400298740391218
 31
0.0
  0
LINE
  5
1FD
330
1F
100
AcDbEntity
  8
0
100
AcDbLine
 10
16.75178043814165
 20
-5.012070172737688
 30
0.0
 11
16.75178043814165
 21
48.48792982726242
 31
0.0
  0
LINE
  5
1FE
330
1F
100
AcDbEntity
  8
0
100
AcDbLine
 10
16.75178043814165
 20
48.48792982726242
 30
0.0
 11
16.80289169919014
 21
48.87615839671531
 31
0.0
  0
LINE
  5
1FF
330
1F
100
AcDbEntity
  8
0
100
AcDbLine
 10
16.80289169919014
 20
48.87615839671531
 30
0.0
 11
16.95274233432764
 21
49.23792983048847
 31
0.0
  0
LINE
  5
200
330
1F
100
AcDbEntity
  8
0
100
AcDbLine
 10
16.95274233432764
 20
49.23792983048847
 30
0.0
 11
17.1911202703131
 21
49.5485900029936
 31
0.0
  0
LINE
  5
201
330
1F
100
AcDbEntity
  8
0
100
AcDbLine
 10
17.1911202703131
 20
49.5485900029936
 30
0.0
 11
17.50178044459405
 21
49.78696793666424
 31
0.0
  0
LINE
  5
202
330
1F
100
AcDbEntity
  8
0
100
AcDbLine
 10
17.50178044459405
 20
49.78696793666424
 30
0.0
 11
17.86355187948376
 21
49.93681856910657
 31
0.0
  0
LINE
  5
203
330
1F
100
AcDbEntity
  8
0
100
AcDbLine
 10
17.86355187948376
 20
49.93681856910657
 30
0.0
 11
18.25178044931752
 21
49.98792982726243
 31
0.0
  0
LINE
  5
204
330
1F
100
AcDbEntity
  8
0
100
AcDbLine
 10
18.25178044931752
 20
49.98792982726243
 30
0.0
 11
18.64000901838967
 21
49.93681856332154
 31
0.0
  0
LINE
  5
205
330
1F
100
AcDbEntity
  8
0
100
AcDbLine
 10
18.64000901838967
 20
49.93681856332154
 30
0.0
 11
19.00178045104644
 21
49.78696792548833
 31
0.0
  0
LINE
  5
206
330
1F
100
AcDbEntity
  8
0
100
AcDbLine
 10
19.00178045104644
 20
49.78696792548833
 30
0.0
 11
19.31244062177527
 21
49.54858998718844
 31
0.0
  0
LINE
  5
207
330
1F
100
AcDbEntity
  8
0
100
AcDbLine
 10
19.31244062177527
 20
49.54858998718844
 30
0.0
 11
19.55081855313153
 21
49.23792981113149
 31
0.0
  0
LINE
  5
208
330
1F
100
AcDbEntity
  8
0
100
AcDbLine
 10
19.55081855313153
 20
49.23792981113149
 30
0.0
 11
19.70066918287822
 21
48.87615837512511
 31
0.0
  0
LINE
  5
209
330
1F
100
AcDbEntity
  8
0
100
AcDbLine
 10
19.70066918287822
 20
48.87615837512511
 30
0.0
 11
19.75178043814165
 21
48.48792982726242
 31
0.0
  0
LINE
  5
20A
330
1F
100
AcDbEntity
  8
0
100
AcDbLine
 10
19.75178043814165
 20
48.48792982726242
 30
0.0
 11
19.75178043814165
 21
-5.012070172737688
 31
0.0
  0
LINE
  5
20B
330
1F
100
AcDbEntity
  8
0
100
AcDbLine
 10
19.70066917757525
 20
-5.400298740391218
 30
0.0
 11
19.75178043814165
 21
-5.012070172737688
 31
0.0
  0
LINE
  5
20C
330
1F
100
AcDbEntity
  8
0
100
AcDbLine
 10
19.55081854381831
 20
-5.762070172737517
 30
0.0
 11
19.70066917757525
 21
-5.400298740391218
 31
0.0
  0
LINE
  5
20D
330
1F
100
AcDbEntity
  8
0
100
AcDbLine
 10
19.31244060992147
 20
-6.072730344517489
 30
0.0
 11
19.55081854381831
 21
-5.762070172737517
 31
0.0
  0
LINE
  5
20E
330
1F
100
AcDbEntity
  8
0
100
AcDbLine
 10
19.00178043814165
 20
-6.31110827841409
 30
0.0
 11
19.31244060992147
 21
-6.072730344517489
 31
0.0
  0
LINE
  5
20F
330
1F
100
AcDbEntity
  8
0
100
AcDbLine
 10
18.64000900579543
 20
-6.460958912171381
 30
0.0
 11
19.00178043814165
 21
-6.31110827841409
 31
0.0
  0
LINE
  5
210
330
1F
100
AcDbEntity
  8
0
100
AcDbLine
 10
18.25178043814165
 20
-6.512070172737708
 30
0.0
 11
18.64000900579543
 21
-6.460958912171381
 31
0.0
  0
LINE
  5
211
330
1F
100
AcDbEntity
  8
0
100
AcDbLine
 10
17.86355187048787
 20
-6.460958912171381
 30
0.0
 11
18.25178043814165
 21
-6.512070172737708
 31
0.0
  0
LINE
  5
212
330
1F
100
AcDbEntity
  8
0
100
AcDbLine
 10
17.50178043814165
 20
-6.31110827841409
 30
0.0
 11
17.86355187048787
 21
-6.460958912171381
 31
0.0
  0
LINE
  5
213
330
1F
100
AcDbEntity
  8
0
100
AcDbLine
 10
17.19112026636183
 20
-6.072730344517489
 30
0.0
 11
17.50178043814165
 21
-6.31110827841409
 31
0.0
  0
LINE
  5
214
330
1F
100
AcDbEntity
  8
0
100
AcDbLine
 10
16.952742332465
 20
-5.762070172737517
 30
0.0
 11
17.19112026636183
 21
-6.072730344517489
 31
0.0
  0
LINE
  5
215
330
1F
100
AcDbEntity
  8
0
100
AcDbLine
 10
16.80289169870805
 20
-5.400298740391218
 30
0.0
 11
16.952742332465
 21
-5.762070172737517
 31
0.0
  0
LINE
  5
216
330
1F
100
AcDbEntity
  8
0
100
AcDbLine
 10
16.75178043814165
 20
-5.012070172737688
 30
0.0
 11
16.80289169870805
 21
-5.400298740391218
 31
0.0
  0
LINE
  5
217
330
1F
100
AcDbEntity
  8
0
100
AcDbLine
 10
22.75178043814165
 20
-5.012070172737688
 30
0.0
 11
22.75178043814165
 21
48.48792982726242
 31
0.0
  0
LINE
  5
218
330
1F
100
AcDbEntity
  8
0
100
AcDbLine
 10
22.75178043814165
 20
48.48792982726242
 30
0.0
 11
22.80289169919014
 21
48.87615839671531
 31
0.0
  0
LINE
  5
219
330
1F
100
AcDbEntity
  8
0
100
AcDbLine
 10
22.80289169919014
 20
48.87615839671531
 30
0.0
 11
22.95274233432764
 21
49.23792983048847
 31
0.0
  0
LINE
  5
21A
330
1F
100
AcDbEntity
  8
0
100
AcDbLine
 10
23.1911202703131
 20
49.5485900029936
 30
0.0
 11
23.50178044459405
 21
49.78696793666424
 31
0.0
  0
LINE
  5
21B
330
1F
100
AcDbEntity
  8
0
100
AcDbLine
 10
23.50178044459405
 20
49.78696793666424
 30
0.0
 11
23.86355187948376
 21
49.93681856910657
 31
0.0
  0
LINE
  5
21C
330
1F
100
AcDbEntity
  8
0
100
AcDbLine
 10
23.86355187948376
 20
49.93681856910657
 30
0.0
 11
24.25178044931752
 21
49.98792982726243
 31
0.0
  0
LINE
  5
21D
330
1F
100
AcDbEntity
  8
0
100
AcDbLine
 10
24.25178044931752
 20
49.98792982726243
 30
0.0
 11
24.64000901838967
 21
49.93681856332154
 31
0.0
  0
LINE
  5
21E
330
1F
100
AcDbEntity
  8
0
100
AcDbLine
 10
24.64000901838967
 20
49.93681856332154
 30
0.0
 11
25.00178045104644
 21
49.78696792548833
 31
0.0
  0
LINE
  5
21F
330
1F
100
AcDbEntity
  8
0
100
AcDbLine
 10
25.00178045104644
 20
49.78696792548833
 30
0.0
 11
25.31244062177527
 21
49.54858998718844
 31
0.0
  0
LINE
  5
220
330
1F
100
AcDbEntity
  8
0
100
AcDbLine
 10
25.31244062177527
 20
49.54858998718844
 30
0.0
 11
25.55081855313153
 21
49.23792981113149
 31
0.0
  0
LINE
  5
221
330
1F
100
AcDbEntity
  8
0
100
AcDbLine
 10
25.55081855313153
 20
49.23792981113149
 30
0.0
 11
25.70066918287822
 21
48.87615837512511
 31
0.0
  0
LINE
  5
222
330
1F
100
AcDbEntity
  8
0
100
AcDbLine
 10
25.70066918287822
 20
48.87615837512511
 30
0.0
 11
25.75178043814165
 21
48.48792982726242
 31
0.0
  0
LINE
  5
223
330
1F
100
AcDbEntity
  8
0
100
AcDbLine
 10
25.75178043814165
 20
48.48792982726242
 30
0.0
 11
25.75178043814165
 21
-5.012070172737688
 31
0.0
  0
LINE
  5
224
330
1F
100
AcDbEntity
  8
0
100
AcDbLine
 10
25.70066917757525
 20
-5.400298740391218
 30
0.0
 11
25.75178043814165
 21
-5.012070172737688
 31
0.0
  0
LINE
  5
225
330
1F
100
AcDbEntity
  8
0
100
AcDbLine
 10
25.55081854381831
 20
-5.762070172737517
 30
0.0
 11
25.70066917757525
 21
-5.400298740391218
 31
0.0
  0
LINE
  5
226
330
1F
100
AcDbEntity
  8
0
100
AcDbLine
 10
25.31244060992147
 20
-6.072730344517489
 30
0.0
 11
25.55081854381831
 21
-5.762070172737517
 31
0.0
  0
LINE
  5
227
330
1F
100
AcDbEntity
  8
0
100
AcDbLine
 10
25.00178043814165
 20
-6.31110827841409
 30
0.0
 11
25.31244060992147
 21
-6.072730344517489
 31
0.0
  0
LINE
  5
228
330
1F
100
AcDbEntity
  8
0
100
AcDbLine
 10
24.64000900579543
 20
-6.460958912171381
 30
0.0
 11
25.00178043814165
 21
-6.31110827841409
 31
0.0
  0
LINE
  5
229
330
1F
100
AcDbEntity
  8
0
100
AcDbLine
 10
24.25178043814165
 20
-6.512070172737708
 30
0.0
 11
24.64000900579543
 21
-6.460958912171381
 31
0.0
  0
LINE
  5
22A
330
1F
100
AcDbEntity
  8
0
100
AcDbLine
 10
23.86355187048787
 20
-6.460958912171381
 30
0.0
 11
24.25178043814165
 21
-6.512070172737708
 31
0.0
  0
LINE
  5
22B
330
1F
100
AcDbEntity
  8
0
100
AcDbLine
 10
23.50178043814165
 20
-6.31110827841409
 30
0.0
 11
23.86355187048787
 21
-6.460958912171381
 31
0.0
  0
LINE
  5
22C
330
1F
100
AcDbEntity
  8
0
100
AcDbLine
 10
23.19112026636183
 20
-6.072730344517489
 30
0.0
 11
23.50178043814165
 21
-6.31110827841409
 31
0.0
  0
LINE
  5
22D
330
1F
100
AcDbEntity
  8
0
100
AcDbLine
 10
22.952742332465
 20
-5.762070172737517
 30
0.0
 11
23.19112026636183
 21
-6.072730344517489
 31
0.0
  0
LINE
  5
22E
330
1F
100
AcDbEntity
  8
0
100
AcDbLine
 10
22.80289169870805
 20
-5.400298740391218
 30
0.0
 11
22.952742332465
 21
-5.762070172737517
 31
0.0
  0
LINE
  5
22F
330
1F
100
AcDbEntity
  8
0
100
AcDbLine
 10
22.75178043814165
 20
-5.012070172737688
 30
0.0
 11
22.80289169870805
 21
-5.400298740391218
 31
0.0
  0
LINE
  5
230
330
1F
100
AcDbEntity
  8
0
100
AcDbLine
 10
16.75178043814165
 20
-85.01207017273754
 30
0.0
 11
16.75178043814165
 21
-31.51207017273744
 31
0.0
  0
LINE
  5
231
330
1F
100
AcDbEntity
  8
0
100
AcDbLine
 10
16.75178043814165
 20
-31.51207017273744
 30
0.0
 11
16.80289169919014
 21
-31.12384160328454
 31
0.0
  0
LINE
  5
232
330
1F
100
AcDbEntity
  8
0
100
AcDbLine
 10
16.80289169919014
 20
-31.12384160328454
 30
0.0
 11
16.95274233432765
 21
-30.76207016951139
 31
0.0
  0
LINE
  5
233
330
1F
100
AcDbEntity
  8
0
100
AcDbLine
 10
16.95274233432765
 20
-30.76207016951139
 30
0.0
 11
17.1911202703131
 21
-30.45140999700661
 31
0.0
  0
LINE
  5
234
330
1F
100
AcDbEntity
  8
0
100
AcDbLine
 10
17.1911202703131
 20
-30.45140999700661
 30
0.0
 11
17.50178044459405
 21
-30.21303206333561
 31
0.0
  0
LINE
  5
235
330
1F
100
AcDbEntity
  8
0
100
AcDbLine
 10
17.50178044459405
 20
-30.21303206333561
 30
0.0
 11
17.86355187948376
 21
-30.06318143089364
 31
0.0
  0
LINE
  5
236
330
1F
100
AcDbEntity
  8
0
100
AcDbLine
 10
17.86355187948376
 20
-30.06318143089364
 30
0.0
 11
18.25178044931753
 21
-30.01207017273778
 31
0.0
  0
LINE
  5
237
330
1F
100
AcDbEntity
  8
0
100
AcDbLine
 10
19.00178045104644
 20
-30.21303207451152
 30
0.0
 11
19.31244062177527
 21
-30.45141001281142
 31
0.0
  0
LINE
  5
238
330
1F
100
AcDbEntity
  8
0
100
AcDbLine
 10
19.31244062177527
 20
-30.45141001281142
 30
0.0
 11
19.55081855313153
 21
-30.76207018886872
 31
0.0
  0
LINE
  5
239
330
1F
100
AcDbEntity
  8
0
100
AcDbLine
 10
19.55081855313153
 20
-30.76207018886872
 30
0.0
 11
19.70066918287823
 21
-31.12384162487475
 31
0.0
  0
LINE
  5
23A
330
1F
100
AcDbEntity
  8
0
100
AcDbLine
 10
19.70066918287823
 20
-31.12384162487475
 30
0.0
 11
19.75178043814165
 21
-31.51207017273744
 31
0.0
  0
LINE
  5
23B
330
1F
100
AcDbEntity
  8
0
100
AcDbLine
 10
19.75178043814165
 20
-31.51207017273744
 30
0.0
 11
19.75178043814165
 21
-85.01207017273754
 31
0.0
  0
LINE
  5
23C
330
1F
100
AcDbEntity
  8
0
100
AcDbLine
 10
19.70066917757526
 20
-85.40029874039143
 30
0.0
 11
19.75178043814165
 21
-85.01207017273754
 31
0.0
  0
LINE
  5
23D
330
1F
100
AcDbEntity
  8
0
100
AcDbLine
 10
17.50178043814165
 20
-86.31110827841431
 30
0.0
 11
17.86355187048787
 21
-86.46095891217124
 31
0.0
  0
LINE
  5
23E
330
1F
100
AcDbEntity
  8
0
100
AcDbLine
 10
17.19112026636183
 20
-86.07273034451734
 30
0.0
 11
17.50178043814165
 21
-86.31110827841431
 31
0.0
  0
LINE
  5
23F
330
1F
100
AcDbEntity
  8
0
100
AcDbLine
 10
16.952742332465
 20
-85.76207017273774
 30
0.0
 11
17.19112026636183
 21
-86.07273034451734
 31
0.0
  0
LINE
  5
240
330
1F
100
AcDbEntity
  8
0
100
AcDbLine
 10
16.80289169870805
 20
-85.40029874039143
 30
0.0
 11
16.952742332465
 21
-85.76207017273774
 31
0.0
  0
LINE
  5
241
330
1F
100
AcDbEntity
  8
0
100
AcDbLine
 10
16.75178043814165
 20
-85.01207017273754
 30
0.0
 11
16.80289169870805
 21
-85.40029874039143
 31
0.0
  0
LINE
  5
242
330
1F
100
AcDbEntity
  8
0
100
AcDbLine
 10
34.75178043814166
 20
-5.012070172737688
 30
0.0
 11
34.75178043814166
 21
48.48792982726242
 31
0.0
  0
LINE
  5
243
330
1F
100
AcDbEntity
  8
0
100
AcDbLine
 10
34.75178043814166
 20
48.48792982726242
 30
0.0
 11
34.80289169919014
 21
48.87615839671531
 31
0.0
  0
LINE
  5
244
330
1F
100
AcDbEntity
  8
0
100
AcDbLine
 10
34.80289169919014
 20
48.87615839671531
 30
0.0
 11
34.95274233432764
 21
49.23792983048847
 31
0.0
  0
LINE
  5
245
330
1F
100
AcDbEntity
  8
0
100
AcDbLine
 10
34.95274233432764
 20
49.23792983048847
 30
0.0
 11
35.1911202703131
 21
49.5485900029936
 31
0.0
  0
LINE
  5
246
330
1F
100
AcDbEntity
  8
0
100
AcDbLine
 10
35.1911202703131
 20
49.5485900029936
 30
0.0
 11
35.50178044459405
 21
49.78696793666424
 31
0.0
  0
LINE
  5
247
330
1F
100
AcDbEntity
  8
0
100
AcDbLine
 10
35.50178044459405
 20
49.78696793666424
 30
0.0
 11
35.86355187948376
 21
49.93681856910657
 31
0.0
  0
LINE
  5
248
330
1F
100
AcDbEntity
  8
0
100
AcDbLine
 10
35.86355187948376
 20
49.93681856910657
 30
0.0
 11
36.25178044931752
 21
49.98792982726243
 31
0.0
  0
LINE
  5
249
330
1F
100
AcDbEntity
  8
0
100
AcDbLine
 10
36.25178044931752
 20
49.98792982726243
 30
0.0
 11
36.64000901838967
 21
49.93681856332154
 31
0.0
  0
LINE
  5
24A
330
1F
100
AcDbEntity
  8
0
100
AcDbLine
 10
36.64000901838967
 20
49.93681856332154
 30
0.0
 11
37.00178045104644
 21
49.7869679254887
 31
0.0
  0
LINE
  5
24B
330
1F
100
AcDbEntity
  8
0
100
AcDbLine
 10
37.00178045104644
 20
49.7869679254887
 30
0.0
 11
37.31244062177527
 21
49.54858998718844
 31
0.0
  0
LINE
  5
24C
330
1F
100
AcDbEntity
  8
0
100
AcDbLine
 10
37.31244062177527
 20
49.54858998718844
 30
0.0
 11
37.55081855313153
 21
49.23792981113149
 31
0.0
  0
LINE
  5
24D
330
1F
100
AcDbEntity
  8
0
100
AcDbLine
 10
37.55081855313153
 20
49.23792981113149
 30
0.0
 11
37.70066918287822
 21
48.87615837512511
 31
0.0
  0
LINE
  5
24E
330
1F
100
AcDbEntity
  8
0
100
AcDbLine
 10
37.70066918287822
 20
48.87615837512511
 30
0.0
 11
37.75178043814166
 21
48.48792982726242
 31
0.0
  0
LINE
  5
24F
330
1F
100
AcDbEntity
  8
0
100
AcDbLine
 10
37.75178043814166
 20
48.48792982726242
 30
0.0
 11
37.75178043814166
 21
-5.012070172737688
 31
0.0
  0
LINE
  5
250
330
1F
100
AcDbEntity
  8
0
100
AcDbLine
 10
37.70066917757526
 20
-5.400298740391218
 30
0.0
 11
37.75178043814166
 21
-5.012070172737688
 31
0.0
  0
LINE
  5
251
330
1F
100
AcDbEntity
  8
0
100
AcDbLine
 10
37.55081854381832
 20
-5.762070172737517
 30
0.0
 11
37.70066917757526
 21
-5.400298740391218
 31
0.0
  0
LINE
  5
252
330
1F
100
AcDbEntity
  8
0
100
AcDbLine
 10
37.31244060992147
 20
-6.072730344517489
 30
0.0
 11
37.55081854381832
 21
-5.762070172737517
 31
0.0
  0
LINE
  5
253
330
1F
100
AcDbEntity
  8
0
100
AcDbLine
 10
36.64000900579543
 20
-6.460958912171019
 30
0.0
 11
37.00178043814165
 21
-6.31110827841409
 31
0.0
  0
LINE
  5
254
330
1F
100
AcDbEntity
  8
0
100
AcDbLine
 10
36.25178043814165
 20
-6.512070172737708
 30
0.0
 11
36.64000900579543
 21
-6.460958912171019
 31
0.0
  0
LINE
  5
255
330
1F
100
AcDbEntity
  8
0
100
AcDbLine
 10
35.86355187048787
 20
-6.460958912171019
 30
0.0
 11
36.25178043814165
 21
-6.512070172737708
 31
0.0
  0
LINE
  5
256
330
1F
100
AcDbEntity
  8
0
100
AcDbLine
 10
35.50178043814165
 20
-6.31110827841409
 30
0.0
 11
35.86355187048787
 21
-6.460958912171019
 31
0.0
  0
LINE
  5
257
330
1F
100
AcDbEntity
  8
0
100
AcDbLine
 10
35.19112026636183
 20
-6.072730344517489
 30
0.0
 11
35.50178043814165
 21
-6.31110827841409
 31
0.0
  0
LINE
  5
258
330
1F
100
AcDbEntity
  8
0
100
AcDbLine
 10
34.95274233246499
 20
-5.762070172737517
 30
0.0
 11
35.19112026636183
 21
-6.072730344517489
 31
0.0
  0
LINE
  5
259
330
1F
100
AcDbEntity
  8
0
100
AcDbLine
 10
34.80289169870805
 20
-5.400298740391218
 30
0.0
 11
34.95274233246499
 21
-5.762070172737517
 31
0.0
  0
LINE
  5
25A
330
1F
100
AcDbEntity
  8
0
100
AcDbLine
 10
34.75178043814166
 20
-5.012070172737688
 30
0.0
 11
34.80289169870805
 21
-5.400298740391218
 31
0.0
  0
LINE
  5
25B
330
1F
100
AcDbEntity
  8
0
100
AcDbLine
 10
22.75178043814166
 20
-85.01207017273754
 30
0.0
 11
22.75178043814166
 21
-31.51207017273744
 31
0.0
  0
LINE
  5
25C
330
1F
100
AcDbEntity
  8
0
100
AcDbLine
 10
22.75178043814166
 20
-31.51207017273744
 30
0.0
 11
22.80289169919014
 21
-31.12384160328454
 31
0.0
  0
LINE
  5
25D
330
1F
100
AcDbEntity
  8
0
100
AcDbLine
 10
22.80289169919014
 20
-31.12384160328454
 30
0.0
 11
22.95274233432764
 21
-30.76207016951139
 31
0.0
  0
LINE
  5
25E
330
1F
100
AcDbEntity
  8
0
100
AcDbLine
 10
22.95274233432764
 20
-30.76207016951139
 30
0.0
 11
23.1911202703131
 21
-30.45140999700661
 31
0.0
  0
LINE
  5
25F
330
1F
100
AcDbEntity
  8
0
100
AcDbLine
 10
23.50178044459405
 20
-30.21303206333561
 30
0.0
 11
23.86355187948376
 21
-30.06318143089364
 31
0.0
  0
LINE
  5
260
330
1F
100
AcDbEntity
  8
0
100
AcDbLine
 10
23.86355187948376
 20
-30.06318143089364
 30
0.0
 11
24.25178044931752
 21
-30.01207017273778
 31
0.0
  0
LINE
  5
261
330
1F
100
AcDbEntity
  8
0
100
AcDbLine
 10
25.00178045104644
 20
-30.21303207451152
 30
0.0
 11
25.31244062177528
 21
-30.45141001281142
 31
0.0
  0
LINE
  5
262
330
1F
100
AcDbEntity
  8
0
100
AcDbLine
 10
25.31244062177528
 20
-30.45141001281142
 30
0.0
 11
25.55081855313154
 21
-30.76207018886872
 31
0.0
  0
LINE
  5
263
330
1F
100
AcDbEntity
  8
0
100
AcDbLine
 10
25.55081855313154
 20
-30.76207018886872
 30
0.0
 11
25.70066918287823
 21
-31.12384162487475
 31
0.0
  0
LINE
  5
264
330
1F
100
AcDbEntity
  8
0
100
AcDbLine
 10
25.70066918287823
 20
-31.12384162487475
 30
0.0
 11
25.75178043814165
 21
-31.51207017273744
 31
0.0
  0
LINE
  5
265
330
1F
100
AcDbEntity
  8
0
100
AcDbLine
 10
25.75178043814165
 20
-31.51207017273744
 30
0.0
 11
25.75178043814165
 21
-85.01207017273754
 31
0.0
  0
LINE
  5
266
330
1F
100
AcDbEntity
  8
0
100
AcDbLine
 10
25.70066917757526
 20
-85.40029874039143
 30
0.0
 11
25.75178043814165
 21
-85.01207017273754
 31
0.0
  0
LINE
  5
267
330
1F
100
AcDbEntity
  8
0
100
AcDbLine
 10
25.55081854381831
 20
-85.76207017273774
 30
0.0
 11
25.70066917757526
 21
-85.40029874039143
 31
0.0
  0
LINE
  5
268
330
1F
100
AcDbEntity
  8
0
100
AcDbLine
 10
25.31244060992148
 20
-86.07273034451734
 30
0.0
 11
25.55081854381831
 21
-85.76207017273774
 31
0.0
  0
LINE
  5
269
330
1F
100
AcDbEntity
  8
0
100
AcDbLine
 10
23.50178043814166
 20
-86.31110827841431
 30
0.0
 11
23.86355187048787
 21
-86.46095891217124
 31
0.0
  0
LINE
  5
26A
330
1F
100
AcDbEntity
  8
0
100
AcDbLine
 10
23.19112026636183
 20
-86.07273034451734
 30
0.0
 11
23.50178043814166
 21
-86.31110827841431
 31
0.0
  0
LINE
  5
26B
330
1F
100
AcDbEntity
  8
0
100
AcDbLine
 10
22.952742332465
 20
-85.76207017273774
 30
0.0
 11
23.19112026636183
 21
-86.07273034451734
 31
0.0
  0
LINE
  5
26C
330
1F
100
AcDbEntity
  8
0
100
AcDbLine
 10
22.80289169870806
 20
-85.40029874039143
 30
0.0
 11
22.952742332465
 21
-85.76207017273774
 31
0.0
  0
LINE
  5
26D
330
1F
100
AcDbEntity
  8
0
100
AcDbLine
 10
22.75178043814166
 20
-85.01207017273754
 30
0.0
 11
22.80289169870806
 21
-85.40029874039143
 31
0.0
  0
LINE
  5
26E
330
1F
100
AcDbEntity
  8
0
100
AcDbLine
 10
4.751780438141653
 20
-31.51207017273744
 30
0.0
 11
4.802891699190138
 21
-31.12384160328454
 31
0.0
  0
LINE
  5
26F
330
1F
100
AcDbEntity
  8
0
100
AcDbLine
 10
4.802891699190138
 20
-31.12384160328454
 30
0.0
 11
4.952742334327639
 21
-30.76207016951139
 31
0.0
  0
LINE
  5
270
330
1F
100
AcDbEntity
  8
0
100
AcDbLine
 10
4.952742334327639
 20
-30.76207016951139
 30
0.0
 11
5.191120270313096
 21
-30.45140999700661
 31
0.0
  0
LINE
  5
271
330
1F
100
AcDbEntity
  8
0
100
AcDbLine
 10
5.191120270313096
 20
-30.45140999700661
 30
0.0
 11
5.501780444594045
 21
-30.21303206333561
 31
0.0
  0
LINE
  5
272
330
1F
100
AcDbEntity
  8
0
100
AcDbLine
 10
5.501780444594045
 20
-30.21303206333561
 30
0.0
 11
5.863551879483757
 21
-30.06318143089364
 31
0.0
  0
LINE
  5
273
330
1F
100
AcDbEntity
  8
0
100
AcDbLine
 10
5.863551879483757
 20
-30.06318143089364
 30
0.0
 11
6.251780449317522
 21
-30.01207017273778
 31
0.0
  0
LINE
  5
274
330
1F
100
AcDbEntity
  8
0
100
AcDbLine
 10
7.001780451046436
 20
-30.21303207451152
 30
0.0
 11
7.312440621775271
 21
-30.45141001281142
 31
0.0
  0
LINE
  5
275
330
1F
100
AcDbEntity
  8
0
100
AcDbLine
 10
7.700669182878222
 20
-31.12384162487475
 30
0.0
 11
7.751780438141654
 21
-31.51207017273744
 31
0.0
  0
LINE
  5
276
330
1F
100
AcDbEntity
  8
0
100
AcDbLine
 10
7.751780438141654
 20
-31.51207017273744
 30
0.0
 11
7.751780438141654
 21
-85.01207017273754
 31
0.0
  0
LINE
  5
277
330
1F
100
AcDbEntity
  8
0
100
AcDbLine
 10
7.700669177575253
 20
-85.40029874039143
 30
0.0
 11
7.751780438141654
 21
-85.01207017273754
 31
0.0
  0
LINE
  5
278
330
1F
100
AcDbEntity
  8
0
100
AcDbLine
 10
7.550818543818306
 20
-85.76207017273774
 30
0.0
 11
7.700669177575253
 21
-85.40029874039143
 31
0.0
  0
LINE
  5
279
330
1F
100
AcDbEntity
  8
0
100
AcDbLine
 10
7.312440609921475
 20
-86.07273034451734
 30
0.0
 11
7.550818543818306
 21
-85.76207017273774
 31
0.0
  0
LINE
  5
27A
330
1F
100
AcDbEntity
  8
0
100
AcDbLine
 10
7.001780438141649
 20
-86.31110827841431
 30
0.0
 11
7.312440609921475
 21
-86.07273034451734
 31
0.0
  0
LINE
  5
27B
330
1F
100
AcDbEntity
  8
0
100
AcDbLine
 10
5.863551870487866
 20
-86.46095891217124
 30
0.0
 11
6.25178043814165
 21
-86.51207017273757
 31
0.0
  0
LINE
  5
27C
330
1F
100
AcDbEntity
  8
0
100
AcDbLine
 10
5.501780438141652
 20
-86.31110827841431
 30
0.0
 11
5.863551870487866
 21
-86.46095891217124
 31
0.0
  0
LINE
  5
27D
330
1F
100
AcDbEntity
  8
0
100
AcDbLine
 10
5.191120266361827
 20
-86.07273034451734
 30
0.0
 11
5.501780438141652
 21
-86.31110827841431
 31
0.0
  0
LINE
  5
27E
330
1F
100
AcDbEntity
  8
0
100
AcDbLine
 10
4.952742332464995
 20
-85.76207017273774
 30
0.0
 11
5.191120266361827
 21
-86.07273034451734
 31
0.0
  0
LINE
  5
27F
330
1F
100
AcDbEntity
  8
0
100
AcDbLine
 10
4.802891698708048
 20
-85.40029874039143
 30
0.0
 11
4.952742332464995
 21
-85.76207017273774
 31
0.0
  0
LINE
  5
280
330
1F
100
AcDbEntity
  8
0
100
AcDbLine
 10
10.75178043814165
 20
-85.01207017273754
 30
0.0
 11
10.75178043814165
 21
-31.51207017273744
 31
0.0
  0
LINE
  5
281
330
1F
100
AcDbEntity
  8
0
100
AcDbLine
 10
10.75178043814165
 20
-31.51207017273744
 30
0.0
 11
10.80289169919014
 21
-31.12384160328454
 31
0.0
  0
LINE
  5
282
330
1F
100
AcDbEntity
  8
0
100
AcDbLine
 10
10.80289169919014
 20
-31.12384160328454
 30
0.0
 11
10.95274233432764
 21
-30.76207016951139
 31
0.0
  0
LINE
  5
283
330
1F
100
AcDbEntity
  8
0
100
AcDbLine
 10
10.95274233432764
 20
-30.76207016951139
 30
0.0
 11
11.1911202703131
 21
-30.45140999700661
 31
0.0
  0
LINE
  5
284
330
1F
100
AcDbEntity
  8
0
100
AcDbLine
 10
11.1911202703131
 20
-30.45140999700661
 30
0.0
 11
11.50178044459405
 21
-30.21303206333561
 31
0.0
  0
LINE
  5
285
330
1F
100
AcDbEntity
  8
0
100
AcDbLine
 10
11.50178044459405
 20
-30.21303206333561
 30
0.0
 11
11.86355187948376
 21
-30.06318143089364
 31
0.0
  0
LINE
  5
286
330
1F
100
AcDbEntity
  8
0
100
AcDbLine
 10
11.86355187948376
 20
-30.06318143089364
 30
0.0
 11
12.25178044931752
 21
-30.01207017273778
 31
0.0
  0
LINE
  5
287
330
1F
100
AcDbEntity
  8
0
100
AcDbLine
 10
13.00178045104644
 20
-30.21303207451152
 30
0.0
 11
13.31244062177527
 21
-30.45141001281142
 31
0.0
  0
LINE
  5
288
330
1F
100
AcDbEntity
  8
0
100
AcDbLine
 10
13.31244062177527
 20
-30.45141001281142
 30
0.0
 11
13.55081855313153
 21
-30.76207018886872
 31
0.0
  0
LINE
  5
289
330
1F
100
AcDbEntity
  8
0
100
AcDbLine
 10
13.55081855313153
 20
-30.76207018886872
 30
0.0
 11
13.70066918287822
 21
-31.12384162487475
 31
0.0
  0
LINE
  5
28A
330
1F
100
AcDbEntity
  8
0
100
AcDbLine
 10
13.70066918287822
 20
-31.12384162487475
 30
0.0
 11
13.75178043814165
 21
-31.51207017273744
 31
0.0
  0
LINE
  5
28B
330
1F
100
AcDbEntity
  8
0
100
AcDbLine
 10
13.75178043814165
 20
-31.51207017273744
 30
0.0
 11
13.75178043814165
 21
-85.01207017273754
 31
0.0
  0
LINE
  5
28C
330
1F
100
AcDbEntity
  8
0
100
AcDbLine
 10
13.70066917757525
 20
-85.40029874039143
 30
0.0
 11
13.75178043814165
 21
-85.01207017273754
 31
0.0
  0
LINE
  5
28D
330
1F
100
AcDbEntity
  8
0
100
AcDbLine
 10
13.55081854381831
 20
-85.76207017273774
 30
0.0
 11
13.70066917757525
 21
-85.40029874039143
 31
0.0
  0
LINE
  5
28E
330
1F
100
AcDbEntity
  8
0
100
AcDbLine
 10
13.31244060992148
 20
-86.07273034451734
 30
0.0
 11
13.55081854381831
 21
-85.76207017273774
 31
0.0
  0
LINE
  5
28F
330
1F
100
AcDbEntity
  8
0
100
AcDbLine
 10
13.00178043814165
 20
-86.31110827841431
 30
0.0
 11
13.31244060992148
 21
-86.07273034451734
 31
0.0
  0
LINE
  5
290
330
1F
100
AcDbEntity
  8
0
100
AcDbLine
 10
10.95274233246499
 20
-85.76207017273774
 30
0.0
 11
11.19112026636183
 21
-86.07273034451734
 31
0.0
  0
LINE
  5
291
330
1F
100
AcDbEntity
  8
0
100
AcDbLine
 10
10.80289169870805
 20
-85.40029874039143
 30
0.0
 11
10.95274233246499
 21
-85.76207017273774
 31
0.0
  0
LINE
  5
292
330
1F
100
AcDbEntity
  8
0
100
AcDbLine
 10
10.75178043814165
 20
-85.01207017273754
 30
0.0
 11
10.80289169870805
 21
-85.40029874039143
 31
0.0
  0
LINE
  5
293
330
1F
100
AcDbEntity
  8
0
100
AcDbLine
 10
34.75178043814166
 20
-85.01207017273754
 30
0.0
 11
34.75178043814166
 21
-31.51207017273744
 31
0.0
  0
LINE
  5
294
330
1F
100
AcDbEntity
  8
0
100
AcDbLine
 10
36.25178044931752
 20
-30.01207017273742
 30
0.0
 11
36.64000901838968
 21
-30.06318143667868
 31
0.0
  0
LINE
  5
295
330
1F
100
AcDbEntity
  8
0
100
AcDbLine
 10
37.55081855313153
 20
-30.76207018886872
 30
0.0
 11
37.70066918287822
 21
-31.12384162487475
 31
0.0
  0
LINE
  5
296
330
1F
100
AcDbEntity
  8
0
100
AcDbLine
 10
37.70066918287822
 20
-31.12384162487475
 30
0.0
 11
37.75178043814166
 21
-31.51207017273744
 31
0.0
  0
LINE
  5
297
330
1F
100
AcDbEntity
  8
0
100
AcDbLine
 10
37.75178043814166
 20
-31.51207017273744
 30
0.0
 11
37.75178043814166
 21
-85.01207017273754
 31
0.0
  0
LINE
  5
298
330
1F
100
AcDbEntity
  8
0
100
AcDbLine
 10
37.31244060992149
 20
-86.07273034451734
 30
0.0
 11
37.55081854381832
 21
-85.76207017273774
 31
0.0
  0
LINE
  5
299
330
1F
100
AcDbEntity
  8
0
100
AcDbLine
 10
37.00178043814167
 20
-86.31110827841431
 30
0.0
 11
37.31244060992149
 21
-86.07273034451734
 31
0.0
  0
LINE
  5
29A
330
1F
100
AcDbEntity
  8
0
100
AcDbLine
 10
35.19112026636184
 20
-86.07273034451734
 30
0.0
 11
35.50178043814166
 21
-86.31110827841431
 31
0.0
  0
LINE
  5
29B
330
1F
100
AcDbEntity
  8
0
100
AcDbLine
 10
266.2517804381417
 20
-85.01207017273754
 30
0.0
 11
266.2517804381417
 21
-31.51207017273744
 31
0.0
  0
LINE
  5
29C
330
1F
100
AcDbEntity
  8
0
100
AcDbLine
 10
266.2517804381417
 20
-31.51207017273744
 30
0.0
 11
266.3028916991902
 21
-31.12384160328454
 31
0.0
  0
LINE
  5
29D
330
1F
100
AcDbEntity
  8
0
100
AcDbLine
 10
266.3028916991902
 20
-31.12384160328454
 30
0.0
 11
266.4527423343276
 21
-30.76207016951139
 31
0.0
  0
LINE
  5
29E
330
1F
100
AcDbEntity
  8
0
100
AcDbLine
 10
266.4527423343276
 20
-30.76207016951139
 30
0.0
 11
266.6911202703131
 21
-30.45140999700661
 31
0.0
  0
LINE
  5
29F
330
1F
100
AcDbEntity
  8
0
100
AcDbLine
 10
266.6911202703131
 20
-30.45140999700661
 30
0.0
 11
267.001780444594
 21
-30.21303206333561
 31
0.0
  0
LINE
  5
2A0
330
1F
100
AcDbEntity
  8
0
100
AcDbLine
 10
267.001780444594
 20
-30.21303206333561
 30
0.0
 11
267.3635518794838
 21
-30.06318143089364
 31
0.0
  0
LINE
  5
2A1
330
1F
100
AcDbEntity
  8
0
100
AcDbLine
 10
267.3635518794838
 20
-30.06318143089364
 30
0.0
 11
267.7517804493176
 21
-30.01207017273742
 31
0.0
  0
LINE
  5
2A2
330
1F
100
AcDbEntity
  8
0
100
AcDbLine
 10
267.7517804493176
 20
-30.01207017273742
 30
0.0
 11
268.1400090183897
 21
-30.06318143667868
 31
0.0
  0
LINE
  5
2A3
330
1F
100
AcDbEntity
  8
0
100
AcDbLine
 10
268.1400090183897
 20
-30.06318143667868
 30
0.0
 11
268.5017804510464
 21
-30.21303207451152
 31
0.0
  0
LINE
  5
2A4
330
1F
100
AcDbEntity
  8
0
100
AcDbLine
 10
268.5017804510464
 20
-30.21303207451152
 30
0.0
 11
268.8124406217753
 21
-30.45141001281142
 31
0.0
  0
LINE
  5
2A5
330
1F
100
AcDbEntity
  8
0
100
AcDbLine
 10
268.8124406217753
 20
-30.45141001281142
 30
0.0
 11
269.0508185531315
 21
-30.76207018886872
 31
0.0
  0
LINE
  5
2A6
330
1F
100
AcDbEntity
  8
0
100
AcDbLine
 10
269.0508185531315
 20
-30.76207018886872
 30
0.0
 11
269.2006691828782
 21
-31.12384162487475
 31
0.0
  0
LINE
  5
2A7
330
1F
100
AcDbEntity
  8
0
100
AcDbLine
 10
269.2006691828782
 20
-31.12384162487475
 30
0.0
 11
269.2517804381417
 21
-31.51207017273744
 31
0.0
  0
LINE
  5
2A8
330
1F
100
AcDbEntity
  8
0
100
AcDbLine
 10
269.2517804381417
 20
-31.51207017273744
 30
0.0
 11
269.2517804381417
 21
-85.01207017273754
 31
0.0
  0
LINE
  5
2A9
330
1F
100
AcDbEntity
  8
0
100
AcDbLine
 10
269.2006691775753
 20
-85.40029874039143
 30
0.0
 11
269.2517804381417
 21
-85.01207017273754
 31
0.0
  0
LINE
  5
2AA
330
1F
100
AcDbEntity
  8
0
100
AcDbLine
 10
269.0508185438183
 20
-85.76207017273774
 30
0.0
 11
269.2006691775753
 21
-85.40029874039143
 31
0.0
  0
LINE
  5
2AB
330
1F
100
AcDbEntity
  8
0
100
AcDbLine
 10
268.8124406099215
 20
-86.07273034451734
 30
0.0
 11
269.0508185438183
 21
-85.76207017273774
 31
0.0
  0
LINE
  5
2AC
330
1F
100
AcDbEntity
  8
0
100
AcDbLine
 10
268.5017804381417
 20
-86.31110827841431
 30
0.0
 11
268.8124406099215
 21
-86.07273034451734
 31
0.0
  0
LINE
  5
2AD
330
1F
100
AcDbEntity
  8
0
100
AcDbLine
 10
268.1400090057955
 20
-86.46095891217124
 30
0.0
 11
268.5017804381417
 21
-86.31110827841431
 31
0.0
  0
LINE
  5
2AE
330
1F
100
AcDbEntity
  8
0
100
AcDbLine
 10
267.7517804381417
 20
-86.51207017273757
 30
0.0
 11
268.1400090057955
 21
-86.46095891217124
 31
0.0
  0
LINE
  5
2AF
330
1F
100
AcDbEntity
  8
0
100
AcDbLine
 10
267.3635518704879
 20
-86.46095891217124
 30
0.0
 11
267.7517804381417
 21
-86.51207017273757
 31
0.0
  0
LINE
  5
2B0
330
1F
100
AcDbEntity
  8
0
100
AcDbLine
 10
267.0017804381417
 20
-86.31110827841431
 30
0.0
 11
267.3635518704879
 21
-86.46095891217124
 31
0.0
  0
LINE
  5
2B1
330
1F
100
AcDbEntity
  8
0
100
AcDbLine
 10
266.6911202663618
 20
-86.07273034451734
 30
0.0
 11
267.0017804381417
 21
-86.31110827841431
 31
0.0
  0
LINE
  5
2B2
330
1F
100
AcDbEntity
  8
0
100
AcDbLine
 10
266.452742332465
 20
-85.76207017273774
 30
0.0
 11
266.6911202663618
 21
-86.07273034451734
 31
0.0
  0
LINE
  5
2B3
330
1F
100
AcDbEntity
  8
0
100
AcDbLine
 10
266.302891698708
 20
-85.40029874039143
 30
0.0
 11
266.452742332465
 21
-85.76207017273774
 31
0.0
  0
LINE
  5
2B4
330
1F
100
AcDbEntity
  8
0
100
AcDbLine
 10
266.2517804381417
 20
-85.01207017273754
 30
0.0
 11
266.302891698708
 21
-85.40029874039143
 31
0.0
  0
LINE
  5
2B5
330
1F
100
AcDbEntity
  8
0
100
AcDbLine
 10
254.2517804381417
 20
-85.01207017273754
 30
0.0
 11
254.2517804381417
 21
-31.51207017273744
 31
0.0
  0
LINE
  5
2B6
330
1F
100
AcDbEntity
  8
0
100
AcDbLine
 10
254.2517804381417
 20
-31.51207017273744
 30
0.0
 11
254.3028916991901
 21
-31.12384160328454
 31
0.0
  0
LINE
  5
2B7
330
1F
100
AcDbEntity
  8
0
100
AcDbLine
 10
254.3028916991901
 20
-31.12384160328454
 30
0.0
 11
254.4527423343276
 21
-30.76207016951139
 31
0.0
  0
LINE
  5
2B8
330
1F
100
AcDbEntity
  8
0
100
AcDbLine
 10
254.4527423343276
 20
-30.76207016951139
 30
0.0
 11
254.6911202703131
 21
-30.45140999700661
 31
0.0
  0
LINE
  5
2B9
330
1F
100
AcDbEntity
  8
0
100
AcDbLine
 10
254.6911202703131
 20
-30.45140999700661
 30
0.0
 11
255.0017804445941
 21
-30.21303206333561
 31
0.0
  0
LINE
  5
2BA
330
1F
100
AcDbEntity
  8
0
100
AcDbLine
 10
255.0017804445941
 20
-30.21303206333561
 30
0.0
 11
255.3635518794838
 21
-30.06318143089364
 31
0.0
  0
LINE
  5
2BB
330
1F
100
AcDbEntity
  8
0
100
AcDbLine
 10
255.3635518794838
 20
-30.06318143089364
 30
0.0
 11
255.7517804493176
 21
-30.01207017273742
 31
0.0
  0
LINE
  5
2BC
330
1F
100
AcDbEntity
  8
0
100
AcDbLine
 10
256.5017804510464
 20
-30.21303207451152
 30
0.0
 11
256.8124406217753
 21
-30.45141001281142
 31
0.0
  0
LINE
  5
2BD
330
1F
100
AcDbEntity
  8
0
100
AcDbLine
 10
256.8124406217753
 20
-30.45141001281142
 30
0.0
 11
257.0508185531315
 21
-30.76207018886872
 31
0.0
  0
LINE
  5
2BE
330
1F
100
AcDbEntity
  8
0
100
AcDbLine
 10
257.0508185531315
 20
-30.76207018886872
 30
0.0
 11
257.2006691828782
 21
-31.12384162487475
 31
0.0
  0
LINE
  5
2BF
330
1F
100
AcDbEntity
  8
0
100
AcDbLine
 10
257.2006691828782
 20
-31.12384162487475
 30
0.0
 11
257.2517804381417
 21
-31.51207017273744
 31
0.0
  0
LINE
  5
2C0
330
1F
100
AcDbEntity
  8
0
100
AcDbLine
 10
257.2517804381417
 20
-31.51207017273744
 30
0.0
 11
257.2517804381417
 21
-85.01207017273754
 31
0.0
  0
LINE
  5
2C1
330
1F
100
AcDbEntity
  8
0
100
AcDbLine
 10
257.2006691775753
 20
-85.40029874039143
 30
0.0
 11
257.2517804381417
 21
-85.01207017273754
 31
0.0
  0
LINE
  5
2C2
330
1F
100
AcDbEntity
  8
0
100
AcDbLine
 10
257.0508185438183
 20
-85.76207017273774
 30
0.0
 11
257.2006691775753
 21
-85.40029874039143
 31
0.0
  0
LINE
  5
2C3
330
1F
100
AcDbEntity
  8
0
100
AcDbLine
 10
256.1400090057954
 20
-86.46095891217124
 30
0.0
 11
256.5017804381416
 21
-86.31110827841431
 31
0.0
  0
LINE
  5
2C4
330
1F
100
AcDbEntity
  8
0
100
AcDbLine
 10
255.7517804381417
 20
-86.51207017273757
 30
0.0
 11
256.1400090057954
 21
-86.46095891217124
 31
0.0
  0
LINE
  5
2C5
330
1F
100
AcDbEntity
  8
0
100
AcDbLine
 10
255.0017804381417
 20
-86.31110827841431
 30
0.0
 11
255.3635518704879
 21
-86.46095891217124
 31
0.0
  0
LINE
  5
2C6
330
1F
100
AcDbEntity
  8
0
100
AcDbLine
 10
254.6911202663618
 20
-86.07273034451734
 30
0.0
 11
255.0017804381417
 21
-86.31110827841431
 31
0.0
  0
LINE
  5
2C7
330
1F
100
AcDbEntity
  8
0
100
AcDbLine
 10
254.452742332465
 20
-85.76207017273774
 30
0.0
 11
254.6911202663618
 21
-86.07273034451734
 31
0.0
  0
LINE
  5
2C8
330
1F
100
AcDbEntity
  8
0
100
AcDbLine
 10
254.3028916987081
 20
-85.40029874039143
 30
0.0
 11
254.452742332465
 21
-85.76207017273774
 31
0.0
  0
LINE
  5
2C9
330
1F
100
AcDbEntity
  8
0
100
AcDbLine
 10
254.2517804381417
 20
-85.01207017273754
 30
0.0
 11
254.3028916987081
 21
-85.40029874039143
 31
0.0
  0
LINE
  5
2CA
330
1F
100
AcDbEntity
  8
0
100
AcDbLine
 10
260.2517804381417
 20
-85.01207017273754
 30
0.0
 11
260.2517804381417
 21
-31.51207017273744
 31
0.0
  0
LINE
  5
2CB
330
1F
100
AcDbEntity
  8
0
100
AcDbLine
 10
260.2517804381417
 20
-31.51207017273744
 30
0.0
 11
260.3028916991902
 21
-31.12384160328454
 31
0.0
  0
LINE
  5
2CC
330
1F
100
AcDbEntity
  8
0
100
AcDbLine
 10
260.3028916991902
 20
-31.12384160328454
 30
0.0
 11
260.4527423343277
 21
-30.76207016951139
 31
0.0
  0
LINE
  5
2CD
330
1F
100
AcDbEntity
  8
0
100
AcDbLine
 10
260.4527423343277
 20
-30.76207016951139
 30
0.0
 11
260.6911202703131
 21
-30.45140999700661
 31
0.0
  0
LINE
  5
2CE
330
1F
100
AcDbEntity
  8
0
100
AcDbLine
 10
260.6911202703131
 20
-30.45140999700661
 30
0.0
 11
261.0017804445941
 21
-30.21303206333561
 31
0.0
  0
LINE
  5
2CF
330
1F
100
AcDbEntity
  8
0
100
AcDbLine
 10
261.0017804445941
 20
-30.21303206333561
 30
0.0
 11
261.3635518794838
 21
-30.06318143089364
 31
0.0
  0
LINE
  5
2D0
330
1F
100
AcDbEntity
  8
0
100
AcDbLine
 10
261.3635518794838
 20
-30.06318143089364
 30
0.0
 11
261.7517804493176
 21
-30.01207017273742
 31
0.0
  0
LINE
  5
2D1
330
1F
100
AcDbEntity
  8
0
100
AcDbLine
 10
261.7517804493176
 20
-30.01207017273742
 30
0.0
 11
262.1400090183897
 21
-30.06318143667868
 31
0.0
  0
LINE
  5
2D2
330
1F
100
AcDbEntity
  8
0
100
AcDbLine
 10
262.1400090183897
 20
-30.06318143667868
 30
0.0
 11
262.5017804510464
 21
-30.21303207451152
 31
0.0
  0
LINE
  5
2D3
330
1F
100
AcDbEntity
  8
0
100
AcDbLine
 10
262.5017804510464
 20
-30.21303207451152
 30
0.0
 11
262.8124406217753
 21
-30.45141001281142
 31
0.0
  0
LINE
  5
2D4
330
1F
100
AcDbEntity
  8
0
100
AcDbLine
 10
262.8124406217753
 20
-30.45141001281142
 30
0.0
 11
263.0508185531315
 21
-30.76207018886872
 31
0.0
  0
LINE
  5
2D5
330
1F
100
AcDbEntity
  8
0
100
AcDbLine
 10
263.0508185531315
 20
-30.76207018886872
 30
0.0
 11
263.2006691828782
 21
-31.12384162487475
 31
0.0
  0
LINE
  5
2D6
330
1F
100
AcDbEntity
  8
0
100
AcDbLine
 10
263.2006691828782
 20
-31.12384162487475
 30
0.0
 11
263.2517804381416
 21
-31.51207017273744
 31
0.0
  0
LINE
  5
2D7
330
1F
100
AcDbEntity
  8
0
100
AcDbLine
 10
263.2517804381416
 20
-31.51207017273744
 30
0.0
 11
263.2517804381416
 21
-85.01207017273754
 31
0.0
  0
LINE
  5
2D8
330
1F
100
AcDbEntity
  8
0
100
AcDbLine
 10
263.2006691775753
 20
-85.40029874039143
 30
0.0
 11
263.2517804381416
 21
-85.01207017273754
 31
0.0
  0
LINE
  5
2D9
330
1F
100
AcDbEntity
  8
0
100
AcDbLine
 10
263.0508185438183
 20
-85.76207017273774
 30
0.0
 11
263.2006691775753
 21
-85.40029874039143
 31
0.0
  0
LINE
  5
2DA
330
1F
100
AcDbEntity
  8
0
100
AcDbLine
 10
262.8124406099215
 20
-86.07273034451734
 30
0.0
 11
263.0508185438183
 21
-85.76207017273774
 31
0.0
  0
LINE
  5
2DB
330
1F
100
AcDbEntity
  8
0
100
AcDbLine
 10
262.5017804381417
 20
-86.31110827841431
 30
0.0
 11
262.8124406099215
 21
-86.07273034451734
 31
0.0
  0
LINE
  5
2DC
330
1F
100
AcDbEntity
  8
0
100
AcDbLine
 10
262.1400090057954
 20
-86.46095891217124
 30
0.0
 11
262.5017804381417
 21
-86.31110827841431
 31
0.0
  0
LINE
  5
2DD
330
1F
100
AcDbEntity
  8
0
100
AcDbLine
 10
261.7517804381417
 20
-86.51207017273757
 30
0.0
 11
262.1400090057954
 21
-86.46095891217124
 31
0.0
  0
LINE
  5
2DE
330
1F
100
AcDbEntity
  8
0
100
AcDbLine
 10
261.3635518704879
 20
-86.46095891217124
 30
0.0
 11
261.7517804381417
 21
-86.51207017273757
 31
0.0
  0
LINE
  5
2DF
330
1F
100
AcDbEntity
  8
0
100
AcDbLine
 10
261.0017804381417
 20
-86.31110827841431
 30
0.0
 11
261.3635518704879
 21
-86.46095891217124
 31
0.0
  0
LINE
  5
2E0
330
1F
100
AcDbEntity
  8
0
100
AcDbLine
 10
260.6911202663618
 20
-86.07273034451734
 30
0.0
 11
261.0017804381417
 21
-86.31110827841431
 31
0.0
  0
LINE
  5
2E1
330
1F
100
AcDbEntity
  8
0
100
AcDbLine
 10
260.452742332465
 20
-85.76207017273774
 30
0.0
 11
260.6911202663618
 21
-86.07273034451734
 31
0.0
  0
LINE
  5
2E2
330
1F
100
AcDbEntity
  8
0
100
AcDbLine
 10
260.3028916987081
 20
-85.40029874039143
 30
0.0
 11
260.452742332465
 21
-85.76207017273774
 31
0.0
  0
LINE
  5
2E3
330
1F
100
AcDbEntity
  8
0
100
AcDbLine
 10
260.2517804381417
 20
-85.01207017273754
 30
0.0
 11
260.3028916987081
 21
-85.40029874039143
 31
0.0
  0
LINE
  5
2E4
330
1F
100
AcDbEntity
  8
0
100
AcDbLine
 10
272.3028916991901
 20
48.87615839671531
 30
0.0
 11
272.4527423343276
 21
49.23792983048883
 31
0.0
  0
LINE
  5
2E5
330
1F
100
AcDbEntity
  8
0
100
AcDbLine
 10
272.6911202703131
 20
49.5485900029936
 30
0.0
 11
273.001780444594
 21
49.7869679366646
 31
0.0
  0
LINE
  5
2E6
330
1F
100
AcDbEntity
  8
0
100
AcDbLine
 10
273.001780444594
 20
49.7869679366646
 30
0.0
 11
273.3635518794838
 21
49.93681856910657
 31
0.0
  0
LINE
  5
2E7
330
1F
100
AcDbEntity
  8
0
100
AcDbLine
 10
274.1400090183897
 20
49.93681856332154
 30
0.0
 11
274.5017804510464
 21
49.7869679254887
 31
0.0
  0
LINE
  5
2E8
330
1F
100
AcDbEntity
  8
0
100
AcDbLine
 10
275.2006691828782
 20
48.87615837512547
 30
0.0
 11
275.2517804381417
 21
48.48792982726242
 31
0.0
  0
LINE
  5
2E9
330
1F
100
AcDbEntity
  8
0
100
AcDbLine
 10
275.2006691775753
 20
-5.400298740391218
 30
0.0
 11
275.2517804381417
 21
-5.012070172737688
 31
0.0
  0
LINE
  5
2EA
330
1F
100
AcDbEntity
  8
0
100
AcDbLine
 10
260.2517804381417
 20
-5.012070172737688
 30
0.0
 11
260.2517804381417
 21
48.48792982726242
 31
0.0
  0
LINE
  5
2EB
330
1F
100
AcDbEntity
  8
0
100
AcDbLine
 10
260.6911202703131
 20
49.5485900029936
 30
0.0
 11
261.0017804445941
 21
49.7869679366646
 31
0.0
  0
LINE
  5
2EC
330
1F
100
AcDbEntity
  8
0
100
AcDbLine
 10
261.0017804445941
 20
49.7869679366646
 30
0.0
 11
261.3635518794838
 21
49.93681856910657
 31
0.0
  0
LINE
  5
2ED
330
1F
100
AcDbEntity
  8
0
100
AcDbLine
 10
261.3635518794838
 20
49.93681856910657
 30
0.0
 11
261.7517804493176
 21
49.98792982726243
 31
0.0
  0
LINE
  5
2EE
330
1F
100
AcDbEntity
  8
0
100
AcDbLine
 10
262.5017804381417
 20
-6.31110827841409
 30
0.0
 11
262.8124406099215
 21
-6.072730344517489
 31
0.0
  0
LINE
  5
2EF
330
1F
100
AcDbEntity
  8
0
100
AcDbLine
 10
262.1400090057954
 20
-6.460958912171019
 30
0.0
 11
262.5017804381417
 21
-6.31110827841409
 31
0.0
  0
LINE
  5
2F0
330
1F
100
AcDbEntity
  8
0
100
AcDbLine
 10
261.7517804381417
 20
-6.512070172737708
 30
0.0
 11
262.1400090057954
 21
-6.460958912171019
 31
0.0
  0
LINE
  5
2F1
330
1F
100
AcDbEntity
  8
0
100
AcDbLine
 10
261.3635518704879
 20
-6.460958912171019
 30
0.0
 11
261.7517804381417
 21
-6.512070172737708
 31
0.0
  0
LINE
  5
2F2
330
1F
100
AcDbEntity
  8
0
100
AcDbLine
 10
261.0017804381417
 20
-6.31110827841409
 30
0.0
 11
261.3635518704879
 21
-6.460958912171019
 31
0.0
  0
LINE
  5
2F3
330
1F
100
AcDbEntity
  8
0
100
AcDbLine
 10
260.452742332465
 20
-5.762070172737517
 30
0.0
 11
260.6911202663618
 21
-6.072730344517489
 31
0.0
  0
LINE
  5
2F4
330
1F
100
AcDbEntity
  8
0
100
AcDbLine
 10
260.3028916987081
 20
-5.400298740391218
 30
0.0
 11
260.452742332465
 21
-5.762070172737517
 31
0.0
  0
LINE
  5
2F5
330
1F
100
AcDbEntity
  8
0
100
AcDbLine
 10
254.3028916991901
 20
48.87615839671531
 30
0.0
 11
254.4527423343276
 21
49.23792983048883
 31
0.0
  0
LINE
  5
2F6
330
1F
100
AcDbEntity
  8
0
100
AcDbLine
 10
256.5017804510464
 20
49.7869679254887
 30
0.0
 11
256.8124406217753
 21
49.54858998718844
 31
0.0
  0
LINE
  5
2F7
330
1F
100
AcDbEntity
  8
0
100
AcDbLine
 10
256.8124406099215
 20
-6.072730344517489
 30
0.0
 11
257.0508185438183
 21
-5.762070172737517
 31
0.0
  0
LINE
  5
2F8
330
1F
100
AcDbEntity
  8
0
100
AcDbLine
 10
256.5017804381416
 20
-6.31110827841409
 30
0.0
 11
256.8124406099215
 21
-6.072730344517489
 31
0.0
  0
LINE
  5
2F9
330
1F
100
AcDbEntity
  8
0
100
AcDbLine
 10
256.1400090057954
 20
-6.460958912171019
 30
0.0
 11
256.5017804381416
 21
-6.31110827841409
 31
0.0
  0
LINE
  5
2FA
330
1F
100
AcDbEntity
  8
0
100
AcDbLine
 10
267.001780444594
 20
49.7869679366646
 30
0.0
 11
267.3635518794838
 21
49.93681856910657
 31
0.0
  0
LINE
  5
2FB
330
1F
100
AcDbEntity
  8
0
100
AcDbLine
 10
267.3635518794838
 20
49.93681856910657
 30
0.0
 11
267.7517804493176
 21
49.98792982726243
 31
0.0
  0
LINE
  5
2FC
330
1F
100
AcDbEntity
  8
0
100
AcDbLine
 10
267.7517804493176
 20
49.98792982726243
 30
0.0
 11
268.1400090183897
 21
49.93681856332154
 31
0.0
  0
LINE
  5
2FD
330
1F
100
AcDbEntity
  8
0
100
AcDbLine
 10
268.5017804381417
 20
-6.31110827841409
 30
0.0
 11
268.8124406099215
 21
-6.072730344517489
 31
0.0
  0
LINE
  5
2FE
330
1F
100
AcDbEntity
  8
0
100
AcDbLine
 10
268.1400090057955
 20
-6.460958912171019
 30
0.0
 11
268.5017804381417
 21
-6.31110827841409
 31
0.0
  0
LINE
  5
2FF
330
1F
100
AcDbEntity
  8
0
100
AcDbLine
 10
272.6911202703131
 20
-30.45140999700661
 30
0.0
 11
273.001780444594
 21
-30.21303206333561
 31
0.0
  0
LINE
  5
300
330
1F
100
AcDbEntity
  8
0
100
AcDbLine
 10
274.5017804510464
 20
-30.21303207451152
 30
0.0
 11
274.8124406217753
 21
-30.45141001281142
 31
0.0
  0
LINE
  5
301
330
1F
100
AcDbEntity
  8
0
100
AcDbLine
 10
275.0508185531316
 20
-30.76207018886836
 30
0.0
 11
275.2006691828782
 21
-31.12384162487475
 31
0.0
  0
LINE
  5
302
330
1F
100
AcDbEntity
  8
0
100
AcDbLine
 10
275.2006691828782
 20
-31.12384162487475
 30
0.0
 11
275.2517804381417
 21
-31.51207017273744
 31
0.0
  0
LINE
  5
303
330
1F
100
AcDbEntity
  8
0
100
AcDbLine
 10
275.2517804381417
 20
-31.51207017273744
 30
0.0
 11
275.2517804381417
 21
-85.01207017273754
 31
0.0
  0
LINE
  5
304
330
1F
100
AcDbEntity
  8
0
100
AcDbLine
 10
275.0508185438183
 20
-85.76207017273774
 30
0.0
 11
275.2006691775753
 21
-85.40029874039143
 31
0.0
  0
LINE
  5
305
330
1F
100
AcDbEntity
  8
0
100
AcDbLine
 10
272.302891698708
 20
-85.40029874039143
 30
0.0
 11
272.452742332465
 21
-85.76207017273774
 31
0.0
  0
LINE
  5
306
330
1F
100
AcDbEntity
  8
0
100
AcDbLine
 10
274.751780438142
 20
105.4379298272625
 30
0.0
 11
274.3506109182331
 21
105.4907447965146
 31
0.0
  0
LINE
  5
307
330
1F
100
AcDbEntity
  8
0
100
AcDbLine
 10
274.3506109182331
 20
105.4907447965146
 30
0.0
 11
273.976780438142
 21
105.6455904513966
 31
0.0
  0
LINE
  5
308
330
1F
100
AcDbEntity
  8
0
100
AcDbLine
 10
273.976780438142
 20
105.6455904513966
 30
0.0
 11
273.6557649273029
 21
105.8919143164232
 31
0.0
  0
LINE
  5
309
330
1F
100
AcDbEntity
  8
0
100
AcDbLine
 10
273.6557649273029
 20
105.8919143164232
 30
0.0
 11
273.4094410622761
 21
106.2129298272626
 31
0.0
  0
LINE
  5
30A
330
1F
100
AcDbEntity
  8
0
100
AcDbLine
 10
273.4094410622761
 20
106.2129298272626
 30
0.0
 11
273.2545954073939
 21
106.5867603073535
 31
0.0
  0
LINE
  5
30B
330
1F
100
AcDbEntity
  8
0
100
AcDbLine
 10
273.2545954073939
 20
106.5867603073535
 30
0.0
 11
273.201780438142
 21
106.9879298272625
 31
0.0
  0
LINE
  5
30C
330
1F
100
AcDbEntity
  8
0
100
AcDbLine
 10
273.201780438142
 20
106.9879298272625
 30
0.0
 11
273.2545954073939
 21
107.3890993471714
 31
0.0
  0
LINE
  5
30D
330
1F
100
AcDbEntity
  8
0
100
AcDbLine
 10
273.2545954073939
 20
107.3890993471714
 30
0.0
 11
273.4094410622761
 21
107.7629298272627
 31
0.0
  0
LINE
  5
30E
330
1F
100
AcDbEntity
  8
0
100
AcDbLine
 10
273.4094410622761
 20
107.7629298272627
 30
0.0
 11
273.6557649273029
 21
108.0839453381017
 31
0.0
  0
LINE
  5
30F
330
1F
100
AcDbEntity
  8
0
100
AcDbLine
 10
273.6557649273029
 20
108.0839453381017
 30
0.0
 11
273.976780438142
 21
108.3302692031283
 31
0.0
  0
LINE
  5
310
330
1F
100
AcDbEntity
  8
0
100
AcDbLine
 10
273.976780438142
 20
108.3302692031283
 30
0.0
 11
274.3506109182331
 21
108.4851148580107
 31
0.0
  0
LINE
  5
311
330
1F
100
AcDbEntity
  8
0
100
AcDbLine
 10
274.3506109182331
 20
108.4851148580107
 30
0.0
 11
274.751780438142
 21
108.5379298272625
 31
0.0
  0
LINE
  5
312
330
1F
100
AcDbEntity
  8
0
100
AcDbLine
 10
274.751780438142
 20
108.5379298272625
 30
0.0
 11
275.152949958051
 21
108.4851148580107
 31
0.0
  0
LINE
  5
313
330
1F
100
AcDbEntity
  8
0
100
AcDbLine
 10
275.152949958051
 20
108.4851148580107
 30
0.0
 11
275.526780438142
 21
108.3302692031283
 31
0.0
  0
LINE
  5
314
330
1F
100
AcDbEntity
  8
0
100
AcDbLine
 10
275.526780438142
 20
108.3302692031283
 30
0.0
 11
275.8477959489812
 21
108.0839453381017
 31
0.0
  0
LINE
  5
315
330
1F
100
AcDbEntity
  8
0
100
AcDbLine
 10
275.8477959489812
 20
108.0839453381017
 30
0.0
 11
276.0941198140079
 21
107.7629298272627
 31
0.0
  0
LINE
  5
316
330
1F
100
AcDbEntity
  8
0
100
AcDbLine
 10
276.0941198140079
 20
107.7629298272627
 30
0.0
 11
276.2489654688901
 21
107.3890993471714
 31
0.0
  0
LINE
  5
317
330
1F
100
AcDbEntity
  8
0
100
AcDbLine
 10
276.2489654688901
 20
107.3890993471714
 30
0.0
 11
276.301780438142
 21
106.9879298272625
 31
0.0
  0
LINE
  5
318
330
1F
100
AcDbEntity
  8
0
100
AcDbLine
 10
276.301780438142
 20
106.9879298272625
 30
0.0
 11
276.2489654688901
 21
106.5867603073535
 31
0.0
  0
LINE
  5
319
330
1F
100
AcDbEntity
  8
0
100
AcDbLine
 10
276.2489654688901
 20
106.5867603073535
 30
0.0
 11
276.0941198140079
 21
106.2129298272626
 31
0.0
  0
LINE
  5
31A
330
1F
100
AcDbEntity
  8
0
100
AcDbLine
 10
276.0941198140079
 20
106.2129298272626
 30
0.0
 11
275.8477959489812
 21
105.8919143164232
 31
0.0
  0
LINE
  5
31B
330
1F
100
AcDbEntity
  8
0
100
AcDbLine
 10
275.8477959489812
 20
105.8919143164232
 30
0.0
 11
275.526780438142
 21
105.6455904513966
 31
0.0
  0
LINE
  5
31C
330
1F
100
AcDbEntity
  8
0
100
AcDbLine
 10
275.526780438142
 20
105.6455904513966
 30
0.0
 11
275.152949958051
 21
105.4907447965146
 31
0.0
  0
LINE
  5
31D
330
1F
100
AcDbEntity
  8
0
100
AcDbLine
 10
275.152949958051
 20
105.4907447965146
 30
0.0
 11
274.751780438142
 21
105.4379298272625
 31
0.0
  0
LINE
  5
31E
330
1F
100
AcDbEntity
  8
0
100
AcDbLine
 10
290.2517804381413
 20
64.4379298272624
 30
0.0
 11
289.8506109182324
 21
64.49074479651419
 31
0.0
  0
LINE
  5
31F
330
1F
100
AcDbEntity
  8
0
100
AcDbLine
 10
289.8506109182324
 20
64.49074479651419
 30
0.0
 11
289.4767804381413
 21
64.64559045139656
 31
0.0
  0
LINE
  5
320
330
1F
100
AcDbEntity
  8
0
100
AcDbLine
 10
289.4767804381413
 20
64.64559045139656
 30
0.0
 11
289.1557649273022
 21
64.89191431642315
 31
0.0
  0
LINE
  5
321
330
1F
100
AcDbEntity
  8
0
100
AcDbLine
 10
289.1557649273022
 20
64.89191431642315
 30
0.0
 11
288.9094410622754
 21
65.21292982726223
 31
0.0
  0
LINE
  5
322
330
1F
100
AcDbEntity
  8
0
100
AcDbLine
 10
288.9094410622754
 20
65.21292982726223
 30
0.0
 11
288.7545954073933
 21
65.58676030735343
 31
0.0
  0
LINE
  5
323
330
1F
100
AcDbEntity
  8
0
100
AcDbLine
 10
288.7545954073933
 20
65.58676030735343
 30
0.0
 11
288.7017804381413
 21
65.9879298272624
 31
0.0
  0
LINE
  5
324
330
1F
100
AcDbEntity
  8
0
100
AcDbLine
 10
288.7017804381413
 20
65.9879298272624
 30
0.0
 11
288.7545954073933
 21
66.38909934717138
 31
0.0
  0
LINE
  5
325
330
1F
100
AcDbEntity
  8
0
100
AcDbLine
 10
288.7545954073933
 20
66.38909934717138
 30
0.0
 11
288.9094410622754
 21
66.76292982726223
 31
0.0
  0
LINE
  5
326
330
1F
100
AcDbEntity
  8
0
100
AcDbLine
 10
288.9094410622754
 20
66.76292982726223
 30
0.0
 11
289.1557649273022
 21
67.08394533810166
 31
0.0
  0
LINE
  5
327
330
1F
100
AcDbEntity
  8
0
100
AcDbLine
 10
289.1557649273022
 20
67.08394533810166
 30
0.0
 11
289.4767804381413
 21
67.33026920312827
 31
0.0
  0
LINE
  5
328
330
1F
100
AcDbEntity
  8
0
100
AcDbLine
 10
289.4767804381413
 20
67.33026920312827
 30
0.0
 11
289.8506109182324
 21
67.48511485801026
 31
0.0
  0
LINE
  5
329
330
1F
100
AcDbEntity
  8
0
100
AcDbLine
 10
289.8506109182324
 20
67.48511485801026
 30
0.0
 11
290.2517804381413
 21
67.53792982726242
 31
0.0
  0
LINE
  5
32A
330
1F
100
AcDbEntity
  8
0
100
AcDbLine
 10
290.2517804381413
 20
67.53792982726242
 30
0.0
 11
290.6529499580503
 21
67.48511485801026
 31
0.0
  0
LINE
  5
32B
330
1F
100
AcDbEntity
  8
0
100
AcDbLine
 10
290.6529499580503
 20
67.48511485801026
 30
0.0
 11
291.0267804381413
 21
67.33026920312827
 31
0.0
  0
LINE
  5
32C
330
1F
100
AcDbEntity
  8
0
100
AcDbLine
 10
291.0267804381413
 20
67.33026920312827
 30
0.0
 11
291.3477959489805
 21
67.08394533810166
 31
0.0
  0
LINE
  5
32D
330
1F
100
AcDbEntity
  8
0
100
AcDbLine
 10
291.3477959489805
 20
67.08394533810166
 30
0.0
 11
291.5941198140072
 21
66.76292982726223
 31
0.0
  0
LINE
  5
32E
330
1F
100
AcDbEntity
  8
0
100
AcDbLine
 10
291.5941198140072
 20
66.76292982726223
 30
0.0
 11
291.7489654688894
 21
66.38909934717138
 31
0.0
  0
LINE
  5
32F
330
1F
100
AcDbEntity
  8
0
100
AcDbLine
 10
291.7489654688894
 20
66.38909934717138
 30
0.0
 11
291.8017804381413
 21
65.9879298272624
 31
0.0
  0
LINE
  5
330
330
1F
100
AcDbEntity
  8
0
100
AcDbLine
 10
291.8017804381413
 20
65.9879298272624
 30
0.0
 11
291.7489654688894
 21
65.58676030735343
 31
0.0
  0
LINE
  5
331
330
1F
100
AcDbEntity
  8
0
100
AcDbLine
 10
291.7489654688894
 20
65.58676030735343
 30
0.0
 11
291.5941198140072
 21
65.21292982726223
 31
0.0
  0
LINE
  5
332
330
1F
100
AcDbEntity
  8
0
100
AcDbLine
 10
291.5941198140072
 20
65.21292982726223
 30
0.0
 11
291.3477959489805
 21
64.89191431642315
 31
0.0
  0
LINE
  5
333
330
1F
100
AcDbEntity
  8
0
100
AcDbLine
 10
291.3477959489805
 20
64.89191431642315
 30
0.0
 11
291.0267804381413
 21
64.64559045139656
 31
0.0
  0
LINE
  5
334
330
1F
100
AcDbEntity
  8
0
100
AcDbLine
 10
291.0267804381413
 20
64.64559045139656
 30
0.0
 11
290.6529499580503
 21
64.49074479651419
 31
0.0
  0
LINE
  5
335
330
1F
100
AcDbEntity
  8
0
100
AcDbLine
 10
290.6529499580503
 20
64.49074479651419
 30
0.0
 11
290.2517804381413
 21
64.4379298272624
 31
0.0
  0
LINE
  5
336
330
1F
100
AcDbEntity
  8
0
100
AcDbLine
 10
291.5941198140072
 20
-17.23707017273779
 30
0.0
 11
291.7489654688894
 21
-17.61090065282865
 31
0.0
  0
LINE
  5
337
330
1F
100
AcDbEntity
  8
0
100
AcDbLine
 10
291.7489654688894
 20
-17.61090065282865
 30
0.0
 11
291.8017804381413
 21
-18.01207017273762
 31
0.0
  0
LINE
  5
338
330
1F
100
AcDbEntity
  8
0
100
AcDbLine
 10
291.8017804381413
 20
-18.01207017273762
 30
0.0
 11
291.7489654688894
 21
-18.41323969264659
 31
0.0
  0
LINE
  5
339
330
1F
100
AcDbEntity
  8
0
100
AcDbLine
 10
291.7489654688894
 20
-18.41323969264659
 30
0.0
 11
291.5941198140072
 21
-18.7870701727378
 31
0.0
  0
LINE
  5
33A
330
1F
100
AcDbEntity
  8
0
100
AcDbLine
 10
291.5941198140072
 20
-18.7870701727378
 30
0.0
 11
291.3477959489805
 21
-19.10808568357687
 31
0.0
  0
LINE
  5
33B
330
1F
100
AcDbEntity
  8
0
100
AcDbLine
 10
291.3477959489805
 20
-19.10808568357687
 30
0.0
 11
291.0267804381413
 21
-19.35440954860347
 31
0.0
  0
LINE
  5
33C
330
1F
100
AcDbEntity
  8
0
100
AcDbLine
 10
291.0267804381413
 20
-19.35440954860347
 30
0.0
 11
290.6529499580503
 21
-19.50925520348584
 31
0.0
  0
LINE
  5
33D
330
1F
100
AcDbEntity
  8
0
100
AcDbLine
 10
290.6529499580503
 20
-19.50925520348584
 30
0.0
 11
290.2517804381413
 21
-19.56207017273763
 31
0.0
  0
LINE
  5
33E
330
1F
100
AcDbEntity
  8
0
100
AcDbLine
 10
290.2517804381413
 20
-19.56207017273763
 30
0.0
 11
289.8506109182324
 21
-19.50925520348584
 31
0.0
  0
LINE
  5
33F
330
1F
100
AcDbEntity
  8
0
100
AcDbLine
 10
289.8506109182324
 20
-19.50925520348584
 30
0.0
 11
289.4767804381413
 21
-19.35440954860347
 31
0.0
  0
LINE
  5
340
330
1F
100
AcDbEntity
  8
0
100
AcDbLine
 10
289.4767804381413
 20
-19.35440954860347
 30
0.0
 11
289.1557649273022
 21
-19.10808568357687
 31
0.0
  0
LINE
  5
341
330
1F
100
AcDbEntity
  8
0
100
AcDbLine
 10
289.1557649273022
 20
-19.10808568357687
 30
0.0
 11
288.9094410622754
 21
-18.7870701727378
 31
0.0
  0
LINE
  5
342
330
1F
100
AcDbEntity
  8
0
100
AcDbLine
 10
288.9094410622754
 20
-18.7870701727378
 30
0.0
 11
288.7545954073933
 21
-18.41323969264659
 31
0.0
  0
LINE
  5
343
330
1F
100
AcDbEntity
  8
0
100
AcDbLine
 10
288.7545954073933
 20
-18.41323969264659
 30
0.0
 11
288.7017804381413
 21
-18.01207017273762
 31
0.0
  0
LINE
  5
344
330
1F
100
AcDbEntity
  8
0
100
AcDbLine
 10
288.7017804381413
 20
-18.01207017273762
 30
0.0
 11
288.7545954073933
 21
-17.61090065282865
 31
0.0
  0
LINE
  5
345
330
1F
100
AcDbEntity
  8
0
100
AcDbLine
 10
288.7545954073933
 20
-17.61090065282865
 30
0.0
 11
288.9094410622754
 21
-17.23707017273779
 31
0.0
  0
LINE
  5
346
330
1F
100
AcDbEntity
  8
0
100
AcDbLine
 10
288.9094410622754
 20
-17.23707017273779
 30
0.0
 11
289.1557649273022
 21
-16.91605466189837
 31
0.0
  0
LINE
  5
347
330
1F
100
AcDbEntity
  8
0
100
AcDbLine
 10
289.1557649273022
 20
-16.91605466189837
 30
0.0
 11
289.4767804381413
 21
-16.66973079687176
 31
0.0
  0
LINE
  5
348
330
1F
100
AcDbEntity
  8
0
100
AcDbLine
 10
289.4767804381413
 20
-16.66973079687176
 30
0.0
 11
289.8506109182324
 21
-16.5148851419894
 31
0.0
  0
LINE
  5
349
330
1F
100
AcDbEntity
  8
0
100
AcDbLine
 10
289.8506109182324
 20
-16.5148851419894
 30
0.0
 11
290.2517804381413
 21
-16.46207017273761
 31
0.0
  0
LINE
  5
34A
330
1F
100
AcDbEntity
  8
0
100
AcDbLine
 10
290.2517804381413
 20
-16.46207017273761
 30
0.0
 11
290.6529499580503
 21
-16.5148851419894
 31
0.0
  0
LINE
  5
34B
330
1F
100
AcDbEntity
  8
0
100
AcDbLine
 10
290.6529499580503
 20
-16.5148851419894
 30
0.0
 11
291.0267804381413
 21
-16.66973079687176
 31
0.0
  0
LINE
  5
34C
330
1F
100
AcDbEntity
  8
0
100
AcDbLine
 10
291.0267804381413
 20
-16.66973079687176
 30
0.0
 11
291.3477959489805
 21
-16.91605466189837
 31
0.0
  0
LINE
  5
34D
330
1F
100
AcDbEntity
  8
0
100
AcDbLine
 10
291.3477959489805
 20
-16.91605466189837
 30
0.0
 11
291.5941198140072
 21
-17.23707017273779
 31
0.0
  0
LINE
  5
34E
330
1F
100
AcDbEntity
  8
0
100
AcDbLine
 10
289.4767804381413
 20
-103.3544095486031
 30
0.0
 11
289.1557649273022
 21
-103.1080856835765
 31
0.0
  0
LINE
  5
34F
330
1F
100
AcDbEntity
  8
0
100
AcDbLine
 10
289.1557649273022
 20
-103.1080856835765
 30
0.0
 11
288.9094410622754
 21
-102.7870701727371
 31
0.0
  0
LINE
  5
350
330
1F
100
AcDbEntity
  8
0
100
AcDbLine
 10
288.9094410622754
 20
-102.7870701727371
 30
0.0
 11
288.7545954073933
 21
-102.4132396926463
 31
0.0
  0
LINE
  5
351
330
1F
100
AcDbEntity
  8
0
100
AcDbLine
 10
288.7545954073933
 20
-102.4132396926463
 30
0.0
 11
288.7017804381413
 21
-102.0120701727373
 31
0.0
  0
LINE
  5
352
330
1F
100
AcDbEntity
  8
0
100
AcDbLine
 10
288.7017804381413
 20
-102.0120701727373
 30
0.0
 11
288.7545954073933
 21
-101.6109006528283
 31
0.0
  0
LINE
  5
353
330
1F
100
AcDbEntity
  8
0
100
AcDbLine
 10
288.7545954073933
 20
-101.6109006528283
 30
0.0
 11
288.9094410622754
 21
-101.2370701727371
 31
0.0
  0
LINE
  5
354
330
1F
100
AcDbEntity
  8
0
100
AcDbLine
 10
288.9094410622754
 20
-101.2370701727371
 30
0.0
 11
289.1557649273022
 21
-100.916054661898
 31
0.0
  0
LINE
  5
355
330
1F
100
AcDbEntity
  8
0
100
AcDbLine
 10
289.1557649273022
 20
-100.916054661898
 30
0.0
 11
289.4767804381413
 21
-100.6697307968714
 31
0.0
  0
LINE
  5
356
330
1F
100
AcDbEntity
  8
0
100
AcDbLine
 10
289.4767804381413
 20
-100.6697307968714
 30
0.0
 11
289.8506109182324
 21
-100.5148851419891
 31
0.0
  0
LINE
  5
357
330
1F
100
AcDbEntity
  8
0
100
AcDbLine
 10
289.8506109182324
 20
-100.5148851419891
 30
0.0
 11
290.2517804381413
 21
-100.4620701727373
 31
0.0
  0
LINE
  5
358
330
1F
100
AcDbEntity
  8
0
100
AcDbLine
 10
290.2517804381413
 20
-100.4620701727373
 30
0.0
 11
290.6529499580503
 21
-100.5148851419891
 31
0.0
  0
LINE
  5
359
330
1F
100
AcDbEntity
  8
0
100
AcDbLine
 10
290.6529499580503
 20
-100.5148851419891
 30
0.0
 11
291.0267804381413
 21
-100.6697307968714
 31
0.0
  0
LINE
  5
35A
330
1F
100
AcDbEntity
  8
0
100
AcDbLine
 10
291.0267804381413
 20
-100.6697307968714
 30
0.0
 11
291.3477959489805
 21
-100.916054661898
 31
0.0
  0
LINE
  5
35B
330
1F
100
AcDbEntity
  8
0
100
AcDbLine
 10
291.3477959489805
 20
-100.916054661898
 30
0.0
 11
291.5941198140072
 21
-101.2370701727371
 31
0.0
  0
LINE
  5
35C
330
1F
100
AcDbEntity
  8
0
100
AcDbLine
 10
291.5941198140072
 20
-101.2370701727371
 30
0.0
 11
291.7489654688894
 21
-101.6109006528283
 31
0.0
  0
LINE
  5
35D
330
1F
100
AcDbEntity
  8
0
100
AcDbLine
 10
291.7489654688894
 20
-101.6109006528283
 30
0.0
 11
291.8017804381413
 21
-102.0120701727373
 31
0.0
  0
LINE
  5
35E
330
1F
100
AcDbEntity
  8
0
100
AcDbLine
 10
291.8017804381413
 20
-102.0120701727373
 30
0.0
 11
291.7489654688894
 21
-102.4132396926463
 31
0.0
  0
LINE
  5
35F
330
1F
100
AcDbEntity
  8
0
100
AcDbLine
 10
291.7489654688894
 20
-102.4132396926463
 30
0.0
 11
291.5941198140072
 21
-102.7870701727371
 31
0.0
  0
LINE
  5
360
330
1F
100
AcDbEntity
  8
0
100
AcDbLine
 10
291.5941198140072
 20
-102.7870701727371
 30
0.0
 11
291.3477959489805
 21
-103.1080856835765
 31
0.0
  0
LINE
  5
361
330
1F
100
AcDbEntity
  8
0
100
AcDbLine
 10
291.3477959489805
 20
-103.1080856835765
 30
0.0
 11
291.0267804381413
 21
-103.3544095486031
 31
0.0
  0
LINE
  5
362
330
1F
100
AcDbEntity
  8
0
100
AcDbLine
 10
291.0267804381413
 20
-103.3544095486031
 30
0.0
 11
290.6529499580503
 21
-103.5092552034851
 31
0.0
  0
LINE
  5
363
330
1F
100
AcDbEntity
  8
0
100
AcDbLine
 10
290.6529499580503
 20
-103.5092552034851
 30
0.0
 11
290.2517804381413
 21
-103.5620701727373
 31
0.0
  0
LINE
  5
364
330
1F
100
AcDbEntity
  8
0
100
AcDbLine
 10
290.2517804381413
 20
-103.5620701727373
 30
0.0
 11
289.8506109182324
 21
-103.5092552034851
 31
0.0
  0
LINE
  5
365
330
1F
100
AcDbEntity
  8
0
100
AcDbLine
 10
289.8506109182324
 20
-103.5092552034851
 30
0.0
 11
289.4767804381413
 21
-103.3544095486031
 31
0.0
  0
LINE
  5
366
330
1F
100
AcDbEntity
  8
0
100
AcDbLine
 10
273.6557649273029
 20
-141.9160546618985
 30
0.0
 11
273.976780438142
 21
-141.6697307968715
 31
0.0
  0
LINE
  5
367
330
1F
100
AcDbEntity
  8
0
100
AcDbLine
 10
273.976780438142
 20
-141.6697307968715
 30
0.0
 11
274.3506109182331
 21
-141.5148851419895
 31
0.0
  0
LINE
  5
368
330
1F
100
AcDbEntity
  8
0
100
AcDbLine
 10
274.3506109182331
 20
-141.5148851419895
 30
0.0
 11
274.751780438142
 21
-141.4620701727373
 31
0.0
  0
LINE
  5
369
330
1F
100
AcDbEntity
  8
0
100
AcDbLine
 10
274.751780438142
 20
-141.4620701727373
 30
0.0
 11
275.152949958051
 21
-141.5148851419895
 31
0.0
  0
LINE
  5
36A
330
1F
100
AcDbEntity
  8
0
100
AcDbLine
 10
275.152949958051
 20
-141.5148851419895
 30
0.0
 11
275.526780438142
 21
-141.6697307968715
 31
0.0
  0
LINE
  5
36B
330
1F
100
AcDbEntity
  8
0
100
AcDbLine
 10
275.526780438142
 20
-141.6697307968715
 30
0.0
 11
275.8477959489812
 21
-141.9160546618985
 31
0.0
  0
LINE
  5
36C
330
1F
100
AcDbEntity
  8
0
100
AcDbLine
 10
275.8477959489812
 20
-141.9160546618985
 30
0.0
 11
276.0941198140079
 21
-142.2370701727375
 31
0.0
  0
LINE
  5
36D
330
1F
100
AcDbEntity
  8
0
100
AcDbLine
 10
276.0941198140079
 20
-142.2370701727375
 30
0.0
 11
276.24896546889
 21
-142.6109006528287
 31
0.0
  0
LINE
  5
36E
330
1F
100
AcDbEntity
  8
0
100
AcDbLine
 10
276.24896546889
 20
-142.6109006528287
 30
0.0
 11
276.301780438142
 21
-143.0120701727373
 31
0.0
  0
LINE
  5
36F
330
1F
100
AcDbEntity
  8
0
100
AcDbLine
 10
276.301780438142
 20
-143.0120701727373
 30
0.0
 11
276.24896546889
 21
-143.4132396926463
 31
0.0
  0
LINE
  5
370
330
1F
100
AcDbEntity
  8
0
100
AcDbLine
 10
276.24896546889
 20
-143.4132396926463
 30
0.0
 11
276.0941198140079
 21
-143.7870701727375
 31
0.0
  0
LINE
  5
371
330
1F
100
AcDbEntity
  8
0
100
AcDbLine
 10
276.0941198140079
 20
-143.7870701727375
 30
0.0
 11
275.8477959489812
 21
-144.1080856835766
 31
0.0
  0
LINE
  5
372
330
1F
100
AcDbEntity
  8
0
100
AcDbLine
 10
275.8477959489812
 20
-144.1080856835766
 30
0.0
 11
275.526780438142
 21
-144.3544095486032
 31
0.0
  0
LINE
  5
373
330
1F
100
AcDbEntity
  8
0
100
AcDbLine
 10
275.526780438142
 20
-144.3544095486032
 30
0.0
 11
275.152949958051
 21
-144.5092552034856
 31
0.0
  0
LINE
  5
374
330
1F
100
AcDbEntity
  8
0
100
AcDbLine
 10
275.152949958051
 20
-144.5092552034856
 30
0.0
 11
274.751780438142
 21
-144.5620701727374
 31
0.0
  0
LINE
  5
375
330
1F
100
AcDbEntity
  8
0
100
AcDbLine
 10
274.751780438142
 20
-144.5620701727374
 30
0.0
 11
274.3506109182331
 21
-144.5092552034856
 31
0.0
  0
LINE
  5
376
330
1F
100
AcDbEntity
  8
0
100
AcDbLine
 10
274.3506109182331
 20
-144.5092552034856
 30
0.0
 11
273.976780438142
 21
-144.3544095486032
 31
0.0
  0
LINE
  5
377
330
1F
100
AcDbEntity
  8
0
100
AcDbLine
 10
273.976780438142
 20
-144.3544095486032
 30
0.0
 11
273.6557649273029
 21
-144.1080856835766
 31
0.0
  0
LINE
  5
378
330
1F
100
AcDbEntity
  8
0
100
AcDbLine
 10
17.80145802624882
 20
-143.0436830327424
 30
0.0
 11
17.74047203267623
 21
-143.44369192423
 31
0.0
  0
LINE
  5
379
330
1F
100
AcDbEntity
  8
0
100
AcDbLine
 10
16.99924169234442
 20
-144.3699367617164
 30
0.0
 11
16.62233083379036
 21
-144.5171257877512
 31
0.0
  0
LINE
  5
37A
330
1F
100
AcDbEntity
  8
0
100
AcDbLine
 10
15.44956410423704
 20
-144.3383239017113
 30
0.0
 11
15.13363923925558
 21
-144.0855040362585
 31
0.0
  0
LINE
  5
37B
330
1F
100
AcDbEntity
  8
0
100
AcDbLine
 10
16.68340218963398
 20
-141.5233785782028
 30
0.0
 11
17.05399677204585
 21
-141.6858164437637
 31
0.0
  0
LINE
  5
37C
330
1F
100
AcDbEntity
  8
0
100
AcDbLine
 10
1.713902245038172
 20
-97.49758030714459
 30
0.0
 11
1.797241428331066
 21
-97.8935360940819
 31
0.0
  0
LINE
  5
37D
330
1F
100
AcDbEntity
  8
0
100
AcDbLine
 10
1.797241428331066
 20
-97.8935360940819
 30
0.0
 11
1.775259999137593
 21
-98.29756978259275
 31
0.0
  0
LINE
  5
37E
330
1F
100
AcDbEntity
  8
0
100
AcDbLine
 10
1.775259999137593
 20
-98.29756978259275
 30
0.0
 11
1.649455955531257
 21
-98.68214714450217
 31
0.0
  0
LINE
  5
37F
330
1F
100
AcDbEntity
  8
0
100
AcDbLine
 10
1.649455955531257
 20
-98.68214714450217
 30
0.0
 11
1.428402635182823
 21
-99.02105986814077
 31
0.0
  0
LINE
  5
380
330
1F
100
AcDbEntity
  8
0
100
AcDbLine
 10
1.428402635182823
 20
-99.02105986814077
 30
0.0
 11
1.127164456566148
 21
-99.2912116114715
 31
0.0
  0
LINE
  5
381
330
1F
100
AcDbEntity
  8
0
100
AcDbLine
 10
1.127164456566148
 20
-99.2912116114715
 30
0.0
 11
0.7662703037343312
 21
-99.47419197963401
 31
0.0
  0
LINE
  5
382
330
1F
100
AcDbEntity
  8
0
100
AcDbLine
 10
0.7662703037343312
 20
-99.47419197963401
 30
0.0
 11
0.3703145167970778
 21
-99.55753116292671
 31
0.0
  0
LINE
  5
383
330
1F
100
AcDbEntity
  8
0
100
AcDbLine
 10
0.3703145167970778
 20
-99.55753116292671
 30
0.0
 11
-0.0337191717137188
 21
-99.53554973373329
 31
0.0
  0
LINE
  5
384
330
1F
100
AcDbEntity
  8
0
100
AcDbLine
 10
-0.0337191717137188
 20
-99.53554973373329
 30
0.0
 11
-0.4182965336232871
 21
-99.40974569012708
 31
0.0
  0
LINE
  5
385
330
1F
100
AcDbEntity
  8
0
100
AcDbLine
 10
-0.4182965336232871
 20
-99.40974569012708
 30
0.0
 11
-0.7572092572616279
 21
-99.1886923697784
 31
0.0
  0
LINE
  5
386
330
1F
100
AcDbEntity
  8
0
100
AcDbLine
 10
-0.7572092572616279
 20
-99.1886923697784
 30
0.0
 11
-1.027361000592548
 21
-98.88745419116202
 31
0.0
  0
LINE
  5
387
330
1F
100
AcDbEntity
  8
0
100
AcDbLine
 10
-1.027361000592548
 20
-98.88745419116202
 30
0.0
 11
-1.210341368754908
 21
-98.52656003832999
 31
0.0
  0
LINE
  5
388
330
1F
100
AcDbEntity
  8
0
100
AcDbLine
 10
-1.210341368754908
 20
-98.52656003832999
 30
0.0
 11
-1.293680552047799
 21
-98.1306042513927
 31
0.0
  0
LINE
  5
389
330
1F
100
AcDbEntity
  8
0
100
AcDbLine
 10
-1.293680552047799
 20
-98.1306042513927
 30
0.0
 11
-1.271699122854326
 21
-97.7265705628822
 31
0.0
  0
LINE
  5
38A
330
1F
100
AcDbEntity
  8
0
100
AcDbLine
 10
-1.271699122854326
 20
-97.7265705628822
 30
0.0
 11
-1.145895079247993
 21
-97.34199320097242
 31
0.0
  0
LINE
  5
38B
330
1F
100
AcDbEntity
  8
0
100
AcDbLine
 10
-1.145895079247993
 20
-97.34199320097242
 30
0.0
 11
-0.9248417588995564
 21
-97.00308047733418
 31
0.0
  0
LINE
  5
38C
330
1F
100
AcDbEntity
  8
0
100
AcDbLine
 10
-0.9248417588995564
 20
-97.00308047733418
 30
0.0
 11
-0.6236035802828818
 21
-96.73292873400308
 31
0.0
  0
LINE
  5
38D
330
1F
100
AcDbEntity
  8
0
100
AcDbLine
 10
1.594119814007521
 20
-18.78707017273744
 30
0.0
 11
1.347795948980789
 21
-19.1080856835765
 31
0.0
  0
LINE
  5
38E
330
1F
100
AcDbEntity
  8
0
100
AcDbLine
 10
1.026780438141637
 20
-19.35440954860312
 30
0.0
 11
0.6529499580505441
 21
-19.50925520348548
 31
0.0
  0
LINE
  5
38F
330
1F
100
AcDbEntity
  8
0
100
AcDbLine
 10
1.594119814007521
 20
-17.23707017273744
 30
0.0
 11
1.748965468889697
 21
-17.61090065282828
 31
0.0
  0
LINE
  5
390
330
1F
100
AcDbEntity
  8
0
100
AcDbLine
 10
1.748965468889697
 20
-18.41323969264623
 30
0.0
 11
1.594119814007521
 21
-18.78707017273744
 31
0.0
  0
LINE
  5
391
330
1F
100
AcDbEntity
  8
0
100
AcDbLine
 10
-1.090558937724254
 20
62.76292982726242
 30
0.0
 11
-0.8442350726975221
 21
63.08394533810149
 31
0.0
  0
LINE
  5
392
330
1F
100
AcDbEntity
  8
0
100
AcDbLine
 10
-0.5232195618583709
 20
63.33026920312845
 30
0.0
 11
-0.1493890817672776
 21
63.48511485801045
 31
0.0
  0
LINE
  5
393
330
1F
100
AcDbEntity
  8
0
100
AcDbLine
 10
-0.1493890817672776
 20
63.48511485801045
 30
0.0
 11
0.2517804381416333
 21
63.5379298272626
 31
0.0
  0
LINE
  5
394
330
1F
100
AcDbEntity
  8
0
100
AcDbLine
 10
0.2517804381416333
 20
63.5379298272626
 30
0.0
 11
0.6529499580505413
 21
63.48511485801045
 31
0.0
  0
LINE
  5
395
330
1F
100
AcDbEntity
  8
0
100
AcDbLine
 10
0.6529499580505413
 20
63.48511485801045
 30
0.0
 11
1.026780438141637
 21
63.33026920312845
 31
0.0
  0
LINE
  5
396
330
1F
100
AcDbEntity
  8
0
100
AcDbLine
 10
1.026780438141637
 20
63.33026920312845
 30
0.0
 11
1.347795948980786
 21
63.08394533810149
 31
0.0
  0
LINE
  5
397
330
1F
100
AcDbEntity
  8
0
100
AcDbLine
 10
1.347795948980786
 20
63.08394533810149
 30
0.0
 11
1.594119814007521
 21
62.76292982726242
 31
0.0
  0
LINE
  5
398
330
1F
100
AcDbEntity
  8
0
100
AcDbLine
 10
1.594119814007521
 20
62.76292982726242
 30
0.0
 11
1.748965468889697
 21
62.38909934717157
 31
0.0
  0
LINE
  5
399
330
1F
100
AcDbEntity
  8
0
100
AcDbLine
 10
1.748965468889697
 20
62.38909934717157
 30
0.0
 11
1.801780438141642
 21
61.9879298272626
 31
0.0
  0
LINE
  5
39A
330
1F
100
AcDbEntity
  8
0
100
AcDbLine
 10
1.801780438141642
 20
61.9879298272626
 30
0.0
 11
1.748965468889697
 21
61.58676030735362
 31
0.0
  0
LINE
  5
39B
330
1F
100
AcDbEntity
  8
0
100
AcDbLine
 10
1.748965468889697
 20
61.58676030735362
 30
0.0
 11
1.594119814007521
 21
61.21292982726241
 31
0.0
  0
LINE
  5
39C
330
1F
100
AcDbEntity
  8
0
100
AcDbLine
 10
1.594119814007521
 20
61.21292982726241
 30
0.0
 11
1.347795948980789
 21
60.89191431642335
 31
0.0
  0
LINE
  5
39D
330
1F
100
AcDbEntity
  8
0
100
AcDbLine
 10
1.347795948980789
 20
60.89191431642335
 30
0.0
 11
1.026780438141637
 21
60.64559045139674
 31
0.0
  0
LINE
  5
39E
330
1F
100
AcDbEntity
  8
0
100
AcDbLine
 10
1.026780438141637
 20
60.64559045139674
 30
0.0
 11
0.6529499580505441
 21
60.49074479651438
 31
0.0
  0
LINE
  5
39F
330
1F
100
AcDbEntity
  8
0
100
AcDbLine
 10
0.6529499580505441
 20
60.49074479651438
 30
0.0
 11
0.2517804381416333
 21
60.43792982726259
 31
0.0
  0
LINE
  5
3A0
330
1F
100
AcDbEntity
  8
0
100
AcDbLine
 10
0.2517804381416333
 20
60.43792982726259
 30
0.0
 11
-0.1493890817672776
 21
60.49074479651438
 31
0.0
  0
LINE
  5
3A1
330
1F
100
AcDbEntity
  8
0
100
AcDbLine
 10
-0.1493890817672776
 20
60.49074479651438
 30
0.0
 11
-0.5232195618583709
 21
60.64559045139674
 31
0.0
  0
LINE
  5
3A2
330
1F
100
AcDbEntity
  8
0
100
AcDbLine
 10
-0.5232195618583709
 20
60.64559045139674
 30
0.0
 11
-0.8442350726975221
 21
60.89191431642335
 31
0.0
  0
LINE
  5
3A3
330
1F
100
AcDbEntity
  8
0
100
AcDbLine
 10
-0.8442350726975221
 20
60.89191431642335
 30
0.0
 11
-1.090558937724254
 21
61.21292982726241
 31
0.0
  0
LINE
  5
3A4
330
1F
100
AcDbEntity
  8
0
100
AcDbLine
 10
-1.090558937724254
 20
61.21292982726241
 30
0.0
 11
-1.24540459260643
 21
61.58676030735362
 31
0.0
  0
LINE
  5
3A5
330
1F
100
AcDbEntity
  8
0
100
AcDbLine
 10
-1.24540459260643
 20
61.58676030735362
 30
0.0
 11
-1.298219561858375
 21
61.9879298272626
 31
0.0
  0
LINE
  5
3A6
330
1F
100
AcDbEntity
  8
0
100
AcDbLine
 10
-1.298219561858375
 20
61.9879298272626
 30
0.0
 11
-1.24540459260643
 21
62.38909934717157
 31
0.0
  0
LINE
  5
3A7
330
1F
100
AcDbEntity
  8
0
100
AcDbLine
 10
-1.24540459260643
 20
62.38909934717157
 30
0.0
 11
-1.090558937724254
 21
62.76292982726242
 31
0.0
  0
LINE
  5
3A8
330
1F
100
AcDbEntity
  8
0
100
AcDbLine
 10
14.79985114467241
 20
106.4453422059833
 30
0.0
 11
14.70889242561013
 21
106.8396173841361
 31
0.0
  0
LINE
  5
3A9
330
1F
100
AcDbEntity
  8
0
100
AcDbLine
 10
14.70889242561013
 20
106.8396173841361
 30
0.0
 11
14.72307897485888
 21
107.2439998101904
 31
0.0
  0
LINE
  5
3AA
330
1F
100
AcDbEntity
  8
0
100
AcDbLine
 10
14.72307897485888
 20
107.2439998101904
 30
0.0
 11
14.84144400253175
 21
107.6309314900838
 31
0.0
  0
LINE
  5
3AB
330
1F
100
AcDbEntity
  8
0
100
AcDbLine
 10
14.84144400253175
 20
107.6309314900838
 30
0.0
 11
15.05592112760028
 21
107.9740436692661
 31
0.0
  0
LINE
  5
3AC
330
1F
100
AcDbEntity
  8
0
100
AcDbLine
 10
15.05592112760028
 20
107.9740436692661
 30
0.0
 11
15.35189408843127
 21
108.2499538197462
 31
0.0
  0
LINE
  5
3AD
330
1F
100
AcDbEntity
  8
0
100
AcDbLine
 10
15.35189408843127
 20
108.2499538197462
 30
0.0
 11
15.70919281686253
 21
108.439859120732
 31
0.0
  0
LINE
  5
3AE
330
1F
100
AcDbEntity
  8
0
100
AcDbLine
 10
15.70919281686253
 20
108.439859120732
 30
0.0
 11
16.10346799501552
 21
108.530817839794
 31
0.0
  0
LINE
  5
3AF
330
1F
100
AcDbEntity
  8
0
100
AcDbLine
 10
16.10346799501552
 20
108.530817839794
 30
0.0
 11
16.50785042106968
 21
108.5166312905453
 31
0.0
  0
LINE
  5
3B0
330
1F
100
AcDbEntity
  8
0
100
AcDbLine
 10
16.50785042106968
 20
108.5166312905453
 30
0.0
 11
16.89478210096295
 21
108.3982662628726
 31
0.0
  0
LINE
  5
3B1
330
1F
100
AcDbEntity
  8
0
100
AcDbLine
 10
16.89478210096295
 20
108.3982662628726
 30
0.0
 11
17.23789428014545
 21
108.1837891378041
 31
0.0
  0
LINE
  5
3B2
330
1F
100
AcDbEntity
  8
0
100
AcDbLine
 10
17.23789428014545
 20
108.1837891378041
 30
0.0
 11
17.51380443062558
 21
107.8878161769731
 31
0.0
  0
LINE
  5
3B3
330
1F
100
AcDbEntity
  8
0
100
AcDbLine
 10
17.51380443062558
 20
107.8878161769731
 30
0.0
 11
17.70370973161119
 21
107.5305174485416
 31
0.0
  0
LINE
  5
3B4
330
1F
100
AcDbEntity
  8
0
100
AcDbLine
 10
17.70370973161119
 20
107.5305174485416
 30
0.0
 11
17.79466845067348
 21
107.1362422703888
 31
0.0
  0
LINE
  5
3B5
330
1F
100
AcDbEntity
  8
0
100
AcDbLine
 10
17.79466845067348
 20
107.1362422703888
 30
0.0
 11
17.78048190142473
 21
106.7318598443345
 31
0.0
  0
LINE
  5
3B6
330
1F
100
AcDbEntity
  8
0
100
AcDbLine
 10
17.78048190142473
 20
106.7318598443345
 30
0.0
 11
17.66211687375186
 21
106.3449281644411
 31
0.0
  0
LINE
  5
3B7
330
1F
100
AcDbEntity
  8
0
100
AcDbLine
 10
17.66211687375186
 20
106.3449281644411
 30
0.0
 11
17.44763974868333
 21
106.0018159852589
 31
0.0
  0
LINE
  5
3B8
330
1F
100
AcDbEntity
  8
0
100
AcDbLine
 10
17.44763974868333
 20
106.0018159852589
 30
0.0
 11
17.15166678785234
 21
105.7259058347787
 31
0.0
  0
LINE
  5
3B9
330
1F
100
AcDbEntity
  8
0
100
AcDbLine
 10
17.15166678785234
 20
105.7259058347787
 30
0.0
 11
16.79436805942109
 21
105.5360005337929
 31
0.0
  0
LINE
  5
3BA
330
1F
100
AcDbEntity
  8
0
100
AcDbLine
 10
16.79436805942109
 20
105.5360005337929
 30
0.0
 11
16.40009288126809
 21
105.4450418147309
 31
0.0
  0
LINE
  5
3BB
330
1F
100
AcDbEntity
  8
0
100
AcDbLine
 10
16.40009288126809
 20
105.4450418147309
 30
0.0
 11
15.99571045521394
 21
105.4592283639797
 31
0.0
  0
LINE
  5
3BC
330
1F
100
AcDbEntity
  8
0
100
AcDbLine
 10
15.99571045521394
 20
105.4592283639797
 30
0.0
 11
15.60877877532067
 21
105.5775933916524
 31
0.0
  0
LINE
  5
3BD
330
1F
100
AcDbEntity
  8
0
100
AcDbLine
 10
15.60877877532067
 20
105.5775933916524
 30
0.0
 11
15.26566659613816
 21
105.7920705167209
 31
0.0
  0
LINE
  5
3BE
330
1F
100
AcDbEntity
  8
0
100
AcDbLine
 10
15.26566659613816
 20
105.7920705167209
 30
0.0
 11
14.98975644565803
 21
106.0880434775518
 31
0.0
  0
LINE
  5
3BF
330
1F
100
AcDbEntity
  8
0
100
AcDbLine
 10
14.98975644565803
 20
106.0880434775518
 30
0.0
 11
14.79985114467241
 21
106.4453422059833
 31
0.0
  0
LINE
  5
3C0
330
1F
100
AcDbEntity
  8
0
100
AcDbLine
 10
122.9767804381416
 20
-78.66973079687173
 30
0.0
 11
123.3506109182327
 21
-78.51488514198937
 31
0.0
  0
LINE
  5
3C1
330
1F
100
AcDbEntity
  8
0
100
AcDbLine
 10
123.3506109182327
 20
-78.51488514198937
 30
0.0
 11
123.7517804381417
 21
-78.46207017273758
 31
0.0
  0
LINE
  5
3C2
330
1F
100
AcDbEntity
  8
0
100
AcDbLine
 10
123.7517804381417
 20
-78.46207017273758
 30
0.0
 11
124.1529499580506
 21
-78.51488514198937
 31
0.0
  0
LINE
  5
3C3
330
1F
100
AcDbEntity
  8
0
100
AcDbLine
 10
124.1529499580506
 20
-78.51488514198937
 30
0.0
 11
124.5267804381417
 21
-78.66973079687173
 31
0.0
  0
LINE
  5
3C4
330
1F
100
AcDbEntity
  8
0
100
AcDbLine
 10
124.5267804381417
 20
-78.66973079687173
 30
0.0
 11
124.8477959489808
 21
-78.91605466189834
 31
0.0
  0
LINE
  5
3C5
330
1F
100
AcDbEntity
  8
0
100
AcDbLine
 10
124.8477959489808
 20
-78.91605466189834
 30
0.0
 11
125.0941198140075
 21
-79.2370701727374
 31
0.0
  0
LINE
  5
3C6
330
1F
100
AcDbEntity
  8
0
100
AcDbLine
 10
125.0941198140075
 20
-79.2370701727374
 30
0.0
 11
125.2489654688897
 21
-79.61090065282862
 31
0.0
  0
LINE
  5
3C7
330
1F
100
AcDbEntity
  8
0
100
AcDbLine
 10
125.2489654688897
 20
-79.61090065282862
 30
0.0
 11
125.3017804381417
 21
-80.0120701727376
 31
0.0
  0
LINE
  5
3C8
330
1F
100
AcDbEntity
  8
0
100
AcDbLine
 10
125.3017804381417
 20
-80.0120701727376
 30
0.0
 11
125.2489654688897
 21
-80.4132396926462
 31
0.0
  0
LINE
  5
3C9
330
1F
100
AcDbEntity
  8
0
100
AcDbLine
 10
125.2489654688897
 20
-80.4132396926462
 30
0.0
 11
125.0941198140075
 21
-80.78707017273742
 31
0.0
  0
LINE
  5
3CA
330
1F
100
AcDbEntity
  8
0
100
AcDbLine
 10
125.0941198140075
 20
-80.78707017273742
 30
0.0
 11
124.8477959489808
 21
-81.10808568357648
 31
0.0
  0
LINE
  5
3CB
330
1F
100
AcDbEntity
  8
0
100
AcDbLine
 10
124.8477959489808
 20
-81.10808568357648
 30
0.0
 11
124.5267804381417
 21
-81.35440954860346
 31
0.0
  0
LINE
  5
3CC
330
1F
100
AcDbEntity
  8
0
100
AcDbLine
 10
124.5267804381417
 20
-81.35440954860346
 30
0.0
 11
124.1529499580506
 21
-81.50925520348545
 31
0.0
  0
LINE
  5
3CD
330
1F
100
AcDbEntity
  8
0
100
AcDbLine
 10
124.1529499580506
 20
-81.50925520348545
 30
0.0
 11
123.7517804381417
 21
-81.5620701727376
 31
0.0
  0
LINE
  5
3CE
330
1F
100
AcDbEntity
  8
0
100
AcDbLine
 10
123.7517804381417
 20
-81.5620701727376
 30
0.0
 11
123.3506109182327
 21
-81.50925520348545
 31
0.0
  0
LINE
  5
3CF
330
1F
100
AcDbEntity
  8
0
100
AcDbLine
 10
123.3506109182327
 20
-81.50925520348545
 30
0.0
 11
122.9767804381416
 21
-81.35440954860346
 31
0.0
  0
LINE
  5
3D0
330
1F
100
AcDbEntity
  8
0
100
AcDbLine
 10
122.9767804381416
 20
-81.35440954860346
 30
0.0
 11
122.6557649273025
 21
-81.10808568357648
 31
0.0
  0
LINE
  5
3D1
330
1F
100
AcDbEntity
  8
0
100
AcDbLine
 10
122.6557649273025
 20
-81.10808568357648
 30
0.0
 11
122.4094410622758
 21
-80.78707017273742
 31
0.0
  0
LINE
  5
3D2
330
1F
100
AcDbEntity
  8
0
100
AcDbLine
 10
122.4094410622758
 20
-80.78707017273742
 30
0.0
 11
122.2545954073936
 21
-80.4132396926462
 31
0.0
  0
LINE
  5
3D3
330
1F
100
AcDbEntity
  8
0
100
AcDbLine
 10
122.2545954073936
 20
-80.4132396926462
 30
0.0
 11
122.2017804381416
 21
-80.0120701727376
 31
0.0
  0
LINE
  5
3D4
330
1F
100
AcDbEntity
  8
0
100
AcDbLine
 10
122.2017804381416
 20
-80.0120701727376
 30
0.0
 11
122.2545954073936
 21
-79.61090065282862
 31
0.0
  0
LINE
  5
3D5
330
1F
100
AcDbEntity
  8
0
100
AcDbLine
 10
122.2545954073936
 20
-79.61090065282862
 30
0.0
 11
122.4094410622758
 21
-79.2370701727374
 31
0.0
  0
LINE
  5
3D6
330
1F
100
AcDbEntity
  8
0
100
AcDbLine
 10
122.4094410622758
 20
-79.2370701727374
 30
0.0
 11
122.6557649273025
 21
-78.91605466189834
 31
0.0
  0
LINE
  5
3D7
330
1F
100
AcDbEntity
  8
0
100
AcDbLine
 10
122.6557649273025
 20
-78.91605466189834
 30
0.0
 11
122.9767804381416
 21
-78.66973079687173
 31
0.0
  0
LINE
  5
3D8
330
1F
100
AcDbEntity
  8
0
100
AcDbLine
 10
123.3506109182327
 20
78.49074479651425
 30
0.0
 11
122.9767804381416
 21
78.64559045139661
 31
0.0
  0
LINE
  5
3D9
330
1F
100
AcDbEntity
  8
0
100
AcDbLine
 10
122.9767804381416
 20
78.64559045139661
 30
0.0
 11
122.6557649273025
 21
78.89191431642323
 31
0.0
  0
LINE
  5
3DA
330
1F
100
AcDbEntity
  8
0
100
AcDbLine
 10
122.6557649273025
 20
78.89191431642323
 30
0.0
 11
122.4094410622758
 21
79.21292982726264
 31
0.0
  0
LINE
  5
3DB
330
1F
100
AcDbEntity
  8
0
100
AcDbLine
 10
122.4094410622758
 20
79.21292982726264
 30
0.0
 11
122.2545954073936
 21
79.5867603073535
 31
0.0
  0
LINE
  5
3DC
330
1F
100
AcDbEntity
  8
0
100
AcDbLine
 10
122.2545954073936
 20
79.5867603073535
 30
0.0
 11
122.2017804381416
 21
79.98792982726248
 31
0.0
  0
LINE
  5
3DD
330
1F
100
AcDbEntity
  8
0
100
AcDbLine
 10
122.2017804381416
 20
79.98792982726248
 30
0.0
 11
122.2545954073936
 21
80.38909934717144
 31
0.0
  0
LINE
  5
3DE
330
1F
100
AcDbEntity
  8
0
100
AcDbLine
 10
122.2545954073936
 20
80.38909934717144
 30
0.0
 11
122.4094410622758
 21
80.76292982726265
 31
0.0
  0
LINE
  5
3DF
330
1F
100
AcDbEntity
  8
0
100
AcDbLine
 10
122.4094410622758
 20
80.76292982726265
 30
0.0
 11
122.6557649273025
 21
81.08394533810171
 31
0.0
  0
LINE
  5
3E0
330
1F
100
AcDbEntity
  8
0
100
AcDbLine
 10
122.6557649273025
 20
81.08394533810171
 30
0.0
 11
122.9767804381416
 21
81.33026920312832
 31
0.0
  0
LINE
  5
3E1
330
1F
100
AcDbEntity
  8
0
100
AcDbLine
 10
122.9767804381416
 20
81.33026920312832
 30
0.0
 11
123.3506109182327
 21
81.48511485801069
 31
0.0
  0
LINE
  5
3E2
330
1F
100
AcDbEntity
  8
0
100
AcDbLine
 10
123.3506109182327
 20
81.48511485801069
 30
0.0
 11
123.7517804381417
 21
81.53792982726247
 31
0.0
  0
LINE
  5
3E3
330
1F
100
AcDbEntity
  8
0
100
AcDbLine
 10
123.7517804381417
 20
81.53792982726247
 30
0.0
 11
124.1529499580506
 21
81.48511485801069
 31
0.0
  0
LINE
  5
3E4
330
1F
100
AcDbEntity
  8
0
100
AcDbLine
 10
124.1529499580506
 20
81.48511485801069
 30
0.0
 11
124.5267804381417
 21
81.33026920312832
 31
0.0
  0
LINE
  5
3E5
330
1F
100
AcDbEntity
  8
0
100
AcDbLine
 10
124.5267804381417
 20
81.33026920312832
 30
0.0
 11
124.8477959489808
 21
81.08394533810171
 31
0.0
  0
LINE
  5
3E6
330
1F
100
AcDbEntity
  8
0
100
AcDbLine
 10
124.8477959489808
 20
81.08394533810171
 30
0.0
 11
125.0941198140075
 21
80.76292982726265
 31
0.0
  0
LINE
  5
3E7
330
1F
100
AcDbEntity
  8
0
100
AcDbLine
 10
125.0941198140075
 20
80.76292982726265
 30
0.0
 11
125.2489654688897
 21
80.38909934717144
 31
0.0
  0
LINE
  5
3E8
330
1F
100
AcDbEntity
  8
0
100
AcDbLine
 10
125.0941198140075
 20
79.21292982726264
 30
0.0
 11
124.8477959489808
 21
78.89191431642323
 31
0.0
  0
LINE
  5
3E9
330
1F
100
AcDbEntity
  8
0
100
AcDbLine
 10
124.8477959489808
 20
78.89191431642323
 30
0.0
 11
124.5267804381417
 21
78.64559045139661
 31
0.0
  0
LINE
  5
3EA
330
1F
100
AcDbEntity
  8
0
100
AcDbLine
 10
124.5267804381417
 20
78.64559045139661
 30
0.0
 11
124.1529499580506
 21
78.49074479651425
 31
0.0
  0
LINE
  5
3EB
330
1F
100
AcDbEntity
  8
0
100
AcDbLine
 10
124.1529499580506
 20
78.49074479651425
 30
0.0
 11
123.7517804381417
 21
78.43792982726247
 31
0.0
  0
LINE
  5
3EC
330
1F
100
AcDbEntity
  8
0
100
AcDbLine
 10
123.7517804381417
 20
78.43792982726247
 30
0.0
 11
123.3506109182327
 21
78.49074479651425
 31
0.0
  0
ENDSEC
  0
SECTION
  2
OBJECTS
  0
DICTIONARY
  5
C
330
0
100
AcDbDictionary
  3
ACAD_GROUP
350
D
  3
ACAD_LAYOUT
350
1A
  3
ACAD_MATERIAL
350
3B
  3
ACAD_MLEADERSTYLE
350
40F
  3
ACAD_MLINESTYLE
350
17
  3
ACAD_PLOTSETTINGS
350
19
  3
ACAD_VISUALSTYLE
350
2A
  3
ACDBHEADERROUNDTRIPXREC
350
3ED
  3
ACDBVARIABLEDICTIONARY
350
40D
  0
DICTIONARY
  5
D
102
{ACAD_REACTORS
330
C
102
}
330
C
100
AcDbDictionary
  0
DICTIONARY
  5
1A
102
{ACAD_REACTORS
330
C
102
}
330
C
100
AcDbDictionary
  0
DICTIONARY
  5
3B
102
{ACAD_REACTORS
330
C
102
}
330
C
100
AcDbDictionary
  3
BYBLOCK
350
3D
  3
BYLAYER
350
3C
  3
GLOBAL
350
3E
  0
DICTIONARY
  5
40F
102
{ACAD_REACTORS
330
C
102
}
330
C
100
AcDbDictionary
  0
DICTIONARY
  5
17
102
{ACAD_REACTORS
330
C
102
}
330
C
100
AcDbDictionary
  3
STANDARD
350
18
  0
DICTIONARY
  5
19
102
{ACAD_REACTORS
330
C
102
}
330
C
100
AcDbDictionary
  0
DICTIONARY
  5
2A
102
{ACAD_REACTORS
330
C
102
}
330
C
100
AcDbDictionary
  3
2DWIREFRAME
350
2F
  3
3D_HIDDEN
350
31
  3
3DWIREFRAME
350
30
  3
BASIC
350
32
  3
BRIGHTEN
350
36
  3
COLORCHANGE
350
3A
  3
CONCEPTUAL
350
34
  3
DIM
350
35
  3
FACEPATTERN
350
39
  3
FLAT
350
2B
  3
FLATWITHEDGES
350
2C
  3
GOURAUD
350
2D
  3
GOURAUDWITHEDGES
350
2E
  3
LINEPATTERN
350
38
  3
REALISTIC
350
33
  3
THICKEN
350
37
  0
DICTIONARY
  5
3ED
102
{ACAD_REACTORS
330
C
102
}
330
C
100
AcDbDictionary
  3
CEPSNTYPE
350
3F6
  3
DIMSTYLEDATA
350
40C
  3
FINGERPRINTGUID
350
3F7
  3
HYPERLINKBASE
350
3F0
  3
INSUNITS
350
3F5
  3
LAYOUTDICT
350
3F2
  3
LWETCUNION
350
3F4
  3
PLOTSETDICT
350
3F3
  3
PSVPSCALE
350
3F9
  3
PUCSBASE
350
3FC
  3
PUCSORGBACK
350
402
  3
PUCSORGBOTTOM
350
3FE
  3
PUCSORGFRONT
350
401
  3
PUCSORGLEFT
350
3FF
  3
PUCSORGRIGHT
350
400
  3
PUCSORGTOP
350
3FD
  3
PUCSORTHOREF
350
3FA
  3
PUCSORTHOVIEW
350
3FB
  3
STYLESHEET
350
3F1
  3
TSTACKALIGN
350
3EE
  3
TSTACKSIZE
350
3EF
  3
UCSBASE
350
405
  3
UCSORGBACK
350
40B
  3
UCSORGBOTTOM
350
407
  3
UCSORGFRONT
350
40A
  3
UCSORGLEFT
350
408
  3
UCSORGRIGHT
350
409
  3
UCSORGTOP
350
406
  3
UCSORTHOREF
350
403
  3
UCSORTHOVIEW
350
404
  3
VERSIONGUID
350
3F8
  0
DICTIONARY
  5
40D
102
{ACAD_REACTORS
330
C
102
}
330
C
100
AcDbDictionary
  3
DIMASSOC
350
410
  3
HIDETEXT
350
411
  0
MATERIAL
  5
3D
102
{ACAD_REACTORS
330
3B
102
}
102
{ACAD_XDICTIONARY
360
414
102
}
330
3B
100
AcDbMaterial
  1
ByBlock
  0
MATERIAL
  5
3C
102
{ACAD_REACTORS
330
3B
102
}
102
{ACAD_XDICTIONARY
360
412
102
}
330
3B
100
AcDbMaterial
  1
ByLayer
  0
MATERIAL
  5
3E
102
{ACAD_REACTORS
330
3B
102
}
102
{ACAD_XDICTIONARY
360
416
102
}
330
3B
100
AcDbMaterial
  1
Global
  0
MLINESTYLE
  5
18
102
{ACAD_REACTORS
330
17
102
}
330
17
100
AcDbMlineStyle
  2
Standard
 70
     0
  3

 62
   256
 51
90.0
 52
90.0
 71
     2
 49
0.5
 62
   256
  6
BYLAYER
 49
-0.5
 62
   256
  6
BYLAYER
  0
ACAD_PROXY_OBJECT
  5
2F
102
{ACAD_REACTORS
330
2A
102
}
330
2A
100
AcDbProxyObject
 90
      499
 91
      501
 93
      436
310
42CC9915DA5C99599C985B595049028333333333333E3BF0000000000000FB0107901411070040501600405405064090741402480A0340
1001
ACAD
1000
AcDbSavedByObjectVersion
1070
     0
  0
ACAD_PROXY_OBJECT
  5
31
102
{ACAD_REACTORS
330
2A
102
}
330
2A
100
AcDbProxyObject
 90
      499
 91
      501
 93
      500
310
424CD108121A5919195B90640502408333333333333E3BF0000000000000FB01079024090700405020000000000001110200405405064090740C02480A0340
1001
ACAD
1000
AcDbSavedByObjectVersion
1070
     0
  0
ACAD_PROXY_OBJECT
  5
30
102
{ACAD_REACTORS
330
2A
102
}
330
2A
100
AcDbProxyObject
 90
      499
 91
      501
 93
      436
310
42CCD915DA5C99599C985B595059028333333333333E3BF0000000000000FB0107901411070040501600405405064090741402480A0340
1001
ACAD
1000
AcDbSavedByObjectVersion
1070
     0
  0
ACAD_PROXY_OBJECT
  5
32
102
{ACAD_REACTORS
330
2A
102
}
330
2A
100
AcDbProxyObject
 90
      499
 91
      501
 93
      388
310
4150985CDA58D07406404333333333333E3BF0000000000000FB0107A41107004050150841D405064090741402480A0350
1001
ACAD
1000
AcDbSavedByObjectVersion
1070
     0
  0
ACAD_PROXY_OBJECT
  5
36
102
{ACAD_REACTORS
330
2A
102
}
330
2A
100
AcDbProxyObject
 90
      499
 91
      501
 93
      428
310
42109C9A59DA1D195B90C409028333333333333E3BF0000000000000FB010790141107004050150841D405064090741402480A029950
1001
ACAD
1000
AcDbSavedByObjectVersion
1070
     0
  0
ACAD_PROXY_OBJECT
  5
3A
102
{ACAD_REACTORS
330
2A
102
}
330
2A
100
AcDbProxyObject
 90
      499
 91
      501
 93
      452
310
42D0DBDB1BDC90DA185B99D95104090240C333333333333E3BF0000000000000FB0108901411070040501508421405064090741402480A0350
1001
ACAD
1000
AcDbSavedByObjectVersion
1070
     0
  0
ACAD_PROXY_OBJECT
  5
34
102
{ACAD_REACTORS
330
2A
102
}
330
2A
100
AcDbProxyObject
 90
      499
 91
      501
 93
      500
310
4290DBDB98D95C1D1D585B10940D028333333333333E3BF0000000000000FB0107902409070040501000000000000111010841D405064090740C02480A0340
1001
ACAD
1000
AcDbSavedByObjectVersion
1070
     0
  0
ACAD_PROXY_OBJECT
  5
35
102
{ACAD_REACTORS
330
2A
102
}
330
2A
100
AcDbProxyObject
 90
      499
 91
      501
 93
      412
310
40D11A5B50B409028333333333333E3BF0000000000000FB010790141107004050150841D405064090741402480A02677FFFFFD0
1001
ACAD
1000
AcDbSavedByObjectVersion
1070
     0
  0
ACAD_PROXY_OBJECT
  5
39
102
{ACAD_REACTORS
330
2A
102
}
330
2A
100
AcDbProxyObject
 90
      499
 91
      501
 93
      444
310
42D19858D95C185D1D195C9B90F409028333333333333E3BF0000000000000FB010790141107004050150841D405064090741402480A0350
1001
ACAD
1000
AcDbSavedByObjectVersion
1070
     0
  0
ACAD_PROXY_OBJECT
  5
2B
102
{ACAD_REACTORS
330
2A
102
}
330
2A
100
AcDbProxyObject
 90
      499
 91
      501
 93
      388
310
41119B185D240901404333333333333E3BF0000000000000F9010740A41107004050150841D405064090741402480A1B50
1001
ACAD
1000
AcDbSavedByObjectVersion
1070
     0
  0
ACAD_PROXY_OBJECT
  5
2C
102
{ACAD_REACTORS
330
2A
102
}
330
2A
100
AcDbProxyObject
 90
      499
 91
      501
 93
      476
310
43519B185D15DA5D1A115919D95CD0140901404333333333333E3BF0000000000000F9010740901411070040501600405405064090741402480A1B50
1001
ACAD
1000
AcDbSavedByObjectVersion
1070
     0
  0
ACAD_PROXY_OBJECT
  5
2D
102
{ACAD_REACTORS
330
2A
102
}
330
2A
100
AcDbProxyObject
 90
      499
 91
      501
 93
      412
310
41D1DBDD5C985D5910240902404333333333333E3BF0000000000000F9010740A411070040501641D405064090741402480A1B50
1001
ACAD
1000
AcDbSavedByObjectVersion
1070
     0
  0
ACAD_PROXY_OBJECT
  5
2E
102
{ACAD_REACTORS
330
2A
102
}
330
2A
100
AcDbProxyObject
 90
      499
 91
      501
 93
      500
310
4411DBDD5C985D5915DA5D1A115919D95CD0340902404333333333333E3BF0000000000000F9010740901411070040501600405405064090741402480A1B50
1001
ACAD
1000
AcDbSavedByObjectVersion
1070
     0
  0
ACAD_PROXY_OBJECT
  5
38
102
{ACAD_REACTORS
330
2A
102
}
330
2A
100
AcDbProxyObject
 90
      499
 91
      501
 93
      444
310
42D31A5B995C185D1D195C9B90E409028333333333333E3BF0000000000000FB010790141107004050750841D405064090741402483A0350
1001
ACAD
1000
AcDbSavedByObjectVersion
1070
     0
  0
ACAD_PROXY_OBJECT
  5
33
102
{ACAD_REACTORS
330
2A
102
}
330
2A
100
AcDbProxyObject
 90
      499
 91
      501
 93
      420
310
425499585B1A5CDD1A58D08409028333333333333E3BF0000000000000FB01079019070040501508421405064090741402480A1B40
1001
ACAD
1000
AcDbSavedByObjectVersion
1070
     0
  0
ACAD_PROXY_OBJECT
  5
37
102
{ACAD_REACTORS
330
2A
102
}
330
2A
100
AcDbProxyObject
 90
      499
 91
      501
 93
      412
310
41D51A1A58DAD95B90D409028333333333333E3BF0000000000000FB010790141107004050150C41D405064090741402480A0350
1001
ACAD
1000
AcDbSavedByObjectVersion
1070
     0
  0
XRECORD
  5
3F6
102
{ACAD_REACTORS
330
3ED
102
}
330
3ED
100
AcDbXrecord
 90
        0
  0
XRECORD
  5
40C
102
{ACAD_REACTORS
330
3ED
102
}
330
3ED
100
AcDbXrecord
1000
DSTYLE
1002
{
1070
   340
340
11
1002
}
  0
XRECORD
  5
3F7
102
{ACAD_REACTORS
330
3ED
102
}
330
3ED
100
AcDbXrecord
  1
{3D89C8C4-3371-4F04-AD1A-90857CD315FF}
  0
XRECORD
  5
3F0
102
{ACAD_REACTORS
330
3ED
102
}
330
3ED
100
AcDbXrecord
  1

  0
XRECORD
  5
3F5
102
{ACAD_REACTORS
330
3ED
102
}
330
3ED
100
AcDbXrecord
 90
        1
  0
XRECORD
  5
3F2
102
{ACAD_REACTORS
330
3ED
102
}
330
3ED
100
AcDbXrecord
340
1A
  0
XRECORD
  5
3F4
102
{ACAD_REACTORS
330
3ED
102
}
330
3ED
100
AcDbXrecord
 90
    10781
  0
XRECORD
  5
3F3
102
{ACAD_REACTORS
330
3ED
102
}
330
3ED
100
AcDbXrecord
340
19
  0
XRECORD
  5
3F9
102
{ACAD_REACTORS
330
3ED
102
}
330
3ED
100
AcDbXrecord
 40
0.0
  0
XRECORD
  5
3FC
102
{ACAD_REACTORS
330
3ED
102
}
330
3ED
100
AcDbXrecord
340
0
  0
XRECORD
  5
402
102
{ACAD_REACTORS
330
3ED
102
}
330
3ED
100
AcDbXrecord
 10
0.0
 20
0.0
 30
0.0
  0
XRECORD
  5
3FE
102
{ACAD_REACTORS
330
3ED
102
}
330
3ED
100
AcDbXrecord
 10
0.0
 20
0.0
 30
0.0
  0
XRECORD
  5
401
102
{ACAD_REACTORS
330
3ED
102
}
330
3ED
100
AcDbXrecord
 10
0.0
 20
0.0
 30
0.0
  0
XRECORD
  5
3FF
102
{ACAD_REACTORS
330
3ED
102
}
330
3ED
100
AcDbXrecord
 10
0.0
 20
0.0
 30
0.0
  0
XRECORD
  5
400
102
{ACAD_REACTORS
330
3ED
102
}
330
3ED
100
AcDbXrecord
 10
0.0
 20
0.0
 30
0.0
  0
XRECORD
  5
3FD
102
{ACAD_REACTORS
330
3ED
102
}
330
3ED
100
AcDbXrecord
 10
0.0
 20
0.0
 30
0.0
  0
XRECORD
  5
3FA
102
{ACAD_REACTORS
330
3ED
102
}
330
3ED
100
AcDbXrecord
340
0
  0
XRECORD
  5
3FB
102
{ACAD_REACTORS
330
3ED
102
}
330
3ED
100
AcDbXrecord
 70
     0
  0
XRECORD
  5
3F1
102
{ACAD_REACTORS
330
3ED
102
}
330
3ED
100
AcDbXrecord
  1

  0
XRECORD
  5
3EE
102
{ACAD_REACTORS
330
3ED
102
}
330
3ED
100
AcDbXrecord
 90
        1
  0
XRECORD
  5
3EF
102
{ACAD_REACTORS
330
3ED
102
}
330
3ED
100
AcDbXrecord
 90
       70
  0
XRECORD
  5
405
102
{ACAD_REACTORS
330
3ED
102
}
330
3ED
100
AcDbXrecord
340
0
  0
XRECORD
  5
40B
102
{ACAD_REACTORS
330
3ED
102
}
330
3ED
100
AcDbXrecord
 10
0.0
 20
0.0
 30
0.0
  0
XRECORD
  5
407
102
{ACAD_REACTORS
330
3ED
102
}
330
3ED
100
AcDbXrecord
 10
0.0
 20
0.0
 30
0.0
  0
XRECORD
  5
40A
102
{ACAD_REACTORS
330
3ED
102
}
330
3ED
100
AcDbXrecord
 10
0.0
 20
0.0
 30
0.0
  0
XRECORD
  5
408
102
{ACAD_REACTORS
330
3ED
102
}
330
3ED
100
AcDbXrecord
 10
0.0
 20
0.0
 30
0.0
  0
XRECORD
  5
409
102
{ACAD_REACTORS
330
3ED
102
}
330
3ED
100
AcDbXrecord
 10
0.0
 20
0.0
 30
0.0
  0
XRECORD
  5
406
102
{ACAD_REACTORS
330
3ED
102
}
330
3ED
100
AcDbXrecord
 10
0.0
 20
0.0
 30
0.0
  0
XRECORD
  5
403
102
{ACAD_REACTORS
330
3ED
102
}
330
3ED
100
AcDbXrecord
340
0
  0
XRECORD
  5
404
102
{ACAD_REACTORS
330
3ED
102
}
330
3ED
100
AcDbXrecord
 70
     0
  0
XRECORD
  5
3F8
102
{ACAD_REACTORS
330
3ED
102
}
330
3ED
100
AcDbXrecord
  1
{FAEB1C32-E019-11D5-929B-00C0DF256EC4}
  0
DICTIONARYVAR
  5
410
102
{ACAD_REACTORS
330
40D
102
}
330
40D
100
DictionaryVariables
280
     0
  1
2
  0
DICTIONARYVAR
  5
411
102
{ACAD_REACTORS
330
40D
102
}
330
40D
100
DictionaryVariables
280
     0
  1
1
  0
DICTIONARY
  5
414
330
3D
100
AcDbDictionary
280
     1
  3
ACAD_XREC_ROUNDTRIP
360
415
  0
DICTIONARY
  5
412
330
3C
100
AcDbDictionary
280
     1
  3
ACAD_XREC_ROUNDTRIP
360
413
  0
DICTIONARY
  5
416
330
3E
100
AcDbDictionary
280
     1
  3
ACAD_XREC_ROUNDTRIP
360
417
  0
XRECORD
  5
415
102
{ACAD_REACTORS
330
414
102
}
330
414
100
AcDbXrecord
102
MATERIAL
148
0.0
149
0.0
149
0.0
 93
        0
 94
      127
282
     0
 72
     1
 77
     1
171
     1
175
     1
179
     1
273
     0
  0
XRECORD
  5
413
102
{ACAD_REACTORS
330
412
102
}
330
412
100
AcDbXrecord
102
MATERIAL
148
0.0
149
0.0
149
0.0
 93
        0
 94
      127
282
     0
 72
     1
 77
     1
171
     1
175
     1
179
     1
273
     0
  0
XRECORD
  5
417
102
{ACAD_REACTORS
330
416
102
}
330
416
100
AcDbXrecord
102
MATERIAL
148
0.0
149
0.0
149
0.0
 93
        0
 94
      127
282
     0
 72
     1
 77
     1
171
     1
175
     1
179
     1
273
     0
  0
ENDSEC
  0
EOF
