  0
SECTION
  2
HEADER
  9
$ACADVER
  1
AC1014
  9
$ACADMAINTVER
 70
     9
  9
$DWGCODEPAGE
  3
ANSI_1252
  9
$INSBASE
 10
0.0
 20
0.0
 30
0.0
  9
$EXTMIN
 10
1.000000000000000E+20
 20
1.000000000000000E+20
 30
1.000000000000000E+20
  9
$EXTMAX
 10
-1.000000000000000E+20
 20
-1.000000000000000E+20
 30
-1.000000000000000E+20
  9
$LIMMIN
 10
0.0
 20
0.0
  9
$LIMMAX
 10
12.0
 20
9.0
  9
$ORTHOMODE
 70
     0
  9
$REGENMODE
 70
     1
  9
$FILLMODE
 70
     1
  9
$QTEXTMODE
 70
     0
  9
$MIRRTEXT
 70
     1
  9
$DRAGMODE
 70
     2
  9
$LTSCALE
 40
1.0
  9
$OSMODE
 70
    37
  9
$ATTMODE
 70
     1
  9
$TEXTSIZE
 40
0.2
  9
$TRACEWID
 40
0.05
  9
$TEXTSTYLE
  7
STANDARD
  9
$CLAYER
  8
0
  9
$CELTYPE
  6
BYLAYER
  9
$CECOLOR
 62
   256
  9
$CELTSCALE
 40
1.0
  9
$DELOBJ
 70
     1
  9
$DISPSILH
 70
     0
  9
$DIMSCALE
 40
1.0
  9
$DIMASZ
 40
0.18
  9
$DIMEXO
 40
0.0625
  9
$DIMDLI
 40
0.38
  9
$DIMRND
 40
0.0
  9
$DIMDLE
 40
0.0
  9
$DIMEXE
 40
0.18
  9
$DIMTP
 40
0.0
  9
$DIMTM
 40
0.0
  9
$DIMTXT
 40
0.18
  9
$DIMCEN
 40
0.09
  9
$DIMTSZ
 40
0.0
  9
$DIMTOL
 70
     0
  9
$DIMLIM
 70
     0
  9
$DIMTIH
 70
     1
  9
$DIMTOH
 70
     1
  9
$DIMSE1
 70
     0
  9
$DIMSE2
 70
     0
  9
$DIMTAD
 70
     0
  9
$DIMZIN
 70
     0
  9
$DIMBLK
  1

  9
$DIMASO
 70
     1
  9
$DIMSHO
 70
     1
  9
$DIMPOST
  1

  9
$DIMAPOST
  1

  9
$DIMALT
 70
     0
  9
$DIMALTD
 70
     2
  9
$DIMALTF
 40
25.4
  9
$DIMLFAC
 40
1.0
  9
$DIMTOFL
 70
     0
  9
$DIMTVP
 40
0.0
  9
$DIMTIX
 70
     0
  9
$DIMSOXD
 70
     0
  9
$DIMSAH
 70
     0
  9
$DIMBLK1
  1

  9
$DIMBLK2
  1

  9
$DIMSTYLE
  2
STANDARD
  9
$DIMCLRD
 70
     0
  9
$DIMCLRE
 70
     0
  9
$DIMCLRT
 70
     0
  9
$DIMTFAC
 40
1.0
  9
$DIMGAP
 40
0.09
  9
$DIMJUST
 70
     0
  9
$DIMSD1
 70
     0
  9
$DIMSD2
 70
     0
  9
$DIMTOLJ
 70
     1
  9
$DIMTZIN
 70
     0
  9
$DIMALTZ
 70
     0
  9
$DIMALTTZ
 70
     0
  9
$DIMFIT
 70
     3
  9
$DIMUPT
 70
     0
  9
$DIMUNIT
 70
     2
  9
$DIMDEC
 70
     4
  9
$DIMTDEC
 70
     4
  9
$DIMALTU
 70
     2
  9
$DIMALTTD
 70
     2
  9
$DIMTXSTY
  7
STANDARD
  9
$DIMAUNIT
 70
     0
  9
$LUNITS
 70
     2
  9
$LUPREC
 70
     4
  9
$SKETCHINC
 40
0.1
  9
$FILLETRAD
 40
0.5
  9
$AUNITS
 70
     0
  9
$AUPREC
 70
     0
  9
$MENU
  1
.
  9
$ELEVATION
 40
0.0
  9
$PELEVATION
 40
0.0
  9
$THICKNESS
 40
0.0
  9
$LIMCHECK
 70
     0
  9
$CHAMFERA
 40
0.5
  9
$CHAMFERB
 40
0.5
  9
$CHAMFERC
 40
1.0
  9
$CHAMFERD
 40
0.0
  9
$SKPOLY
 70
     0
  9
$TDCREATE
 40
2457278.99486669
  9
$TDUPDATE
 40
2457278.994866701
  9
$TDINDWG
 40
0.0000000116
  9
$TDUSRTIMER
 40
0.0000000116
  9
$USRTIMER
 70
     1
  9
$ANGBASE
 50
0.0
  9
$ANGDIR
 70
     0
  9
$PDMODE
 70
     0
  9
$PDSIZE
 40
0.0
  9
$PLINEWID
 40
0.0
  9
$COORDS
 70
     1
  9
$SPLFRAME
 70
     0
  9
$SPLINETYPE
 70
     6
  9
$SPLINESEGS
 70
     8
  9
$ATTDIA
 70
     0
  9
$ATTREQ
 70
     1
  9
$HANDLING
 70
     1
  9
$HANDSEED
  5
414
  9
$SURFTAB1
 70
     6
  9
$SURFTAB2
 70
     6
  9
$SURFTYPE
 70
     6
  9
$SURFU
 70
     6
  9
$SURFV
 70
     6
  9
$UCSNAME
  2

  9
$UCSORG
 10
0.0
 20
0.0
 30
0.0
  9
$UCSXDIR
 10
1.0
 20
0.0
 30
0.0
  9
$UCSYDIR
 10
0.0
 20
1.0
 30
0.0
  9
$PUCSNAME
  2

  9
$PUCSORG
 10
0.0
 20
0.0
 30
0.0
  9
$PUCSXDIR
 10
1.0
 20
0.0
 30
0.0
  9
$PUCSYDIR
 10
0.0
 20
1.0
 30
0.0
  9
$USERI1
 70
     0
  9
$USERI2
 70
     0
  9
$USERI3
 70
     0
  9
$USERI4
 70
     0
  9
$USERI5
 70
     0
  9
$USERR1
 40
0.0
  9
$USERR2
 40
0.0
  9
$USERR3
 40
0.0
  9
$USERR4
 40
0.0
  9
$USERR5
 40
0.0
  9
$WORLDVIEW
 70
     1
  9
$SHADEDGE
 70
     3
  9
$SHADEDIF
 70
    70
  9
$TILEMODE
 70
     1
  9
$MAXACTVP
 70
    64
  9
$PINSBASE
 10
0.0
 20
0.0
 30
0.0
  9
$PLIMCHECK
 70
     0
  9
$PEXTMIN
 10
1.000000000000000E+20
 20
1.000000000000000E+20
 30
1.000000000000000E+20
  9
$PEXTMAX
 10
-1.000000000000000E+20
 20
-1.000000000000000E+20
 30
-1.000000000000000E+20
  9
$PLIMMIN
 10
0.0
 20
0.0
  9
$PLIMMAX
 10
12.0
 20
9.0
  9
$UNITMODE
 70
     0
  9
$VISRETAIN
 70
     1
  9
$PLINEGEN
 70
     0
  9
$PSLTSCALE
 70
     1
  9
$TREEDEPTH
 70
  3020
  9
$PICKSTYLE
 70
     1
  9
$CMLSTYLE
  2
STANDARD
  9
$CMLJUST
 70
     0
  9
$CMLSCALE
 40
1.0
  9
$PROXYGRAPHICS
 70
     1
  9
$MEASUREMENT
 70
     0
  0
ENDSEC
  0
SECTION
  2
CLASSES
  0
CLASS
  1
ACDBDICTIONARYWDFLT
  2
AcDbDictionaryWithDefault
  3
ObjectDBX Classes
 90
        0
280
     0
281
     0
  0
CLASS
  1
VISUALSTYLE
  2
AcDbVisualStyle
  3
ObjectDBX Classes
 90
     4095
280
     0
281
     0
  0
CLASS
  1
MATERIAL
  2
AcDbMaterial
  3
ObjectDBX Classes
 90
     1153
280
     0
281
     0
  0
CLASS
  1
DICTIONARYVAR
  2
AcDbDictionaryVar
  3
ObjectDBX Classes
 90
        0
280
     0
281
     0
  0
CLASS
  1
XRECORD
  2
AcDbXrecord
  3
AutoCAD 2000
 90
        0
280
     0
281
     0
  0
CLASS
  1
LWPOLYLINE
  2
AcDbPolyline
  3
AutoCAD 2000
 90
        0
280
     0
281
     1
  0
CLASS
  1
HATCH
  2
AcDbHatch
  3
AutoCAD 2000
 90
        0
280
     0
281
     1
  0
CLASS
  1
ACDBPLACEHOLDER
  2
AcDbPlaceHolder
  3
ObjectDBX Classes
 90
        0
280
     0
281
     0
  0
CLASS
  1
LAYOUT
  2
AcDbLayout
  3
ObjectDBX Classes
 90
        0
280
     0
281
     0
  0
ENDSEC
  0
SECTION
  2
TABLES
  0
TABLE
  2
VPORT
  5
8
330
0
100
AcDbSymbolTable
 70
     1
  0
VPORT
  5
29
330
8
100
AcDbSymbolTableRecord
100
AcDbViewportTableRecord
  2
*ACTIVE
 70
     0
 10
0.0
 20
0.0
 11
1.0
 21
1.0
 12
0.0
 22
0.0
 13
0.0
 23
0.0
 14
0.5
 24
0.5
 15
0.5
 25
0.5
 16
0.0
 26
0.0
 36
1.0
 17
0.0
 27
0.0
 37
-1000.0
 40
308.2008700233794
 41
1.914432989690722
 42
50.0
 43
423.1347319392355
 44
899.82070083584
 50
0.0
 51
0.0
 71
     0
 72
   100
 73
     1
 74
     3
 75
     0
 76
     0
 77
     0
 78
     0
  0
ENDTAB
  0
TABLE
  2
LTYPE
  5
5
330
0
100
AcDbSymbolTable
 70
     1
  0
LTYPE
  5
14
330
5
100
AcDbSymbolTableRecord
100
AcDbLinetypeTableRecord
  2
BYBLOCK
 70
     0
  3

 72
    65
 73
     0
 40
0.0
  0
LTYPE
  5
15
330
5
100
AcDbSymbolTableRecord
100
AcDbLinetypeTableRecord
  2
BYLAYER
 70
     0
  3

 72
    65
 73
     0
 40
0.0
  0
LTYPE
  5
16
330
5
100
AcDbSymbolTableRecord
100
AcDbLinetypeTableRecord
  2
CONTINUOUS
 70
     0
  3
Solid line
 72
    65
 73
     0
 40
0.0
  0
ENDTAB
  0
TABLE
  2
LAYER
  5
2
330
0
100
AcDbSymbolTable
 70
     3
  0
LAYER
  5
10
330
2
100
AcDbSymbolTableRecord
100
AcDbLayerTableRecord
  2
0
 70
     0
 62
     7
  6
CONTINUOUS
  0
LAYER
  5
3F
330
2
100
AcDbSymbolTableRecord
100
AcDbLayerTableRecord
  2
PROFILEEDGES
 70
     0
 62
     7
  6
CONTINUOUS
  0
LAYER
  5
40
330
2
100
AcDbSymbolTableRecord
100
AcDbLayerTableRecord
  2
SECTIONCUTEDGES
 70
     0
 62
     7
  6
CONTINUOUS
  0
ENDTAB
  0
TABLE
  2
STYLE
  5
3
330
0
100
AcDbSymbolTable
 70
     1
  0
STYLE
  5
11
330
3
100
AcDbSymbolTableRecord
100
AcDbTextStyleTableRecord
  2
STANDARD
 70
     0
 40
0.0
 41
1.0
 50
0.0
 71
     0
 42
0.2
  3
txt
  4

  0
ENDTAB
  0
TABLE
  2
VIEW
  5
6
330
0
100
AcDbSymbolTable
 70
     0
  0
ENDTAB
  0
TABLE
  2
UCS
  5
7
330
0
100
AcDbSymbolTable
 70
     0
  0
ENDTAB
  0
TABLE
  2
APPID
  5
9
330
0
100
AcDbSymbolTable
 70
     1
  0
APPID
  5
12
330
9
100
AcDbSymbolTableRecord
100
AcDbRegAppTableRecord
  2
ACAD
 70
     0
  0
ENDTAB
  0
TABLE
  2
DIMSTYLE
  5
A
330
0
100
AcDbSymbolTable
 70
     1
  0
DIMSTYLE
105
27
330
A
100
AcDbSymbolTableRecord
100
AcDbDimStyleTableRecord
  2
STANDARD
 70
     0
  3

  4

  5

  6

  7

 40
1.0
 41
0.18
 42
0.0625
 43
0.38
 44
0.18
 45
0.0
 46
0.0
 47
0.0
 48
0.0
140
0.18
141
0.09
142
0.0
143
25.4
144
1.0
145
0.0
146
1.0
147
0.09
 71
     0
 72
     0
 73
     1
 74
     1
 75
     0
 76
     0
 77
     0
 78
     0
170
     0
171
     2
172
     0
173
     0
174
     0
175
     0
176
     0
177
     0
178
     0
270
     2
271
     4
272
     4
273
     2
274
     2
340
11
275
     0
280
     0
281
     0
282
     0
283
     1
284
     0
285
     0
286
     0
287
     3
288
     0
  0
ENDTAB
  0
TABLE
  2
BLOCK_RECORD
  5
1
330
0
100
AcDbSymbolTable
 70
     1
  0
BLOCK_RECORD
  5
1F
330
1
100
AcDbSymbolTableRecord
100
AcDbBlockTableRecord
  2
*MODEL_SPACE
  0
BLOCK_RECORD
  5
1B
330
1
100
AcDbSymbolTableRecord
100
AcDbBlockTableRecord
  2
*PAPER_SPACE
  0
ENDTAB
  0
ENDSEC
  0
SECTION
  2
BLOCKS
  0
BLOCK
  5
20
330
1F
100
AcDbEntity
  8
0
100
AcDbBlockBegin
  2
*MODEL_SPACE
 70
     0
 10
0.0
 20
0.0
 30
0.0
  3
*MODEL_SPACE
  1

  0
ENDBLK
  5
21
330
1F
100
AcDbEntity
  8
0
100
AcDbBlockEnd
  0
BLOCK
  5
1C
330
1B
100
AcDbEntity
 67
     1
  8
0
100
AcDbBlockBegin
  2
*PAPER_SPACE
 70
     0
 10
0.0
 20
0.0
 30
0.0
  3
*PAPER_SPACE
  1

  0
ENDBLK
  5
1D
330
1B
100
AcDbEntity
 67
     1
  8
0
100
AcDbBlockEnd
  0
ENDSEC
  0
SECTION
  2
ENTITIES
  0
LINE
  5
41
330
1F
100
AcDbEntity
  8
0
100
AcDbLine
 10
239.0663894916362
 20
-10.52255951864362
 30
0.0
 11
239.4281609265259
 21
-10.37270888620166
 31
0.0
  0
LINE
  5
42
330
1F
100
AcDbEntity
  8
0
100
AcDbLine
 10
6.867500745750151
 20
-65.70982619569945
 30
0.0
 11
7.017351379507081
 21
-66.07159762804575
 31
0.0
  0
LINE
  5
43
330
1F
100
AcDbEntity
  8
0
100
AcDbLine
 10
97.28911273122462
 20
99.19509476745074
 30
0.0
 11
97.36402011619924
 21
99.59273189896302
 31
0.0
  0
LINE
  5
44
330
1F
100
AcDbEntity
  8
0
100
AcDbLine
 10
234.5663894851837
 20
13.37936426627754
 30
0.0
 11
234.8770496569635
 21
13.6177422001745
 31
0.0
  0
LINE
  5
45
330
1F
100
AcDbEntity
  8
0
100
AcDbLine
 10
-3.68361051481627
 20
13.17840237195428
 30
0.0
 11
-3.295381947162491
 21
13.22951363252061
 31
0.0
  0
LINE
  5
46
330
1F
100
AcDbEntity
  8
0
100
AcDbLine
 10
241.2652782299203
 20
68.5666309198171
 30
0.0
 11
241.3163894851837
 21
68.1784023719544
 31
0.0
  0
LINE
  5
47
330
1F
100
AcDbEntity
  8
0
100
AcDbLine
 10
234.8770496569635
 20
-66.38225779982572
 30
0.0
 11
235.1154275908604
 21
-66.07159762804575
 31
0.0
  0
LINE
  5
48
330
1F
100
AcDbEntity
  8
0
100
AcDbLine
 10
233.4281609265259
 20
-10.37270888620166
 30
0.0
 11
233.8163894963596
 21
-10.32159762804579
 31
0.0
  0
LINE
  5
49
330
1F
100
AcDbEntity
  8
0
100
AcDbLine
 10
229.1154275908604
 20
13.92840237195411
 30
0.0
 11
229.2652782246174
 21
14.29017380430041
 31
0.0
  0
LINE
  5
4A
330
1F
100
AcDbEntity
  8
0
100
AcDbLine
 10
7.928160917529953
 20
13.22951363252061
 30
0.0
 11
8.31638948518373
 21
13.17840237195428
 31
0.0
  0
LINE
  5
4B
330
1F
100
AcDbEntity
  8
0
100
AcDbLine
 10
7.566389485183744
 20
13.37936426627754
 30
0.0
 11
7.928160917529953
 21
13.22951363252061
 31
0.0
  0
LINE
  5
4C
330
1F
100
AcDbEntity
  8
0
100
AcDbLine
 10
-16.7442706865961
 20
13.6177422001745
 30
0.0
 11
-16.43361051481627
 21
13.37936426627754
 31
0.0
  0
LINE
  5
4D
330
1F
100
AcDbEntity
  8
0
100
AcDbLine
 10
-16.98264862049293
 20
13.92840237195411
 30
0.0
 11
-16.7442706865961
 21
13.6177422001745
 31
0.0
  0
LINE
  5
4E
330
1F
100
AcDbEntity
  8
0
100
AcDbLine
 10
-17.13249925424987
 20
14.29017380430041
 30
0.0
 11
-16.98264862049293
 21
13.92840237195411
 31
0.0
  0
LINE
  5
4F
330
1F
100
AcDbEntity
  8
0
100
AcDbLine
 10
-5.183610514816256
 20
-65.32159762804592
 30
0.0
 11
-5.132499254249861
 21
-65.70982619569945
 31
0.0
  0
LINE
  5
50
330
1F
100
AcDbEntity
  8
0
100
AcDbLine
 10
247.2652782246173
 20
-65.70982619569945
 30
0.0
 11
247.3163894851837
 21
-65.32159762804555
 31
0.0
  0
LINE
  5
51
330
1F
100
AcDbEntity
  8
0
100
AcDbLine
 10
233.8163894851837
 20
-66.82159762804558
 30
0.0
 11
234.2046180528376
 21
-66.77048636747925
 31
0.0
  0
LINE
  5
52
330
1F
100
AcDbEntity
  8
0
100
AcDbLine
 10
234.5663894980886
 20
-10.52255952981953
 30
0.0
 11
234.8770496688173
 21
-10.76093746811979
 31
0.0
  0
LINE
  5
53
330
1F
100
AcDbEntity
  8
0
100
AcDbLine
 10
1.255729313403918
 20
-66.38225779982572
 30
0.0
 11
1.566389485183755
 21
-66.62063573372232
 31
0.0
  0
LINE
  5
54
330
1F
100
AcDbEntity
  8
0
100
AcDbLine
 10
1.017351379507092
 20
-66.07159762804575
 30
0.0
 11
1.255729313403918
 21
-66.38225779982572
 31
0.0
  0
LINE
  5
55
330
1F
100
AcDbEntity
  8
0
100
AcDbLine
 10
0.8163894851837445
 20
-11.82159762804581
 30
0.0
 11
0.8675007462322408
 21
-11.43336905859292
 31
0.0
  0
LINE
  5
56
330
1F
100
AcDbEntity
  8
0
100
AcDbLine
 10
-2.234721775382667
 20
14.29017380430041
 30
0.0
 11
-2.18361051481625
 21
14.6784023719543
 31
0.0
  0
LINE
  5
57
330
1F
100
AcDbEntity
  8
0
100
AcDbLine
 10
239.4281609265259
 20
69.6272911137982
 30
0.0
 11
239.8163894963596
 21
69.67840237195442
 31
0.0
  0
LINE
  5
58
330
1F
100
AcDbEntity
  8
0
100
AcDbLine
 10
8.704618065431774
 20
-10.37270889198669
 30
0.0
 11
9.066389498088538
 21
-10.52255952981953
 31
0.0
  0
LINE
  5
59
330
1F
100
AcDbEntity
  8
0
100
AcDbLine
 10
-10.43361050836387
 20
-10.52255951864362
 30
0.0
 11
-10.07183907347416
 21
-10.37270888620166
 31
0.0
  0
LINE
  5
5A
330
1F
100
AcDbEntity
  8
0
100
AcDbLine
 10
7.928160917529953
 20
-66.77048636747925
 30
0.0
 11
8.316389485183754
 21
-66.82159762804558
 31
0.0
  0
LINE
  5
5B
330
1F
100
AcDbEntity
  8
0
100
AcDbLine
 10
4.316389485183535
 20
80.12840237195385
 30
0.0
 11
4.717559005092446
 21
80.18121734120564
 31
0.0
  0
LINE
  5
5C
330
1F
100
AcDbEntity
  8
0
100
AcDbLine
 10
6.816389485183733
 20
68.17840237195405
 30
0.0
 11
6.86750074623223
 21
68.5666309414073
 31
0.0
  0
LINE
  5
5D
330
1F
100
AcDbEntity
  8
0
100
AcDbLine
 10
6.86750074623223
 20
68.5666309414073
 30
0.0
 11
7.017351381369725
 21
68.92840237518045
 31
0.0
  0
LINE
  5
5E
330
1F
100
AcDbEntity
  8
0
100
AcDbLine
 10
9.377049668817364
 20
69.23906253188042
 30
0.0
 11
9.615427600173625
 21
68.92840235582348
 31
0.0
  0
LINE
  5
5F
330
1F
100
AcDbEntity
  8
0
100
AcDbLine
 10
-10.74427068264482
 20
-10.76093745231463
 30
0.0
 11
-10.43361050836387
 21
-10.52255951864362
 31
0.0
  0
LINE
  5
60
330
1F
100
AcDbEntity
  8
0
100
AcDbLine
 10
-28.98264862049293
 20
13.92840237195411
 30
0.0
 11
-28.7442706865961
 21
13.6177422001745
 31
0.0
  0
LINE
  5
61
330
1F
100
AcDbEntity
  8
0
100
AcDbLine
 10
-29.13249925424987
 20
14.29017380430041
 30
0.0
 11
-28.98264862049293
 21
13.92840237195411
 31
0.0
  0
LINE
  5
62
330
1F
100
AcDbEntity
  8
0
100
AcDbLine
 10
7.017351381369725
 20
68.92840237518045
 30
0.0
 11
7.255729317355176
 21
69.23906254768559
 31
0.0
  0
LINE
  5
63
330
1F
100
AcDbEntity
  8
0
100
AcDbLine
 10
-14.93361050191148
 20
69.47744047018033
 30
0.0
 11
-14.62295033118265
 21
69.23906253188042
 31
0.0
  0
LINE
  5
64
330
1F
100
AcDbEntity
  8
0
100
AcDbLine
 10
-14.62295033118265
 20
69.23906253188042
 30
0.0
 11
-14.38457239982639
 21
68.92840235582348
 31
0.0
  0
LINE
  5
65
330
1F
100
AcDbEntity
  8
0
100
AcDbLine
 10
-22.98264861863028
 20
-11.07159762481976
 30
0.0
 11
-22.74427068264482
 21
-10.76093745231463
 31
0.0
  0
LINE
  5
66
330
1F
100
AcDbEntity
  8
0
100
AcDbLine
 10
2.316389485183742
 20
-66.82159762804558
 30
0.0
 11
2.704618052837521
 21
-66.77048636747925
 31
0.0
  0
LINE
  5
67
330
1F
100
AcDbEntity
  8
0
100
AcDbLine
 10
2.316389485183742
 20
13.17840237195428
 30
0.0
 11
2.704618052837521
 21
13.22951363252061
 31
0.0
  0
LINE
  5
68
330
1F
100
AcDbEntity
  8
0
100
AcDbLine
 10
0.8675007457501394
 20
14.29017380430041
 30
0.0
 11
1.017351379507092
 21
13.92840237195411
 31
0.0
  0
LINE
  5
69
330
1F
100
AcDbEntity
  8
0
100
AcDbLine
 10
-29.13249925424987
 20
-65.70982619569945
 30
0.0
 11
-28.98264862049292
 21
-66.07159762804575
 31
0.0
  0
LINE
  5
6A
330
1F
100
AcDbEntity
  8
0
100
AcDbLine
 10
-29.13249925376778
 20
-11.43336905859292
 30
0.0
 11
-28.98264861863028
 21
-11.07159762481976
 31
0.0
  0
LINE
  5
6B
330
1F
100
AcDbEntity
  8
0
100
AcDbLine
 10
-29.18361051481627
 20
-65.32159762804592
 30
0.0
 11
-29.13249925424987
 21
-65.70982619569945
 31
0.0
  0
LINE
  5
6C
330
1F
100
AcDbEntity
  8
0
100
AcDbLine
 10
-9.683610503640393
 20
69.67840237195442
 30
0.0
 11
-9.295381934568251
 21
69.62729110801317
 31
0.0
  0
LINE
  5
6D
330
1F
100
AcDbEntity
  8
0
100
AcDbLine
 10
-9.295381934568251
 20
69.62729110801317
 30
0.0
 11
-8.933610501911485
 21
69.47744047018033
 31
0.0
  0
LINE
  5
6E
330
1F
100
AcDbEntity
  8
0
100
AcDbLine
 10
240.8770496569635
 20
-66.38225779982572
 30
0.0
 11
241.1154275908604
 21
-66.07159762804575
 31
0.0
  0
LINE
  5
6F
330
1F
100
AcDbEntity
  8
0
100
AcDbLine
 10
-11.13249925424987
 20
14.29017380430041
 30
0.0
 11
-10.98264862049292
 21
13.92840237195411
 31
0.0
  0
LINE
  5
70
330
1F
100
AcDbEntity
  8
0
100
AcDbLine
 10
-11.18361051481627
 20
14.6784023719543
 30
0.0
 11
-11.13249925424987
 21
14.29017380430041
 31
0.0
  0
LINE
  5
71
330
1F
100
AcDbEntity
  8
0
100
AcDbLine
 10
3.765278224617344
 20
-65.70982619569945
 30
0.0
 11
3.816389485183739
 21
-65.32159762804592
 31
0.0
  0
LINE
  5
72
330
1F
100
AcDbEntity
  8
0
100
AcDbLine
 10
238.5173513813697
 20
-11.07159762481976
 30
0.0
 11
238.7557293173552
 21
-10.76093745231463
 31
0.0
  0
LINE
  5
73
330
1F
100
AcDbEntity
  8
0
100
AcDbLine
 10
241.1154275908604
 20
13.92840237195411
 30
0.0
 11
241.2652782246173
 21
14.29017380430041
 31
0.0
  0
LINE
  5
74
330
1F
100
AcDbEntity
  8
0
100
AcDbLine
 10
-26.93361050191148
 20
69.47744047018033
 30
0.0
 11
-26.62295033118265
 21
69.23906253188042
 31
0.0
  0
LINE
  5
75
330
1F
100
AcDbEntity
  8
0
100
AcDbLine
 10
-26.62295033118265
 20
69.23906253188042
 30
0.0
 11
-26.38457239982639
 21
68.92840235582348
 31
0.0
  0
LINE
  5
76
330
1F
100
AcDbEntity
  8
0
100
AcDbLine
 10
-26.38457239982639
 20
68.92840235582348
 30
0.0
 11
-26.2347217700797
 21
68.5666309198171
 31
0.0
  0
LINE
  5
77
330
1F
100
AcDbEntity
  8
0
100
AcDbLine
 10
-22.07183907347416
 20
69.62729111379856
 30
0.0
 11
-21.6836105036404
 21
69.67840237195442
 31
0.0
  0
LINE
  5
78
330
1F
100
AcDbEntity
  8
0
100
AcDbLine
 10
-21.6836105036404
 20
69.67840237195442
 30
0.0
 11
-21.29538193456825
 21
69.62729110801317
 31
0.0
  0
LINE
  5
79
330
1F
100
AcDbEntity
  8
0
100
AcDbLine
 10
1.928160917529963
 20
13.22951363252061
 30
0.0
 11
2.316389485183742
 21
13.17840237195428
 31
0.0
  0
LINE
  5
7A
330
1F
100
AcDbEntity
  8
0
100
AcDbLine
 10
-8.384572399826387
 20
-11.07159764417673
 30
0.0
 11
-8.234721770079688
 21
-11.43336908018312
 31
0.0
  0
LINE
  5
7B
330
1F
100
AcDbEntity
  8
0
100
AcDbLine
 10
-8.234721770079688
 20
-11.43336908018312
 30
0.0
 11
-8.183610514816262
 21
-11.82159762804581
 31
0.0
  0
LINE
  5
7C
330
1F
100
AcDbEntity
  8
0
100
AcDbLine
 10
-21.29538193456825
 20
-10.37270889198669
 30
0.0
 11
-20.93361050191148
 21
-10.52255952981953
 31
0.0
  0
LINE
  5
7D
330
1F
100
AcDbEntity
  8
0
100
AcDbLine
 10
-23.13249925376778
 20
-11.43336905859292
 30
0.0
 11
-22.98264861863028
 21
-11.07159762481976
 31
0.0
  0
LINE
  5
7E
330
1F
100
AcDbEntity
  8
0
100
AcDbLine
 10
-23.18361051481627
 20
-65.32159762804592
 30
0.0
 11
-23.13249925424987
 21
-65.70982619569945
 31
0.0
  0
LINE
  5
7F
330
1F
100
AcDbEntity
  8
0
100
AcDbLine
 10
-20.38457240913961
 20
-66.07159762804575
 30
0.0
 11
-20.23472177538267
 21
-65.70982619569945
 31
0.0
  0
LINE
  5
80
330
1F
100
AcDbEntity
  8
0
100
AcDbLine
 10
-20.18361051481626
 20
-11.82159762804581
 30
0.0
 11
-20.18361051481626
 21
-65.32159762804592
 31
0.0
  0
LINE
  5
81
330
1F
100
AcDbEntity
  8
0
100
AcDbLine
 10
-23.18361051481627
 20
-65.32159762804592
 30
0.0
 11
-23.18361051481627
 21
-11.82159762804581
 31
0.0
  0
LINE
  5
82
330
1F
100
AcDbEntity
  8
0
100
AcDbLine
 10
-8.933610514816271
 20
-66.62063573372232
 30
0.0
 11
-8.622950343036447
 21
-66.38225779982572
 31
0.0
  0
LINE
  5
83
330
1F
100
AcDbEntity
  8
0
100
AcDbLine
 10
-20.23472177538267
 20
-65.70982619569945
 30
0.0
 11
-20.18361051481626
 21
-65.32159762804592
 31
0.0
  0
LINE
  5
84
330
1F
100
AcDbEntity
  8
0
100
AcDbLine
 10
-16.07183907347416
 20
69.62729111379856
 30
0.0
 11
-15.6836105036404
 21
69.67840237195442
 31
0.0
  0
LINE
  5
85
330
1F
100
AcDbEntity
  8
0
100
AcDbLine
 10
-15.6836105036404
 20
69.67840237195442
 30
0.0
 11
-15.29538193456825
 21
69.62729110801317
 31
0.0
  0
LINE
  5
86
330
1F
100
AcDbEntity
  8
0
100
AcDbLine
 10
-15.29538193456825
 20
69.62729110801317
 30
0.0
 11
-14.93361050191148
 21
69.47744047018033
 31
0.0
  0
LINE
  5
87
330
1F
100
AcDbEntity
  8
0
100
AcDbLine
 10
241.3163894851837
 20
68.1784023719544
 30
0.0
 11
241.3163894851837
 21
14.6784023719543
 31
0.0
  0
LINE
  5
88
330
1F
100
AcDbEntity
  8
0
100
AcDbLine
 10
240.5663894980885
 20
69.47744047018033
 30
0.0
 11
240.8770496688173
 21
69.23906253188042
 31
0.0
  0
LINE
  5
89
330
1F
100
AcDbEntity
  8
0
100
AcDbLine
 10
-10.43361050836387
 20
69.47744048135623
 30
0.0
 11
-10.07183907347416
 21
69.62729111379856
 31
0.0
  0
LINE
  5
8A
330
1F
100
AcDbEntity
  8
0
100
AcDbLine
 10
-10.07183907347416
 20
69.62729111379856
 30
0.0
 11
-9.683610503640393
 21
69.67840237195442
 31
0.0
  0
LINE
  5
8B
330
1F
100
AcDbEntity
  8
0
100
AcDbLine
 10
272.3163894851838
 20
-132.3215976280459
 30
0.0
 11
-37.68361051481627
 21
-132.3215976280459
 31
0.0
  0
LINE
  5
8C
330
1F
100
AcDbEntity
  8
0
100
AcDbLine
 10
-2.384572399826375
 20
68.92840235582348
 30
0.0
 11
-2.234721770079687
 21
68.5666309198171
 31
0.0
  0
LINE
  5
8D
330
1F
100
AcDbEntity
  8
0
100
AcDbLine
 10
-37.68361051481627
 20
-132.3215976280459
 30
0.0
 11
-37.68361051481627
 21
135.6784023719542
 31
0.0
  0
LINE
  5
8E
330
1F
100
AcDbEntity
  8
0
100
AcDbLine
 10
-37.68361051481627
 20
135.6784023719542
 30
0.0
 11
272.3163894851838
 21
135.6784023719542
 31
0.0
  0
LINE
  5
8F
330
1F
100
AcDbEntity
  8
0
100
AcDbLine
 10
245.4281609175299
 20
13.22951363252061
 30
0.0
 11
245.8163894851837
 21
13.17840237195428
 31
0.0
  0
LINE
  5
90
330
1F
100
AcDbEntity
  8
0
100
AcDbLine
 10
246.5663894980885
 20
69.47744047018033
 30
0.0
 11
246.8770496688174
 21
69.23906253188042
 31
0.0
  0
LINE
  5
91
330
1F
100
AcDbEntity
  8
0
100
AcDbLine
 10
94.29931993911674
 20
99.36059741227594
 30
0.0
 11
94.43326680655376
 21
98.97877986241124
 31
0.0
  0
LINE
  5
92
330
1F
100
AcDbEntity
  8
0
100
AcDbLine
 10
-10.74427068659609
 20
13.6177422001745
 30
0.0
 11
-10.43361051481627
 21
13.37936426627754
 31
0.0
  0
LINE
  5
93
330
1F
100
AcDbEntity
  8
0
100
AcDbLine
 10
-10.98264862049292
 20
13.92840237195411
 30
0.0
 11
-10.74427068659609
 21
13.6177422001745
 31
0.0
  0
LINE
  5
94
330
1F
100
AcDbEntity
  8
0
100
AcDbLine
 10
229.3163894851838
 20
-11.82159762804581
 30
0.0
 11
229.3163894851838
 21
-65.32159762804592
 31
0.0
  0
LINE
  5
95
330
1F
100
AcDbEntity
  8
0
100
AcDbLine
 10
-28.07183907347417
 20
-10.37270888620166
 30
0.0
 11
-27.68361050364039
 21
-10.32159762804579
 31
0.0
  0
LINE
  5
96
330
1F
100
AcDbEntity
  8
0
100
AcDbLine
 10
-27.68361050364039
 20
-10.32159762804579
 30
0.0
 11
-27.29538193456825
 21
-10.37270889198669
 31
0.0
  0
LINE
  5
97
330
1F
100
AcDbEntity
  8
0
100
AcDbLine
 10
-26.93361050191148
 20
-10.52255952981953
 30
0.0
 11
-26.62295033118265
 21
-10.76093746811979
 31
0.0
  0
LINE
  5
98
330
1F
100
AcDbEntity
  8
0
100
AcDbLine
 10
-2.18361051481625
 20
68.17840237195405
 30
0.0
 11
-2.18361051481625
 21
14.6784023719543
 31
0.0
  0
LINE
  5
99
330
1F
100
AcDbEntity
  8
0
100
AcDbLine
 10
233.42816091753
 20
-66.77048636747925
 30
0.0
 11
233.8163894851837
 21
-66.82159762804558
 31
0.0
  0
LINE
  5
9A
330
1F
100
AcDbEntity
  8
0
100
AcDbLine
 10
1.255729317355187
 20
-10.76093745231463
 30
0.0
 11
1.566389491636131
 21
-10.52255951864362
 31
0.0
  0
LINE
  5
9B
330
1F
100
AcDbEntity
  8
0
100
AcDbLine
 10
239.8163894963596
 20
-10.32159762804579
 30
0.0
 11
240.2046180654317
 21
-10.37270889198669
 31
0.0
  0
LINE
  5
9C
330
1F
100
AcDbEntity
  8
0
100
AcDbLine
 10
-21.29538194716249
 20
13.22951363252061
 30
0.0
 11
-20.93361051481627
 21
13.37936426627754
 31
0.0
  0
LINE
  5
9D
330
1F
100
AcDbEntity
  8
0
100
AcDbLine
 10
-10.43361051481627
 20
-66.62063573372232
 30
0.0
 11
-10.07183908247005
 21
-66.77048636747925
 31
0.0
  0
LINE
  5
9E
330
1F
100
AcDbEntity
  8
0
100
AcDbLine
 10
3.615427600173636
 20
-11.07159764417673
 30
0.0
 11
3.765278229920325
 21
-11.43336908018312
 31
0.0
  0
LINE
  5
9F
330
1F
100
AcDbEntity
  8
0
100
AcDbLine
 10
3.765278229920325
 20
-11.43336908018312
 30
0.0
 11
3.816389485183739
 21
-11.82159762804581
 31
0.0
  0
LINE
  5
A0
330
1F
100
AcDbEntity
  8
0
100
AcDbLine
 10
3.377049656963566
 20
-66.38225779982572
 30
0.0
 11
3.615427590860392
 21
-66.07159762804575
 31
0.0
  0
LINE
  5
A1
330
1F
100
AcDbEntity
  8
0
100
AcDbLine
 10
-4.071839082470048
 20
13.22951363252061
 30
0.0
 11
-3.68361051481627
 21
13.17840237195428
 31
0.0
  0
LINE
  5
A2
330
1F
100
AcDbEntity
  8
0
100
AcDbLine
 10
-4.433610514816269
 20
13.37936426627754
 30
0.0
 11
-4.071839082470048
 21
13.22951363252061
 31
0.0
  0
LINE
  5
A3
330
1F
100
AcDbEntity
  8
0
100
AcDbLine
 10
227.8163894963596
 20
-10.32159762804579
 30
0.0
 11
228.2046180654318
 21
-10.37270889198669
 31
0.0
  0
LINE
  5
A4
330
1F
100
AcDbEntity
  8
0
100
AcDbLine
 10
3.220373974343588
 20
-77.22558211720587
 30
0.0
 11
2.974050109316686
 21
-77.5465976280453
 31
0.0
  0
LINE
  5
A5
330
1F
100
AcDbEntity
  8
0
100
AcDbLine
 10
238.5173513795071
 20
-66.07159762804575
 30
0.0
 11
238.7557293134039
 21
-66.38225779982572
 31
0.0
  0
LINE
  5
A6
330
1F
100
AcDbEntity
  8
0
100
AcDbLine
 10
-20.2347217700797
 20
68.5666309198171
 30
0.0
 11
-20.18361051481627
 21
68.17840237195405
 31
0.0
  0
LINE
  5
A7
330
1F
100
AcDbEntity
  8
0
100
AcDbLine
 10
-2.234721770079687
 20
68.5666309198171
 30
0.0
 11
-2.18361051481625
 21
68.17840237195405
 31
0.0
  0
LINE
  5
A8
330
1F
100
AcDbEntity
  8
0
100
AcDbLine
 10
234.2046180528376
 20
13.22951363252061
 30
0.0
 11
234.5663894851837
 21
13.37936426627754
 31
0.0
  0
LINE
  5
A9
330
1F
100
AcDbEntity
  8
0
100
AcDbLine
 10
227.4281609265259
 20
69.6272911137982
 30
0.0
 11
227.8163894963596
 21
69.67840237195442
 31
0.0
  0
LINE
  5
AA
330
1F
100
AcDbEntity
  8
0
100
AcDbLine
 10
-22.74427068264482
 20
69.23906254768559
 30
0.0
 11
-22.43361050836388
 21
69.47744048135623
 31
0.0
  0
LINE
  5
AB
330
1F
100
AcDbEntity
  8
0
100
AcDbLine
 10
-22.43361050836388
 20
69.47744048135623
 30
0.0
 11
-22.07183907347416
 21
69.62729111379856
 31
0.0
  0
LINE
  5
AC
330
1F
100
AcDbEntity
  8
0
100
AcDbLine
 10
232.7557293173552
 20
69.23906254768522
 30
0.0
 11
233.0663894916361
 21
69.47744048135623
 31
0.0
  0
LINE
  5
AD
330
1F
100
AcDbEntity
  8
0
100
AcDbLine
 10
9.066389498088538
 20
-10.52255952981953
 30
0.0
 11
9.377049668817364
 21
-10.76093746811979
 31
0.0
  0
LINE
  5
AE
330
1F
100
AcDbEntity
  8
0
100
AcDbLine
 10
8.316389485183754
 20
-66.82159762804558
 30
0.0
 11
8.704618052837532
 21
-66.77048636747925
 31
0.0
  0
LINE
  5
AF
330
1F
100
AcDbEntity
  8
0
100
AcDbLine
 10
3.066389485183729
 20
13.37936426627754
 30
0.0
 11
3.377049656963566
 21
13.6177422001745
 31
0.0
  0
LINE
  5
B0
330
1F
100
AcDbEntity
  8
0
100
AcDbLine
 10
2.704618052837521
 20
13.22951363252061
 30
0.0
 11
3.066389485183729
 21
13.37936426627754
 31
0.0
  0
LINE
  5
B1
330
1F
100
AcDbEntity
  8
0
100
AcDbLine
 10
-16.43361050836387
 20
-10.52255951864362
 30
0.0
 11
-16.07183907347416
 21
-10.37270888620166
 31
0.0
  0
LINE
  5
B2
330
1F
100
AcDbEntity
  8
0
100
AcDbLine
 10
-20.38457240913961
 20
13.92840237195411
 30
0.0
 11
-20.23472177538267
 21
14.29017380430041
 31
0.0
  0
LINE
  5
B3
330
1F
100
AcDbEntity
  8
0
100
AcDbLine
 10
-20.62295034303645
 20
13.6177422001745
 30
0.0
 11
-20.38457240913961
 21
13.92840237195411
 31
0.0
  0
LINE
  5
B4
330
1F
100
AcDbEntity
  8
0
100
AcDbLine
 10
244.5173513813698
 20
68.92840237518045
 30
0.0
 11
244.7557293173552
 21
69.23906254768522
 31
0.0
  0
LINE
  5
B5
330
1F
100
AcDbEntity
  8
0
100
AcDbLine
 10
244.7557293173552
 20
-10.76093745231463
 30
0.0
 11
245.0663894916362
 21
-10.52255951864362
 31
0.0
  0
LINE
  5
B6
330
1F
100
AcDbEntity
  8
0
100
AcDbLine
 10
-14.23472177538267
 20
14.29017380430041
 30
0.0
 11
-14.18361051481627
 21
14.6784023719543
 31
0.0
  0
LINE
  5
B7
330
1F
100
AcDbEntity
  8
0
100
AcDbLine
 10
-14.62295034303645
 20
13.6177422001745
 30
0.0
 11
-14.38457240913962
 21
13.92840237195411
 31
0.0
  0
LINE
  5
B8
330
1F
100
AcDbEntity
  8
0
100
AcDbLine
 10
-14.93361051481627
 20
13.37936426627754
 30
0.0
 11
-14.62295034303645
 21
13.6177422001745
 31
0.0
  0
LINE
  5
B9
330
1F
100
AcDbEntity
  8
0
100
AcDbLine
 10
7.017351379507081
 20
-66.07159762804575
 30
0.0
 11
7.255729313403929
 21
-66.38225779982572
 31
0.0
  0
LINE
  5
BA
330
1F
100
AcDbEntity
  8
0
100
AcDbLine
 10
245.8163894963596
 20
69.67840237195442
 30
0.0
 11
246.2046180654317
 21
69.62729110801317
 31
0.0
  0
LINE
  5
BB
330
1F
100
AcDbEntity
  8
0
100
AcDbLine
 10
4.794185613719859
 20
0.2038818195179175
 30
0.0
 11
5.159539106803214
 21
0.3777876267032922
 31
0.0
  0
LINE
  5
BC
330
1F
100
AcDbEntity
  8
0
100
AcDbLine
 10
-14.93361051481627
 20
-66.62063573372232
 30
0.0
 11
-14.62295034303645
 21
-66.38225779982572
 31
0.0
  0
LINE
  5
BD
330
1F
100
AcDbEntity
  8
0
100
AcDbLine
 10
244.3163894851837
 20
-65.32159762804555
 30
0.0
 11
244.3675007457501
 21
-65.70982619569945
 31
0.0
  0
LINE
  5
BE
330
1F
100
AcDbEntity
  8
0
100
AcDbLine
 10
229.2652782246174
 20
-65.70982619569945
 30
0.0
 11
229.3163894851838
 21
-65.32159762804592
 31
0.0
  0
LINE
  5
BF
330
1F
100
AcDbEntity
  8
0
100
AcDbLine
 10
-22.43361051481627
 20
13.37936426627754
 30
0.0
 11
-22.07183908247006
 21
13.22951363252061
 31
0.0
  0
LINE
  5
C0
330
1F
100
AcDbEntity
  8
0
100
AcDbLine
 10
238.7557293173552
 20
-10.76093745231463
 30
0.0
 11
239.0663894916362
 21
-10.52255951864362
 31
0.0
  0
LINE
  5
C1
330
1F
100
AcDbEntity
  8
0
100
AcDbLine
 10
240.5663894851837
 20
-66.62063573372232
 30
0.0
 11
240.8770496569635
 21
-66.38225779982572
 31
0.0
  0
LINE
  5
C2
330
1F
100
AcDbEntity
  8
0
100
AcDbLine
 10
246.8770496688174
 20
69.23906253188042
 30
0.0
 11
247.1154276001736
 21
68.92840235582348
 31
0.0
  0
LINE
  5
C3
330
1F
100
AcDbEntity
  8
0
100
AcDbLine
 10
226.5173513813697
 20
68.92840237518045
 30
0.0
 11
226.7557293173552
 21
69.23906254768522
 31
0.0
  0
LINE
  5
C4
330
1F
100
AcDbEntity
  8
0
100
AcDbLine
 10
227.42816091753
 20
13.22951363252061
 30
0.0
 11
227.8163894851838
 21
13.17840237195428
 31
0.0
  0
LINE
  5
C5
330
1F
100
AcDbEntity
  8
0
100
AcDbLine
 10
247.1903071142438
 20
125.1741797798229
 30
0.0
 11
247.5668876349147
 21
125.3222119254275
 31
0.0
  0
LINE
  5
C6
330
1F
100
AcDbEntity
  8
0
100
AcDbLine
 10
-10.07183907347416
 20
-10.37270888620166
 30
0.0
 11
-9.683610503640393
 21
-10.32159762804579
 31
0.0
  0
LINE
  5
C7
330
1F
100
AcDbEntity
  8
0
100
AcDbLine
 10
2.704618065431761
 20
-10.37270889198669
 30
0.0
 11
3.066389498088527
 21
-10.52255952981953
 31
0.0
  0
LINE
  5
C8
330
1F
100
AcDbEntity
  8
0
100
AcDbLine
 10
235.2652782299203
 20
68.5666309198171
 30
0.0
 11
235.3163894851838
 21
68.1784023719544
 31
0.0
  0
LINE
  5
C9
330
1F
100
AcDbEntity
  8
0
100
AcDbLine
 10
261.1240057559555
 20
0.6880887639129781
 30
0.0
 11
261.4209472686606
 21
0.4132212636270253
 31
0.0
  0
LINE
  5
CA
330
1F
100
AcDbEntity
  8
0
100
AcDbLine
 10
-17.18361051481627
 20
68.17840237195405
 30
0.0
 11
-17.13249925376778
 21
68.5666309414073
 31
0.0
  0
LINE
  5
CB
330
1F
100
AcDbEntity
  8
0
100
AcDbLine
 10
-10.98264862049292
 20
-66.07159762804575
 30
0.0
 11
-10.74427068659609
 21
-66.38225779982572
 31
0.0
  0
LINE
  5
CC
330
1F
100
AcDbEntity
  8
0
100
AcDbLine
 10
-4.433610508363869
 20
69.47744048135623
 30
0.0
 11
-4.071839073474163
 21
69.62729111379856
 31
0.0
  0
LINE
  5
CD
330
1F
100
AcDbEntity
  8
0
100
AcDbLine
 10
-4.071839073474163
 20
69.62729111379856
 30
0.0
 11
-3.683610503640393
 21
69.67840237195442
 31
0.0
  0
LINE
  5
CE
330
1F
100
AcDbEntity
  8
0
100
AcDbLine
 10
235.2652782246174
 20
14.29017380430041
 30
0.0
 11
235.3163894851838
 21
14.6784023719543
 31
0.0
  0
LINE
  5
CF
330
1F
100
AcDbEntity
  8
0
100
AcDbLine
 10
234.2046180654318
 20
69.62729110801317
 30
0.0
 11
234.5663894980886
 21
69.47744047018033
 31
0.0
  0
LINE
  5
D0
330
1F
100
AcDbEntity
  8
0
100
AcDbLine
 10
226.7557293134039
 20
13.6177422001745
 30
0.0
 11
227.0663894851837
 21
13.37936426627754
 31
0.0
  0
LINE
  5
D1
330
1F
100
AcDbEntity
  8
0
100
AcDbLine
 10
263.4124049960229
 20
-83.4176131388849
 30
0.0
 11
263.6587288610496
 21
-83.09659762804584
 31
0.0
  0
LINE
  5
D2
330
1F
100
AcDbEntity
  8
0
100
AcDbLine
 10
233.0663894851837
 20
-66.62063573372232
 30
0.0
 11
233.42816091753
 21
-66.77048636747925
 31
0.0
  0
LINE
  5
D3
330
1F
100
AcDbEntity
  8
0
100
AcDbLine
 10
-4.433610514816257
 20
-66.62063573372232
 30
0.0
 11
-4.071839082470048
 21
-66.77048636747925
 31
0.0
  0
LINE
  5
D4
330
1F
100
AcDbEntity
  8
0
100
AcDbLine
 10
234.8770496569635
 20
13.6177422001745
 30
0.0
 11
235.1154275908604
 21
13.92840237195411
 31
0.0
  0
LINE
  5
D5
330
1F
100
AcDbEntity
  8
0
100
AcDbLine
 10
-2.234721775382645
 20
-65.70982619569945
 30
0.0
 11
-2.18361051481625
 21
-65.32159762804592
 31
0.0
  0
LINE
  5
D6
330
1F
100
AcDbEntity
  8
0
100
AcDbLine
 10
1.928160926525837
 20
69.62729111379856
 30
0.0
 11
2.316389496359607
 21
69.67840237195442
 31
0.0
  0
LINE
  5
D7
330
1F
100
AcDbEntity
  8
0
100
AcDbLine
 10
-20.93361051481627
 20
-66.62063573372232
 30
0.0
 11
-20.62295034303645
 21
-66.38225779982572
 31
0.0
  0
LINE
  5
D8
330
1F
100
AcDbEntity
  8
0
100
AcDbLine
 10
244.3163894851837
 20
-65.32159762804555
 30
0.0
 11
244.3163894851837
 21
-11.82159762804581
 31
0.0
  0
LINE
  5
D9
330
1F
100
AcDbEntity
  8
0
100
AcDbLine
 10
-23.18361051481627
 20
14.6784023719543
 30
0.0
 11
-23.13249925424987
 21
14.29017380430041
 31
0.0
  0
LINE
  5
DA
330
1F
100
AcDbEntity
  8
0
100
AcDbLine
 10
-27.29538194716249
 20
-66.77048636747925
 30
0.0
 11
-26.93361051481627
 21
-66.62063573372232
 31
0.0
  0
LINE
  5
DB
330
1F
100
AcDbEntity
  8
0
100
AcDbLine
 10
-10.30267707687736
 20
127.3823362040599
 30
0.0
 11
-10.53192272496592
 21
127.7157621141412
 31
0.0
  0
LINE
  5
DC
330
1F
100
AcDbEntity
  8
0
100
AcDbLine
 10
-10.53192272496592
 20
127.7157621141412
 30
0.0
 11
-10.83965399267869
 21
127.9784936721105
 31
0.0
  0
LINE
  5
DD
330
1F
100
AcDbEntity
  8
0
100
AcDbLine
 10
-10.83965399267869
 20
127.9784936721105
 30
0.0
 11
-11.20489950267102
 21
128.1526261564763
 31
0.0
  0
LINE
  5
DE
330
1F
100
AcDbEntity
  8
0
100
AcDbLine
 10
-11.20489950267102
 20
128.1526261564763
 30
0.0
 11
-11.60276837703366
 21
128.2262927261972
 31
0.0
  0
LINE
  5
DF
330
1F
100
AcDbEntity
  8
0
100
AcDbLine
 10
-11.60276837703366
 20
128.2262927261972
 30
0.0
 11
-12.00614650948822
 21
128.1944731262863
 31
0.0
  0
LINE
  5
E0
330
1F
100
AcDbEntity
  8
0
100
AcDbLine
 10
-12.00614650948822
 20
128.1944731262863
 30
0.0
 11
-12.38754434692179
 21
128.0593358098928
 31
0.0
  0
LINE
  5
E1
330
1F
100
AcDbEntity
  8
0
100
AcDbLine
 10
-12.38754434692179
 20
128.0593358098928
 30
0.0
 11
-12.720970257003
 21
127.8300901618042
 31
0.0
  0
LINE
  5
E2
330
1F
100
AcDbEntity
  8
0
100
AcDbLine
 10
-12.720970257003
 20
127.8300901618042
 30
0.0
 11
-12.98370181497219
 21
127.5223588940914
 31
0.0
  0
LINE
  5
E3
330
1F
100
AcDbEntity
  8
0
100
AcDbLine
 10
-12.98370181497219
 20
127.5223588940914
 30
0.0
 11
-13.15783429933819
 21
127.1571133840992
 31
0.0
  0
LINE
  5
E4
330
1F
100
AcDbEntity
  8
0
100
AcDbLine
 10
-13.15783429933819
 20
127.1571133840992
 30
0.0
 11
-13.23150086905899
 21
126.7592445097363
 31
0.0
  0
LINE
  5
E5
330
1F
100
AcDbEntity
  8
0
100
AcDbLine
 10
-13.23150086905899
 20
126.7592445097363
 30
0.0
 11
-13.19968126914788
 21
126.3558663772819
 31
0.0
  0
LINE
  5
E6
330
1F
100
AcDbEntity
  8
0
100
AcDbLine
 10
-13.19968126914788
 20
126.3558663772819
 30
0.0
 11
-13.06454395275442
 21
125.9744685398483
 31
0.0
  0
LINE
  5
E7
330
1F
100
AcDbEntity
  8
0
100
AcDbLine
 10
-13.06454395275442
 20
125.9744685398483
 30
0.0
 11
-12.83529830466586
 21
125.641042629767
 31
0.0
  0
LINE
  5
E8
330
1F
100
AcDbEntity
  8
0
100
AcDbLine
 10
-12.83529830466586
 20
125.641042629767
 30
0.0
 11
-12.52756703695309
 21
125.378311071798
 31
0.0
  0
LINE
  5
E9
330
1F
100
AcDbEntity
  8
0
100
AcDbLine
 10
-12.52756703695309
 20
125.378311071798
 30
0.0
 11
-12.16232152696076
 21
125.2041785874319
 31
0.0
  0
LINE
  5
EA
330
1F
100
AcDbEntity
  8
0
100
AcDbLine
 10
-12.16232152696076
 20
125.2041785874319
 30
0.0
 11
-11.76445265259811
 21
125.130512017711
 31
0.0
  0
LINE
  5
EB
330
1F
100
AcDbEntity
  8
0
100
AcDbLine
 10
-11.76445265259811
 20
125.130512017711
 30
0.0
 11
-11.36107452014355
 21
125.1623316176223
 31
0.0
  0
LINE
  5
EC
330
1F
100
AcDbEntity
  8
0
100
AcDbLine
 10
-11.36107452014355
 20
125.1623316176223
 30
0.0
 11
-10.97967668270999
 21
125.2974689340158
 31
0.0
  0
LINE
  5
ED
330
1F
100
AcDbEntity
  8
0
100
AcDbLine
 10
-10.97967668270999
 20
125.2974689340158
 30
0.0
 11
-10.64625077262877
 21
125.526714582104
 31
0.0
  0
LINE
  5
EE
330
1F
100
AcDbEntity
  8
0
100
AcDbLine
 10
-10.64625077262877
 20
125.526714582104
 30
0.0
 11
-10.38351921465958
 21
125.8344458498168
 31
0.0
  0
LINE
  5
EF
330
1F
100
AcDbEntity
  8
0
100
AcDbLine
 10
-10.38351921465958
 20
125.8344458498168
 30
0.0
 11
-10.20938673029358
 21
126.1996913598094
 31
0.0
  0
LINE
  5
F0
330
1F
100
AcDbEntity
  8
0
100
AcDbLine
 10
-10.20938673029358
 20
126.1996913598094
 30
0.0
 11
-10.13572016057279
 21
126.5975602341719
 31
0.0
  0
LINE
  5
F1
330
1F
100
AcDbEntity
  8
0
100
AcDbLine
 10
-10.13572016057279
 20
126.5975602341719
 30
0.0
 11
-10.1675397604839
 21
127.0009383666266
 31
0.0
  0
LINE
  5
F2
330
1F
100
AcDbEntity
  8
0
100
AcDbLine
 10
96.59138948518374
 20
-61.66393700391146
 30
0.0
 11
96.91240499602287
 21
-61.41761313888486
 31
0.0
  0
LINE
  5
F3
330
1F
100
AcDbEntity
  8
0
100
AcDbLine
 10
96.91240499602287
 20
-61.41761313888486
 30
0.0
 11
97.15872886104961
 21
-61.09659762804579
 31
0.0
  0
LINE
  5
F4
330
1F
100
AcDbEntity
  8
0
100
AcDbLine
 10
97.15872886104961
 20
-61.09659762804579
 30
0.0
 11
97.31357451593179
 21
-60.72276714795458
 31
0.0
  0
LINE
  5
F5
330
1F
100
AcDbEntity
  8
0
100
AcDbLine
 10
97.31357451593179
 20
-60.72276714795458
 30
0.0
 11
97.36638948518375
 21
-60.32159762804561
 31
0.0
  0
LINE
  5
F6
330
1F
100
AcDbEntity
  8
0
100
AcDbLine
 10
97.36638948518375
 20
-60.32159762804561
 30
0.0
 11
97.31357451593179
 21
-59.920428108137
 31
0.0
  0
LINE
  5
F7
330
1F
100
AcDbEntity
  8
0
100
AcDbLine
 10
97.31357451593179
 20
-59.920428108137
 30
0.0
 11
97.15872886104961
 21
-59.54659762804579
 31
0.0
  0
LINE
  5
F8
330
1F
100
AcDbEntity
  8
0
100
AcDbLine
 10
97.15872886104961
 20
-59.54659762804579
 30
0.0
 11
96.91240499602289
 21
-59.22558211720672
 31
0.0
  0
LINE
  5
F9
330
1F
100
AcDbEntity
  8
0
100
AcDbLine
 10
96.91240499602289
 20
-59.22558211720672
 30
0.0
 11
96.59138948518374
 21
-58.97925825217975
 31
0.0
  0
LINE
  5
FA
330
1F
100
AcDbEntity
  8
0
100
AcDbLine
 10
96.59138948518374
 20
-58.97925825217975
 30
0.0
 11
96.21755900509264
 21
-58.82441259729775
 31
0.0
  0
LINE
  5
FB
330
1F
100
AcDbEntity
  8
0
100
AcDbLine
 10
96.21755900509264
 20
-58.82441259729775
 30
0.0
 11
95.81638948518373
 21
-58.7715976280456
 31
0.0
  0
LINE
  5
FC
330
1F
100
AcDbEntity
  8
0
100
AcDbLine
 10
95.81638948518373
 20
-58.7715976280456
 30
0.0
 11
95.41521996527483
 21
-58.82441259729775
 31
0.0
  0
LINE
  5
FD
330
1F
100
AcDbEntity
  8
0
100
AcDbLine
 10
95.41521996527483
 20
-58.82441259729775
 30
0.0
 11
95.04138948518373
 21
-58.97925825217975
 31
0.0
  0
LINE
  5
FE
330
1F
100
AcDbEntity
  8
0
100
AcDbLine
 10
95.04138948518373
 20
-58.97925825217975
 30
0.0
 11
94.7203739743446
 21
-59.22558211720672
 31
0.0
  0
LINE
  5
FF
330
1F
100
AcDbEntity
  8
0
100
AcDbLine
 10
94.7203739743446
 20
-59.22558211720672
 30
0.0
 11
94.47405010931786
 21
-59.54659762804579
 31
0.0
  0
LINE
  5
100
330
1F
100
AcDbEntity
  8
0
100
AcDbLine
 10
94.47405010931786
 20
-59.54659762804579
 30
0.0
 11
94.31920445443568
 21
-59.920428108137
 31
0.0
  0
LINE
  5
101
330
1F
100
AcDbEntity
  8
0
100
AcDbLine
 10
94.31920445443568
 20
-59.920428108137
 30
0.0
 11
94.26638948518372
 21
-60.32159762804561
 31
0.0
  0
LINE
  5
102
330
1F
100
AcDbEntity
  8
0
100
AcDbLine
 10
94.26638948518372
 20
-60.32159762804561
 30
0.0
 11
94.31920445443568
 21
-60.72276714795458
 31
0.0
  0
LINE
  5
103
330
1F
100
AcDbEntity
  8
0
100
AcDbLine
 10
94.31920445443568
 20
-60.72276714795458
 30
0.0
 11
94.47405010931786
 21
-61.09659762804579
 31
0.0
  0
LINE
  5
104
330
1F
100
AcDbEntity
  8
0
100
AcDbLine
 10
94.47405010931786
 20
-61.09659762804579
 30
0.0
 11
94.7203739743446
 21
-61.41761313888486
 31
0.0
  0
LINE
  5
105
330
1F
100
AcDbEntity
  8
0
100
AcDbLine
 10
94.7203739743446
 20
-61.41761313888486
 30
0.0
 11
95.04138948518373
 21
-61.66393700391146
 31
0.0
  0
LINE
  5
106
330
1F
100
AcDbEntity
  8
0
100
AcDbLine
 10
95.04138948518373
 20
-61.66393700391146
 30
0.0
 11
95.41521996527483
 21
-61.81878265879383
 31
0.0
  0
LINE
  5
107
330
1F
100
AcDbEntity
  8
0
100
AcDbLine
 10
95.41521996527483
 20
-61.81878265879383
 30
0.0
 11
95.81638948518373
 21
-61.87159762804562
 31
0.0
  0
LINE
  5
108
330
1F
100
AcDbEntity
  8
0
100
AcDbLine
 10
95.81638948518373
 20
-61.87159762804562
 30
0.0
 11
96.21755900509264
 21
-61.81878265879383
 31
0.0
  0
LINE
  5
109
330
1F
100
AcDbEntity
  8
0
100
AcDbLine
 10
96.21755900509264
 20
-61.81878265879383
 30
0.0
 11
96.59138948518374
 21
-61.66393700391146
 31
0.0
  0
LINE
  5
10A
330
1F
100
AcDbEntity
  8
0
100
AcDbLine
 10
94.43326680655376
 20
98.97877986241124
 30
0.0
 11
94.6614711988211
 21
98.64464043039064
 31
0.0
  0
LINE
  5
10B
330
1F
100
AcDbEntity
  8
0
100
AcDbLine
 10
94.6614711988211
 20
98.64464043039064
 30
0.0
 11
94.96838136371137
 21
98.38095016631549
 31
0.0
  0
LINE
  5
10C
330
1F
100
AcDbEntity
  8
0
100
AcDbLine
 10
94.96838136371137
 20
98.38095016631549
 30
0.0
 11
95.33308188068028
 21
98.2056791259133
 31
0.0
  0
LINE
  5
10D
330
1F
100
AcDbEntity
  8
0
100
AcDbLine
 10
95.33308188068028
 20
98.2056791259133
 30
0.0
 11
95.73071901219255
 21
98.13077174093857
 31
0.0
  0
LINE
  5
10E
330
1F
100
AcDbEntity
  8
0
100
AcDbLine
 10
95.73071901219255
 20
98.13077174093857
 30
0.0
 11
96.13419444486199
 21
98.16133282588729
 31
0.0
  0
LINE
  5
10F
330
1F
100
AcDbEntity
  8
0
100
AcDbLine
 10
96.5160119947269
 20
98.29527969332442
 30
0.0
 11
96.85015142674729
 21
98.52348408559148
 31
0.0
  0
LINE
  5
110
330
1F
100
AcDbEntity
  8
0
100
AcDbLine
 10
96.85015142674729
 20
98.52348408559148
 30
0.0
 11
97.11384169082253
 21
98.83039425048177
 31
0.0
  0
LINE
  5
111
330
1F
100
AcDbEntity
  8
0
100
AcDbLine
 10
97.11384169082253
 20
98.83039425048177
 30
0.0
 11
97.28911273122462
 21
99.19509476745074
 31
0.0
  0
LINE
  5
112
330
1F
100
AcDbEntity
  8
0
100
AcDbLine
 10
97.36402011619924
 20
99.59273189896302
 30
0.0
 11
97.33345903125073
 21
99.99620733163263
 31
0.0
  0
LINE
  5
113
330
1F
100
AcDbEntity
  8
0
100
AcDbLine
 10
97.33345903125073
 20
99.99620733163263
 30
0.0
 11
97.19951216381371
 21
100.3780248814973
 31
0.0
  0
LINE
  5
114
330
1F
100
AcDbEntity
  8
0
100
AcDbLine
 10
97.19951216381371
 20
100.3780248814973
 30
0.0
 11
96.97130777154636
 21
100.7121643135179
 31
0.0
  0
LINE
  5
115
330
1F
100
AcDbEntity
  8
0
100
AcDbLine
 10
96.97130777154636
 20
100.7121643135179
 30
0.0
 11
96.6643976066561
 21
100.9758545775931
 31
0.0
  0
LINE
  5
116
330
1F
100
AcDbEntity
  8
0
100
AcDbLine
 10
96.6643976066561
 20
100.9758545775931
 30
0.0
 11
96.29969708968719
 21
101.1511256179952
 31
0.0
  0
LINE
  5
117
330
1F
100
AcDbEntity
  8
0
100
AcDbLine
 10
96.29969708968719
 20
101.1511256179952
 30
0.0
 11
95.90205995817492
 21
101.2260330029696
 31
0.0
  0
LINE
  5
118
330
1F
100
AcDbEntity
  8
0
100
AcDbLine
 10
95.90205995817492
 20
101.2260330029696
 30
0.0
 11
95.49858452550548
 21
101.1954719180213
 31
0.0
  0
LINE
  5
119
330
1F
100
AcDbEntity
  8
0
100
AcDbLine
 10
95.49858452550548
 20
101.1954719180213
 30
0.0
 11
95.11676697564057
 21
101.0615250505841
 31
0.0
  0
LINE
  5
11A
330
1F
100
AcDbEntity
  8
0
100
AcDbLine
 10
95.11676697564057
 20
101.0615250505841
 30
0.0
 11
94.78262754362018
 21
100.8333206583167
 31
0.0
  0
LINE
  5
11B
330
1F
100
AcDbEntity
  8
0
100
AcDbLine
 10
94.78262754362018
 20
100.8333206583167
 30
0.0
 11
94.51893727954494
 21
100.5264104934264
 31
0.0
  0
LINE
  5
11C
330
1F
100
AcDbEntity
  8
0
100
AcDbLine
 10
-5.183610514816267
 20
14.6784023719543
 30
0.0
 11
-5.183610514816267
 21
68.17840237195405
 31
0.0
  0
LINE
  5
11D
330
1F
100
AcDbEntity
  8
0
100
AcDbLine
 10
-28.07183908247006
 20
13.22951363252061
 30
0.0
 11
-27.68361051481627
 21
13.17840237195428
 31
0.0
  0
LINE
  5
11E
330
1F
100
AcDbEntity
  8
0
100
AcDbLine
 10
-28.43361051481627
 20
13.37936426627754
 30
0.0
 11
-28.07183908247006
 21
13.22951363252061
 31
0.0
  0
LINE
  5
11F
330
1F
100
AcDbEntity
  8
0
100
AcDbLine
 10
-28.7442706865961
 20
13.6177422001745
 30
0.0
 11
-28.43361051481627
 21
13.37936426627754
 31
0.0
  0
LINE
  5
120
330
1F
100
AcDbEntity
  8
0
100
AcDbLine
 10
6.816389485183733
 20
14.6784023719543
 30
0.0
 11
6.867500745750128
 21
14.29017380430041
 31
0.0
  0
LINE
  5
121
330
1F
100
AcDbEntity
  8
0
100
AcDbLine
 10
228.2046180528375
 20
13.22951363252061
 30
0.0
 11
228.5663894851838
 21
13.37936426627754
 31
0.0
  0
LINE
  5
122
330
1F
100
AcDbEntity
  8
0
100
AcDbLine
 10
-17.13249925376778
 20
68.5666309414073
 30
0.0
 11
-16.98264861863028
 21
68.92840237518045
 31
0.0
  0
LINE
  5
123
330
1F
100
AcDbEntity
  8
0
100
AcDbLine
 10
-16.98264861863028
 20
68.92840237518045
 30
0.0
 11
-16.74427068264482
 21
69.23906254768559
 31
0.0
  0
LINE
  5
124
330
1F
100
AcDbEntity
  8
0
100
AcDbLine
 10
9.615427600173625
 20
-11.07159764417673
 30
0.0
 11
9.765278229920314
 21
-11.43336908018276
 31
0.0
  0
LINE
  5
125
330
1F
100
AcDbEntity
  8
0
100
AcDbLine
 10
-28.98697445609034
 20
82.51729595077475
 30
0.0
 11
-29.15968504175981
 21
82.15137593454374
 31
0.0
  0
LINE
  5
126
330
1F
100
AcDbEntity
  8
0
100
AcDbLine
 10
-20.62295033118265
 20
69.23906253188042
 30
0.0
 11
-20.38457239982639
 21
68.92840235582348
 31
0.0
  0
LINE
  5
127
330
1F
100
AcDbEntity
  8
0
100
AcDbLine
 10
-20.38457239982639
 20
68.92840235582348
 30
0.0
 11
-20.2347217700797
 21
68.5666309198171
 31
0.0
  0
LINE
  5
128
330
1F
100
AcDbEntity
  8
0
100
AcDbLine
 10
94.51893727954494
 20
100.5264104934264
 30
0.0
 11
94.34366623914285
 21
100.1617099764578
 31
0.0
  0
LINE
  5
129
330
1F
100
AcDbEntity
  8
0
100
AcDbLine
 10
94.34366623914285
 20
100.1617099764578
 30
0.0
 11
94.26875885416823
 21
99.76407284494553
 31
0.0
  0
LINE
  5
12A
330
1F
100
AcDbEntity
  8
0
100
AcDbLine
 10
94.26875885416823
 20
99.76407284494553
 30
0.0
 11
94.29931993911674
 21
99.36059741227594
 31
0.0
  0
LINE
  5
12B
330
1F
100
AcDbEntity
  8
0
100
AcDbLine
 10
263.6587288610496
 20
-81.54659762804583
 30
0.0
 11
263.4124049960229
 21
-81.22558211720677
 31
0.0
  0
LINE
  5
12C
330
1F
100
AcDbEntity
  8
0
100
AcDbLine
 10
263.4124049960229
 20
-81.22558211720677
 30
0.0
 11
263.0913894851838
 21
-80.97925825218016
 31
0.0
  0
LINE
  5
12D
330
1F
100
AcDbEntity
  8
0
100
AcDbLine
 10
263.0913894851838
 20
-80.97925825218016
 30
0.0
 11
262.7175590050927
 21
-80.8244125972978
 31
0.0
  0
LINE
  5
12E
330
1F
100
AcDbEntity
  8
0
100
AcDbLine
 10
262.7175590050927
 20
-80.8244125972978
 30
0.0
 11
262.3163894851838
 21
-80.77159762804601
 31
0.0
  0
LINE
  5
12F
330
1F
100
AcDbEntity
  8
0
100
AcDbLine
 10
262.3163894851838
 20
-80.77159762804601
 30
0.0
 11
261.9152199652748
 21
-80.8244125972978
 31
0.0
  0
LINE
  5
130
330
1F
100
AcDbEntity
  8
0
100
AcDbLine
 10
261.9152199652748
 20
-80.8244125972978
 30
0.0
 11
261.5413894851837
 21
-80.97925825218016
 31
0.0
  0
LINE
  5
131
330
1F
100
AcDbEntity
  8
0
100
AcDbLine
 10
261.5413894851837
 20
-80.97925825218016
 30
0.0
 11
261.2203739743446
 21
-81.22558211720677
 31
0.0
  0
LINE
  5
132
330
1F
100
AcDbEntity
  8
0
100
AcDbLine
 10
261.2203739743446
 20
-81.22558211720677
 30
0.0
 11
260.9740501093179
 21
-81.54659762804583
 31
0.0
  0
LINE
  5
133
330
1F
100
AcDbEntity
  8
0
100
AcDbLine
 10
260.9740501093179
 20
-81.54659762804583
 30
0.0
 11
260.8192044544357
 21
-81.92042810813705
 31
0.0
  0
LINE
  5
134
330
1F
100
AcDbEntity
  8
0
100
AcDbLine
 10
260.8192044544357
 20
-81.92042810813705
 30
0.0
 11
260.7663894851838
 21
-82.32159762804602
 31
0.0
  0
LINE
  5
135
330
1F
100
AcDbEntity
  8
0
100
AcDbLine
 10
260.7663894851838
 20
-82.32159762804602
 30
0.0
 11
260.8192044544357
 21
-82.722767147955
 31
0.0
  0
LINE
  5
136
330
1F
100
AcDbEntity
  8
0
100
AcDbLine
 10
260.8192044544357
 20
-82.722767147955
 30
0.0
 11
260.9740501093179
 21
-83.09659762804584
 31
0.0
  0
LINE
  5
137
330
1F
100
AcDbEntity
  8
0
100
AcDbLine
 10
260.9740501093179
 20
-83.09659762804584
 30
0.0
 11
261.2203739743446
 21
-83.4176131388849
 31
0.0
  0
LINE
  5
138
330
1F
100
AcDbEntity
  8
0
100
AcDbLine
 10
261.2203739743446
 20
-83.4176131388849
 30
0.0
 11
261.5413894851837
 21
-83.66393700391187
 31
0.0
  0
LINE
  5
139
330
1F
100
AcDbEntity
  8
0
100
AcDbLine
 10
261.5413894851837
 20
-83.66393700391187
 30
0.0
 11
261.9152199652748
 21
-83.81878265879388
 31
0.0
  0
LINE
  5
13A
330
1F
100
AcDbEntity
  8
0
100
AcDbLine
 10
261.9152199652748
 20
-83.81878265879388
 30
0.0
 11
262.3163894851838
 21
-83.87159762804603
 31
0.0
  0
LINE
  5
13B
330
1F
100
AcDbEntity
  8
0
100
AcDbLine
 10
262.3163894851838
 20
-83.87159762804603
 30
0.0
 11
262.7175590050927
 21
-83.81878265879388
 31
0.0
  0
LINE
  5
13C
330
1F
100
AcDbEntity
  8
0
100
AcDbLine
 10
262.7175590050927
 20
-83.81878265879388
 30
0.0
 11
263.0913894851838
 21
-83.66393700391187
 31
0.0
  0
LINE
  5
13D
330
1F
100
AcDbEntity
  8
0
100
AcDbLine
 10
263.0913894851838
 20
-83.66393700391187
 30
0.0
 11
263.4124049960229
 21
-83.4176131388849
 31
0.0
  0
LINE
  5
13E
330
1F
100
AcDbEntity
  8
0
100
AcDbLine
 10
261.6684316132458
 20
3.086468633248117
 30
0.0
 11
261.3260758771425
 21
2.870786101182557
 31
0.0
  0
LINE
  5
13F
330
1F
100
AcDbEntity
  8
0
100
AcDbLine
 10
261.3260758771425
 20
2.870786101182557
 30
0.0
 11
261.0512083768566
 21
2.573844588477414
 31
0.0
  0
LINE
  5
140
330
1F
100
AcDbEntity
  8
0
100
AcDbLine
 10
261.0512083768566
 20
2.573844588477414
 30
0.0
 11
260.8625608782925
 21
2.215880168504441
 31
0.0
  0
LINE
  5
141
330
1F
100
AcDbEntity
  8
0
100
AcDbLine
 10
260.8625608782925
 20
2.215880168504441
 30
0.0
 11
260.7729893967227
 21
1.821287524920774
 31
0.0
  0
LINE
  5
142
330
1F
100
AcDbEntity
  8
0
100
AcDbLine
 10
260.7729893967227
 20
1.821287524920774
 30
0.0
 11
260.7885980805922
 21
1.416957494291316
 31
0.0
  0
LINE
  5
143
330
1F
100
AcDbEntity
  8
0
100
AcDbLine
 10
260.7885980805922
 20
1.416957494291316
 30
0.0
 11
260.9083232238901
 21
1.030444500016475
 31
0.0
  0
LINE
  5
144
330
1F
100
AcDbEntity
  8
0
100
AcDbLine
 10
260.9083232238901
 20
1.030444500016475
 30
0.0
 11
261.1240057559555
 21
0.6880887639129781
 31
0.0
  0
LINE
  5
145
330
1F
100
AcDbEntity
  8
0
100
AcDbLine
 10
261.4209472686606
 20
0.4132212636270253
 30
0.0
 11
261.7789116886335
 21
0.224573765063127
 31
0.0
  0
LINE
  5
146
330
1F
100
AcDbEntity
  8
0
100
AcDbLine
 10
261.7789116886335
 20
0.224573765063127
 30
0.0
 11
262.1735043322172
 21
0.1350022834930684
 31
0.0
  0
LINE
  5
147
330
1F
100
AcDbEntity
  8
0
100
AcDbLine
 10
262.1735043322172
 20
0.1350022834930684
 30
0.0
 11
262.5778343628468
 21
0.1506109673629055
 31
0.0
  0
LINE
  5
148
330
1F
100
AcDbEntity
  8
0
100
AcDbLine
 10
262.5778343628468
 20
0.1506109673629055
 30
0.0
 11
262.9643473571217
 21
0.2703361106606195
 31
0.0
  0
LINE
  5
149
330
1F
100
AcDbEntity
  8
0
100
AcDbLine
 10
262.9643473571217
 20
0.2703361106606195
 30
0.0
 11
263.306703093225
 21
0.4860186427261795
 31
0.0
  0
LINE
  5
14A
330
1F
100
AcDbEntity
  8
0
100
AcDbLine
 10
263.306703093225
 20
0.4860186427261795
 30
0.0
 11
263.581570593511
 21
0.7829601554313228
 31
0.0
  0
LINE
  5
14B
330
1F
100
AcDbEntity
  8
0
100
AcDbLine
 10
263.581570593511
 20
0.7829601554313228
 30
0.0
 11
263.770218092075
 21
1.140924575403935
 31
0.0
  0
LINE
  5
14C
330
1F
100
AcDbEntity
  8
0
100
AcDbLine
 10
263.770218092075
 20
1.140924575403935
 30
0.0
 11
263.8597895736448
 21
1.535517218987962
 31
0.0
  0
LINE
  5
14D
330
1F
100
AcDbEntity
  8
0
100
AcDbLine
 10
263.8597895736448
 20
1.535517218987962
 30
0.0
 11
263.8441808897753
 21
1.939847249617421
 31
0.0
  0
LINE
  5
14E
330
1F
100
AcDbEntity
  8
0
100
AcDbLine
 10
263.8441808897753
 20
1.939847249617421
 30
0.0
 11
263.7244557464775
 21
2.326360243892262
 31
0.0
  0
LINE
  5
14F
330
1F
100
AcDbEntity
  8
0
100
AcDbLine
 10
263.508773214412
 20
2.668715979995758
 30
0.0
 11
263.211831701707
 21
2.943583480281711
 31
0.0
  0
LINE
  5
150
330
1F
100
AcDbEntity
  8
0
100
AcDbLine
 10
262.853867281734
 20
3.132230978845609
 30
0.0
 11
262.4592746381502
 21
3.221802460415307
 31
0.0
  0
LINE
  5
151
330
1F
100
AcDbEntity
  8
0
100
AcDbLine
 10
262.4592746381502
 20
3.221802460415307
 30
0.0
 11
262.0549446075207
 21
3.206193776545831
 31
0.0
  0
LINE
  5
152
330
1F
100
AcDbEntity
  8
0
100
AcDbLine
 10
261.2203739743446
 20
84.58238686111551
 30
0.0
 11
261.5413894851837
 21
84.33606299608854
 31
0.0
  0
LINE
  5
153
330
1F
100
AcDbEntity
  8
0
100
AcDbLine
 10
261.5413894851837
 20
84.33606299608854
 30
0.0
 11
261.9152199652748
 21
84.18121734120653
 31
0.0
  0
LINE
  5
154
330
1F
100
AcDbEntity
  8
0
100
AcDbLine
 10
261.9152199652748
 20
84.18121734120653
 30
0.0
 11
262.3163894851838
 21
84.12840237195438
 31
0.0
  0
LINE
  5
155
330
1F
100
AcDbEntity
  8
0
100
AcDbLine
 10
262.3163894851838
 20
84.12840237195438
 30
0.0
 11
262.7175590050927
 21
84.18121734120653
 31
0.0
  0
LINE
  5
156
330
1F
100
AcDbEntity
  8
0
100
AcDbLine
 10
262.7175590050927
 20
84.18121734120653
 30
0.0
 11
263.0913894851838
 21
84.33606299608854
 31
0.0
  0
LINE
  5
157
330
1F
100
AcDbEntity
  8
0
100
AcDbLine
 10
263.0913894851838
 20
84.33606299608854
 30
0.0
 11
263.4124049960229
 21
84.58238686111551
 31
0.0
  0
LINE
  5
158
330
1F
100
AcDbEntity
  8
0
100
AcDbLine
 10
263.4124049960229
 20
84.58238686111551
 30
0.0
 11
263.6587288610497
 21
84.90340237195457
 31
0.0
  0
LINE
  5
159
330
1F
100
AcDbEntity
  8
0
100
AcDbLine
 10
263.6587288610497
 20
84.90340237195457
 30
0.0
 11
263.8135745159319
 21
85.27723285204542
 31
0.0
  0
LINE
  5
15A
330
1F
100
AcDbEntity
  8
0
100
AcDbLine
 10
263.8135745159319
 20
85.27723285204542
 30
0.0
 11
263.8663894851838
 21
85.67840237195439
 31
0.0
  0
LINE
  5
15B
330
1F
100
AcDbEntity
  8
0
100
AcDbLine
 10
263.8663894851838
 20
85.67840237195439
 30
0.0
 11
263.8135745159319
 21
86.07957189186337
 31
0.0
  0
LINE
  5
15C
330
1F
100
AcDbEntity
  8
0
100
AcDbLine
 10
263.8135745159319
 20
86.07957189186337
 30
0.0
 11
263.6587288610497
 21
86.45340237195458
 31
0.0
  0
LINE
  5
15D
330
1F
100
AcDbEntity
  8
0
100
AcDbLine
 10
263.6587288610497
 20
86.45340237195458
 30
0.0
 11
263.4124049960229
 21
86.77441788279364
 31
0.0
  0
LINE
  5
15E
330
1F
100
AcDbEntity
  8
0
100
AcDbLine
 10
263.4124049960229
 20
86.77441788279364
 30
0.0
 11
263.0913894851838
 21
87.02074174782025
 31
0.0
  0
LINE
  5
15F
330
1F
100
AcDbEntity
  8
0
100
AcDbLine
 10
262.7175590050927
 20
87.17558740270262
 30
0.0
 11
262.3163894851838
 21
87.2284023719544
 31
0.0
  0
LINE
  5
160
330
1F
100
AcDbEntity
  8
0
100
AcDbLine
 10
262.3163894851838
 20
87.2284023719544
 30
0.0
 11
261.9152199652748
 21
87.17558740270262
 31
0.0
  0
LINE
  5
161
330
1F
100
AcDbEntity
  8
0
100
AcDbLine
 10
261.9152199652748
 20
87.17558740270262
 30
0.0
 11
261.5413894851837
 21
87.02074174782025
 31
0.0
  0
LINE
  5
162
330
1F
100
AcDbEntity
  8
0
100
AcDbLine
 10
261.5413894851837
 20
87.02074174782025
 30
0.0
 11
261.2203739743446
 21
86.77441788279364
 31
0.0
  0
LINE
  5
163
330
1F
100
AcDbEntity
  8
0
100
AcDbLine
 10
261.2203739743446
 20
86.77441788279364
 30
0.0
 11
260.9740501093179
 21
86.45340237195458
 31
0.0
  0
LINE
  5
164
330
1F
100
AcDbEntity
  8
0
100
AcDbLine
 10
260.9740501093179
 20
86.45340237195458
 30
0.0
 11
260.8192044544357
 21
86.07957189186337
 31
0.0
  0
LINE
  5
165
330
1F
100
AcDbEntity
  8
0
100
AcDbLine
 10
260.8192044544357
 20
86.07957189186337
 30
0.0
 11
260.7663894851838
 21
85.67840237195439
 31
0.0
  0
LINE
  5
166
330
1F
100
AcDbEntity
  8
0
100
AcDbLine
 10
260.7663894851838
 20
85.67840237195439
 30
0.0
 11
260.8192044544357
 21
85.27723285204542
 31
0.0
  0
LINE
  5
167
330
1F
100
AcDbEntity
  8
0
100
AcDbLine
 10
260.8192044544357
 20
85.27723285204542
 30
0.0
 11
260.9740501093179
 21
84.90340237195457
 31
0.0
  0
LINE
  5
168
330
1F
100
AcDbEntity
  8
0
100
AcDbLine
 10
247.5668876349147
 20
125.3222119254275
 30
0.0
 11
247.8923229469383
 21
125.5626662087519
 31
0.0
  0
LINE
  5
169
330
1F
100
AcDbEntity
  8
0
100
AcDbLine
 10
247.8923229469383
 20
125.5626662087519
 30
0.0
 11
248.1444351716075
 21
125.8791560677576
 31
0.0
  0
LINE
  5
16A
330
1F
100
AcDbEntity
  8
0
100
AcDbLine
 10
248.1444351716075
 20
125.8791560677576
 30
0.0
 11
248.3060432774461
 21
126.2501132415774
 31
0.0
  0
LINE
  5
16B
330
1F
100
AcDbEntity
  8
0
100
AcDbLine
 10
248.3060432774461
 20
126.2501132415774
 30
0.0
 11
248.3661339391114
 21
126.6502576118508
 31
0.0
  0
LINE
  5
16C
330
1F
100
AcDbEntity
  8
0
100
AcDbLine
 10
248.3661339391114
 20
126.6502576118508
 30
0.0
 11
248.3206120773154
 21
127.0523200010139
 31
0.0
  0
LINE
  5
16D
330
1F
100
AcDbEntity
  8
0
100
AcDbLine
 10
248.3206120773154
 20
127.0523200010139
 30
0.0
 11
248.172579931711
 21
127.428900521685
 31
0.0
  0
LINE
  5
16E
330
1F
100
AcDbEntity
  8
0
100
AcDbLine
 10
248.172579931711
 20
127.428900521685
 30
0.0
 11
247.9321256483864
 21
127.7543358337085
 31
0.0
  0
LINE
  5
16F
330
1F
100
AcDbEntity
  8
0
100
AcDbLine
 10
247.9321256483864
 20
127.7543358337085
 30
0.0
 11
247.6156357893808
 21
128.0064480583777
 31
0.0
  0
LINE
  5
170
330
1F
100
AcDbEntity
  8
0
100
AcDbLine
 10
247.6156357893808
 20
128.0064480583777
 30
0.0
 11
247.2446786155612
 21
128.1680561642165
 31
0.0
  0
LINE
  5
171
330
1F
100
AcDbEntity
  8
0
100
AcDbLine
 10
247.2446786155612
 20
128.1680561642165
 30
0.0
 11
246.8445342452875
 21
128.2281468258818
 31
0.0
  0
LINE
  5
172
330
1F
100
AcDbEntity
  8
0
100
AcDbLine
 10
246.8445342452875
 20
128.2281468258818
 30
0.0
 11
246.4424718561243
 21
128.1826249640856
 31
0.0
  0
LINE
  5
173
330
1F
100
AcDbEntity
  8
0
100
AcDbLine
 10
246.0658913354534
 20
128.0345928184814
 30
0.0
 11
245.7404560234298
 21
127.7941385351567
 31
0.0
  0
LINE
  5
174
330
1F
100
AcDbEntity
  8
0
100
AcDbLine
 10
245.4883437987606
 20
127.4776486761509
 30
0.0
 11
245.326735692922
 21
127.1066915023315
 31
0.0
  0
LINE
  5
175
330
1F
100
AcDbEntity
  8
0
100
AcDbLine
 10
245.326735692922
 20
127.1066915023315
 30
0.0
 11
245.2666450312566
 21
126.7065471320578
 31
0.0
  0
LINE
  5
176
330
1F
100
AcDbEntity
  8
0
100
AcDbLine
 10
245.2666450312566
 20
126.7065471320578
 30
0.0
 11
245.3121668930527
 21
126.3044847428946
 31
0.0
  0
LINE
  5
177
330
1F
100
AcDbEntity
  8
0
100
AcDbLine
 10
245.3121668930527
 20
126.3044847428946
 30
0.0
 11
245.4601990386571
 21
125.9279042222235
 31
0.0
  0
LINE
  5
178
330
1F
100
AcDbEntity
  8
0
100
AcDbLine
 10
245.4601990386571
 20
125.9279042222235
 30
0.0
 11
245.7006533219817
 21
125.6024689102
 31
0.0
  0
LINE
  5
179
330
1F
100
AcDbEntity
  8
0
100
AcDbLine
 10
245.7006533219817
 20
125.6024689102
 30
0.0
 11
246.0171431809873
 21
125.3503566855308
 31
0.0
  0
LINE
  5
17A
330
1F
100
AcDbEntity
  8
0
100
AcDbLine
 10
246.0171431809873
 20
125.3503566855308
 30
0.0
 11
246.3881003548069
 21
125.1887485796924
 31
0.0
  0
LINE
  5
17B
330
1F
100
AcDbEntity
  8
0
100
AcDbLine
 10
246.3881003548069
 20
125.1887485796924
 30
0.0
 11
246.7882447250805
 21
125.1286579180271
 31
0.0
  0
LINE
  5
17C
330
1F
100
AcDbEntity
  8
0
100
AcDbLine
 10
246.7882447250805
 20
125.1286579180271
 30
0.0
 11
247.1903071142438
 21
125.1741797798229
 31
0.0
  0
LINE
  5
17D
330
1F
100
AcDbEntity
  8
0
100
AcDbLine
 10
-11.40062525199688
 20
-124.8455462298784
 30
0.0
 11
-11.01584081908823
 21
-124.7203769649921
 31
0.0
  0
LINE
  5
17E
330
1F
100
AcDbEntity
  8
0
100
AcDbLine
 10
-11.01584081908823
 20
-124.7203769649921
 30
0.0
 11
-10.67656378740185
 21
-124.4998831998848
 31
0.0
  0
LINE
  5
17F
330
1F
100
AcDbEntity
  8
0
100
AcDbLine
 10
-10.67656378740185
 20
-124.4998831998848
 30
0.0
 11
-10.40591532596536
 21
-124.199091220266
 31
0.0
  0
LINE
  5
180
330
1F
100
AcDbEntity
  8
0
100
AcDbLine
 10
-10.40591532596536
 20
-124.199091220266
 30
0.0
 11
-10.22233968015792
 21
-123.838499502464
 31
0.0
  0
LINE
  5
181
330
1F
100
AcDbEntity
  8
0
100
AcDbLine
 10
-10.22233968015792
 20
-123.838499502464
 30
0.0
 11
-10.13834722686823
 21
-123.442681776141
 31
0.0
  0
LINE
  5
182
330
1F
100
AcDbEntity
  8
0
100
AcDbLine
 10
-10.13834722686823
 20
-123.442681776141
 30
0.0
 11
-10.15966191298386
 21
-123.0386123652267
 31
0.0
  0
LINE
  5
183
330
1F
100
AcDbEntity
  8
0
100
AcDbLine
 10
-10.15966191298386
 20
-123.0386123652267
 30
0.0
 11
-10.28483117787024
 21
-122.653827932318
 31
0.0
  0
LINE
  5
184
330
1F
100
AcDbEntity
  8
0
100
AcDbLine
 10
-10.28483117787024
 20
-122.653827932318
 30
0.0
 11
-10.50532494297734
 21
-122.3145509006317
 31
0.0
  0
LINE
  5
185
330
1F
100
AcDbEntity
  8
0
100
AcDbLine
 10
-10.50532494297734
 20
-122.3145509006317
 30
0.0
 11
-10.80611692259629
 21
-122.0439024391949
 31
0.0
  0
LINE
  5
186
330
1F
100
AcDbEntity
  8
0
100
AcDbLine
 10
-10.80611692259629
 20
-122.0439024391949
 30
0.0
 11
-11.16670864039831
 21
-121.8603267933876
 31
0.0
  0
LINE
  5
187
330
1F
100
AcDbEntity
  8
0
100
AcDbLine
 10
-11.16670864039831
 20
-121.8603267933876
 30
0.0
 11
-11.56252636672117
 21
-121.776334340098
 31
0.0
  0
LINE
  5
188
330
1F
100
AcDbEntity
  8
0
100
AcDbLine
 10
-11.56252636672117
 20
-121.776334340098
 30
0.0
 11
-11.96659577763571
 21
-121.7976490262134
 31
0.0
  0
LINE
  5
189
330
1F
100
AcDbEntity
  8
0
100
AcDbLine
 10
-11.96659577763571
 20
-121.7976490262134
 30
0.0
 11
-12.35138021054436
 21
-121.9228182911
 31
0.0
  0
LINE
  5
18A
330
1F
100
AcDbEntity
  8
0
100
AcDbLine
 10
-12.35138021054436
 20
-121.9228182911
 30
0.0
 11
-12.69065724223074
 21
-122.143312056207
 31
0.0
  0
LINE
  5
18B
330
1F
100
AcDbEntity
  8
0
100
AcDbLine
 10
-12.69065724223074
 20
-122.143312056207
 30
0.0
 11
-12.96130570366723
 21
-122.4441040358258
 31
0.0
  0
LINE
  5
18C
330
1F
100
AcDbEntity
  8
0
100
AcDbLine
 10
-12.96130570366723
 20
-122.4441040358258
 30
0.0
 11
-13.14488134947467
 21
-122.8046957536282
 31
0.0
  0
LINE
  5
18D
330
1F
100
AcDbEntity
  8
0
100
AcDbLine
 10
-13.14488134947467
 20
-122.8046957536282
 30
0.0
 11
-13.22887380276436
 21
-123.2005134799508
 31
0.0
  0
LINE
  5
18E
330
1F
100
AcDbEntity
  8
0
100
AcDbLine
 10
-13.22887380276436
 20
-123.2005134799508
 30
0.0
 11
-13.20755911664873
 21
-123.6045828908655
 31
0.0
  0
LINE
  5
18F
330
1F
100
AcDbEntity
  8
0
100
AcDbLine
 10
-13.20755911664873
 20
-123.6045828908655
 30
0.0
 11
-13.08238985176235
 21
-123.9893673237742
 31
0.0
  0
LINE
  5
190
330
1F
100
AcDbEntity
  8
0
100
AcDbLine
 10
-13.08238985176235
 20
-123.9893673237742
 30
0.0
 11
-12.86189608665525
 21
-124.3286443554605
 31
0.0
  0
LINE
  5
191
330
1F
100
AcDbEntity
  8
0
100
AcDbLine
 10
-12.86189608665525
 20
-124.3286443554605
 30
0.0
 11
-12.5611041070363
 21
-124.5992928168969
 31
0.0
  0
LINE
  5
192
330
1F
100
AcDbEntity
  8
0
100
AcDbLine
 10
-12.5611041070363
 20
-124.5992928168969
 30
0.0
 11
-12.20051238923428
 21
-124.7828684627045
 31
0.0
  0
LINE
  5
193
330
1F
100
AcDbEntity
  8
0
100
AcDbLine
 10
-12.20051238923428
 20
-124.7828684627045
 30
0.0
 11
-11.80469466291142
 21
-124.8668609159941
 31
0.0
  0
LINE
  5
194
330
1F
100
AcDbEntity
  8
0
100
AcDbLine
 10
-11.80469466291142
 20
-124.8668609159941
 30
0.0
 11
-11.40062525199688
 21
-124.8455462298784
 31
0.0
  0
LINE
  5
195
330
1F
100
AcDbEntity
  8
0
100
AcDbLine
 10
2.974050109316686
 20
-77.5465976280453
 30
0.0
 11
2.819204454434378
 21
-77.9204281081365
 31
0.0
  0
LINE
  5
196
330
1F
100
AcDbEntity
  8
0
100
AcDbLine
 10
2.819204454434378
 20
-77.9204281081365
 30
0.0
 11
2.766389485182337
 21
-78.32159762804548
 31
0.0
  0
LINE
  5
197
330
1F
100
AcDbEntity
  8
0
100
AcDbLine
 10
2.766389485182337
 20
-78.32159762804548
 30
0.0
 11
2.819204454434237
 21
-78.72276714795481
 31
0.0
  0
LINE
  5
198
330
1F
100
AcDbEntity
  8
0
100
AcDbLine
 10
2.819204454434237
 20
-78.72276714795481
 30
0.0
 11
2.974050109316416
 21
-79.09659762804603
 31
0.0
  0
LINE
  5
199
330
1F
100
AcDbEntity
  8
0
100
AcDbLine
 10
2.974050109316416
 20
-79.09659762804603
 30
0.0
 11
3.220373974343204
 21
-79.41761313888546
 31
0.0
  0
LINE
  5
19A
330
1F
100
AcDbEntity
  8
0
100
AcDbLine
 10
3.220373974343204
 20
-79.41761313888546
 30
0.0
 11
3.541389485182454
 21
-79.66393700391207
 31
0.0
  0
LINE
  5
19B
330
1F
100
AcDbEntity
  8
0
100
AcDbLine
 10
3.541389485182454
 20
-79.66393700391207
 30
0.0
 11
3.915219965273694
 21
-79.81878265879443
 31
0.0
  0
LINE
  5
19C
330
1F
100
AcDbEntity
  8
0
100
AcDbLine
 10
3.915219965273694
 20
-79.81878265879443
 30
0.0
 11
4.316389485182774
 21
-79.87159762804657
 31
0.0
  0
LINE
  5
19D
330
1F
100
AcDbEntity
  8
0
100
AcDbLine
 10
4.316389485182774
 20
-79.87159762804657
 30
0.0
 11
4.717559005091871
 21
-79.81878265879479
 31
0.0
  0
LINE
  5
19E
330
1F
100
AcDbEntity
  8
0
100
AcDbLine
 10
4.717559005091871
 20
-79.81878265879479
 30
0.0
 11
5.091389485183162
 21
-79.66393700391242
 31
0.0
  0
LINE
  5
19F
330
1F
100
AcDbEntity
  8
0
100
AcDbLine
 10
5.091389485183162
 20
-79.66393700391242
 30
0.0
 11
5.412404996022501
 21
-79.41761313888581
 31
0.0
  0
LINE
  5
1A0
330
1F
100
AcDbEntity
  8
0
100
AcDbLine
 10
5.412404996022501
 20
-79.41761313888581
 30
0.0
 11
5.658728861049402
 21
-79.0965976280464
 31
0.0
  0
LINE
  5
1A1
330
1F
100
AcDbEntity
  8
0
100
AcDbLine
 10
5.658728861049402
 20
-79.0965976280464
 30
0.0
 11
5.813574515931712
 21
-78.72276714795518
 31
0.0
  0
LINE
  5
1A2
330
1F
100
AcDbEntity
  8
0
100
AcDbLine
 10
-23.13249925424987
 20
-65.70982619569945
 30
0.0
 11
-22.98264862049292
 21
-66.07159762804575
 31
0.0
  0
LINE
  5
1A3
330
1F
100
AcDbEntity
  8
0
100
AcDbLine
 10
7.928160926525848
 20
69.62729111379856
 30
0.0
 11
8.31638949635962
 21
69.67840237195442
 31
0.0
  0
LINE
  5
1A4
330
1F
100
AcDbEntity
  8
0
100
AcDbLine
 10
8.31638949635962
 20
69.67840237195442
 30
0.0
 11
8.70461806543175
 21
69.62729110801352
 31
0.0
  0
LINE
  5
1A5
330
1F
100
AcDbEntity
  8
0
100
AcDbLine
 10
8.70461806543175
 20
69.62729110801352
 30
0.0
 11
9.066389498088517
 21
69.47744047018033
 31
0.0
  0
LINE
  5
1A6
330
1F
100
AcDbEntity
  8
0
100
AcDbLine
 10
247.1154275908604
 20
13.92840237195411
 30
0.0
 11
247.2652782246173
 21
14.29017380430041
 31
0.0
  0
LINE
  5
1A7
330
1F
100
AcDbEntity
  8
0
100
AcDbLine
 10
8.31638949635962
 20
-10.32159762804579
 30
0.0
 11
8.704618065431774
 21
-10.37270889198669
 31
0.0
  0
LINE
  5
1A8
330
1F
100
AcDbEntity
  8
0
100
AcDbLine
 10
-3.29538193456825
 20
69.62729110801317
 30
0.0
 11
-2.933610501911484
 21
69.47744047018033
 31
0.0
  0
LINE
  5
1A9
330
1F
100
AcDbEntity
  8
0
100
AcDbLine
 10
96.13419444486199
 20
98.16133282588729
 30
0.0
 11
96.5160119947269
 21
98.29527969332442
 31
0.0
  0
LINE
  5
1AA
330
1F
100
AcDbEntity
  8
0
100
AcDbLine
 10
240.8770496688174
 20
-10.76093746811979
 30
0.0
 11
241.1154276001736
 21
-11.07159764417673
 31
0.0
  0
LINE
  5
1AB
330
1F
100
AcDbEntity
  8
0
100
AcDbLine
 10
-21.29538194716249
 20
-66.77048636747925
 30
0.0
 11
-20.93361051481627
 21
-66.62063573372232
 31
0.0
  0
LINE
  5
1AC
330
1F
100
AcDbEntity
  8
0
100
AcDbLine
 10
-21.68361051481627
 20
-66.82159762804558
 30
0.0
 11
-21.29538194716249
 21
-66.77048636747925
 31
0.0
  0
LINE
  5
1AD
330
1F
100
AcDbEntity
  8
0
100
AcDbLine
 10
9.066389485183741
 20
-66.62063573372232
 30
0.0
 11
9.377049656963578
 21
-66.38225779982572
 31
0.0
  0
LINE
  5
1AE
330
1F
100
AcDbEntity
  8
0
100
AcDbLine
 10
-22.7442706865961
 20
13.6177422001745
 30
0.0
 11
-22.43361051481627
 21
13.37936426627754
 31
0.0
  0
LINE
  5
1AF
330
1F
100
AcDbEntity
  8
0
100
AcDbLine
 10
238.3163894851837
 20
-65.32159762804592
 30
0.0
 11
238.3163894851837
 21
-11.82159762804581
 31
0.0
  0
LINE
  5
1B0
330
1F
100
AcDbEntity
  8
0
100
AcDbLine
 10
-10.74427068659609
 20
-66.38225779982572
 30
0.0
 11
-10.43361051481627
 21
-66.62063573372232
 31
0.0
  0
LINE
  5
1B1
330
1F
100
AcDbEntity
  8
0
100
AcDbLine
 10
2.766389485183527
 20
81.67840237195387
 30
0.0
 11
2.819204454435472
 21
81.27723285204489
 31
0.0
  0
LINE
  5
1B2
330
1F
100
AcDbEntity
  8
0
100
AcDbLine
 10
-16.07183907347416
 20
-10.37270888620166
 30
0.0
 11
-15.68361050364039
 21
-10.32159762804579
 31
0.0
  0
LINE
  5
1B3
330
1F
100
AcDbEntity
  8
0
100
AcDbLine
 10
-26.38457240913961
 20
-66.07159762804575
 30
0.0
 11
-26.23472177538267
 21
-65.70982619569945
 31
0.0
  0
LINE
  5
1B4
330
1F
100
AcDbEntity
  8
0
100
AcDbLine
 10
-26.18361051481626
 20
-11.82159762804581
 30
0.0
 11
-26.18361051481626
 21
-65.32159762804592
 31
0.0
  0
LINE
  5
1B5
330
1F
100
AcDbEntity
  8
0
100
AcDbLine
 10
-29.18361051481627
 20
-65.32159762804592
 30
0.0
 11
-29.18361051481627
 21
-11.82159762804581
 31
0.0
  0
LINE
  5
1B6
330
1F
100
AcDbEntity
  8
0
100
AcDbLine
 10
-28.74427068264482
 20
-10.76093745231463
 30
0.0
 11
-28.43361050836387
 21
-10.52255951864362
 31
0.0
  0
LINE
  5
1B7
330
1F
100
AcDbEntity
  8
0
100
AcDbLine
 10
-28.43361050836387
 20
-10.52255951864362
 30
0.0
 11
-28.07183907347417
 21
-10.37270888620166
 31
0.0
  0
LINE
  5
1B8
330
1F
100
AcDbEntity
  8
0
100
AcDbLine
 10
239.4281609175299
 20
-66.77048636747925
 30
0.0
 11
239.8163894851837
 21
-66.82159762804558
 31
0.0
  0
LINE
  5
1B9
330
1F
100
AcDbEntity
  8
0
100
AcDbLine
 10
-11.13249925376778
 20
68.5666309414073
 30
0.0
 11
-10.98264861863028
 21
68.92840237518045
 31
0.0
  0
LINE
  5
1BA
330
1F
100
AcDbEntity
  8
0
100
AcDbLine
 10
-10.98264861863028
 20
68.92840237518045
 30
0.0
 11
-10.74427068264482
 21
69.23906254768559
 31
0.0
  0
LINE
  5
1BB
330
1F
100
AcDbEntity
  8
0
100
AcDbLine
 10
-10.74427068264482
 20
69.23906254768559
 30
0.0
 11
-10.43361050836387
 21
69.47744048135623
 31
0.0
  0
LINE
  5
1BC
330
1F
100
AcDbEntity
  8
0
100
AcDbLine
 10
-4.744270682644824
 20
69.23906254768559
 30
0.0
 11
-4.433610508363869
 21
69.47744048135623
 31
0.0
  0
LINE
  5
1BD
330
1F
100
AcDbEntity
  8
0
100
AcDbLine
 10
245.4281609175299
 20
-66.77048636747925
 30
0.0
 11
245.8163894851837
 21
-66.82159762804558
 31
0.0
  0
LINE
  5
1BE
330
1F
100
AcDbEntity
  8
0
100
AcDbLine
 10
233.8163894963596
 20
-10.32159762804579
 30
0.0
 11
234.2046180654318
 21
-10.37270889198669
 31
0.0
  0
LINE
  5
1BF
330
1F
100
AcDbEntity
  8
0
100
AcDbLine
 10
226.3675007462322
 20
68.5666309414073
 30
0.0
 11
226.5173513813697
 21
68.92840237518045
 31
0.0
  0
LINE
  5
1C0
330
1F
100
AcDbEntity
  8
0
100
AcDbLine
 10
-20.93361051481627
 20
13.37936426627754
 30
0.0
 11
-20.62295034303645
 21
13.6177422001745
 31
0.0
  0
LINE
  5
1C1
330
1F
100
AcDbEntity
  8
0
100
AcDbLine
 10
-2.933610501911484
 20
69.47744047018033
 30
0.0
 11
-2.622950331182638
 21
69.23906253188042
 31
0.0
  0
LINE
  5
1C2
330
1F
100
AcDbEntity
  8
0
100
AcDbLine
 10
272.3163894851838
 20
135.6784023719542
 30
0.0
 11
272.3163894851838
 21
-132.3215976280459
 31
0.0
  0
LINE
  5
1C3
330
1F
100
AcDbEntity
  8
0
100
AcDbLine
 10
245.0663894851837
 20
13.37936426627754
 30
0.0
 11
245.4281609175299
 21
13.22951363252061
 31
0.0
  0
LINE
  5
1C4
330
1F
100
AcDbEntity
  8
0
100
AcDbLine
 10
226.3163894851837
 20
-65.32159762804592
 30
0.0
 11
226.3675007457502
 21
-65.70982619569945
 31
0.0
  0
LINE
  5
1C5
330
1F
100
AcDbEntity
  8
0
100
AcDbLine
 10
-26.38457240913961
 20
13.92840237195411
 30
0.0
 11
-26.23472177538267
 21
14.29017380430041
 31
0.0
  0
LINE
  5
1C6
330
1F
100
AcDbEntity
  8
0
100
AcDbLine
 10
9.377049668817364
 20
-10.76093746811979
 30
0.0
 11
9.615427600173625
 21
-11.07159764417673
 31
0.0
  0
LINE
  5
1C7
330
1F
100
AcDbEntity
  8
0
100
AcDbLine
 10
232.7557293134039
 20
-66.38225779982572
 30
0.0
 11
233.0663894851837
 21
-66.62063573372232
 31
0.0
  0
LINE
  5
1C8
330
1F
100
AcDbEntity
  8
0
100
AcDbLine
 10
245.0663894916362
 20
-10.52255951864362
 30
0.0
 11
245.4281609265258
 21
-10.37270888620166
 31
0.0
  0
LINE
  5
1C9
330
1F
100
AcDbEntity
  8
0
100
AcDbLine
 10
232.7557293134039
 20
13.6177422001745
 30
0.0
 11
233.0663894851837
 21
13.37936426627754
 31
0.0
  0
LINE
  5
1CA
330
1F
100
AcDbEntity
  8
0
100
AcDbLine
 10
-11.18361051481627
 20
-65.32159762804592
 30
0.0
 11
-11.13249925424987
 21
-65.70982619569945
 31
0.0
  0
LINE
  5
1CB
330
1F
100
AcDbEntity
  8
0
100
AcDbLine
 10
-16.98264861863028
 20
-11.07159762481976
 30
0.0
 11
-16.74427068264482
 21
-10.76093745231463
 31
0.0
  0
LINE
  5
1CC
330
1F
100
AcDbEntity
  8
0
100
AcDbLine
 10
-2.234721770079687
 20
-11.43336908018312
 30
0.0
 11
-2.18361051481625
 21
-11.82159762804581
 31
0.0
  0
LINE
  5
1CD
330
1F
100
AcDbEntity
  8
0
100
AcDbLine
 10
-2.622950343036423
 20
-66.38225779982572
 30
0.0
 11
-2.384572409139597
 21
-66.07159762804575
 31
0.0
  0
LINE
  5
1CE
330
1F
100
AcDbEntity
  8
0
100
AcDbLine
 10
-8.933610501911485
 20
-10.52255952981953
 30
0.0
 11
-8.622950331182649
 21
-10.76093746811979
 31
0.0
  0
LINE
  5
1CF
330
1F
100
AcDbEntity
  8
0
100
AcDbLine
 10
263.211831701707
 20
2.943583480281711
 30
0.0
 11
262.853867281734
 21
3.132230978845609
 31
0.0
  0
LINE
  5
1D0
330
1F
100
AcDbEntity
  8
0
100
AcDbLine
 10
-29.18361051481627
 20
-11.82159762804581
 30
0.0
 11
-29.13249925376778
 21
-11.43336905859292
 31
0.0
  0
LINE
  5
1D1
330
1F
100
AcDbEntity
  8
0
100
AcDbLine
 10
241.1154275908604
 20
-66.07159762804575
 30
0.0
 11
241.2652782246173
 21
-65.70982619569945
 31
0.0
  0
LINE
  5
1D2
330
1F
100
AcDbEntity
  8
0
100
AcDbLine
 10
247.2652782246173
 20
14.29017380430041
 30
0.0
 11
247.3163894851837
 21
14.6784023719543
 31
0.0
  0
LINE
  5
1D3
330
1F
100
AcDbEntity
  8
0
100
AcDbLine
 10
240.5663894980885
 20
-10.52255952981953
 30
0.0
 11
240.8770496688174
 21
-10.76093746811979
 31
0.0
  0
LINE
  5
1D4
330
1F
100
AcDbEntity
  8
0
100
AcDbLine
 10
-9.683610503640393
 20
-10.32159762804579
 30
0.0
 11
-9.295381934568251
 21
-10.37270889198669
 31
0.0
  0
LINE
  5
1D5
330
1F
100
AcDbEntity
  8
0
100
AcDbLine
 10
-11.13249925424987
 20
-65.70982619569945
 30
0.0
 11
-10.98264862049292
 21
-66.07159762804575
 31
0.0
  0
LINE
  5
1D6
330
1F
100
AcDbEntity
  8
0
100
AcDbLine
 10
-8.384572409139608
 20
-66.07159762804575
 30
0.0
 11
-8.234721775382656
 21
-65.70982619569945
 31
0.0
  0
LINE
  5
1D7
330
1F
100
AcDbEntity
  8
0
100
AcDbLine
 10
-8.183610514816262
 20
-11.82159762804581
 30
0.0
 11
-8.183610514816262
 21
-65.32159762804592
 31
0.0
  0
LINE
  5
1D8
330
1F
100
AcDbEntity
  8
0
100
AcDbLine
 10
-11.18361051481627
 20
-65.32159762804592
 30
0.0
 11
-11.18361051481627
 21
-11.82159762804581
 31
0.0
  0
LINE
  5
1D9
330
1F
100
AcDbEntity
  8
0
100
AcDbLine
 10
-11.18361051481627
 20
-11.82159762804581
 30
0.0
 11
-11.13249925376778
 21
-11.43336905859292
 31
0.0
  0
LINE
  5
1DA
330
1F
100
AcDbEntity
  8
0
100
AcDbLine
 10
228.5663894851838
 20
-66.62063573372232
 30
0.0
 11
228.8770496569636
 21
-66.38225779982572
 31
0.0
  0
LINE
  5
1DB
330
1F
100
AcDbEntity
  8
0
100
AcDbLine
 10
238.7557293134039
 20
-66.38225779982572
 30
0.0
 11
239.0663894851837
 21
-66.62063573372232
 31
0.0
  0
LINE
  5
1DC
330
1F
100
AcDbEntity
  8
0
100
AcDbLine
 10
8.704618052837532
 20
-66.77048636747925
 30
0.0
 11
9.066389485183741
 21
-66.62063573372232
 31
0.0
  0
LINE
  5
1DD
330
1F
100
AcDbEntity
  8
0
100
AcDbLine
 10
246.2046180528375
 20
-66.77048636747925
 30
0.0
 11
246.5663894851837
 21
-66.62063573372232
 31
0.0
  0
LINE
  5
1DE
330
1F
100
AcDbEntity
  8
0
100
AcDbLine
 10
227.0663894916361
 20
69.47744048135623
 30
0.0
 11
227.4281609265259
 21
69.6272911137982
 31
0.0
  0
LINE
  5
1DF
330
1F
100
AcDbEntity
  8
0
100
AcDbLine
 10
3.615427590860392
 20
-66.07159762804575
 30
0.0
 11
3.765278224617344
 21
-65.70982619569945
 31
0.0
  0
LINE
  5
1E0
330
1F
100
AcDbEntity
  8
0
100
AcDbLine
 10
3.816389485183739
 20
-11.82159762804581
 30
0.0
 11
3.816389485183739
 21
-65.32159762804592
 31
0.0
  0
LINE
  5
1E1
330
1F
100
AcDbEntity
  8
0
100
AcDbLine
 10
3.066389498088527
 20
-10.52255952981953
 30
0.0
 11
3.377049668817374
 21
-10.76093746811979
 31
0.0
  0
LINE
  5
1E2
330
1F
100
AcDbEntity
  8
0
100
AcDbLine
 10
0.8163894851837445
 20
68.17840237195405
 30
0.0
 11
0.8675007462322183
 21
68.5666309414073
 31
0.0
  0
LINE
  5
1E3
330
1F
100
AcDbEntity
  8
0
100
AcDbLine
 10
0.8675007462322183
 20
68.5666309414073
 30
0.0
 11
1.017351381369736
 21
68.92840237518045
 31
0.0
  0
LINE
  5
1E4
330
1F
100
AcDbEntity
  8
0
100
AcDbLine
 10
-20.93361050191148
 20
69.47744047018033
 30
0.0
 11
-20.62295033118265
 21
69.23906253188042
 31
0.0
  0
LINE
  5
1E5
330
1F
100
AcDbEntity
  8
0
100
AcDbLine
 10
-2.93361051481626
 20
13.37936426627754
 30
0.0
 11
-2.622950343036446
 21
13.6177422001745
 31
0.0
  0
LINE
  5
1E6
330
1F
100
AcDbEntity
  8
0
100
AcDbLine
 10
-14.93361050191148
 20
-10.52255952981953
 30
0.0
 11
-14.62295033118265
 21
-10.76093746811979
 31
0.0
  0
LINE
  5
1E7
330
1F
100
AcDbEntity
  8
0
100
AcDbLine
 10
244.7557293134039
 20
-66.38225779982572
 30
0.0
 11
245.0663894851837
 21
-66.62063573372232
 31
0.0
  0
LINE
  5
1E8
330
1F
100
AcDbEntity
  8
0
100
AcDbLine
 10
-2.384572409139597
 20
13.92840237195411
 30
0.0
 11
-2.234721775382667
 21
14.29017380430041
 31
0.0
  0
LINE
  5
1E9
330
1F
100
AcDbEntity
  8
0
100
AcDbLine
 10
232.3163894851837
 20
68.1784023719544
 30
0.0
 11
232.3675007462322
 21
68.5666309414073
 31
0.0
  0
LINE
  5
1EA
330
1F
100
AcDbEntity
  8
0
100
AcDbLine
 10
229.1154276001736
 20
68.92840235582312
 30
0.0
 11
229.2652782299203
 21
68.5666309198171
 31
0.0
  0
LINE
  5
1EB
330
1F
100
AcDbEntity
  8
0
100
AcDbLine
 10
245.8163894851837
 20
-66.82159762804558
 30
0.0
 11
246.2046180528375
 21
-66.77048636747925
 31
0.0
  0
LINE
  5
1EC
330
1F
100
AcDbEntity
  8
0
100
AcDbLine
 10
-4.982648618630276
 20
68.92840237518045
 30
0.0
 11
-4.744270682644824
 21
69.23906254768559
 31
0.0
  0
LINE
  5
1ED
330
1F
100
AcDbEntity
  8
0
100
AcDbLine
 10
234.8770496688173
 20
69.23906253188042
 30
0.0
 11
235.1154276001736
 21
68.92840235582312
 31
0.0
  0
LINE
  5
1EE
330
1F
100
AcDbEntity
  8
0
100
AcDbLine
 10
232.3163894851837
 20
-65.32159762804592
 30
0.0
 11
232.3675007457502
 21
-65.70982619569945
 31
0.0
  0
LINE
  5
1EF
330
1F
100
AcDbEntity
  8
0
100
AcDbLine
 10
241.3163894851837
 20
-11.82159762804581
 30
0.0
 11
241.3163894851837
 21
-65.32159762804592
 31
0.0
  0
LINE
  5
1F0
330
1F
100
AcDbEntity
  8
0
100
AcDbLine
 10
9.81638948518375
 20
-11.82159762804581
 30
0.0
 11
9.81638948518375
 21
-65.32159762804592
 31
0.0
  0
LINE
  5
1F1
330
1F
100
AcDbEntity
  8
0
100
AcDbLine
 10
228.8770496569636
 20
13.6177422001745
 30
0.0
 11
229.1154275908604
 21
13.92840237195411
 31
0.0
  0
LINE
  5
1F2
330
1F
100
AcDbEntity
  8
0
100
AcDbLine
 10
246.8770496569635
 20
13.6177422001745
 30
0.0
 11
247.1154275908604
 21
13.92840237195411
 31
0.0
  0
LINE
  5
1F3
330
1F
100
AcDbEntity
  8
0
100
AcDbLine
 10
238.5173513813697
 20
68.92840237518045
 30
0.0
 11
238.7557293173552
 21
69.23906254768522
 31
0.0
  0
LINE
  5
1F4
330
1F
100
AcDbEntity
  8
0
100
AcDbLine
 10
229.1154275908604
 20
-66.07159762804575
 30
0.0
 11
229.2652782246174
 21
-65.70982619569945
 31
0.0
  0
LINE
  5
1F5
330
1F
100
AcDbEntity
  8
0
100
AcDbLine
 10
-4.744270682644813
 20
-10.76093745231463
 30
0.0
 11
-4.433610508363869
 21
-10.52255951864362
 31
0.0
  0
LINE
  5
1F6
330
1F
100
AcDbEntity
  8
0
100
AcDbLine
 10
-4.433610508363869
 20
-10.52255951864362
 30
0.0
 11
-4.071839073474152
 21
-10.37270888620166
 31
0.0
  0
LINE
  5
1F7
330
1F
100
AcDbEntity
  8
0
100
AcDbLine
 10
-2.622950331182638
 20
69.23906253188042
 30
0.0
 11
-2.384572399826375
 21
68.92840235582348
 31
0.0
  0
LINE
  5
1F8
330
1F
100
AcDbEntity
  8
0
100
AcDbLine
 10
-26.49722733465723
 20
-79.31909196378706
 30
0.0
 11
-26.279481829754
 21
-78.97804460670082
 31
0.0
  0
LINE
  5
1F9
330
1F
100
AcDbEntity
  8
0
100
AcDbLine
 10
-3.295381947162491
 20
-66.77048636747925
 30
0.0
 11
-2.93361051481626
 21
-66.62063573372232
 31
0.0
  0
LINE
  5
1FA
330
1F
100
AcDbEntity
  8
0
100
AcDbLine
 10
-14.23472177538267
 20
-65.70982619569945
 30
0.0
 11
-14.18361051481626
 21
-65.32159762804592
 31
0.0
  0
LINE
  5
1FB
330
1F
100
AcDbEntity
  8
0
100
AcDbLine
 10
7.928160926525848
 20
-10.37270888620166
 30
0.0
 11
8.31638949635962
 21
-10.32159762804579
 31
0.0
  0
LINE
  5
1FC
330
1F
100
AcDbEntity
  8
0
100
AcDbLine
 10
233.0663894916361
 20
-10.52255951864362
 30
0.0
 11
233.4281609265259
 21
-10.37270888620166
 31
0.0
  0
LINE
  5
1FD
330
1F
100
AcDbEntity
  8
0
100
AcDbLine
 10
244.5173513813698
 20
-11.0715976248194
 30
0.0
 11
244.7557293173552
 21
-10.76093745231463
 31
0.0
  0
LINE
  5
1FE
330
1F
100
AcDbEntity
  8
0
100
AcDbLine
 10
228.5663894980885
 20
69.47744047018033
 30
0.0
 11
228.8770496688174
 21
69.23906253188042
 31
0.0
  0
LINE
  5
1FF
330
1F
100
AcDbEntity
  8
0
100
AcDbLine
 10
3.838593356647674
 20
3.152922924389736
 30
0.0
 11
3.473239863564319
 21
2.979017117204361
 31
0.0
  0
LINE
  5
200
330
1F
100
AcDbEntity
  8
0
100
AcDbLine
 10
244.7557293134039
 20
13.6177422001745
 30
0.0
 11
245.0663894851837
 21
13.37936426627754
 31
0.0
  0
LINE
  5
201
330
1F
100
AcDbEntity
  8
0
100
AcDbLine
 10
229.1154276001736
 20
-11.07159764417673
 30
0.0
 11
229.2652782299203
 21
-11.43336908018312
 31
0.0
  0
LINE
  5
202
330
1F
100
AcDbEntity
  8
0
100
AcDbLine
 10
-3.295381947162491
 20
13.22951363252061
 30
0.0
 11
-2.93361051481626
 21
13.37936426627754
 31
0.0
  0
LINE
  5
203
330
1F
100
AcDbEntity
  8
0
100
AcDbLine
 10
234.5663894851837
 20
-66.62063573372232
 30
0.0
 11
234.8770496569635
 21
-66.38225779982572
 31
0.0
  0
LINE
  5
204
330
1F
100
AcDbEntity
  8
0
100
AcDbLine
 10
5.159539106803214
 20
0.3777876267032922
 30
0.0
 11
5.467433346543833
 21
0.6403281794101786
 31
0.0
  0
LINE
  5
205
330
1F
100
AcDbEntity
  8
0
100
AcDbLine
 10
238.7557293173552
 20
69.23906254768522
 30
0.0
 11
239.0663894916362
 21
69.47744048135623
 31
0.0
  0
LINE
  5
206
330
1F
100
AcDbEntity
  8
0
100
AcDbLine
 10
235.3163894851838
 20
-11.82159762804581
 30
0.0
 11
235.3163894851838
 21
-65.32159762804592
 31
0.0
  0
LINE
  5
207
330
1F
100
AcDbEntity
  8
0
100
AcDbLine
 10
233.4281609265259
 20
69.6272911137982
 30
0.0
 11
233.8163894963596
 21
69.67840237195442
 31
0.0
  0
LINE
  5
208
330
1F
100
AcDbEntity
  8
0
100
AcDbLine
 10
263.7244557464775
 20
2.326360243892262
 30
0.0
 11
263.508773214412
 21
2.668715979995758
 31
0.0
  0
LINE
  5
209
330
1F
100
AcDbEntity
  8
0
100
AcDbLine
 10
-14.62295033118265
 20
-10.76093746811979
 30
0.0
 11
-14.38457239982639
 21
-11.07159764417673
 31
0.0
  0
LINE
  5
20A
330
1F
100
AcDbEntity
  8
0
100
AcDbLine
 10
234.2046180528376
 20
-66.77048636747925
 30
0.0
 11
234.5663894851837
 21
-66.62063573372232
 31
0.0
  0
LINE
  5
20B
330
1F
100
AcDbEntity
  8
0
100
AcDbLine
 10
226.3163894851837
 20
14.6784023719543
 30
0.0
 11
226.3163894851837
 21
68.1784023719544
 31
0.0
  0
LINE
  5
20C
330
1F
100
AcDbEntity
  8
0
100
AcDbLine
 10
240.8770496569635
 20
13.6177422001745
 30
0.0
 11
241.1154275908604
 21
13.92840237195411
 31
0.0
  0
LINE
  5
20D
330
1F
100
AcDbEntity
  8
0
100
AcDbLine
 10
7.566389485183744
 20
-66.62063573372232
 30
0.0
 11
7.928160917529953
 21
-66.77048636747925
 31
0.0
  0
LINE
  5
20E
330
1F
100
AcDbEntity
  8
0
100
AcDbLine
 10
-5.183610514816267
 20
14.6784023719543
 30
0.0
 11
-5.132499254249872
 21
14.29017380430041
 31
0.0
  0
LINE
  5
20F
330
1F
100
AcDbEntity
  8
0
100
AcDbLine
 10
-20.2347217700797
 20
-11.43336908018312
 30
0.0
 11
-20.18361051481626
 21
-11.82159762804581
 31
0.0
  0
LINE
  5
210
330
1F
100
AcDbEntity
  8
0
100
AcDbLine
 10
-20.93361050191148
 20
-10.52255952981953
 30
0.0
 11
-20.62295033118265
 21
-10.76093746811979
 31
0.0
  0
LINE
  5
211
330
1F
100
AcDbEntity
  8
0
100
AcDbLine
 10
9.066389485183741
 20
13.37936426627754
 30
0.0
 11
9.377049656963555
 21
13.6177422001745
 31
0.0
  0
LINE
  5
212
330
1F
100
AcDbEntity
  8
0
100
AcDbLine
 10
8.704618052837509
 20
13.22951363252061
 30
0.0
 11
9.066389485183741
 21
13.37936426627754
 31
0.0
  0
LINE
  5
213
330
1F
100
AcDbEntity
  8
0
100
AcDbLine
 10
8.31638948518373
 20
13.17840237195428
 30
0.0
 11
8.704618052837509
 21
13.22951363252061
 31
0.0
  0
LINE
  5
214
330
1F
100
AcDbEntity
  8
0
100
AcDbLine
 10
228.2046180654318
 20
69.62729110801317
 30
0.0
 11
228.5663894980885
 21
69.47744047018033
 31
0.0
  0
LINE
  5
215
330
1F
100
AcDbEntity
  8
0
100
AcDbLine
 10
246.4152199652751
 20
-124.8187826587939
 30
0.0
 11
246.816389485184
 21
-124.8715976280457
 31
0.0
  0
LINE
  5
216
330
1F
100
AcDbEntity
  8
0
100
AcDbLine
 10
9.765278224617356
 20
-65.70982619569945
 30
0.0
 11
9.81638948518375
 21
-65.32159762804592
 31
0.0
  0
LINE
  5
217
330
1F
100
AcDbEntity
  8
0
100
AcDbLine
 10
7.255729313403929
 20
-66.38225779982572
 30
0.0
 11
7.566389485183744
 21
-66.62063573372232
 31
0.0
  0
LINE
  5
218
330
1F
100
AcDbEntity
  8
0
100
AcDbLine
 10
2.704618052837521
 20
-66.77048636747925
 30
0.0
 11
3.066389485183752
 21
-66.62063573372232
 31
0.0
  0
LINE
  5
219
330
1F
100
AcDbEntity
  8
0
100
AcDbLine
 10
3.278315292640051
 20
0.5273585105937769
 30
0.0
 11
3.611598886069951
 21
0.2979060078150411
 31
0.0
  0
LINE
  5
21A
330
1F
100
AcDbEntity
  8
0
100
AcDbLine
 10
228.8770496688174
 20
-10.76093746811979
 30
0.0
 11
229.1154276001736
 21
-11.07159764417673
 31
0.0
  0
LINE
  5
21B
330
1F
100
AcDbEntity
  8
0
100
AcDbLine
 10
232.5173513795071
 20
13.92840237195411
 30
0.0
 11
232.7557293134039
 21
13.6177422001745
 31
0.0
  0
LINE
  5
21C
330
1F
100
AcDbEntity
  8
0
100
AcDbLine
 10
238.7557293134039
 20
13.6177422001745
 30
0.0
 11
239.0663894851837
 21
13.37936426627754
 31
0.0
  0
LINE
  5
21D
330
1F
100
AcDbEntity
  8
0
100
AcDbLine
 10
-14.18361051481626
 20
-11.82159762804581
 30
0.0
 11
-14.18361051481626
 21
-65.32159762804592
 31
0.0
  0
LINE
  5
21E
330
1F
100
AcDbEntity
  8
0
100
AcDbLine
 10
-17.18361051481627
 20
-65.32159762804592
 30
0.0
 11
-17.18361051481627
 21
-11.82159762804581
 31
0.0
  0
LINE
  5
21F
330
1F
100
AcDbEntity
  8
0
100
AcDbLine
 10
235.1154276001736
 20
68.92840235582312
 30
0.0
 11
235.2652782299203
 21
68.5666309198171
 31
0.0
  0
LINE
  5
220
330
1F
100
AcDbEntity
  8
0
100
AcDbLine
 10
239.8163894963596
 20
69.67840237195442
 30
0.0
 11
240.2046180654317
 21
69.62729110801317
 31
0.0
  0
LINE
  5
221
330
1F
100
AcDbEntity
  8
0
100
AcDbLine
 10
0.8163894851837445
 20
-65.32159762804592
 30
0.0
 11
0.8163894851837445
 21
-11.82159762804581
 31
0.0
  0
LINE
  5
222
330
1F
100
AcDbEntity
  8
0
100
AcDbLine
 10
-27.29538193456825
 20
-10.37270889198669
 30
0.0
 11
-26.93361050191148
 21
-10.52255952981953
 31
0.0
  0
LINE
  5
223
330
1F
100
AcDbEntity
  8
0
100
AcDbLine
 10
-28.43361050836388
 20
69.47744048135623
 30
0.0
 11
-28.07183907347417
 21
69.62729111379856
 31
0.0
  0
LINE
  5
224
330
1F
100
AcDbEntity
  8
0
100
AcDbLine
 10
-28.07183907347417
 20
69.62729111379856
 30
0.0
 11
-27.6836105036404
 21
69.67840237195442
 31
0.0
  0
LINE
  5
225
330
1F
100
AcDbEntity
  8
0
100
AcDbLine
 10
-27.6836105036404
 20
69.67840237195442
 30
0.0
 11
-27.29538193456825
 21
69.62729110801317
 31
0.0
  0
LINE
  5
226
330
1F
100
AcDbEntity
  8
0
100
AcDbLine
 10
-27.29538193456825
 20
69.62729110801317
 30
0.0
 11
-26.93361050191148
 21
69.47744047018033
 31
0.0
  0
LINE
  5
227
330
1F
100
AcDbEntity
  8
0
100
AcDbLine
 10
-26.93361051481627
 20
-66.62063573372232
 30
0.0
 11
-26.62295034303645
 21
-66.38225779982572
 31
0.0
  0
LINE
  5
228
330
1F
100
AcDbEntity
  8
0
100
AcDbLine
 10
-9.295381934568251
 20
-10.37270889198669
 30
0.0
 11
-8.933610501911485
 21
-10.52255952981953
 31
0.0
  0
LINE
  5
229
330
1F
100
AcDbEntity
  8
0
100
AcDbLine
 10
245.4281609265258
 20
-10.37270888620166
 30
0.0
 11
245.8163894963596
 21
-10.32159762804579
 31
0.0
  0
LINE
  5
22A
330
1F
100
AcDbEntity
  8
0
100
AcDbLine
 10
234.2046180654318
 20
-10.37270889198669
 30
0.0
 11
234.5663894980886
 21
-10.52255952981953
 31
0.0
  0
LINE
  5
22B
330
1F
100
AcDbEntity
  8
0
100
AcDbLine
 10
226.5173513795071
 20
-66.07159762804575
 30
0.0
 11
226.7557293134039
 21
-66.38225779982572
 31
0.0
  0
LINE
  5
22C
330
1F
100
AcDbEntity
  8
0
100
AcDbLine
 10
244.3675007462322
 20
68.5666309414073
 30
0.0
 11
244.5173513813698
 21
68.92840237518045
 31
0.0
  0
LINE
  5
22D
330
1F
100
AcDbEntity
  8
0
100
AcDbLine
 10
227.0663894851837
 20
-66.62063573372232
 30
0.0
 11
227.42816091753
 21
-66.77048636747925
 31
0.0
  0
LINE
  5
22E
330
1F
100
AcDbEntity
  8
0
100
AcDbLine
 10
239.4281609265259
 20
-10.37270888620166
 30
0.0
 11
239.8163894963596
 21
-10.32159762804579
 31
0.0
  0
LINE
  5
22F
330
1F
100
AcDbEntity
  8
0
100
AcDbLine
 10
233.42816091753
 20
13.22951363252061
 30
0.0
 11
233.8163894851837
 21
13.17840237195428
 31
0.0
  0
LINE
  5
230
330
1F
100
AcDbEntity
  8
0
100
AcDbLine
 10
232.3163894851837
 20
-11.82159762804581
 30
0.0
 11
232.3675007462322
 21
-11.43336905859292
 31
0.0
  0
LINE
  5
231
330
1F
100
AcDbEntity
  8
0
100
AcDbLine
 10
246.2046180654318
 20
-10.37270889198669
 30
0.0
 11
246.5663894980885
 21
-10.52255952981953
 31
0.0
  0
LINE
  5
232
330
1F
100
AcDbEntity
  8
0
100
AcDbLine
 10
-10.07183908247005
 20
-66.77048636747925
 30
0.0
 11
-9.68361051481627
 21
-66.82159762804558
 31
0.0
  0
LINE
  5
233
330
1F
100
AcDbEntity
  8
0
100
AcDbLine
 10
262.0549446075207
 20
3.206193776545831
 30
0.0
 11
261.6684316132458
 21
3.086468633248117
 31
0.0
  0
LINE
  5
234
330
1F
100
AcDbEntity
  8
0
100
AcDbLine
 10
246.4424718561243
 20
128.1826249640856
 30
0.0
 11
246.0658913354534
 21
128.0345928184814
 31
0.0
  0
LINE
  5
235
330
1F
100
AcDbEntity
  8
0
100
AcDbLine
 10
228.8770496688174
 20
69.23906253188042
 30
0.0
 11
229.1154276001736
 21
68.92840235582312
 31
0.0
  0
LINE
  5
236
330
1F
100
AcDbEntity
  8
0
100
AcDbLine
 10
-2.622950343036446
 20
13.6177422001745
 30
0.0
 11
-2.384572409139597
 21
13.92840237195411
 31
0.0
  0
LINE
  5
237
330
1F
100
AcDbEntity
  8
0
100
AcDbLine
 10
-5.183610514816267
 20
68.17840237195405
 30
0.0
 11
-5.132499253767782
 21
68.5666309414073
 31
0.0
  0
LINE
  5
238
330
1F
100
AcDbEntity
  8
0
100
AcDbLine
 10
-23.18361051481627
 20
14.6784023719543
 30
0.0
 11
-23.18361051481627
 21
68.17840237195405
 31
0.0
  0
LINE
  5
239
330
1F
100
AcDbEntity
  8
0
100
AcDbLine
 10
-20.38457239982639
 20
-11.07159764417673
 30
0.0
 11
-20.2347217700797
 21
-11.43336908018312
 31
0.0
  0
LINE
  5
23A
330
1F
100
AcDbEntity
  8
0
100
AcDbLine
 10
-22.74427068264482
 20
-10.76093745231463
 30
0.0
 11
-22.43361050836387
 21
-10.52255951864362
 31
0.0
  0
LINE
  5
23B
330
1F
100
AcDbEntity
  8
0
100
AcDbLine
 10
244.3163894851837
 20
14.6784023719543
 30
0.0
 11
244.3163894851837
 21
68.1784023719544
 31
0.0
  0
LINE
  5
23C
330
1F
100
AcDbEntity
  8
0
100
AcDbLine
 10
247.3163894851837
 20
-11.82159762804581
 30
0.0
 11
247.3163894851837
 21
-65.32159762804555
 31
0.0
  0
LINE
  5
23D
330
1F
100
AcDbEntity
  8
0
100
AcDbLine
 10
226.7557293134039
 20
-66.38225779982572
 30
0.0
 11
227.0663894851837
 21
-66.62063573372232
 31
0.0
  0
LINE
  5
23E
330
1F
100
AcDbEntity
  8
0
100
AcDbLine
 10
6.86750074623223
 20
-11.43336905859292
 30
0.0
 11
7.017351381369725
 21
-11.0715976248194
 31
0.0
  0
LINE
  5
23F
330
1F
100
AcDbEntity
  8
0
100
AcDbLine
 10
-23.18361051481627
 20
68.17840237195405
 30
0.0
 11
-23.13249925376778
 21
68.5666309414073
 31
0.0
  0
LINE
  5
240
330
1F
100
AcDbEntity
  8
0
100
AcDbLine
 10
-4.071839073474152
 20
-10.37270888620166
 30
0.0
 11
-3.683610503640393
 21
-10.32159762804579
 31
0.0
  0
LINE
  5
241
330
1F
100
AcDbEntity
  8
0
100
AcDbLine
 10
-20.18361051481627
 20
68.17840237195405
 30
0.0
 11
-20.18361051481627
 21
14.6784023719543
 31
0.0
  0
LINE
  5
242
330
1F
100
AcDbEntity
  8
0
100
AcDbLine
 10
-20.23472177538267
 20
14.29017380430041
 30
0.0
 11
-20.18361051481627
 21
14.6784023719543
 31
0.0
  0
LINE
  5
243
330
1F
100
AcDbEntity
  8
0
100
AcDbLine
 10
240.2046180528375
 20
13.22951363252061
 30
0.0
 11
240.5663894851837
 21
13.37936426627754
 31
0.0
  0
LINE
  5
244
330
1F
100
AcDbEntity
  8
0
100
AcDbLine
 10
239.0663894851837
 20
13.37936426627754
 30
0.0
 11
239.4281609175299
 21
13.22951363252061
 31
0.0
  0
LINE
  5
245
330
1F
100
AcDbEntity
  8
0
100
AcDbLine
 10
1.928160926525859
 20
-10.37270888620166
 30
0.0
 11
2.316389496359607
 21
-10.32159762804579
 31
0.0
  0
LINE
  5
246
330
1F
100
AcDbEntity
  8
0
100
AcDbLine
 10
-27.68361051481627
 20
-66.82159762804558
 30
0.0
 11
-27.29538194716249
 21
-66.77048636747925
 31
0.0
  0
LINE
  5
247
330
1F
100
AcDbEntity
  8
0
100
AcDbLine
 10
-29.18361051481627
 20
14.6784023719543
 30
0.0
 11
-29.13249925424987
 21
14.29017380430041
 31
0.0
  0
LINE
  5
248
330
1F
100
AcDbEntity
  8
0
100
AcDbLine
 10
233.0663894851837
 20
13.37936426627754
 30
0.0
 11
233.42816091753
 21
13.22951363252061
 31
0.0
  0
LINE
  5
249
330
1F
100
AcDbEntity
  8
0
100
AcDbLine
 10
227.0663894851837
 20
13.37936426627754
 30
0.0
 11
227.42816091753
 21
13.22951363252061
 31
0.0
  0
LINE
  5
24A
330
1F
100
AcDbEntity
  8
0
100
AcDbLine
 10
246.8770496688174
 20
-10.76093746811979
 30
0.0
 11
247.1154276001736
 21
-11.07159764417673
 31
0.0
  0
LINE
  5
24B
330
1F
100
AcDbEntity
  8
0
100
AcDbLine
 10
1.928160917529963
 20
-66.77048636747925
 30
0.0
 11
2.316389485183742
 21
-66.82159762804558
 31
0.0
  0
LINE
  5
24C
330
1F
100
AcDbEntity
  8
0
100
AcDbLine
 10
232.5173513813697
 20
68.92840237518045
 30
0.0
 11
232.7557293173552
 21
69.23906254768522
 31
0.0
  0
LINE
  5
24D
330
1F
100
AcDbEntity
  8
0
100
AcDbLine
 10
246.5663894851837
 20
13.37936426627754
 30
0.0
 11
246.8770496569635
 21
13.6177422001745
 31
0.0
  0
LINE
  5
24E
330
1F
100
AcDbEntity
  8
0
100
AcDbLine
 10
226.7557293173552
 20
-10.76093745231463
 30
0.0
 11
227.0663894916361
 21
-10.52255951864362
 31
0.0
  0
LINE
  5
24F
330
1F
100
AcDbEntity
  8
0
100
AcDbLine
 10
247.1154275908604
 20
-66.07159762804575
 30
0.0
 11
247.2652782246173
 21
-65.70982619569945
 31
0.0
  0
LINE
  5
250
330
1F
100
AcDbEntity
  8
0
100
AcDbLine
 10
235.2652782299203
 20
-11.43336908018312
 30
0.0
 11
235.3163894851838
 21
-11.82159762804581
 31
0.0
  0
LINE
  5
251
330
1F
100
AcDbEntity
  8
0
100
AcDbLine
 10
238.3163894851837
 20
14.6784023719543
 30
0.0
 11
238.3163894851837
 21
68.1784023719544
 31
0.0
  0
LINE
  5
252
330
1F
100
AcDbEntity
  8
0
100
AcDbLine
 10
226.3163894851837
 20
68.1784023719544
 30
0.0
 11
226.3675007462322
 21
68.5666309414073
 31
0.0
  0
LINE
  5
253
330
1F
100
AcDbEntity
  8
0
100
AcDbLine
 10
245.0663894851837
 20
-66.62063573372232
 30
0.0
 11
245.4281609175299
 21
-66.77048636747925
 31
0.0
  0
LINE
  5
254
330
1F
100
AcDbEntity
  8
0
100
AcDbLine
 10
232.3675007462322
 20
68.5666309414073
 30
0.0
 11
232.5173513813697
 21
68.92840237518045
 31
0.0
  0
LINE
  5
255
330
1F
100
AcDbEntity
  8
0
100
AcDbLine
 10
233.8163894851837
 20
13.17840237195428
 30
0.0
 11
234.2046180528376
 21
13.22951363252061
 31
0.0
  0
LINE
  5
256
330
1F
100
AcDbEntity
  8
0
100
AcDbLine
 10
227.8163894851838
 20
13.17840237195428
 30
0.0
 11
228.2046180528375
 21
13.22951363252061
 31
0.0
  0
LINE
  5
257
330
1F
100
AcDbEntity
  8
0
100
AcDbLine
 10
228.8770496569636
 20
-66.38225779982572
 30
0.0
 11
229.1154275908604
 21
-66.07159762804575
 31
0.0
  0
LINE
  5
258
330
1F
100
AcDbEntity
  8
0
100
AcDbLine
 10
245.0663894916362
 20
69.47744048135623
 30
0.0
 11
245.4281609265258
 21
69.6272911137982
 31
0.0
  0
LINE
  5
259
330
1F
100
AcDbEntity
  8
0
100
AcDbLine
 10
239.0663894916362
 20
69.47744048135623
 30
0.0
 11
239.4281609265259
 21
69.6272911137982
 31
0.0
  0
LINE
  5
25A
330
1F
100
AcDbEntity
  8
0
100
AcDbLine
 10
234.8770496688173
 20
-10.76093746811979
 30
0.0
 11
235.1154276001736
 21
-11.07159764417673
 31
0.0
  0
LINE
  5
25B
330
1F
100
AcDbEntity
  8
0
100
AcDbLine
 10
234.5663894980886
 20
69.47744047018033
 30
0.0
 11
234.8770496688173
 21
69.23906253188042
 31
0.0
  0
LINE
  5
25C
330
1F
100
AcDbEntity
  8
0
100
AcDbLine
 10
238.3163894851837
 20
68.1784023719544
 30
0.0
 11
238.3675007462322
 21
68.5666309414073
 31
0.0
  0
LINE
  5
25D
330
1F
100
AcDbEntity
  8
0
100
AcDbLine
 10
232.5173513813697
 20
-11.07159762481976
 30
0.0
 11
232.7557293173552
 21
-10.76093745231463
 31
0.0
  0
LINE
  5
25E
330
1F
100
AcDbEntity
  8
0
100
AcDbLine
 10
238.5173513795071
 20
13.92840237195411
 30
0.0
 11
238.7557293134039
 21
13.6177422001745
 31
0.0
  0
LINE
  5
25F
330
1F
100
AcDbEntity
  8
0
100
AcDbLine
 10
-8.234721775382656
 20
-65.70982619569945
 30
0.0
 11
-8.183610514816262
 21
-65.32159762804592
 31
0.0
  0
LINE
  5
260
330
1F
100
AcDbEntity
  8
0
100
AcDbLine
 10
-14.38457240913961
 20
-66.07159762804575
 30
0.0
 11
-14.23472177538267
 21
-65.70982619569945
 31
0.0
  0
LINE
  5
261
330
1F
100
AcDbEntity
  8
0
100
AcDbLine
 10
1.566389485183732
 20
13.37936426627754
 30
0.0
 11
1.928160917529963
 21
13.22951363252061
 31
0.0
  0
LINE
  5
262
330
1F
100
AcDbEntity
  8
0
100
AcDbLine
 10
1.255729313403918
 20
13.6177422001745
 30
0.0
 11
1.566389485183732
 21
13.37936426627754
 31
0.0
  0
LINE
  5
263
330
1F
100
AcDbEntity
  8
0
100
AcDbLine
 10
240.2046180528375
 20
-66.77048636747925
 30
0.0
 11
240.5663894851837
 21
-66.62063573372232
 31
0.0
  0
LINE
  5
264
330
1F
100
AcDbEntity
  8
0
100
AcDbLine
 10
238.3675007457501
 20
-65.70982619569945
 30
0.0
 11
238.5173513795071
 21
-66.07159762804575
 31
0.0
  0
LINE
  5
265
330
1F
100
AcDbEntity
  8
0
100
AcDbLine
 10
241.1154276001736
 20
68.92840235582312
 30
0.0
 11
241.2652782299203
 21
68.5666309198171
 31
0.0
  0
LINE
  5
266
330
1F
100
AcDbEntity
  8
0
100
AcDbLine
 10
238.3163894851837
 20
14.6784023719543
 30
0.0
 11
238.3675007457501
 21
14.29017380430041
 31
0.0
  0
LINE
  5
267
330
1F
100
AcDbEntity
  8
0
100
AcDbLine
 10
-4.071839082470048
 20
-66.77048636747925
 30
0.0
 11
-3.683610514816258
 21
-66.82159762804558
 31
0.0
  0
LINE
  5
268
330
1F
100
AcDbEntity
  8
0
100
AcDbLine
 10
244.3163894851837
 20
68.1784023719544
 30
0.0
 11
244.3675007462322
 21
68.5666309414073
 31
0.0
  0
LINE
  5
269
330
1F
100
AcDbEntity
  8
0
100
AcDbLine
 10
247.3163894851837
 20
68.1784023719544
 30
0.0
 11
247.3163894851837
 21
14.6784023719543
 31
0.0
  0
LINE
  5
26A
330
1F
100
AcDbEntity
  8
0
100
AcDbLine
 10
235.3163894851838
 20
68.1784023719544
 30
0.0
 11
235.3163894851838
 21
14.6784023719543
 31
0.0
  0
LINE
  5
26B
330
1F
100
AcDbEntity
  8
0
100
AcDbLine
 10
233.8163894963596
 20
69.67840237195442
 30
0.0
 11
234.2046180654318
 21
69.62729110801317
 31
0.0
  0
LINE
  5
26C
330
1F
100
AcDbEntity
  8
0
100
AcDbLine
 10
-4.744270686596082
 20
-66.38225779982572
 30
0.0
 11
-4.433610514816257
 21
-66.62063573372232
 31
0.0
  0
LINE
  5
26D
330
1F
100
AcDbEntity
  8
0
100
AcDbLine
 10
241.2652782246173
 20
14.29017380430041
 30
0.0
 11
241.3163894851837
 21
14.6784023719543
 31
0.0
  0
LINE
  5
26E
330
1F
100
AcDbEntity
  8
0
100
AcDbLine
 10
6.816389485183756
 20
-65.32159762804592
 30
0.0
 11
6.816389485183756
 21
-11.82159762804581
 31
0.0
  0
LINE
  5
26F
330
1F
100
AcDbEntity
  8
0
100
AcDbLine
 10
244.3675007457501
 20
-65.70982619569945
 30
0.0
 11
244.5173513795071
 21
-66.07159762804575
 31
0.0
  0
LINE
  5
270
330
1F
100
AcDbEntity
  8
0
100
AcDbLine
 10
246.8770496569636
 20
-66.38225779982572
 30
0.0
 11
247.1154275908604
 21
-66.07159762804575
 31
0.0
  0
LINE
  5
271
330
1F
100
AcDbEntity
  8
0
100
AcDbLine
 10
246.2046180654317
 20
69.62729110801317
 30
0.0
 11
246.5663894980885
 21
69.47744047018033
 31
0.0
  0
LINE
  5
272
330
1F
100
AcDbEntity
  8
0
100
AcDbLine
 10
245.8163894963596
 20
-10.32159762804579
 30
0.0
 11
246.2046180654318
 21
-10.37270889198669
 31
0.0
  0
LINE
  5
273
330
1F
100
AcDbEntity
  8
0
100
AcDbLine
 10
0.8675007457501394
 20
-65.70982619569945
 30
0.0
 11
1.017351379507092
 21
-66.07159762804575
 31
0.0
  0
LINE
  5
274
330
1F
100
AcDbEntity
  8
0
100
AcDbLine
 10
0.8163894851837445
 20
-65.32159762804592
 30
0.0
 11
0.8675007457501394
 21
-65.70982619569945
 31
0.0
  0
LINE
  5
275
330
1F
100
AcDbEntity
  8
0
100
AcDbLine
 10
226.3163894851837
 20
-65.32159762804592
 30
0.0
 11
226.3163894851837
 21
-11.82159762804581
 31
0.0
  0
LINE
  5
276
330
1F
100
AcDbEntity
  8
0
100
AcDbLine
 10
229.2652782299203
 20
-11.43336908018312
 30
0.0
 11
229.3163894851838
 21
-11.82159762804581
 31
0.0
  0
LINE
  5
277
330
1F
100
AcDbEntity
  8
0
100
AcDbLine
 10
227.0663894916361
 20
-10.52255951864362
 30
0.0
 11
227.4281609265259
 21
-10.37270888620166
 31
0.0
  0
LINE
  5
278
330
1F
100
AcDbEntity
  8
0
100
AcDbLine
 10
245.4281609265258
 20
69.6272911137982
 30
0.0
 11
245.8163894963596
 21
69.67840237195442
 31
0.0
  0
LINE
  5
279
330
1F
100
AcDbEntity
  8
0
100
AcDbLine
 10
-5.132499253767782
 20
68.5666309414073
 30
0.0
 11
-4.982648618630276
 21
68.92840237518045
 31
0.0
  0
LINE
  5
27A
330
1F
100
AcDbEntity
  8
0
100
AcDbLine
 10
229.3163894851838
 20
68.1784023719544
 30
0.0
 11
229.3163894851838
 21
14.6784023719543
 31
0.0
  0
LINE
  5
27B
330
1F
100
AcDbEntity
  8
0
100
AcDbLine
 10
227.8163894963596
 20
69.67840237195442
 30
0.0
 11
228.2046180654318
 21
69.62729110801317
 31
0.0
  0
LINE
  5
27C
330
1F
100
AcDbEntity
  8
0
100
AcDbLine
 10
-21.29538193456825
 20
69.62729110801317
 30
0.0
 11
-20.93361050191148
 21
69.47744047018033
 31
0.0
  0
LINE
  5
27D
330
1F
100
AcDbEntity
  8
0
100
AcDbLine
 10
2.316389496359607
 20
-10.32159762804579
 30
0.0
 11
2.704618065431761
 21
-10.37270889198669
 31
0.0
  0
LINE
  5
27E
330
1F
100
AcDbEntity
  8
0
100
AcDbLine
 10
226.5173513795071
 20
13.92840237195411
 30
0.0
 11
226.7557293134039
 21
13.6177422001745
 31
0.0
  0
LINE
  5
27F
330
1F
100
AcDbEntity
  8
0
100
AcDbLine
 10
244.3675007462323
 20
-11.43336905859292
 30
0.0
 11
244.5173513813698
 21
-11.0715976248194
 31
0.0
  0
LINE
  5
280
330
1F
100
AcDbEntity
  8
0
100
AcDbLine
 10
228.5663894980885
 20
-10.52255952981953
 30
0.0
 11
228.8770496688174
 21
-10.76093746811979
 31
0.0
  0
LINE
  5
281
330
1F
100
AcDbEntity
  8
0
100
AcDbLine
 10
6.816389485183756
 20
-65.32159762804592
 30
0.0
 11
6.867500745750151
 21
-65.70982619569945
 31
0.0
  0
LINE
  5
282
330
1F
100
AcDbEntity
  8
0
100
AcDbLine
 10
1.566389491636131
 20
-10.52255951864362
 30
0.0
 11
1.928160926525859
 21
-10.37270888620166
 31
0.0
  0
LINE
  5
283
330
1F
100
AcDbEntity
  8
0
100
AcDbLine
 10
238.3675007457501
 20
14.29017380430041
 30
0.0
 11
238.5173513795071
 21
13.92840237195411
 31
0.0
  0
LINE
  5
284
330
1F
100
AcDbEntity
  8
0
100
AcDbLine
 10
246.2046180528375
 20
13.22951363252061
 30
0.0
 11
246.5663894851837
 21
13.37936426627754
 31
0.0
  0
LINE
  5
285
330
1F
100
AcDbEntity
  8
0
100
AcDbLine
 10
235.2652782246174
 20
-65.70982619569945
 30
0.0
 11
235.3163894851838
 21
-65.32159762804592
 31
0.0
  0
LINE
  5
286
330
1F
100
AcDbEntity
  8
0
100
AcDbLine
 10
244.3163894851837
 20
14.6784023719543
 30
0.0
 11
244.3675007457501
 21
14.29017380430041
 31
0.0
  0
LINE
  5
287
330
1F
100
AcDbEntity
  8
0
100
AcDbLine
 10
-4.982648618630276
 20
-11.07159762481976
 30
0.0
 11
-4.744270682644813
 21
-10.76093745231463
 31
0.0
  0
LINE
  5
288
330
1F
100
AcDbEntity
  8
0
100
AcDbLine
 10
227.4281609265259
 20
-10.37270888620166
 30
0.0
 11
227.8163894963596
 21
-10.32159762804579
 31
0.0
  0
LINE
  5
289
330
1F
100
AcDbEntity
  8
0
100
AcDbLine
 10
238.3675007462323
 20
-11.43336905859292
 30
0.0
 11
238.5173513813697
 21
-11.07159762481976
 31
0.0
  0
LINE
  5
28A
330
1F
100
AcDbEntity
  8
0
100
AcDbLine
 10
227.42816091753
 20
-66.77048636747925
 30
0.0
 11
227.8163894851838
 21
-66.82159762804558
 31
0.0
  0
LINE
  5
28B
330
1F
100
AcDbEntity
  8
0
100
AcDbLine
 10
232.3163894851837
 20
14.6784023719543
 30
0.0
 11
232.3675007457502
 21
14.29017380430041
 31
0.0
  0
LINE
  5
28C
330
1F
100
AcDbEntity
  8
0
100
AcDbLine
 10
263.0913894851838
 20
87.02074174782025
 30
0.0
 11
262.7175590050927
 21
87.17558740270262
 31
0.0
  0
LINE
  5
28D
330
1F
100
AcDbEntity
  8
0
100
AcDbLine
 10
244.3675007457501
 20
14.29017380430041
 30
0.0
 11
244.5173513795071
 21
13.92840237195411
 31
0.0
  0
LINE
  5
28E
330
1F
100
AcDbEntity
  8
0
100
AcDbLine
 10
226.5173513813697
 20
-11.07159762481976
 30
0.0
 11
226.7557293173552
 21
-10.76093745231463
 31
0.0
  0
LINE
  5
28F
330
1F
100
AcDbEntity
  8
0
100
AcDbLine
 10
226.3675007457502
 20
14.29017380430041
 30
0.0
 11
226.5173513795071
 21
13.92840237195411
 31
0.0
  0
LINE
  5
290
330
1F
100
AcDbEntity
  8
0
100
AcDbLine
 10
226.3675007462322
 20
-11.43336905859292
 30
0.0
 11
226.5173513813697
 21
-11.07159762481976
 31
0.0
  0
LINE
  5
291
330
1F
100
AcDbEntity
  8
0
100
AcDbLine
 10
247.2652782299203
 20
68.5666309198171
 30
0.0
 11
247.3163894851837
 21
68.1784023719544
 31
0.0
  0
LINE
  5
292
330
1F
100
AcDbEntity
  8
0
100
AcDbLine
 10
235.1154275908604
 20
13.92840237195411
 30
0.0
 11
235.2652782246174
 21
14.29017380430041
 31
0.0
  0
LINE
  5
293
330
1F
100
AcDbEntity
  8
0
100
AcDbLine
 10
228.2046180528375
 20
-66.77048636747925
 30
0.0
 11
228.5663894851838
 21
-66.62063573372232
 31
0.0
  0
LINE
  5
294
330
1F
100
AcDbEntity
  8
0
100
AcDbLine
 10
-2.93361051481626
 20
-66.62063573372232
 30
0.0
 11
-2.622950343036423
 21
-66.38225779982572
 31
0.0
  0
LINE
  5
295
330
1F
100
AcDbEntity
  8
0
100
AcDbLine
 10
245.8163894851837
 20
13.17840237195428
 30
0.0
 11
246.2046180528375
 21
13.22951363252061
 31
0.0
  0
LINE
  5
296
330
1F
100
AcDbEntity
  8
0
100
AcDbLine
 10
5.696885849322681
 20
0.9736117728401638
 30
0.0
 11
5.832259806263575
 21
1.354925680878148
 31
0.0
  0
LINE
  5
297
330
1F
100
AcDbEntity
  8
0
100
AcDbLine
 10
226.3675007457502
 20
-65.70982619569945
 30
0.0
 11
226.5173513795071
 21
-66.07159762804575
 31
0.0
  0
LINE
  5
298
330
1F
100
AcDbEntity
  8
0
100
AcDbLine
 10
232.7557293173552
 20
-10.76093745231463
 30
0.0
 11
233.0663894916361
 21
-10.52255951864362
 31
0.0
  0
LINE
  5
299
330
1F
100
AcDbEntity
  8
0
100
AcDbLine
 10
-4.744270686596094
 20
13.6177422001745
 30
0.0
 11
-4.433610514816269
 21
13.37936426627754
 31
0.0
  0
LINE
  5
29A
330
1F
100
AcDbEntity
  8
0
100
AcDbLine
 10
-4.98264862049292
 20
13.92840237195411
 30
0.0
 11
-4.744270686596094
 21
13.6177422001745
 31
0.0
  0
LINE
  5
29B
330
1F
100
AcDbEntity
  8
0
100
AcDbLine
 10
-5.132499254249872
 20
14.29017380430041
 30
0.0
 11
-4.98264862049292
 21
13.92840237195411
 31
0.0
  0
LINE
  5
29C
330
1F
100
AcDbEntity
  8
0
100
AcDbLine
 10
2.316389496359607
 20
69.67840237195442
 30
0.0
 11
2.704618065431761
 21
69.62729110801317
 31
0.0
  0
LINE
  5
29D
330
1F
100
AcDbEntity
  8
0
100
AcDbLine
 10
6.816389485183756
 20
-11.82159762804581
 30
0.0
 11
6.86750074623223
 21
-11.43336905859292
 31
0.0
  0
LINE
  5
29E
330
1F
100
AcDbEntity
  8
0
100
AcDbLine
 10
3.066389485183752
 20
-66.62063573372232
 30
0.0
 11
3.377049656963566
 21
-66.38225779982572
 31
0.0
  0
LINE
  5
29F
330
1F
100
AcDbEntity
  8
0
100
AcDbLine
 10
241.2652782299203
 20
-11.43336908018312
 30
0.0
 11
241.3163894851837
 21
-11.82159762804581
 31
0.0
  0
LINE
  5
2A0
330
1F
100
AcDbEntity
  8
0
100
AcDbLine
 10
232.3675007457502
 20
14.29017380430041
 30
0.0
 11
232.5173513795071
 21
13.92840237195411
 31
0.0
  0
LINE
  5
2A1
330
1F
100
AcDbEntity
  8
0
100
AcDbLine
 10
9.377049656963578
 20
-66.38225779982572
 30
0.0
 11
9.615427590860405
 21
-66.07159762804575
 31
0.0
  0
LINE
  5
2A2
330
1F
100
AcDbEntity
  8
0
100
AcDbLine
 10
-3.683610503640393
 20
69.67840237195442
 30
0.0
 11
-3.29538193456825
 21
69.62729110801317
 31
0.0
  0
LINE
  5
2A3
330
1F
100
AcDbEntity
  8
0
100
AcDbLine
 10
-28.07183908247005
 20
-66.77048636747925
 30
0.0
 11
-27.68361051481627
 21
-66.82159762804558
 31
0.0
  0
LINE
  5
2A4
330
1F
100
AcDbEntity
  8
0
100
AcDbLine
 10
-3.683610514816258
 20
-66.82159762804558
 30
0.0
 11
-3.295381947162491
 21
-66.77048636747925
 31
0.0
  0
LINE
  5
2A5
330
1F
100
AcDbEntity
  8
0
100
AcDbLine
 10
-9.295381947162491
 20
-66.77048636747925
 30
0.0
 11
-8.933610514816271
 21
-66.62063573372232
 31
0.0
  0
LINE
  5
2A6
330
1F
100
AcDbEntity
  8
0
100
AcDbLine
 10
-9.68361051481627
 20
-66.82159762804558
 30
0.0
 11
-9.295381947162491
 21
-66.77048636747925
 31
0.0
  0
LINE
  5
2A7
330
1F
100
AcDbEntity
  8
0
100
AcDbLine
 10
232.5173513795071
 20
-66.07159762804575
 30
0.0
 11
232.7557293134039
 21
-66.38225779982572
 31
0.0
  0
LINE
  5
2A8
330
1F
100
AcDbEntity
  8
0
100
AcDbLine
 10
232.3675007457502
 20
-65.70982619569945
 30
0.0
 11
232.5173513795071
 21
-66.07159762804575
 31
0.0
  0
LINE
  5
2A9
330
1F
100
AcDbEntity
  8
0
100
AcDbLine
 10
1.017351381369736
 20
68.92840237518045
 30
0.0
 11
1.255729317355187
 21
69.23906254768559
 31
0.0
  0
LINE
  5
2AA
330
1F
100
AcDbEntity
  8
0
100
AcDbLine
 10
1.255729317355187
 20
69.23906254768559
 30
0.0
 11
1.566389491636131
 21
69.47744048135623
 31
0.0
  0
LINE
  5
2AB
330
1F
100
AcDbEntity
  8
0
100
AcDbLine
 10
1.566389491636131
 20
69.47744048135623
 30
0.0
 11
1.928160926525837
 21
69.62729111379856
 31
0.0
  0
LINE
  5
2AC
330
1F
100
AcDbEntity
  8
0
100
AcDbLine
 10
-14.38457239982639
 20
-11.07159764417673
 30
0.0
 11
-14.2347217700797
 21
-11.43336908018312
 31
0.0
  0
LINE
  5
2AD
330
1F
100
AcDbEntity
  8
0
100
AcDbLine
 10
-14.2347217700797
 20
-11.43336908018312
 30
0.0
 11
-14.18361051481626
 21
-11.82159762804581
 31
0.0
  0
LINE
  5
2AE
330
1F
100
AcDbEntity
  8
0
100
AcDbLine
 10
-14.62295034303645
 20
-66.38225779982572
 30
0.0
 11
-14.38457240913961
 21
-66.07159762804575
 31
0.0
  0
LINE
  5
2AF
330
1F
100
AcDbEntity
  8
0
100
AcDbLine
 10
-16.07183908247005
 20
13.22951363252061
 30
0.0
 11
-15.68361051481627
 21
13.17840237195428
 31
0.0
  0
LINE
  5
2B0
330
1F
100
AcDbEntity
  8
0
100
AcDbLine
 10
-16.43361051481627
 20
13.37936426627754
 30
0.0
 11
-16.07183908247005
 21
13.22951363252061
 31
0.0
  0
LINE
  5
2B1
330
1F
100
AcDbEntity
  8
0
100
AcDbLine
 10
-16.7442706865961
 20
-66.38225779982572
 30
0.0
 11
-16.43361051481627
 21
-66.62063573372232
 31
0.0
  0
LINE
  5
2B2
330
1F
100
AcDbEntity
  8
0
100
AcDbLine
 10
-16.98264862049292
 20
-66.07159762804575
 30
0.0
 11
-16.7442706865961
 21
-66.38225779982572
 31
0.0
  0
LINE
  5
2B3
330
1F
100
AcDbEntity
  8
0
100
AcDbLine
 10
260.9740501093179
 20
84.90340237195457
 30
0.0
 11
261.2203739743446
 21
84.58238686111551
 31
0.0
  0
LINE
  5
2B4
330
1F
100
AcDbEntity
  8
0
100
AcDbLine
 10
-26.62295034303645
 20
-66.38225779982572
 30
0.0
 11
-26.38457240913961
 21
-66.07159762804575
 31
0.0
  0
LINE
  5
2B5
330
1F
100
AcDbEntity
  8
0
100
AcDbLine
 10
-29.01337538728402
 20
2.474785058826848
 30
0.0
 11
-29.17418375457747
 21
2.103480502311285
 31
0.0
  0
LINE
  5
2B6
330
1F
100
AcDbEntity
  8
0
100
AcDbLine
 10
240.2046180654317
 20
69.62729110801317
 30
0.0
 11
240.5663894980885
 21
69.47744047018033
 31
0.0
  0
LINE
  5
2B7
330
1F
100
AcDbEntity
  8
0
100
AcDbLine
 10
3.377049668817374
 20
-10.76093746811979
 30
0.0
 11
3.615427600173636
 21
-11.07159764417673
 31
0.0
  0
LINE
  5
2B8
330
1F
100
AcDbEntity
  8
0
100
AcDbLine
 10
7.255729317355199
 20
-10.76093745231463
 30
0.0
 11
7.566389491636142
 21
-10.52255951864362
 31
0.0
  0
LINE
  5
2B9
330
1F
100
AcDbEntity
  8
0
100
AcDbLine
 10
233.0663894916361
 20
69.47744048135623
 30
0.0
 11
233.4281609265259
 21
69.6272911137982
 31
0.0
  0
LINE
  5
2BA
330
1F
100
AcDbEntity
  8
0
100
AcDbLine
 10
239.8163894851837
 20
13.17840237195428
 30
0.0
 11
240.2046180528375
 21
13.22951363252061
 31
0.0
  0
LINE
  5
2BB
330
1F
100
AcDbEntity
  8
0
100
AcDbLine
 10
227.8163894851838
 20
-66.82159762804558
 30
0.0
 11
228.2046180528375
 21
-66.77048636747925
 31
0.0
  0
LINE
  5
2BC
330
1F
100
AcDbEntity
  8
0
100
AcDbLine
 10
228.2046180654318
 20
-10.37270889198669
 30
0.0
 11
228.5663894980885
 21
-10.52255952981953
 31
0.0
  0
LINE
  5
2BD
330
1F
100
AcDbEntity
  8
0
100
AcDbLine
 10
-14.38457239982639
 20
68.92840235582348
 30
0.0
 11
-14.2347217700797
 21
68.5666309198171
 31
0.0
  0
LINE
  5
2BE
330
1F
100
AcDbEntity
  8
0
100
AcDbLine
 10
-14.2347217700797
 20
68.5666309198171
 30
0.0
 11
-14.18361051481627
 21
68.17840237195405
 31
0.0
  0
LINE
  5
2BF
330
1F
100
AcDbEntity
  8
0
100
AcDbLine
 10
-14.18361051481627
 20
68.17840237195405
 30
0.0
 11
-14.18361051481627
 21
14.6784023719543
 31
0.0
  0
LINE
  5
2C0
330
1F
100
AcDbEntity
  8
0
100
AcDbLine
 10
-8.622950331182649
 20
-10.76093746811979
 30
0.0
 11
-8.384572399826387
 21
-11.07159764417673
 31
0.0
  0
LINE
  5
2C1
330
1F
100
AcDbEntity
  8
0
100
AcDbLine
 10
238.3163894851837
 20
-65.32159762804592
 30
0.0
 11
238.3675007457501
 21
-65.70982619569945
 31
0.0
  0
LINE
  5
2C2
330
1F
100
AcDbEntity
  8
0
100
AcDbLine
 10
244.5173513795071
 20
13.92840237195411
 30
0.0
 11
244.7557293134039
 21
13.6177422001745
 31
0.0
  0
LINE
  5
2C3
330
1F
100
AcDbEntity
  8
0
100
AcDbLine
 10
240.5663894851837
 20
13.37936426627754
 30
0.0
 11
240.8770496569635
 21
13.6177422001745
 31
0.0
  0
LINE
  5
2C4
330
1F
100
AcDbEntity
  8
0
100
AcDbLine
 10
235.1154276001736
 20
-11.07159764417673
 30
0.0
 11
235.2652782299203
 21
-11.43336908018312
 31
0.0
  0
LINE
  5
2C5
330
1F
100
AcDbEntity
  8
0
100
AcDbLine
 10
241.1154276001736
 20
-11.07159764417673
 30
0.0
 11
241.2652782299203
 21
-11.43336908018312
 31
0.0
  0
LINE
  5
2C6
330
1F
100
AcDbEntity
  8
0
100
AcDbLine
 10
-23.13249925376778
 20
68.5666309414073
 30
0.0
 11
-22.98264861863028
 21
68.92840237518045
 31
0.0
  0
LINE
  5
2C7
330
1F
100
AcDbEntity
  8
0
100
AcDbLine
 10
-22.98264861863028
 20
68.92840237518045
 30
0.0
 11
-22.74427068264482
 21
69.23906254768559
 31
0.0
  0
LINE
  5
2C8
330
1F
100
AcDbEntity
  8
0
100
AcDbLine
 10
-4.98264862049292
 20
-66.07159762804575
 30
0.0
 11
-4.744270686596082
 21
-66.38225779982572
 31
0.0
  0
LINE
  5
2C9
330
1F
100
AcDbEntity
  8
0
100
AcDbLine
 10
232.3163894851837
 20
14.6784023719543
 30
0.0
 11
232.3163894851837
 21
68.1784023719544
 31
0.0
  0
LINE
  5
2CA
330
1F
100
AcDbEntity
  8
0
100
AcDbLine
 10
-2.384572409139597
 20
-66.07159762804575
 30
0.0
 11
-2.234721775382645
 21
-65.70982619569945
 31
0.0
  0
LINE
  5
2CB
330
1F
100
AcDbEntity
  8
0
100
AcDbLine
 10
-2.18361051481625
 20
-11.82159762804581
 30
0.0
 11
-2.18361051481625
 21
-65.32159762804592
 31
0.0
  0
LINE
  5
2CC
330
1F
100
AcDbEntity
  8
0
100
AcDbLine
 10
-17.18361051481627
 20
-65.32159762804592
 30
0.0
 11
-17.13249925424987
 21
-65.70982619569945
 31
0.0
  0
LINE
  5
2CD
330
1F
100
AcDbEntity
  8
0
100
AcDbLine
 10
-10.07183908247005
 20
13.22951363252061
 30
0.0
 11
-9.68361051481627
 21
13.17840237195428
 31
0.0
  0
LINE
  5
2CE
330
1F
100
AcDbEntity
  8
0
100
AcDbLine
 10
-10.43361051481627
 20
13.37936426627754
 30
0.0
 11
-10.07183908247005
 21
13.22951363252061
 31
0.0
  0
LINE
  5
2CF
330
1F
100
AcDbEntity
  8
0
100
AcDbLine
 10
-17.18361051481627
 20
14.6784023719543
 30
0.0
 11
-17.18361051481627
 21
68.17840237195405
 31
0.0
  0
LINE
  5
2D0
330
1F
100
AcDbEntity
  8
0
100
AcDbLine
 10
-15.68361050364039
 20
-10.32159762804579
 30
0.0
 11
-15.29538193456825
 21
-10.37270889198669
 31
0.0
  0
LINE
  5
2D1
330
1F
100
AcDbEntity
  8
0
100
AcDbLine
 10
-15.29538193456825
 20
-10.37270889198669
 30
0.0
 11
-14.93361050191148
 21
-10.52255952981953
 31
0.0
  0
LINE
  5
2D2
330
1F
100
AcDbEntity
  8
0
100
AcDbLine
 10
247.1154276001736
 20
68.92840235582348
 30
0.0
 11
247.2652782299203
 21
68.5666309198171
 31
0.0
  0
LINE
  5
2D3
330
1F
100
AcDbEntity
  8
0
100
AcDbLine
 10
-15.68361051481627
 20
-66.82159762804558
 30
0.0
 11
-15.29538194716249
 21
-66.77048636747925
 31
0.0
  0
LINE
  5
2D4
330
1F
100
AcDbEntity
  8
0
100
AcDbLine
 10
-16.07183908247005
 20
-66.77048636747925
 30
0.0
 11
-15.68361051481627
 21
-66.82159762804558
 31
0.0
  0
LINE
  5
2D5
330
1F
100
AcDbEntity
  8
0
100
AcDbLine
 10
-17.13249925424987
 20
-65.70982619569945
 30
0.0
 11
-16.98264862049292
 21
-66.07159762804575
 31
0.0
  0
LINE
  5
2D6
330
1F
100
AcDbEntity
  8
0
100
AcDbLine
 10
-22.7442706865961
 20
-66.38225779982572
 30
0.0
 11
-22.43361051481627
 21
-66.62063573372232
 31
0.0
  0
LINE
  5
2D7
330
1F
100
AcDbEntity
  8
0
100
AcDbLine
 10
-22.98264862049292
 20
-66.07159762804575
 30
0.0
 11
-22.7442706865961
 21
-66.38225779982572
 31
0.0
  0
LINE
  5
2D8
330
1F
100
AcDbEntity
  8
0
100
AcDbLine
 10
-23.18361051481627
 20
-11.82159762804581
 30
0.0
 11
-23.13249925376778
 21
-11.43336905859292
 31
0.0
  0
LINE
  5
2D9
330
1F
100
AcDbEntity
  8
0
100
AcDbLine
 10
226.7557293173552
 20
69.23906254768522
 30
0.0
 11
227.0663894916361
 21
69.47744048135623
 31
0.0
  0
LINE
  5
2DA
330
1F
100
AcDbEntity
  8
0
100
AcDbLine
 10
-26.62295033118265
 20
-10.76093746811979
 30
0.0
 11
-26.38457239982639
 21
-11.07159764417673
 31
0.0
  0
LINE
  5
2DB
330
1F
100
AcDbEntity
  8
0
100
AcDbLine
 10
-26.38457239982639
 20
-11.07159764417673
 30
0.0
 11
-26.2347217700797
 21
-11.43336908018312
 31
0.0
  0
LINE
  5
2DC
330
1F
100
AcDbEntity
  8
0
100
AcDbLine
 10
-26.2347217700797
 20
-11.43336908018312
 30
0.0
 11
-26.18361051481626
 21
-11.82159762804581
 31
0.0
  0
LINE
  5
2DD
330
1F
100
AcDbEntity
  8
0
100
AcDbLine
 10
6.816389485183733
 20
14.6784023719543
 30
0.0
 11
6.816389485183733
 21
68.17840237195405
 31
0.0
  0
LINE
  5
2DE
330
1F
100
AcDbEntity
  8
0
100
AcDbLine
 10
228.5663894851838
 20
13.37936426627754
 30
0.0
 11
228.8770496569636
 21
13.6177422001745
 31
0.0
  0
LINE
  5
2DF
330
1F
100
AcDbEntity
  8
0
100
AcDbLine
 10
-8.183610514816262
 20
68.17840237195405
 30
0.0
 11
-8.183610514816262
 21
14.6784023719543
 31
0.0
  0
LINE
  5
2E0
330
1F
100
AcDbEntity
  8
0
100
AcDbLine
 10
-11.18361051481627
 20
14.6784023719543
 30
0.0
 11
-11.18361051481627
 21
68.17840237195405
 31
0.0
  0
LINE
  5
2E1
330
1F
100
AcDbEntity
  8
0
100
AcDbLine
 10
-8.234721770079698
 20
68.5666309198171
 30
0.0
 11
-8.183610514816262
 21
68.17840237195405
 31
0.0
  0
LINE
  5
2E2
330
1F
100
AcDbEntity
  8
0
100
AcDbLine
 10
-9.295381947162491
 20
13.22951363252061
 30
0.0
 11
-8.933610514816271
 21
13.37936426627754
 31
0.0
  0
LINE
  5
2E3
330
1F
100
AcDbEntity
  8
0
100
AcDbLine
 10
-9.68361051481627
 20
13.17840237195428
 30
0.0
 11
-9.295381947162491
 21
13.22951363252061
 31
0.0
  0
LINE
  5
2E4
330
1F
100
AcDbEntity
  8
0
100
AcDbLine
 10
-29.13249925376778
 20
68.5666309414073
 30
0.0
 11
-28.98264861863028
 21
68.92840237518045
 31
0.0
  0
LINE
  5
2E5
330
1F
100
AcDbEntity
  8
0
100
AcDbLine
 10
-28.98264861863028
 20
68.92840237518045
 30
0.0
 11
-28.74427068264482
 21
69.23906254768559
 31
0.0
  0
LINE
  5
2E6
330
1F
100
AcDbEntity
  8
0
100
AcDbLine
 10
-28.74427068264482
 20
69.23906254768559
 30
0.0
 11
-28.43361050836388
 21
69.47744048135623
 31
0.0
  0
LINE
  5
2E7
330
1F
100
AcDbEntity
  8
0
100
AcDbLine
 10
239.8163894851837
 20
-66.82159762804558
 30
0.0
 11
240.2046180528375
 21
-66.77048636747925
 31
0.0
  0
LINE
  5
2E8
330
1F
100
AcDbEntity
  8
0
100
AcDbLine
 10
0.8675007462322408
 20
-11.43336905859292
 30
0.0
 11
1.017351381369736
 21
-11.07159762481976
 31
0.0
  0
LINE
  5
2E9
330
1F
100
AcDbEntity
  8
0
100
AcDbLine
 10
-28.43361051481627
 20
-66.62063573372232
 30
0.0
 11
-28.07183908247005
 21
-66.77048636747925
 31
0.0
  0
LINE
  5
2EA
330
1F
100
AcDbEntity
  8
0
100
AcDbLine
 10
-5.132499254249861
 20
-65.70982619569945
 30
0.0
 11
-4.98264862049292
 21
-66.07159762804575
 31
0.0
  0
LINE
  5
2EB
330
1F
100
AcDbEntity
  8
0
100
AcDbLine
 10
-8.933610501911485
 20
69.47744047018033
 30
0.0
 11
-8.622950331182649
 21
69.23906253188042
 31
0.0
  0
LINE
  5
2EC
330
1F
100
AcDbEntity
  8
0
100
AcDbLine
 10
-8.622950331182649
 20
69.23906253188042
 30
0.0
 11
-8.384572399826387
 21
68.92840235582348
 31
0.0
  0
LINE
  5
2ED
330
1F
100
AcDbEntity
  8
0
100
AcDbLine
 10
-8.384572399826387
 20
68.92840235582348
 30
0.0
 11
-8.234721770079698
 21
68.5666309198171
 31
0.0
  0
LINE
  5
2EE
330
1F
100
AcDbEntity
  8
0
100
AcDbLine
 10
247.2652782299203
 20
-11.43336908018276
 30
0.0
 11
247.3163894851837
 21
-11.82159762804581
 31
0.0
  0
LINE
  5
2EF
330
1F
100
AcDbEntity
  8
0
100
AcDbLine
 10
235.1154275908604
 20
-66.07159762804575
 30
0.0
 11
235.2652782246174
 21
-65.70982619569945
 31
0.0
  0
LINE
  5
2F0
330
1F
100
AcDbEntity
  8
0
100
AcDbLine
 10
-17.18361051481627
 20
-11.82159762804581
 30
0.0
 11
-17.13249925376778
 21
-11.43336905859292
 31
0.0
  0
LINE
  5
2F1
330
1F
100
AcDbEntity
  8
0
100
AcDbLine
 10
3.377049668817351
 20
69.23906253188042
 30
0.0
 11
3.615427600173613
 21
68.92840235582348
 31
0.0
  0
LINE
  5
2F2
330
1F
100
AcDbEntity
  8
0
100
AcDbLine
 10
3.615427600173613
 20
68.92840235582348
 30
0.0
 11
3.765278229920303
 21
68.5666309198171
 31
0.0
  0
LINE
  5
2F3
330
1F
100
AcDbEntity
  8
0
100
AcDbLine
 10
3.765278229920303
 20
68.5666309198171
 30
0.0
 11
3.816389485183739
 21
68.17840237195405
 31
0.0
  0
LINE
  5
2F4
330
1F
100
AcDbEntity
  8
0
100
AcDbLine
 10
-29.18361051481627
 20
14.6784023719543
 30
0.0
 11
-29.18361051481627
 21
68.17840237195405
 31
0.0
  0
LINE
  5
2F5
330
1F
100
AcDbEntity
  8
0
100
AcDbLine
 10
-29.18361051481627
 20
68.17840237195405
 30
0.0
 11
-29.13249925376778
 21
68.5666309414073
 31
0.0
  0
LINE
  5
2F6
330
1F
100
AcDbEntity
  8
0
100
AcDbLine
 10
245.7404560234298
 20
127.7941385351567
 30
0.0
 11
245.4883437987606
 21
127.4776486761509
 31
0.0
  0
LINE
  5
2F7
330
1F
100
AcDbEntity
  8
0
100
AcDbLine
 10
244.5173513795071
 20
-66.07159762804575
 30
0.0
 11
244.7557293134039
 21
-66.38225779982572
 31
0.0
  0
LINE
  5
2F8
330
1F
100
AcDbEntity
  8
0
100
AcDbLine
 10
241.2652782246173
 20
-65.70982619569945
 30
0.0
 11
241.3163894851837
 21
-65.32159762804592
 31
0.0
  0
LINE
  5
2F9
330
1F
100
AcDbEntity
  8
0
100
AcDbLine
 10
7.566389491636142
 20
-10.52255951864362
 30
0.0
 11
7.928160926525848
 21
-10.37270888620166
 31
0.0
  0
LINE
  5
2FA
330
1F
100
AcDbEntity
  8
0
100
AcDbLine
 10
-22.07183908247005
 20
-66.77048636747925
 30
0.0
 11
-21.68361051481627
 21
-66.82159762804558
 31
0.0
  0
LINE
  5
2FB
330
1F
100
AcDbEntity
  8
0
100
AcDbLine
 10
-22.43361051481627
 20
-66.62063573372232
 30
0.0
 11
-22.07183908247005
 21
-66.77048636747925
 31
0.0
  0
LINE
  5
2FC
330
1F
100
AcDbEntity
  8
0
100
AcDbLine
 10
-16.74427068264482
 20
69.23906254768559
 30
0.0
 11
-16.43361050836388
 21
69.47744048135623
 31
0.0
  0
LINE
  5
2FD
330
1F
100
AcDbEntity
  8
0
100
AcDbLine
 10
-16.43361050836388
 20
69.47744048135623
 30
0.0
 11
-16.07183907347416
 21
69.62729111379856
 31
0.0
  0
LINE
  5
2FE
330
1F
100
AcDbEntity
  8
0
100
AcDbLine
 10
244.3163894851837
 20
-11.82159762804581
 30
0.0
 11
244.3675007462323
 21
-11.43336905859292
 31
0.0
  0
LINE
  5
2FF
330
1F
100
AcDbEntity
  8
0
100
AcDbLine
 10
7.255729317355176
 20
69.23906254768559
 30
0.0
 11
7.566389491636142
 21
69.47744048135623
 31
0.0
  0
LINE
  5
300
330
1F
100
AcDbEntity
  8
0
100
AcDbLine
 10
7.566389491636142
 20
69.47744048135623
 30
0.0
 11
7.928160926525848
 21
69.62729111379856
 31
0.0
  0
LINE
  5
301
330
1F
100
AcDbEntity
  8
0
100
AcDbLine
 10
-26.279481829754
 20
-78.97804460670082
 30
0.0
 11
-26.1574253743054
 21
-78.59226147284933
 31
0.0
  0
LINE
  5
302
330
1F
100
AcDbEntity
  8
0
100
AcDbLine
 10
-26.1574253743054
 20
-78.59226147284933
 30
0.0
 11
-26.13937591404242
 21
-78.18803304526753
 31
0.0
  0
LINE
  5
303
330
1F
100
AcDbEntity
  8
0
100
AcDbLine
 10
-26.13937591404242
 20
-78.18803304526753
 30
0.0
 11
-26.22656348985384
 21
-77.79290682327598
 31
0.0
  0
LINE
  5
304
330
1F
100
AcDbEntity
  8
0
100
AcDbLine
 10
-26.22656348985384
 20
-77.79290682327598
 30
0.0
 11
-26.4130464125324
 21
-77.43381000592687
 31
0.0
  0
LINE
  5
305
330
1F
100
AcDbEntity
  8
0
100
AcDbLine
 10
-27.15491971004655
 20
-79.7786446530082
 30
0.0
 11
-26.79582289269739
 21
-79.59216173032961
 31
0.0
  0
LINE
  5
306
330
1F
100
AcDbEntity
  8
0
100
AcDbLine
 10
-26.79582289269739
 20
-79.59216173032961
 30
0.0
 11
-26.49722733465723
 21
-79.31909196378706
 31
0.0
  0
LINE
  5
307
330
1F
100
AcDbEntity
  8
0
100
AcDbLine
 10
-29.17418375457747
 20
2.103480502311285
 30
0.0
 11
-29.23341201886995
 21
1.703207573686311
 31
0.0
  0
LINE
  5
308
330
1F
100
AcDbEntity
  8
0
100
AcDbLine
 10
-29.23341201886995
 20
1.703207573686311
 30
0.0
 11
-29.18702387182925
 21
1.30124421155588
 31
0.0
  0
LINE
  5
309
330
1F
100
AcDbEntity
  8
0
100
AcDbLine
 10
-29.18702387182925
 20
1.30124421155588
 30
0.0
 11
-29.03818058901616
 21
0.924983554773189
 31
0.0
  0
LINE
  5
30A
330
1F
100
AcDbEntity
  8
0
100
AcDbLine
 10
-29.03818058901616
 20
0.924983554773189
 30
0.0
 11
-28.79702559417925
 21
0.6000671452982743
 31
0.0
  0
LINE
  5
30B
330
1F
100
AcDbEntity
  8
0
100
AcDbLine
 10
-28.79702559417925
 20
0.6000671452982743
 30
0.0
 11
-28.47999320168916
 21
0.3486374994863894
 31
0.0
  0
LINE
  5
30C
330
1F
100
AcDbEntity
  8
0
100
AcDbLine
 10
-28.47999320168916
 20
0.3486374994863894
 30
0.0
 11
-28.1086886451733
 21
0.1878291321928714
 31
0.0
  0
LINE
  5
30D
330
1F
100
AcDbEntity
  8
0
100
AcDbLine
 10
-28.1086886451733
 20
0.1878291321928714
 30
0.0
 11
-27.70841571654844
 21
0.1286008679003487
 31
0.0
  0
LINE
  5
30E
330
1F
100
AcDbEntity
  8
0
100
AcDbLine
 10
-27.70841571654844
 20
0.1286008679003487
 30
0.0
 11
-27.30645235441806
 21
0.1749890149413574
 31
0.0
  0
LINE
  5
30F
330
1F
100
AcDbEntity
  8
0
100
AcDbLine
 10
-27.30645235441806
 20
0.1749890149413574
 30
0.0
 11
-26.9301916976355
 21
0.323832297754447
 31
0.0
  0
LINE
  5
310
330
1F
100
AcDbEntity
  8
0
100
AcDbLine
 10
-26.9301916976355
 20
0.323832297754447
 30
0.0
 11
-26.60527528816034
 21
0.5649872925913598
 31
0.0
  0
LINE
  5
311
330
1F
100
AcDbEntity
  8
0
100
AcDbLine
 10
-26.60527528816034
 20
0.5649872925913598
 30
0.0
 11
-26.35384564234856
 21
0.8820196850811669
 31
0.0
  0
LINE
  5
312
330
1F
100
AcDbEntity
  8
0
100
AcDbLine
 10
-26.35384564234856
 20
0.8820196850811669
 30
0.0
 11
-26.19303727505511
 21
1.25332424159709
 31
0.0
  0
LINE
  5
313
330
1F
100
AcDbEntity
  8
0
100
AcDbLine
 10
-26.19303727505511
 20
1.25332424159709
 30
0.0
 11
-26.13380901076262
 21
1.653597170222065
 31
0.0
  0
LINE
  5
314
330
1F
100
AcDbEntity
  8
0
100
AcDbLine
 10
-26.13380901076262
 20
1.653597170222065
 30
0.0
 11
-26.18019715780332
 21
2.055560532352496
 31
0.0
  0
LINE
  5
315
330
1F
100
AcDbEntity
  8
0
100
AcDbLine
 10
-26.18019715780332
 20
2.055560532352496
 30
0.0
 11
-26.32904044061641
 21
2.431821189134825
 31
0.0
  0
LINE
  5
316
330
1F
100
AcDbEntity
  8
0
100
AcDbLine
 10
-26.32904044061641
 20
2.431821189134825
 30
0.0
 11
-26.57019543545332
 21
2.756737598610101
 31
0.0
  0
LINE
  5
317
330
1F
100
AcDbEntity
  8
0
100
AcDbLine
 10
-26.57019543545332
 20
2.756737598610101
 30
0.0
 11
-26.88722782794341
 21
3.008167244421986
 31
0.0
  0
LINE
  5
318
330
1F
100
AcDbEntity
  8
0
100
AcDbLine
 10
-26.88722782794341
 20
3.008167244421986
 30
0.0
 11
-27.25853238445927
 21
3.168975611715504
 31
0.0
  0
LINE
  5
319
330
1F
100
AcDbEntity
  8
0
100
AcDbLine
 10
-27.25853238445927
 20
3.168975611715504
 30
0.0
 11
-27.65880531308414
 21
3.228203876007666
 31
0.0
  0
LINE
  5
31A
330
1F
100
AcDbEntity
  8
0
100
AcDbLine
 10
-27.65880531308414
 20
3.228203876007666
 30
0.0
 11
-28.06076867521451
 21
3.181815728967018
 31
0.0
  0
LINE
  5
31B
330
1F
100
AcDbEntity
  8
0
100
AcDbLine
 10
-28.06076867521451
 20
3.181815728967018
 30
0.0
 11
-28.43702933199708
 21
3.032972446153928
 31
0.0
  0
LINE
  5
31C
330
1F
100
AcDbEntity
  8
0
100
AcDbLine
 10
-28.43702933199708
 20
3.032972446153928
 30
0.0
 11
-28.76194574147224
 21
2.791817451317016
 31
0.0
  0
LINE
  5
31D
330
1F
100
AcDbEntity
  8
0
100
AcDbLine
 10
-28.76194574147224
 20
2.791817451317016
 30
0.0
 11
-29.01337538728402
 21
2.474785058826848
 31
0.0
  0
LINE
  5
31E
330
1F
100
AcDbEntity
  8
0
100
AcDbLine
 10
5.832259806263575
 20
1.354925680878148
 30
0.0
 11
5.864329705917029
 21
1.758283990842259
 31
0.0
  0
LINE
  5
31F
330
1F
100
AcDbEntity
  8
0
100
AcDbLine
 10
5.864329705917029
 20
1.758283990842259
 30
0.0
 11
5.790910037619676
 21
2.156198500490032
 31
0.0
  0
LINE
  5
320
330
1F
100
AcDbEntity
  8
0
100
AcDbLine
 10
5.790910037619676
 20
2.156198500490032
 30
0.0
 11
5.617004230434245
 21
2.52155199357332
 31
0.0
  0
LINE
  5
321
330
1F
100
AcDbEntity
  8
0
100
AcDbLine
 10
5.617004230434245
 20
2.52155199357332
 30
0.0
 11
5.354463677727482
 21
2.829446233313877
 31
0.0
  0
LINE
  5
322
330
1F
100
AcDbEntity
  8
0
100
AcDbLine
 10
5.354463677727482
 20
2.829446233313877
 30
0.0
 11
5.021180084297582
 21
3.058898736092973
 31
0.0
  0
LINE
  5
323
330
1F
100
AcDbEntity
  8
0
100
AcDbLine
 10
5.021180084297582
 20
3.058898736092973
 30
0.0
 11
4.639866176259609
 21
3.194272693033861
 31
0.0
  0
LINE
  5
324
330
1F
100
AcDbEntity
  8
0
100
AcDbLine
 10
4.639866176259609
 20
3.194272693033861
 30
0.0
 11
4.236507866295329
 21
3.226342592687163
 31
0.0
  0
LINE
  5
325
330
1F
100
AcDbEntity
  8
0
100
AcDbLine
 10
4.236507866295329
 20
3.226342592687163
 30
0.0
 11
3.838593356647674
 21
3.152922924389736
 31
0.0
  0
LINE
  5
326
330
1F
100
AcDbEntity
  8
0
100
AcDbLine
 10
3.473239863564319
 20
2.979017117204361
 30
0.0
 11
3.1653456238237
 21
2.716476564497475
 31
0.0
  0
LINE
  5
327
330
1F
100
AcDbEntity
  8
0
100
AcDbLine
 10
3.1653456238237
 20
2.716476564497475
 30
0.0
 11
2.935893121044851
 21
2.383192971067851
 31
0.0
  0
LINE
  5
328
330
1F
100
AcDbEntity
  8
0
100
AcDbLine
 10
2.935893121044851
 20
2.383192971067851
 30
0.0
 11
2.800519164103958
 21
2.001879063029867
 31
0.0
  0
LINE
  5
329
330
1F
100
AcDbEntity
  8
0
100
AcDbLine
 10
2.800519164103958
 20
2.001879063029867
 30
0.0
 11
2.768449264450503
 21
1.598520753065395
 31
0.0
  0
LINE
  5
32A
330
1F
100
AcDbEntity
  8
0
100
AcDbLine
 10
2.768449264450503
 20
1.598520753065395
 30
0.0
 11
2.841868932747857
 21
1.200606243417621
 31
0.0
  0
LINE
  5
32B
330
1F
100
AcDbEntity
  8
0
100
AcDbLine
 10
2.841868932747857
 20
1.200606243417621
 30
0.0
 11
3.015774739933288
 21
0.8352527503343339
 31
0.0
  0
LINE
  5
32C
330
1F
100
AcDbEntity
  8
0
100
AcDbLine
 10
3.015774739933288
 20
0.8352527503343339
 30
0.0
 11
3.278315292640051
 21
0.5273585105937769
 31
0.0
  0
LINE
  5
32D
330
1F
100
AcDbEntity
  8
0
100
AcDbLine
 10
3.611598886069951
 20
0.2979060078150411
 30
0.0
 11
3.992912794107924
 21
0.1625320508741538
 31
0.0
  0
LINE
  5
32E
330
1F
100
AcDbEntity
  8
0
100
AcDbLine
 10
3.992912794107924
 20
0.1625320508741538
 30
0.0
 11
4.396271104072204
 21
0.1304621512204903
 31
0.0
  0
LINE
  5
32F
330
1F
100
AcDbEntity
  8
0
100
AcDbLine
 10
4.396271104072204
 20
0.1304621512204903
 30
0.0
 11
4.794185613719859
 21
0.2038818195179175
 31
0.0
  0
LINE
  5
330
330
1F
100
AcDbEntity
  8
0
100
AcDbLine
 10
5.467433346543833
 20
0.6403281794101786
 30
0.0
 11
5.696885849322681
 21
0.9736117728401638
 31
0.0
  0
LINE
  5
331
330
1F
100
AcDbEntity
  8
0
100
AcDbLine
 10
2.819204454435472
 20
81.27723285204489
 30
0.0
 11
2.974050109317645
 21
80.90340237195403
 31
0.0
  0
LINE
  5
332
330
1F
100
AcDbEntity
  8
0
100
AcDbLine
 10
2.974050109317645
 20
80.90340237195403
 30
0.0
 11
3.220373974344382
 21
80.58238686111461
 31
0.0
  0
LINE
  5
333
330
1F
100
AcDbEntity
  8
0
100
AcDbLine
 10
3.220373974344382
 20
80.58238686111461
 30
0.0
 11
3.541389485183531
 21
80.336062996088
 31
0.0
  0
LINE
  5
334
330
1F
100
AcDbEntity
  8
0
100
AcDbLine
 10
3.541389485183531
 20
80.336062996088
 30
0.0
 11
3.915219965274624
 21
80.18121734120564
 31
0.0
  0
LINE
  5
335
330
1F
100
AcDbEntity
  8
0
100
AcDbLine
 10
3.915219965274624
 20
80.18121734120564
 30
0.0
 11
4.316389485183535
 21
80.12840237195385
 31
0.0
  0
LINE
  5
336
330
1F
100
AcDbEntity
  8
0
100
AcDbLine
 10
4.717559005092446
 20
80.18121734120564
 30
0.0
 11
5.091389485183539
 21
80.336062996088
 31
0.0
  0
LINE
  5
337
330
1F
100
AcDbEntity
  8
0
100
AcDbLine
 10
5.091389485183539
 20
80.336062996088
 30
0.0
 11
5.412404996022688
 21
80.58238686111461
 31
0.0
  0
LINE
  5
338
330
1F
100
AcDbEntity
  8
0
100
AcDbLine
 10
5.412404996022688
 20
80.58238686111461
 30
0.0
 11
5.658728861049419
 21
80.90340237195403
 31
0.0
  0
LINE
  5
339
330
1F
100
AcDbEntity
  8
0
100
AcDbLine
 10
5.658728861049419
 20
80.90340237195403
 30
0.0
 11
5.813574515931599
 21
81.27723285204489
 31
0.0
  0
LINE
  5
33A
330
1F
100
AcDbEntity
  8
0
100
AcDbLine
 10
5.813574515931599
 20
81.27723285204489
 30
0.0
 11
5.866389485183544
 21
81.67840237195387
 31
0.0
  0
LINE
  5
33B
330
1F
100
AcDbEntity
  8
0
100
AcDbLine
 10
5.866389485183544
 20
81.67840237195387
 30
0.0
 11
5.813574515931599
 21
82.07957189186283
 31
0.0
  0
LINE
  5
33C
330
1F
100
AcDbEntity
  8
0
100
AcDbLine
 10
5.813574515931599
 20
82.07957189186283
 30
0.0
 11
5.658728861049426
 21
82.45340237195404
 31
0.0
  0
LINE
  5
33D
330
1F
100
AcDbEntity
  8
0
100
AcDbLine
 10
5.658728861049426
 20
82.45340237195404
 30
0.0
 11
5.412404996022688
 21
82.7744178827931
 31
0.0
  0
LINE
  5
33E
330
1F
100
AcDbEntity
  8
0
100
AcDbLine
 10
5.412404996022688
 20
82.7744178827931
 30
0.0
 11
5.091389485183539
 21
83.02074174781971
 31
0.0
  0
LINE
  5
33F
330
1F
100
AcDbEntity
  8
0
100
AcDbLine
 10
5.091389485183539
 20
83.02074174781971
 30
0.0
 11
4.717559005092446
 21
83.17558740270208
 31
0.0
  0
LINE
  5
340
330
1F
100
AcDbEntity
  8
0
100
AcDbLine
 10
4.717559005092446
 20
83.17558740270208
 30
0.0
 11
4.316389485183535
 21
83.22840237195386
 31
0.0
  0
LINE
  5
341
330
1F
100
AcDbEntity
  8
0
100
AcDbLine
 10
4.316389485183535
 20
83.22840237195386
 30
0.0
 11
3.915219965274624
 21
83.17558740270208
 31
0.0
  0
LINE
  5
342
330
1F
100
AcDbEntity
  8
0
100
AcDbLine
 10
3.915219965274624
 20
83.17558740270208
 30
0.0
 11
3.541389485183531
 21
83.02074174781971
 31
0.0
  0
LINE
  5
343
330
1F
100
AcDbEntity
  8
0
100
AcDbLine
 10
3.541389485183531
 20
83.02074174781971
 30
0.0
 11
3.220373974344382
 21
82.7744178827931
 31
0.0
  0
LINE
  5
344
330
1F
100
AcDbEntity
  8
0
100
AcDbLine
 10
3.220373974344382
 20
82.7744178827931
 30
0.0
 11
2.974050109317651
 21
82.45340237195404
 31
0.0
  0
LINE
  5
345
330
1F
100
AcDbEntity
  8
0
100
AcDbLine
 10
2.974050109317651
 20
82.45340237195404
 30
0.0
 11
2.819204454435472
 21
82.07957189186283
 31
0.0
  0
LINE
  5
346
330
1F
100
AcDbEntity
  8
0
100
AcDbLine
 10
2.819204454435472
 20
82.07957189186283
 30
0.0
 11
2.766389485183527
 21
81.67840237195387
 31
0.0
  0
LINE
  5
347
330
1F
100
AcDbEntity
  8
0
100
AcDbLine
 10
-29.15968504175981
 20
82.15137593454374
 30
0.0
 11
-29.23180358774658
 21
81.75322355164765
 31
0.0
  0
LINE
  5
348
330
1F
100
AcDbEntity
  8
0
100
AcDbLine
 10
-29.23180358774658
 20
81.75322355164765
 30
0.0
 11
-29.19841533432317
 21
81.3499722290032
 31
0.0
  0
LINE
  5
349
330
1F
100
AcDbEntity
  8
0
100
AcDbLine
 10
-29.19841533432317
 20
81.3499722290032
 30
0.0
 11
-29.06179563578369
 21
80.96910287784458
 31
0.0
  0
LINE
  5
34A
330
1F
100
AcDbEntity
  8
0
100
AcDbLine
 10
-29.06179563578369
 20
80.96910287784458
 30
0.0
 11
-28.83125489880887
 21
80.63657111503672
 31
0.0
  0
LINE
  5
34B
330
1F
100
AcDbEntity
  8
0
100
AcDbLine
 10
-28.83125489880887
 20
80.63657111503672
 30
0.0
 11
-28.52250409363698
 21
80.37503843068022
 31
0.0
  0
LINE
  5
34C
330
1F
100
AcDbEntity
  8
0
100
AcDbLine
 10
-28.52250409363698
 20
80.37503843068022
 30
0.0
 11
-28.15658407740566
 21
80.2023278450105
 31
0.0
  0
LINE
  5
34D
330
1F
100
AcDbEntity
  8
0
100
AcDbLine
 10
-28.15658407740566
 20
80.2023278450105
 30
0.0
 11
-27.75843169450963
 21
80.13020929902405
 31
0.0
  0
LINE
  5
34E
330
1F
100
AcDbEntity
  8
0
100
AcDbLine
 10
-27.75843169450963
 20
80.13020929902405
 30
0.0
 11
-27.35518037186534
 21
80.16359755244721
 31
0.0
  0
LINE
  5
34F
330
1F
100
AcDbEntity
  8
0
100
AcDbLine
 10
-27.35518037186534
 20
80.16359755244721
 30
0.0
 11
-26.97431102070669
 21
80.30021725098679
 31
0.0
  0
LINE
  5
350
330
1F
100
AcDbEntity
  8
0
100
AcDbLine
 10
-26.97431102070669
 20
80.30021725098679
 30
0.0
 11
-26.64177925789878
 21
80.53075798796152
 31
0.0
  0
LINE
  5
351
330
1F
100
AcDbEntity
  8
0
100
AcDbLine
 10
-26.64177925789878
 20
80.53075798796152
 30
0.0
 11
-26.38024657354223
 21
80.83950879313369
 31
0.0
  0
LINE
  5
352
330
1F
100
AcDbEntity
  8
0
100
AcDbLine
 10
-26.38024657354223
 20
80.83950879313369
 30
0.0
 11
-26.20753598787276
 21
81.2054288093647
 31
0.0
  0
LINE
  5
353
330
1F
100
AcDbEntity
  8
0
100
AcDbLine
 10
-26.20753598787276
 20
81.2054288093647
 30
0.0
 11
-26.135417441886
 21
81.60358119226079
 31
0.0
  0
LINE
  5
354
330
1F
100
AcDbEntity
  8
0
100
AcDbLine
 10
-26.135417441886
 20
81.60358119226079
 30
0.0
 11
-26.16880569530941
 21
82.00683251490524
 31
0.0
  0
LINE
  5
355
330
1F
100
AcDbEntity
  8
0
100
AcDbLine
 10
-26.16880569530941
 20
82.00683251490524
 30
0.0
 11
-26.30542539384889
 21
82.38770186606386
 31
0.0
  0
LINE
  5
356
330
1F
100
AcDbEntity
  8
0
100
AcDbLine
 10
-26.30542539384889
 20
82.38770186606386
 30
0.0
 11
-26.5359661308237
 21
82.72023362887172
 31
0.0
  0
LINE
  5
357
330
1F
100
AcDbEntity
  8
0
100
AcDbLine
 10
-26.5359661308237
 20
82.72023362887172
 30
0.0
 11
-26.84471693599559
 21
82.98176631322822
 31
0.0
  0
LINE
  5
358
330
1F
100
AcDbEntity
  8
0
100
AcDbLine
 10
-26.84471693599559
 20
82.98176631322822
 30
0.0
 11
-27.21063695222692
 21
83.15447689889794
 31
0.0
  0
LINE
  5
359
330
1F
100
AcDbEntity
  8
0
100
AcDbLine
 10
-27.21063695222692
 20
83.15447689889794
 30
0.0
 11
-27.60878933512295
 21
83.2265954448844
 31
0.0
  0
LINE
  5
35A
330
1F
100
AcDbEntity
  8
0
100
AcDbLine
 10
-27.60878933512295
 20
83.2265954448844
 30
0.0
 11
-28.01204065776723
 21
83.19320719146123
 31
0.0
  0
LINE
  5
35B
330
1F
100
AcDbEntity
  8
0
100
AcDbLine
 10
-28.01204065776723
 20
83.19320719146123
 30
0.0
 11
-28.39291000892588
 21
83.05658749292165
 31
0.0
  0
LINE
  5
35C
330
1F
100
AcDbEntity
  8
0
100
AcDbLine
 10
-28.39291000892588
 20
83.05658749292165
 30
0.0
 11
-28.7254417717338
 21
82.82604675594692
 31
0.0
  0
LINE
  5
35D
330
1F
100
AcDbEntity
  8
0
100
AcDbLine
 10
-28.7254417717338
 20
82.82604675594692
 30
0.0
 11
-28.98697445609034
 21
82.51729595077475
 31
0.0
  0
LINE
  5
35E
330
1F
100
AcDbEntity
  8
0
100
AcDbLine
 10
-10.1675397604839
 20
127.0009383666266
 30
0.0
 11
-10.30267707687736
 21
127.3823362040599
 31
0.0
  0
LINE
  5
35F
330
1F
100
AcDbEntity
  8
0
100
AcDbLine
 10
9.615427600173625
 20
68.92840235582348
 30
0.0
 11
9.765278229920314
 21
68.5666309198171
 31
0.0
  0
LINE
  5
360
330
1F
100
AcDbEntity
  8
0
100
AcDbLine
 10
9.765278229920314
 20
68.5666309198171
 30
0.0
 11
9.81638948518375
 21
68.17840237195405
 31
0.0
  0
LINE
  5
361
330
1F
100
AcDbEntity
  8
0
100
AcDbLine
 10
9.81638948518375
 20
68.17840237195405
 30
0.0
 11
9.81638948518375
 21
14.6784023719543
 31
0.0
  0
LINE
  5
362
330
1F
100
AcDbEntity
  8
0
100
AcDbLine
 10
238.3675007462322
 20
68.5666309414073
 30
0.0
 11
238.5173513813697
 21
68.92840237518045
 31
0.0
  0
LINE
  5
363
330
1F
100
AcDbEntity
  8
0
100
AcDbLine
 10
247.1154276001736
 20
-11.07159764417673
 30
0.0
 11
247.2652782299203
 21
-11.43336908018276
 31
0.0
  0
LINE
  5
364
330
1F
100
AcDbEntity
  8
0
100
AcDbLine
 10
-5.183610514816256
 20
-11.82159762804581
 30
0.0
 11
-5.13249925376777
 21
-11.43336905859292
 31
0.0
  0
LINE
  5
365
330
1F
100
AcDbEntity
  8
0
100
AcDbLine
 10
-5.13249925376777
 20
-11.43336905859292
 30
0.0
 11
-4.982648618630276
 21
-11.07159762481976
 31
0.0
  0
LINE
  5
366
330
1F
100
AcDbEntity
  8
0
100
AcDbLine
 10
247.217559005093
 20
-121.8244125972979
 30
0.0
 11
246.816389485184
 21
-121.7715976280457
 31
0.0
  0
LINE
  5
367
330
1F
100
AcDbEntity
  8
0
100
AcDbLine
 10
246.816389485184
 20
-121.7715976280457
 30
0.0
 11
246.4152199652751
 21
-121.8244125972979
 31
0.0
  0
LINE
  5
368
330
1F
100
AcDbEntity
  8
0
100
AcDbLine
 10
246.4152199652751
 20
-121.8244125972979
 30
0.0
 11
246.041389485184
 21
-121.9792582521799
 31
0.0
  0
LINE
  5
369
330
1F
100
AcDbEntity
  8
0
100
AcDbLine
 10
246.041389485184
 20
-121.9792582521799
 30
0.0
 11
245.7203739743449
 21
-122.2255821172068
 31
0.0
  0
LINE
  5
36A
330
1F
100
AcDbEntity
  8
0
100
AcDbLine
 10
245.7203739743449
 20
-122.2255821172068
 30
0.0
 11
245.4740501093181
 21
-122.5465976280459
 31
0.0
  0
LINE
  5
36B
330
1F
100
AcDbEntity
  8
0
100
AcDbLine
 10
245.4740501093181
 20
-122.5465976280459
 30
0.0
 11
245.319204454436
 21
-122.9204281081367
 31
0.0
  0
LINE
  5
36C
330
1F
100
AcDbEntity
  8
0
100
AcDbLine
 10
245.319204454436
 20
-122.9204281081367
 30
0.0
 11
245.266389485184
 21
-123.3215976280457
 31
0.0
  0
LINE
  5
36D
330
1F
100
AcDbEntity
  8
0
100
AcDbLine
 10
245.266389485184
 20
-123.3215976280457
 30
0.0
 11
245.319204454436
 21
-123.7227671479547
 31
0.0
  0
LINE
  5
36E
330
1F
100
AcDbEntity
  8
0
100
AcDbLine
 10
245.319204454436
 20
-123.7227671479547
 30
0.0
 11
245.4740501093181
 21
-124.0965976280459
 31
0.0
  0
LINE
  5
36F
330
1F
100
AcDbEntity
  8
0
100
AcDbLine
 10
263.6587288610496
 20
-83.09659762804584
 30
0.0
 11
263.8135745159318
 21
-82.722767147955
 31
0.0
  0
LINE
  5
370
330
1F
100
AcDbEntity
  8
0
100
AcDbLine
 10
263.8135745159318
 20
-82.722767147955
 30
0.0
 11
263.8663894851838
 21
-82.32159762804602
 31
0.0
  0
LINE
  5
371
330
1F
100
AcDbEntity
  8
0
100
AcDbLine
 10
263.8663894851838
 20
-82.32159762804602
 30
0.0
 11
263.8135745159318
 21
-81.92042810813705
 31
0.0
  0
LINE
  5
372
330
1F
100
AcDbEntity
  8
0
100
AcDbLine
 10
263.8135745159318
 20
-81.92042810813705
 30
0.0
 11
263.6587288610496
 21
-81.54659762804583
 31
0.0
  0
LINE
  5
373
330
1F
100
AcDbEntity
  8
0
100
AcDbLine
 10
-3.29538193456825
 20
-10.37270889198669
 30
0.0
 11
-2.933610501911462
 21
-10.52255952981953
 31
0.0
  0
LINE
  5
374
330
1F
100
AcDbEntity
  8
0
100
AcDbLine
 10
245.4740501093181
 20
-124.0965976280459
 30
0.0
 11
245.7203739743449
 21
-124.417613138885
 31
0.0
  0
LINE
  5
375
330
1F
100
AcDbEntity
  8
0
100
AcDbLine
 10
-8.234721775382667
 20
14.29017380430041
 30
0.0
 11
-8.183610514816262
 21
14.6784023719543
 31
0.0
  0
LINE
  5
376
330
1F
100
AcDbEntity
  8
0
100
AcDbLine
 10
-8.622950343036447
 20
13.6177422001745
 30
0.0
 11
-8.384572409139608
 21
13.92840237195411
 31
0.0
  0
LINE
  5
377
330
1F
100
AcDbEntity
  8
0
100
AcDbLine
 10
-8.933610514816271
 20
13.37936426627754
 30
0.0
 11
-8.622950343036447
 21
13.6177422001745
 31
0.0
  0
LINE
  5
378
330
1F
100
AcDbEntity
  8
0
100
AcDbLine
 10
-26.23472177538267
 20
-65.70982619569945
 30
0.0
 11
-26.18361051481626
 21
-65.32159762804592
 31
0.0
  0
LINE
  5
379
330
1F
100
AcDbEntity
  8
0
100
AcDbLine
 10
-15.29538194716249
 20
13.22951363252061
 30
0.0
 11
-14.93361051481627
 21
13.37936426627754
 31
0.0
  0
LINE
  5
37A
330
1F
100
AcDbEntity
  8
0
100
AcDbLine
 10
-15.68361051481627
 20
13.17840237195428
 30
0.0
 11
-15.29538194716249
 21
13.22951363252061
 31
0.0
  0
LINE
  5
37B
330
1F
100
AcDbEntity
  8
0
100
AcDbLine
 10
238.3163894851837
 20
-11.82159762804581
 30
0.0
 11
238.3675007462323
 21
-11.43336905859292
 31
0.0
  0
LINE
  5
37C
330
1F
100
AcDbEntity
  8
0
100
AcDbLine
 10
9.765278229920314
 20
-11.43336908018276
 30
0.0
 11
9.81638948518375
 21
-11.82159762804581
 31
0.0
  0
LINE
  5
37D
330
1F
100
AcDbEntity
  8
0
100
AcDbLine
 10
-28.7442706865961
 20
-66.38225779982572
 30
0.0
 11
-28.43361051481627
 21
-66.62063573372232
 31
0.0
  0
LINE
  5
37E
330
1F
100
AcDbEntity
  8
0
100
AcDbLine
 10
-28.98264862049292
 20
-66.07159762804575
 30
0.0
 11
-28.7442706865961
 21
-66.38225779982572
 31
0.0
  0
LINE
  5
37F
330
1F
100
AcDbEntity
  8
0
100
AcDbLine
 10
9.765278224617333
 20
14.29017380430041
 30
0.0
 11
9.81638948518375
 21
14.6784023719543
 31
0.0
  0
LINE
  5
380
330
1F
100
AcDbEntity
  8
0
100
AcDbLine
 10
9.615427590860405
 20
13.92840237195411
 30
0.0
 11
9.765278224617333
 21
14.29017380430041
 31
0.0
  0
LINE
  5
381
330
1F
100
AcDbEntity
  8
0
100
AcDbLine
 10
9.377049656963555
 20
13.6177422001745
 30
0.0
 11
9.615427590860405
 21
13.92840237195411
 31
0.0
  0
LINE
  5
382
330
1F
100
AcDbEntity
  8
0
100
AcDbLine
 10
-11.13249925376778
 20
-11.43336905859292
 30
0.0
 11
-10.98264861863028
 21
-11.07159762481976
 31
0.0
  0
LINE
  5
383
330
1F
100
AcDbEntity
  8
0
100
AcDbLine
 10
-10.98264861863028
 20
-11.07159762481976
 30
0.0
 11
-10.74427068264482
 21
-10.76093745231463
 31
0.0
  0
LINE
  5
384
330
1F
100
AcDbEntity
  8
0
100
AcDbLine
 10
239.0663894851837
 20
-66.62063573372232
 30
0.0
 11
239.4281609175299
 21
-66.77048636747925
 31
0.0
  0
LINE
  5
385
330
1F
100
AcDbEntity
  8
0
100
AcDbLine
 10
240.2046180654317
 20
-10.37270889198669
 30
0.0
 11
240.5663894980885
 21
-10.52255952981953
 31
0.0
  0
LINE
  5
386
330
1F
100
AcDbEntity
  8
0
100
AcDbLine
 10
244.7557293173552
 20
69.23906254768522
 30
0.0
 11
245.0663894916362
 21
69.47744048135623
 31
0.0
  0
LINE
  5
387
330
1F
100
AcDbEntity
  8
0
100
AcDbLine
 10
226.3163894851837
 20
14.6784023719543
 30
0.0
 11
226.3675007457502
 21
14.29017380430041
 31
0.0
  0
LINE
  5
388
330
1F
100
AcDbEntity
  8
0
100
AcDbLine
 10
229.2652782246174
 20
14.29017380430041
 30
0.0
 11
229.3163894851838
 21
14.6784023719543
 31
0.0
  0
LINE
  5
389
330
1F
100
AcDbEntity
  8
0
100
AcDbLine
 10
229.2652782299203
 20
68.5666309198171
 30
0.0
 11
229.3163894851838
 21
68.1784023719544
 31
0.0
  0
LINE
  5
38A
330
1F
100
AcDbEntity
  8
0
100
AcDbLine
 10
246.5663894851837
 20
-66.62063573372232
 30
0.0
 11
246.8770496569636
 21
-66.38225779982572
 31
0.0
  0
LINE
  5
38B
330
1F
100
AcDbEntity
  8
0
100
AcDbLine
 10
246.5663894980885
 20
-10.52255952981953
 30
0.0
 11
246.8770496688174
 21
-10.76093746811979
 31
0.0
  0
LINE
  5
38C
330
1F
100
AcDbEntity
  8
0
100
AcDbLine
 10
239.4281609175299
 20
13.22951363252061
 30
0.0
 11
239.8163894851837
 21
13.17840237195428
 31
0.0
  0
LINE
  5
38D
330
1F
100
AcDbEntity
  8
0
100
AcDbLine
 10
240.8770496688173
 20
69.23906253188042
 30
0.0
 11
241.1154276001736
 21
68.92840235582312
 31
0.0
  0
LINE
  5
38E
330
1F
100
AcDbEntity
  8
0
100
AcDbLine
 10
226.3163894851837
 20
-11.82159762804581
 30
0.0
 11
226.3675007462322
 21
-11.43336905859292
 31
0.0
  0
LINE
  5
38F
330
1F
100
AcDbEntity
  8
0
100
AcDbLine
 10
232.3163894851837
 20
-65.32159762804592
 30
0.0
 11
232.3163894851837
 21
-11.82159762804581
 31
0.0
  0
LINE
  5
390
330
1F
100
AcDbEntity
  8
0
100
AcDbLine
 10
232.3675007462322
 20
-11.43336905859292
 30
0.0
 11
232.5173513813697
 21
-11.07159762481976
 31
0.0
  0
LINE
  5
391
330
1F
100
AcDbEntity
  8
0
100
AcDbLine
 10
9.615427590860405
 20
-66.07159762804575
 30
0.0
 11
9.765278224617356
 21
-65.70982619569945
 31
0.0
  0
LINE
  5
392
330
1F
100
AcDbEntity
  8
0
100
AcDbLine
 10
7.017351381369725
 20
-11.0715976248194
 30
0.0
 11
7.255729317355199
 21
-10.76093745231463
 31
0.0
  0
LINE
  5
393
330
1F
100
AcDbEntity
  8
0
100
AcDbLine
 10
-23.13249925424987
 20
14.29017380430041
 30
0.0
 11
-22.98264862049293
 21
13.92840237195411
 31
0.0
  0
LINE
  5
394
330
1F
100
AcDbEntity
  8
0
100
AcDbLine
 10
-22.98264862049293
 20
13.92840237195411
 30
0.0
 11
-22.7442706865961
 21
13.6177422001745
 31
0.0
  0
LINE
  5
395
330
1F
100
AcDbEntity
  8
0
100
AcDbLine
 10
-22.07183908247006
 20
13.22951363252061
 30
0.0
 11
-21.68361051481627
 21
13.17840237195428
 31
0.0
  0
LINE
  5
396
330
1F
100
AcDbEntity
  8
0
100
AcDbLine
 10
-21.68361051481627
 20
13.17840237195428
 30
0.0
 11
-21.29538194716249
 21
13.22951363252061
 31
0.0
  0
LINE
  5
397
330
1F
100
AcDbEntity
  8
0
100
AcDbLine
 10
-5.183610514816256
 20
-65.32159762804592
 30
0.0
 11
-5.183610514816256
 21
-11.82159762804581
 31
0.0
  0
LINE
  5
398
330
1F
100
AcDbEntity
  8
0
100
AcDbLine
 10
-2.384572399826375
 20
-11.07159764417673
 30
0.0
 11
-2.234721770079687
 21
-11.43336908018312
 31
0.0
  0
LINE
  5
399
330
1F
100
AcDbEntity
  8
0
100
AcDbLine
 10
-2.622950331182638
 20
-10.76093746811979
 30
0.0
 11
-2.384572399826375
 21
-11.07159764417673
 31
0.0
  0
LINE
  5
39A
330
1F
100
AcDbEntity
  8
0
100
AcDbLine
 10
-2.933610501911462
 20
-10.52255952981953
 30
0.0
 11
-2.622950331182638
 21
-10.76093746811979
 31
0.0
  0
LINE
  5
39B
330
1F
100
AcDbEntity
  8
0
100
AcDbLine
 10
-3.683610503640393
 20
-10.32159762804579
 30
0.0
 11
-3.29538193456825
 21
-10.37270889198669
 31
0.0
  0
LINE
  5
39C
330
1F
100
AcDbEntity
  8
0
100
AcDbLine
 10
-16.43361051481627
 20
-66.62063573372232
 30
0.0
 11
-16.07183908247005
 21
-66.77048636747925
 31
0.0
  0
LINE
  5
39D
330
1F
100
AcDbEntity
  8
0
100
AcDbLine
 10
-15.29538194716249
 20
-66.77048636747925
 30
0.0
 11
-14.93361051481627
 21
-66.62063573372232
 31
0.0
  0
LINE
  5
39E
330
1F
100
AcDbEntity
  8
0
100
AcDbLine
 10
-16.74427068264482
 20
-10.76093745231463
 30
0.0
 11
-16.43361050836387
 21
-10.52255951864362
 31
0.0
  0
LINE
  5
39F
330
1F
100
AcDbEntity
  8
0
100
AcDbLine
 10
-17.13249925376778
 20
-11.43336905859292
 30
0.0
 11
-16.98264861863028
 21
-11.07159762481976
 31
0.0
  0
LINE
  5
3A0
330
1F
100
AcDbEntity
  8
0
100
AcDbLine
 10
1.566389485183755
 20
-66.62063573372232
 30
0.0
 11
1.928160917529963
 21
-66.77048636747925
 31
0.0
  0
LINE
  5
3A1
330
1F
100
AcDbEntity
  8
0
100
AcDbLine
 10
1.017351381369736
 20
-11.07159762481976
 30
0.0
 11
1.255729317355187
 21
-10.76093745231463
 31
0.0
  0
LINE
  5
3A2
330
1F
100
AcDbEntity
  8
0
100
AcDbLine
 10
-27.68361051481627
 20
13.17840237195428
 30
0.0
 11
-27.29538194716249
 21
13.22951363252061
 31
0.0
  0
LINE
  5
3A3
330
1F
100
AcDbEntity
  8
0
100
AcDbLine
 10
-27.29538194716249
 20
13.22951363252061
 30
0.0
 11
-26.93361051481627
 21
13.37936426627754
 31
0.0
  0
LINE
  5
3A4
330
1F
100
AcDbEntity
  8
0
100
AcDbLine
 10
-26.93361051481627
 20
13.37936426627754
 30
0.0
 11
-26.62295034303645
 21
13.6177422001745
 31
0.0
  0
LINE
  5
3A5
330
1F
100
AcDbEntity
  8
0
100
AcDbLine
 10
-26.62295034303645
 20
13.6177422001745
 30
0.0
 11
-26.38457240913961
 21
13.92840237195411
 31
0.0
  0
LINE
  5
3A6
330
1F
100
AcDbEntity
  8
0
100
AcDbLine
 10
-26.23472177538267
 20
14.29017380430041
 30
0.0
 11
-26.18361051481627
 21
14.6784023719543
 31
0.0
  0
LINE
  5
3A7
330
1F
100
AcDbEntity
  8
0
100
AcDbLine
 10
-26.18361051481627
 20
68.17840237195405
 30
0.0
 11
-26.18361051481627
 21
14.6784023719543
 31
0.0
  0
LINE
  5
3A8
330
1F
100
AcDbEntity
  8
0
100
AcDbLine
 10
-26.2347217700797
 20
68.5666309198171
 30
0.0
 11
-26.18361051481627
 21
68.17840237195405
 31
0.0
  0
LINE
  5
3A9
330
1F
100
AcDbEntity
  8
0
100
AcDbLine
 10
-28.98264861863028
 20
-11.07159762481976
 30
0.0
 11
-28.74427068264482
 21
-10.76093745231463
 31
0.0
  0
LINE
  5
3AA
330
1F
100
AcDbEntity
  8
0
100
AcDbLine
 10
6.867500745750128
 20
14.29017380430041
 30
0.0
 11
7.017351379507081
 21
13.92840237195411
 31
0.0
  0
LINE
  5
3AB
330
1F
100
AcDbEntity
  8
0
100
AcDbLine
 10
7.017351379507081
 20
13.92840237195411
 30
0.0
 11
7.255729313403907
 21
13.6177422001745
 31
0.0
  0
LINE
  5
3AC
330
1F
100
AcDbEntity
  8
0
100
AcDbLine
 10
7.255729313403907
 20
13.6177422001745
 30
0.0
 11
7.566389485183744
 21
13.37936426627754
 31
0.0
  0
LINE
  5
3AD
330
1F
100
AcDbEntity
  8
0
100
AcDbLine
 10
9.066389498088517
 20
69.47744047018033
 30
0.0
 11
9.377049668817364
 21
69.23906253188042
 31
0.0
  0
LINE
  5
3AE
330
1F
100
AcDbEntity
  8
0
100
AcDbLine
 10
-8.384572409139608
 20
13.92840237195411
 30
0.0
 11
-8.234721775382667
 21
14.29017380430041
 31
0.0
  0
LINE
  5
3AF
330
1F
100
AcDbEntity
  8
0
100
AcDbLine
 10
-11.18361051481627
 20
68.17840237195405
 30
0.0
 11
-11.13249925376778
 21
68.5666309414073
 31
0.0
  0
LINE
  5
3B0
330
1F
100
AcDbEntity
  8
0
100
AcDbLine
 10
-17.18361051481627
 20
14.6784023719543
 30
0.0
 11
-17.13249925424987
 21
14.29017380430041
 31
0.0
  0
LINE
  5
3B1
330
1F
100
AcDbEntity
  8
0
100
AcDbLine
 10
-14.38457240913962
 20
13.92840237195411
 30
0.0
 11
-14.23472177538267
 21
14.29017380430041
 31
0.0
  0
LINE
  5
3B2
330
1F
100
AcDbEntity
  8
0
100
AcDbLine
 10
0.8163894851837445
 20
14.6784023719543
 30
0.0
 11
0.8163894851837445
 21
68.17840237195405
 31
0.0
  0
LINE
  5
3B3
330
1F
100
AcDbEntity
  8
0
100
AcDbLine
 10
0.8163894851837445
 20
14.6784023719543
 30
0.0
 11
0.8675007457501394
 21
14.29017380430041
 31
0.0
  0
LINE
  5
3B4
330
1F
100
AcDbEntity
  8
0
100
AcDbLine
 10
1.017351379507092
 20
13.92840237195411
 30
0.0
 11
1.255729313403918
 21
13.6177422001745
 31
0.0
  0
LINE
  5
3B5
330
1F
100
AcDbEntity
  8
0
100
AcDbLine
 10
3.377049656963566
 20
13.6177422001745
 30
0.0
 11
3.615427590860392
 21
13.92840237195411
 31
0.0
  0
LINE
  5
3B6
330
1F
100
AcDbEntity
  8
0
100
AcDbLine
 10
3.615427590860392
 20
13.92840237195411
 30
0.0
 11
3.765278224617344
 21
14.29017380430041
 31
0.0
  0
LINE
  5
3B7
330
1F
100
AcDbEntity
  8
0
100
AcDbLine
 10
3.765278224617344
 20
14.29017380430041
 30
0.0
 11
3.816389485183739
 21
14.6784023719543
 31
0.0
  0
LINE
  5
3B8
330
1F
100
AcDbEntity
  8
0
100
AcDbLine
 10
3.816389485183739
 20
68.17840237195405
 30
0.0
 11
3.816389485183739
 21
14.6784023719543
 31
0.0
  0
LINE
  5
3B9
330
1F
100
AcDbEntity
  8
0
100
AcDbLine
 10
3.066389498088527
 20
69.47744047018033
 30
0.0
 11
3.377049668817351
 21
69.23906253188042
 31
0.0
  0
LINE
  5
3BA
330
1F
100
AcDbEntity
  8
0
100
AcDbLine
 10
2.704618065431761
 20
69.62729110801317
 30
0.0
 11
3.066389498088527
 21
69.47744047018033
 31
0.0
  0
LINE
  5
3BB
330
1F
100
AcDbEntity
  8
0
100
AcDbLine
 10
-20.62295034303645
 20
-66.38225779982572
 30
0.0
 11
-20.38457240913961
 21
-66.07159762804575
 31
0.0
  0
LINE
  5
3BC
330
1F
100
AcDbEntity
  8
0
100
AcDbLine
 10
-20.62295033118265
 20
-10.76093746811979
 30
0.0
 11
-20.38457239982639
 21
-11.07159764417673
 31
0.0
  0
LINE
  5
3BD
330
1F
100
AcDbEntity
  8
0
100
AcDbLine
 10
-21.68361050364039
 20
-10.32159762804579
 30
0.0
 11
-21.29538193456825
 21
-10.37270889198669
 31
0.0
  0
LINE
  5
3BE
330
1F
100
AcDbEntity
  8
0
100
AcDbLine
 10
-22.07183907347416
 20
-10.37270888620166
 30
0.0
 11
-21.68361050364039
 21
-10.32159762804579
 31
0.0
  0
LINE
  5
3BF
330
1F
100
AcDbEntity
  8
0
100
AcDbLine
 10
-22.43361050836387
 20
-10.52255951864362
 30
0.0
 11
-22.07183907347416
 21
-10.37270888620166
 31
0.0
  0
LINE
  5
3C0
330
1F
100
AcDbEntity
  8
0
100
AcDbLine
 10
-8.622950343036447
 20
-66.38225779982572
 30
0.0
 11
-8.384572409139608
 21
-66.07159762804575
 31
0.0
  0
LINE
  5
3C1
330
1F
100
AcDbEntity
  8
0
100
AcDbLine
 10
245.7203739743449
 20
-124.417613138885
 30
0.0
 11
246.041389485184
 21
-124.6639370039116
 31
0.0
  0
LINE
  5
3C2
330
1F
100
AcDbEntity
  8
0
100
AcDbLine
 10
246.041389485184
 20
-124.6639370039116
 30
0.0
 11
246.4152199652751
 21
-124.8187826587939
 31
0.0
  0
LINE
  5
3C3
330
1F
100
AcDbEntity
  8
0
100
AcDbLine
 10
246.816389485184
 20
-124.8715976280457
 30
0.0
 11
247.217559005093
 21
-124.8187826587939
 31
0.0
  0
LINE
  5
3C4
330
1F
100
AcDbEntity
  8
0
100
AcDbLine
 10
247.217559005093
 20
-124.8187826587939
 30
0.0
 11
247.591389485184
 21
-124.6639370039116
 31
0.0
  0
LINE
  5
3C5
330
1F
100
AcDbEntity
  8
0
100
AcDbLine
 10
247.591389485184
 20
-124.6639370039116
 30
0.0
 11
247.9124049960232
 21
-124.417613138885
 31
0.0
  0
LINE
  5
3C6
330
1F
100
AcDbEntity
  8
0
100
AcDbLine
 10
247.9124049960232
 20
-124.417613138885
 30
0.0
 11
248.15872886105
 21
-124.0965976280459
 31
0.0
  0
LINE
  5
3C7
330
1F
100
AcDbEntity
  8
0
100
AcDbLine
 10
248.15872886105
 20
-124.0965976280459
 30
0.0
 11
248.3135745159321
 21
-123.7227671479547
 31
0.0
  0
LINE
  5
3C8
330
1F
100
AcDbEntity
  8
0
100
AcDbLine
 10
248.3135745159321
 20
-123.7227671479547
 30
0.0
 11
248.366389485184
 21
-123.3215976280457
 31
0.0
  0
LINE
  5
3C9
330
1F
100
AcDbEntity
  8
0
100
AcDbLine
 10
248.366389485184
 20
-123.3215976280457
 30
0.0
 11
248.3135745159321
 21
-122.9204281081367
 31
0.0
  0
LINE
  5
3CA
330
1F
100
AcDbEntity
  8
0
100
AcDbLine
 10
248.3135745159321
 20
-122.9204281081367
 30
0.0
 11
248.15872886105
 21
-122.5465976280459
 31
0.0
  0
LINE
  5
3CB
330
1F
100
AcDbEntity
  8
0
100
AcDbLine
 10
248.15872886105
 20
-122.5465976280459
 30
0.0
 11
247.9124049960232
 21
-122.2255821172068
 31
0.0
  0
LINE
  5
3CC
330
1F
100
AcDbEntity
  8
0
100
AcDbLine
 10
247.9124049960232
 20
-122.2255821172068
 30
0.0
 11
247.591389485184
 21
-121.9792582521799
 31
0.0
  0
LINE
  5
3CD
330
1F
100
AcDbEntity
  8
0
100
AcDbLine
 10
247.591389485184
 20
-121.9792582521799
 30
0.0
 11
247.217559005093
 21
-121.8244125972979
 31
0.0
  0
LINE
  5
3CE
330
1F
100
AcDbEntity
  8
0
100
AcDbLine
 10
5.813574515931712
 20
-78.72276714795518
 30
0.0
 11
5.866389485183753
 21
-78.3215976280462
 31
0.0
  0
LINE
  5
3CF
330
1F
100
AcDbEntity
  8
0
100
AcDbLine
 10
5.866389485183753
 20
-78.3215976280462
 30
0.0
 11
5.813574515931852
 21
-77.92042810813687
 31
0.0
  0
LINE
  5
3D0
330
1F
100
AcDbEntity
  8
0
100
AcDbLine
 10
5.813574515931852
 20
-77.92042810813687
 30
0.0
 11
5.658728861049673
 21
-77.54659762804566
 31
0.0
  0
LINE
  5
3D1
330
1F
100
AcDbEntity
  8
0
100
AcDbLine
 10
5.658728861049673
 20
-77.54659762804566
 30
0.0
 11
5.412404996022885
 21
-77.22558211720623
 31
0.0
  0
LINE
  5
3D2
330
1F
100
AcDbEntity
  8
0
100
AcDbLine
 10
5.412404996022885
 20
-77.22558211720623
 30
0.0
 11
5.091389485183635
 21
-76.97925825217963
 31
0.0
  0
LINE
  5
3D3
330
1F
100
AcDbEntity
  8
0
100
AcDbLine
 10
5.091389485183635
 20
-76.97925825217963
 30
0.0
 11
4.717559005092395
 21
-76.82441259729727
 31
0.0
  0
LINE
  5
3D4
330
1F
100
AcDbEntity
  8
0
100
AcDbLine
 10
4.717559005092395
 20
-76.82441259729727
 30
0.0
 11
4.316389485183315
 21
-76.77159762804511
 31
0.0
  0
LINE
  5
3D5
330
1F
100
AcDbEntity
  8
0
100
AcDbLine
 10
4.316389485183315
 20
-76.77159762804511
 30
0.0
 11
3.915219965274218
 21
-76.8244125972969
 31
0.0
  0
LINE
  5
3D6
330
1F
100
AcDbEntity
  8
0
100
AcDbLine
 10
3.915219965274218
 20
-76.8244125972969
 30
0.0
 11
3.541389485182927
 21
-76.97925825217926
 31
0.0
  0
LINE
  5
3D7
330
1F
100
AcDbEntity
  8
0
100
AcDbLine
 10
3.541389485182927
 20
-76.97925825217926
 30
0.0
 11
3.220373974343588
 21
-77.22558211720587
 31
0.0
  0
LINE
  5
3D8
330
1F
100
AcDbEntity
  8
0
100
AcDbLine
 10
-26.4130464125324
 20
-77.43381000592687
 30
0.0
 11
-26.68611617907514
 21
-77.13521444788698
 31
0.0
  0
LINE
  5
3D9
330
1F
100
AcDbEntity
  8
0
100
AcDbLine
 10
-26.68611617907514
 20
-77.13521444788698
 30
0.0
 11
-27.02716353616131
 21
-76.9174689429834
 31
0.0
  0
LINE
  5
3DA
330
1F
100
AcDbEntity
  8
0
100
AcDbLine
 10
-27.02716353616131
 20
-76.9174689429834
 30
0.0
 11
-27.4129466700129
 21
-76.79541248753515
 31
0.0
  0
LINE
  5
3DB
330
1F
100
AcDbEntity
  8
0
100
AcDbLine
 10
-27.4129466700129
 20
-76.79541248753515
 30
0.0
 11
-27.81717509759468
 21
-76.7773630272719
 31
0.0
  0
LINE
  5
3DC
330
1F
100
AcDbEntity
  8
0
100
AcDbLine
 10
-27.81717509759468
 20
-76.7773630272719
 30
0.0
 11
-28.21230131958603
 21
-76.86455060308349
 31
0.0
  0
LINE
  5
3DD
330
1F
100
AcDbEntity
  8
0
100
AcDbLine
 10
-28.21230131958603
 20
-76.86455060308349
 30
0.0
 11
-28.57139813693519
 21
-77.05103352576208
 31
0.0
  0
LINE
  5
3DE
330
1F
100
AcDbEntity
  8
0
100
AcDbLine
 10
-28.57139813693519
 20
-77.05103352576208
 30
0.0
 11
-28.86999369497535
 21
-77.32410329230464
 31
0.0
  0
LINE
  5
3DF
330
1F
100
AcDbEntity
  8
0
100
AcDbLine
 10
-28.86999369497535
 20
-77.32410329230464
 30
0.0
 11
-29.08773919987858
 21
-77.66515064939087
 31
0.0
  0
LINE
  5
3E0
330
1F
100
AcDbEntity
  8
0
100
AcDbLine
 10
-29.08773919987858
 20
-77.66515064939087
 30
0.0
 11
-29.20979565532718
 21
-78.05093378324236
 31
0.0
  0
LINE
  5
3E1
330
1F
100
AcDbEntity
  8
0
100
AcDbLine
 10
-29.20979565532718
 20
-78.05093378324236
 30
0.0
 11
-29.22784511559015
 21
-78.45516221082416
 31
0.0
  0
LINE
  5
3E2
330
1F
100
AcDbEntity
  8
0
100
AcDbLine
 10
-29.22784511559015
 20
-78.45516221082416
 30
0.0
 11
-29.14065753977873
 21
-78.8502884328157
 31
0.0
  0
LINE
  5
3E3
330
1F
100
AcDbEntity
  8
0
100
AcDbLine
 10
-29.14065753977873
 20
-78.8502884328157
 30
0.0
 11
-28.95417461710018
 21
-79.20938525016481
 31
0.0
  0
LINE
  5
3E4
330
1F
100
AcDbEntity
  8
0
100
AcDbLine
 10
-28.95417461710018
 20
-79.20938525016481
 30
0.0
 11
-28.68110485055744
 21
-79.50798080820508
 31
0.0
  0
LINE
  5
3E5
330
1F
100
AcDbEntity
  8
0
100
AcDbLine
 10
-28.68110485055744
 20
-79.50798080820508
 30
0.0
 11
-28.34005749347126
 21
-79.72572631310828
 31
0.0
  0
LINE
  5
3E6
330
1F
100
AcDbEntity
  8
0
100
AcDbLine
 10
-28.34005749347126
 20
-79.72572631310828
 30
0.0
 11
-27.95427435961967
 21
-79.84778276855691
 31
0.0
  0
LINE
  5
3E7
330
1F
100
AcDbEntity
  8
0
100
AcDbLine
 10
-27.95427435961967
 20
-79.84778276855691
 30
0.0
 11
-27.55004593203789
 21
-79.86583222881978
 31
0.0
  0
LINE
  5
3E8
330
1F
100
AcDbEntity
  8
0
100
AcDbLine
 10
-27.55004593203789
 20
-79.86583222881978
 30
0.0
 11
-27.15491971004655
 21
-79.7786446530082
 31
0.0
  0
ENDSEC
  0
SECTION
  2
OBJECTS
  0
DICTIONARY
  5
C
330
0
100
AcDbDictionary
  3
ACAD_GROUP
350
D
  3
ACAD_LAYOUT
350
1A
  3
ACAD_MATERIAL
350
3B
  3
ACAD_MLEADERSTYLE
350
40B
  3
ACAD_MLINESTYLE
350
17
  3
ACAD_PLOTSETTINGS
350
19
  3
ACAD_VISUALSTYLE
350
2A
  3
ACDBHEADERROUNDTRIPXREC
350
3E9
  3
ACDBVARIABLEDICTIONARY
350
409
  0
DICTIONARY
  5
D
102
{ACAD_REACTORS
330
C
102
}
330
C
100
AcDbDictionary
  0
DICTIONARY
  5
1A
102
{ACAD_REACTORS
330
C
102
}
330
C
100
AcDbDictionary
  0
DICTIONARY
  5
3B
102
{ACAD_REACTORS
330
C
102
}
330
C
100
AcDbDictionary
  3
BYBLOCK
350
3D
  3
BYLAYER
350
3C
  3
GLOBAL
350
3E
  0
DICTIONARY
  5
40B
102
{ACAD_REACTORS
330
C
102
}
330
C
100
AcDbDictionary
  0
DICTIONARY
  5
17
102
{ACAD_REACTORS
330
C
102
}
330
C
100
AcDbDictionary
  3
STANDARD
350
18
  0
DICTIONARY
  5
19
102
{ACAD_REACTORS
330
C
102
}
330
C
100
AcDbDictionary
  0
DICTIONARY
  5
2A
102
{ACAD_REACTORS
330
C
102
}
330
C
100
AcDbDictionary
  3
2DWIREFRAME
350
2F
  3
3D_HIDDEN
350
31
  3
3DWIREFRAME
350
30
  3
BASIC
350
32
  3
BRIGHTEN
350
36
  3
COLORCHANGE
350
3A
  3
CONCEPTUAL
350
34
  3
DIM
350
35
  3
FACEPATTERN
350
39
  3
FLAT
350
2B
  3
FLATWITHEDGES
350
2C
  3
GOURAUD
350
2D
  3
GOURAUDWITHEDGES
350
2E
  3
LINEPATTERN
350
38
  3
REALISTIC
350
33
  3
THICKEN
350
37
  0
DICTIONARY
  5
3E9
102
{ACAD_REACTORS
330
C
102
}
330
C
100
AcDbDictionary
  3
CEPSNTYPE
350
3F2
  3
DIMSTYLEDATA
350
408
  3
FINGERPRINTGUID
350
3F3
  3
HYPERLINKBASE
350
3EC
  3
INSUNITS
350
3F1
  3
LAYOUTDICT
350
3EE
  3
LWETCUNION
350
3F0
  3
PLOTSETDICT
350
3EF
  3
PSVPSCALE
350
3F5
  3
PUCSBASE
350
3F8
  3
PUCSORGBACK
350
3FE
  3
PUCSORGBOTTOM
350
3FA
  3
PUCSORGFRONT
350
3FD
  3
PUCSORGLEFT
350
3FB
  3
PUCSORGRIGHT
350
3FC
  3
PUCSORGTOP
350
3F9
  3
PUCSORTHOREF
350
3F6
  3
PUCSORTHOVIEW
350
3F7
  3
STYLESHEET
350
3ED
  3
TSTACKALIGN
350
3EA
  3
TSTACKSIZE
350
3EB
  3
UCSBASE
350
401
  3
UCSORGBACK
350
407
  3
UCSORGBOTTOM
350
403
  3
UCSORGFRONT
350
406
  3
UCSORGLEFT
350
404
  3
UCSORGRIGHT
350
405
  3
UCSORGTOP
350
402
  3
UCSORTHOREF
350
3FF
  3
UCSORTHOVIEW
350
400
  3
VERSIONGUID
350
3F4
  0
DICTIONARY
  5
409
102
{ACAD_REACTORS
330
C
102
}
330
C
100
AcDbDictionary
  3
DIMASSOC
350
40C
  3
HIDETEXT
350
40D
  0
MATERIAL
  5
3D
102
{ACAD_REACTORS
330
3B
102
}
102
{ACAD_XDICTIONARY
360
410
102
}
330
3B
100
AcDbMaterial
  1
ByBlock
  0
MATERIAL
  5
3C
102
{ACAD_REACTORS
330
3B
102
}
102
{ACAD_XDICTIONARY
360
40E
102
}
330
3B
100
AcDbMaterial
  1
ByLayer
  0
MATERIAL
  5
3E
102
{ACAD_REACTORS
330
3B
102
}
102
{ACAD_XDICTIONARY
360
412
102
}
330
3B
100
AcDbMaterial
  1
Global
  0
MLINESTYLE
  5
18
102
{ACAD_REACTORS
330
17
102
}
330
17
100
AcDbMlineStyle
  2
Standard
 70
     0
  3

 62
   256
 51
90.0
 52
90.0
 71
     2
 49
0.5
 62
   256
  6
BYLAYER
 49
-0.5
 62
   256
  6
BYLAYER
  0
ACAD_PROXY_OBJECT
  5
2F
102
{ACAD_REACTORS
330
2A
102
}
330
2A
100
AcDbProxyObject
 90
      499
 91
      501
 93
      436
310
42CC9915DA5C99599C985B595049028333333333333E3BF0000000000000FB0107901411070040501600405405064090741402480A0340
1001
ACAD
1000
AcDbSavedByObjectVersion
1070
     0
  0
ACAD_PROXY_OBJECT
  5
31
102
{ACAD_REACTORS
330
2A
102
}
330
2A
100
AcDbProxyObject
 90
      499
 91
      501
 93
      500
310
424CD108121A5919195B90640502408333333333333E3BF0000000000000FB01079024090700405020000000000001110200405405064090740C02480A0340
1001
ACAD
1000
AcDbSavedByObjectVersion
1070
     0
  0
ACAD_PROXY_OBJECT
  5
30
102
{ACAD_REACTORS
330
2A
102
}
330
2A
100
AcDbProxyObject
 90
      499
 91
      501
 93
      436
310
42CCD915DA5C99599C985B595059028333333333333E3BF0000000000000FB0107901411070040501600405405064090741402480A0340
1001
ACAD
1000
AcDbSavedByObjectVersion
1070
     0
  0
ACAD_PROXY_OBJECT
  5
32
102
{ACAD_REACTORS
330
2A
102
}
330
2A
100
AcDbProxyObject
 90
      499
 91
      501
 93
      388
310
4150985CDA58D07406404333333333333E3BF0000000000000FB0107A41107004050150841D405064090741402480A0350
1001
ACAD
1000
AcDbSavedByObjectVersion
1070
     0
  0
ACAD_PROXY_OBJECT
  5
36
102
{ACAD_REACTORS
330
2A
102
}
330
2A
100
AcDbProxyObject
 90
      499
 91
      501
 93
      428
310
42109C9A59DA1D195B90C409028333333333333E3BF0000000000000FB010790141107004050150841D405064090741402480A029950
1001
ACAD
1000
AcDbSavedByObjectVersion
1070
     0
  0
ACAD_PROXY_OBJECT
  5
3A
102
{ACAD_REACTORS
330
2A
102
}
330
2A
100
AcDbProxyObject
 90
      499
 91
      501
 93
      452
310
42D0DBDB1BDC90DA185B99D95104090240C333333333333E3BF0000000000000FB0108901411070040501508421405064090741402480A0350
1001
ACAD
1000
AcDbSavedByObjectVersion
1070
     0
  0
ACAD_PROXY_OBJECT
  5
34
102
{ACAD_REACTORS
330
2A
102
}
330
2A
100
AcDbProxyObject
 90
      499
 91
      501
 93
      500
310
4290DBDB98D95C1D1D585B10940D028333333333333E3BF0000000000000FB0107902409070040501000000000000111010841D405064090740C02480A0340
1001
ACAD
1000
AcDbSavedByObjectVersion
1070
     0
  0
ACAD_PROXY_OBJECT
  5
35
102
{ACAD_REACTORS
330
2A
102
}
330
2A
100
AcDbProxyObject
 90
      499
 91
      501
 93
      412
310
40D11A5B50B409028333333333333E3BF0000000000000FB010790141107004050150841D405064090741402480A02677FFFFFD0
1001
ACAD
1000
AcDbSavedByObjectVersion
1070
     0
  0
ACAD_PROXY_OBJECT
  5
39
102
{ACAD_REACTORS
330
2A
102
}
330
2A
100
AcDbProxyObject
 90
      499
 91
      501
 93
      444
310
42D19858D95C185D1D195C9B90F409028333333333333E3BF0000000000000FB010790141107004050150841D405064090741402480A0350
1001
ACAD
1000
AcDbSavedByObjectVersion
1070
     0
  0
ACAD_PROXY_OBJECT
  5
2B
102
{ACAD_REACTORS
330
2A
102
}
330
2A
100
AcDbProxyObject
 90
      499
 91
      501
 93
      388
310
41119B185D240901404333333333333E3BF0000000000000F9010740A41107004050150841D405064090741402480A1B50
1001
ACAD
1000
AcDbSavedByObjectVersion
1070
     0
  0
ACAD_PROXY_OBJECT
  5
2C
102
{ACAD_REACTORS
330
2A
102
}
330
2A
100
AcDbProxyObject
 90
      499
 91
      501
 93
      476
310
43519B185D15DA5D1A115919D95CD0140901404333333333333E3BF0000000000000F9010740901411070040501600405405064090741402480A1B50
1001
ACAD
1000
AcDbSavedByObjectVersion
1070
     0
  0
ACAD_PROXY_OBJECT
  5
2D
102
{ACAD_REACTORS
330
2A
102
}
330
2A
100
AcDbProxyObject
 90
      499
 91
      501
 93
      412
310
41D1DBDD5C985D5910240902404333333333333E3BF0000000000000F9010740A411070040501641D405064090741402480A1B50
1001
ACAD
1000
AcDbSavedByObjectVersion
1070
     0
  0
ACAD_PROXY_OBJECT
  5
2E
102
{ACAD_REACTORS
330
2A
102
}
330
2A
100
AcDbProxyObject
 90
      499
 91
      501
 93
      500
310
4411DBDD5C985D5915DA5D1A115919D95CD0340902404333333333333E3BF0000000000000F9010740901411070040501600405405064090741402480A1B50
1001
ACAD
1000
AcDbSavedByObjectVersion
1070
     0
  0
ACAD_PROXY_OBJECT
  5
38
102
{ACAD_REACTORS
330
2A
102
}
330
2A
100
AcDbProxyObject
 90
      499
 91
      501
 93
      444
310
42D31A5B995C185D1D195C9B90E409028333333333333E3BF0000000000000FB010790141107004050750841D405064090741402483A0350
1001
ACAD
1000
AcDbSavedByObjectVersion
1070
     0
  0
ACAD_PROXY_OBJECT
  5
33
102
{ACAD_REACTORS
330
2A
102
}
330
2A
100
AcDbProxyObject
 90
      499
 91
      501
 93
      420
310
425499585B1A5CDD1A58D08409028333333333333E3BF0000000000000FB01079019070040501508421405064090741402480A1B40
1001
ACAD
1000
AcDbSavedByObjectVersion
1070
     0
  0
ACAD_PROXY_OBJECT
  5
37
102
{ACAD_REACTORS
330
2A
102
}
330
2A
100
AcDbProxyObject
 90
      499
 91
      501
 93
      412
310
41D51A1A58DAD95B90D409028333333333333E3BF0000000000000FB010790141107004050150C41D405064090741402480A0350
1001
ACAD
1000
AcDbSavedByObjectVersion
1070
     0
  0
XRECORD
  5
3F2
102
{ACAD_REACTORS
330
3E9
102
}
330
3E9
100
AcDbXrecord
 90
        0
  0
XRECORD
  5
408
102
{ACAD_REACTORS
330
3E9
102
}
330
3E9
100
AcDbXrecord
1000
DSTYLE
1002
{
1070
   340
340
11
1002
}
  0
XRECORD
  5
3F3
102
{ACAD_REACTORS
330
3E9
102
}
330
3E9
100
AcDbXrecord
  1
{83BF154B-9694-46E2-A4C6-BEB3EEF83747}
  0
XRECORD
  5
3EC
102
{ACAD_REACTORS
330
3E9
102
}
330
3E9
100
AcDbXrecord
  1

  0
XRECORD
  5
3F1
102
{ACAD_REACTORS
330
3E9
102
}
330
3E9
100
AcDbXrecord
 90
        1
  0
XRECORD
  5
3EE
102
{ACAD_REACTORS
330
3E9
102
}
330
3E9
100
AcDbXrecord
340
1A
  0
XRECORD
  5
3F0
102
{ACAD_REACTORS
330
3E9
102
}
330
3E9
100
AcDbXrecord
 90
    10781
  0
XRECORD
  5
3EF
102
{ACAD_REACTORS
330
3E9
102
}
330
3E9
100
AcDbXrecord
340
19
  0
XRECORD
  5
3F5
102
{ACAD_REACTORS
330
3E9
102
}
330
3E9
100
AcDbXrecord
 40
0.0
  0
XRECORD
  5
3F8
102
{ACAD_REACTORS
330
3E9
102
}
330
3E9
100
AcDbXrecord
340
0
  0
XRECORD
  5
3FE
102
{ACAD_REACTORS
330
3E9
102
}
330
3E9
100
AcDbXrecord
 10
0.0
 20
0.0
 30
0.0
  0
XRECORD
  5
3FA
102
{ACAD_REACTORS
330
3E9
102
}
330
3E9
100
AcDbXrecord
 10
0.0
 20
0.0
 30
0.0
  0
XRECORD
  5
3FD
102
{ACAD_REACTORS
330
3E9
102
}
330
3E9
100
AcDbXrecord
 10
0.0
 20
0.0
 30
0.0
  0
XRECORD
  5
3FB
102
{ACAD_REACTORS
330
3E9
102
}
330
3E9
100
AcDbXrecord
 10
0.0
 20
0.0
 30
0.0
  0
XRECORD
  5
3FC
102
{ACAD_REACTORS
330
3E9
102
}
330
3E9
100
AcDbXrecord
 10
0.0
 20
0.0
 30
0.0
  0
XRECORD
  5
3F9
102
{ACAD_REACTORS
330
3E9
102
}
330
3E9
100
AcDbXrecord
 10
0.0
 20
0.0
 30
0.0
  0
XRECORD
  5
3F6
102
{ACAD_REACTORS
330
3E9
102
}
330
3E9
100
AcDbXrecord
340
0
  0
XRECORD
  5
3F7
102
{ACAD_REACTORS
330
3E9
102
}
330
3E9
100
AcDbXrecord
 70
     0
  0
XRECORD
  5
3ED
102
{ACAD_REACTORS
330
3E9
102
}
330
3E9
100
AcDbXrecord
  1

  0
XRECORD
  5
3EA
102
{ACAD_REACTORS
330
3E9
102
}
330
3E9
100
AcDbXrecord
 90
        1
  0
XRECORD
  5
3EB
102
{ACAD_REACTORS
330
3E9
102
}
330
3E9
100
AcDbXrecord
 90
       70
  0
XRECORD
  5
401
102
{ACAD_REACTORS
330
3E9
102
}
330
3E9
100
AcDbXrecord
340
0
  0
XRECORD
  5
407
102
{ACAD_REACTORS
330
3E9
102
}
330
3E9
100
AcDbXrecord
 10
0.0
 20
0.0
 30
0.0
  0
XRECORD
  5
403
102
{ACAD_REACTORS
330
3E9
102
}
330
3E9
100
AcDbXrecord
 10
0.0
 20
0.0
 30
0.0
  0
XRECORD
  5
406
102
{ACAD_REACTORS
330
3E9
102
}
330
3E9
100
AcDbXrecord
 10
0.0
 20
0.0
 30
0.0
  0
XRECORD
  5
404
102
{ACAD_REACTORS
330
3E9
102
}
330
3E9
100
AcDbXrecord
 10
0.0
 20
0.0
 30
0.0
  0
XRECORD
  5
405
102
{ACAD_REACTORS
330
3E9
102
}
330
3E9
100
AcDbXrecord
 10
0.0
 20
0.0
 30
0.0
  0
XRECORD
  5
402
102
{ACAD_REACTORS
330
3E9
102
}
330
3E9
100
AcDbXrecord
 10
0.0
 20
0.0
 30
0.0
  0
XRECORD
  5
3FF
102
{ACAD_REACTORS
330
3E9
102
}
330
3E9
100
AcDbXrecord
340
0
  0
XRECORD
  5
400
102
{ACAD_REACTORS
330
3E9
102
}
330
3E9
100
AcDbXrecord
 70
     0
  0
XRECORD
  5
3F4
102
{ACAD_REACTORS
330
3E9
102
}
330
3E9
100
AcDbXrecord
  1
{FAEB1C32-E019-11D5-929B-00C0DF256EC4}
  0
DICTIONARYVAR
  5
40C
102
{ACAD_REACTORS
330
409
102
}
330
409
100
DictionaryVariables
280
     0
  1
2
  0
DICTIONARYVAR
  5
40D
102
{ACAD_REACTORS
330
409
102
}
330
409
100
DictionaryVariables
280
     0
  1
1
  0
DICTIONARY
  5
410
330
3D
100
AcDbDictionary
280
     1
  3
ACAD_XREC_ROUNDTRIP
360
411
  0
DICTIONARY
  5
40E
330
3C
100
AcDbDictionary
280
     1
  3
ACAD_XREC_ROUNDTRIP
360
40F
  0
DICTIONARY
  5
412
330
3E
100
AcDbDictionary
280
     1
  3
ACAD_XREC_ROUNDTRIP
360
413
  0
XRECORD
  5
411
102
{ACAD_REACTORS
330
410
102
}
330
410
100
AcDbXrecord
102
MATERIAL
148
0.0
149
0.0
149
0.0
 93
        0
 94
      127
282
     0
 72
     1
 77
     1
171
     1
175
     1
179
     1
273
     0
  0
XRECORD
  5
40F
102
{ACAD_REACTORS
330
40E
102
}
330
40E
100
AcDbXrecord
102
MATERIAL
148
0.0
149
0.0
149
0.0
 93
        0
 94
      127
282
     0
 72
     1
 77
     1
171
     1
175
     1
179
     1
273
     0
  0
XRECORD
  5
413
102
{ACAD_REACTORS
330
412
102
}
330
412
100
AcDbXrecord
102
MATERIAL
148
0.0
149
0.0
149
0.0
 93
        0
 94
      127
282
     0
 72
     1
 77
     1
171
     1
175
     1
179
     1
273
     0
  0
ENDSEC
  0
EOF
