  0
SECTION
  2
HEADER
  9
$ACADVER
  1
AC1014
  9
$ACADMAINTVER
 70
     9
  9
$DWGCODEPAGE
  3
ANSI_1252
  9
$INSBASE
 10
0.0
 20
0.0
 30
0.0
  9
$EXTMIN
 10
1.000000000000000E+20
 20
1.000000000000000E+20
 30
1.000000000000000E+20
  9
$EXTMAX
 10
-1.000000000000000E+20
 20
-1.000000000000000E+20
 30
-1.000000000000000E+20
  9
$LIMMIN
 10
0.0
 20
0.0
  9
$LIMMAX
 10
12.0
 20
9.0
  9
$ORTHOMODE
 70
     0
  9
$REGENMODE
 70
     1
  9
$FILLMODE
 70
     1
  9
$QTEXTMODE
 70
     0
  9
$MIRRTEXT
 70
     1
  9
$DRAGMODE
 70
     2
  9
$LTSCALE
 40
1.0
  9
$OSMODE
 70
    37
  9
$ATTMODE
 70
     1
  9
$TEXTSIZE
 40
0.2
  9
$TRACEWID
 40
0.05
  9
$TEXTSTYLE
  7
STANDARD
  9
$CLAYER
  8
0
  9
$CELTYPE
  6
BYLAYER
  9
$CECOLOR
 62
   256
  9
$CELTSCALE
 40
1.0
  9
$DELOBJ
 70
     1
  9
$DISPSILH
 70
     0
  9
$DIMSCALE
 40
1.0
  9
$DIMASZ
 40
0.18
  9
$DIMEXO
 40
0.0625
  9
$DIMDLI
 40
0.38
  9
$DIMRND
 40
0.0
  9
$DIMDLE
 40
0.0
  9
$DIMEXE
 40
0.18
  9
$DIMTP
 40
0.0
  9
$DIMTM
 40
0.0
  9
$DIMTXT
 40
0.18
  9
$DIMCEN
 40
0.09
  9
$DIMTSZ
 40
0.0
  9
$DIMTOL
 70
     0
  9
$DIMLIM
 70
     0
  9
$DIMTIH
 70
     1
  9
$DIMTOH
 70
     1
  9
$DIMSE1
 70
     0
  9
$DIMSE2
 70
     0
  9
$DIMTAD
 70
     0
  9
$DIMZIN
 70
     0
  9
$DIMBLK
  1

  9
$DIMASO
 70
     1
  9
$DIMSHO
 70
     1
  9
$DIMPOST
  1

  9
$DIMAPOST
  1

  9
$DIMALT
 70
     0
  9
$DIMALTD
 70
     2
  9
$DIMALTF
 40
25.4
  9
$DIMLFAC
 40
1.0
  9
$DIMTOFL
 70
     0
  9
$DIMTVP
 40
0.0
  9
$DIMTIX
 70
     0
  9
$DIMSOXD
 70
     0
  9
$DIMSAH
 70
     0
  9
$DIMBLK1
  1

  9
$DIMBLK2
  1

  9
$DIMSTYLE
  2
STANDARD
  9
$DIMCLRD
 70
     0
  9
$DIMCLRE
 70
     0
  9
$DIMCLRT
 70
     0
  9
$DIMTFAC
 40
1.0
  9
$DIMGAP
 40
0.09
  9
$DIMJUST
 70
     0
  9
$DIMSD1
 70
     0
  9
$DIMSD2
 70
     0
  9
$DIMTOLJ
 70
     1
  9
$DIMTZIN
 70
     0
  9
$DIMALTZ
 70
     0
  9
$DIMALTTZ
 70
     0
  9
$DIMFIT
 70
     3
  9
$DIMUPT
 70
     0
  9
$DIMUNIT
 70
     2
  9
$DIMDEC
 70
     4
  9
$DIMTDEC
 70
     4
  9
$DIMALTU
 70
     2
  9
$DIMALTTD
 70
     2
  9
$DIMTXSTY
  7
STANDARD
  9
$DIMAUNIT
 70
     0
  9
$LUNITS
 70
     2
  9
$LUPREC
 70
     4
  9
$SKETCHINC
 40
0.1
  9
$FILLETRAD
 40
0.5
  9
$AUNITS
 70
     0
  9
$AUPREC
 70
     0
  9
$MENU
  1
.
  9
$ELEVATION
 40
0.0
  9
$PELEVATION
 40
0.0
  9
$THICKNESS
 40
0.0
  9
$LIMCHECK
 70
     0
  9
$CHAMFERA
 40
0.5
  9
$CHAMFERB
 40
0.5
  9
$CHAMFERC
 40
1.0
  9
$CHAMFERD
 40
0.0
  9
$SKPOLY
 70
     0
  9
$TDCREATE
 40
2457286.914384908
  9
$TDUPDATE
 40
2457286.914384919
  9
$TDINDWG
 40
0.0000000116
  9
$TDUSRTIMER
 40
0.0000000116
  9
$USRTIMER
 70
     1
  9
$ANGBASE
 50
0.0
  9
$ANGDIR
 70
     0
  9
$PDMODE
 70
     0
  9
$PDSIZE
 40
0.0
  9
$PLINEWID
 40
0.0
  9
$COORDS
 70
     1
  9
$SPLFRAME
 70
     0
  9
$SPLINETYPE
 70
     6
  9
$SPLINESEGS
 70
     8
  9
$ATTDIA
 70
     0
  9
$ATTREQ
 70
     1
  9
$HANDLING
 70
     1
  9
$HANDSEED
  5
1CC
  9
$SURFTAB1
 70
     6
  9
$SURFTAB2
 70
     6
  9
$SURFTYPE
 70
     6
  9
$SURFU
 70
     6
  9
$SURFV
 70
     6
  9
$UCSNAME
  2

  9
$UCSORG
 10
0.0
 20
0.0
 30
0.0
  9
$UCSXDIR
 10
1.0
 20
0.0
 30
0.0
  9
$UCSYDIR
 10
0.0
 20
1.0
 30
0.0
  9
$PUCSNAME
  2

  9
$PUCSORG
 10
0.0
 20
0.0
 30
0.0
  9
$PUCSXDIR
 10
1.0
 20
0.0
 30
0.0
  9
$PUCSYDIR
 10
0.0
 20
1.0
 30
0.0
  9
$USERI1
 70
     0
  9
$USERI2
 70
     0
  9
$USERI3
 70
     0
  9
$USERI4
 70
     0
  9
$USERI5
 70
     0
  9
$USERR1
 40
0.0
  9
$USERR2
 40
0.0
  9
$USERR3
 40
0.0
  9
$USERR4
 40
0.0
  9
$USERR5
 40
0.0
  9
$WORLDVIEW
 70
     1
  9
$SHADEDGE
 70
     3
  9
$SHADEDIF
 70
    70
  9
$TILEMODE
 70
     1
  9
$MAXACTVP
 70
    64
  9
$PINSBASE
 10
0.0
 20
0.0
 30
0.0
  9
$PLIMCHECK
 70
     0
  9
$PEXTMIN
 10
1.000000000000000E+20
 20
1.000000000000000E+20
 30
1.000000000000000E+20
  9
$PEXTMAX
 10
-1.000000000000000E+20
 20
-1.000000000000000E+20
 30
-1.000000000000000E+20
  9
$PLIMMIN
 10
0.0
 20
0.0
  9
$PLIMMAX
 10
12.0
 20
9.0
  9
$UNITMODE
 70
     0
  9
$VISRETAIN
 70
     1
  9
$PLINEGEN
 70
     0
  9
$PSLTSCALE
 70
     1
  9
$TREEDEPTH
 70
  3020
  9
$PICKSTYLE
 70
     1
  9
$CMLSTYLE
  2
STANDARD
  9
$CMLJUST
 70
     0
  9
$CMLSCALE
 40
1.0
  9
$PROXYGRAPHICS
 70
     1
  9
$MEASUREMENT
 70
     0
  0
ENDSEC
  0
SECTION
  2
CLASSES
  0
CLASS
  1
ACDBDICTIONARYWDFLT
  2
AcDbDictionaryWithDefault
  3
ObjectDBX Classes
 90
        0
280
     0
281
     0
  0
CLASS
  1
VISUALSTYLE
  2
AcDbVisualStyle
  3
ObjectDBX Classes
 90
     4095
280
     0
281
     0
  0
CLASS
  1
MATERIAL
  2
AcDbMaterial
  3
ObjectDBX Classes
 90
     1153
280
     0
281
     0
  0
CLASS
  1
DICTIONARYVAR
  2
AcDbDictionaryVar
  3
ObjectDBX Classes
 90
        0
280
     0
281
     0
  0
CLASS
  1
XRECORD
  2
AcDbXrecord
  3
AutoCAD 2000
 90
        0
280
     0
281
     0
  0
CLASS
  1
LWPOLYLINE
  2
AcDbPolyline
  3
AutoCAD 2000
 90
        0
280
     0
281
     1
  0
CLASS
  1
HATCH
  2
AcDbHatch
  3
AutoCAD 2000
 90
        0
280
     0
281
     1
  0
CLASS
  1
ACDBPLACEHOLDER
  2
AcDbPlaceHolder
  3
ObjectDBX Classes
 90
        0
280
     0
281
     0
  0
CLASS
  1
LAYOUT
  2
AcDbLayout
  3
ObjectDBX Classes
 90
        0
280
     0
281
     0
  0
ENDSEC
  0
SECTION
  2
TABLES
  0
TABLE
  2
VPORT
  5
8
330
0
100
AcDbSymbolTable
 70
     1
  0
VPORT
  5
29
330
8
100
AcDbSymbolTableRecord
100
AcDbViewportTableRecord
  2
*ACTIVE
 70
     0
 10
0.0
 20
0.0
 11
1.0
 21
1.0
 12
0.0
 22
0.0
 13
0.0
 23
0.0
 14
0.5
 24
0.5
 15
0.5
 25
0.5
 16
0.0
 26
0.0
 36
1.0
 17
0.0
 27
0.0
 37
-1000.0
 40
299.5725576088589
 41
1.914432989690722
 42
50.0
 43
2087.266577845846
 44
2939.259623610586
 50
0.0
 51
0.0
 71
     0
 72
   100
 73
     1
 74
     3
 75
     0
 76
     0
 77
     0
 78
     0
  0
ENDTAB
  0
TABLE
  2
LTYPE
  5
5
330
0
100
AcDbSymbolTable
 70
     1
  0
LTYPE
  5
14
330
5
100
AcDbSymbolTableRecord
100
AcDbLinetypeTableRecord
  2
BYBLOCK
 70
     0
  3

 72
    65
 73
     0
 40
0.0
  0
LTYPE
  5
15
330
5
100
AcDbSymbolTableRecord
100
AcDbLinetypeTableRecord
  2
BYLAYER
 70
     0
  3

 72
    65
 73
     0
 40
0.0
  0
LTYPE
  5
16
330
5
100
AcDbSymbolTableRecord
100
AcDbLinetypeTableRecord
  2
CONTINUOUS
 70
     0
  3
Solid line
 72
    65
 73
     0
 40
0.0
  0
ENDTAB
  0
TABLE
  2
LAYER
  5
2
330
0
100
AcDbSymbolTable
 70
     3
  0
LAYER
  5
10
330
2
100
AcDbSymbolTableRecord
100
AcDbLayerTableRecord
  2
0
 70
     0
 62
     7
  6
CONTINUOUS
  0
LAYER
  5
3F
330
2
100
AcDbSymbolTableRecord
100
AcDbLayerTableRecord
  2
PROFILEEDGES
 70
     0
 62
     7
  6
CONTINUOUS
  0
LAYER
  5
40
330
2
100
AcDbSymbolTableRecord
100
AcDbLayerTableRecord
  2
SECTIONCUTEDGES
 70
     0
 62
     7
  6
CONTINUOUS
  0
ENDTAB
  0
TABLE
  2
STYLE
  5
3
330
0
100
AcDbSymbolTable
 70
     1
  0
STYLE
  5
11
330
3
100
AcDbSymbolTableRecord
100
AcDbTextStyleTableRecord
  2
STANDARD
 70
     0
 40
0.0
 41
1.0
 50
0.0
 71
     0
 42
0.2
  3
txt
  4

  0
ENDTAB
  0
TABLE
  2
VIEW
  5
6
330
0
100
AcDbSymbolTable
 70
     0
  0
ENDTAB
  0
TABLE
  2
UCS
  5
7
330
0
100
AcDbSymbolTable
 70
     0
  0
ENDTAB
  0
TABLE
  2
APPID
  5
9
330
0
100
AcDbSymbolTable
 70
     1
  0
APPID
  5
12
330
9
100
AcDbSymbolTableRecord
100
AcDbRegAppTableRecord
  2
ACAD
 70
     0
  0
ENDTAB
  0
TABLE
  2
DIMSTYLE
  5
A
330
0
100
AcDbSymbolTable
 70
     1
  0
DIMSTYLE
105
27
330
A
100
AcDbSymbolTableRecord
100
AcDbDimStyleTableRecord
  2
STANDARD
 70
     0
  3

  4

  5

  6

  7

 40
1.0
 41
0.18
 42
0.0625
 43
0.38
 44
0.18
 45
0.0
 46
0.0
 47
0.0
 48
0.0
140
0.18
141
0.09
142
0.0
143
25.4
144
1.0
145
0.0
146
1.0
147
0.09
 71
     0
 72
     0
 73
     1
 74
     1
 75
     0
 76
     0
 77
     0
 78
     0
170
     0
171
     2
172
     0
173
     0
174
     0
175
     0
176
     0
177
     0
178
     0
270
     2
271
     4
272
     4
273
     2
274
     2
340
11
275
     0
280
     0
281
     0
282
     0
283
     1
284
     0
285
     0
286
     0
287
     3
288
     0
  0
ENDTAB
  0
TABLE
  2
BLOCK_RECORD
  5
1
330
0
100
AcDbSymbolTable
 70
     1
  0
BLOCK_RECORD
  5
1F
330
1
100
AcDbSymbolTableRecord
100
AcDbBlockTableRecord
  2
*MODEL_SPACE
  0
BLOCK_RECORD
  5
1B
330
1
100
AcDbSymbolTableRecord
100
AcDbBlockTableRecord
  2
*PAPER_SPACE
  0
ENDTAB
  0
ENDSEC
  0
SECTION
  2
BLOCKS
  0
BLOCK
  5
20
330
1F
100
AcDbEntity
  8
0
100
AcDbBlockBegin
  2
*MODEL_SPACE
 70
     0
 10
0.0
 20
0.0
 30
0.0
  3
*MODEL_SPACE
  1

  0
ENDBLK
  5
21
330
1F
100
AcDbEntity
  8
0
100
AcDbBlockEnd
  0
BLOCK
  5
1C
330
1B
100
AcDbEntity
 67
     1
  8
0
100
AcDbBlockBegin
  2
*PAPER_SPACE
 70
     0
 10
0.0
 20
0.0
 30
0.0
  3
*PAPER_SPACE
  1

  0
ENDBLK
  5
1D
330
1B
100
AcDbEntity
 67
     1
  8
0
100
AcDbBlockEnd
  0
ENDSEC
  0
SECTION
  2
ENTITIES
  0
LINE
  5
41
330
1F
100
AcDbEntity
  8
0
100
AcDbLine
 10
46.3491846253567
 20
80.03176915599694
 30
0.0
 11
46.57742523389778
 21
80.36588385081568
 31
0.0
  0
LINE
  5
42
330
1F
100
AcDbEntity
  8
0
100
AcDbLine
 10
-249.183384602544
 20
-114.3885263148251
 30
0.0
 11
-248.2868617377314
 21
-114.6703938997928
 31
0.0
  0
LINE
  5
43
330
1F
100
AcDbEntity
  8
0
100
AcDbLine
 10
-108.1303822493997
 20
2.196223784370218
 30
0.0
 11
-107.6597766128661
 21
3.009693462631386
 31
0.0
  0
LINE
  5
44
330
1F
100
AcDbEntity
  8
0
100
AcDbLine
 10
46.71141348602762
 20
80.74768687984005
 30
0.0
 11
46.7420183037899
 21
81.15115899760141
 31
0.0
  0
LINE
  5
45
330
1F
100
AcDbEntity
  8
0
100
AcDbLine
 10
-246.5305129412588
 20
119.5711117790551
 30
0.0
 11
-247.0289261417786
 21
118.7743766510892
 31
0.0
  0
LINE
  5
46
330
1F
100
AcDbEntity
  8
0
100
AcDbLine
 10
-249.4623807722731
 20
117.4820567243804
 30
0.0
 11
-250.4015802334391
 21
117.5153276536289
 31
0.0
  0
LINE
  5
47
330
1F
100
AcDbEntity
  8
0
100
AcDbLine
 10
-253.5034765672642
 20
-78.09355938794874
 30
0.0
 11
-253.7654570829769
 21
-77.78518848454188
 31
0.0
  0
LINE
  5
48
330
1F
100
AcDbEntity
  8
0
100
AcDbLine
 10
-253.7654570829769
 20
-77.78518848454188
 30
0.0
 11
-254.0983230918457
 21
-77.55513061177757
 31
0.0
  0
LINE
  5
49
330
1F
100
AcDbEntity
  8
0
100
AcDbLine
 10
-254.0983230918457
 20
-77.55513061177757
 30
0.0
 11
-254.4793903254528
 21
-77.41906383349583
 31
0.0
  0
LINE
  5
4A
330
1F
100
AcDbEntity
  8
0
100
AcDbLine
 10
43.79437839598121
 20
121.0656562739147
 30
0.0
 11
43.67171137062177
 21
120.1339077115455
 31
0.0
  0
LINE
  5
4B
330
1F
100
AcDbEntity
  8
0
100
AcDbLine
 10
45.02474067919715
 20
-80.47503287222938
 30
0.0
 11
45.42928063783135
 21
-80.4664406345005
 31
0.0
  0
LINE
  5
4C
330
1F
100
AcDbEntity
  8
0
100
AcDbLine
 10
46.73371581462875
 20
1.247150933755859
 30
0.0
 11
46.63428988947457
 21
1.639376493973887
 31
0.0
  0
LINE
  5
4D
330
1F
100
AcDbEntity
  8
0
100
AcDbLine
 10
46.63428988947457
 20
1.639376493973887
 30
0.0
 11
46.43673637560494
 21
1.992503969312321
 31
0.0
  0
LINE
  5
4E
330
1F
100
AcDbEntity
  8
0
100
AcDbLine
 10
46.43673637560494
 20
1.992503969312321
 30
0.0
 11
46.15451821851767
 21
2.282468305897379
 31
0.0
  0
LINE
  5
4F
330
1F
100
AcDbEntity
  8
0
100
AcDbLine
 10
43.65504097733322
 20
0.8841616140724738
 30
0.0
 11
43.7544669024874
 21
0.4919360538548062
 31
0.0
  0
LINE
  5
50
330
1F
100
AcDbEntity
  8
0
100
AcDbLine
 10
43.7544669024874
 20
0.4919360538548062
 30
0.0
 11
43.95202041635685
 21
0.1388085785163724
 31
0.0
  0
LINE
  5
51
330
1F
100
AcDbEntity
  8
0
100
AcDbLine
 10
45.41747785749135
 20
2.599516316510849
 30
0.0
 11
45.0128837361392
 21
2.604993692562021
 31
0.0
  0
LINE
  5
52
330
1F
100
AcDbEntity
  8
0
100
AcDbLine
 10
43.77052575651516
 20
1.678145997163867
 30
0.0
 11
43.66051835338457
 21
1.288755735424624
 31
0.0
  0
LINE
  5
53
330
1F
100
AcDbEntity
  8
0
100
AcDbLine
 10
43.66051835338457
 20
1.288755735424624
 30
0.0
 11
43.65504097733322
 21
0.8841616140724738
 31
0.0
  0
LINE
  5
54
330
1F
100
AcDbEntity
  8
0
100
AcDbLine
 10
-253.4682323393793
 20
80.28214497544697
 30
0.0
 11
-253.3110151274053
 21
80.65498428793998
 31
0.0
  0
LINE
  5
55
330
1F
100
AcDbEntity
  8
0
100
AcDbLine
 10
-253.3110151274053
 20
80.65498428793998
 30
0.0
 11
-253.2556528768585
 21
81.05581021760938
 31
0.0
  0
LINE
  5
56
330
1F
100
AcDbEntity
  8
0
100
AcDbLine
 10
-253.2556528768585
 20
81.05581021760938
 30
0.0
 11
-253.3059184336232
 21
81.45730713974476
 31
0.0
  0
LINE
  5
57
330
1F
100
AcDbEntity
  8
0
100
AcDbLine
 10
-253.3059184336232
 20
81.45730713974476
 30
0.0
 11
-253.4583862830738
 21
81.8321137026074
 31
0.0
  0
LINE
  5
58
330
1F
100
AcDbEntity
  8
0
100
AcDbLine
 10
-253.4583862830738
 20
81.8321137026074
 30
0.0
 11
-253.7026659932351
 21
82.15468745833556
 31
0.0
  0
LINE
  5
59
330
1F
100
AcDbEntity
  8
0
100
AcDbLine
 10
-253.7026659932351
 20
82.15468745833556
 30
0.0
 11
-254.022110305551
 21
82.4030455385545
 31
0.0
  0
LINE
  5
5A
330
1F
100
AcDbEntity
  8
0
100
AcDbLine
 10
-254.022110305551
 20
82.4030455385545
 30
0.0
 11
-254.3949496180438
 21
82.56026275052835
 31
0.0
  0
LINE
  5
5B
330
1F
100
AcDbEntity
  8
0
100
AcDbLine
 10
-105.8573233816001
 20
-122.7957378368364
 30
0.0
 11
-106.1161804015423
 21
-123.1067353415011
 31
0.0
  0
LINE
  5
5C
330
1F
100
AcDbEntity
  8
0
100
AcDbLine
 10
-106.1161804015423
 20
-123.1067353415011
 30
0.0
 11
-106.2857250052338
 21
-123.4741329898876
 31
0.0
  0
LINE
  5
5D
330
1F
100
AcDbEntity
  8
0
100
AcDbLine
 10
-106.2857250052338
 20
-123.4741329898876
 30
0.0
 11
-106.3544030081193
 21
-123.8728932394122
 31
0.0
  0
LINE
  5
5E
330
1F
100
AcDbEntity
  8
0
100
AcDbLine
 10
-106.3544030081193
 20
-123.8728932394122
 30
0.0
 11
-106.3175341177977
 21
-124.2758412380515
 31
0.0
  0
LINE
  5
5F
330
1F
100
AcDbEntity
  8
0
100
AcDbLine
 10
-106.3175341177977
 20
-124.2758412380515
 30
0.0
 11
-106.1776308882154
 21
-124.6555167456018
 31
0.0
  0
LINE
  5
60
330
1F
100
AcDbEntity
  8
0
100
AcDbLine
 10
-106.1776308882154
 20
-124.6555167456018
 30
0.0
 11
-105.9442274932679
 21
-124.9860455036668
 31
0.0
  0
LINE
  5
61
330
1F
100
AcDbEntity
  8
0
100
AcDbLine
 10
-105.9442274932679
 20
-124.9860455036668
 30
0.0
 11
-105.6332299886031
 21
-125.2449025236087
 31
0.0
  0
LINE
  5
62
330
1F
100
AcDbEntity
  8
0
100
AcDbLine
 10
-105.6332299886031
 20
-125.2449025236087
 30
0.0
 11
-105.2658323402165
 21
-125.4144471273003
 31
0.0
  0
LINE
  5
63
330
1F
100
AcDbEntity
  8
0
100
AcDbLine
 10
-104.3454108678212
 20
-122.4542403248705
 30
0.0
 11
-104.7441711173456
 21
-122.3855623219848
 31
0.0
  0
LINE
  5
64
330
1F
100
AcDbEntity
  8
0
100
AcDbLine
 10
-104.7441711173456
 20
-122.3855623219848
 30
0.0
 11
-105.1471191159849
 21
-122.4224312123064
 31
0.0
  0
LINE
  5
65
330
1F
100
AcDbEntity
  8
0
100
AcDbLine
 10
-105.1471191159849
 20
-122.4224312123064
 30
0.0
 11
-105.5267946235351
 21
-122.5623344418887
 31
0.0
  0
LINE
  5
66
330
1F
100
AcDbEntity
  8
0
100
AcDbLine
 10
-105.5267946235351
 20
-122.5623344418887
 30
0.0
 11
-105.8573233816001
 21
-122.7957378368364
 31
0.0
  0
LINE
  5
67
330
1F
100
AcDbEntity
  8
0
100
AcDbLine
 10
-101.2360106683883
 20
1.282430060910818
 30
0.0
 11
-101.23683226566
 21
0.3426418360616083
 31
0.0
  0
LINE
  5
68
330
1F
100
AcDbEntity
  8
0
100
AcDbLine
 10
-101.4784521573186
 20
2.190408423556323
 30
0.0
 11
-101.2360106683883
 21
1.282430060910818
 31
0.0
  0
LINE
  5
69
330
1F
100
AcDbEntity
  8
0
100
AcDbLine
 10
40.97524351054926
 20
-114.4200515252503
 30
0.0
 11
41.85820192862204
 21
-114.7419008914789
 31
0.0
  0
LINE
  5
6A
330
1F
100
AcDbEntity
  8
0
100
AcDbLine
 10
38.39437839598118
 20
117.9479648202906
 30
0.0
 11
37.64879398370961
 21
118.5200718616431
 31
0.0
  0
LINE
  5
6B
330
1F
100
AcDbEntity
  8
0
100
AcDbLine
 10
-254.728553526466
 20
-80.48242657639459
 30
0.0
 11
-254.3305062324716
 21
-80.40973024619413
 31
0.0
  0
LINE
  5
6C
330
1F
100
AcDbEntity
  8
0
100
AcDbLine
 10
-254.3305062324716
 20
-80.40973024619413
 30
0.0
 11
-253.9648372658825
 21
-80.23648876283967
 31
0.0
  0
LINE
  5
6D
330
1F
100
AcDbEntity
  8
0
100
AcDbLine
 10
9.626000147473622
 20
-125.4230353206204
 30
0.0
 11
9.996594729885546
 21
-125.2605974550595
 31
0.0
  0
LINE
  5
6E
330
1F
100
AcDbEntity
  8
0
100
AcDbLine
 10
9.996594729885546
 20
-125.2605974550595
 30
0.0
 11
10.31251959486711
 21
-125.0077775896067
 31
0.0
  0
LINE
  5
6F
330
1F
100
AcDbEntity
  8
0
100
AcDbLine
 10
10.31251959486711
 20
-125.0077775896067
 30
0.0
 11
10.55224498496018
 21
-124.6818049802884
 31
0.0
  0
LINE
  5
70
330
1F
100
AcDbEntity
  8
0
100
AcDbLine
 10
-104.3326071661659
 20
4.384445612273126
 30
0.0
 11
-103.4250540935631
 21
4.140416919295341
 31
0.0
  0
LINE
  5
71
330
1F
100
AcDbEntity
  8
0
100
AcDbLine
 10
-253.4264084897115
 20
-79.64164223825837
 30
0.0
 11
-253.2903417114296
 21
-79.26057500465105
 31
0.0
  0
LINE
  5
72
330
1F
100
AcDbEntity
  8
0
100
AcDbLine
 10
-253.2903417114296
 20
-79.26057500465105
 30
0.0
 11
-253.2575387537093
 21
-78.85727564853227
 31
0.0
  0
LINE
  5
73
330
1F
100
AcDbEntity
  8
0
100
AcDbLine
 10
44.16049127806382
 20
79.91085004453876
 30
0.0
 11
44.49460597288256
 21
79.68260943599786
 31
0.0
  0
LINE
  5
74
330
1F
100
AcDbEntity
  8
0
100
AcDbLine
 10
-108.1327910507189
 20
-0.5590958757275161
 30
0.0
 11
-108.3752325396493
 21
0.3488824869179893
 31
0.0
  0
LINE
  5
75
330
1F
100
AcDbEntity
  8
0
100
AcDbLine
 10
44.23423857344411
 20
-0.1511557580690464
 30
0.0
 11
44.5818886727312
 21
-0.3581963655513931
 31
0.0
  0
LINE
  5
76
330
1F
100
AcDbEntity
  8
0
100
AcDbLine
 10
46.44383547748424
 20
-79.85159887133231
 30
0.0
 11
46.63866436065274
 21
-79.49696087144463
 31
0.0
  0
LINE
  5
77
330
1F
100
AcDbEntity
  8
0
100
AcDbLine
 10
46.63866436065274
 20
-79.49696087144463
 30
0.0
 11
46.7350675421244
 21
-79.10398144286943
 31
0.0
  0
LINE
  5
78
330
1F
100
AcDbEntity
  8
0
100
AcDbLine
 10
46.7350675421244
 20
-79.10398144286943
 30
0.0
 11
46.72647530439552
 21
-78.69944148423541
 31
0.0
  0
LINE
  5
79
330
1F
100
AcDbEntity
  8
0
100
AcDbLine
 10
37.15724353199654
 20
-119.8671685546635
 30
0.0
 11
36.76047951645238
 21
-119.0152408003577
 31
0.0
  0
LINE
  5
7A
330
1F
100
AcDbEntity
  8
0
100
AcDbLine
 10
46.66715401943085
 20
81.5488042460435
 30
0.0
 11
46.49192251021057
 21
81.91352375862469
 31
0.0
  0
LINE
  5
7B
330
1F
100
AcDbEntity
  8
0
100
AcDbLine
 10
44.71123042385214
 20
82.53843189736398
 30
0.0
 11
44.34651091127095
 21
82.36320038814351
 31
0.0
  0
LINE
  5
7C
330
1F
100
AcDbEntity
  8
0
100
AcDbLine
 10
-101.23683226566
 20
0.3426418360616083
 30
0.0
 11
-101.4808609586378
 21
-0.5649112365414112
 31
0.0
  0
LINE
  5
7D
330
1F
100
AcDbEntity
  8
0
100
AcDbLine
 10
39.26262983361219
 20
124.5429892485553
 30
0.0
 11
40.19437839598113
 21
124.6656562739146
 31
0.0
  0
LINE
  5
7E
330
1F
100
AcDbEntity
  8
0
100
AcDbLine
 10
-13.80562160401886
 20
-79.86324372608527
 30
0.0
 11
-13.80562160401886
 21
-99.86324372608541
 31
0.0
  0
LINE
  5
7F
330
1F
100
AcDbEntity
  8
0
100
AcDbLine
 10
44.03957216660563
 20
82.09954339183182
 30
0.0
 11
43.81133155806473
 21
81.76542869701271
 31
0.0
  0
LINE
  5
80
330
1F
100
AcDbEntity
  8
0
100
AcDbLine
 10
-246.219578204628
 20
-117.6176534393919
 30
0.0
 11
-246.2598041927587
 21
-118.55658072756
 31
0.0
  0
LINE
  5
81
330
1F
100
AcDbEntity
  8
0
100
AcDbLine
 10
54.1943783959812
 20
-132.9343437260853
 30
0.0
 11
54.1943783959812
 21
139.5656562739148
 31
0.0
  0
LINE
  5
82
330
1F
100
AcDbEntity
  8
0
100
AcDbLine
 10
43.67171137062177
 20
120.1339077115455
 30
0.0
 11
43.31206984960522
 21
119.2656562739147
 31
0.0
  0
LINE
  5
83
330
1F
100
AcDbEntity
  8
0
100
AcDbLine
 10
40.03907042535928
 20
-114.337695364866
 30
0.0
 11
40.97524351054926
 21
-114.4200515252503
 31
0.0
  0
LINE
  5
84
330
1F
100
AcDbEntity
  8
0
100
AcDbLine
 10
46.04224588069138
 20
79.76811215968489
 30
0.0
 11
46.3491846253567
 21
80.03176915599694
 31
0.0
  0
LINE
  5
85
330
1F
100
AcDbEntity
  8
0
100
AcDbLine
 10
-252.1174033601008
 20
-120.6939931806802
 30
0.0
 11
-252.7528811436183
 21
-120.0016272591885
 31
0.0
  0
LINE
  5
86
330
1F
100
AcDbEntity
  8
0
100
AcDbLine
 10
43.89683428175176
 20
80.21778878920406
 30
0.0
 11
44.16049127806382
 21
79.91085004453876
 31
0.0
  0
LINE
  5
87
330
1F
100
AcDbEntity
  8
0
100
AcDbLine
 10
36.68008619514615
 20
-117.1534786115172
 30
0.0
 11
37.0019355613747
 21
-116.2705201934444
 31
0.0
  0
LINE
  5
88
330
1F
100
AcDbEntity
  8
0
100
AcDbLine
 10
-253.3916650034096
 20
-118.2510340127783
 30
0.0
 11
-253.3514390152789
 21
-117.3121067246102
 31
0.0
  0
LINE
  5
89
330
1F
100
AcDbEntity
  8
0
100
AcDbLine
 10
7.70568680144644
 20
-124.3659654775779
 30
0.0
 11
7.868124667007346
 21
-124.73656005999
 31
0.0
  0
LINE
  5
8A
330
1F
100
AcDbEntity
  8
0
100
AcDbLine
 10
7.868124667007346
 20
-124.73656005999
 30
0.0
 11
8.120944532459959
 21
-125.0524849249712
 31
0.0
  0
LINE
  5
8B
330
1F
100
AcDbEntity
  8
0
100
AcDbLine
 10
8.120944532459959
 20
-125.0524849249712
 30
0.0
 11
8.446917141778156
 21
-125.2922103150646
 31
0.0
  0
LINE
  5
8C
330
1F
100
AcDbEntity
  8
0
100
AcDbLine
 10
-247.5143419811936
 20
123.8423517361548
 30
0.0
 11
-246.8737537730045
 21
123.1547113285897
 31
0.0
  0
LINE
  5
8D
330
1F
100
AcDbEntity
  8
0
100
AcDbLine
 10
-249.2096629745986
 20
124.6159848942001
 30
0.0
 11
-248.3110771091596
 21
124.3407649366745
 31
0.0
  0
LINE
  5
8E
330
1F
100
AcDbEntity
  8
0
100
AcDbLine
 10
-250.1488624357645
 20
124.6492558234489
 30
0.0
 11
-249.2096629745986
 21
124.6159848942001
 31
0.0
  0
LINE
  5
8F
330
1F
100
AcDbEntity
  8
0
100
AcDbLine
 10
43.67171137062177
 20
121.9974048362838
 30
0.0
 11
43.79437839598121
 21
121.0656562739147
 31
0.0
  0
LINE
  5
90
330
1F
100
AcDbEntity
  8
0
100
AcDbLine
 10
43.31206984960522
 20
119.2656562739147
 30
0.0
 11
42.73996280825283
 21
118.5200718616431
 31
0.0
  0
LINE
  5
91
330
1F
100
AcDbEntity
  8
0
100
AcDbLine
 10
54.1943783959812
 20
139.5656562739148
 30
0.0
 11
-263.8056216040189
 21
139.5656562739148
 31
0.0
  0
LINE
  5
92
330
1F
100
AcDbEntity
  8
0
100
AcDbLine
 10
-263.8056216040189
 20
-132.934343726085
 30
0.0
 11
54.1943783959812
 21
-132.9343437260853
 31
0.0
  0
LINE
  5
93
330
1F
100
AcDbEntity
  8
0
100
AcDbLine
 10
-263.8056216040189
 20
139.5656562739148
 30
0.0
 11
-263.8056216040189
 21
-132.934343726085
 31
0.0
  0
LINE
  5
94
330
1F
100
AcDbEntity
  8
0
100
AcDbLine
 10
44.19437839598112
 20
134.5656562739145
 30
0.0
 11
-253.8056216040188
 21
134.5656562739145
 31
0.0
  0
LINE
  5
95
330
1F
100
AcDbEntity
  8
0
100
AcDbLine
 10
44.19437839598112
 20
136.5656562739144
 30
0.0
 11
44.19437839598112
 21
134.5656562739145
 31
0.0
  0
LINE
  5
96
330
1F
100
AcDbEntity
  8
0
100
AcDbLine
 10
-253.8056216040188
 20
136.5656562739144
 30
0.0
 11
44.19437839598112
 21
136.5656562739144
 31
0.0
  0
LINE
  5
97
330
1F
100
AcDbEntity
  8
0
100
AcDbLine
 10
-253.8056216040188
 20
134.5656562739145
 30
0.0
 11
-253.8056216040188
 21
136.5656562739144
 31
0.0
  0
LINE
  5
98
330
1F
100
AcDbEntity
  8
0
100
AcDbLine
 10
-13.80562160401886
 20
-99.86324372608541
 30
0.0
 11
-23.80562160401875
 21
-99.86324372608541
 31
0.0
  0
LINE
  5
99
330
1F
100
AcDbEntity
  8
0
100
AcDbLine
 10
-23.80562160401875
 20
-79.86324372608527
 30
0.0
 11
-13.80562160401886
 21
-79.86324372608527
 31
0.0
  0
LINE
  5
9A
330
1F
100
AcDbEntity
  8
0
100
AcDbLine
 10
-23.80562160401875
 20
-99.86324372608541
 30
0.0
 11
-23.80562160401875
 21
-79.86324372608527
 31
0.0
  0
LINE
  5
9B
330
1F
100
AcDbEntity
  8
0
100
AcDbLine
 10
-195.8056216040188
 20
-99.86324372608541
 30
0.0
 11
-195.8056216040188
 21
-79.86324372608527
 31
0.0
  0
LINE
  5
9C
330
1F
100
AcDbEntity
  8
0
100
AcDbLine
 10
-185.8056216040189
 20
-99.86324372608541
 30
0.0
 11
-195.8056216040188
 21
-99.86324372608541
 31
0.0
  0
LINE
  5
9D
330
1F
100
AcDbEntity
  8
0
100
AcDbLine
 10
-185.8056216040189
 20
-79.86324372608527
 30
0.0
 11
-185.8056216040189
 21
-99.86324372608541
 31
0.0
  0
LINE
  5
9E
330
1F
100
AcDbEntity
  8
0
100
AcDbLine
 10
-195.8056216040188
 20
-79.86324372608527
 30
0.0
 11
-185.8056216040189
 21
-79.86324372608527
 31
0.0
  0
LINE
  5
9F
330
1F
100
AcDbEntity
  8
0
100
AcDbLine
 10
36.71704542134049
 20
121.9974048362838
 30
0.0
 11
37.07668694235722
 21
122.8656562739146
 31
0.0
  0
LINE
  5
A0
330
1F
100
AcDbEntity
  8
0
100
AcDbLine
 10
36.59437839598122
 20
121.0656562739147
 30
0.0
 11
36.71704542134049
 21
121.9974048362838
 31
0.0
  0
LINE
  5
A1
330
1F
100
AcDbEntity
  8
0
100
AcDbLine
 10
36.71704542134049
 20
120.1339077115455
 30
0.0
 11
36.59437839598122
 21
121.0656562739147
 31
0.0
  0
LINE
  5
A2
330
1F
100
AcDbEntity
  8
0
100
AcDbLine
 10
37.07668694235722
 20
119.2656562739147
 30
0.0
 11
36.71704542134049
 21
120.1339077115455
 31
0.0
  0
LINE
  5
A3
330
1F
100
AcDbEntity
  8
0
100
AcDbLine
 10
37.64879398370961
 20
118.5200718616431
 30
0.0
 11
37.07668694235722
 21
119.2656562739147
 31
0.0
  0
LINE
  5
A4
330
1F
100
AcDbEntity
  8
0
100
AcDbLine
 10
39.26262983361219
 20
117.588323299274
 30
0.0
 11
38.39437839598118
 21
117.9479648202906
 31
0.0
  0
LINE
  5
A5
330
1F
100
AcDbEntity
  8
0
100
AcDbLine
 10
40.19437839598113
 20
117.4656562739148
 30
0.0
 11
39.26262983361219
 21
117.588323299274
 31
0.0
  0
LINE
  5
A6
330
1F
100
AcDbEntity
  8
0
100
AcDbLine
 10
41.12612695835025
 20
117.588323299274
 30
0.0
 11
40.19437839598113
 21
117.4656562739148
 31
0.0
  0
LINE
  5
A7
330
1F
100
AcDbEntity
  8
0
100
AcDbLine
 10
41.99437839598126
 20
117.9479648202906
 30
0.0
 11
41.12612695835025
 21
117.588323299274
 31
0.0
  0
LINE
  5
A8
330
1F
100
AcDbEntity
  8
0
100
AcDbLine
 10
42.73996280825283
 20
118.5200718616431
 30
0.0
 11
41.99437839598126
 21
117.9479648202906
 31
0.0
  0
LINE
  5
A9
330
1F
100
AcDbEntity
  8
0
100
AcDbLine
 10
43.31206984960522
 20
122.8656562739146
 30
0.0
 11
43.67171137062177
 21
121.9974048362838
 31
0.0
  0
LINE
  5
AA
330
1F
100
AcDbEntity
  8
0
100
AcDbLine
 10
42.73996280825283
 20
123.6112406861862
 30
0.0
 11
43.31206984960522
 21
122.8656562739146
 31
0.0
  0
LINE
  5
AB
330
1F
100
AcDbEntity
  8
0
100
AcDbLine
 10
41.99437839598126
 20
124.1833477275388
 30
0.0
 11
42.73996280825283
 21
123.6112406861862
 31
0.0
  0
LINE
  5
AC
330
1F
100
AcDbEntity
  8
0
100
AcDbLine
 10
41.12612695835025
 20
124.5429892485553
 30
0.0
 11
41.99437839598126
 21
124.1833477275388
 31
0.0
  0
LINE
  5
AD
330
1F
100
AcDbEntity
  8
0
100
AcDbLine
 10
40.19437839598113
 20
124.6656562739146
 30
0.0
 11
41.12612695835025
 21
124.5429892485553
 31
0.0
  0
LINE
  5
AE
330
1F
100
AcDbEntity
  8
0
100
AcDbLine
 10
38.39437839598118
 20
124.1833477275388
 30
0.0
 11
39.26262983361219
 21
124.5429892485553
 31
0.0
  0
LINE
  5
AF
330
1F
100
AcDbEntity
  8
0
100
AcDbLine
 10
37.64879398370961
 20
123.6112406861862
 30
0.0
 11
38.39437839598118
 21
124.1833477275388
 31
0.0
  0
LINE
  5
B0
330
1F
100
AcDbEntity
  8
0
100
AcDbLine
 10
37.07668694235722
 20
122.8656562739146
 30
0.0
 11
37.64879398370961
 21
123.6112406861862
 31
0.0
  0
LINE
  5
B1
330
1F
100
AcDbEntity
  8
0
100
AcDbLine
 10
43.7086705968163
 20
-118.7152088406534
 30
0.0
 11
43.38682123058756
 21
-119.5981672587262
 31
0.0
  0
LINE
  5
B2
330
1F
100
AcDbEntity
  8
0
100
AcDbLine
 10
43.79102675720044
 20
-117.7790357554635
 30
0.0
 11
43.7086705968163
 21
-118.7152088406534
 31
0.0
  0
LINE
  5
B3
330
1F
100
AcDbEntity
  8
0
100
AcDbLine
 10
43.62827727551006
 20
-116.8534466518129
 30
0.0
 11
43.79102675720044
 21
-117.7790357554635
 31
0.0
  0
LINE
  5
B4
330
1F
100
AcDbEntity
  8
0
100
AcDbLine
 10
43.23151325996589
 20
-116.0015188975071
 30
0.0
 11
43.62827727551006
 21
-116.8534466518129
 31
0.0
  0
LINE
  5
B5
330
1F
100
AcDbEntity
  8
0
100
AcDbLine
 10
42.62777352254388
 20
-115.2813099611247
 30
0.0
 11
43.23151325996589
 21
-116.0015188975071
 31
0.0
  0
LINE
  5
B6
330
1F
100
AcDbEntity
  8
0
100
AcDbLine
 10
41.85820192862204
 20
-114.7419008914789
 30
0.0
 11
42.62777352254388
 21
-115.2813099611247
 31
0.0
  0
LINE
  5
B7
330
1F
100
AcDbEntity
  8
0
100
AcDbLine
 10
39.11348132170871
 20
-114.5004448465564
 30
0.0
 11
40.03907042535928
 21
-114.337695364866
 31
0.0
  0
LINE
  5
B8
330
1F
100
AcDbEntity
  8
0
100
AcDbLine
 10
38.26155356740291
 20
-114.8972088621005
 30
0.0
 11
39.11348132170871
 21
-114.5004448465564
 31
0.0
  0
LINE
  5
B9
330
1F
100
AcDbEntity
  8
0
100
AcDbLine
 10
37.54134463102051
 20
-115.5009485995225
 30
0.0
 11
38.26155356740291
 21
-114.8972088621005
 31
0.0
  0
LINE
  5
BA
330
1F
100
AcDbEntity
  8
0
100
AcDbLine
 10
37.0019355613747
 20
-116.2705201934444
 30
0.0
 11
37.54134463102051
 21
-115.5009485995225
 31
0.0
  0
LINE
  5
BB
330
1F
100
AcDbEntity
  8
0
100
AcDbLine
 10
36.59773003476182
 20
-118.0896516967071
 30
0.0
 11
36.68008619514615
 21
-117.1534786115172
 31
0.0
  0
LINE
  5
BC
330
1F
100
AcDbEntity
  8
0
100
AcDbLine
 10
36.76047951645238
 20
-119.0152408003577
 30
0.0
 11
36.59773003476182
 21
-118.0896516967071
 31
0.0
  0
LINE
  5
BD
330
1F
100
AcDbEntity
  8
0
100
AcDbLine
 10
37.76098326941856
 20
-120.5873774910459
 30
0.0
 11
37.15724353199654
 21
-119.8671685546635
 31
0.0
  0
LINE
  5
BE
330
1F
100
AcDbEntity
  8
0
100
AcDbLine
 10
38.53055486334022
 20
-121.1267865606917
 30
0.0
 11
37.76098326941856
 21
-120.5873774910459
 31
0.0
  0
LINE
  5
BF
330
1F
100
AcDbEntity
  8
0
100
AcDbLine
 10
39.413513281413
 20
-121.4486359269203
 30
0.0
 11
38.53055486334022
 21
-121.1267865606917
 31
0.0
  0
LINE
  5
C0
330
1F
100
AcDbEntity
  8
0
100
AcDbLine
 10
40.34968636660297
 20
-121.5309920873046
 30
0.0
 11
39.413513281413
 21
-121.4486359269203
 31
0.0
  0
LINE
  5
C1
330
1F
100
AcDbEntity
  8
0
100
AcDbLine
 10
41.27527547025372
 20
-121.3682426056142
 30
0.0
 11
40.34968636660297
 21
-121.5309920873046
 31
0.0
  0
LINE
  5
C2
330
1F
100
AcDbEntity
  8
0
100
AcDbLine
 10
42.12720322455953
 20
-120.9714785900701
 30
0.0
 11
41.27527547025372
 21
-121.3682426056142
 31
0.0
  0
LINE
  5
C3
330
1F
100
AcDbEntity
  8
0
100
AcDbLine
 10
42.84741216094175
 20
-120.367738852648
 30
0.0
 11
42.12720322455953
 21
-120.9714785900701
 31
0.0
  0
LINE
  5
C4
330
1F
100
AcDbEntity
  8
0
100
AcDbLine
 10
43.38682123058756
 20
-119.5981672587262
 30
0.0
 11
42.84741216094175
 21
-120.367738852648
 31
0.0
  0
LINE
  5
C5
330
1F
100
AcDbEntity
  8
0
100
AcDbLine
 10
-247.493839847937
 20
-115.17469427149
 30
0.0
 11
-246.8583620644195
 21
-115.8670601929817
 31
0.0
  0
LINE
  5
C6
330
1F
100
AcDbEntity
  8
0
100
AcDbLine
 10
-248.2868617377314
 20
-114.6703938997928
 30
0.0
 11
-247.493839847937
 21
-115.17469427149
 31
0.0
  0
LINE
  5
C7
330
1F
100
AcDbEntity
  8
0
100
AcDbLine
 10
-250.122311890712
 20
-114.3483003266943
 30
0.0
 11
-249.183384602544
 21
-114.3885263148251
 31
0.0
  0
LINE
  5
C8
330
1F
100
AcDbEntity
  8
0
100
AcDbLine
 10
-251.0396572591972
 20
-114.5524572700154
 30
0.0
 11
-250.122311890712
 21
-114.3483003266943
 31
0.0
  0
LINE
  5
C9
330
1F
100
AcDbEntity
  8
0
100
AcDbLine
 10
-251.8729051371222
 20
-114.9870841864857
 30
0.0
 11
-251.0396572591972
 21
-114.5524572700154
 31
0.0
  0
LINE
  5
CA
330
1F
100
AcDbEntity
  8
0
100
AcDbLine
 10
-252.5652710586139
 20
-115.6225619700031
 30
0.0
 11
-251.8729051371222
 21
-114.9870841864857
 31
0.0
  0
LINE
  5
CB
330
1F
100
AcDbEntity
  8
0
100
AcDbLine
 10
-253.0695714303113
 20
-116.4155838597977
 30
0.0
 11
-252.5652710586139
 21
-115.6225619700031
 31
0.0
  0
LINE
  5
CC
330
1F
100
AcDbEntity
  8
0
100
AcDbLine
 10
-253.3514390152789
 20
-117.3121067246102
 30
0.0
 11
-253.0695714303113
 21
-116.4155838597977
 31
0.0
  0
LINE
  5
CD
330
1F
100
AcDbEntity
  8
0
100
AcDbLine
 10
-253.1875080600886
 20
-119.1683793812635
 30
0.0
 11
-253.3916650034096
 21
-118.2510340127783
 31
0.0
  0
LINE
  5
CE
330
1F
100
AcDbEntity
  8
0
100
AcDbLine
 10
-252.7528811436183
 20
-120.0016272591885
 30
0.0
 11
-253.1875080600886
 21
-119.1683793812635
 31
0.0
  0
LINE
  5
CF
330
1F
100
AcDbEntity
  8
0
100
AcDbLine
 10
-251.3243814703062
 20
-121.1982935523778
 30
0.0
 11
-252.1174033601008
 21
-120.6939931806802
 31
0.0
  0
LINE
  5
D0
330
1F
100
AcDbEntity
  8
0
100
AcDbLine
 10
-250.4278586054937
 20
-121.4801611373454
 30
0.0
 11
-251.3243814703062
 21
-121.1982935523778
 31
0.0
  0
LINE
  5
D1
330
1F
100
AcDbEntity
  8
0
100
AcDbLine
 10
-249.4889313173258
 20
-121.5203871254759
 30
0.0
 11
-250.4278586054937
 21
-121.4801611373454
 31
0.0
  0
LINE
  5
D2
330
1F
100
AcDbEntity
  8
0
100
AcDbLine
 10
-248.5715859488406
 20
-121.3162301821552
 30
0.0
 11
-249.4889313173258
 21
-121.5203871254759
 31
0.0
  0
LINE
  5
D3
330
1F
100
AcDbEntity
  8
0
100
AcDbLine
 10
-247.7383380709154
 20
-120.8816032656846
 30
0.0
 11
-248.5715859488406
 21
-121.3162301821552
 31
0.0
  0
LINE
  5
D4
330
1F
100
AcDbEntity
  8
0
100
AcDbLine
 10
-247.0459721494238
 20
-120.2461254821671
 30
0.0
 11
-247.7383380709154
 21
-120.8816032656846
 31
0.0
  0
LINE
  5
D5
330
1F
100
AcDbEntity
  8
0
100
AcDbLine
 10
-246.5416717777263
 20
-119.4531035923725
 30
0.0
 11
-247.0459721494238
 21
-120.2461254821671
 31
0.0
  0
LINE
  5
D6
330
1F
100
AcDbEntity
  8
0
100
AcDbLine
 10
-246.2598041927587
 20
-118.55658072756
 30
0.0
 11
-246.5416717777263
 21
-119.4531035923725
 31
0.0
  0
LINE
  5
D7
330
1F
100
AcDbEntity
  8
0
100
AcDbLine
 10
-246.4237351479489
 20
-116.7003080709068
 30
0.0
 11
-246.219578204628
 21
-117.6176534393919
 31
0.0
  0
LINE
  5
D8
330
1F
100
AcDbEntity
  8
0
100
AcDbLine
 10
-246.8583620644195
 20
-115.8670601929817
 30
0.0
 11
-246.4237351479489
 21
-116.7003080709068
 31
0.0
  0
LINE
  5
D9
330
1F
100
AcDbEntity
  8
0
100
AcDbLine
 10
-253.3559502243046
 20
121.6616149033348
 30
0.0
 11
-253.0807302667788
 21
122.5602007687739
 31
0.0
  0
LINE
  5
DA
330
1F
100
AcDbEntity
  8
0
100
AcDbLine
 10
-253.3892211535532
 20
120.7224154421688
 30
0.0
 11
-253.3559502243046
 21
121.6616149033348
 31
0.0
  0
LINE
  5
DB
330
1F
100
AcDbEntity
  8
0
100
AcDbLine
 10
-253.1782756956793
 20
119.8066072764543
 30
0.0
 11
-253.3892211535532
 21
120.7224154421688
 31
0.0
  0
LINE
  5
DC
330
1F
100
AcDbEntity
  8
0
100
AcDbLine
 10
-252.7374894350331
 20
118.9766012192396
 30
0.0
 11
-253.1782756956793
 21
119.8066072764543
 31
0.0
  0
LINE
  5
DD
330
1F
100
AcDbEntity
  8
0
100
AcDbLine
 10
-252.0969012268442
 20
118.2889608116745
 30
0.0
 11
-252.7374894350331
 21
118.9766012192396
 31
0.0
  0
LINE
  5
DE
330
1F
100
AcDbEntity
  8
0
100
AcDbLine
 10
-251.3001660988782
 20
117.7905476111545
 30
0.0
 11
-252.0969012268442
 21
118.2889608116745
 31
0.0
  0
LINE
  5
DF
330
1F
100
AcDbEntity
  8
0
100
AcDbLine
 10
-250.4015802334391
 20
117.5153276536289
 30
0.0
 11
-251.3001660988782
 21
117.7905476111545
 31
0.0
  0
LINE
  5
E0
330
1F
100
AcDbEntity
  8
0
100
AcDbLine
 10
-248.5465726065584
 20
117.693002182254
 30
0.0
 11
-249.4623807722731
 21
117.4820567243804
 31
0.0
  0
LINE
  5
E1
330
1F
100
AcDbEntity
  8
0
100
AcDbLine
 10
-247.7165665493439
 20
118.1337884429003
 30
0.0
 11
-248.5465726065584
 21
117.693002182254
 31
0.0
  0
LINE
  5
E2
330
1F
100
AcDbEntity
  8
0
100
AcDbLine
 10
-247.0289261417786
 20
118.7743766510892
 30
0.0
 11
-247.7165665493439
 21
118.1337884429003
 31
0.0
  0
LINE
  5
E3
330
1F
100
AcDbEntity
  8
0
100
AcDbLine
 10
-246.2552929837332
 20
120.4696976444945
 30
0.0
 11
-246.5305129412588
 21
119.5711117790551
 31
0.0
  0
LINE
  5
E4
330
1F
100
AcDbEntity
  8
0
100
AcDbLine
 10
-246.2220220544845
 20
121.4088971056602
 30
0.0
 11
-246.2552929837332
 21
120.4696976444945
 31
0.0
  0
LINE
  5
E5
330
1F
100
AcDbEntity
  8
0
100
AcDbLine
 10
-246.4329675123583
 20
122.3247052713751
 30
0.0
 11
-246.2220220544845
 21
121.4088971056602
 31
0.0
  0
LINE
  5
E6
330
1F
100
AcDbEntity
  8
0
100
AcDbLine
 10
-246.8737537730045
 20
123.1547113285897
 30
0.0
 11
-246.4329675123583
 21
122.3247052713751
 31
0.0
  0
LINE
  5
E7
330
1F
100
AcDbEntity
  8
0
100
AcDbLine
 10
-248.3110771091596
 20
124.3407649366745
 30
0.0
 11
-247.5143419811936
 21
123.8423517361548
 31
0.0
  0
LINE
  5
E8
330
1F
100
AcDbEntity
  8
0
100
AcDbLine
 10
-251.0646706014792
 20
124.438310365575
 30
0.0
 11
-250.1488624357645
 21
124.6492558234489
 31
0.0
  0
LINE
  5
E9
330
1F
100
AcDbEntity
  8
0
100
AcDbLine
 10
-251.8946766586939
 20
123.997524104929
 30
0.0
 11
-251.0646706014792
 21
124.438310365575
 31
0.0
  0
LINE
  5
EA
330
1F
100
AcDbEntity
  8
0
100
AcDbLine
 10
-252.5823170662591
 20
123.3569358967397
 30
0.0
 11
-251.8946766586939
 21
123.997524104929
 31
0.0
  0
LINE
  5
EB
330
1F
100
AcDbEntity
  8
0
100
AcDbLine
 10
-253.0807302667788
 20
122.5602007687739
 30
0.0
 11
-252.5823170662591
 21
123.3569358967397
 31
0.0
  0
LINE
  5
EC
330
1F
100
AcDbEntity
  8
0
100
AcDbLine
 10
-101.9476347456342
 20
3.00469969908936
 30
0.0
 11
-101.4784521573186
 21
2.190408423556323
 31
0.0
  0
LINE
  5
ED
330
1F
100
AcDbEntity
  8
0
100
AcDbLine
 10
-102.6115844153021
 20
3.669811282761918
 30
0.0
 11
-101.9476347456342
 21
3.00469969908936
 31
0.0
  0
LINE
  5
EE
330
1F
100
AcDbEntity
  8
0
100
AcDbLine
 10
-103.4250540935631
 20
4.140416919295341
 30
0.0
 11
-102.6115844153021
 21
3.669811282761918
 31
0.0
  0
LINE
  5
EF
330
1F
100
AcDbEntity
  8
0
100
AcDbLine
 10
-105.2723953910152
 20
4.385267209544994
 30
0.0
 11
-104.3326071661659
 21
4.384445612273126
 31
0.0
  0
LINE
  5
F0
330
1F
100
AcDbEntity
  8
0
100
AcDbLine
 10
-106.1803737536607
 20
4.142825720614533
 30
0.0
 11
-105.2723953910152
 21
4.385267209544994
 31
0.0
  0
LINE
  5
F1
330
1F
100
AcDbEntity
  8
0
100
AcDbLine
 10
-106.9946650291935
 20
3.673643132299108
 30
0.0
 11
-106.1803737536607
 21
4.142825720614533
 31
0.0
  0
LINE
  5
F2
330
1F
100
AcDbEntity
  8
0
100
AcDbLine
 10
-107.6597766128661
 20
3.009693462631386
 30
0.0
 11
-106.9946650291935
 21
3.673643132299108
 31
0.0
  0
LINE
  5
F3
330
1F
100
AcDbEntity
  8
0
100
AcDbLine
 10
-108.3744109423775
 20
1.288670711767199
 30
0.0
 11
-108.1303822493997
 21
2.196223784370218
 31
0.0
  0
LINE
  5
F4
330
1F
100
AcDbEntity
  8
0
100
AcDbLine
 10
-108.3752325396493
 20
0.3488824869179893
 30
0.0
 11
-108.3744109423775
 21
1.288670711767199
 31
0.0
  0
LINE
  5
F5
330
1F
100
AcDbEntity
  8
0
100
AcDbLine
 10
-107.6636084624034
 20
-1.373387151260192
 30
0.0
 11
-108.1327910507189
 21
-0.5590958757275161
 31
0.0
  0
LINE
  5
F6
330
1F
100
AcDbEntity
  8
0
100
AcDbLine
 10
-106.9996587927355
 20
-2.03849873493275
 30
0.0
 11
-107.6636084624034
 21
-1.373387151260192
 31
0.0
  0
LINE
  5
F7
330
1F
100
AcDbEntity
  8
0
100
AcDbLine
 10
-106.1861891144746
 20
-2.509104371466535
 30
0.0
 11
-106.9996587927355
 21
-2.03849873493275
 31
0.0
  0
LINE
  5
F8
330
1F
100
AcDbEntity
  8
0
100
AcDbLine
 10
-105.2786360418717
 20
-2.753133064444318
 30
0.0
 11
-106.1861891144746
 21
-2.509104371466535
 31
0.0
  0
LINE
  5
F9
330
1F
100
AcDbEntity
  8
0
100
AcDbLine
 10
-104.3388478170223
 20
-2.753954661716187
 30
0.0
 11
-105.2786360418717
 21
-2.753133064444318
 31
0.0
  0
LINE
  5
FA
330
1F
100
AcDbEntity
  8
0
100
AcDbLine
 10
-103.4308694543768
 20
-2.511513172785726
 30
0.0
 11
-104.3388478170223
 21
-2.753954661716187
 31
0.0
  0
LINE
  5
FB
330
1F
100
AcDbEntity
  8
0
100
AcDbLine
 10
-102.616578178844
 20
-2.04233058446994
 30
0.0
 11
-103.4308694543768
 21
-2.511513172785726
 31
0.0
  0
LINE
  5
FC
330
1F
100
AcDbEntity
  8
0
100
AcDbLine
 10
-101.9514665951716
 20
-1.378380914802219
 30
0.0
 11
-102.616578178844
 21
-2.04233058446994
 31
0.0
  0
LINE
  5
FD
330
1F
100
AcDbEntity
  8
0
100
AcDbLine
 10
-101.4808609586378
 20
-0.5649112365414112
 30
0.0
 11
-101.9514665951716
 21
-1.378380914802219
 31
0.0
  0
LINE
  5
FE
330
1F
100
AcDbEntity
  8
0
100
AcDbLine
 10
46.57742523389778
 20
80.36588385081568
 30
0.0
 11
46.71141348602762
 21
80.74768687984005
 31
0.0
  0
LINE
  5
FF
330
1F
100
AcDbEntity
  8
0
100
AcDbLine
 10
46.7420183037899
 20
81.15115899760141
 30
0.0
 11
46.66715401943085
 21
81.5488042460435
 31
0.0
  0
LINE
  5
100
330
1F
100
AcDbEntity
  8
0
100
AcDbLine
 10
46.49192251021057
 20
81.91352375862469
 30
0.0
 11
46.22826551389851
 21
82.22046250329001
 31
0.0
  0
LINE
  5
101
330
1F
100
AcDbEntity
  8
0
100
AcDbLine
 10
46.22826551389851
 20
82.22046250329001
 30
0.0
 11
45.89415081907959
 21
82.44870311183091
 31
0.0
  0
LINE
  5
102
330
1F
100
AcDbEntity
  8
0
100
AcDbLine
 10
45.89415081907959
 20
82.44870311183091
 30
0.0
 11
45.51234779005523
 21
82.58269136396093
 31
0.0
  0
LINE
  5
103
330
1F
100
AcDbEntity
  8
0
100
AcDbLine
 10
45.51234779005523
 20
82.58269136396093
 30
0.0
 11
45.10887567229405
 21
82.61329618172303
 31
0.0
  0
LINE
  5
104
330
1F
100
AcDbEntity
  8
0
100
AcDbLine
 10
45.10887567229405
 20
82.61329618172303
 30
0.0
 11
44.71123042385214
 21
82.53843189736398
 31
0.0
  0
LINE
  5
105
330
1F
100
AcDbEntity
  8
0
100
AcDbLine
 10
44.34651091127095
 20
82.36320038814351
 30
0.0
 11
44.03957216660563
 21
82.09954339183182
 31
0.0
  0
LINE
  5
106
330
1F
100
AcDbEntity
  8
0
100
AcDbLine
 10
43.81133155806473
 20
81.76542869701271
 30
0.0
 11
43.67734330593471
 21
81.38362566798835
 31
0.0
  0
LINE
  5
107
330
1F
100
AcDbEntity
  8
0
100
AcDbLine
 10
43.67734330593471
 20
81.38362566798835
 30
0.0
 11
43.64673848817243
 21
80.98015355022736
 31
0.0
  0
LINE
  5
108
330
1F
100
AcDbEntity
  8
0
100
AcDbLine
 10
43.64673848817243
 20
80.98015355022736
 30
0.0
 11
43.72160277253148
 21
80.58250830178527
 31
0.0
  0
LINE
  5
109
330
1F
100
AcDbEntity
  8
0
100
AcDbLine
 10
43.72160277253148
 20
80.58250830178527
 30
0.0
 11
43.89683428175176
 21
80.21778878920406
 31
0.0
  0
LINE
  5
10A
330
1F
100
AcDbEntity
  8
0
100
AcDbLine
 10
44.49460597288256
 20
79.68260943599786
 30
0.0
 11
44.8764090019071
 21
79.54862118386782
 31
0.0
  0
LINE
  5
10B
330
1F
100
AcDbEntity
  8
0
100
AcDbLine
 10
44.8764090019071
 20
79.54862118386782
 30
0.0
 11
45.27988111966828
 21
79.51801636610574
 31
0.0
  0
LINE
  5
10C
330
1F
100
AcDbEntity
  8
0
100
AcDbLine
 10
45.27988111966828
 20
79.51801636610574
 30
0.0
 11
45.67752636811019
 21
79.59288065046478
 31
0.0
  0
LINE
  5
10D
330
1F
100
AcDbEntity
  8
0
100
AcDbLine
 10
45.67752636811019
 20
79.59288065046478
 30
0.0
 11
46.04224588069138
 21
79.76811215968489
 31
0.0
  0
LINE
  5
10E
330
1F
100
AcDbEntity
  8
0
100
AcDbLine
 10
43.95202041635685
 20
0.1388085785163724
 30
0.0
 11
44.23423857344411
 21
-0.1511557580690464
 31
0.0
  0
LINE
  5
10F
330
1F
100
AcDbEntity
  8
0
100
AcDbLine
 10
44.5818886727312
 20
-0.3581963655513931
 30
0.0
 11
44.97127893447062
 21
-0.4682037686821559
 31
0.0
  0
LINE
  5
110
330
1F
100
AcDbEntity
  8
0
100
AcDbLine
 10
44.97127893447062
 20
-0.4682037686821559
 30
0.0
 11
45.37587305582259
 21
-0.4736811447333281
 31
0.0
  0
LINE
  5
111
330
1F
100
AcDbEntity
  8
0
100
AcDbLine
 10
45.37587305582259
 20
-0.4736811447333281
 30
0.0
 11
45.76809861604062
 21
-0.3742552195791433
 31
0.0
  0
LINE
  5
112
330
1F
100
AcDbEntity
  8
0
100
AcDbLine
 10
45.76809861604062
 20
-0.3742552195791433
 30
0.0
 11
46.12122609137887
 21
-0.1767017057097007
 31
0.0
  0
LINE
  5
113
330
1F
100
AcDbEntity
  8
0
100
AcDbLine
 10
46.12122609137887
 20
-0.1767017057097007
 30
0.0
 11
46.41119042796411
 21
0.1055164513775651
 31
0.0
  0
LINE
  5
114
330
1F
100
AcDbEntity
  8
0
100
AcDbLine
 10
46.41119042796411
 20
0.1055164513775651
 30
0.0
 11
46.61823103544663
 21
0.4531665506644657
 31
0.0
  0
LINE
  5
115
330
1F
100
AcDbEntity
  8
0
100
AcDbLine
 10
46.61823103544663
 20
0.4531665506644657
 30
0.0
 11
46.7282384385774
 21
0.8425568124040694
 31
0.0
  0
LINE
  5
116
330
1F
100
AcDbEntity
  8
0
100
AcDbLine
 10
46.7282384385774
 20
0.8425568124040694
 30
0.0
 11
46.73371581462875
 21
1.247150933755859
 31
0.0
  0
LINE
  5
117
330
1F
100
AcDbEntity
  8
0
100
AcDbLine
 10
46.15451821851767
 20
2.282468305897379
 30
0.0
 11
45.80686811923059
 21
2.489508913380087
 31
0.0
  0
LINE
  5
118
330
1F
100
AcDbEntity
  8
0
100
AcDbLine
 10
45.80686811923059
 20
2.489508913380087
 30
0.0
 11
45.41747785749135
 21
2.599516316510849
 31
0.0
  0
LINE
  5
119
330
1F
100
AcDbEntity
  8
0
100
AcDbLine
 10
45.0128837361392
 20
2.604993692562021
 30
0.0
 11
44.62065817592136
 21
2.505567767407836
 31
0.0
  0
LINE
  5
11A
330
1F
100
AcDbEntity
  8
0
100
AcDbLine
 10
44.62065817592136
 20
2.505567767407836
 30
0.0
 11
44.26753070058292
 21
2.308014253538394
 31
0.0
  0
LINE
  5
11B
330
1F
100
AcDbEntity
  8
0
100
AcDbLine
 10
44.26753070058292
 20
2.308014253538394
 30
0.0
 11
43.97756636399768
 21
2.025796096451128
 31
0.0
  0
LINE
  5
11C
330
1F
100
AcDbEntity
  8
0
100
AcDbLine
 10
43.97756636399768
 20
2.025796096451128
 30
0.0
 11
43.77052575651516
 21
1.678145997163867
 31
0.0
  0
LINE
  5
11D
330
1F
100
AcDbEntity
  8
0
100
AcDbLine
 10
44.63176125062196
 20
-80.37862969075753
 30
0.0
 11
45.02474067919715
 21
-80.47503287222938
 31
0.0
  0
LINE
  5
11E
330
1F
100
AcDbEntity
  8
0
100
AcDbLine
 10
45.42928063783135
 20
-80.4664406345005
 30
0.0
 11
45.81781239687795
 21
-80.35343852437278
 31
0.0
  0
LINE
  5
11F
330
1F
100
AcDbEntity
  8
0
100
AcDbLine
 10
45.81781239687795
 20
-80.35343852437278
 30
0.0
 11
46.16385815903659
 21
-80.14372744890726
 31
0.0
  0
LINE
  5
120
330
1F
100
AcDbEntity
  8
0
100
AcDbLine
 10
46.16385815903659
 20
-80.14372744890726
 30
0.0
 11
46.44383547748424
 21
-79.85159887133231
 31
0.0
  0
LINE
  5
121
330
1F
100
AcDbEntity
  8
0
100
AcDbLine
 10
46.72647530439552
 20
-78.69944148423541
 30
0.0
 11
46.61347319426798
 21
-78.31090972518862
 31
0.0
  0
LINE
  5
122
330
1F
100
AcDbEntity
  8
0
100
AcDbLine
 10
46.61347319426798
 20
-78.31090972518862
 30
0.0
 11
46.40376211880228
 21
-77.96486396302981
 31
0.0
  0
LINE
  5
123
330
1F
100
AcDbEntity
  8
0
100
AcDbLine
 10
46.40376211880228
 20
-77.96486396302981
 30
0.0
 11
46.11163354122753
 21
-77.68488664458235
 31
0.0
  0
LINE
  5
124
330
1F
100
AcDbEntity
  8
0
100
AcDbLine
 10
46.11163354122753
 20
-77.68488664458235
 30
0.0
 11
45.75699554133983
 21
-77.49005776141384
 31
0.0
  0
LINE
  5
125
330
1F
100
AcDbEntity
  8
0
100
AcDbLine
 10
45.75699554133983
 20
-77.49005776141384
 30
0.0
 11
45.36401611276464
 21
-77.39365457994236
 31
0.0
  0
LINE
  5
126
330
1F
100
AcDbEntity
  8
0
100
AcDbLine
 10
45.36401611276464
 20
-77.39365457994236
 30
0.0
 11
44.95947615413044
 21
-77.40224681767124
 31
0.0
  0
LINE
  5
127
330
1F
100
AcDbEntity
  8
0
100
AcDbLine
 10
44.95947615413044
 20
-77.40224681767124
 30
0.0
 11
44.57094439508383
 21
-77.5152489277986
 31
0.0
  0
LINE
  5
128
330
1F
100
AcDbEntity
  8
0
100
AcDbLine
 10
44.57094439508383
 20
-77.5152489277986
 30
0.0
 11
44.2248986329252
 21
-77.72496000326412
 31
0.0
  0
LINE
  5
129
330
1F
100
AcDbEntity
  8
0
100
AcDbLine
 10
44.2248986329252
 20
-77.72496000326412
 30
0.0
 11
43.94492131447755
 21
-78.01708858083906
 31
0.0
  0
LINE
  5
12A
330
1F
100
AcDbEntity
  8
0
100
AcDbLine
 10
43.94492131447755
 20
-78.01708858083906
 30
0.0
 11
43.75009243130905
 21
-78.37172658072674
 31
0.0
  0
LINE
  5
12B
330
1F
100
AcDbEntity
  8
0
100
AcDbLine
 10
43.75009243130905
 20
-78.37172658072674
 30
0.0
 11
43.65368924983738
 21
-78.76470600930195
 31
0.0
  0
LINE
  5
12C
330
1F
100
AcDbEntity
  8
0
100
AcDbLine
 10
43.65368924983738
 20
-78.76470600930195
 30
0.0
 11
43.66228148756627
 21
-79.16924596793632
 31
0.0
  0
LINE
  5
12D
330
1F
100
AcDbEntity
  8
0
100
AcDbLine
 10
43.66228148756627
 20
-79.16924596793632
 30
0.0
 11
43.77528359769381
 21
-79.55777772698275
 31
0.0
  0
LINE
  5
12E
330
1F
100
AcDbEntity
  8
0
100
AcDbLine
 10
43.77528359769381
 20
-79.55777772698275
 30
0.0
 11
43.98499467315951
 21
-79.90382348914156
 31
0.0
  0
LINE
  5
12F
330
1F
100
AcDbEntity
  8
0
100
AcDbLine
 10
43.98499467315951
 20
-79.90382348914156
 30
0.0
 11
44.27712325073426
 21
-80.18380080758902
 31
0.0
  0
LINE
  5
130
330
1F
100
AcDbEntity
  8
0
100
AcDbLine
 10
44.27712325073426
 20
-80.18380080758902
 30
0.0
 11
44.63176125062196
 21
-80.37862969075753
 31
0.0
  0
LINE
  5
131
330
1F
100
AcDbEntity
  8
0
100
AcDbLine
 10
7.64470080787375
 20
-123.9659565860906
 30
0.0
 11
7.70568680144644
 21
-124.3659654775779
 31
0.0
  0
LINE
  5
132
330
1F
100
AcDbEntity
  8
0
100
AcDbLine
 10
8.446917141778156
 20
-125.2922103150646
 30
0.0
 11
8.823828000332227
 21
-125.4393993410994
 31
0.0
  0
LINE
  5
133
330
1F
100
AcDbEntity
  8
0
100
AcDbLine
 10
8.823828000332227
 20
-125.4393993410994
 30
0.0
 11
9.225991255986202
 21
-125.4840213141928
 31
0.0
  0
LINE
  5
134
330
1F
100
AcDbEntity
  8
0
100
AcDbLine
 10
9.225991255986202
 20
-125.4840213141928
 30
0.0
 11
9.626000147473622
 21
-125.4230353206204
 31
0.0
  0
LINE
  5
135
330
1F
100
AcDbEntity
  8
0
100
AcDbLine
 10
10.55224498496018
 20
-124.6818049802884
 30
0.0
 11
10.69943401099498
 21
-124.3048941217345
 31
0.0
  0
LINE
  5
136
330
1F
100
AcDbEntity
  8
0
100
AcDbLine
 10
10.69943401099498
 20
-124.3048941217345
 30
0.0
 11
10.74405598408853
 21
-123.9027308660805
 31
0.0
  0
LINE
  5
137
330
1F
100
AcDbEntity
  8
0
100
AcDbLine
 10
10.74405598408853
 20
-123.9027308660805
 30
0.0
 11
10.68306999051602
 21
-123.5027219745929
 31
0.0
  0
LINE
  5
138
330
1F
100
AcDbEntity
  8
0
100
AcDbLine
 10
10.68306999051602
 20
-123.5027219745929
 30
0.0
 11
10.52063212495512
 21
-123.1321273921812
 31
0.0
  0
LINE
  5
139
330
1F
100
AcDbEntity
  8
0
100
AcDbLine
 10
10.52063212495512
 20
-123.1321273921812
 30
0.0
 11
10.2678122595025
 21
-122.8162025271996
 31
0.0
  0
LINE
  5
13A
330
1F
100
AcDbEntity
  8
0
100
AcDbLine
 10
10.2678122595025
 20
-122.8162025271996
 30
0.0
 11
9.941839650184306
 21
-122.5764771371065
 31
0.0
  0
LINE
  5
13B
330
1F
100
AcDbEntity
  8
0
100
AcDbLine
 10
9.941839650184306
 20
-122.5764771371065
 30
0.0
 11
9.564928791630054
 21
-122.4292881110717
 31
0.0
  0
LINE
  5
13C
330
1F
100
AcDbEntity
  8
0
100
AcDbLine
 10
9.564928791630054
 20
-122.4292881110717
 30
0.0
 11
9.16276553597608
 21
-122.384666137978
 31
0.0
  0
LINE
  5
13D
330
1F
100
AcDbEntity
  8
0
100
AcDbLine
 10
9.16276553597608
 20
-122.384666137978
 30
0.0
 11
8.76275664448866
 21
-122.4456521315507
 31
0.0
  0
LINE
  5
13E
330
1F
100
AcDbEntity
  8
0
100
AcDbLine
 10
8.76275664448866
 20
-122.4456521315507
 30
0.0
 11
8.392162062076736
 21
-122.6080899971116
 31
0.0
  0
LINE
  5
13F
330
1F
100
AcDbEntity
  8
0
100
AcDbLine
 10
8.392162062076736
 20
-122.6080899971116
 30
0.0
 11
8.076237197095354
 21
-122.8609098625644
 31
0.0
  0
LINE
  5
140
330
1F
100
AcDbEntity
  8
0
100
AcDbLine
 10
8.076237197095354
 20
-122.8609098625644
 30
0.0
 11
7.836511807002285
 21
-123.1868824718824
 31
0.0
  0
LINE
  5
141
330
1F
100
AcDbEntity
  8
0
100
AcDbLine
 10
7.836511807002285
 20
-123.1868824718824
 30
0.0
 11
7.689322780967476
 21
-123.5637933304367
 31
0.0
  0
LINE
  5
142
330
1F
100
AcDbEntity
  8
0
100
AcDbLine
 10
7.689322780967476
 20
-123.5637933304367
 30
0.0
 11
7.64470080787375
 21
-123.9659565860906
 31
0.0
  0
LINE
  5
143
330
1F
100
AcDbEntity
  8
0
100
AcDbLine
 10
-219.4972774850472
 20
-125.3214674200073
 30
0.0
 11
-219.1146958525088
 21
-125.4532160409691
 31
0.0
  0
LINE
  5
144
330
1F
100
AcDbEntity
  8
0
100
AcDbLine
 10
-219.1146958525088
 20
-125.4532160409691
 30
0.0
 11
-218.7110513207053
 21
-125.4814560237269
 31
0.0
  0
LINE
  5
145
330
1F
100
AcDbEntity
  8
0
100
AcDbLine
 10
-218.7110513207053
 20
-125.4814560237269
 30
0.0
 11
-218.3138515974249
 21
-125.4042628601245
 31
0.0
  0
LINE
  5
146
330
1F
100
AcDbEntity
  8
0
100
AcDbLine
 10
-218.3138515974249
 20
-125.4042628601245
 30
0.0
 11
-217.9501651874054
 21
-125.2268971366935
 31
0.0
  0
LINE
  5
147
330
1F
100
AcDbEntity
  8
0
100
AcDbLine
 10
-217.9501651874054
 20
-125.2268971366935
 30
0.0
 11
-217.6447767184698
 21
-124.961446034375
 31
0.0
  0
LINE
  5
148
330
1F
100
AcDbEntity
  8
0
100
AcDbLine
 10
-217.6447767184698
 20
-124.961446034375
 30
0.0
 11
-217.4184979100972
 21
-124.6259996071132
 31
0.0
  0
LINE
  5
149
330
1F
100
AcDbEntity
  8
0
100
AcDbLine
 10
-217.4184979100972
 20
-124.6259996071132
 30
0.0
 11
-217.2867492891353
 21
-124.243417974575
 31
0.0
  0
LINE
  5
14A
330
1F
100
AcDbEntity
  8
0
100
AcDbLine
 10
-217.2867492891353
 20
-124.243417974575
 30
0.0
 11
-217.2585093063774
 21
-123.8397734427717
 31
0.0
  0
LINE
  5
14B
330
1F
100
AcDbEntity
  8
0
100
AcDbLine
 10
-217.2585093063774
 20
-123.8397734427717
 30
0.0
 11
-217.33570246998
 21
-123.4425737194911
 31
0.0
  0
LINE
  5
14C
330
1F
100
AcDbEntity
  8
0
100
AcDbLine
 10
-217.33570246998
 20
-123.4425737194911
 30
0.0
 11
-217.5130681934111
 21
-123.0788873094718
 31
0.0
  0
LINE
  5
14D
330
1F
100
AcDbEntity
  8
0
100
AcDbLine
 10
-217.5130681934111
 20
-123.0788873094718
 30
0.0
 11
-217.7785192957295
 21
-122.773498840536
 31
0.0
  0
LINE
  5
14E
330
1F
100
AcDbEntity
  8
0
100
AcDbLine
 10
-217.7785192957295
 20
-122.773498840536
 30
0.0
 11
-218.113965722991
 21
-122.5472200321634
 31
0.0
  0
LINE
  5
14F
330
1F
100
AcDbEntity
  8
0
100
AcDbLine
 10
-218.113965722991
 20
-122.5472200321634
 30
0.0
 11
-218.4965473555294
 21
-122.4154714112016
 31
0.0
  0
LINE
  5
150
330
1F
100
AcDbEntity
  8
0
100
AcDbLine
 10
-218.4965473555294
 20
-122.4154714112016
 30
0.0
 11
-218.9001918873328
 21
-122.3872314284438
 31
0.0
  0
LINE
  5
151
330
1F
100
AcDbEntity
  8
0
100
AcDbLine
 10
-218.9001918873328
 20
-122.3872314284438
 30
0.0
 11
-219.2973916106133
 21
-122.4644245920462
 31
0.0
  0
LINE
  5
152
330
1F
100
AcDbEntity
  8
0
100
AcDbLine
 10
-219.2973916106133
 20
-122.4644245920462
 30
0.0
 11
-219.6610780206327
 21
-122.6417903154773
 31
0.0
  0
LINE
  5
153
330
1F
100
AcDbEntity
  8
0
100
AcDbLine
 10
-219.6610780206327
 20
-122.6417903154773
 30
0.0
 11
-219.9664664895685
 21
-122.9072414177957
 31
0.0
  0
LINE
  5
154
330
1F
100
AcDbEntity
  8
0
100
AcDbLine
 10
-219.9664664895685
 20
-122.9072414177957
 30
0.0
 11
-220.1927452979409
 21
-123.2426878450572
 31
0.0
  0
LINE
  5
155
330
1F
100
AcDbEntity
  8
0
100
AcDbLine
 10
-220.1927452979409
 20
-123.2426878450572
 30
0.0
 11
-220.3244939189029
 21
-123.6252694775954
 31
0.0
  0
LINE
  5
156
330
1F
100
AcDbEntity
  8
0
100
AcDbLine
 10
-220.3244939189029
 20
-123.6252694775954
 30
0.0
 11
-220.3527339016607
 21
-124.028914009399
 31
0.0
  0
LINE
  5
157
330
1F
100
AcDbEntity
  8
0
100
AcDbLine
 10
-220.3527339016607
 20
-124.028914009399
 30
0.0
 11
-220.2755407380583
 21
-124.4261137326797
 31
0.0
  0
LINE
  5
158
330
1F
100
AcDbEntity
  8
0
100
AcDbLine
 10
-220.2755407380583
 20
-124.4261137326797
 30
0.0
 11
-220.0981750146273
 21
-124.7898001426989
 31
0.0
  0
LINE
  5
159
330
1F
100
AcDbEntity
  8
0
100
AcDbLine
 10
-220.0981750146273
 20
-124.7898001426989
 30
0.0
 11
-219.8327239123086
 21
-125.0951886116347
 31
0.0
  0
LINE
  5
15A
330
1F
100
AcDbEntity
  8
0
100
AcDbLine
 10
-219.8327239123086
 20
-125.0951886116347
 30
0.0
 11
-219.4972774850472
 21
-125.3214674200073
 31
0.0
  0
LINE
  5
15B
330
1F
100
AcDbEntity
  8
0
100
AcDbLine
 10
-256.2810081241279
 20
-79.40945909763249
 30
0.0
 11
-256.1077666407734
 21
-79.77512806422118
 31
0.0
  0
LINE
  5
15C
330
1F
100
AcDbEntity
  8
0
100
AcDbLine
 10
-256.1077666407734
 20
-79.77512806422118
 30
0.0
 11
-255.8457861250607
 21
-80.08349896762806
 31
0.0
  0
LINE
  5
15D
330
1F
100
AcDbEntity
  8
0
100
AcDbLine
 10
-255.8457861250607
 20
-80.08349896762806
 30
0.0
 11
-255.5129201161921
 21
-80.31355684039237
 31
0.0
  0
LINE
  5
15E
330
1F
100
AcDbEntity
  8
0
100
AcDbLine
 10
-255.5129201161921
 20
-80.31355684039237
 30
0.0
 11
-255.1318528825848
 21
-80.44962361867411
 31
0.0
  0
LINE
  5
15F
330
1F
100
AcDbEntity
  8
0
100
AcDbLine
 10
-255.1318528825848
 20
-80.44962361867411
 30
0.0
 11
-254.728553526466
 21
-80.48242657639459
 31
0.0
  0
LINE
  5
160
330
1F
100
AcDbEntity
  8
0
100
AcDbLine
 10
-253.9648372658825
 20
-80.23648876283967
 30
0.0
 11
-253.6564663624758
 21
-79.97450824712695
 31
0.0
  0
LINE
  5
161
330
1F
100
AcDbEntity
  8
0
100
AcDbLine
 10
-253.6564663624758
 20
-79.97450824712695
 30
0.0
 11
-253.4264084897115
 21
-79.64164223825837
 31
0.0
  0
LINE
  5
162
330
1F
100
AcDbEntity
  8
0
100
AcDbLine
 10
-253.2575387537093
 20
-78.85727564853227
 30
0.0
 11
-253.3302350839097
 21
-78.4592283545378
 31
0.0
  0
LINE
  5
163
330
1F
100
AcDbEntity
  8
0
100
AcDbLine
 10
-253.3302350839097
 20
-78.4592283545378
 30
0.0
 11
-253.5034765672642
 21
-78.09355938794874
 31
0.0
  0
LINE
  5
164
330
1F
100
AcDbEntity
  8
0
100
AcDbLine
 10
-254.4793903254528
 20
-77.41906383349583
 30
0.0
 11
-254.8826896815716
 21
-77.3862608757757
 31
0.0
  0
LINE
  5
165
330
1F
100
AcDbEntity
  8
0
100
AcDbLine
 10
-254.8826896815716
 20
-77.3862608757757
 30
0.0
 11
-255.2807369755663
 21
-77.45895720597615
 31
0.0
  0
LINE
  5
166
330
1F
100
AcDbEntity
  8
0
100
AcDbLine
 10
-255.2807369755663
 20
-77.45895720597615
 30
0.0
 11
-255.6464059421551
 21
-77.63219868933027
 31
0.0
  0
LINE
  5
167
330
1F
100
AcDbEntity
  8
0
100
AcDbLine
 10
-255.6464059421551
 20
-77.63219868933027
 30
0.0
 11
-255.9547768455618
 21
-77.89417920504299
 31
0.0
  0
LINE
  5
168
330
1F
100
AcDbEntity
  8
0
100
AcDbLine
 10
-255.9547768455618
 20
-77.89417920504299
 30
0.0
 11
-256.1848347183263
 21
-78.22704521391192
 31
0.0
  0
LINE
  5
169
330
1F
100
AcDbEntity
  8
0
100
AcDbLine
 10
-256.1848347183263
 20
-78.22704521391192
 30
0.0
 11
-256.3209014966081
 21
-78.60811244751888
 31
0.0
  0
LINE
  5
16A
330
1F
100
AcDbEntity
  8
0
100
AcDbLine
 10
-256.3209014966081
 20
-78.60811244751888
 30
0.0
 11
-256.3537044543284
 21
-79.01141180363766
 31
0.0
  0
LINE
  5
16B
330
1F
100
AcDbEntity
  8
0
100
AcDbLine
 10
-256.3537044543284
 20
-79.01141180363766
 30
0.0
 11
-256.2810081241279
 21
-79.40945909763249
 31
0.0
  0
LINE
  5
16C
330
1F
100
AcDbEntity
  8
0
100
AcDbLine
 10
-253.3439578129524
 20
1.581445922788569
 30
0.0
 11
-253.5272589832714
 21
1.942177243359549
 31
0.0
  0
LINE
  5
16D
330
1F
100
AcDbEntity
  8
0
100
AcDbLine
 10
-253.5272589832714
 20
1.942177243359549
 30
0.0
 11
-253.7976784536002
 21
2.243175108381854
 31
0.0
  0
LINE
  5
16E
330
1F
100
AcDbEntity
  8
0
100
AcDbLine
 10
-253.7976784536002
 20
2.243175108381854
 30
0.0
 11
-254.1367875839254
 21
2.463927010777308
 31
0.0
  0
LINE
  5
16F
330
1F
100
AcDbEntity
  8
0
100
AcDbLine
 10
-254.1367875839254
 20
2.463927010777308
 30
0.0
 11
-254.5214766474194
 21
2.589389073207244
 31
0.0
  0
LINE
  5
170
330
1F
100
AcDbEntity
  8
0
100
AcDbLine
 10
-254.5214766474194
 20
2.589389073207244
 30
0.0
 11
-254.9255297201338
 21
2.611011263452926
 31
0.0
  0
LINE
  5
171
330
1F
100
AcDbEntity
  8
0
100
AcDbLine
 10
-254.9255297201338
 20
2.611011263452926
 30
0.0
 11
-255.3214112528926
 21
2.527320064981575
 31
0.0
  0
LINE
  5
172
330
1F
100
AcDbEntity
  8
0
100
AcDbLine
 10
-255.3214112528926
 20
2.527320064981575
 30
0.0
 11
-255.6821425734634
 21
2.344018894662389
 31
0.0
  0
LINE
  5
173
330
1F
100
AcDbEntity
  8
0
100
AcDbLine
 10
-255.6821425734634
 20
2.344018894662389
 30
0.0
 11
-255.9831404384857
 21
2.073599424333562
 31
0.0
  0
LINE
  5
174
330
1F
100
AcDbEntity
  8
0
100
AcDbLine
 10
-255.9831404384857
 20
2.073599424333562
 30
0.0
 11
-256.2038923408812
 21
1.734490294008626
 31
0.0
  0
LINE
  5
175
330
1F
100
AcDbEntity
  8
0
100
AcDbLine
 10
-256.2038923408812
 20
1.734490294008626
 30
0.0
 11
-256.3293544033111
 21
1.349801230514609
 31
0.0
  0
LINE
  5
176
330
1F
100
AcDbEntity
  8
0
100
AcDbLine
 10
-256.3293544033111
 20
1.349801230514609
 30
0.0
 11
-256.3509765935568
 21
0.9457481577999687
 31
0.0
  0
LINE
  5
177
330
1F
100
AcDbEntity
  8
0
100
AcDbLine
 10
-256.3509765935568
 20
0.9457481577999687
 30
0.0
 11
-256.2672853950853
 21
0.5498666250412071
 31
0.0
  0
LINE
  5
178
330
1F
100
AcDbEntity
  8
0
100
AcDbLine
 10
-256.2672853950853
 20
0.5498666250412071
 30
0.0
 11
-256.0839842247663
 21
0.189135304470588
 31
0.0
  0
LINE
  5
179
330
1F
100
AcDbEntity
  8
0
100
AcDbLine
 10
-256.0839842247663
 20
0.189135304470588
 30
0.0
 11
-255.8135647544374
 21
-0.1118625605520776
 31
0.0
  0
LINE
  5
17A
330
1F
100
AcDbEntity
  8
0
100
AcDbLine
 10
-255.8135647544374
 20
-0.1118625605520776
 30
0.0
 11
-255.4744556241123
 21
-0.3326144629475323
 31
0.0
  0
LINE
  5
17B
330
1F
100
AcDbEntity
  8
0
100
AcDbLine
 10
-255.4744556241123
 20
-0.3326144629475323
 30
0.0
 11
-255.0897665606184
 21
-0.4580765253771062
 31
0.0
  0
LINE
  5
17C
330
1F
100
AcDbEntity
  8
0
100
AcDbLine
 10
-255.0897665606184
 20
-0.4580765253771062
 30
0.0
 11
-254.6857134879038
 21
-0.4796987156227885
 31
0.0
  0
LINE
  5
17D
330
1F
100
AcDbEntity
  8
0
100
AcDbLine
 10
-254.6857134879038
 20
-0.4796987156227885
 30
0.0
 11
-254.289831955145
 21
-0.3960075171514376
 31
0.0
  0
LINE
  5
17E
330
1F
100
AcDbEntity
  8
0
100
AcDbLine
 10
-254.289831955145
 20
-0.3960075171514376
 30
0.0
 11
-253.9291006345744
 21
-0.2127063468322518
 31
0.0
  0
LINE
  5
17F
330
1F
100
AcDbEntity
  8
0
100
AcDbLine
 10
-253.9291006345744
 20
-0.2127063468322518
 30
0.0
 11
-253.628102769552
 21
0.0577131234965748
 31
0.0
  0
LINE
  5
180
330
1F
100
AcDbEntity
  8
0
100
AcDbLine
 10
-253.628102769552
 20
0.0577131234965748
 30
0.0
 11
-253.4073508671565
 21
0.3968222538215116
 31
0.0
  0
LINE
  5
181
330
1F
100
AcDbEntity
  8
0
100
AcDbLine
 10
-253.4073508671565
 20
0.3968222538215116
 30
0.0
 11
-253.2818888047265
 21
0.7815113173155281
 31
0.0
  0
LINE
  5
182
330
1F
100
AcDbEntity
  8
0
100
AcDbLine
 10
-253.2818888047265
 20
0.7815113173155281
 30
0.0
 11
-253.2602666144809
 21
1.185564390029808
 31
0.0
  0
LINE
  5
183
330
1F
100
AcDbEntity
  8
0
100
AcDbLine
 10
-253.2602666144809
 20
1.185564390029808
 30
0.0
 11
-253.3439578129524
 21
1.581445922788569
 31
0.0
  0
LINE
  5
184
330
1F
100
AcDbEntity
  8
0
100
AcDbLine
 10
-254.3949496180438
 20
82.56026275052835
 30
0.0
 11
-254.7957755477134
 21
82.61562500107517
 31
0.0
  0
LINE
  5
185
330
1F
100
AcDbEntity
  8
0
100
AcDbLine
 10
-254.7957755477134
 20
82.61562500107517
 30
0.0
 11
-255.1972724698488
 21
82.56535944431067
 31
0.0
  0
LINE
  5
186
330
1F
100
AcDbEntity
  8
0
100
AcDbLine
 10
-255.1972724698488
 20
82.56535944431067
 30
0.0
 11
-255.5720790327114
 21
82.41289159485986
 31
0.0
  0
LINE
  5
187
330
1F
100
AcDbEntity
  8
0
100
AcDbLine
 10
-255.5720790327114
 20
82.41289159485986
 30
0.0
 11
-255.8946527884395
 21
82.16861188469869
 31
0.0
  0
LINE
  5
188
330
1F
100
AcDbEntity
  8
0
100
AcDbLine
 10
-255.8946527884395
 20
82.16861188469869
 30
0.0
 11
-256.1430108686585
 21
81.84916757238288
 31
0.0
  0
LINE
  5
189
330
1F
100
AcDbEntity
  8
0
100
AcDbLine
 10
-256.1430108686585
 20
81.84916757238288
 30
0.0
 11
-256.3002280806325
 21
81.47632825988985
 31
0.0
  0
LINE
  5
18A
330
1F
100
AcDbEntity
  8
0
100
AcDbLine
 10
-256.3002280806325
 20
81.47632825988985
 30
0.0
 11
-256.3555903311794
 21
81.07550233022046
 31
0.0
  0
LINE
  5
18B
330
1F
100
AcDbEntity
  8
0
100
AcDbLine
 10
-256.3555903311794
 20
81.07550233022046
 30
0.0
 11
-256.3053247744145
 21
80.67400540808508
 31
0.0
  0
LINE
  5
18C
330
1F
100
AcDbEntity
  8
0
100
AcDbLine
 10
-256.3053247744145
 20
80.67400540808508
 30
0.0
 11
-256.1528569249641
 21
80.29919884522245
 31
0.0
  0
LINE
  5
18D
330
1F
100
AcDbEntity
  8
0
100
AcDbLine
 10
-256.1528569249641
 20
80.29919884522245
 30
0.0
 11
-255.9085772148027
 21
79.97662508949429
 31
0.0
  0
LINE
  5
18E
330
1F
100
AcDbEntity
  8
0
100
AcDbLine
 10
-255.9085772148027
 20
79.97662508949429
 30
0.0
 11
-255.5891329024867
 21
79.72826700927534
 31
0.0
  0
LINE
  5
18F
330
1F
100
AcDbEntity
  8
0
100
AcDbLine
 10
-255.5891329024867
 20
79.72826700927534
 30
0.0
 11
-255.2162935899939
 21
79.57104979730113
 31
0.0
  0
LINE
  5
190
330
1F
100
AcDbEntity
  8
0
100
AcDbLine
 10
-255.2162935899939
 20
79.57104979730113
 30
0.0
 11
-254.8154676603245
 21
79.51568754675431
 31
0.0
  0
LINE
  5
191
330
1F
100
AcDbEntity
  8
0
100
AcDbLine
 10
-254.8154676603245
 20
79.51568754675431
 30
0.0
 11
-254.4139707381891
 21
79.56595310351918
 31
0.0
  0
LINE
  5
192
330
1F
100
AcDbEntity
  8
0
100
AcDbLine
 10
-254.4139707381891
 20
79.56595310351918
 30
0.0
 11
-254.0391641753262
 21
79.71842095296962
 31
0.0
  0
LINE
  5
193
330
1F
100
AcDbEntity
  8
0
100
AcDbLine
 10
-254.0391641753262
 20
79.71842095296962
 30
0.0
 11
-253.7165904195983
 21
79.96270066313114
 31
0.0
  0
LINE
  5
194
330
1F
100
AcDbEntity
  8
0
100
AcDbLine
 10
-253.7165904195983
 20
79.96270066313114
 30
0.0
 11
-253.4682323393793
 21
80.28214497544697
 31
0.0
  0
LINE
  5
195
330
1F
100
AcDbEntity
  8
0
100
AcDbLine
 10
-105.2658323402165
 20
-125.4144471273003
 30
0.0
 11
-104.8670720906921
 21
-125.4831251301859
 31
0.0
  0
LINE
  5
196
330
1F
100
AcDbEntity
  8
0
100
AcDbLine
 10
-104.8670720906921
 20
-125.4831251301859
 30
0.0
 11
-104.4641240920528
 21
-125.4462562398643
 31
0.0
  0
LINE
  5
197
330
1F
100
AcDbEntity
  8
0
100
AcDbLine
 10
-104.4641240920528
 20
-125.4462562398643
 30
0.0
 11
-104.0844485845025
 21
-125.3063530102821
 31
0.0
  0
LINE
  5
198
330
1F
100
AcDbEntity
  8
0
100
AcDbLine
 10
-104.0844485845025
 20
-125.3063530102821
 30
0.0
 11
-103.7539198264375
 21
-125.0729496153343
 31
0.0
  0
LINE
  5
199
330
1F
100
AcDbEntity
  8
0
100
AcDbLine
 10
-103.7539198264375
 20
-125.0729496153343
 30
0.0
 11
-103.4950628064954
 21
-124.7619521106697
 31
0.0
  0
LINE
  5
19A
330
1F
100
AcDbEntity
  8
0
100
AcDbLine
 10
-103.4950628064954
 20
-124.7619521106697
 30
0.0
 11
-103.3255182028038
 21
-124.3945544622831
 31
0.0
  0
LINE
  5
19B
330
1F
100
AcDbEntity
  8
0
100
AcDbLine
 10
-103.3255182028038
 20
-124.3945544622831
 30
0.0
 11
-103.2568401999182
 21
-123.9957942127586
 31
0.0
  0
LINE
  5
19C
330
1F
100
AcDbEntity
  8
0
100
AcDbLine
 10
-103.2568401999182
 20
-123.9957942127586
 30
0.0
 11
-103.29370909024
 21
-123.5928462141192
 31
0.0
  0
LINE
  5
19D
330
1F
100
AcDbEntity
  8
0
100
AcDbLine
 10
-103.29370909024
 20
-123.5928462141192
 30
0.0
 11
-103.4336123198222
 21
-123.213170706569
 31
0.0
  0
LINE
  5
19E
330
1F
100
AcDbEntity
  8
0
100
AcDbLine
 10
-103.4336123198222
 20
-123.213170706569
 30
0.0
 11
-103.6670157147698
 21
-122.882641948504
 31
0.0
  0
LINE
  5
19F
330
1F
100
AcDbEntity
  8
0
100
AcDbLine
 10
-103.6670157147698
 20
-122.882641948504
 30
0.0
 11
-103.9780132194346
 21
-122.6237849285621
 31
0.0
  0
LINE
  5
1A0
330
1F
100
AcDbEntity
  8
0
100
AcDbLine
 10
-103.9780132194346
 20
-122.6237849285621
 30
0.0
 11
-104.3454108678212
 21
-122.4542403248705
 31
0.0
  0
ENDSEC
  0
SECTION
  2
OBJECTS
  0
DICTIONARY
  5
C
330
0
100
AcDbDictionary
  3
ACAD_GROUP
350
D
  3
ACAD_LAYOUT
350
1A
  3
ACAD_MATERIAL
350
3B
  3
ACAD_MLEADERSTYLE
350
1C3
  3
ACAD_MLINESTYLE
350
17
  3
ACAD_PLOTSETTINGS
350
19
  3
ACAD_VISUALSTYLE
350
2A
  3
ACDBHEADERROUNDTRIPXREC
350
1A1
  3
ACDBVARIABLEDICTIONARY
350
1C1
  0
DICTIONARY
  5
D
102
{ACAD_REACTORS
330
C
102
}
330
C
100
AcDbDictionary
  0
DICTIONARY
  5
1A
102
{ACAD_REACTORS
330
C
102
}
330
C
100
AcDbDictionary
  0
DICTIONARY
  5
3B
102
{ACAD_REACTORS
330
C
102
}
330
C
100
AcDbDictionary
  3
BYBLOCK
350
3D
  3
BYLAYER
350
3C
  3
GLOBAL
350
3E
  0
DICTIONARY
  5
1C3
102
{ACAD_REACTORS
330
C
102
}
330
C
100
AcDbDictionary
  0
DICTIONARY
  5
17
102
{ACAD_REACTORS
330
C
102
}
330
C
100
AcDbDictionary
  3
STANDARD
350
18
  0
DICTIONARY
  5
19
102
{ACAD_REACTORS
330
C
102
}
330
C
100
AcDbDictionary
  0
DICTIONARY
  5
2A
102
{ACAD_REACTORS
330
C
102
}
330
C
100
AcDbDictionary
  3
2DWIREFRAME
350
2F
  3
3D_HIDDEN
350
31
  3
3DWIREFRAME
350
30
  3
BASIC
350
32
  3
BRIGHTEN
350
36
  3
COLORCHANGE
350
3A
  3
CONCEPTUAL
350
34
  3
DIM
350
35
  3
FACEPATTERN
350
39
  3
FLAT
350
2B
  3
FLATWITHEDGES
350
2C
  3
GOURAUD
350
2D
  3
GOURAUDWITHEDGES
350
2E
  3
LINEPATTERN
350
38
  3
REALISTIC
350
33
  3
THICKEN
350
37
  0
DICTIONARY
  5
1A1
102
{ACAD_REACTORS
330
C
102
}
330
C
100
AcDbDictionary
  3
CEPSNTYPE
350
1AA
  3
DIMSTYLEDATA
350
1C0
  3
FINGERPRINTGUID
350
1AB
  3
HYPERLINKBASE
350
1A4
  3
INSUNITS
350
1A9
  3
LAYOUTDICT
350
1A6
  3
LWETCUNION
350
1A8
  3
PLOTSETDICT
350
1A7
  3
PSVPSCALE
350
1AD
  3
PUCSBASE
350
1B0
  3
PUCSORGBACK
350
1B6
  3
PUCSORGBOTTOM
350
1B2
  3
PUCSORGFRONT
350
1B5
  3
PUCSORGLEFT
350
1B3
  3
PUCSORGRIGHT
350
1B4
  3
PUCSORGTOP
350
1B1
  3
PUCSORTHOREF
350
1AE
  3
PUCSORTHOVIEW
350
1AF
  3
STYLESHEET
350
1A5
  3
TSTACKALIGN
350
1A2
  3
TSTACKSIZE
350
1A3
  3
UCSBASE
350
1B9
  3
UCSORGBACK
350
1BF
  3
UCSORGBOTTOM
350
1BB
  3
UCSORGFRONT
350
1BE
  3
UCSORGLEFT
350
1BC
  3
UCSORGRIGHT
350
1BD
  3
UCSORGTOP
350
1BA
  3
UCSORTHOREF
350
1B7
  3
UCSORTHOVIEW
350
1B8
  3
VERSIONGUID
350
1AC
  0
DICTIONARY
  5
1C1
102
{ACAD_REACTORS
330
C
102
}
330
C
100
AcDbDictionary
  3
DIMASSOC
350
1C4
  3
HIDETEXT
350
1C5
  0
MATERIAL
  5
3D
102
{ACAD_REACTORS
330
3B
102
}
102
{ACAD_XDICTIONARY
360
1C8
102
}
330
3B
100
AcDbMaterial
  1
ByBlock
  0
MATERIAL
  5
3C
102
{ACAD_REACTORS
330
3B
102
}
102
{ACAD_XDICTIONARY
360
1C6
102
}
330
3B
100
AcDbMaterial
  1
ByLayer
  0
MATERIAL
  5
3E
102
{ACAD_REACTORS
330
3B
102
}
102
{ACAD_XDICTIONARY
360
1CA
102
}
330
3B
100
AcDbMaterial
  1
Global
  0
MLINESTYLE
  5
18
102
{ACAD_REACTORS
330
17
102
}
330
17
100
AcDbMlineStyle
  2
Standard
 70
     0
  3

 62
   256
 51
90.0
 52
90.0
 71
     2
 49
0.5
 62
   256
  6
BYLAYER
 49
-0.5
 62
   256
  6
BYLAYER
  0
ACAD_PROXY_OBJECT
  5
2F
102
{ACAD_REACTORS
330
2A
102
}
330
2A
100
AcDbProxyObject
 90
      499
 91
      501
 93
      436
310
42CC9915DA5C99599C985B595049028333333333333E3BF0000000000000FB0107901411070040501600405405064090741402480A0340
1001
ACAD
1000
AcDbSavedByObjectVersion
1070
     0
  0
ACAD_PROXY_OBJECT
  5
31
102
{ACAD_REACTORS
330
2A
102
}
330
2A
100
AcDbProxyObject
 90
      499
 91
      501
 93
      500
310
424CD108121A5919195B90640502408333333333333E3BF0000000000000FB01079024090700405020000000000001110200405405064090740C02480A0340
1001
ACAD
1000
AcDbSavedByObjectVersion
1070
     0
  0
ACAD_PROXY_OBJECT
  5
30
102
{ACAD_REACTORS
330
2A
102
}
330
2A
100
AcDbProxyObject
 90
      499
 91
      501
 93
      436
310
42CCD915DA5C99599C985B595059028333333333333E3BF0000000000000FB0107901411070040501600405405064090741402480A0340
1001
ACAD
1000
AcDbSavedByObjectVersion
1070
     0
  0
ACAD_PROXY_OBJECT
  5
32
102
{ACAD_REACTORS
330
2A
102
}
330
2A
100
AcDbProxyObject
 90
      499
 91
      501
 93
      388
310
4150985CDA58D07406404333333333333E3BF0000000000000FB0107A41107004050150841D405064090741402480A0350
1001
ACAD
1000
AcDbSavedByObjectVersion
1070
     0
  0
ACAD_PROXY_OBJECT
  5
36
102
{ACAD_REACTORS
330
2A
102
}
330
2A
100
AcDbProxyObject
 90
      499
 91
      501
 93
      428
310
42109C9A59DA1D195B90C409028333333333333E3BF0000000000000FB010790141107004050150841D405064090741402480A029950
1001
ACAD
1000
AcDbSavedByObjectVersion
1070
     0
  0
ACAD_PROXY_OBJECT
  5
3A
102
{ACAD_REACTORS
330
2A
102
}
330
2A
100
AcDbProxyObject
 90
      499
 91
      501
 93
      452
310
42D0DBDB1BDC90DA185B99D95104090240C333333333333E3BF0000000000000FB0108901411070040501508421405064090741402480A0350
1001
ACAD
1000
AcDbSavedByObjectVersion
1070
     0
  0
ACAD_PROXY_OBJECT
  5
34
102
{ACAD_REACTORS
330
2A
102
}
330
2A
100
AcDbProxyObject
 90
      499
 91
      501
 93
      500
310
4290DBDB98D95C1D1D585B10940D028333333333333E3BF0000000000000FB0107902409070040501000000000000111010841D405064090740C02480A0340
1001
ACAD
1000
AcDbSavedByObjectVersion
1070
     0
  0
ACAD_PROXY_OBJECT
  5
35
102
{ACAD_REACTORS
330
2A
102
}
330
2A
100
AcDbProxyObject
 90
      499
 91
      501
 93
      412
310
40D11A5B50B409028333333333333E3BF0000000000000FB010790141107004050150841D405064090741402480A02677FFFFFD0
1001
ACAD
1000
AcDbSavedByObjectVersion
1070
     0
  0
ACAD_PROXY_OBJECT
  5
39
102
{ACAD_REACTORS
330
2A
102
}
330
2A
100
AcDbProxyObject
 90
      499
 91
      501
 93
      444
310
42D19858D95C185D1D195C9B90F409028333333333333E3BF0000000000000FB010790141107004050150841D405064090741402480A0350
1001
ACAD
1000
AcDbSavedByObjectVersion
1070
     0
  0
ACAD_PROXY_OBJECT
  5
2B
102
{ACAD_REACTORS
330
2A
102
}
330
2A
100
AcDbProxyObject
 90
      499
 91
      501
 93
      388
310
41119B185D240901404333333333333E3BF0000000000000F9010740A41107004050150841D405064090741402480A1B50
1001
ACAD
1000
AcDbSavedByObjectVersion
1070
     0
  0
ACAD_PROXY_OBJECT
  5
2C
102
{ACAD_REACTORS
330
2A
102
}
330
2A
100
AcDbProxyObject
 90
      499
 91
      501
 93
      476
310
43519B185D15DA5D1A115919D95CD0140901404333333333333E3BF0000000000000F9010740901411070040501600405405064090741402480A1B50
1001
ACAD
1000
AcDbSavedByObjectVersion
1070
     0
  0
ACAD_PROXY_OBJECT
  5
2D
102
{ACAD_REACTORS
330
2A
102
}
330
2A
100
AcDbProxyObject
 90
      499
 91
      501
 93
      412
310
41D1DBDD5C985D5910240902404333333333333E3BF0000000000000F9010740A411070040501641D405064090741402480A1B50
1001
ACAD
1000
AcDbSavedByObjectVersion
1070
     0
  0
ACAD_PROXY_OBJECT
  5
2E
102
{ACAD_REACTORS
330
2A
102
}
330
2A
100
AcDbProxyObject
 90
      499
 91
      501
 93
      500
310
4411DBDD5C985D5915DA5D1A115919D95CD0340902404333333333333E3BF0000000000000F9010740901411070040501600405405064090741402480A1B50
1001
ACAD
1000
AcDbSavedByObjectVersion
1070
     0
  0
ACAD_PROXY_OBJECT
  5
38
102
{ACAD_REACTORS
330
2A
102
}
330
2A
100
AcDbProxyObject
 90
      499
 91
      501
 93
      444
310
42D31A5B995C185D1D195C9B90E409028333333333333E3BF0000000000000FB010790141107004050750841D405064090741402483A0350
1001
ACAD
1000
AcDbSavedByObjectVersion
1070
     0
  0
ACAD_PROXY_OBJECT
  5
33
102
{ACAD_REACTORS
330
2A
102
}
330
2A
100
AcDbProxyObject
 90
      499
 91
      501
 93
      420
310
425499585B1A5CDD1A58D08409028333333333333E3BF0000000000000FB01079019070040501508421405064090741402480A1B40
1001
ACAD
1000
AcDbSavedByObjectVersion
1070
     0
  0
ACAD_PROXY_OBJECT
  5
37
102
{ACAD_REACTORS
330
2A
102
}
330
2A
100
AcDbProxyObject
 90
      499
 91
      501
 93
      412
310
41D51A1A58DAD95B90D409028333333333333E3BF0000000000000FB010790141107004050150C41D405064090741402480A0350
1001
ACAD
1000
AcDbSavedByObjectVersion
1070
     0
  0
XRECORD
  5
1AA
102
{ACAD_REACTORS
330
1A1
102
}
330
1A1
100
AcDbXrecord
 90
        0
  0
XRECORD
  5
1C0
102
{ACAD_REACTORS
330
1A1
102
}
330
1A1
100
AcDbXrecord
1000
DSTYLE
1002
{
1070
   340
340
11
1002
}
  0
XRECORD
  5
1AB
102
{ACAD_REACTORS
330
1A1
102
}
330
1A1
100
AcDbXrecord
  1
{FBDBBC78-0434-4997-9D64-C9C9DAB6FCB7}
  0
XRECORD
  5
1A4
102
{ACAD_REACTORS
330
1A1
102
}
330
1A1
100
AcDbXrecord
  1

  0
XRECORD
  5
1A9
102
{ACAD_REACTORS
330
1A1
102
}
330
1A1
100
AcDbXrecord
 90
        1
  0
XRECORD
  5
1A6
102
{ACAD_REACTORS
330
1A1
102
}
330
1A1
100
AcDbXrecord
340
1A
  0
XRECORD
  5
1A8
102
{ACAD_REACTORS
330
1A1
102
}
330
1A1
100
AcDbXrecord
 90
    10781
  0
XRECORD
  5
1A7
102
{ACAD_REACTORS
330
1A1
102
}
330
1A1
100
AcDbXrecord
340
19
  0
XRECORD
  5
1AD
102
{ACAD_REACTORS
330
1A1
102
}
330
1A1
100
AcDbXrecord
 40
0.0
  0
XRECORD
  5
1B0
102
{ACAD_REACTORS
330
1A1
102
}
330
1A1
100
AcDbXrecord
340
0
  0
XRECORD
  5
1B6
102
{ACAD_REACTORS
330
1A1
102
}
330
1A1
100
AcDbXrecord
 10
0.0
 20
0.0
 30
0.0
  0
XRECORD
  5
1B2
102
{ACAD_REACTORS
330
1A1
102
}
330
1A1
100
AcDbXrecord
 10
0.0
 20
0.0
 30
0.0
  0
XRECORD
  5
1B5
102
{ACAD_REACTORS
330
1A1
102
}
330
1A1
100
AcDbXrecord
 10
0.0
 20
0.0
 30
0.0
  0
XRECORD
  5
1B3
102
{ACAD_REACTORS
330
1A1
102
}
330
1A1
100
AcDbXrecord
 10
0.0
 20
0.0
 30
0.0
  0
XRECORD
  5
1B4
102
{ACAD_REACTORS
330
1A1
102
}
330
1A1
100
AcDbXrecord
 10
0.0
 20
0.0
 30
0.0
  0
XRECORD
  5
1B1
102
{ACAD_REACTORS
330
1A1
102
}
330
1A1
100
AcDbXrecord
 10
0.0
 20
0.0
 30
0.0
  0
XRECORD
  5
1AE
102
{ACAD_REACTORS
330
1A1
102
}
330
1A1
100
AcDbXrecord
340
0
  0
XRECORD
  5
1AF
102
{ACAD_REACTORS
330
1A1
102
}
330
1A1
100
AcDbXrecord
 70
     0
  0
XRECORD
  5
1A5
102
{ACAD_REACTORS
330
1A1
102
}
330
1A1
100
AcDbXrecord
  1

  0
XRECORD
  5
1A2
102
{ACAD_REACTORS
330
1A1
102
}
330
1A1
100
AcDbXrecord
 90
        1
  0
XRECORD
  5
1A3
102
{ACAD_REACTORS
330
1A1
102
}
330
1A1
100
AcDbXrecord
 90
       70
  0
XRECORD
  5
1B9
102
{ACAD_REACTORS
330
1A1
102
}
330
1A1
100
AcDbXrecord
340
0
  0
XRECORD
  5
1BF
102
{ACAD_REACTORS
330
1A1
102
}
330
1A1
100
AcDbXrecord
 10
0.0
 20
0.0
 30
0.0
  0
XRECORD
  5
1BB
102
{ACAD_REACTORS
330
1A1
102
}
330
1A1
100
AcDbXrecord
 10
0.0
 20
0.0
 30
0.0
  0
XRECORD
  5
1BE
102
{ACAD_REACTORS
330
1A1
102
}
330
1A1
100
AcDbXrecord
 10
0.0
 20
0.0
 30
0.0
  0
XRECORD
  5
1BC
102
{ACAD_REACTORS
330
1A1
102
}
330
1A1
100
AcDbXrecord
 10
0.0
 20
0.0
 30
0.0
  0
XRECORD
  5
1BD
102
{ACAD_REACTORS
330
1A1
102
}
330
1A1
100
AcDbXrecord
 10
0.0
 20
0.0
 30
0.0
  0
XRECORD
  5
1BA
102
{ACAD_REACTORS
330
1A1
102
}
330
1A1
100
AcDbXrecord
 10
0.0
 20
0.0
 30
0.0
  0
XRECORD
  5
1B7
102
{ACAD_REACTORS
330
1A1
102
}
330
1A1
100
AcDbXrecord
340
0
  0
XRECORD
  5
1B8
102
{ACAD_REACTORS
330
1A1
102
}
330
1A1
100
AcDbXrecord
 70
     0
  0
XRECORD
  5
1AC
102
{ACAD_REACTORS
330
1A1
102
}
330
1A1
100
AcDbXrecord
  1
{FAEB1C32-E019-11D5-929B-00C0DF256EC4}
  0
DICTIONARYVAR
  5
1C4
102
{ACAD_REACTORS
330
1C1
102
}
330
1C1
100
DictionaryVariables
280
     0
  1
2
  0
DICTIONARYVAR
  5
1C5
102
{ACAD_REACTORS
330
1C1
102
}
330
1C1
100
DictionaryVariables
280
     0
  1
1
  0
DICTIONARY
  5
1C8
330
3D
100
AcDbDictionary
280
     1
  3
ACAD_XREC_ROUNDTRIP
360
1C9
  0
DICTIONARY
  5
1C6
330
3C
100
AcDbDictionary
280
     1
  3
ACAD_XREC_ROUNDTRIP
360
1C7
  0
DICTIONARY
  5
1CA
330
3E
100
AcDbDictionary
280
     1
  3
ACAD_XREC_ROUNDTRIP
360
1CB
  0
XRECORD
  5
1C9
102
{ACAD_REACTORS
330
1C8
102
}
330
1C8
100
AcDbXrecord
102
MATERIAL
148
0.0
149
0.0
149
0.0
 93
        0
 94
      127
282
     0
 72
     1
 77
     1
171
     1
175
     1
179
     1
273
     0
  0
XRECORD
  5
1C7
102
{ACAD_REACTORS
330
1C6
102
}
330
1C6
100
AcDbXrecord
102
MATERIAL
148
0.0
149
0.0
149
0.0
 93
        0
 94
      127
282
     0
 72
     1
 77
     1
171
     1
175
     1
179
     1
273
     0
  0
XRECORD
  5
1CB
102
{ACAD_REACTORS
330
1CA
102
}
330
1CA
100
AcDbXrecord
102
MATERIAL
148
0.0
149
0.0
149
0.0
 93
        0
 94
      127
282
     0
 72
     1
 77
     1
171
     1
175
     1
179
     1
273
     0
  0
ENDSEC
  0
EOF
