  0
SECTION
  2
HEADER
  9
$ACADVER
  1
AC1014
  9
$ACADMAINTVER
 70
     9
  9
$DWGCODEPAGE
  3
ANSI_1252
  9
$INSBASE
 10
0.0
 20
0.0
 30
0.0
  9
$EXTMIN
 10
1.000000000000000E+20
 20
1.000000000000000E+20
 30
1.000000000000000E+20
  9
$EXTMAX
 10
-1.000000000000000E+20
 20
-1.000000000000000E+20
 30
-1.000000000000000E+20
  9
$LIMMIN
 10
0.0
 20
0.0
  9
$LIMMAX
 10
12.0
 20
9.0
  9
$ORTHOMODE
 70
     0
  9
$REGENMODE
 70
     1
  9
$FILLMODE
 70
     1
  9
$QTEXTMODE
 70
     0
  9
$MIRRTEXT
 70
     1
  9
$DRAGMODE
 70
     2
  9
$LTSCALE
 40
1.0
  9
$OSMODE
 70
    37
  9
$ATTMODE
 70
     1
  9
$TEXTSIZE
 40
0.2
  9
$TRACEWID
 40
0.05
  9
$TEXTSTYLE
  7
STANDARD
  9
$CLAYER
  8
0
  9
$CELTYPE
  6
BYLAYER
  9
$CECOLOR
 62
   256
  9
$CELTSCALE
 40
1.0
  9
$DELOBJ
 70
     1
  9
$DISPSILH
 70
     0
  9
$DIMSCALE
 40
1.0
  9
$DIMASZ
 40
0.18
  9
$DIMEXO
 40
0.0625
  9
$DIMDLI
 40
0.38
  9
$DIMRND
 40
0.0
  9
$DIMDLE
 40
0.0
  9
$DIMEXE
 40
0.18
  9
$DIMTP
 40
0.0
  9
$DIMTM
 40
0.0
  9
$DIMTXT
 40
0.18
  9
$DIMCEN
 40
0.09
  9
$DIMTSZ
 40
0.0
  9
$DIMTOL
 70
     0
  9
$DIMLIM
 70
     0
  9
$DIMTIH
 70
     1
  9
$DIMTOH
 70
     1
  9
$DIMSE1
 70
     0
  9
$DIMSE2
 70
     0
  9
$DIMTAD
 70
     0
  9
$DIMZIN
 70
     0
  9
$DIMBLK
  1

  9
$DIMASO
 70
     1
  9
$DIMSHO
 70
     1
  9
$DIMPOST
  1

  9
$DIMAPOST
  1

  9
$DIMALT
 70
     0
  9
$DIMALTD
 70
     2
  9
$DIMALTF
 40
25.4
  9
$DIMLFAC
 40
1.0
  9
$DIMTOFL
 70
     0
  9
$DIMTVP
 40
0.0
  9
$DIMTIX
 70
     0
  9
$DIMSOXD
 70
     0
  9
$DIMSAH
 70
     0
  9
$DIMBLK1
  1

  9
$DIMBLK2
  1

  9
$DIMSTYLE
  2
STANDARD
  9
$DIMCLRD
 70
     0
  9
$DIMCLRE
 70
     0
  9
$DIMCLRT
 70
     0
  9
$DIMTFAC
 40
1.0
  9
$DIMGAP
 40
0.09
  9
$DIMJUST
 70
     0
  9
$DIMSD1
 70
     0
  9
$DIMSD2
 70
     0
  9
$DIMTOLJ
 70
     1
  9
$DIMTZIN
 70
     0
  9
$DIMALTZ
 70
     0
  9
$DIMALTTZ
 70
     0
  9
$DIMFIT
 70
     3
  9
$DIMUPT
 70
     0
  9
$DIMUNIT
 70
     2
  9
$DIMDEC
 70
     4
  9
$DIMTDEC
 70
     4
  9
$DIMALTU
 70
     2
  9
$DIMALTTD
 70
     2
  9
$DIMTXSTY
  7
STANDARD
  9
$DIMAUNIT
 70
     0
  9
$LUNITS
 70
     2
  9
$LUPREC
 70
     4
  9
$SKETCHINC
 40
0.1
  9
$FILLETRAD
 40
0.5
  9
$AUNITS
 70
     0
  9
$AUPREC
 70
     0
  9
$MENU
  1
.
  9
$ELEVATION
 40
0.0
  9
$PELEVATION
 40
0.0
  9
$THICKNESS
 40
0.0
  9
$LIMCHECK
 70
     0
  9
$CHAMFERA
 40
0.0
  9
$CHAMFERB
 40
0.0
  9
$CHAMFERC
 40
0.0
  9
$CHAMFERD
 40
0.0
  9
$SKPOLY
 70
     0
  9
$TDCREATE
 40
2457596.688131238
  9
$TDUPDATE
 40
2457596.688165706
  9
$TDINDWG
 40
0.0000000116
  9
$TDUSRTIMER
 40
0.0000000116
  9
$USRTIMER
 70
     1
  9
$ANGBASE
 50
0.0
  9
$ANGDIR
 70
     0
  9
$PDMODE
 70
     0
  9
$PDSIZE
 40
0.0
  9
$PLINEWID
 40
0.0
  9
$COORDS
 70
     1
  9
$SPLFRAME
 70
     0
  9
$SPLINETYPE
 70
     6
  9
$SPLINESEGS
 70
     8
  9
$ATTDIA
 70
     0
  9
$ATTREQ
 70
     1
  9
$HANDLING
 70
     1
  9
$HANDSEED
  5
195
  9
$SURFTAB1
 70
     6
  9
$SURFTAB2
 70
     6
  9
$SURFTYPE
 70
     6
  9
$SURFU
 70
     6
  9
$SURFV
 70
     6
  9
$UCSNAME
  2

  9
$UCSORG
 10
0.0
 20
0.0
 30
0.0
  9
$UCSXDIR
 10
1.0
 20
0.0
 30
0.0
  9
$UCSYDIR
 10
0.0
 20
1.0
 30
0.0
  9
$PUCSNAME
  2

  9
$PUCSORG
 10
0.0
 20
0.0
 30
0.0
  9
$PUCSXDIR
 10
1.0
 20
0.0
 30
0.0
  9
$PUCSYDIR
 10
0.0
 20
1.0
 30
0.0
  9
$USERI1
 70
     0
  9
$USERI2
 70
     0
  9
$USERI3
 70
     0
  9
$USERI4
 70
     0
  9
$USERI5
 70
     0
  9
$USERR1
 40
0.0
  9
$USERR2
 40
0.0
  9
$USERR3
 40
0.0
  9
$USERR4
 40
0.0
  9
$USERR5
 40
0.0
  9
$WORLDVIEW
 70
     1
  9
$SHADEDGE
 70
     3
  9
$SHADEDIF
 70
    70
  9
$TILEMODE
 70
     1
  9
$MAXACTVP
 70
    64
  9
$PINSBASE
 10
0.0
 20
0.0
 30
0.0
  9
$PLIMCHECK
 70
     0
  9
$PEXTMIN
 10
1.000000000000000E+20
 20
1.000000000000000E+20
 30
1.000000000000000E+20
  9
$PEXTMAX
 10
-1.000000000000000E+20
 20
-1.000000000000000E+20
 30
-1.000000000000000E+20
  9
$PLIMMIN
 10
0.0
 20
0.0
  9
$PLIMMAX
 10
12.0
 20
9.0
  9
$UNITMODE
 70
     0
  9
$VISRETAIN
 70
     1
  9
$PLINEGEN
 70
     0
  9
$PSLTSCALE
 70
     1
  9
$TREEDEPTH
 70
  3020
  9
$PICKSTYLE
 70
     1
  9
$CMLSTYLE
  2
STANDARD
  9
$CMLJUST
 70
     0
  9
$CMLSCALE
 40
1.0
  9
$PROXYGRAPHICS
 70
     1
  9
$MEASUREMENT
 70
     1
  0
ENDSEC
  0
SECTION
  2
CLASSES
  0
CLASS
  1
ACDBDICTIONARYWDFLT
  2
AcDbDictionaryWithDefault
  3
ObjectDBX Classes
 90
        0
280
     0
281
     0
  0
CLASS
  1
VISUALSTYLE
  2
AcDbVisualStyle
  3
ObjectDBX Classes
 90
     4095
280
     0
281
     0
  0
CLASS
  1
MATERIAL
  2
AcDbMaterial
  3
ObjectDBX Classes
 90
     1153
280
     0
281
     0
  0
CLASS
  1
SCALE
  2
AcDbScale
  3
ObjectDBX Classes
 90
     1153
280
     0
281
     0
  0
CLASS
  1
SUN
  2
AcDbSun
  3
SCENEOE
 90
     1153
280
     0
281
     0
  0
CLASS
  1
DICTIONARYVAR
  2
AcDbDictionaryVar
  3
ObjectDBX Classes
 90
        0
280
     0
281
     0
  0
CLASS
  1
XRECORD
  2
AcDbXrecord
  3
ObjectDBX Classes
 90
        0
280
     0
281
     0
  0
CLASS
  1
LWPOLYLINE
  2
AcDbPolyline
  3
ObjectDBX Classes
 90
        0
280
     0
281
     1
  0
CLASS
  1
HATCH
  2
AcDbHatch
  3
ObjectDBX Classes
 90
        0
280
     0
281
     1
  0
CLASS
  1
ACDBPLACEHOLDER
  2
AcDbPlaceHolder
  3
ObjectDBX Classes
 90
        0
280
     0
281
     0
  0
CLASS
  1
LAYOUT
  2
AcDbLayout
  3
ObjectDBX Classes
 90
        0
280
     0
281
     0
  0
ENDSEC
  0
SECTION
  2
TABLES
  0
TABLE
  2
VPORT
  5
8
102
{ACAD_XDICTIONARY
360
18B
102
}
330
0
100
AcDbSymbolTable
 70
     1
  0
VPORT
  5
29
330
8
100
AcDbSymbolTableRecord
100
AcDbViewportTableRecord
  2
*ACTIVE
 70
     0
 10
0.0
 20
0.0
 11
1.0
 21
1.0
 12
0.0
 22
0.0
 13
0.0
 23
0.0
 14
0.5
 24
0.5
 15
0.5
 25
0.5
 16
0.0
 26
0.0
 36
1.0
 17
0.0
 27
0.0
 37
-1000.0
 40
242.7593254982132
 41
1.391891891891892
 42
50.0
 43
0.6567156628092944
 44
656.7156628092944
 50
0.0
 51
0.0
 71
     0
 72
   100
 73
     1
 74
     3
 75
     0
 76
     0
 77
     0
 78
     0
  0
ENDTAB
  0
TABLE
  2
LTYPE
  5
5
330
0
100
AcDbSymbolTable
 70
     1
  0
LTYPE
  5
14
330
5
100
AcDbSymbolTableRecord
100
AcDbLinetypeTableRecord
  2
BYBLOCK
 70
     0
  3

 72
    65
 73
     0
 40
0.0
  0
LTYPE
  5
15
330
5
100
AcDbSymbolTableRecord
100
AcDbLinetypeTableRecord
  2
BYLAYER
 70
     0
  3

 72
    65
 73
     0
 40
0.0
  0
LTYPE
  5
16
330
5
100
AcDbSymbolTableRecord
100
AcDbLinetypeTableRecord
  2
CONTINUOUS
 70
     0
  3
Solid line
 72
    65
 73
     0
 40
0.0
  0
ENDTAB
  0
TABLE
  2
LAYER
  5
2
330
0
100
AcDbSymbolTable
 70
     3
  0
LAYER
  5
10
330
2
100
AcDbSymbolTableRecord
100
AcDbLayerTableRecord
  2
0
 70
     0
 62
     7
  6
CONTINUOUS
  0
LAYER
  5
6A
330
2
100
AcDbSymbolTableRecord
100
AcDbLayerTableRecord
  2
PROFILEEDGES
 70
     0
 62
     7
  6
CONTINUOUS
  0
LAYER
  5
6B
330
2
100
AcDbSymbolTableRecord
100
AcDbLayerTableRecord
  2
SECTIONCUTEDGES
 70
     0
 62
     7
  6
CONTINUOUS
  0
ENDTAB
  0
TABLE
  2
STYLE
  5
3
330
0
100
AcDbSymbolTable
 70
     1
  0
STYLE
  5
11
330
3
100
AcDbSymbolTableRecord
100
AcDbTextStyleTableRecord
  2
STANDARD
 70
     0
 40
0.0
 41
1.0
 50
0.0
 71
     0
 42
0.2
  3
txt
  4

  0
ENDTAB
  0
TABLE
  2
VIEW
  5
6
330
0
100
AcDbSymbolTable
 70
     0
  0
ENDTAB
  0
TABLE
  2
UCS
  5
7
330
0
100
AcDbSymbolTable
 70
     0
  0
ENDTAB
  0
TABLE
  2
APPID
  5
9
330
0
100
AcDbSymbolTable
 70
     1
  0
APPID
  5
12
330
9
100
AcDbSymbolTableRecord
100
AcDbRegAppTableRecord
  2
ACAD
 70
     0
  0
ENDTAB
  0
TABLE
  2
DIMSTYLE
  5
A
330
0
100
AcDbSymbolTable
 70
     1
  0
DIMSTYLE
105
27
330
A
100
AcDbSymbolTableRecord
100
AcDbDimStyleTableRecord
  2
STANDARD
 70
     0
  3

  4

  5

  6

  7

 40
1.0
 41
0.18
 42
0.0625
 43
0.38
 44
0.18
 45
0.0
 46
0.0
 47
0.0
 48
0.0
140
0.18
141
0.09
142
0.0
143
25.4
144
1.0
145
0.0
146
1.0
147
0.09
 71
     0
 72
     0
 73
     1
 74
     1
 75
     0
 76
     0
 77
     0
 78
     0
170
     0
171
     2
172
     0
173
     0
174
     0
175
     0
176
     0
177
     0
178
     0
270
     2
271
     4
272
     4
273
     2
274
     2
340
11
275
     0
280
     0
281
     0
282
     0
283
     1
284
     0
285
     0
286
     0
287
     3
288
     0
  0
ENDTAB
  0
TABLE
  2
BLOCK_RECORD
  5
1
330
0
100
AcDbSymbolTable
 70
     1
  0
BLOCK_RECORD
  5
1F
330
1
100
AcDbSymbolTableRecord
100
AcDbBlockTableRecord
  2
*MODEL_SPACE
  0
BLOCK_RECORD
  5
1B
330
1
100
AcDbSymbolTableRecord
100
AcDbBlockTableRecord
  2
*PAPER_SPACE
  0
ENDTAB
  0
ENDSEC
  0
SECTION
  2
BLOCKS
  0
BLOCK
  5
20
330
1F
100
AcDbEntity
  8
0
100
AcDbBlockBegin
  2
*MODEL_SPACE
 70
     0
 10
0.0
 20
0.0
 30
0.0
  3
*MODEL_SPACE
  1

  0
ENDBLK
  5
21
330
1F
100
AcDbEntity
  8
0
100
AcDbBlockEnd
  0
BLOCK
  5
1C
330
1B
100
AcDbEntity
 67
     1
  8
0
100
AcDbBlockBegin
  2
*PAPER_SPACE
 70
     0
 10
0.0
 20
0.0
 30
0.0
  3
*PAPER_SPACE
  1

  0
ENDBLK
  5
1D
330
1B
100
AcDbEntity
 67
     1
  8
0
100
AcDbBlockEnd
  0
ENDSEC
  0
SECTION
  2
ENTITIES
  0
LINE
  5
6C
330
1F
100
AcDbEntity
  8
0
100
AcDbLine
 10
112.4499999999992
 20
26.00000000000041
 30
0.0
 11
112.4642579916245
 21
25.89169980147143
 31
0.0
  0
LINE
  5
6D
330
1F
100
AcDbEntity
  8
0
100
AcDbLine
 10
112.5028149692507
 20
26.40116951990938
 30
0.0
 11
112.4885569776254
 21
26.2928693213804
 31
0.0
  0
LINE
  5
6E
330
1F
100
AcDbEntity
  8
0
100
AcDbLine
 10
112.657660624133
 20
26.77500000000086
 30
0.0
 11
112.6158583078237
 21
26.67408028102663
 31
0.0
  0
LINE
  5
6F
330
1F
100
AcDbEntity
  8
0
100
AcDbLine
 10
160.4999999999998
 20
36.00000000000273
 30
0.0
 11
-160.5000000000011
 21
35.99999999999723
 31
0.0
  0
LINE
  5
70
330
1F
100
AcDbEntity
  8
0
100
AcDbLine
 10
-160.5000000000011
 20
35.99999999999723
 30
0.0
 11
-160.4999999999999
 21
-36.00000000000282
 31
0.0
  0
LINE
  5
71
330
1F
100
AcDbEntity
  8
0
100
AcDbLine
 10
-149.5988304800915
 20
-1.497185030750477
 30
0.0
 11
-149.2250000000007
 21
-1.342339375868022
 31
0.0
  0
LINE
  5
72
330
1F
100
AcDbEntity
  8
0
100
AcDbLine
 10
-150.0000000000012
 20
-1.550000000002896
 30
0.0
 11
-149.5988304800915
 21
-1.497185030750477
 31
0.0
  0
LINE
  5
73
330
1F
100
AcDbEntity
  8
0
100
AcDbLine
 10
-150.4011695199094
 20
-1.497185030750477
 30
0.0
 11
-150.0000000000012
 21
-1.550000000002896
 31
0.0
  0
LINE
  5
74
330
1F
100
AcDbEntity
  8
0
100
AcDbLine
 10
-150.7750000000003
 20
-1.342339375868202
 30
0.0
 11
-150.4011695199094
 21
-1.497185030750477
 31
0.0
  0
LINE
  5
75
330
1F
100
AcDbEntity
  8
0
100
AcDbLine
 10
-151.0960155108397
 20
-1.096015510841956
 30
0.0
 11
-150.7750000000003
 21
-1.342339375868202
 31
0.0
  0
LINE
  5
76
330
1F
100
AcDbEntity
  8
0
100
AcDbLine
 10
-149.2250000000007
 20
1.342339375862878
 30
0.0
 11
-149.5988304800915
 21
1.497185030745334
 31
0.0
  0
LINE
  5
77
330
1F
100
AcDbEntity
  8
0
100
AcDbLine
 10
-151.3423393758671
 20
-0.7750000000023505
 30
0.0
 11
-151.0960155108397
 21
-1.096015510841956
 31
0.0
  0
LINE
  5
78
330
1F
100
AcDbEntity
  8
0
100
AcDbLine
 10
-151.497185030748
 20
-0.4011695199114094
 30
0.0
 11
-151.3423393758671
 21
-0.7750000000023505
 31
0.0
  0
LINE
  5
79
330
1F
100
AcDbEntity
  8
0
100
AcDbLine
 10
-151.5500000000009
 20
-0.0000000000025267
 30
0.0
 11
-151.497185030748
 21
-0.4011695199114094
 31
0.0
  0
LINE
  5
7A
330
1F
100
AcDbEntity
  8
0
100
AcDbLine
 10
-151.497185030748
 20
0.4011695199065364
 30
0.0
 11
-151.5500000000009
 21
-0.0000000000025267
 31
0.0
  0
LINE
  5
7B
330
1F
100
AcDbEntity
  8
0
100
AcDbLine
 10
-151.3423393758671
 20
0.7749999999971166
 30
0.0
 11
-151.497185030748
 21
0.4011695199065364
 31
0.0
  0
LINE
  5
7C
330
1F
100
AcDbEntity
  8
0
100
AcDbLine
 10
-151.0960155108397
 20
1.096015510836361
 30
0.0
 11
-151.3423393758671
 21
0.7749999999971166
 31
0.0
  0
LINE
  5
7D
330
1F
100
AcDbEntity
  8
0
100
AcDbLine
 10
-150.7750000000003
 20
1.342339375863059
 30
0.0
 11
-151.0960155108397
 21
1.096015510836361
 31
0.0
  0
LINE
  5
7E
330
1F
100
AcDbEntity
  8
0
100
AcDbLine
 10
-150.4011695199095
 20
1.497185030745334
 30
0.0
 11
-150.7750000000003
 21
1.342339375863059
 31
0.0
  0
LINE
  5
7F
330
1F
100
AcDbEntity
  8
0
100
AcDbLine
 10
-150.0000000000012
 20
1.549999999997753
 30
0.0
 11
-150.4011695199095
 21
1.497185030745334
 31
0.0
  0
LINE
  5
80
330
1F
100
AcDbEntity
  8
0
100
AcDbLine
 10
-149.5988304800915
 20
1.497185030745334
 30
0.0
 11
-150.0000000000012
 21
1.549999999997753
 31
0.0
  0
LINE
  5
81
330
1F
100
AcDbEntity
  8
0
100
AcDbLine
 10
-112.9039844891604
 20
-24.90398448916332
 30
0.0
 11
-113.2249999999999
 21
-24.65766062413671
 31
0.0
  0
LINE
  5
82
330
1F
100
AcDbEntity
  8
0
100
AcDbLine
 10
-148.9039844891612
 20
1.09601551083609
 30
0.0
 11
-149.2250000000007
 21
1.342339375862878
 31
0.0
  0
LINE
  5
83
330
1F
100
AcDbEntity
  8
0
100
AcDbLine
 10
-148.6576606241354
 20
0.7749999999972068
 30
0.0
 11
-148.9039844891612
 21
1.09601551083609
 31
0.0
  0
LINE
  5
84
330
1F
100
AcDbEntity
  8
0
100
AcDbLine
 10
-148.5028149692531
 20
0.401169519906356
 30
0.0
 11
-148.6576606241354
 21
0.7749999999972068
 31
0.0
  0
LINE
  5
85
330
1F
100
AcDbEntity
  8
0
100
AcDbLine
 10
-148.4500000000002
 20
-0.0000000000027974
 30
0.0
 11
-148.5028149692531
 21
0.401169519906356
 31
0.0
  0
LINE
  5
86
330
1F
100
AcDbEntity
  8
0
100
AcDbLine
 10
-148.5028149692531
 20
-0.4011695199114996
 30
0.0
 11
-148.4500000000002
 21
-0.0000000000027974
 31
0.0
  0
LINE
  5
87
330
1F
100
AcDbEntity
  8
0
100
AcDbLine
 10
-148.6576606241354
 20
-0.7750000000026211
 30
0.0
 11
-148.5028149692531
 21
-0.4011695199114996
 31
0.0
  0
LINE
  5
88
330
1F
100
AcDbEntity
  8
0
100
AcDbLine
 10
-148.9039844891612
 20
-1.096015510842046
 30
0.0
 11
-148.6576606241354
 21
-0.7750000000026211
 31
0.0
  0
LINE
  5
89
330
1F
100
AcDbEntity
  8
0
100
AcDbLine
 10
-149.2250000000007
 20
-1.342339375868022
 30
0.0
 11
-148.9039844891612
 21
-1.096015510842046
 31
0.0
  0
LINE
  5
8A
330
1F
100
AcDbEntity
  8
0
100
AcDbLine
 10
-115.0960155108389
 20
-24.9039844891626
 30
0.0
 11
-115.3423393758662
 21
-25.22500000000202
 31
0.0
  0
LINE
  5
8B
330
1F
100
AcDbEntity
  8
0
100
AcDbLine
 10
-114.7749999999995
 20
-24.65766062413671
 30
0.0
 11
-115.0960155108389
 21
-24.9039844891626
 31
0.0
  0
LINE
  5
8C
330
1F
100
AcDbEntity
  8
0
100
AcDbLine
 10
-114.4011695199086
 20
-24.50281496925435
 30
0.0
 11
-114.7749999999995
 21
-24.65766062413671
 31
0.0
  0
LINE
  5
8D
330
1F
100
AcDbEntity
  8
0
100
AcDbLine
 10
-114.0000000000004
 20
-24.4500000000022
 30
0.0
 11
-114.4011695199086
 21
-24.50281496925435
 31
0.0
  0
LINE
  5
8E
330
1F
100
AcDbEntity
  8
0
100
AcDbLine
 10
-113.5988304800907
 20
-24.50281496925471
 30
0.0
 11
-114.0000000000004
 21
-24.4500000000022
 31
0.0
  0
LINE
  5
8F
330
1F
100
AcDbEntity
  8
0
100
AcDbLine
 10
-113.2249999999999
 20
-24.65766062413671
 30
0.0
 11
-113.5988304800907
 21
-24.50281496925471
 31
0.0
  0
LINE
  5
90
330
1F
100
AcDbEntity
  8
0
100
AcDbLine
 10
-112.562180795702
 20
26.57894381052504
 30
0.0
 11
-112.7610149812422
 21
26.93135177204307
 31
0.0
  0
LINE
  5
91
330
1F
100
AcDbEntity
  8
0
100
AcDbLine
 10
-112.4613316128253
 20
26.18708178506969
 30
0.0
 11
-112.562180795702
 21
26.57894381052504
 31
0.0
  0
LINE
  5
92
330
1F
100
AcDbEntity
  8
0
100
AcDbLine
 10
-112.6576606241345
 20
-25.22500000000239
 30
0.0
 11
-112.9039844891604
 21
-24.90398448916332
 31
0.0
  0
LINE
  5
93
330
1F
100
AcDbEntity
  8
0
100
AcDbLine
 10
-112.5028149692521
 20
-25.5988304800936
 30
0.0
 11
-112.6576606241345
 21
-25.22500000000239
 31
0.0
  0
LINE
  5
94
330
1F
100
AcDbEntity
  8
0
100
AcDbLine
 10
-112.4500000000007
 20
-26.00000000000221
 30
0.0
 11
-112.5028149692521
 21
-25.5988304800936
 31
0.0
  0
LINE
  5
95
330
1F
100
AcDbEntity
  8
0
100
AcDbLine
 10
-112.5028149692521
 20
-26.40116951991118
 30
0.0
 11
-112.4500000000007
 21
-26.00000000000221
 31
0.0
  0
LINE
  5
96
330
1F
100
AcDbEntity
  8
0
100
AcDbLine
 10
115.3423393758647
 20
25.22500000000067
 30
0.0
 11
115.3841416921756
 21
25.32591971897526
 31
0.0
  0
LINE
  5
97
330
1F
100
AcDbEntity
  8
0
100
AcDbLine
 10
115.0960155108389
 20
24.90398448916197
 30
0.0
 11
115.1625133930577
 21
24.99064621651036
 31
0.0
  0
LINE
  5
98
330
1F
100
AcDbEntity
  8
0
100
AcDbLine
 10
114.7749999999994
 20
24.65766062413473
 30
0.0
 11
114.8616617273473
 21
24.72415850635451
 31
0.0
  0
LINE
  5
99
330
1F
100
AcDbEntity
  8
0
100
AcDbLine
 10
114.4011695199086
 20
24.50281496925281
 30
0.0
 11
114.5020892388817
 21
24.54461728556291
 31
0.0
  0
LINE
  5
9A
330
1F
100
AcDbEntity
  8
0
100
AcDbLine
 10
113.5988304800906
 20
24.50281496925281
 30
0.0
 11
113.7071306786188
 21
24.48855697762715
 31
0.0
  0
LINE
  5
9B
330
1F
100
AcDbEntity
  8
0
100
AcDbLine
 10
113.2249999999998
 20
24.65766062413473
 30
0.0
 11
113.3259197189729
 21
24.61585830782482
 31
0.0
  0
LINE
  5
9C
330
1F
100
AcDbEntity
  8
0
100
AcDbLine
 10
112.9039844891604
 20
24.90398448916197
 30
0.0
 11
112.9906462165082
 21
24.83748660694254
 31
0.0
  0
LINE
  5
9D
330
1F
100
AcDbEntity
  8
0
100
AcDbLine
 10
112.657660624133
 20
25.22500000000049
 30
0.0
 11
112.7241585063519
 21
25.13833827265228
 31
0.0
  0
LINE
  5
9E
330
1F
100
AcDbEntity
  8
0
100
AcDbLine
 10
112.5028149692507
 20
25.59883048009242
 30
0.0
 11
112.5446172855615
 21
25.49791076111801
 31
0.0
  0
LINE
  5
9F
330
1F
100
AcDbEntity
  8
0
100
AcDbLine
 10
112.461331612823
 20
26.18708178507222
 30
0.0
 11
112.4622622901805
 21
26.0931413410787
 31
0.0
  0
LINE
  5
A0
330
1F
100
AcDbEntity
  8
0
100
AcDbLine
 10
112.4622622901805
 20
26.0931413410787
 30
0.0
 11
112.4499999999992
 21
26.00000000000041
 31
0.0
  0
LINE
  5
A1
330
1F
100
AcDbEntity
  8
0
100
AcDbLine
 10
112.6158583078237
 20
26.67408028102663
 30
0.0
 11
112.5621807956996
 21
26.57894381052775
 31
0.0
  0
LINE
  5
A2
330
1F
100
AcDbEntity
  8
0
100
AcDbLine
 10
112.5621807956996
 20
26.57894381052775
 30
0.0
 11
112.5387661849833
 21
26.48796343251589
 31
0.0
  0
LINE
  5
A3
330
1F
100
AcDbEntity
  8
0
100
AcDbLine
 10
112.5387661849833
 20
26.48796343251589
 30
0.0
 11
112.5028149692507
 21
26.40116951990938
 31
0.0
  0
LINE
  5
A4
330
1F
100
AcDbEntity
  8
0
100
AcDbLine
 10
149.2249999999992
 20
1.342339375868022
 30
0.0
 11
148.9039844891598
 21
1.096015510841234
 31
0.0
  0
LINE
  5
A5
330
1F
100
AcDbEntity
  8
0
100
AcDbLine
 10
150.7749999999989
 20
1.342339375867932
 30
0.0
 11
150.401169519908
 21
1.497185030750297
 31
0.0
  0
LINE
  5
A6
330
1F
100
AcDbEntity
  8
0
100
AcDbLine
 10
148.5028149692515
 20
0.4011695199115898
 30
0.0
 11
148.4500000000001
 21
0.0000000000020755
 31
0.0
  0
LINE
  5
A7
330
1F
100
AcDbEntity
  8
0
100
AcDbLine
 10
113.5988304800915
 20
-27.49718503074682
 30
0.0
 11
113.9999999999998
 21
-27.54999999999969
 31
0.0
  0
LINE
  5
A8
330
1F
100
AcDbEntity
  8
0
100
AcDbLine
 10
113.2249999999992
 20
-27.34233937586482
 30
0.0
 11
113.5988304800915
 21
-27.49718503074682
 31
0.0
  0
LINE
  5
A9
330
1F
100
AcDbEntity
  8
0
100
AcDbLine
 10
112.9039844891613
 20
-27.09601551083857
 30
0.0
 11
113.2249999999992
 21
-27.34233937586482
 31
0.0
  0
LINE
  5
AA
330
1F
100
AcDbEntity
  8
0
100
AcDbLine
 10
112.5028149692516
 20
-26.40116951990901
 30
0.0
 11
112.6576606241339
 21
-26.77499999999878
 31
0.0
  0
LINE
  5
AB
330
1F
100
AcDbEntity
  8
0
100
AcDbLine
 10
112.6576606241339
 20
-25.22499999999878
 30
0.0
 11
112.5028149692516
 21
-25.59883048009071
 31
0.0
  0
LINE
  5
AC
330
1F
100
AcDbEntity
  8
0
100
AcDbLine
 10
112.9039844891613
 20
-24.90398448915971
 30
0.0
 11
112.6576606241339
 21
-25.22499999999878
 31
0.0
  0
LINE
  5
AD
330
1F
100
AcDbEntity
  8
0
100
AcDbLine
 10
113.2249999999992
 20
-24.65766062413274
 30
0.0
 11
112.9039844891613
 21
-24.90398448915971
 31
0.0
  0
LINE
  5
AE
330
1F
100
AcDbEntity
  8
0
100
AcDbLine
 10
113.5988304800915
 20
-24.5028149692511
 30
0.0
 11
113.2249999999992
 21
-24.65766062413274
 31
0.0
  0
LINE
  5
AF
330
1F
100
AcDbEntity
  8
0
100
AcDbLine
 10
113.9999999999998
 20
-24.44999999999931
 30
0.0
 11
113.5988304800915
 21
-24.5028149692511
 31
0.0
  0
LINE
  5
B0
330
1F
100
AcDbEntity
  8
0
100
AcDbLine
 10
114.401169519908
 20
-24.5028149692511
 30
0.0
 11
113.9999999999998
 21
-24.44999999999931
 31
0.0
  0
LINE
  5
B1
330
1F
100
AcDbEntity
  8
0
100
AcDbLine
 10
114.7750000000003
 20
-24.65766062413274
 30
0.0
 11
114.401169519908
 21
-24.5028149692511
 31
0.0
  0
LINE
  5
B2
330
1F
100
AcDbEntity
  8
0
100
AcDbLine
 10
115.3423393758656
 20
-25.22499999999913
 30
0.0
 11
115.0960155108383
 21
-24.90398448915971
 31
0.0
  0
LINE
  5
B3
330
1F
100
AcDbEntity
  8
0
100
AcDbLine
 10
115.497185030748
 20
-25.59883048009107
 30
0.0
 11
115.3423393758656
 21
-25.22499999999913
 31
0.0
  0
LINE
  5
B4
330
1F
100
AcDbEntity
  8
0
100
AcDbLine
 10
115.5499999999994
 20
-25.99999999999896
 30
0.0
 11
115.497185030748
 21
-25.59883048009107
 31
0.0
  0
LINE
  5
B5
330
1F
100
AcDbEntity
  8
0
100
AcDbLine
 10
115.497185030748
 20
-26.40116951990901
 30
0.0
 11
115.5499999999994
 21
-25.99999999999896
 31
0.0
  0
LINE
  5
B6
330
1F
100
AcDbEntity
  8
0
100
AcDbLine
 10
115.3423393758656
 20
-26.77499999999878
 30
0.0
 11
115.497185030748
 21
-26.40116951990901
 31
0.0
  0
LINE
  5
B7
330
1F
100
AcDbEntity
  8
0
100
AcDbLine
 10
115.0960155108383
 20
-27.09601551083821
 30
0.0
 11
115.3423393758656
 21
-26.77499999999878
 31
0.0
  0
LINE
  5
B8
330
1F
100
AcDbEntity
  8
0
100
AcDbLine
 10
1.325257746331929
 20
25.22499999999878
 30
0.0
 11
1.078933881306043
 21
24.9039844891598
 31
0.0
  0
LINE
  5
B9
330
1F
100
AcDbEntity
  8
0
100
AcDbLine
 10
-1.359421005399783
 20
25.22499999999896
 30
0.0
 11
-1.514266660282148
 21
25.59883048009026
 31
0.0
  0
LINE
  5
BA
330
1F
100
AcDbEntity
  8
0
100
AcDbLine
 10
-1.514266660282148
 20
25.59883048009026
 30
0.0
 11
-1.567081629533575
 21
25.99999999999869
 31
0.0
  0
LINE
  5
BB
330
1F
100
AcDbEntity
  8
0
100
AcDbLine
 10
-1.567081629533575
 20
25.99999999999869
 30
0.0
 11
-1.514266660282148
 21
26.40116951990784
 31
0.0
  0
LINE
  5
BC
330
1F
100
AcDbEntity
  8
0
100
AcDbLine
 10
-1.514266660282148
 20
26.40116951990784
 30
0.0
 11
-1.359421005399783
 21
26.77499999999923
 31
0.0
  0
LINE
  5
BD
330
1F
100
AcDbEntity
  8
0
100
AcDbLine
 10
-1.359421005399783
 20
26.77499999999923
 30
0.0
 11
-1.113097140372454
 21
27.09601551083785
 31
0.0
  0
LINE
  5
BE
330
1F
100
AcDbEntity
  8
0
100
AcDbLine
 10
-1.113097140372454
 20
27.09601551083785
 30
0.0
 11
-0.7920816295330741
 21
27.342339375865
 31
0.0
  0
LINE
  5
BF
330
1F
100
AcDbEntity
  8
0
100
AcDbLine
 10
-0.7920816295330741
 20
27.342339375865
 30
0.0
 11
-0.4182511494422684
 21
27.497185030747
 31
0.0
  0
LINE
  5
C0
330
1F
100
AcDbEntity
  8
0
100
AcDbLine
 10
-0.4182511494422684
 20
27.497185030747
 30
0.0
 11
-0.0170816295340174
 21
27.54999999999888
 31
0.0
  0
LINE
  5
C1
330
1F
100
AcDbEntity
  8
0
100
AcDbLine
 10
-0.0170816295340174
 20
27.54999999999888
 30
0.0
 11
0.3840878903756774
 21
27.497185030747
 31
0.0
  0
LINE
  5
C2
330
1F
100
AcDbEntity
  8
0
100
AcDbLine
 10
0.3840878903756774
 20
27.497185030747
 30
0.0
 11
0.7579183704665734
 21
27.342339375865
 31
0.0
  0
LINE
  5
C3
330
1F
100
AcDbEntity
  8
0
100
AcDbLine
 10
0.7579183704665734
 20
27.342339375865
 30
0.0
 11
1.078933881306043
 21
27.09601551083776
 31
0.0
  0
LINE
  5
C4
330
1F
100
AcDbEntity
  8
0
100
AcDbLine
 10
1.078933881306043
 20
27.09601551083776
 30
0.0
 11
1.325257746331929
 21
26.77499999999887
 31
0.0
  0
LINE
  5
C5
330
1F
100
AcDbEntity
  8
0
100
AcDbLine
 10
1.325257746331929
 20
26.77499999999887
 30
0.0
 11
1.480103401214294
 21
26.40116951990775
 31
0.0
  0
LINE
  5
C6
330
1F
100
AcDbEntity
  8
0
100
AcDbLine
 10
1.480103401214294
 20
26.40116951990775
 30
0.0
 11
1.53291837046572
 21
25.99999999999878
 31
0.0
  0
LINE
  5
C7
330
1F
100
AcDbEntity
  8
0
100
AcDbLine
 10
1.53291837046572
 20
25.99999999999878
 30
0.0
 11
1.480103401214294
 21
25.59883048009026
 31
0.0
  0
LINE
  5
C8
330
1F
100
AcDbEntity
  8
0
100
AcDbLine
 10
1.480103401214294
 20
25.59883048009026
 30
0.0
 11
1.325257746331929
 21
25.22499999999878
 31
0.0
  0
LINE
  5
C9
330
1F
100
AcDbEntity
  8
0
100
AcDbLine
 10
-60.0
 20
-36.00000000000174
 30
0.0
 11
-160.4999999999999
 21
-36.00000000000282
 31
0.0
  0
LINE
  5
CA
330
1F
100
AcDbEntity
  8
0
100
AcDbLine
 10
-60.0
 20
-36.00000000000174
 30
0.0
 11
-60.00000000000065
 21
5.499999999999652
 31
0.0
  0
LINE
  5
CB
330
1F
100
AcDbEntity
  8
0
100
AcDbLine
 10
-60.00000000000065
 20
5.499999999999652
 30
0.0
 11
59.99999999999957
 21
5.500000000001275
 31
0.0
  0
LINE
  5
CC
330
1F
100
AcDbEntity
  8
0
100
AcDbLine
 10
59.99999999999957
 20
5.500000000001275
 30
0.0
 11
60.00000000000025
 21
-35.99999999999994
 31
0.0
  0
LINE
  5
CD
330
1F
100
AcDbEntity
  8
0
100
AcDbLine
 10
160.5000000000011
 20
-35.99999999999813
 30
0.0
 11
60.00000000000025
 21
-35.99999999999994
 31
0.0
  0
LINE
  5
CE
330
1F
100
AcDbEntity
  8
0
100
AcDbLine
 10
160.4999999999998
 20
36.00000000000273
 30
0.0
 11
160.5000000000011
 21
-35.99999999999813
 31
0.0
  0
LINE
  5
CF
330
1F
100
AcDbEntity
  8
0
100
AcDbLine
 10
-112.6576606241344
 20
-26.77500000000203
 30
0.0
 11
-112.5028149692521
 21
-26.40116951991118
 31
0.0
  0
LINE
  5
D0
330
1F
100
AcDbEntity
  8
0
100
AcDbLine
 10
-112.9039844891603
 20
-27.09601551084182
 30
0.0
 11
-112.6576606241344
 21
-26.77500000000203
 31
0.0
  0
LINE
  5
D1
330
1F
100
AcDbEntity
  8
0
100
AcDbLine
 10
-113.2249999999998
 20
-27.34233937586879
 30
0.0
 11
-112.9039844891603
 21
-27.09601551084182
 31
0.0
  0
LINE
  5
D2
330
1F
100
AcDbEntity
  8
0
100
AcDbLine
 10
-113.5988304800906
 20
-27.49718503075043
 30
0.0
 11
-113.2249999999998
 21
-27.34233937586879
 31
0.0
  0
LINE
  5
D3
330
1F
100
AcDbEntity
  8
0
100
AcDbLine
 10
-114.0000000000003
 20
-27.55000000000258
 30
0.0
 11
-113.5988304800906
 21
-27.49718503075043
 31
0.0
  0
LINE
  5
D4
330
1F
100
AcDbEntity
  8
0
100
AcDbLine
 10
-114.4011695199085
 20
-27.49718503075043
 30
0.0
 11
-114.0000000000003
 21
-27.55000000000258
 31
0.0
  0
LINE
  5
D5
330
1F
100
AcDbEntity
  8
0
100
AcDbLine
 10
-114.7749999999994
 20
-27.34233937586879
 30
0.0
 11
-114.4011695199085
 21
-27.49718503075043
 31
0.0
  0
LINE
  5
D6
330
1F
100
AcDbEntity
  8
0
100
AcDbLine
 10
-115.0960155108388
 20
-27.09601551084182
 30
0.0
 11
-114.7749999999994
 21
-27.34233937586879
 31
0.0
  0
LINE
  5
D7
330
1F
100
AcDbEntity
  8
0
100
AcDbLine
 10
-115.3423393758661
 20
-26.77500000000203
 30
0.0
 11
-115.0960155108388
 21
-27.09601551084182
 31
0.0
  0
LINE
  5
D8
330
1F
100
AcDbEntity
  8
0
100
AcDbLine
 10
-115.4971850307485
 20
-26.40116951991118
 30
0.0
 11
-115.3423393758661
 21
-26.77500000000203
 31
0.0
  0
LINE
  5
D9
330
1F
100
AcDbEntity
  8
0
100
AcDbLine
 10
-115.55
 20
-26.00000000000221
 30
0.0
 11
-115.4971850307485
 21
-26.40116951991118
 31
0.0
  0
LINE
  5
DA
330
1F
100
AcDbEntity
  8
0
100
AcDbLine
 10
-115.4971850307486
 20
-25.5988304800936
 30
0.0
 11
-115.55
 21
-26.00000000000221
 31
0.0
  0
LINE
  5
DB
330
1F
100
AcDbEntity
  8
0
100
AcDbLine
 10
-115.3423393758662
 20
-25.22500000000202
 30
0.0
 11
-115.4971850307486
 21
-25.5988304800936
 31
0.0
  0
LINE
  5
DC
330
1F
100
AcDbEntity
  8
0
100
AcDbLine
 10
-114.1870817850733
 20
27.53866838717334
 30
0.0
 11
-114.5789438105288
 21
27.43781920429669
 31
0.0
  0
LINE
  5
DD
330
1F
100
AcDbEntity
  8
0
100
AcDbLine
 10
-113.7824704451314
 20
27.534659862234
 30
0.0
 11
-114.1870817850733
 21
27.53866838717334
 31
0.0
  0
LINE
  5
DE
330
1F
100
AcDbEntity
  8
0
100
AcDbLine
 10
-113.3926833848714
 20
27.42606680382785
 30
0.0
 11
-113.7824704451314
 21
27.534659862234
 31
0.0
  0
LINE
  5
DF
330
1F
100
AcDbEntity
  8
0
100
AcDbLine
 10
-113.044283948292
 20
27.22028964942798
 30
0.0
 11
-113.3926833848714
 21
27.42606680382785
 31
0.0
  0
LINE
  5
E0
330
1F
100
AcDbEntity
  8
0
100
AcDbLine
 10
-112.7610149812422
 20
26.93135177204307
 30
0.0
 11
-113.044283948292
 21
27.22028964942798
 31
0.0
  0
LINE
  5
E1
330
1F
100
AcDbEntity
  8
0
100
AcDbLine
 10
-112.4653401377645
 20
25.78247044512817
 30
0.0
 11
-112.4613316128253
 21
26.18708178506969
 31
0.0
  0
LINE
  5
E2
330
1F
100
AcDbEntity
  8
0
100
AcDbLine
 10
-112.5739331961717
 20
25.39268338486688
 30
0.0
 11
-112.4653401377645
 21
25.78247044512817
 31
0.0
  0
LINE
  5
E3
330
1F
100
AcDbEntity
  8
0
100
AcDbLine
 10
-112.7797103505704
 20
25.04428394828901
 30
0.0
 11
-112.5739331961717
 21
25.39268338486688
 31
0.0
  0
LINE
  5
E4
330
1F
100
AcDbEntity
  8
0
100
AcDbLine
 10
-113.0686482279552
 20
24.76101498123945
 30
0.0
 11
-112.7797103505704
 21
25.04428394828901
 31
0.0
  0
LINE
  5
E5
330
1F
100
AcDbEntity
  8
0
100
AcDbLine
 10
-113.4210561894737
 20
24.56218079569862
 30
0.0
 11
-113.0686482279552
 21
24.76101498123945
 31
0.0
  0
LINE
  5
E6
330
1F
100
AcDbEntity
  8
0
100
AcDbLine
 10
-113.8129182149292
 20
24.46133161282178
 30
0.0
 11
-113.4210561894737
 21
24.56218079569862
 31
0.0
  0
LINE
  5
E7
330
1F
100
AcDbEntity
  8
0
100
AcDbLine
 10
-114.2175295548711
 20
24.46534013776166
 30
0.0
 11
-113.8129182149292
 21
24.46133161282178
 31
0.0
  0
LINE
  5
E8
330
1F
100
AcDbEntity
  8
0
100
AcDbLine
 10
-114.6073166151311
 20
24.57393319616746
 30
0.0
 11
-114.2175295548711
 21
24.46534013776166
 31
0.0
  0
LINE
  5
E9
330
1F
100
AcDbEntity
  8
0
100
AcDbLine
 10
-114.9557160517104
 20
24.77971035056751
 30
0.0
 11
-114.6073166151311
 21
24.57393319616746
 31
0.0
  0
LINE
  5
EA
330
1F
100
AcDbEntity
  8
0
100
AcDbLine
 10
-115.2389850187603
 20
25.06864822795205
 30
0.0
 11
-114.9557160517104
 21
24.77971035056751
 31
0.0
  0
LINE
  5
EB
330
1F
100
AcDbEntity
  8
0
100
AcDbLine
 10
-115.4378192043005
 20
25.42105618947044
 30
0.0
 11
-115.2389850187603
 21
25.06864822795205
 31
0.0
  0
LINE
  5
EC
330
1F
100
AcDbEntity
  8
0
100
AcDbLine
 10
-115.5386683871772
 20
25.81291821492588
 30
0.0
 11
-115.4378192043005
 21
25.42105618947044
 31
0.0
  0
LINE
  5
ED
330
1F
100
AcDbEntity
  8
0
100
AcDbLine
 10
-115.5346598622366
 20
26.2175295548674
 30
0.0
 11
-115.5386683871772
 21
25.81291821492588
 31
0.0
  0
LINE
  5
EE
330
1F
100
AcDbEntity
  8
0
100
AcDbLine
 10
-115.4260668038309
 20
26.60731661512797
 30
0.0
 11
-115.5346598622366
 21
26.2175295548674
 31
0.0
  0
LINE
  5
EF
330
1F
100
AcDbEntity
  8
0
100
AcDbLine
 10
-115.2202896494307
 20
26.95571605170656
 30
0.0
 11
-115.4260668038309
 21
26.60731661512797
 31
0.0
  0
LINE
  5
F0
330
1F
100
AcDbEntity
  8
0
100
AcDbLine
 10
-114.9313517720473
 20
27.23898501875612
 30
0.0
 11
-115.2202896494307
 21
26.95571605170656
 31
0.0
  0
LINE
  5
F1
330
1F
100
AcDbEntity
  8
0
100
AcDbLine
 10
-114.5789438105288
 20
27.43781920429669
 30
0.0
 11
-114.9313517720473
 21
27.23898501875612
 31
0.0
  0
LINE
  5
F2
330
1F
100
AcDbEntity
  8
0
100
AcDbLine
 10
112.9039844891604
 20
27.09601551083947
 30
0.0
 11
112.83748660694
 21
27.00935378349172
 31
0.0
  0
LINE
  5
F3
330
1F
100
AcDbEntity
  8
0
100
AcDbLine
 10
112.9785161115839
 20
27.15320563618415
 30
0.0
 11
112.9039844891604
 21
27.09601551083947
 31
0.0
  0
LINE
  5
F4
330
1F
100
AcDbEntity
  8
0
100
AcDbLine
 10
113.0442839482896
 20
27.22028964943105
 30
0.0
 11
112.9785161115839
 21
27.15320563618415
 31
0.0
  0
LINE
  5
F5
330
1F
100
AcDbEntity
  8
0
100
AcDbLine
 10
113.1383382726504
 20
27.27584149364756
 30
0.0
 11
113.0442839482896
 21
27.22028964943105
 31
0.0
  0
LINE
  5
F6
330
1F
100
AcDbEntity
  8
0
100
AcDbLine
 10
113.2249999999997
 20
27.34233937586662
 30
0.0
 11
113.1383382726504
 21
27.27584149364756
 31
0.0
  0
LINE
  5
F7
330
1F
100
AcDbEntity
  8
0
100
AcDbLine
 10
113.3117939126045
 20
27.37829059159987
 30
0.0
 11
113.2249999999997
 21
27.34233937586662
 31
0.0
  0
LINE
  5
F8
330
1F
100
AcDbEntity
  8
0
100
AcDbLine
 10
113.3926833848689
 20
27.42606680383128
 30
0.0
 11
113.3117939126045
 21
27.37829059159987
 31
0.0
  0
LINE
  5
F9
330
1F
100
AcDbEntity
  8
0
100
AcDbLine
 10
113.497910761116
 20
27.45538271443871
 30
0.0
 11
113.3926833848689
 21
27.42606680383128
 31
0.0
  0
LINE
  5
FA
330
1F
100
AcDbEntity
  8
0
100
AcDbLine
 10
113.5988304800905
 20
27.49718503074862
 30
0.0
 11
113.497910761116
 21
27.45538271443871
 31
0.0
  0
LINE
  5
FB
330
1F
100
AcDbEntity
  8
0
100
AcDbLine
 10
113.6919718211673
 20
27.50944732093059
 30
0.0
 11
113.5988304800905
 21
27.49718503074862
 31
0.0
  0
LINE
  5
FC
330
1F
100
AcDbEntity
  8
0
100
AcDbLine
 10
113.7824704451304
 20
27.5346598622368
 30
0.0
 11
113.6919718211673
 21
27.50944732093059
 31
0.0
  0
LINE
  5
FD
330
1F
100
AcDbEntity
  8
0
100
AcDbLine
 10
113.8916998014691
 20
27.53574200837565
 30
0.0
 11
113.7824704451304
 21
27.5346598622368
 31
0.0
  0
LINE
  5
FE
330
1F
100
AcDbEntity
  8
0
100
AcDbLine
 10
113.9999999999988
 20
27.55000000000077
 30
0.0
 11
113.8916998014691
 21
27.53574200837565
 31
0.0
  0
LINE
  5
FF
330
1F
100
AcDbEntity
  8
0
100
AcDbLine
 10
114.093141341077
 20
27.5377377098198
 30
0.0
 11
113.9999999999988
 21
27.55000000000077
 31
0.0
  0
LINE
  5
100
330
1F
100
AcDbEntity
  8
0
100
AcDbLine
 10
114.1870817850708
 20
27.53866838717659
 30
0.0
 11
114.093141341077
 21
27.5377377098198
 31
0.0
  0
LINE
  5
101
330
1F
100
AcDbEntity
  8
0
100
AcDbLine
 10
114.2928693213788
 20
27.5114430223751
 30
0.0
 11
114.1870817850708
 21
27.53866838717659
 31
0.0
  0
LINE
  5
102
330
1F
100
AcDbEntity
  8
0
100
AcDbLine
 10
114.4011695199085
 20
27.49718503074862
 30
0.0
 11
114.2928693213788
 21
27.5114430223751
 31
0.0
  0
LINE
  5
103
330
1F
100
AcDbEntity
  8
0
100
AcDbLine
 10
114.4879634325147
 20
27.461233815016
 30
0.0
 11
114.4011695199085
 21
27.49718503074862
 31
0.0
  0
LINE
  5
104
330
1F
100
AcDbEntity
  8
0
100
AcDbLine
 10
114.5789438105263
 20
27.43781920430012
 30
0.0
 11
114.4879634325147
 21
27.461233815016
 31
0.0
  0
LINE
  5
105
330
1F
100
AcDbEntity
  8
0
100
AcDbLine
 10
114.6740802810248
 20
27.38414169217626
 30
0.0
 11
114.5789438105263
 21
27.43781920430012
 31
0.0
  0
LINE
  5
106
330
1F
100
AcDbEntity
  8
0
100
AcDbLine
 10
114.7749999999994
 20
27.34233937586662
 30
0.0
 11
114.6740802810248
 21
27.38414169217626
 31
0.0
  0
LINE
  5
107
330
1F
100
AcDbEntity
  8
0
100
AcDbLine
 10
114.8495316224244
 20
27.28514925052239
 30
0.0
 11
114.7749999999994
 21
27.34233937586662
 31
0.0
  0
LINE
  5
108
330
1F
100
AcDbEntity
  8
0
100
AcDbLine
 10
114.9313517720448
 20
27.23898501875937
 30
0.0
 11
114.8495316224244
 21
27.28514925052239
 31
0.0
  0
LINE
  5
109
330
1F
100
AcDbEntity
  8
0
100
AcDbLine
 10
115.0093537834895
 20
27.16251339305916
 30
0.0
 11
114.9313517720448
 21
27.23898501875937
 31
0.0
  0
LINE
  5
10A
330
1F
100
AcDbEntity
  8
0
100
AcDbLine
 10
115.0960155108389
 20
27.09601551083947
 30
0.0
 11
115.0093537834895
 21
27.16251339305916
 31
0.0
  0
LINE
  5
10B
330
1F
100
AcDbEntity
  8
0
100
AcDbLine
 10
115.153205636183
 20
27.02148388841519
 30
0.0
 11
115.0960155108389
 21
27.09601551083947
 31
0.0
  0
LINE
  5
10C
330
1F
100
AcDbEntity
  8
0
100
AcDbLine
 10
115.2202896494297
 20
26.95571605170945
 30
0.0
 11
115.153205636183
 21
27.02148388841519
 31
0.0
  0
LINE
  5
10D
330
1F
100
AcDbEntity
  8
0
100
AcDbLine
 10
115.2758414936459
 20
26.86166172734961
 30
0.0
 11
115.2202896494297
 21
26.95571605170945
 31
0.0
  0
LINE
  5
10E
330
1F
100
AcDbEntity
  8
0
100
AcDbLine
 10
115.3423393758647
 20
26.77500000000104
 30
0.0
 11
115.2758414936459
 21
26.86166172734961
 31
0.0
  0
LINE
  5
10F
330
1F
100
AcDbEntity
  8
0
100
AcDbLine
 10
115.3782905915974
 20
26.68820608739426
 30
0.0
 11
115.3423393758647
 21
26.77500000000104
 31
0.0
  0
LINE
  5
110
330
1F
100
AcDbEntity
  8
0
100
AcDbLine
 10
115.4260668038285
 20
26.60731661513113
 30
0.0
 11
115.3782905915974
 21
26.68820608739426
 31
0.0
  0
LINE
  5
111
330
1F
100
AcDbEntity
  8
0
100
AcDbLine
 10
115.4553827144377
 20
26.50208923888424
 30
0.0
 11
115.4260668038285
 21
26.60731661513113
 31
0.0
  0
LINE
  5
112
330
1F
100
AcDbEntity
  8
0
100
AcDbLine
 10
115.4971850307471
 20
26.40116951990965
 30
0.0
 11
115.4553827144377
 21
26.50208923888424
 31
0.0
  0
LINE
  5
113
330
1F
100
AcDbEntity
  8
0
100
AcDbLine
 10
115.5094473209283
 20
26.30802817883198
 30
0.0
 11
115.4971850307471
 21
26.40116951990965
 31
0.0
  0
LINE
  5
114
330
1F
100
AcDbEntity
  8
0
100
AcDbLine
 10
115.5346598622356
 20
26.21752955487029
 30
0.0
 11
115.5094473209283
 21
26.30802817883198
 31
0.0
  0
LINE
  5
115
330
1F
100
AcDbEntity
  8
0
100
AcDbLine
 10
115.5357420083732
 20
26.10830019853046
 30
0.0
 11
115.5346598622356
 21
26.21752955487029
 31
0.0
  0
LINE
  5
116
330
1F
100
AcDbEntity
  8
0
100
AcDbLine
 10
115.5357420083732
 20
26.10830019853046
 30
0.0
 11
115.5499999999985
 21
26.00000000000058
 31
0.0
  0
LINE
  5
117
330
1F
100
AcDbEntity
  8
0
100
AcDbLine
 10
115.5377377098173
 20
25.9068586589231
 30
0.0
 11
115.5499999999985
 21
26.00000000000058
 31
0.0
  0
LINE
  5
118
330
1F
100
AcDbEntity
  8
0
100
AcDbLine
 10
115.5386683871748
 20
25.81291821492922
 30
0.0
 11
115.5377377098173
 21
25.9068586589231
 31
0.0
  0
LINE
  5
119
330
1F
100
AcDbEntity
  8
0
100
AcDbLine
 10
115.5114430223724
 20
25.70713067862194
 30
0.0
 11
115.5386683871748
 21
25.81291821492922
 31
0.0
  0
LINE
  5
11A
330
1F
100
AcDbEntity
  8
0
100
AcDbLine
 10
115.4971850307471
 20
25.59883048009233
 30
0.0
 11
115.5114430223724
 21
25.70713067862194
 31
0.0
  0
LINE
  5
11B
330
1F
100
AcDbEntity
  8
0
100
AcDbLine
 10
115.4612338150145
 20
25.51203656748474
 30
0.0
 11
115.4971850307471
 21
25.59883048009233
 31
0.0
  0
LINE
  5
11C
330
1F
100
AcDbEntity
  8
0
100
AcDbLine
 10
115.4378192042982
 20
25.4210561894736
 30
0.0
 11
115.4612338150145
 21
25.51203656748474
 31
0.0
  0
LINE
  5
11D
330
1F
100
AcDbEntity
  8
0
100
AcDbLine
 10
115.3841416921756
 20
25.32591971897526
 30
0.0
 11
115.4378192042982
 21
25.4210561894736
 31
0.0
  0
LINE
  5
11E
330
1F
100
AcDbEntity
  8
0
100
AcDbLine
 10
115.2851492505206
 20
25.15046837757594
 30
0.0
 11
115.3423393758647
 21
25.22500000000067
 31
0.0
  0
LINE
  5
11F
330
1F
100
AcDbEntity
  8
0
100
AcDbLine
 10
115.2389850187579
 20
25.06864822795539
 30
0.0
 11
115.2851492505206
 21
25.15046837757594
 31
0.0
  0
LINE
  5
120
330
1F
100
AcDbEntity
  8
0
100
AcDbLine
 10
115.1625133930577
 20
24.99064621651036
 30
0.0
 11
115.2389850187579
 21
25.06864822795539
 31
0.0
  0
LINE
  5
121
330
1F
100
AcDbEntity
  8
0
100
AcDbLine
 10
115.0214838884124
 20
24.84679436381701
 30
0.0
 11
115.0960155108389
 21
24.90398448916197
 31
0.0
  0
LINE
  5
122
330
1F
100
AcDbEntity
  8
0
100
AcDbLine
 10
114.9557160517081
 20
24.77971035057057
 30
0.0
 11
115.0214838884124
 21
24.84679436381701
 31
0.0
  0
LINE
  5
123
330
1F
100
AcDbEntity
  8
0
100
AcDbLine
 10
114.8616617273473
 20
24.72415850635451
 30
0.0
 11
114.9557160517081
 21
24.77971035057057
 31
0.0
  0
LINE
  5
124
330
1F
100
AcDbEntity
  8
0
100
AcDbLine
 10
114.6882060873932
 20
24.62170940840129
 30
0.0
 11
114.7749999999994
 21
24.65766062413473
 31
0.0
  0
LINE
  5
125
330
1F
100
AcDbEntity
  8
0
100
AcDbLine
 10
114.6073166151302
 20
24.57393319617061
 30
0.0
 11
114.6882060873932
 21
24.62170940840129
 31
0.0
  0
LINE
  5
126
330
1F
100
AcDbEntity
  8
0
100
AcDbLine
 10
114.5020892388817
 20
24.54461728556291
 30
0.0
 11
114.6073166151302
 21
24.57393319617061
 31
0.0
  0
LINE
  5
127
330
1F
100
AcDbEntity
  8
0
100
AcDbLine
 10
114.3080281788304
 20
24.49055267907157
 30
0.0
 11
114.4011695199086
 21
24.50281496925281
 31
0.0
  0
LINE
  5
128
330
1F
100
AcDbEntity
  8
0
100
AcDbLine
 10
114.2175295548688
 20
24.46534013776519
 30
0.0
 11
114.3080281788304
 21
24.49055267907157
 31
0.0
  0
LINE
  5
129
330
1F
100
AcDbEntity
  8
0
100
AcDbLine
 10
114.1083001985286
 20
24.4642579916266
 30
0.0
 11
114.2175295548688
 21
24.46534013776519
 31
0.0
  0
LINE
  5
12A
330
1F
100
AcDbEntity
  8
0
100
AcDbLine
 10
114.1083001985286
 20
24.4642579916266
 30
0.0
 11
113.9999999999989
 21
24.45000000000049
 31
0.0
  0
LINE
  5
12B
330
1F
100
AcDbEntity
  8
0
100
AcDbLine
 10
113.9068586589221
 20
24.46226229018245
 30
0.0
 11
113.9999999999989
 21
24.45000000000049
 31
0.0
  0
LINE
  5
12C
330
1F
100
AcDbEntity
  8
0
100
AcDbLine
 10
113.8129182149269
 20
24.46133161282494
 30
0.0
 11
113.9068586589221
 21
24.46226229018245
 31
0.0
  0
LINE
  5
12D
330
1F
100
AcDbEntity
  8
0
100
AcDbLine
 10
113.7071306786188
 20
24.48855697762715
 30
0.0
 11
113.8129182149269
 21
24.46133161282494
 31
0.0
  0
LINE
  5
12E
330
1F
100
AcDbEntity
  8
0
100
AcDbLine
 10
113.5120365674844
 20
24.53876618498516
 30
0.0
 11
113.5988304800906
 21
24.50281496925281
 31
0.0
  0
LINE
  5
12F
330
1F
100
AcDbEntity
  8
0
100
AcDbLine
 10
113.4210561894714
 20
24.56218079570159
 30
0.0
 11
113.5120365674844
 21
24.53876618498516
 31
0.0
  0
LINE
  5
130
330
1F
100
AcDbEntity
  8
0
100
AcDbLine
 10
113.3259197189729
 20
24.61585830782482
 30
0.0
 11
113.4210561894714
 21
24.56218079570159
 31
0.0
  0
LINE
  5
131
330
1F
100
AcDbEntity
  8
0
100
AcDbLine
 10
113.1504683775748
 20
24.71485074947923
 30
0.0
 11
113.2249999999998
 21
24.65766062413473
 31
0.0
  0
LINE
  5
132
330
1F
100
AcDbEntity
  8
0
100
AcDbLine
 10
113.0686482279543
 20
24.76101498124261
 30
0.0
 11
113.1504683775748
 21
24.71485074947923
 31
0.0
  0
LINE
  5
133
330
1F
100
AcDbEntity
  8
0
100
AcDbLine
 10
112.9906462165082
 20
24.83748660694254
 30
0.0
 11
113.0686482279543
 21
24.76101498124261
 31
0.0
  0
LINE
  5
134
330
1F
100
AcDbEntity
  8
0
100
AcDbLine
 10
112.8467943638148
 20
24.97851611158634
 30
0.0
 11
112.9039844891604
 21
24.90398448916197
 31
0.0
  0
LINE
  5
135
330
1F
100
AcDbEntity
  8
0
100
AcDbLine
 10
112.7797103505695
 20
25.04428394829208
 30
0.0
 11
112.8467943638148
 21
24.97851611158634
 31
0.0
  0
LINE
  5
136
330
1F
100
AcDbEntity
  8
0
100
AcDbLine
 10
112.7241585063519
 20
25.13833827265228
 30
0.0
 11
112.7797103505695
 21
25.04428394829208
 31
0.0
  0
LINE
  5
137
330
1F
100
AcDbEntity
  8
0
100
AcDbLine
 10
112.6217094084004
 20
25.31179391260637
 30
0.0
 11
112.657660624133
 21
25.22500000000049
 31
0.0
  0
LINE
  5
138
330
1F
100
AcDbEntity
  8
0
100
AcDbLine
 10
112.5739331961693
 20
25.39268338487049
 30
0.0
 11
112.6217094084004
 21
25.31179391260637
 31
0.0
  0
LINE
  5
139
330
1F
100
AcDbEntity
  8
0
100
AcDbLine
 10
112.5446172855615
 20
25.49791076111801
 30
0.0
 11
112.5739331961693
 21
25.39268338487049
 31
0.0
  0
LINE
  5
13A
330
1F
100
AcDbEntity
  8
0
100
AcDbLine
 10
112.4905526790694
 20
25.69197182116964
 30
0.0
 11
112.5028149692507
 21
25.59883048009242
 31
0.0
  0
LINE
  5
13B
330
1F
100
AcDbEntity
  8
0
100
AcDbLine
 10
112.4653401377636
 20
25.78247044513124
 30
0.0
 11
112.4905526790694
 21
25.69197182116964
 31
0.0
  0
LINE
  5
13C
330
1F
100
AcDbEntity
  8
0
100
AcDbLine
 10
112.4642579916245
 20
25.89169980147143
 30
0.0
 11
112.4653401377636
 21
25.78247044513124
 31
0.0
  0
LINE
  5
13D
330
1F
100
AcDbEntity
  8
0
100
AcDbLine
 10
112.4885569776254
 20
26.2928693213804
 30
0.0
 11
112.461331612823
 21
26.18708178507222
 31
0.0
  0
LINE
  5
13E
330
1F
100
AcDbEntity
  8
0
100
AcDbLine
 10
112.7148507494772
 20
26.84953162242532
 30
0.0
 11
112.657660624133
 21
26.77500000000086
 31
0.0
  0
LINE
  5
13F
330
1F
100
AcDbEntity
  8
0
100
AcDbLine
 10
112.7610149812413
 20
26.93135177204623
 30
0.0
 11
112.7148507494772
 21
26.84953162242532
 31
0.0
  0
LINE
  5
140
330
1F
100
AcDbEntity
  8
0
100
AcDbLine
 10
112.83748660694
 20
27.00935378349172
 30
0.0
 11
112.7610149812413
 21
26.93135177204623
 31
0.0
  0
LINE
  5
141
330
1F
100
AcDbEntity
  8
0
100
AcDbLine
 10
148.5028149692515
 20
0.4011695199115898
 30
0.0
 11
148.6576606241339
 21
0.77500000000217
 31
0.0
  0
LINE
  5
142
330
1F
100
AcDbEntity
  8
0
100
AcDbLine
 10
148.6576606241339
 20
0.77500000000217
 30
0.0
 11
148.9039844891598
 21
1.096015510841234
 31
0.0
  0
LINE
  5
143
330
1F
100
AcDbEntity
  8
0
100
AcDbLine
 10
149.2249999999992
 20
1.342339375868022
 30
0.0
 11
149.59883048009
 21
1.497185030750297
 31
0.0
  0
LINE
  5
144
330
1F
100
AcDbEntity
  8
0
100
AcDbLine
 10
149.59883048009
 20
1.497185030750297
 30
0.0
 11
149.9999999999997
 21
1.550000000002084
 31
0.0
  0
LINE
  5
145
330
1F
100
AcDbEntity
  8
0
100
AcDbLine
 10
149.9999999999997
 20
1.550000000002084
 30
0.0
 11
150.401169519908
 21
1.497185030750297
 31
0.0
  0
LINE
  5
146
330
1F
100
AcDbEntity
  8
0
100
AcDbLine
 10
151.0960155108383
 20
1.096015510841234
 30
0.0
 11
150.7749999999989
 21
1.342339375867932
 31
0.0
  0
LINE
  5
147
330
1F
100
AcDbEntity
  8
0
100
AcDbLine
 10
151.3423393758656
 20
0.7750000000024406
 30
0.0
 11
151.0960155108383
 21
1.096015510841234
 31
0.0
  0
LINE
  5
148
330
1F
100
AcDbEntity
  8
0
100
AcDbLine
 10
151.497185030748
 20
0.4011695199115898
 30
0.0
 11
151.3423393758656
 21
0.7750000000024406
 31
0.0
  0
LINE
  5
149
330
1F
100
AcDbEntity
  8
0
100
AcDbLine
 10
151.5499999999994
 20
0.000000000002256
 30
0.0
 11
151.497185030748
 21
0.4011695199115898
 31
0.0
  0
LINE
  5
14A
330
1F
100
AcDbEntity
  8
0
100
AcDbLine
 10
151.497185030748
 20
-0.4011695199069876
 30
0.0
 11
151.5499999999994
 21
0.000000000002256
 31
0.0
  0
LINE
  5
14B
330
1F
100
AcDbEntity
  8
0
100
AcDbLine
 10
151.3423393758657
 20
-0.7749999999981995
 30
0.0
 11
151.497185030748
 21
-0.4011695199069876
 31
0.0
  0
LINE
  5
14C
330
1F
100
AcDbEntity
  8
0
100
AcDbLine
 10
151.0960155108384
 20
-1.096015510836992
 30
0.0
 11
151.3423393758657
 21
-0.7749999999981995
 31
0.0
  0
LINE
  5
14D
330
1F
100
AcDbEntity
  8
0
100
AcDbLine
 10
150.7749999999989
 20
-1.34233937586351
 30
0.0
 11
151.0960155108384
 21
-1.096015510836992
 31
0.0
  0
LINE
  5
14E
330
1F
100
AcDbEntity
  8
0
100
AcDbLine
 10
150.4011695199081
 20
-1.497185030745334
 30
0.0
 11
150.7749999999989
 21
-1.34233937586351
 31
0.0
  0
LINE
  5
14F
330
1F
100
AcDbEntity
  8
0
100
AcDbLine
 10
149.9999999999998
 20
-1.549999999998113
 30
0.0
 11
150.4011695199081
 21
-1.497185030745334
 31
0.0
  0
LINE
  5
150
330
1F
100
AcDbEntity
  8
0
100
AcDbLine
 10
149.5988304800901
 20
-1.497185030745334
 30
0.0
 11
149.9999999999998
 21
-1.549999999998113
 31
0.0
  0
LINE
  5
151
330
1F
100
AcDbEntity
  8
0
100
AcDbLine
 10
149.2249999999993
 20
-1.3423393758636
 30
0.0
 11
149.5988304800901
 21
-1.497185030745334
 31
0.0
  0
LINE
  5
152
330
1F
100
AcDbEntity
  8
0
100
AcDbLine
 10
148.9039844891599
 20
-1.096015510837083
 30
0.0
 11
149.2249999999993
 21
-1.3423393758636
 31
0.0
  0
LINE
  5
153
330
1F
100
AcDbEntity
  8
0
100
AcDbLine
 10
148.657660624134
 20
-0.7749999999979287
 30
0.0
 11
148.9039844891599
 21
-1.096015510837083
 31
0.0
  0
LINE
  5
154
330
1F
100
AcDbEntity
  8
0
100
AcDbLine
 10
148.5028149692516
 20
-0.4011695199069876
 30
0.0
 11
148.657660624134
 21
-0.7749999999979287
 31
0.0
  0
LINE
  5
155
330
1F
100
AcDbEntity
  8
0
100
AcDbLine
 10
148.4500000000001
 20
0.0000000000020755
 30
0.0
 11
148.5028149692516
 21
-0.4011695199069876
 31
0.0
  0
LINE
  5
156
330
1F
100
AcDbEntity
  8
0
100
AcDbLine
 10
114.401169519908
 20
-27.49718503074682
 30
0.0
 11
113.9999999999998
 21
-27.54999999999969
 31
0.0
  0
LINE
  5
157
330
1F
100
AcDbEntity
  8
0
100
AcDbLine
 10
112.9039844891613
 20
-27.09601551083857
 30
0.0
 11
112.6576606241339
 21
-26.77499999999878
 31
0.0
  0
LINE
  5
158
330
1F
100
AcDbEntity
  8
0
100
AcDbLine
 10
112.5028149692516
 20
-26.40116951990901
 30
0.0
 11
112.4500000000001
 21
-25.9999999999986
 31
0.0
  0
LINE
  5
159
330
1F
100
AcDbEntity
  8
0
100
AcDbLine
 10
112.4500000000001
 20
-25.9999999999986
 30
0.0
 11
112.5028149692516
 21
-25.59883048009071
 31
0.0
  0
LINE
  5
15A
330
1F
100
AcDbEntity
  8
0
100
AcDbLine
 10
114.7750000000003
 20
-24.65766062413274
 30
0.0
 11
115.0960155108383
 21
-24.90398448915971
 31
0.0
  0
LINE
  5
15B
330
1F
100
AcDbEntity
  8
0
100
AcDbLine
 10
115.0960155108383
 20
-27.09601551083821
 30
0.0
 11
114.7750000000003
 21
-27.34233937586482
 31
0.0
  0
LINE
  5
15C
330
1F
100
AcDbEntity
  8
0
100
AcDbLine
 10
114.7750000000003
 20
-27.34233937586482
 30
0.0
 11
114.401169519908
 21
-27.49718503074682
 31
0.0
  0
LINE
  5
15D
330
1F
100
AcDbEntity
  8
0
100
AcDbLine
 10
1.078933881306043
 20
24.9039844891598
 30
0.0
 11
0.7579183704666185
 21
24.65766062413283
 31
0.0
  0
LINE
  5
15E
330
1F
100
AcDbEntity
  8
0
100
AcDbLine
 10
0.7579183704666185
 20
24.65766062413283
 30
0.0
 11
0.3840878903757676
 21
24.50281496925101
 31
0.0
  0
LINE
  5
15F
330
1F
100
AcDbEntity
  8
0
100
AcDbLine
 10
0.3840878903757676
 20
24.50281496925101
 30
0.0
 11
-0.0170816295339272
 21
24.44999999999832
 31
0.0
  0
LINE
  5
160
330
1F
100
AcDbEntity
  8
0
100
AcDbLine
 10
-0.0170816295339272
 20
24.44999999999832
 30
0.0
 11
-0.4182511494421781
 21
24.50281496925101
 31
0.0
  0
LINE
  5
161
330
1F
100
AcDbEntity
  8
0
100
AcDbLine
 10
-0.4182511494421781
 20
24.50281496925101
 30
0.0
 11
-0.7920816295344728
 21
24.65766062413301
 31
0.0
  0
LINE
  5
162
330
1F
100
AcDbEntity
  8
0
100
AcDbLine
 10
-0.7920816295344728
 20
24.65766062413301
 30
0.0
 11
-1.113097140372454
 21
24.90398448915998
 31
0.0
  0
LINE
  5
163
330
1F
100
AcDbEntity
  8
0
100
AcDbLine
 10
-1.113097140372454
 20
24.90398448915998
 30
0.0
 11
-1.359421005399783
 21
25.22499999999896
 31
0.0
  0
ENDSEC
  0
SECTION
  2
OBJECTS
  0
DICTIONARY
  5
C
330
0
100
AcDbDictionary
  3
ACAD_GROUP
350
D
  3
ACAD_LAYOUT
350
1A
  3
ACAD_MATERIAL
350
43
  3
ACAD_MLEADERSTYLE
350
186
  3
ACAD_MLINESTYLE
350
17
  3
ACAD_PLOTSETTINGS
350
19
  3
ACAD_SCALELIST
350
47
  3
ACAD_VISUALSTYLE
350
2A
  3
ACDBHEADERROUNDTRIPXREC
350
164
  3
ACDBVARIABLEDICTIONARY
350
184
  0
DICTIONARY
  5
18B
330
8
100
AcDbDictionary
280
     1
  3
ACAD_XREC_ROUNDTRIP
360
18C
  0
DICTIONARY
  5
D
102
{ACAD_REACTORS
330
C
102
}
330
C
100
AcDbDictionary
  0
DICTIONARY
  5
1A
102
{ACAD_REACTORS
330
C
102
}
330
C
100
AcDbDictionary
  0
DICTIONARY
  5
43
102
{ACAD_REACTORS
330
C
102
}
330
C
100
AcDbDictionary
  3
BYBLOCK
350
45
  3
BYLAYER
350
44
  3
GLOBAL
350
46
  0
DICTIONARY
  5
186
102
{ACAD_REACTORS
330
C
102
}
330
C
100
AcDbDictionary
  0
DICTIONARY
  5
17
102
{ACAD_REACTORS
330
C
102
}
330
C
100
AcDbDictionary
  3
STANDARD
350
18
  0
DICTIONARY
  5
19
102
{ACAD_REACTORS
330
C
102
}
330
C
100
AcDbDictionary
  0
DICTIONARY
  5
47
102
{ACAD_REACTORS
330
C
102
}
330
C
100
AcDbDictionary
  3
A0
350
48
  3
A1
350
49
  3
A2
350
4A
  3
A3
350
4B
  3
A4
350
4C
  3
A5
350
4D
  3
A6
350
4E
  3
A7
350
4F
  3
A8
350
50
  3
A9
350
51
  3
B0
350
52
  3
B1
350
53
  3
B2
350
54
  3
B3
350
55
  3
B4
350
56
  3
B5
350
57
  3
B6
350
58
  3
B7
350
59
  3
B8
350
5A
  3
B9
350
5B
  3
C0
350
5C
  3
C1
350
5D
  3
C2
350
5E
  3
C3
350
5F
  3
C4
350
60
  3
C5
350
61
  3
C6
350
62
  3
C7
350
63
  3
C8
350
64
  3
C9
350
65
  3
D0
350
66
  3
D1
350
67
  3
D2
350
68
  0
DICTIONARY
  5
2A
102
{ACAD_REACTORS
330
C
102
}
330
C
100
AcDbDictionary
  3
2DWIREFRAME
350
2F
  3
BASIC
350
32
  3
BRIGHTEN
350
36
  3
COLORCHANGE
350
3A
  3
CONCEPTUAL
350
34
  3
DIM
350
35
  3
EDGECOLOROFF
350
3D
  3
FACEPATTERN
350
39
  3
FLAT
350
2B
  3
FLATWITHEDGES
350
2C
  3
GOURAUD
350
2D
  3
GOURAUDWITHEDGES
350
2E
  3
HIDDEN
350
31
  3
JITTEROFF
350
3B
  3
LINEPATTERN
350
38
  3
OVERHANGOFF
350
3C
  3
REALISTIC
350
33
  3
SHADED
350
42
  3
SHADED_WITH_EDGES
350
41
  3
SHADES_OF_GRAY
350
3E
  3
SKETCHY
350
3F
  3
THICKEN
350
37
  3
WIREFRAME
350
30
  3
X-RAY
350
40
  0
DICTIONARY
  5
164
102
{ACAD_REACTORS
330
C
102
}
330
C
100
AcDbDictionary
  3
CEPSNTYPE
350
16D
  3
DIMSTYLEDATA
350
183
  3
FINGERPRINTGUID
350
16E
  3
HYPERLINKBASE
350
167
  3
INSUNITS
350
16C
  3
LAYOUTDICT
350
169
  3
LWETCUNION
350
16B
  3
PLOTSETDICT
350
16A
  3
PSVPSCALE
350
170
  3
PUCSBASE
350
173
  3
PUCSORGBACK
350
179
  3
PUCSORGBOTTOM
350
175
  3
PUCSORGFRONT
350
178
  3
PUCSORGLEFT
350
176
  3
PUCSORGRIGHT
350
177
  3
PUCSORGTOP
350
174
  3
PUCSORTHOREF
350
171
  3
PUCSORTHOVIEW
350
172
  3
STYLESHEET
350
168
  3
TSTACKALIGN
350
165
  3
TSTACKSIZE
350
166
  3
UCSBASE
350
17C
  3
UCSORGBACK
350
182
  3
UCSORGBOTTOM
350
17E
  3
UCSORGFRONT
350
181
  3
UCSORGLEFT
350
17F
  3
UCSORGRIGHT
350
180
  3
UCSORGTOP
350
17D
  3
UCSORTHOREF
350
17A
  3
UCSORTHOVIEW
350
17B
  3
VERSIONGUID
350
16F
  0
DICTIONARY
  5
184
102
{ACAD_REACTORS
330
C
102
}
330
C
100
AcDbDictionary
  3
CANNOSCALE
350
18D
  3
DIMASSOC
350
189
  3
HIDETEXT
350
18A
  3
MSLTSCALE
350
18E
  0
XRECORD
  5
18C
102
{ACAD_REACTORS
330
18B
102
}
330
18B
100
AcDbXrecord
102
VTR_0.000_0.000_1.000_1.000_GRIDDISPLAY
 70
     3
102
VTR_0.000_0.000_1.000_1.000_GRIDMAJOR
 70
     5
102
VTR_0.000_0.000_1.000_1.000_DEFAULTLIGHTING
280
     1
102
VTR_0.000_0.000_1.000_1.000_DEFAULTLIGHTINGTYPE
 70
     1
102
VTR_0.000_0.000_1.000_1.000_BRIGHTNESS
141
0.0
102
VTR_0.000_0.000_1.000_1.000_CONTRAST
142
0.0
  0
MATERIAL
  5
45
102
{ACAD_REACTORS
330
43
102
}
102
{ACAD_XDICTIONARY
360
191
102
}
330
43
100
AcDbMaterial
  1
BYBLOCK
  0
MATERIAL
  5
44
102
{ACAD_REACTORS
330
43
102
}
102
{ACAD_XDICTIONARY
360
18F
102
}
330
43
100
AcDbMaterial
  1
BYLAYER
  0
MATERIAL
  5
46
102
{ACAD_REACTORS
330
43
102
}
102
{ACAD_XDICTIONARY
360
193
102
}
330
43
100
AcDbMaterial
  1
GLOBAL
  0
MLINESTYLE
  5
18
102
{ACAD_REACTORS
330
17
102
}
330
17
100
AcDbMlineStyle
  2
Standard
 70
     0
  3

 62
   256
 51
90.0
 52
90.0
 71
     2
 49
0.5
 62
   256
  6
BYLAYER
 49
-0.5
 62
   256
  6
BYLAYER
  0
ACAD_PROXY_OBJECT
  5
48
102
{ACAD_REACTORS
330
47
102
}
330
47
100
AcDbProxyObject
 90
      499
 91
      503
 93
       41
310
903313A31580
  0
ACAD_PROXY_OBJECT
  5
49
102
{ACAD_REACTORS
330
47
102
}
330
47
100
AcDbProxyObject
 90
      499
 91
      503
 93
      105
310
903313A324000000000000004000
  0
ACAD_PROXY_OBJECT
  5
4A
102
{ACAD_REACTORS
330
47
102
}
330
47
100
AcDbProxyObject
 90
      499
 91
      503
 93
      105
310
903313A344000000000000104000
  0
ACAD_PROXY_OBJECT
  5
4B
102
{ACAD_REACTORS
330
47
102
}
330
47
100
AcDbProxyObject
 90
      499
 91
      503
 93
      105
310
903313A354000000000000144000
  0
ACAD_PROXY_OBJECT
  5
4C
102
{ACAD_REACTORS
330
47
102
}
330
47
100
AcDbProxyObject
 90
      499
 91
      503
 93
      105
310
903313A384000000000000204000
  0
ACAD_PROXY_OBJECT
  5
4D
102
{ACAD_REACTORS
330
47
102
}
330
47
100
AcDbProxyObject
 90
      499
 91
      503
 93
      113
310
904313A31304000000000000244000
  0
ACAD_PROXY_OBJECT
  5
4E
102
{ACAD_REACTORS
330
47
102
}
330
47
100
AcDbProxyObject
 90
      499
 91
      503
 93
      113
310
904313A31364000000000000304000
  0
ACAD_PROXY_OBJECT
  5
4F
102
{ACAD_REACTORS
330
47
102
}
330
47
100
AcDbProxyObject
 90
      499
 91
      503
 93
      113
310
904313A32304000000000000344000
  0
ACAD_PROXY_OBJECT
  5
50
102
{ACAD_REACTORS
330
47
102
}
330
47
100
AcDbProxyObject
 90
      499
 91
      503
 93
      113
310
904313A333040000000000003E4000
  0
ACAD_PROXY_OBJECT
  5
51
102
{ACAD_REACTORS
330
47
102
}
330
47
100
AcDbProxyObject
 90
      499
 91
      503
 93
      113
310
904313A34304000000000000444000
  0
ACAD_PROXY_OBJECT
  5
52
102
{ACAD_REACTORS
330
47
102
}
330
47
100
AcDbProxyObject
 90
      499
 91
      503
 93
      113
310
904313A35304000000000000494000
  0
ACAD_PROXY_OBJECT
  5
53
102
{ACAD_REACTORS
330
47
102
}
330
47
100
AcDbProxyObject
 90
      499
 91
      503
 93
      121
310
905313A3130304000000000000594000
  0
ACAD_PROXY_OBJECT
  5
54
102
{ACAD_REACTORS
330
47
102
}
330
47
100
AcDbProxyObject
 90
      499
 91
      503
 93
      105
310
903323A310000000000000010100
  0
ACAD_PROXY_OBJECT
  5
55
102
{ACAD_REACTORS
330
47
102
}
330
47
100
AcDbProxyObject
 90
      499
 91
      503
 93
      105
310
903343A310000000000000410100
  0
ACAD_PROXY_OBJECT
  5
56
102
{ACAD_REACTORS
330
47
102
}
330
47
100
AcDbProxyObject
 90
      499
 91
      503
 93
      105
310
903383A310000000000000810100
  0
ACAD_PROXY_OBJECT
  5
57
102
{ACAD_REACTORS
330
47
102
}
330
47
100
AcDbProxyObject
 90
      499
 91
      503
 93
      113
310
90431303A310000000000000910100
  0
ACAD_PROXY_OBJECT
  5
58
102
{ACAD_REACTORS
330
47
102
}
330
47
100
AcDbProxyObject
 90
      499
 91
      503
 93
      121
310
9053130303A310000000000001650100
  0
ACAD_PROXY_OBJECT
  5
59
102
{ACAD_REACTORS
330
47
102
}
330
47
100
AcDbProxyObject
 90
      499
 91
      503
 93
      257
310
90E312F31323822203D2031272D3022000000000000200FC000000000000284000
  0
ACAD_PROXY_OBJECT
  5
5A
102
{ACAD_REACTORS
330
47
102
}
330
47
100
AcDbProxyObject
 90
      499
 91
      503
 93
      249
310
90D312F363422203D2031272D3022000000000000240FC000000000000284000
  0
ACAD_PROXY_OBJECT
  5
5B
102
{ACAD_REACTORS
330
47
102
}
330
47
100
AcDbProxyObject
 90
      499
 91
      503
 93
      249
310
90D312F333222203D2031272D3022000000000000280FC000000000000284000
  0
ACAD_PROXY_OBJECT
  5
5C
102
{ACAD_REACTORS
330
47
102
}
330
47
100
AcDbProxyObject
 90
      499
 91
      503
 93
      249
310
90D312F313622203D2031272D30220000000000002C0FC000000000000284000
  0
ACAD_PROXY_OBJECT
  5
5D
102
{ACAD_REACTORS
330
47
102
}
330
47
100
AcDbProxyObject
 90
      499
 91
      503
 93
      249
310
90D332F333222203D2031272D30220000000000002E0FC000000000000284000
  0
ACAD_PROXY_OBJECT
  5
5E
102
{ACAD_REACTORS
330
47
102
}
330
47
100
AcDbProxyObject
 90
      499
 91
      503
 93
      241
310
90C312F3822203D2031272D3022000000000000300FC000000000000284000
  0
ACAD_PROXY_OBJECT
  5
5F
102
{ACAD_REACTORS
330
47
102
}
330
47
100
AcDbProxyObject
 90
      499
 91
      503
 93
      249
310
90D332F313622203D2031272D3022000000000000320FC000000000000284000
  0
ACAD_PROXY_OBJECT
  5
60
102
{ACAD_REACTORS
330
47
102
}
330
47
100
AcDbProxyObject
 90
      499
 91
      503
 93
      241
310
90C312F3422203D2031272D3022000000000000340FC000000000000284000
  0
ACAD_PROXY_OBJECT
  5
61
102
{ACAD_REACTORS
330
47
102
}
330
47
100
AcDbProxyObject
 90
      499
 91
      503
 93
      241
310
90C332F3822203D2031272D3022000000000000360FC000000000000284000
  0
ACAD_PROXY_OBJECT
  5
62
102
{ACAD_REACTORS
330
47
102
}
330
47
100
AcDbProxyObject
 90
      499
 91
      503
 93
      241
310
90C312F3222203D2031272D3022000000000000380FC000000000000284000
  0
ACAD_PROXY_OBJECT
  5
63
102
{ACAD_REACTORS
330
47
102
}
330
47
100
AcDbProxyObject
 90
      499
 91
      503
 93
      241
310
90C332F3422203D2031272D30220000000000003A0FC000000000000284000
  0
ACAD_PROXY_OBJECT
  5
64
102
{ACAD_REACTORS
330
47
102
}
330
47
100
AcDbProxyObject
 90
      499
 91
      503
 93
      161
310
90A3122203D2031272D30224000000000000284000
  0
ACAD_PROXY_OBJECT
  5
65
102
{ACAD_REACTORS
330
47
102
}
330
47
100
AcDbProxyObject
 90
      499
 91
      503
 93
      257
310
90E312D312F3222203D2031272D30220000000000003E0FC000000000000284000
  0
ACAD_PROXY_OBJECT
  5
66
102
{ACAD_REACTORS
330
47
102
}
330
47
100
AcDbProxyObject
 90
      499
 91
      503
 93
      225
310
90A3322203D2031272D302200000000000002100000000000000284000
  0
ACAD_PROXY_OBJECT
  5
67
102
{ACAD_REACTORS
330
47
102
}
330
47
100
AcDbProxyObject
 90
      499
 91
      503
 93
      225
310
90A3622203D2031272D302200000000000006100000000000000284000
  0
ACAD_PROXY_OBJECT
  5
68
102
{ACAD_REACTORS
330
47
102
}
330
47
100
AcDbProxyObject
 90
      499
 91
      503
 93
      249
310
90D31272D3022203D2031272D30220000000000000A100000000000000284000
  0
ACAD_PROXY_OBJECT
  5
2F
102
{ACAD_REACTORS
330
2A
102
}
330
2A
100
AcDbProxyObject
 90
      499
 91
      501
 93
      436
310
42CC9915DA5C99599C985B595049028333333333333E33F0000000000000F90107901411070040501600405405064090741402480A0340
1001
ACAD
1000
AcDbSavedByObjectVersion
1070
     0
  0
ACAD_PROXY_OBJECT
  5
32
102
{ACAD_REACTORS
330
2A
102
}
330
2A
100
AcDbProxyObject
 90
      499
 91
      501
 93
      388
310
4150985CDA58D07406404333333333333E33F0000000000000F90107A41107004050150841D405064090741402480A0350
1001
ACAD
1000
AcDbSavedByObjectVersion
1070
     0
  0
ACAD_PROXY_OBJECT
  5
36
102
{ACAD_REACTORS
330
2A
102
}
330
2A
100
AcDbProxyObject
 90
      499
 91
      501
 93
      428
310
42109C9A59DA1D195B90C409028333333333333E33F0000000000000F9010790141107004050150841D405064090741402480A029950
1001
ACAD
1000
AcDbSavedByObjectVersion
1070
     0
  0
ACAD_PROXY_OBJECT
  5
3A
102
{ACAD_REACTORS
330
2A
102
}
330
2A
100
AcDbProxyObject
 90
      499
 91
      501
 93
      452
310
42D0DBDB1BDC90DA185B99D95104090240C333333333333E33F0000000000000F90108901411070040501508421405064090741402480A0350
1001
ACAD
1000
AcDbSavedByObjectVersion
1070
     0
  0
ACAD_PROXY_OBJECT
  5
34
102
{ACAD_REACTORS
330
2A
102
}
330
2A
100
AcDbProxyObject
 90
      499
 91
      501
 93
      500
310
4290DBDB98D95C1D1D585B10940D028333333333333E33F0000000000000F90107902409070040501000000000018199010841D405064090740C02480A0340
1001
ACAD
1000
AcDbSavedByObjectVersion
1070
     0
  0
ACAD_PROXY_OBJECT
  5
35
102
{ACAD_REACTORS
330
2A
102
}
330
2A
100
AcDbProxyObject
 90
      499
 91
      501
 93
      412
310
40D11A5B50B409028333333333333E33F0000000000000F9010790141107004050150841D405064090741402480A02677FFFFFD0
1001
ACAD
1000
AcDbSavedByObjectVersion
1070
     0
  0
ACAD_PROXY_OBJECT
  5
3D
102
{ACAD_REACTORS
330
2A
102
}
330
2A
100
AcDbProxyObject
 90
      499
 91
      501
 93
      452
310
43115919D950DBDB1BDC93D999916409028333333333333E33F0000000000000F9010790141107004050150841D405064090741402480A0350
1001
ACAD
1000
AcDbSavedByObjectVersion
1070
     0
  0
ACAD_PROXY_OBJECT
  5
39
102
{ACAD_REACTORS
330
2A
102
}
330
2A
100
AcDbProxyObject
 90
      499
 91
      501
 93
      444
310
42D19858D95C185D1D195C9B90F409028333333333333E33F0000000000000F9010790141107004050150841D405064090741402480A0350
1001
ACAD
1000
AcDbSavedByObjectVersion
1070
     0
  0
ACAD_PROXY_OBJECT
  5
2B
102
{ACAD_REACTORS
330
2A
102
}
330
2A
100
AcDbProxyObject
 90
      499
 91
      501
 93
      380
310
41119B185D240901404333333333333E33F0000000000000F9010740A907004050150841D405064090741402480A1B50
1001
ACAD
1000
AcDbSavedByObjectVersion
1070
     0
  0
ACAD_PROXY_OBJECT
  5
2C
102
{ACAD_REACTORS
330
2A
102
}
330
2A
100
AcDbProxyObject
 90
      499
 91
      501
 93
      468
310
43519B185D15DA5D1A115919D95CD0140901404333333333333E33F0000000000000F90107409019070040501600405405064090741402480A1B50
1001
ACAD
1000
AcDbSavedByObjectVersion
1070
     0
  0
ACAD_PROXY_OBJECT
  5
2D
102
{ACAD_REACTORS
330
2A
102
}
330
2A
100
AcDbProxyObject
 90
      499
 91
      501
 93
      404
310
41D1DBDD5C985D5910240902404333333333333E33F0000000000000F9010740A9070040501641D405064090741402480A1B50
1001
ACAD
1000
AcDbSavedByObjectVersion
1070
     0
  0
ACAD_PROXY_OBJECT
  5
2E
102
{ACAD_REACTORS
330
2A
102
}
330
2A
100
AcDbProxyObject
 90
      499
 91
      501
 93
      492
310
4411DBDD5C985D5915DA5D1A115919D95CD0340902404333333333333E33F0000000000000F90107409019070040501600405405064090741402480A1B50
1001
ACAD
1000
AcDbSavedByObjectVersion
1070
     0
  0
ACAD_PROXY_OBJECT
  5
31
102
{ACAD_REACTORS
330
2A
102
}
330
2A
100
AcDbProxyObject
 90
      499
 91
      501
 93
      476
310
41921A5919195B90640502408333333333333E33F0000000000000F901079024090700405020000000000001110200405405064090740C02480A0340
1001
ACAD
1000
AcDbSavedByObjectVersion
1070
     0
  0
ACAD_PROXY_OBJECT
  5
3B
102
{ACAD_REACTORS
330
2A
102
}
330
2A
100
AcDbProxyObject
 90
      499
 91
      501
 93
      428
310
42529A5D1D195C93D999914409028333333333333E33F0000000000000F9010790141107004050150A41D405064090741402480A0350
1001
ACAD
1000
AcDbSavedByObjectVersion
1070
     0
  0
ACAD_PROXY_OBJECT
  5
38
102
{ACAD_REACTORS
330
2A
102
}
330
2A
100
AcDbProxyObject
 90
      499
 91
      501
 93
      444
310
42D31A5B995C185D1D195C9B90E409028333333333333E33F0000000000000F9010790141107004050750841D405064090741402483A0350
1001
ACAD
1000
AcDbSavedByObjectVersion
1070
     0
  0
ACAD_PROXY_OBJECT
  5
3C
102
{ACAD_REACTORS
330
2A
102
}
330
2A
100
AcDbProxyObject
 90
      499
 91
      501
 93
      444
310
42D3DD995C9A185B99D3D999915409028333333333333E33F0000000000000F9010790141107004050150941D405064090741402480A0350
1001
ACAD
1000
AcDbSavedByObjectVersion
1070
     0
  0
ACAD_PROXY_OBJECT
  5
33
102
{ACAD_REACTORS
330
2A
102
}
330
2A
100
AcDbProxyObject
 90
      499
 91
      501
 93
      428
310
425499585B1A5CDD1A58D08409038333333333333E33F0000000000000F9010740A907004050150800405405064090740C02480A1B40
1001
ACAD
1000
AcDbSavedByObjectVersion
1070
     0
  0
ACAD_PROXY_OBJECT
  5
42
102
{ACAD_REACTORS
330
2A
102
}
330
2A
100
AcDbProxyObject
 90
      499
 91
      501
 93
      420
310
4194DA1859195911B40902404333333333333E33F0000000000000F9010740A41107004050150800405405064090840C02480A0B40
1001
ACAD
1000
AcDbSavedByObjectVersion
1070
     0
  0
ACAD_PROXY_OBJECT
  5
41
102
{ACAD_REACTORS
330
2A
102
}
330
2A
100
AcDbProxyObject
 90
      499
 91
      501
 93
      516
310
4454DA18591959081DDA5D1A08195919D95CD1A40902404333333333333E33F0000000000000F901074090142907004050250800405405064090740C02480A0B40
1001
ACAD
1000
AcDbSavedByObjectVersion
1070
     0
  0
ACAD_PROXY_OBJECT
  5
3E
102
{ACAD_REACTORS
330
2A
102
}
330
2A
100
AcDbProxyObject
 90
      499
 91
      501
 93
      532
310
4394DA1859195CC81BD98811DC985E5174090240C333333333333E33F0000000000000F901079024090741D01000000000000111010841D405064090740C02480A0340
1001
ACAD
1000
AcDbSavedByObjectVersion
1070
     0
  0
ACAD_PROXY_OBJECT
  5
3F
102
{ACAD_REACTORS
330
2A
102
}
330
2A
100
AcDbProxyObject
 90
      499
 91
      501
 93
      476
310
41D4DAD95D18DA1E51840502408333333333333E33F0000000000000F901079024090741D01000000000000111010B41D405064090741802480A0340
1001
ACAD
1000
AcDbSavedByObjectVersion
1070
     0
  0
ACAD_PROXY_OBJECT
  5
37
102
{ACAD_REACTORS
330
2A
102
}
330
2A
100
AcDbProxyObject
 90
      499
 91
      501
 93
      412
310
41D51A1A58DAD95B90D409028333333333333E33F0000000000000F9010790141107004050150C41D405064090741402480A0350
1001
ACAD
1000
AcDbSavedByObjectVersion
1070
     0
  0
ACAD_PROXY_OBJECT
  5
30
102
{ACAD_REACTORS
330
2A
102
}
330
2A
100
AcDbProxyObject
 90
      499
 91
      501
 93
      420
310
4255DA5C99599C985B595059028333333333333E33F0000000000000F90107901411070040501600405405064090740C02480A0340
1001
ACAD
1000
AcDbSavedByObjectVersion
1070
     0
  0
ACAD_PROXY_OBJECT
  5
40
102
{ACAD_REACTORS
330
2A
102
}
330
2A
100
AcDbProxyObject
 90
      499
 91
      501
 93
      404
310
41560B54985E51940902404000000000000E03F0000000000000F9010740501907004050150841D405064090740C02480A1B40
1001
ACAD
1000
AcDbSavedByObjectVersion
1070
     0
  0
XRECORD
  5
16D
102
{ACAD_REACTORS
330
164
102
}
330
164
100
AcDbXrecord
 90
        0
  0
XRECORD
  5
183
102
{ACAD_REACTORS
330
164
102
}
330
164
100
AcDbXrecord
1000
DSTYLE
1002
{
1070
   171
 70
     2
1070
   143
 40
25.4
1070
   274
 70
     2
1070
    41
 40
0.18
1070
   141
 40
0.09
1070
   271
 70
     4
1070
    43
 40
0.38
1070
   278
 70
    46
1070
    44
 40
0.18
1070
    42
 40
0.0625
1070
   147
 40
0.09
1070
    77
 70
     0
1070
   272
 70
     4
1070
    73
 70
     1
1070
   172
 70
     0
1070
    74
 70
     1
1070
   283
 70
     1
1070
   340
340
11
1070
   140
 40
0.18
1070
   284
 70
     0
1070
    78
 70
     0
1002
}
  0
XRECORD
  5
16E
102
{ACAD_REACTORS
330
164
102
}
330
164
100
AcDbXrecord
  1
{DF4DAEE2-93F3-4161-863A-698D84FD0226}
  0
XRECORD
  5
167
102
{ACAD_REACTORS
330
164
102
}
330
164
100
AcDbXrecord
  1

  0
XRECORD
  5
16C
102
{ACAD_REACTORS
330
164
102
}
330
164
100
AcDbXrecord
 90
        4
  0
XRECORD
  5
169
102
{ACAD_REACTORS
330
164
102
}
330
164
100
AcDbXrecord
340
1A
  0
XRECORD
  5
16B
102
{ACAD_REACTORS
330
164
102
}
330
164
100
AcDbXrecord
 90
    10781
  0
XRECORD
  5
16A
102
{ACAD_REACTORS
330
164
102
}
330
164
100
AcDbXrecord
340
19
  0
XRECORD
  5
170
102
{ACAD_REACTORS
330
164
102
}
330
164
100
AcDbXrecord
 40
0.0
  0
XRECORD
  5
173
102
{ACAD_REACTORS
330
164
102
}
330
164
100
AcDbXrecord
340
0
  0
XRECORD
  5
179
102
{ACAD_REACTORS
330
164
102
}
330
164
100
AcDbXrecord
 10
0.0
 20
0.0
 30
0.0
  0
XRECORD
  5
175
102
{ACAD_REACTORS
330
164
102
}
330
164
100
AcDbXrecord
 10
0.0
 20
0.0
 30
0.0
  0
XRECORD
  5
178
102
{ACAD_REACTORS
330
164
102
}
330
164
100
AcDbXrecord
 10
0.0
 20
0.0
 30
0.0
  0
XRECORD
  5
176
102
{ACAD_REACTORS
330
164
102
}
330
164
100
AcDbXrecord
 10
0.0
 20
0.0
 30
0.0
  0
XRECORD
  5
177
102
{ACAD_REACTORS
330
164
102
}
330
164
100
AcDbXrecord
 10
0.0
 20
0.0
 30
0.0
  0
XRECORD
  5
174
102
{ACAD_REACTORS
330
164
102
}
330
164
100
AcDbXrecord
 10
0.0
 20
0.0
 30
0.0
  0
XRECORD
  5
171
102
{ACAD_REACTORS
330
164
102
}
330
164
100
AcDbXrecord
340
0
  0
XRECORD
  5
172
102
{ACAD_REACTORS
330
164
102
}
330
164
100
AcDbXrecord
 70
     0
  0
XRECORD
  5
168
102
{ACAD_REACTORS
330
164
102
}
330
164
100
AcDbXrecord
  1

  0
XRECORD
  5
165
102
{ACAD_REACTORS
330
164
102
}
330
164
100
AcDbXrecord
 90
        1
  0
XRECORD
  5
166
102
{ACAD_REACTORS
330
164
102
}
330
164
100
AcDbXrecord
 90
       70
  0
XRECORD
  5
17C
102
{ACAD_REACTORS
330
164
102
}
330
164
100
AcDbXrecord
340
0
  0
XRECORD
  5
182
102
{ACAD_REACTORS
330
164
102
}
330
164
100
AcDbXrecord
 10
0.0
 20
0.0
 30
0.0
  0
XRECORD
  5
17E
102
{ACAD_REACTORS
330
164
102
}
330
164
100
AcDbXrecord
 10
0.0
 20
0.0
 30
0.0
  0
XRECORD
  5
181
102
{ACAD_REACTORS
330
164
102
}
330
164
100
AcDbXrecord
 10
0.0
 20
0.0
 30
0.0
  0
XRECORD
  5
17F
102
{ACAD_REACTORS
330
164
102
}
330
164
100
AcDbXrecord
 10
0.0
 20
0.0
 30
0.0
  0
XRECORD
  5
180
102
{ACAD_REACTORS
330
164
102
}
330
164
100
AcDbXrecord
 10
0.0
 20
0.0
 30
0.0
  0
XRECORD
  5
17D
102
{ACAD_REACTORS
330
164
102
}
330
164
100
AcDbXrecord
 10
0.0
 20
0.0
 30
0.0
  0
XRECORD
  5
17A
102
{ACAD_REACTORS
330
164
102
}
330
164
100
AcDbXrecord
340
0
  0
XRECORD
  5
17B
102
{ACAD_REACTORS
330
164
102
}
330
164
100
AcDbXrecord
 70
     0
  0
XRECORD
  5
16F
102
{ACAD_REACTORS
330
164
102
}
330
164
100
AcDbXrecord
  1
{FAEB1C32-E019-11D5-929B-00C0DF256EC4}
  0
DICTIONARYVAR
  5
18D
102
{ACAD_REACTORS
330
184
102
}
330
184
100
DictionaryVariables
280
     0
  1
1:1
  0
DICTIONARYVAR
  5
189
102
{ACAD_REACTORS
330
184
102
}
330
184
100
DictionaryVariables
280
     0
  1
2
  0
DICTIONARYVAR
  5
18A
102
{ACAD_REACTORS
330
184
102
}
330
184
100
DictionaryVariables
280
     0
  1
1
  0
DICTIONARYVAR
  5
18E
102
{ACAD_REACTORS
330
184
102
}
330
184
100
DictionaryVariables
280
     0
  1
1
  0
DICTIONARY
  5
191
330
45
100
AcDbDictionary
280
     1
  3
ACAD_XREC_ROUNDTRIP
360
192
  0
DICTIONARY
  5
18F
330
44
100
AcDbDictionary
280
     1
  3
ACAD_XREC_ROUNDTRIP
360
190
  0
DICTIONARY
  5
193
330
46
100
AcDbDictionary
280
     1
  3
ACAD_XREC_ROUNDTRIP
360
194
  0
XRECORD
  5
192
102
{ACAD_REACTORS
330
191
102
}
330
191
100
AcDbXrecord
102
MATERIAL
148
0.0
149
0.0
149
0.0
 93
        0
 94
      127
282
     0
 72
     1
 77
     1
171
     1
175
     1
179
     1
273
     0
  0
XRECORD
  5
190
102
{ACAD_REACTORS
330
18F
102
}
330
18F
100
AcDbXrecord
102
MATERIAL
148
0.0
149
0.0
149
0.0
 93
        0
 94
      127
282
     0
 72
     1
 77
     1
171
     1
175
     1
179
     1
273
     0
  0
XRECORD
  5
194
102
{ACAD_REACTORS
330
193
102
}
330
193
100
AcDbXrecord
102
MATERIAL
148
0.0
149
0.0
149
0.0
 93
        0
 94
      127
282
     0
 72
     1
 77
     1
171
     1
175
     1
179
     1
273
     0
  0
ENDSEC
  0
EOF
