  0
SECTION
  2
HEADER
  9
$ACADVER
  1
AC1014
  9
$ACADMAINTVER
 70
     9
  9
$DWGCODEPAGE
  3
ANSI_1252
  9
$INSBASE
 10
0.0
 20
0.0
 30
0.0
  9
$EXTMIN
 10
1.000000000000000E+20
 20
1.000000000000000E+20
 30
1.000000000000000E+20
  9
$EXTMAX
 10
-1.000000000000000E+20
 20
-1.000000000000000E+20
 30
-1.000000000000000E+20
  9
$LIMMIN
 10
0.0
 20
0.0
  9
$LIMMAX
 10
12.0
 20
9.0
  9
$ORTHOMODE
 70
     0
  9
$REGENMODE
 70
     1
  9
$FILLMODE
 70
     1
  9
$QTEXTMODE
 70
     0
  9
$MIRRTEXT
 70
     1
  9
$DRAGMODE
 70
     2
  9
$LTSCALE
 40
1.0
  9
$OSMODE
 70
    37
  9
$ATTMODE
 70
     1
  9
$TEXTSIZE
 40
0.2
  9
$TRACEWID
 40
0.05
  9
$TEXTSTYLE
  7
STANDARD
  9
$CLAYER
  8
0
  9
$CELTYPE
  6
BYLAYER
  9
$CECOLOR
 62
   256
  9
$CELTSCALE
 40
1.0
  9
$DELOBJ
 70
     1
  9
$DISPSILH
 70
     0
  9
$DIMSCALE
 40
1.0
  9
$DIMASZ
 40
0.18
  9
$DIMEXO
 40
0.0625
  9
$DIMDLI
 40
0.38
  9
$DIMRND
 40
0.0
  9
$DIMDLE
 40
0.0
  9
$DIMEXE
 40
0.18
  9
$DIMTP
 40
0.0
  9
$DIMTM
 40
0.0
  9
$DIMTXT
 40
0.18
  9
$DIMCEN
 40
0.09
  9
$DIMTSZ
 40
0.0
  9
$DIMTOL
 70
     0
  9
$DIMLIM
 70
     0
  9
$DIMTIH
 70
     1
  9
$DIMTOH
 70
     1
  9
$DIMSE1
 70
     0
  9
$DIMSE2
 70
     0
  9
$DIMTAD
 70
     0
  9
$DIMZIN
 70
     0
  9
$DIMBLK
  1

  9
$DIMASO
 70
     1
  9
$DIMSHO
 70
     1
  9
$DIMPOST
  1

  9
$DIMAPOST
  1

  9
$DIMALT
 70
     0
  9
$DIMALTD
 70
     2
  9
$DIMALTF
 40
25.4
  9
$DIMLFAC
 40
1.0
  9
$DIMTOFL
 70
     0
  9
$DIMTVP
 40
0.0
  9
$DIMTIX
 70
     0
  9
$DIMSOXD
 70
     0
  9
$DIMSAH
 70
     0
  9
$DIMBLK1
  1

  9
$DIMBLK2
  1

  9
$DIMSTYLE
  2
STANDARD
  9
$DIMCLRD
 70
     0
  9
$DIMCLRE
 70
     0
  9
$DIMCLRT
 70
     0
  9
$DIMTFAC
 40
1.0
  9
$DIMGAP
 40
0.09
  9
$DIMJUST
 70
     0
  9
$DIMSD1
 70
     0
  9
$DIMSD2
 70
     0
  9
$DIMTOLJ
 70
     1
  9
$DIMTZIN
 70
     0
  9
$DIMALTZ
 70
     0
  9
$DIMALTTZ
 70
     0
  9
$DIMFIT
 70
     3
  9
$DIMUPT
 70
     0
  9
$DIMUNIT
 70
     2
  9
$DIMDEC
 70
     4
  9
$DIMTDEC
 70
     4
  9
$DIMALTU
 70
     2
  9
$DIMALTTD
 70
     2
  9
$DIMTXSTY
  7
STANDARD
  9
$DIMAUNIT
 70
     0
  9
$LUNITS
 70
     2
  9
$LUPREC
 70
     4
  9
$SKETCHINC
 40
0.1
  9
$FILLETRAD
 40
0.5
  9
$AUNITS
 70
     0
  9
$AUPREC
 70
     0
  9
$MENU
  1
.
  9
$ELEVATION
 40
0.0
  9
$PELEVATION
 40
0.0
  9
$THICKNESS
 40
0.0
  9
$LIMCHECK
 70
     0
  9
$CHAMFERA
 40
0.0
  9
$CHAMFERB
 40
0.0
  9
$CHAMFERC
 40
0.0
  9
$CHAMFERD
 40
0.0
  9
$SKPOLY
 70
     0
  9
$TDCREATE
 40
2457694.880768079
  9
$TDUPDATE
 40
2457694.880805486
  9
$TDINDWG
 40
0.0000000116
  9
$TDUSRTIMER
 40
0.0000000116
  9
$USRTIMER
 70
     1
  9
$ANGBASE
 50
0.0
  9
$ANGDIR
 70
     0
  9
$PDMODE
 70
     0
  9
$PDSIZE
 40
0.0
  9
$PLINEWID
 40
0.0
  9
$COORDS
 70
     1
  9
$SPLFRAME
 70
     0
  9
$SPLINETYPE
 70
     6
  9
$SPLINESEGS
 70
     8
  9
$ATTDIA
 70
     0
  9
$ATTREQ
 70
     1
  9
$HANDLING
 70
     1
  9
$HANDSEED
  5
31A
  9
$SURFTAB1
 70
     6
  9
$SURFTAB2
 70
     6
  9
$SURFTYPE
 70
     6
  9
$SURFU
 70
     6
  9
$SURFV
 70
     6
  9
$UCSNAME
  2

  9
$UCSORG
 10
0.0
 20
0.0
 30
0.0
  9
$UCSXDIR
 10
1.0
 20
0.0
 30
0.0
  9
$UCSYDIR
 10
0.0
 20
1.0
 30
0.0
  9
$PUCSNAME
  2

  9
$PUCSORG
 10
0.0
 20
0.0
 30
0.0
  9
$PUCSXDIR
 10
1.0
 20
0.0
 30
0.0
  9
$PUCSYDIR
 10
0.0
 20
1.0
 30
0.0
  9
$USERI1
 70
     0
  9
$USERI2
 70
     0
  9
$USERI3
 70
     0
  9
$USERI4
 70
     0
  9
$USERI5
 70
     0
  9
$USERR1
 40
0.0
  9
$USERR2
 40
0.0
  9
$USERR3
 40
0.0
  9
$USERR4
 40
0.0
  9
$USERR5
 40
0.0
  9
$WORLDVIEW
 70
     1
  9
$SHADEDGE
 70
     3
  9
$SHADEDIF
 70
    70
  9
$TILEMODE
 70
     1
  9
$MAXACTVP
 70
    64
  9
$PINSBASE
 10
0.0
 20
0.0
 30
0.0
  9
$PLIMCHECK
 70
     0
  9
$PEXTMIN
 10
1.000000000000000E+20
 20
1.000000000000000E+20
 30
1.000000000000000E+20
  9
$PEXTMAX
 10
-1.000000000000000E+20
 20
-1.000000000000000E+20
 30
-1.000000000000000E+20
  9
$PLIMMIN
 10
0.0
 20
0.0
  9
$PLIMMAX
 10
12.0
 20
9.0
  9
$UNITMODE
 70
     0
  9
$VISRETAIN
 70
     1
  9
$PLINEGEN
 70
     0
  9
$PSLTSCALE
 70
     1
  9
$TREEDEPTH
 70
  3020
  9
$PICKSTYLE
 70
     1
  9
$CMLSTYLE
  2
STANDARD
  9
$CMLJUST
 70
     0
  9
$CMLSCALE
 40
1.0
  9
$PROXYGRAPHICS
 70
     1
  9
$MEASUREMENT
 70
     1
  0
ENDSEC
  0
SECTION
  2
CLASSES
  0
CLASS
  1
ACDBDICTIONARYWDFLT
  2
AcDbDictionaryWithDefault
  3
ObjectDBX Classes
 90
        0
280
     0
281
     0
  0
CLASS
  1
VISUALSTYLE
  2
AcDbVisualStyle
  3
ObjectDBX Classes
 90
     4095
280
     0
281
     0
  0
CLASS
  1
MATERIAL
  2
AcDbMaterial
  3
ObjectDBX Classes
 90
     1153
280
     0
281
     0
  0
CLASS
  1
SCALE
  2
AcDbScale
  3
ObjectDBX Classes
 90
     1153
280
     0
281
     0
  0
CLASS
  1
SUN
  2
AcDbSun
  3
SCENEOE
 90
     1153
280
     0
281
     0
  0
CLASS
  1
DICTIONARYVAR
  2
AcDbDictionaryVar
  3
ObjectDBX Classes
 90
        0
280
     0
281
     0
  0
CLASS
  1
XRECORD
  2
AcDbXrecord
  3
ObjectDBX Classes
 90
        0
280
     0
281
     0
  0
CLASS
  1
LWPOLYLINE
  2
AcDbPolyline
  3
ObjectDBX Classes
 90
        0
280
     0
281
     1
  0
CLASS
  1
HATCH
  2
AcDbHatch
  3
ObjectDBX Classes
 90
        0
280
     0
281
     1
  0
CLASS
  1
ACDBPLACEHOLDER
  2
AcDbPlaceHolder
  3
ObjectDBX Classes
 90
        0
280
     0
281
     0
  0
CLASS
  1
LAYOUT
  2
AcDbLayout
  3
ObjectDBX Classes
 90
        0
280
     0
281
     0
  0
ENDSEC
  0
SECTION
  2
TABLES
  0
TABLE
  2
VPORT
  5
8
102
{ACAD_XDICTIONARY
360
310
102
}
330
0
100
AcDbSymbolTable
 70
     1
  0
VPORT
  5
29
330
8
100
AcDbSymbolTableRecord
100
AcDbViewportTableRecord
  2
*ACTIVE
 70
     0
 10
0.0
 20
0.0
 11
1.0
 21
1.0
 12
0.0
 22
0.0
 13
0.0
 23
0.0
 14
0.5
 24
0.5
 15
0.5
 25
0.5
 16
0.0
 26
0.0
 36
1.0
 17
0.0
 27
0.0
 37
-1000.0
 40
318.9824015210537
 41
1.725158562367864
 42
50.0
 43
796.7298008127726
 44
1872.752712232367
 50
0.0
 51
0.0
 71
     0
 72
   100
 73
     1
 74
     3
 75
     0
 76
     0
 77
     0
 78
     0
  0
ENDTAB
  0
TABLE
  2
LTYPE
  5
5
330
0
100
AcDbSymbolTable
 70
     1
  0
LTYPE
  5
14
330
5
100
AcDbSymbolTableRecord
100
AcDbLinetypeTableRecord
  2
BYBLOCK
 70
     0
  3

 72
    65
 73
     0
 40
0.0
  0
LTYPE
  5
15
330
5
100
AcDbSymbolTableRecord
100
AcDbLinetypeTableRecord
  2
BYLAYER
 70
     0
  3

 72
    65
 73
     0
 40
0.0
  0
LTYPE
  5
16
330
5
100
AcDbSymbolTableRecord
100
AcDbLinetypeTableRecord
  2
CONTINUOUS
 70
     0
  3
Solid line
 72
    65
 73
     0
 40
0.0
  0
ENDTAB
  0
TABLE
  2
LAYER
  5
2
330
0
100
AcDbSymbolTable
 70
     3
  0
LAYER
  5
10
330
2
100
AcDbSymbolTableRecord
100
AcDbLayerTableRecord
  2
0
 70
     0
 62
     7
  6
CONTINUOUS
  0
LAYER
  5
6A
330
2
100
AcDbSymbolTableRecord
100
AcDbLayerTableRecord
  2
PROFILEEDGES
 70
     0
 62
     7
  6
CONTINUOUS
  0
LAYER
  5
6B
330
2
100
AcDbSymbolTableRecord
100
AcDbLayerTableRecord
  2
SECTIONCUTEDGES
 70
     0
 62
     7
  6
CONTINUOUS
  0
ENDTAB
  0
TABLE
  2
STYLE
  5
3
330
0
100
AcDbSymbolTable
 70
     1
  0
STYLE
  5
11
330
3
100
AcDbSymbolTableRecord
100
AcDbTextStyleTableRecord
  2
STANDARD
 70
     0
 40
0.0
 41
1.0
 50
0.0
 71
     0
 42
0.2
  3
txt
  4

  0
ENDTAB
  0
TABLE
  2
VIEW
  5
6
330
0
100
AcDbSymbolTable
 70
     0
  0
ENDTAB
  0
TABLE
  2
UCS
  5
7
330
0
100
AcDbSymbolTable
 70
     0
  0
ENDTAB
  0
TABLE
  2
APPID
  5
9
330
0
100
AcDbSymbolTable
 70
     1
  0
APPID
  5
12
330
9
100
AcDbSymbolTableRecord
100
AcDbRegAppTableRecord
  2
ACAD
 70
     0
  0
ENDTAB
  0
TABLE
  2
DIMSTYLE
  5
A
330
0
100
AcDbSymbolTable
 70
     1
  0
DIMSTYLE
105
27
330
A
100
AcDbSymbolTableRecord
100
AcDbDimStyleTableRecord
  2
STANDARD
 70
     0
  3

  4

  5

  6

  7

 40
1.0
 41
0.18
 42
0.0625
 43
0.38
 44
0.18
 45
0.0
 46
0.0
 47
0.0
 48
0.0
140
0.18
141
0.09
142
0.0
143
25.4
144
1.0
145
0.0
146
1.0
147
0.09
 71
     0
 72
     0
 73
     1
 74
     1
 75
     0
 76
     0
 77
     0
 78
     0
170
     0
171
     2
172
     0
173
     0
174
     0
175
     0
176
     0
177
     0
178
     0
270
     2
271
     4
272
     4
273
     2
274
     2
340
11
275
     0
280
     0
281
     0
282
     0
283
     1
284
     0
285
     0
286
     0
287
     3
288
     0
  0
ENDTAB
  0
TABLE
  2
BLOCK_RECORD
  5
1
330
0
100
AcDbSymbolTable
 70
     1
  0
BLOCK_RECORD
  5
1F
330
1
100
AcDbSymbolTableRecord
100
AcDbBlockTableRecord
  2
*MODEL_SPACE
  0
BLOCK_RECORD
  5
1B
330
1
100
AcDbSymbolTableRecord
100
AcDbBlockTableRecord
  2
*PAPER_SPACE
  0
ENDTAB
  0
ENDSEC
  0
SECTION
  2
BLOCKS
  0
BLOCK
  5
20
330
1F
100
AcDbEntity
  8
0
100
AcDbBlockBegin
  2
*MODEL_SPACE
 70
     0
 10
0.0
 20
0.0
 30
0.0
  3
*MODEL_SPACE
  1

  0
ENDBLK
  5
21
330
1F
100
AcDbEntity
  8
0
100
AcDbBlockEnd
  0
BLOCK
  5
1C
330
1B
100
AcDbEntity
 67
     1
  8
0
100
AcDbBlockBegin
  2
*PAPER_SPACE
 70
     0
 10
0.0
 20
0.0
 30
0.0
  3
*PAPER_SPACE
  1

  0
ENDBLK
  5
1D
330
1B
100
AcDbEntity
 67
     1
  8
0
100
AcDbBlockEnd
  0
ENDSEC
  0
SECTION
  2
ENTITIES
  0
LINE
  5
6C
330
1F
100
AcDbEntity
  8
0
100
AcDbLine
 10
203.9988343189138
 20
-129.901173122899
 30
0.0
 11
203.9905303330801
 21
-71.90117312289901
 31
0.0
  0
LINE
  5
6D
330
1F
100
AcDbEntity
  8
0
100
AcDbLine
 10
-114.0011656810861
 20
-129.9011731228992
 30
0.0
 11
203.9988343189138
 21
-129.901173122899
 31
0.0
  0
LINE
  5
6E
330
1F
100
AcDbEntity
  8
0
100
AcDbLine
 10
203.9988343189138
 20
136.0988268771011
 30
0.0
 11
-114.0011656810861
 21
136.098826877101
 31
0.0
  0
LINE
  5
6F
330
1F
100
AcDbEntity
  8
0
100
AcDbLine
 10
168.9988343189146
 20
16.09882687710101
 30
0.0
 11
168.9988343189146
 21
-12.90117312289907
 31
0.0
  0
LINE
  5
70
330
1F
100
AcDbEntity
  8
0
100
AcDbLine
 10
182.0988343189152
 20
16.09882687710101
 30
0.0
 11
168.9988343189146
 21
16.09882687710101
 31
0.0
  0
LINE
  5
71
330
1F
100
AcDbEntity
  8
0
100
AcDbLine
 10
182.0988343189152
 20
-12.90117312289907
 30
0.0
 11
182.0988343189152
 21
16.09882687710101
 31
0.0
  0
LINE
  5
72
330
1F
100
AcDbEntity
  8
0
100
AcDbLine
 10
168.9988343189146
 20
-12.90117312289907
 30
0.0
 11
182.0988343189152
 21
-12.90117312289907
 31
0.0
  0
LINE
  5
73
330
1F
100
AcDbEntity
  8
0
100
AcDbLine
 10
175.7774008358583
 20
22.13035870593363
 30
0.0
 11
175.2427539742252
 21
22.10698856715463
 31
0.0
  0
LINE
  5
74
330
1F
100
AcDbEntity
  8
0
100
AcDbLine
 10
176.299878684456
 20
22.01455573634935
 30
0.0
 11
175.7774008358583
 21
22.13035870593363
 31
0.0
  0
LINE
  5
75
330
1F
100
AcDbEntity
  8
0
100
AcDbLine
 10
176.7745815180736
 20
21.76747143940552
 30
0.0
 11
176.299878684456
 21
22.01455573634935
 31
0.0
  0
LINE
  5
76
330
1F
100
AcDbEntity
  8
0
100
AcDbLine
 10
177.1691591230823
 20
21.40594420161271
 30
0.0
 11
176.7745815180736
 21
21.76747143940552
 31
0.0
  0
LINE
  5
77
330
1F
100
AcDbEntity
  8
0
100
AcDbLine
 10
177.4567216877711
 20
20.95461150677454
 30
0.0
 11
177.1691591230823
 21
21.40594420161271
 31
0.0
  0
LINE
  5
78
330
1F
100
AcDbEntity
  8
0
100
AcDbLine
 10
177.6176722985766
 20
20.44423093218167
 30
0.0
 11
177.4567216877711
 21
20.95461150677454
 31
0.0
  0
LINE
  5
79
330
1F
100
AcDbEntity
  8
0
100
AcDbLine
 10
177.6410424373556
 20
19.90958407054884
 30
0.0
 11
177.6176722985766
 21
20.44423093218167
 31
0.0
  0
LINE
  5
7A
330
1F
100
AcDbEntity
  8
0
100
AcDbLine
 10
177.5252394677708
 20
19.38710622195065
 30
0.0
 11
177.6410424373556
 21
19.90958407054884
 31
0.0
  0
LINE
  5
7B
330
1F
100
AcDbEntity
  8
0
100
AcDbLine
 10
177.2781551708273
 20
18.91240338833348
 30
0.0
 11
177.5252394677708
 21
19.38710622195065
 31
0.0
  0
LINE
  5
7C
330
1F
100
AcDbEntity
  8
0
100
AcDbLine
 10
176.9166279330344
 20
18.51782578332488
 30
0.0
 11
177.2781551708273
 21
18.91240338833348
 31
0.0
  0
LINE
  5
7D
330
1F
100
AcDbEntity
  8
0
100
AcDbLine
 10
176.4652952381965
 20
18.23026321863589
 30
0.0
 11
176.9166279330344
 21
18.51782578332488
 31
0.0
  0
LINE
  5
7E
330
1F
100
AcDbEntity
  8
0
100
AcDbLine
 10
175.9549146636038
 20
18.0693126078305
 30
0.0
 11
176.4652952381965
 21
18.23026321863589
 31
0.0
  0
LINE
  5
7F
330
1F
100
AcDbEntity
  8
0
100
AcDbLine
 10
175.4202678019707
 20
18.0459424690515
 30
0.0
 11
175.9549146636038
 21
18.0693126078305
 31
0.0
  0
LINE
  5
80
330
1F
100
AcDbEntity
  8
0
100
AcDbLine
 10
174.8977899533723
 20
18.16174543863569
 30
0.0
 11
175.4202678019707
 21
18.0459424690515
 31
0.0
  0
LINE
  5
81
330
1F
100
AcDbEntity
  8
0
100
AcDbLine
 10
174.4230871197554
 20
18.40882973557961
 30
0.0
 11
174.8977899533723
 21
18.16174543863569
 31
0.0
  0
LINE
  5
82
330
1F
100
AcDbEntity
  8
0
100
AcDbLine
 10
174.0285095147467
 20
18.77035697337233
 30
0.0
 11
174.4230871197554
 21
18.40882973557961
 31
0.0
  0
LINE
  5
83
330
1F
100
AcDbEntity
  8
0
100
AcDbLine
 10
173.7409469500579
 20
19.22168966821059
 30
0.0
 11
174.0285095147467
 21
18.77035697337233
 31
0.0
  0
LINE
  5
84
330
1F
100
AcDbEntity
  8
0
100
AcDbLine
 10
173.5799963392524
 20
19.73207024280346
 30
0.0
 11
173.7409469500579
 21
19.22168966821059
 31
0.0
  0
LINE
  5
85
330
1F
100
AcDbEntity
  8
0
100
AcDbLine
 10
173.5566262004734
 20
20.2667171044362
 30
0.0
 11
173.5799963392524
 21
19.73207024280346
 31
0.0
  0
LINE
  5
86
330
1F
100
AcDbEntity
  8
0
100
AcDbLine
 10
173.6724291700575
 20
20.78919495303439
 30
0.0
 11
173.5566262004734
 21
20.2667171044362
 31
0.0
  0
LINE
  5
87
330
1F
100
AcDbEntity
  8
0
100
AcDbLine
 10
173.9195134670017
 20
21.26389778665165
 30
0.0
 11
173.6724291700575
 21
20.78919495303439
 31
0.0
  0
LINE
  5
88
330
1F
100
AcDbEntity
  8
0
100
AcDbLine
 10
174.2810407047946
 20
21.65847539166016
 30
0.0
 11
173.9195134670017
 21
21.26389778665165
 31
0.0
  0
LINE
  5
89
330
1F
100
AcDbEntity
  8
0
100
AcDbLine
 10
174.7323733996325
 20
21.94603795634915
 30
0.0
 11
174.2810407047946
 21
21.65847539166016
 31
0.0
  0
LINE
  5
8A
330
1F
100
AcDbEntity
  8
0
100
AcDbLine
 10
175.2427539742252
 20
22.10698856715463
 30
0.0
 11
174.7323733996325
 21
21.94603795634915
 31
0.0
  0
LINE
  5
8B
330
1F
100
AcDbEntity
  8
0
100
AcDbLine
 10
177.3318479101285
 20
-18.02568598337122
 30
0.0
 11
177.5562200381903
 21
-17.53983569705024
 31
0.0
  0
LINE
  5
8C
330
1F
100
AcDbEntity
  8
0
100
AcDbLine
 10
176.9893737697669
 20
-18.43690954270588
 30
0.0
 11
177.3318479101285
 21
-18.02568598337122
 31
0.0
  0
LINE
  5
8D
330
1F
100
AcDbEntity
  8
0
100
AcDbLine
 10
176.5521366638042
 20
-18.74548216906523
 30
0.0
 11
176.9893737697669
 21
-18.43690954270588
 31
0.0
  0
LINE
  5
8E
330
1F
100
AcDbEntity
  8
0
100
AcDbLine
 10
176.0499335784437
 20
-18.93037514790261
 30
0.0
 11
176.5521366638042
 21
-18.74548216906523
 31
0.0
  0
LINE
  5
8F
330
1F
100
AcDbEntity
  8
0
100
AcDbLine
 10
175.5169888240229
 20
-18.97898832826072
 30
0.0
 11
176.0499335784437
 21
-18.93037514790261
 31
0.0
  0
LINE
  5
90
330
1F
100
AcDbEntity
  8
0
100
AcDbLine
 10
174.9896217048235
 20
-18.88800880223509
 30
0.0
 11
175.5169888240229
 21
-18.97898832826072
 31
0.0
  0
LINE
  5
91
330
1F
100
AcDbEntity
  8
0
100
AcDbLine
 10
174.5037714185022
 20
-18.66363667417367
 30
0.0
 11
174.9896217048235
 21
-18.88800880223509
 31
0.0
  0
LINE
  5
92
330
1F
100
AcDbEntity
  8
0
100
AcDbLine
 10
174.0925478591679
 20
-18.32116253381147
 30
0.0
 11
174.5037714185022
 21
-18.66363667417367
 31
0.0
  0
LINE
  5
93
330
1F
100
AcDbEntity
  8
0
100
AcDbLine
 10
173.7839752328082
 20
-17.8839254278486
 30
0.0
 11
174.0925478591679
 21
-18.32116253381147
 31
0.0
  0
LINE
  5
94
330
1F
100
AcDbEntity
  8
0
100
AcDbLine
 10
173.5990822539712
 20
-17.3817223424883
 30
0.0
 11
173.7839752328082
 21
-17.8839254278486
 31
0.0
  0
LINE
  5
95
330
1F
100
AcDbEntity
  8
0
100
AcDbLine
 10
173.5504690736132
 20
-16.84877758806771
 30
0.0
 11
173.5990822539712
 21
-17.3817223424883
 31
0.0
  0
LINE
  5
96
330
1F
100
AcDbEntity
  8
0
100
AcDbLine
 10
173.6414485996387
 20
-16.32141046886813
 30
0.0
 11
173.5504690736132
 21
-16.84877758806771
 31
0.0
  0
LINE
  5
97
330
1F
100
AcDbEntity
  8
0
100
AcDbLine
 10
173.8658207276997
 20
-15.83556018254733
 30
0.0
 11
173.6414485996387
 21
-16.32141046886813
 31
0.0
  0
LINE
  5
98
330
1F
100
AcDbEntity
  8
0
100
AcDbLine
 10
174.2082948680621
 20
-15.42433662321248
 30
0.0
 11
173.8658207276997
 21
-15.83556018254733
 31
0.0
  0
LINE
  5
99
330
1F
100
AcDbEntity
  8
0
100
AcDbLine
 10
174.6455319740248
 20
-15.11576399685331
 30
0.0
 11
174.2082948680621
 21
-15.42433662321248
 31
0.0
  0
LINE
  5
9A
330
1F
100
AcDbEntity
  8
0
100
AcDbLine
 10
175.1477350593853
 20
-14.93087101801594
 30
0.0
 11
174.6455319740248
 21
-15.11576399685331
 31
0.0
  0
LINE
  5
9B
330
1F
100
AcDbEntity
  8
0
100
AcDbLine
 10
175.6806798138061
 20
-14.88225783765783
 30
0.0
 11
175.1477350593853
 21
-14.93087101801594
 31
0.0
  0
LINE
  5
9C
330
1F
100
AcDbEntity
  8
0
100
AcDbLine
 10
176.2080469330055
 20
-14.97323736368346
 30
0.0
 11
175.6806798138061
 21
-14.88225783765783
 31
0.0
  0
LINE
  5
9D
330
1F
100
AcDbEntity
  8
0
100
AcDbLine
 10
176.6938972193261
 20
-15.1976094917447
 30
0.0
 11
176.2080469330055
 21
-14.97323736368346
 31
0.0
  0
LINE
  5
9E
330
1F
100
AcDbEntity
  8
0
100
AcDbLine
 10
177.1051207786611
 20
-15.5400836321069
 30
0.0
 11
176.6938972193261
 21
-15.1976094917447
 31
0.0
  0
LINE
  5
9F
330
1F
100
AcDbEntity
  8
0
100
AcDbLine
 10
177.4136934050201
 20
-15.97732073806977
 30
0.0
 11
177.1051207786611
 21
-15.5400836321069
 31
0.0
  0
LINE
  5
A0
330
1F
100
AcDbEntity
  8
0
100
AcDbLine
 10
177.5985863838578
 20
-16.47952382343007
 30
0.0
 11
177.4136934050201
 21
-15.97732073806977
 31
0.0
  0
LINE
  5
A1
330
1F
100
AcDbEntity
  8
0
100
AcDbLine
 10
177.6471995642158
 20
-17.01246857785066
 30
0.0
 11
177.5985863838578
 21
-16.47952382343007
 31
0.0
  0
LINE
  5
A2
330
1F
100
AcDbEntity
  8
0
100
AcDbLine
 10
177.5562200381903
 20
-17.53983569705024
 30
0.0
 11
177.6471995642158
 21
-17.01246857785066
 31
0.0
  0
LINE
  5
A3
330
1F
100
AcDbEntity
  8
0
100
AcDbLine
 10
-53.88163710231908
 20
128.1708137059959
 30
0.0
 11
-53.64233350616917
 21
127.8445313228508
 31
0.0
  0
LINE
  5
A4
330
1F
100
AcDbEntity
  8
0
100
AcDbLine
 10
-53.64233350616917
 20
127.8445313228508
 30
0.0
 11
-53.49563207716392
 21
127.4674304140629
 31
0.0
  0
LINE
  5
A5
330
1F
100
AcDbEntity
  8
0
100
AcDbLine
 10
-53.49563207716392
 20
127.4674304140629
 30
0.0
 11
-53.45153027525324
 21
127.065209783377
 31
0.0
  0
LINE
  5
A6
330
1F
100
AcDbEntity
  8
0
100
AcDbLine
 10
-53.45153027525324
 20
127.065209783377
 30
0.0
 11
-53.51303356535735
 21
126.6652801020735
 31
0.0
  0
LINE
  5
A7
330
1F
100
AcDbEntity
  8
0
100
AcDbLine
 10
-53.51303356535735
 20
126.6652801020735
 30
0.0
 11
-53.67595059989296
 21
126.2948959170183
 31
0.0
  0
LINE
  5
A8
330
1F
100
AcDbEntity
  8
0
100
AcDbLine
 10
-53.67595059989296
 20
126.2948959170183
 30
0.0
 11
-53.92917885219114
 21
125.9792982983341
 31
0.0
  0
LINE
  5
A9
330
1F
100
AcDbEntity
  8
0
100
AcDbLine
 10
-53.92917885219114
 20
125.9792982983341
 30
0.0
 11
-54.25546123533586
 21
125.7399947021842
 31
0.0
  0
LINE
  5
AA
330
1F
100
AcDbEntity
  8
0
100
AcDbLine
 10
-54.25546123533586
 20
125.7399947021842
 30
0.0
 11
-54.63256214412402
 21
125.5932932731788
 31
0.0
  0
LINE
  5
AB
330
1F
100
AcDbEntity
  8
0
100
AcDbLine
 10
-54.63256214412402
 20
125.5932932731788
 30
0.0
 11
-55.03478277481027
 21
125.5491914712684
 31
0.0
  0
LINE
  5
AC
330
1F
100
AcDbEntity
  8
0
100
AcDbLine
 10
-55.03478277481027
 20
125.5491914712684
 30
0.0
 11
-55.43471245611369
 21
125.6106947613722
 31
0.0
  0
LINE
  5
AD
330
1F
100
AcDbEntity
  8
0
100
AcDbLine
 10
-55.43471245611369
 20
125.6106947613722
 30
0.0
 11
-55.80509664116836
 21
125.7736117959082
 31
0.0
  0
LINE
  5
AE
330
1F
100
AcDbEntity
  8
0
100
AcDbLine
 10
-55.80509664116836
 20
125.7736117959082
 30
0.0
 11
-56.12069425985313
 21
126.026840048206
 31
0.0
  0
LINE
  5
AF
330
1F
100
AcDbEntity
  8
0
100
AcDbLine
 10
-56.12069425985313
 20
126.026840048206
 30
0.0
 11
-56.35999785600305
 21
126.3531224313511
 31
0.0
  0
LINE
  5
B0
330
1F
100
AcDbEntity
  8
0
100
AcDbLine
 10
-56.35999785600305
 20
126.3531224313511
 30
0.0
 11
-56.5066992850083
 21
126.730223340139
 31
0.0
  0
LINE
  5
B1
330
1F
100
AcDbEntity
  8
0
100
AcDbLine
 10
-56.5066992850083
 20
126.730223340139
 30
0.0
 11
-56.55080108691825
 21
127.1324439708249
 31
0.0
  0
LINE
  5
B2
330
1F
100
AcDbEntity
  8
0
100
AcDbLine
 10
-56.55080108691825
 20
127.1324439708249
 30
0.0
 11
-56.48929779681487
 21
127.5323736521284
 31
0.0
  0
LINE
  5
B3
330
1F
100
AcDbEntity
  8
0
100
AcDbLine
 10
-56.48929779681487
 20
127.5323736521284
 30
0.0
 11
-56.32638076227853
 21
127.9027578371836
 31
0.0
  0
LINE
  5
B4
330
1F
100
AcDbEntity
  8
0
100
AcDbLine
 10
-56.32638076227853
 20
127.9027578371836
 30
0.0
 11
-56.07315250998107
 21
128.2183554558678
 31
0.0
  0
LINE
  5
B5
330
1F
100
AcDbEntity
  8
0
100
AcDbLine
 10
-56.07315250998107
 20
128.2183554558678
 30
0.0
 11
-55.74687012683564
 21
128.4576590520177
 31
0.0
  0
LINE
  5
B6
330
1F
100
AcDbEntity
  8
0
100
AcDbLine
 10
-55.74687012683564
 20
128.4576590520177
 30
0.0
 11
-55.36976921804821
 21
128.6043604810233
 31
0.0
  0
LINE
  5
B7
330
1F
100
AcDbEntity
  8
0
100
AcDbLine
 10
-55.36976921804821
 20
128.6043604810233
 30
0.0
 11
-54.96754858736195
 21
128.6484622829335
 31
0.0
  0
LINE
  5
B8
330
1F
100
AcDbEntity
  8
0
100
AcDbLine
 10
-54.96754858736195
 20
128.6484622829335
 30
0.0
 11
-54.56761890605852
 21
128.5869589928297
 31
0.0
  0
LINE
  5
B9
330
1F
100
AcDbEntity
  8
0
100
AcDbLine
 10
-54.56761890605852
 20
128.5869589928297
 30
0.0
 11
-54.19723472100313
 21
128.4240419582937
 31
0.0
  0
LINE
  5
BA
330
1F
100
AcDbEntity
  8
0
100
AcDbLine
 10
-54.19723472100313
 20
128.4240419582937
 30
0.0
 11
-53.88163710231908
 21
128.1708137059959
 31
0.0
  0
LINE
  5
BB
330
1F
100
AcDbEntity
  8
0
100
AcDbLine
 10
44.10954528679424
 20
125.8293131838504
 30
0.0
 11
43.81127275392172
 21
126.102735752076
 31
0.0
  0
LINE
  5
BC
330
1F
100
AcDbEntity
  8
0
100
AcDbLine
 10
43.81127275392172
 20
126.102735752076
 30
0.0
 11
43.59393057916605
 21
126.4440402843538
 31
0.0
  0
LINE
  5
BD
330
1F
100
AcDbEntity
  8
0
100
AcDbLine
 10
43.59393057916605
 20
126.4440402843538
 30
0.0
 11
43.47233027256055
 21
126.8299674408412
 31
0.0
  0
LINE
  5
BE
330
1F
100
AcDbEntity
  8
0
100
AcDbLine
 10
43.47233027256055
 20
126.8299674408412
 30
0.0
 11
43.45475869404656
 21
127.2342169235986
 31
0.0
  0
LINE
  5
BF
330
1F
100
AcDbEntity
  8
0
100
AcDbLine
 10
43.45475869404656
 20
127.2342169235986
 30
0.0
 11
43.54241331766219
 21
127.6292397984297
 31
0.0
  0
LINE
  5
C0
330
1F
100
AcDbEntity
  8
0
100
AcDbLine
 10
43.54241331766219
 20
127.6292397984297
 30
0.0
 11
43.7293206256633
 21
127.9881159092211
 31
0.0
  0
LINE
  5
C1
330
1F
100
AcDbEntity
  8
0
100
AcDbLine
 10
43.7293206256633
 20
127.9881159092211
 30
0.0
 11
44.0027431938886
 21
128.2863884420931
 31
0.0
  0
LINE
  5
C2
330
1F
100
AcDbEntity
  8
0
100
AcDbLine
 10
44.0027431938886
 20
128.2863884420931
 30
0.0
 11
44.34404772616693
 21
128.5037306168491
 31
0.0
  0
LINE
  5
C3
330
1F
100
AcDbEntity
  8
0
100
AcDbLine
 10
44.34404772616693
 20
128.5037306168491
 30
0.0
 11
44.72997488265436
 21
128.6253309234546
 31
0.0
  0
LINE
  5
C4
330
1F
100
AcDbEntity
  8
0
100
AcDbLine
 10
44.72997488265436
 20
128.6253309234546
 30
0.0
 11
45.13422436541114
 21
128.6429025019683
 31
0.0
  0
LINE
  5
C5
330
1F
100
AcDbEntity
  8
0
100
AcDbLine
 10
45.13422436541114
 20
128.6429025019683
 30
0.0
 11
45.52924724024266
 21
128.555247878353
 31
0.0
  0
LINE
  5
C6
330
1F
100
AcDbEntity
  8
0
100
AcDbLine
 10
45.52924724024266
 20
128.555247878353
 30
0.0
 11
45.88812335103426
 21
128.3683405703517
 31
0.0
  0
LINE
  5
C7
330
1F
100
AcDbEntity
  8
0
100
AcDbLine
 10
45.88812335103426
 20
128.3683405703517
 30
0.0
 11
46.18639588390606
 21
128.0949180021261
 31
0.0
  0
LINE
  5
C8
330
1F
100
AcDbEntity
  8
0
100
AcDbLine
 10
46.18639588390606
 20
128.0949180021261
 30
0.0
 11
46.40373805866245
 21
127.7536134698483
 31
0.0
  0
LINE
  5
C9
330
1F
100
AcDbEntity
  8
0
100
AcDbLine
 10
46.40373805866245
 20
127.7536134698483
 30
0.0
 11
46.52533836526795
 21
127.3676863133608
 31
0.0
  0
LINE
  5
CA
330
1F
100
AcDbEntity
  8
0
100
AcDbLine
 10
46.52533836526795
 20
127.3676863133608
 30
0.0
 11
46.54290994378122
 21
126.9634368306035
 31
0.0
  0
LINE
  5
CB
330
1F
100
AcDbEntity
  8
0
100
AcDbLine
 10
46.54290994378122
 20
126.9634368306035
 30
0.0
 11
46.45525532016558
 21
126.5684139557724
 31
0.0
  0
LINE
  5
CC
330
1F
100
AcDbEntity
  8
0
100
AcDbLine
 10
46.45525532016558
 20
126.5684139557724
 30
0.0
 11
46.26834801216447
 21
126.2095378449809
 31
0.0
  0
LINE
  5
CD
330
1F
100
AcDbEntity
  8
0
100
AcDbLine
 10
46.26834801216447
 20
126.2095378449809
 30
0.0
 11
45.99492544393917
 21
125.911265312109
 31
0.0
  0
LINE
  5
CE
330
1F
100
AcDbEntity
  8
0
100
AcDbLine
 10
45.99492544393917
 20
125.911265312109
 30
0.0
 11
45.65362091166157
 21
125.6939231373527
 31
0.0
  0
LINE
  5
CF
330
1F
100
AcDbEntity
  8
0
100
AcDbLine
 10
45.65362091166157
 20
125.6939231373527
 30
0.0
 11
45.26769375517414
 21
125.5723228307474
 31
0.0
  0
LINE
  5
D0
330
1F
100
AcDbEntity
  8
0
100
AcDbLine
 10
45.26769375517414
 20
125.5723228307474
 30
0.0
 11
44.86344427241664
 21
125.5547512522336
 31
0.0
  0
LINE
  5
D1
330
1F
100
AcDbEntity
  8
0
100
AcDbLine
 10
44.86344427241664
 20
125.5547512522336
 30
0.0
 11
44.46842139758511
 21
125.6424058758491
 31
0.0
  0
LINE
  5
D2
330
1F
100
AcDbEntity
  8
0
100
AcDbLine
 10
44.46842139758511
 20
125.6424058758491
 30
0.0
 11
44.10954528679424
 21
125.8293131838504
 31
0.0
  0
LINE
  5
D3
330
1F
100
AcDbEntity
  8
0
100
AcDbLine
 10
144.5778816555606
 20
125.607083314951
 30
0.0
 11
144.2061336254421
 21
125.7668638105825
 31
0.0
  0
LINE
  5
D4
330
1F
100
AcDbEntity
  8
0
100
AcDbLine
 10
144.2061336254421
 20
125.7668638105825
 30
0.0
 11
143.8884068375843
 21
126.0174153880241
 31
0.0
  0
LINE
  5
D5
330
1F
100
AcDbEntity
  8
0
100
AcDbLine
 10
143.8884068375843
 20
126.0174153880241
 30
0.0
 11
143.6463538475107
 21
126.3416633713292
 31
0.0
  0
LINE
  5
D6
330
1F
100
AcDbEntity
  8
0
100
AcDbLine
 10
143.6463538475107
 20
126.3416633713292
 30
0.0
 11
143.4964701664837
 21
126.7175107962809
 31
0.0
  0
LINE
  5
D7
330
1F
100
AcDbEntity
  8
0
100
AcDbLine
 10
143.4964701664837
 20
126.7175107962809
 30
0.0
 11
143.4489701196707
 21
127.1193442819859
 31
0.0
  0
LINE
  5
D8
330
1F
100
AcDbEntity
  8
0
100
AcDbLine
 10
143.4489701196707
 20
127.1193442819859
 30
0.0
 11
143.5070907567644
 21
127.5197795404545
 31
0.0
  0
LINE
  5
D9
330
1F
100
AcDbEntity
  8
0
100
AcDbLine
 10
143.5070907567644
 20
127.5197795404545
 30
0.0
 11
143.6668712523958
 21
127.8915275705728
 31
0.0
  0
LINE
  5
DA
330
1F
100
AcDbEntity
  8
0
100
AcDbLine
 10
143.6668712523958
 20
127.8915275705728
 30
0.0
 11
143.9174228298373
 21
128.2092543584308
 31
0.0
  0
LINE
  5
DB
330
1F
100
AcDbEntity
  8
0
100
AcDbLine
 10
143.9174228298373
 20
128.2092543584308
 30
0.0
 11
144.2416708131428
 21
128.4513073485043
 31
0.0
  0
LINE
  5
DC
330
1F
100
AcDbEntity
  8
0
100
AcDbLine
 10
144.2416708131428
 20
128.4513073485043
 30
0.0
 11
144.6175182380943
 21
128.6011910295314
 31
0.0
  0
LINE
  5
DD
330
1F
100
AcDbEntity
  8
0
100
AcDbLine
 10
144.6175182380943
 20
128.6011910295314
 30
0.0
 11
145.0193517237994
 21
128.6486910763444
 31
0.0
  0
LINE
  5
DE
330
1F
100
AcDbEntity
  8
0
100
AcDbLine
 10
145.0193517237994
 20
128.6486910763444
 30
0.0
 11
145.4197869822679
 21
128.5905704392507
 31
0.0
  0
LINE
  5
DF
330
1F
100
AcDbEntity
  8
0
100
AcDbLine
 10
145.4197869822679
 20
128.5905704392507
 30
0.0
 11
145.7915350123864
 21
128.4307899436193
 31
0.0
  0
LINE
  5
E0
330
1F
100
AcDbEntity
  8
0
100
AcDbLine
 10
145.7915350123864
 20
128.4307899436193
 30
0.0
 11
146.1092618002442
 21
128.1802383661778
 31
0.0
  0
LINE
  5
E1
330
1F
100
AcDbEntity
  8
0
100
AcDbLine
 10
146.1092618002442
 20
128.1802383661778
 30
0.0
 11
146.3513147903178
 21
127.8559903828725
 31
0.0
  0
LINE
  5
E2
330
1F
100
AcDbEntity
  8
0
100
AcDbLine
 10
146.3513147903178
 20
127.8559903828725
 30
0.0
 11
146.5011984713448
 21
127.4801429579208
 31
0.0
  0
LINE
  5
E3
330
1F
100
AcDbEntity
  8
0
100
AcDbLine
 10
146.5011984713448
 20
127.4801429579208
 30
0.0
 11
146.5486985181578
 21
127.0783094722159
 31
0.0
  0
LINE
  5
E4
330
1F
100
AcDbEntity
  8
0
100
AcDbLine
 10
146.5486985181578
 20
127.0783094722159
 30
0.0
 11
146.4905778810641
 21
126.6778742137472
 31
0.0
  0
LINE
  5
E5
330
1F
100
AcDbEntity
  8
0
100
AcDbLine
 10
146.4905778810641
 20
126.6778742137472
 30
0.0
 11
146.3307973854327
 21
126.306126183629
 31
0.0
  0
LINE
  5
E6
330
1F
100
AcDbEntity
  8
0
100
AcDbLine
 10
146.3307973854327
 20
126.306126183629
 30
0.0
 11
146.0802458079912
 21
125.988399395771
 31
0.0
  0
LINE
  5
E7
330
1F
100
AcDbEntity
  8
0
100
AcDbLine
 10
146.0802458079912
 20
125.988399395771
 30
0.0
 11
145.7559978246857
 21
125.7463464056975
 31
0.0
  0
LINE
  5
E8
330
1F
100
AcDbEntity
  8
0
100
AcDbLine
 10
145.7559978246857
 20
125.7463464056975
 30
0.0
 11
145.3801503997342
 21
125.5964627246705
 31
0.0
  0
LINE
  5
E9
330
1F
100
AcDbEntity
  8
0
100
AcDbLine
 10
145.3801503997342
 20
125.5964627246705
 30
0.0
 11
144.9783169140291
 21
125.5489626778573
 31
0.0
  0
LINE
  5
EA
330
1F
100
AcDbEntity
  8
0
100
AcDbLine
 10
144.9783169140291
 20
125.5489626778573
 30
0.0
 11
144.5778816555606
 21
125.607083314951
 31
0.0
  0
LINE
  5
EB
330
1F
100
AcDbEntity
  8
0
100
AcDbLine
 10
157.9028188080747
 20
-121.9971886337387
 30
0.0
 11
157.6564949430481
 21
-121.6761731228994
 31
0.0
  0
LINE
  5
EC
330
1F
100
AcDbEntity
  8
0
100
AcDbLine
 10
157.6564949430481
 20
-121.6761731228994
 30
0.0
 11
157.5016492881657
 21
-121.3023426428084
 31
0.0
  0
LINE
  5
ED
330
1F
100
AcDbEntity
  8
0
100
AcDbLine
 10
157.5016492881657
 20
-121.3023426428084
 30
0.0
 11
157.4488343189136
 21
-120.9011731228994
 31
0.0
  0
LINE
  5
EE
330
1F
100
AcDbEntity
  8
0
100
AcDbLine
 10
157.4488343189136
 20
-120.9011731228994
 30
0.0
 11
157.5016492881657
 21
-120.5000036029906
 31
0.0
  0
LINE
  5
EF
330
1F
100
AcDbEntity
  8
0
100
AcDbLine
 10
157.5016492881657
 20
-120.5000036029906
 30
0.0
 11
157.6564949430481
 21
-120.1261731228994
 31
0.0
  0
LINE
  5
F0
330
1F
100
AcDbEntity
  8
0
100
AcDbLine
 10
157.6564949430481
 20
-120.1261731228994
 30
0.0
 11
157.9028188080747
 21
-119.8051576120603
 31
0.0
  0
LINE
  5
F1
330
1F
100
AcDbEntity
  8
0
100
AcDbLine
 10
157.9028188080747
 20
-119.8051576120603
 30
0.0
 11
158.2238343189141
 21
-119.5588337470336
 31
0.0
  0
LINE
  5
F2
330
1F
100
AcDbEntity
  8
0
100
AcDbLine
 10
158.2238343189141
 20
-119.5588337470336
 30
0.0
 11
158.597664799005
 21
-119.4039880921514
 31
0.0
  0
LINE
  5
F3
330
1F
100
AcDbEntity
  8
0
100
AcDbLine
 10
158.597664799005
 20
-119.4039880921514
 30
0.0
 11
158.998834318914
 21
-119.3511731228994
 31
0.0
  0
LINE
  5
F4
330
1F
100
AcDbEntity
  8
0
100
AcDbLine
 10
158.998834318914
 20
-119.3511731228994
 30
0.0
 11
159.4000038388229
 21
-119.4039880921514
 31
0.0
  0
LINE
  5
F5
330
1F
100
AcDbEntity
  8
0
100
AcDbLine
 10
159.4000038388229
 20
-119.4039880921514
 30
0.0
 11
159.7738343189138
 21
-119.5588337470336
 31
0.0
  0
LINE
  5
F6
330
1F
100
AcDbEntity
  8
0
100
AcDbLine
 10
159.7738343189138
 20
-119.5588337470336
 30
0.0
 11
160.0948498297532
 21
-119.8051576120603
 31
0.0
  0
LINE
  5
F7
330
1F
100
AcDbEntity
  8
0
100
AcDbLine
 10
160.0948498297532
 20
-119.8051576120603
 30
0.0
 11
160.3411736947798
 21
-120.1261731228994
 31
0.0
  0
LINE
  5
F8
330
1F
100
AcDbEntity
  8
0
100
AcDbLine
 10
160.3411736947798
 20
-120.1261731228994
 30
0.0
 11
160.4960193496615
 21
-120.5000036029906
 31
0.0
  0
LINE
  5
F9
330
1F
100
AcDbEntity
  8
0
100
AcDbLine
 10
160.4960193496615
 20
-120.5000036029906
 30
0.0
 11
160.5488343189136
 21
-120.9011731228994
 31
0.0
  0
LINE
  5
FA
330
1F
100
AcDbEntity
  8
0
100
AcDbLine
 10
160.5488343189136
 20
-120.9011731228994
 30
0.0
 11
160.4960193496615
 21
-121.3023426428084
 31
0.0
  0
LINE
  5
FB
330
1F
100
AcDbEntity
  8
0
100
AcDbLine
 10
160.4960193496615
 20
-121.3023426428084
 30
0.0
 11
160.3411736947798
 21
-121.6761731228994
 31
0.0
  0
LINE
  5
FC
330
1F
100
AcDbEntity
  8
0
100
AcDbLine
 10
160.3411736947798
 20
-121.6761731228994
 30
0.0
 11
160.0948498297532
 21
-121.9971886337387
 31
0.0
  0
LINE
  5
FD
330
1F
100
AcDbEntity
  8
0
100
AcDbLine
 10
160.0948498297532
 20
-121.9971886337387
 30
0.0
 11
159.7738343189138
 21
-122.2435124987653
 31
0.0
  0
LINE
  5
FE
330
1F
100
AcDbEntity
  8
0
100
AcDbLine
 10
159.7738343189138
 20
-122.2435124987653
 30
0.0
 11
159.4000038388229
 21
-122.3983581536475
 31
0.0
  0
LINE
  5
FF
330
1F
100
AcDbEntity
  8
0
100
AcDbLine
 10
159.4000038388229
 20
-122.3983581536475
 30
0.0
 11
158.998834318914
 21
-122.4511731228994
 31
0.0
  0
LINE
  5
100
330
1F
100
AcDbEntity
  8
0
100
AcDbLine
 10
158.998834318914
 20
-122.4511731228994
 30
0.0
 11
158.597664799005
 21
-122.3983581536475
 31
0.0
  0
LINE
  5
101
330
1F
100
AcDbEntity
  8
0
100
AcDbLine
 10
158.597664799005
 20
-122.3983581536475
 30
0.0
 11
158.2238343189141
 21
-122.2435124987653
 31
0.0
  0
LINE
  5
102
330
1F
100
AcDbEntity
  8
0
100
AcDbLine
 10
158.2238343189141
 20
-122.2435124987653
 30
0.0
 11
157.9028188080747
 21
-121.9971886337387
 31
0.0
  0
LINE
  5
103
330
1F
100
AcDbEntity
  8
0
100
AcDbLine
 10
-68.5999961611772
 20
-122.3983581536473
 30
0.0
 11
-69.00116568108618
 21
-122.4511731228992
 31
0.0
  0
LINE
  5
104
330
1F
100
AcDbEntity
  8
0
100
AcDbLine
 10
-69.00116568108618
 20
-122.4511731228992
 30
0.0
 11
-69.40233520099514
 21
-122.3983581536473
 31
0.0
  0
LINE
  5
105
330
1F
100
AcDbEntity
  8
0
100
AcDbLine
 10
-69.40233520099514
 20
-122.3983581536473
 30
0.0
 11
-69.776165681086
 21
-122.2435124987653
 31
0.0
  0
LINE
  5
106
330
1F
100
AcDbEntity
  8
0
100
AcDbLine
 10
-69.776165681086
 20
-122.2435124987653
 30
0.0
 11
-70.09718119192542
 21
-121.9971886337387
 31
0.0
  0
LINE
  5
107
330
1F
100
AcDbEntity
  8
0
100
AcDbLine
 10
-70.09718119192542
 20
-121.9971886337387
 30
0.0
 11
-70.34350505695203
 21
-121.6761731228994
 31
0.0
  0
LINE
  5
108
330
1F
100
AcDbEntity
  8
0
100
AcDbLine
 10
-70.34350505695203
 20
-121.6761731228994
 30
0.0
 11
-70.49835071183367
 21
-121.3023426428084
 31
0.0
  0
LINE
  5
109
330
1F
100
AcDbEntity
  8
0
100
AcDbLine
 10
-70.49835071183367
 20
-121.3023426428084
 30
0.0
 11
-70.55116568108582
 21
-120.9011731228994
 31
0.0
  0
LINE
  5
10A
330
1F
100
AcDbEntity
  8
0
100
AcDbLine
 10
-70.55116568108582
 20
-120.9011731228994
 30
0.0
 11
-70.49835071183367
 21
-120.5000036029906
 31
0.0
  0
LINE
  5
10B
330
1F
100
AcDbEntity
  8
0
100
AcDbLine
 10
-70.49835071183367
 20
-120.5000036029906
 30
0.0
 11
-70.34350505695203
 21
-120.1261731228994
 31
0.0
  0
LINE
  5
10C
330
1F
100
AcDbEntity
  8
0
100
AcDbLine
 10
-70.34350505695203
 20
-120.1261731228994
 30
0.0
 11
-70.09718119192542
 21
-119.8051576120603
 31
0.0
  0
LINE
  5
10D
330
1F
100
AcDbEntity
  8
0
100
AcDbLine
 10
-70.09718119192542
 20
-119.8051576120603
 30
0.0
 11
-69.776165681086
 21
-119.5588337470336
 31
0.0
  0
LINE
  5
10E
330
1F
100
AcDbEntity
  8
0
100
AcDbLine
 10
-69.776165681086
 20
-119.5588337470336
 30
0.0
 11
-69.40233520099514
 21
-119.4039880921512
 31
0.0
  0
LINE
  5
10F
330
1F
100
AcDbEntity
  8
0
100
AcDbLine
 10
-69.40233520099514
 20
-119.4039880921512
 30
0.0
 11
-69.00116568108618
 21
-119.3511731228992
 31
0.0
  0
LINE
  5
110
330
1F
100
AcDbEntity
  8
0
100
AcDbLine
 10
-69.00116568108618
 20
-119.3511731228992
 30
0.0
 11
-68.5999961611772
 21
-119.4039880921512
 31
0.0
  0
LINE
  5
111
330
1F
100
AcDbEntity
  8
0
100
AcDbLine
 10
-68.5999961611772
 20
-119.4039880921512
 30
0.0
 11
-68.22616568108563
 21
-119.5588337470334
 31
0.0
  0
LINE
  5
112
330
1F
100
AcDbEntity
  8
0
100
AcDbLine
 10
-68.22616568108563
 20
-119.5588337470334
 30
0.0
 11
-67.90515017024693
 21
-119.8051576120602
 31
0.0
  0
LINE
  5
113
330
1F
100
AcDbEntity
  8
0
100
AcDbLine
 10
-67.90515017024693
 20
-119.8051576120602
 30
0.0
 11
-67.65882630522032
 21
-120.1261731228992
 31
0.0
  0
LINE
  5
114
330
1F
100
AcDbEntity
  8
0
100
AcDbLine
 10
-67.65882630522032
 20
-120.1261731228992
 30
0.0
 11
-67.50398065033795
 21
-120.5000036029904
 31
0.0
  0
LINE
  5
115
330
1F
100
AcDbEntity
  8
0
100
AcDbLine
 10
-67.50398065033795
 20
-120.5000036029904
 30
0.0
 11
-67.4511656810858
 21
-120.9011731228992
 31
0.0
  0
LINE
  5
116
330
1F
100
AcDbEntity
  8
0
100
AcDbLine
 10
-67.4511656810858
 20
-120.9011731228992
 30
0.0
 11
-67.50398065033795
 21
-121.3023426428082
 31
0.0
  0
LINE
  5
117
330
1F
100
AcDbEntity
  8
0
100
AcDbLine
 10
-67.50398065033795
 20
-121.3023426428082
 30
0.0
 11
-67.65882630522032
 21
-121.6761731228992
 31
0.0
  0
LINE
  5
118
330
1F
100
AcDbEntity
  8
0
100
AcDbLine
 10
-67.65882630522032
 20
-121.6761731228992
 30
0.0
 11
-67.90515017024693
 21
-121.9971886337385
 31
0.0
  0
LINE
  5
119
330
1F
100
AcDbEntity
  8
0
100
AcDbLine
 10
-67.90515017024693
 20
-121.9971886337385
 30
0.0
 11
-68.22616568108563
 21
-122.2435124987653
 31
0.0
  0
LINE
  5
11A
330
1F
100
AcDbEntity
  8
0
100
AcDbLine
 10
-68.22616568108563
 20
-122.2435124987653
 30
0.0
 11
-68.5999961611772
 21
-122.3983581536473
 31
0.0
  0
LINE
  5
11B
330
1F
100
AcDbEntity
  8
0
100
AcDbLine
 10
-103.8988881406932
 20
-78.99089062020916
 30
0.0
 11
-104.2184869791677
 21
-79.2390498173526
 31
0.0
  0
LINE
  5
11C
330
1F
100
AcDbEntity
  8
0
100
AcDbLine
 10
-104.2184869791677
 20
-79.2390498173526
 30
0.0
 11
-104.59142407774
 21
-79.39603492871467
 31
0.0
  0
LINE
  5
11D
330
1F
100
AcDbEntity
  8
0
100
AcDbLine
 10
-104.59142407774
 20
-79.39603492871467
 30
0.0
 11
-104.9922843894507
 21
-79.45114767838628
 31
0.0
  0
LINE
  5
11E
330
1F
100
AcDbEntity
  8
0
100
AcDbLine
 10
-104.9922843894507
 20
-79.45114767838628
 30
0.0
 11
-105.3937499465086
 21
-79.40063222355558
 31
0.0
  0
LINE
  5
11F
330
1F
100
AcDbEntity
  8
0
100
AcDbLine
 10
-105.3937499465086
 20
-79.40063222355558
 30
0.0
 11
-105.7684615346551
 21
-79.2479311089885
 31
0.0
  0
LINE
  5
120
330
1F
100
AcDbEntity
  8
0
100
AcDbLine
 10
-105.7684615346551
 20
-79.2479311089885
 30
0.0
 11
-106.0908831783967
 21
-79.00345066329213
 31
0.0
  0
LINE
  5
121
330
1F
100
AcDbEntity
  8
0
100
AcDbLine
 10
-106.0908831783967
 20
-79.00345066329213
 30
0.0
 11
-106.3390423755403
 21
-78.68385182481781
 31
0.0
  0
LINE
  5
122
330
1F
100
AcDbEntity
  8
0
100
AcDbLine
 10
-106.3390423755403
 20
-78.68385182481781
 30
0.0
 11
-106.4960274869021
 21
-78.31091472624533
 31
0.0
  0
LINE
  5
123
330
1F
100
AcDbEntity
  8
0
100
AcDbLine
 10
-106.4960274869021
 20
-78.31091472624533
 30
0.0
 11
-106.551140236574
 21
-77.9100544145348
 31
0.0
  0
LINE
  5
124
330
1F
100
AcDbEntity
  8
0
100
AcDbLine
 10
-106.551140236574
 20
-77.9100544145348
 30
0.0
 11
-106.5006247817433
 21
-77.50858885747617
 31
0.0
  0
LINE
  5
125
330
1F
100
AcDbEntity
  8
0
100
AcDbLine
 10
-106.5006247817433
 20
-77.50858885747617
 30
0.0
 11
-106.3479236671762
 21
-77.13387726933007
 31
0.0
  0
LINE
  5
126
330
1F
100
AcDbEntity
  8
0
100
AcDbLine
 10
-106.3479236671762
 20
-77.13387726933007
 30
0.0
 11
-106.10344322148
 21
-76.81145562558847
 31
0.0
  0
LINE
  5
127
330
1F
100
AcDbEntity
  8
0
100
AcDbLine
 10
-106.10344322148
 20
-76.81145562558847
 30
0.0
 11
-105.7838443830055
 21
-76.56329642844503
 31
0.0
  0
LINE
  5
128
330
1F
100
AcDbEntity
  8
0
100
AcDbLine
 10
-105.7838443830055
 20
-76.56329642844503
 30
0.0
 11
-105.4109072844325
 21
-76.40631131708295
 31
0.0
  0
LINE
  5
129
330
1F
100
AcDbEntity
  8
0
100
AcDbLine
 10
-105.4109072844325
 20
-76.40631131708295
 30
0.0
 11
-105.0100469727225
 21
-76.35119856741116
 31
0.0
  0
LINE
  5
12A
330
1F
100
AcDbEntity
  8
0
100
AcDbLine
 10
-105.0100469727225
 20
-76.35119856741116
 30
0.0
 11
-104.6085814156639
 21
-76.40171402224186
 31
0.0
  0
LINE
  5
12B
330
1F
100
AcDbEntity
  8
0
100
AcDbLine
 10
-104.6085814156639
 20
-76.40171402224186
 30
0.0
 11
-104.2338698275175
 21
-76.55441513680913
 31
0.0
  0
LINE
  5
12C
330
1F
100
AcDbEntity
  8
0
100
AcDbLine
 10
-104.2338698275175
 20
-76.55441513680913
 30
0.0
 11
-103.9114481837759
 21
-76.7988955825055
 31
0.0
  0
LINE
  5
12D
330
1F
100
AcDbEntity
  8
0
100
AcDbLine
 10
-103.9114481837759
 20
-76.7988955825055
 30
0.0
 11
-103.6632889866329
 21
-77.11849442098
 31
0.0
  0
LINE
  5
12E
330
1F
100
AcDbEntity
  8
0
100
AcDbLine
 10
-103.6632889866329
 20
-77.11849442098
 30
0.0
 11
-103.5063038752705
 21
-77.4914315195523
 31
0.0
  0
LINE
  5
12F
330
1F
100
AcDbEntity
  8
0
100
AcDbLine
 10
-103.5063038752705
 20
-77.4914315195523
 30
0.0
 11
-103.4511911255986
 21
-77.89229183126282
 31
0.0
  0
LINE
  5
130
330
1F
100
AcDbEntity
  8
0
100
AcDbLine
 10
-103.4511911255986
 20
-77.89229183126282
 30
0.0
 11
-103.5017065804292
 21
-78.29375738832127
 31
0.0
  0
LINE
  5
131
330
1F
100
AcDbEntity
  8
0
100
AcDbLine
 10
-103.5017065804292
 20
-78.29375738832127
 30
0.0
 11
-103.6544076949963
 21
-78.66846897646738
 31
0.0
  0
LINE
  5
132
330
1F
100
AcDbEntity
  8
0
100
AcDbLine
 10
-103.6544076949963
 20
-78.66846897646738
 30
0.0
 11
-103.8988881406932
 21
-78.99089062020916
 31
0.0
  0
LINE
  5
133
330
1F
100
AcDbEntity
  8
0
100
AcDbLine
 10
-103.6492567336628
 20
2.857010362726872
 30
0.0
 11
-103.4990895882168
 21
2.481276104095281
 31
0.0
  0
LINE
  5
134
330
1F
100
AcDbEntity
  8
0
100
AcDbLine
 10
-103.4990895882168
 20
2.481276104095281
 30
0.0
 11
-103.4512864462013
 21
2.079478562670982
 31
0.0
  0
LINE
  5
135
330
1F
100
AcDbEntity
  8
0
100
AcDbLine
 10
-103.4512864462013
 20
2.079478562670982
 30
0.0
 11
-103.5091050127468
 21
1.678999576900698
 31
0.0
  0
LINE
  5
136
330
1F
100
AcDbEntity
  8
0
100
AcDbLine
 10
-103.5091050127468
 20
1.678999576900698
 30
0.0
 11
-103.6686050480931
 21
1.307131127841652
 31
0.0
  0
LINE
  5
137
330
1F
100
AcDbEntity
  8
0
100
AcDbLine
 10
-103.6686050480931
 20
1.307131127841652
 30
0.0
 11
-103.9189168884172
 21
0.9892154357554375
 31
0.0
  0
LINE
  5
138
330
1F
100
AcDbEntity
  8
0
100
AcDbLine
 10
-103.9189168884172
 20
0.9892154357554375
 30
0.0
 11
-104.2429821954613
 21
0.7469179296774597
 31
0.0
  0
LINE
  5
139
330
1F
100
AcDbEntity
  8
0
100
AcDbLine
 10
-104.2429821954613
 20
0.7469179296774597
 30
0.0
 11
-104.6187164540927
 21
0.5967507842310595
 31
0.0
  0
LINE
  5
13A
330
1F
100
AcDbEntity
  8
0
100
AcDbLine
 10
-104.6187164540927
 20
0.5967507842310595
 30
0.0
 11
-105.020513995517
 21
0.54894764221591
 31
0.0
  0
LINE
  5
13B
330
1F
100
AcDbEntity
  8
0
100
AcDbLine
 10
-105.020513995517
 20
0.54894764221591
 30
0.0
 11
-105.4209929812871
 21
0.6067662087614678
 31
0.0
  0
LINE
  5
13C
330
1F
100
AcDbEntity
  8
0
100
AcDbLine
 10
-105.4209929812871
 20
0.6067662087614678
 30
0.0
 11
-105.7928614303467
 21
0.7662662441076079
 31
0.0
  0
LINE
  5
13D
330
1F
100
AcDbEntity
  8
0
100
AcDbLine
 10
-105.7928614303467
 20
0.7662662441076079
 30
0.0
 11
-106.1107771224325
 21
1.016578084431673
 31
0.0
  0
LINE
  5
13E
330
1F
100
AcDbEntity
  8
0
100
AcDbLine
 10
-106.1107771224325
 20
1.016578084431673
 30
0.0
 11
-106.3530746285105
 21
1.340643391475569
 31
0.0
  0
LINE
  5
13F
330
1F
100
AcDbEntity
  8
0
100
AcDbLine
 10
-106.3530746285105
 20
1.340643391475569
 30
0.0
 11
-106.5032417739565
 21
1.716377650107341
 31
0.0
  0
LINE
  5
140
330
1F
100
AcDbEntity
  8
0
100
AcDbLine
 10
-106.5032417739565
 20
1.716377650107341
 30
0.0
 11
-106.5510449159721
 21
2.118175191531459
 31
0.0
  0
LINE
  5
141
330
1F
100
AcDbEntity
  8
0
100
AcDbLine
 10
-106.5510449159721
 20
2.118175191531459
 30
0.0
 11
-106.4932263494265
 21
2.518654177301744
 31
0.0
  0
LINE
  5
142
330
1F
100
AcDbEntity
  8
0
100
AcDbLine
 10
-106.4932263494265
 20
2.518654177301744
 30
0.0
 11
-106.3337263140802
 21
2.89052262636079
 31
0.0
  0
LINE
  5
143
330
1F
100
AcDbEntity
  8
0
100
AcDbLine
 10
-106.3337263140802
 20
2.89052262636079
 30
0.0
 11
-106.0834144737561
 21
3.208438318447004
 31
0.0
  0
LINE
  5
144
330
1F
100
AcDbEntity
  8
0
100
AcDbLine
 10
-106.0834144737561
 20
3.208438318447004
 30
0.0
 11
-105.7593491667128
 21
3.450735824524982
 31
0.0
  0
LINE
  5
145
330
1F
100
AcDbEntity
  8
0
100
AcDbLine
 10
-105.7593491667128
 20
3.450735824524982
 30
0.0
 11
-105.3836149080806
 21
3.600902969971202
 31
0.0
  0
LINE
  5
146
330
1F
100
AcDbEntity
  8
0
100
AcDbLine
 10
-105.3836149080806
 20
3.600902969971202
 30
0.0
 11
-104.9818173666563
 21
3.648706111986531
 31
0.0
  0
LINE
  5
147
330
1F
100
AcDbEntity
  8
0
100
AcDbLine
 10
-104.9818173666563
 20
3.648706111986531
 30
0.0
 11
-104.5813383808862
 21
3.590887545440974
 31
0.0
  0
LINE
  5
148
330
1F
100
AcDbEntity
  8
0
100
AcDbLine
 10
-104.5813383808862
 20
3.590887545440974
 30
0.0
 11
-104.2094699318274
 21
3.431387510094833
 31
0.0
  0
LINE
  5
149
330
1F
100
AcDbEntity
  8
0
100
AcDbLine
 10
-104.2094699318274
 20
3.431387510094833
 30
0.0
 11
-103.8915542397408
 21
3.181075669770768
 31
0.0
  0
LINE
  5
14A
330
1F
100
AcDbEntity
  8
0
100
AcDbLine
 10
-103.8915542397408
 20
3.181075669770768
 30
0.0
 11
-103.6492567336628
 21
2.857010362726872
 31
0.0
  0
LINE
  5
14B
330
1F
100
AcDbEntity
  8
0
100
AcDbLine
 10
-103.762383461184
 20
83.03044837301505
 30
0.0
 11
-103.563472555766
 21
82.6780837090849
 31
0.0
  0
LINE
  5
14C
330
1F
100
AcDbEntity
  8
0
100
AcDbLine
 10
-103.563472555766
 20
82.6780837090849
 30
0.0
 11
-103.462538060938
 21
82.28624364932216
 31
0.0
  0
LINE
  5
14D
330
1F
100
AcDbEntity
  8
0
100
AcDbLine
 10
-103.462538060938
 20
82.28624364932216
 30
0.0
 11
-103.4664584957212
 21
81.88163144625342
 31
0.0
  0
LINE
  5
14E
330
1F
100
AcDbEntity
  8
0
100
AcDbLine
 10
-103.4664584957212
 20
81.88163144625342
 30
0.0
 11
-103.574966688963
 21
81.49182075286453
 31
0.0
  0
LINE
  5
14F
330
1F
100
AcDbEntity
  8
0
100
AcDbLine
 10
-103.574966688963
 20
81.49182075286453
 30
0.0
 11
-103.7806679866135
 21
81.14337652371734
 31
0.0
  0
LINE
  5
150
330
1F
100
AcDbEntity
  8
0
100
AcDbLine
 10
-103.7806679866135
 20
81.14337652371734
 30
0.0
 11
-104.0695441851746
 21
80.86004465719681
 31
0.0
  0
LINE
  5
151
330
1F
100
AcDbEntity
  8
0
100
AcDbLine
 10
-104.0695441851746
 20
80.86004465719681
 30
0.0
 11
-104.4219088491049
 21
80.66113375177842
 31
0.0
  0
LINE
  5
152
330
1F
100
AcDbEntity
  8
0
100
AcDbLine
 10
-104.4219088491049
 20
80.66113375177842
 30
0.0
 11
-104.8137489088678
 21
80.56019925695055
 31
0.0
  0
LINE
  5
153
330
1F
100
AcDbEntity
  8
0
100
AcDbLine
 10
-104.8137489088678
 20
80.56019925695055
 30
0.0
 11
-105.2183611119364
 21
80.56411969173351
 31
0.0
  0
LINE
  5
154
330
1F
100
AcDbEntity
  8
0
100
AcDbLine
 10
-105.2183611119364
 20
80.56411969173351
 30
0.0
 11
-105.6081718053254
 21
80.67262788497571
 31
0.0
  0
LINE
  5
155
330
1F
100
AcDbEntity
  8
0
100
AcDbLine
 10
-105.6081718053254
 20
80.67262788497571
 30
0.0
 11
-105.9566160344725
 21
80.87832918262608
 31
0.0
  0
LINE
  5
156
330
1F
100
AcDbEntity
  8
0
100
AcDbLine
 10
-105.9566160344725
 20
80.87832918262608
 30
0.0
 11
-106.2399479009929
 21
81.1672053811871
 31
0.0
  0
LINE
  5
157
330
1F
100
AcDbEntity
  8
0
100
AcDbLine
 10
-106.2399479009929
 20
81.1672053811871
 30
0.0
 11
-106.4388588064109
 21
81.51957004511725
 31
0.0
  0
LINE
  5
158
330
1F
100
AcDbEntity
  8
0
100
AcDbLine
 10
-106.4388588064109
 20
81.51957004511725
 30
0.0
 11
-106.5397933012389
 21
81.91141010487999
 31
0.0
  0
LINE
  5
159
330
1F
100
AcDbEntity
  8
0
100
AcDbLine
 10
-106.5397933012389
 20
81.91141010487999
 30
0.0
 11
-106.5358728664564
 21
82.31602230794873
 31
0.0
  0
LINE
  5
15A
330
1F
100
AcDbEntity
  8
0
100
AcDbLine
 10
-106.5358728664564
 20
82.31602230794873
 30
0.0
 11
-106.4273646732139
 21
82.70583300133762
 31
0.0
  0
LINE
  5
15B
330
1F
100
AcDbEntity
  8
0
100
AcDbLine
 10
-106.4273646732139
 20
82.70583300133762
 30
0.0
 11
-106.2216633755634
 21
83.05427723048481
 31
0.0
  0
LINE
  5
15C
330
1F
100
AcDbEntity
  8
0
100
AcDbLine
 10
-106.2216633755634
 20
83.05427723048481
 30
0.0
 11
-105.9327871770023
 21
83.33760909700534
 31
0.0
  0
LINE
  5
15D
330
1F
100
AcDbEntity
  8
0
100
AcDbLine
 10
-105.9327871770023
 20
83.33760909700534
 30
0.0
 11
-105.5804225130727
 21
83.53652000242373
 31
0.0
  0
LINE
  5
15E
330
1F
100
AcDbEntity
  8
0
100
AcDbLine
 10
-105.5804225130727
 20
83.53652000242373
 30
0.0
 11
-105.1885824533098
 21
83.6374544972516
 31
0.0
  0
LINE
  5
15F
330
1F
100
AcDbEntity
  8
0
100
AcDbLine
 10
-105.1885824533098
 20
83.6374544972516
 30
0.0
 11
-104.7839702502413
 21
83.63353406246864
 31
0.0
  0
LINE
  5
160
330
1F
100
AcDbEntity
  8
0
100
AcDbLine
 10
-104.7839702502413
 20
83.63353406246864
 30
0.0
 11
-104.3941595568523
 21
83.52502586922643
 31
0.0
  0
LINE
  5
161
330
1F
100
AcDbEntity
  8
0
100
AcDbLine
 10
-104.3941595568523
 20
83.52502586922643
 30
0.0
 11
-104.0457153277044
 21
83.31932457157608
 31
0.0
  0
LINE
  5
162
330
1F
100
AcDbEntity
  8
0
100
AcDbLine
 10
-104.0457153277044
 20
83.31932457157608
 30
0.0
 11
-103.762383461184
 21
83.03044837301505
 31
0.0
  0
LINE
  5
163
330
1F
100
AcDbEntity
  8
0
100
AcDbLine
 10
193.5120686914014
 20
-78.33938308267592
 30
0.0
 11
193.4493119183169
 21
-77.93964818038032
 31
0.0
  0
LINE
  5
164
330
1F
100
AcDbEntity
  8
0
100
AcDbLine
 10
193.4493119183169
 20
-77.93964818038032
 30
0.0
 11
193.4921525361264
 21
-77.5372912665008
 31
0.0
  0
LINE
  5
165
330
1F
100
AcDbEntity
  8
0
100
AcDbLine
 10
193.4921525361264
 20
-77.5372912665008
 30
0.0
 11
193.6376710275228
 21
-77.15973229979139
 31
0.0
  0
LINE
  5
166
330
1F
100
AcDbEntity
  8
0
100
AcDbLine
 10
193.6376710275228
 20
-77.15973229979139
 30
0.0
 11
193.8759505477995
 21
-76.83270129988827
 31
0.0
  0
LINE
  5
167
330
1F
100
AcDbEntity
  8
0
100
AcDbLine
 10
193.8759505477995
 20
-76.83270129988827
 30
0.0
 11
194.1907527414244
 21
-76.5784848889898
 31
0.0
  0
LINE
  5
168
330
1F
100
AcDbEntity
  8
0
100
AcDbLine
 10
194.1907527414244
 20
-76.5784848889898
 30
0.0
 11
194.5606243591374
 21
-76.41440749538664
 31
0.0
  0
LINE
  5
169
330
1F
100
AcDbEntity
  8
0
100
AcDbLine
 10
194.5606243591374
 20
-76.41440749538664
 30
0.0
 11
194.9603592614326
 21
-76.35165072230228
 31
0.0
  0
LINE
  5
16A
330
1F
100
AcDbEntity
  8
0
100
AcDbLine
 10
194.9603592614326
 20
-76.35165072230228
 30
0.0
 11
195.3627161753125
 21
-76.3944913401116
 31
0.0
  0
LINE
  5
16B
330
1F
100
AcDbEntity
  8
0
100
AcDbLine
 10
195.3627161753125
 20
-76.3944913401116
 30
0.0
 11
195.7402751420212
 21
-76.54000983150857
 31
0.0
  0
LINE
  5
16C
330
1F
100
AcDbEntity
  8
0
100
AcDbLine
 10
195.7402751420212
 20
-76.54000983150857
 30
0.0
 11
196.0673061419247
 21
-76.77828935178509
 31
0.0
  0
LINE
  5
16D
330
1F
100
AcDbEntity
  8
0
100
AcDbLine
 10
196.0673061419247
 20
-76.77828935178509
 30
0.0
 11
196.3215225528235
 21
-77.09309154540979
 31
0.0
  0
LINE
  5
16E
330
1F
100
AcDbEntity
  8
0
100
AcDbLine
 10
196.3215225528235
 20
-77.09309154540979
 30
0.0
 11
196.485599946426
 21
-77.46296316312278
 31
0.0
  0
LINE
  5
16F
330
1F
100
AcDbEntity
  8
0
100
AcDbLine
 10
196.485599946426
 20
-77.46296316312278
 30
0.0
 11
196.5483567195105
 21
-77.86269806541803
 31
0.0
  0
LINE
  5
170
330
1F
100
AcDbEntity
  8
0
100
AcDbLine
 10
196.5483567195105
 20
-77.86269806541803
 30
0.0
 11
196.5055161017017
 21
-78.26505497929755
 31
0.0
  0
LINE
  5
171
330
1F
100
AcDbEntity
  8
0
100
AcDbLine
 10
196.5055161017017
 20
-78.26505497929755
 30
0.0
 11
196.3599976103046
 21
-78.64261394600696
 31
0.0
  0
LINE
  5
172
330
1F
100
AcDbEntity
  8
0
100
AcDbLine
 10
196.3599976103046
 20
-78.64261394600696
 30
0.0
 11
196.1217180900279
 21
-78.96964494591026
 31
0.0
  0
LINE
  5
173
330
1F
100
AcDbEntity
  8
0
100
AcDbLine
 10
196.1217180900279
 20
-78.96964494591026
 30
0.0
 11
195.806915896403
 21
-79.22386135680854
 31
0.0
  0
LINE
  5
174
330
1F
100
AcDbEntity
  8
0
100
AcDbLine
 10
195.806915896403
 20
-79.22386135680854
 30
0.0
 11
195.43704427869
 21
-79.3879387504117
 31
0.0
  0
LINE
  5
175
330
1F
100
AcDbEntity
  8
0
100
AcDbLine
 10
195.43704427869
 20
-79.3879387504117
 30
0.0
 11
195.0373093763947
 21
-79.45069552349625
 31
0.0
  0
LINE
  5
176
330
1F
100
AcDbEntity
  8
0
100
AcDbLine
 10
195.0373093763947
 20
-79.45069552349625
 30
0.0
 11
194.6349524625156
 21
-79.40785490568675
 31
0.0
  0
LINE
  5
177
330
1F
100
AcDbEntity
  8
0
100
AcDbLine
 10
194.6349524625156
 20
-79.40785490568675
 30
0.0
 11
194.2573934958062
 21
-79.26233641428978
 31
0.0
  0
LINE
  5
178
330
1F
100
AcDbEntity
  8
0
100
AcDbLine
 10
194.2573934958062
 20
-79.26233641428978
 30
0.0
 11
193.9303624959027
 21
-79.02405689401343
 31
0.0
  0
LINE
  5
179
330
1F
100
AcDbEntity
  8
0
100
AcDbLine
 10
193.9303624959027
 20
-79.02405689401343
 30
0.0
 11
193.6761460850046
 21
-78.70925470038856
 31
0.0
  0
LINE
  5
17A
330
1F
100
AcDbEntity
  8
0
100
AcDbLine
 10
193.6761460850046
 20
-78.70925470038856
 30
0.0
 11
193.5120686914014
 21
-78.33938308267592
 31
0.0
  0
LINE
  5
17B
330
1F
100
AcDbEntity
  8
0
100
AcDbLine
 10
193.4937787039013
 20
1.728276481451675
 30
0.0
 11
193.4491567308072
 21
2.130439737105649
 31
0.0
  0
LINE
  5
17C
330
1F
100
AcDbEntity
  8
0
100
AcDbLine
 10
193.4491567308072
 20
2.130439737105649
 30
0.0
 11
193.5101427243799
 21
2.530448628593251
 31
0.0
  0
LINE
  5
17D
330
1F
100
AcDbEntity
  8
0
100
AcDbLine
 10
193.5101427243799
 20
2.530448628593251
 30
0.0
 11
193.6725805899408
 21
2.901043211004994
 31
0.0
  0
LINE
  5
17E
330
1F
100
AcDbEntity
  8
0
100
AcDbLine
 10
193.6725805899408
 20
2.901043211004994
 30
0.0
 11
193.9254004553932
 21
3.216968075986557
 31
0.0
  0
LINE
  5
17F
330
1F
100
AcDbEntity
  8
0
100
AcDbLine
 10
193.9254004553932
 20
3.216968075986557
 30
0.0
 11
194.2513730647113
 21
3.456693466079625
 31
0.0
  0
LINE
  5
180
330
1F
100
AcDbEntity
  8
0
100
AcDbLine
 10
194.2513730647113
 20
3.456693466079625
 30
0.0
 11
194.6282839232659
 21
3.603882492114434
 31
0.0
  0
LINE
  5
181
330
1F
100
AcDbEntity
  8
0
100
AcDbLine
 10
194.6282839232659
 20
3.603882492114434
 30
0.0
 11
195.0304471789195
 21
3.64850446520816
 31
0.0
  0
LINE
  5
182
330
1F
100
AcDbEntity
  8
0
100
AcDbLine
 10
195.0304471789195
 20
3.64850446520816
 30
0.0
 11
195.4304560704071
 21
3.587518471635471
 31
0.0
  0
LINE
  5
183
330
1F
100
AcDbEntity
  8
0
100
AcDbLine
 10
195.4304560704071
 20
3.587518471635471
 30
0.0
 11
195.8010506528192
 21
3.425080606074564
 31
0.0
  0
LINE
  5
184
330
1F
100
AcDbEntity
  8
0
100
AcDbLine
 10
195.8010506528192
 20
3.425080606074564
 30
0.0
 11
196.1169755178004
 21
3.172260740622133
 31
0.0
  0
LINE
  5
185
330
1F
100
AcDbEntity
  8
0
100
AcDbLine
 10
196.1169755178004
 20
3.172260740622133
 30
0.0
 11
196.3567009078938
 21
2.846288131303754
 31
0.0
  0
LINE
  5
186
330
1F
100
AcDbEntity
  8
0
100
AcDbLine
 10
196.3567009078938
 20
2.846288131303754
 30
0.0
 11
196.5038899339283
 21
2.469377272749864
 31
0.0
  0
LINE
  5
187
330
1F
100
AcDbEntity
  8
0
100
AcDbLine
 10
196.5038899339283
 20
2.469377272749864
 30
0.0
 11
196.5485119070223
 21
2.067214017095529
 31
0.0
  0
LINE
  5
188
330
1F
100
AcDbEntity
  8
0
100
AcDbLine
 10
196.5485119070223
 20
2.067214017095529
 30
0.0
 11
196.4875259134497
 21
1.667205125608288
 31
0.0
  0
LINE
  5
189
330
1F
100
AcDbEntity
  8
0
100
AcDbLine
 10
196.4875259134497
 20
1.667205125608288
 30
0.0
 11
196.3250880478888
 21
1.296610543196544
 31
0.0
  0
LINE
  5
18A
330
1F
100
AcDbEntity
  8
0
100
AcDbLine
 10
196.3250880478888
 20
1.296610543196544
 30
0.0
 11
196.0722681824363
 21
0.9806856782149822
 31
0.0
  0
LINE
  5
18B
330
1F
100
AcDbEntity
  8
0
100
AcDbLine
 10
196.0722681824363
 20
0.9806856782149822
 30
0.0
 11
195.7462955731176
 21
0.7409602881219143
 31
0.0
  0
LINE
  5
18C
330
1F
100
AcDbEntity
  8
0
100
AcDbLine
 10
195.7462955731176
 20
0.7409602881219143
 30
0.0
 11
195.3693847145637
 21
0.5937712620871053
 31
0.0
  0
LINE
  5
18D
330
1F
100
AcDbEntity
  8
0
100
AcDbLine
 10
195.3693847145637
 20
0.5937712620871053
 30
0.0
 11
194.9672214589094
 21
0.5491492889933794
 31
0.0
  0
LINE
  5
18E
330
1F
100
AcDbEntity
  8
0
100
AcDbLine
 10
194.9672214589094
 20
0.5491492889933794
 30
0.0
 11
194.5672125674225
 21
0.6101352825660683
 31
0.0
  0
LINE
  5
18F
330
1F
100
AcDbEntity
  8
0
100
AcDbLine
 10
194.5672125674225
 20
0.6101352825660683
 30
0.0
 11
194.1966179850104
 21
0.7725731481269746
 31
0.0
  0
LINE
  5
190
330
1F
100
AcDbEntity
  8
0
100
AcDbLine
 10
194.1966179850104
 20
0.7725731481269746
 30
0.0
 11
193.8806931200292
 21
1.025393013579406
 31
0.0
  0
LINE
  5
191
330
1F
100
AcDbEntity
  8
0
100
AcDbLine
 10
193.8806931200292
 20
1.025393013579406
 30
0.0
 11
193.6409677299357
 21
1.351365622897785
 31
0.0
  0
LINE
  5
192
330
1F
100
AcDbEntity
  8
0
100
AcDbLine
 10
193.6409677299357
 20
1.351365622897785
 30
0.0
 11
193.4937787039013
 21
1.728276481451675
 31
0.0
  0
LINE
  5
193
330
1F
100
AcDbEntity
  8
0
100
AcDbLine
 10
193.5016492881648
 20
82.4999963970096
 30
0.0
 11
193.6564949430471
 21
82.87382687710063
 31
0.0
  0
LINE
  5
194
330
1F
100
AcDbEntity
  8
0
100
AcDbLine
 10
193.6564949430471
 20
82.87382687710063
 30
0.0
 11
193.9028188080737
 21
83.19484238793987
 31
0.0
  0
LINE
  5
195
330
1F
100
AcDbEntity
  8
0
100
AcDbLine
 10
193.9028188080737
 20
83.19484238793987
 30
0.0
 11
194.2238343189124
 21
83.44116625296657
 31
0.0
  0
LINE
  5
196
330
1F
100
AcDbEntity
  8
0
100
AcDbLine
 10
194.2238343189124
 20
83.44116625296657
 30
0.0
 11
194.597664799004
 21
83.59601190784875
 31
0.0
  0
LINE
  5
197
330
1F
100
AcDbEntity
  8
0
100
AcDbLine
 10
194.597664799004
 20
83.59601190784875
 30
0.0
 11
194.998834318913
 21
83.64882687710063
 31
0.0
  0
LINE
  5
198
330
1F
100
AcDbEntity
  8
0
100
AcDbLine
 10
194.998834318913
 20
83.64882687710063
 30
0.0
 11
195.400003838822
 21
83.59601190784875
 31
0.0
  0
LINE
  5
199
330
1F
100
AcDbEntity
  8
0
100
AcDbLine
 10
195.400003838822
 20
83.59601190784875
 30
0.0
 11
195.7738343189128
 21
83.44116625296657
 31
0.0
  0
LINE
  5
19A
330
1F
100
AcDbEntity
  8
0
100
AcDbLine
 10
195.7738343189128
 20
83.44116625296657
 30
0.0
 11
196.0948498297522
 21
83.19484238793987
 31
0.0
  0
LINE
  5
19B
330
1F
100
AcDbEntity
  8
0
100
AcDbLine
 10
196.0948498297522
 20
83.19484238793987
 30
0.0
 11
196.3411736947788
 21
82.87382687710063
 31
0.0
  0
LINE
  5
19C
330
1F
100
AcDbEntity
  8
0
100
AcDbLine
 10
196.3411736947788
 20
82.87382687710063
 30
0.0
 11
196.4960193496605
 21
82.4999963970096
 31
0.0
  0
LINE
  5
19D
330
1F
100
AcDbEntity
  8
0
100
AcDbLine
 10
196.4960193496605
 20
82.4999963970096
 30
0.0
 11
196.5488343189126
 21
82.09882687710062
 31
0.0
  0
LINE
  5
19E
330
1F
100
AcDbEntity
  8
0
100
AcDbLine
 10
196.5488343189126
 20
82.09882687710062
 30
0.0
 11
196.4960193496605
 21
81.69765735719174
 31
0.0
  0
LINE
  5
19F
330
1F
100
AcDbEntity
  8
0
100
AcDbLine
 10
196.4960193496605
 20
81.69765735719174
 30
0.0
 11
196.3411736947788
 21
81.32382687710061
 31
0.0
  0
LINE
  5
1A0
330
1F
100
AcDbEntity
  8
0
100
AcDbLine
 10
196.3411736947788
 20
81.32382687710061
 30
0.0
 11
196.0948498297522
 21
81.00281136626155
 31
0.0
  0
LINE
  5
1A1
330
1F
100
AcDbEntity
  8
0
100
AcDbLine
 10
196.0948498297522
 20
81.00281136626155
 30
0.0
 11
195.7738343189128
 21
80.75648750123477
 31
0.0
  0
LINE
  5
1A2
330
1F
100
AcDbEntity
  8
0
100
AcDbLine
 10
195.7738343189128
 20
80.75648750123477
 30
0.0
 11
195.400003838822
 21
80.60164184635258
 31
0.0
  0
LINE
  5
1A3
330
1F
100
AcDbEntity
  8
0
100
AcDbLine
 10
195.400003838822
 20
80.60164184635258
 30
0.0
 11
194.998834318913
 21
80.54882687710061
 31
0.0
  0
LINE
  5
1A4
330
1F
100
AcDbEntity
  8
0
100
AcDbLine
 10
194.998834318913
 20
80.54882687710061
 30
0.0
 11
194.597664799004
 21
80.60164184635258
 31
0.0
  0
LINE
  5
1A5
330
1F
100
AcDbEntity
  8
0
100
AcDbLine
 10
194.597664799004
 20
80.60164184635258
 30
0.0
 11
194.2238343189124
 21
80.75648750123477
 31
0.0
  0
LINE
  5
1A6
330
1F
100
AcDbEntity
  8
0
100
AcDbLine
 10
194.2238343189124
 20
80.75648750123477
 30
0.0
 11
193.9028188080737
 21
81.00281136626155
 31
0.0
  0
LINE
  5
1A7
330
1F
100
AcDbEntity
  8
0
100
AcDbLine
 10
193.9028188080737
 20
81.00281136626155
 30
0.0
 11
193.6564949430471
 21
81.32382687710061
 31
0.0
  0
LINE
  5
1A8
330
1F
100
AcDbEntity
  8
0
100
AcDbLine
 10
193.6564949430471
 20
81.32382687710061
 30
0.0
 11
193.5016492881648
 21
81.69765735719174
 31
0.0
  0
LINE
  5
1A9
330
1F
100
AcDbEntity
  8
0
100
AcDbLine
 10
193.5016492881648
 20
81.69765735719174
 30
0.0
 11
193.4488343189126
 21
82.09882687710062
 31
0.0
  0
LINE
  5
1AA
330
1F
100
AcDbEntity
  8
0
100
AcDbLine
 10
193.4488343189126
 20
82.09882687710062
 30
0.0
 11
193.5016492881648
 21
82.4999963970096
 31
0.0
  0
LINE
  5
1AB
330
1F
100
AcDbEntity
  8
0
100
AcDbLine
 10
82.81894711465081
 20
-58.03586020387338
 30
0.0
 11
83.14860560970008
 21
-58.27049115094367
 31
0.0
  0
LINE
  5
1AC
330
1F
100
AcDbEntity
  8
0
100
AcDbLine
 10
82.56124841809992
 20
-57.72390221555306
 30
0.0
 11
82.81894711465081
 21
-58.03586020387338
 31
0.0
  0
LINE
  5
1AD
330
1F
100
AcDbEntity
  8
0
100
AcDbLine
 10
82.39307126034896
 20
-57.35587660735185
 30
0.0
 11
82.56124841809992
 21
-57.72390221555306
 31
0.0
  0
LINE
  5
1AE
330
1F
100
AcDbEntity
  8
0
100
AcDbLine
 10
82.32587663677376
 20
-56.95686371627732
 30
0.0
 11
82.39307126034896
 21
-57.35587660735185
 31
0.0
  0
LINE
  5
1AF
330
1F
100
AcDbEntity
  8
0
100
AcDbLine
 10
82.36424374992642
 20
-56.55405561145642
 30
0.0
 11
82.32587663677376
 21
-56.95686371627732
 31
0.0
  0
LINE
  5
1B0
330
1F
100
AcDbEntity
  8
0
100
AcDbLine
 10
82.50555794444988
 20
-56.17490299956091
 30
0.0
 11
82.36424374992642
 21
-56.55405561145642
 31
0.0
  0
LINE
  5
1B1
330
1F
100
AcDbEntity
  8
0
100
AcDbLine
 10
82.74018889151981
 20
-55.845244504512
 30
0.0
 11
82.50555794444988
 21
-56.17490299956091
 31
0.0
  0
LINE
  5
1B2
330
1F
100
AcDbEntity
  8
0
100
AcDbLine
 10
83.05214687984012
 20
-55.58754580796092
 30
0.0
 11
82.74018889151981
 21
-55.845244504512
 31
0.0
  0
LINE
  5
1B3
330
1F
100
AcDbEntity
  8
0
100
AcDbLine
 10
83.42017248804206
 20
-55.41936865021032
 30
0.0
 11
83.05214687984012
 21
-55.58754580796092
 31
0.0
  0
LINE
  5
1B4
330
1F
100
AcDbEntity
  8
0
100
AcDbLine
 10
83.8191853791164
 20
-55.35217402663512
 30
0.0
 11
83.42017248804206
 21
-55.41936865021032
 31
0.0
  0
LINE
  5
1B5
330
1F
100
AcDbEntity
  8
0
100
AcDbLine
 10
84.22199348393731
 20
-55.39054113978742
 30
0.0
 11
83.8191853791164
 21
-55.35217402663512
 31
0.0
  0
LINE
  5
1B6
330
1F
100
AcDbEntity
  8
0
100
AcDbLine
 10
84.60114609583282
 20
-55.5318553343107
 30
0.0
 11
84.22199348393731
 21
-55.39054113978742
 31
0.0
  0
LINE
  5
1B7
330
1F
100
AcDbEntity
  8
0
100
AcDbLine
 10
84.93080459088138
 20
-55.76648628138099
 30
0.0
 11
84.60114609583282
 21
-55.5318553343107
 31
0.0
  0
LINE
  5
1B8
330
1F
100
AcDbEntity
  8
0
100
AcDbLine
 10
85.188503287433
 20
-56.07844426970131
 30
0.0
 11
84.93080459088138
 21
-55.76648628138099
 31
0.0
  0
LINE
  5
1B9
330
1F
100
AcDbEntity
  8
0
100
AcDbLine
 10
85.35668044518323
 20
-56.4464698779027
 30
0.0
 11
85.188503287433
 21
-56.07844426970131
 31
0.0
  0
LINE
  5
1BA
330
1F
100
AcDbEntity
  8
0
100
AcDbLine
 10
85.42387506875843
 20
-56.84548276897723
 30
0.0
 11
85.35668044518323
 21
-56.4464698779027
 31
0.0
  0
LINE
  5
1BB
330
1F
100
AcDbEntity
  8
0
100
AcDbLine
 10
85.38550795560577
 20
-57.24829087379795
 30
0.0
 11
85.42387506875843
 21
-56.84548276897723
 31
0.0
  0
LINE
  5
1BC
330
1F
100
AcDbEntity
  8
0
100
AcDbLine
 10
85.24419376108303
 20
-57.62744348569365
 30
0.0
 11
85.38550795560577
 21
-57.24829087379795
 31
0.0
  0
LINE
  5
1BD
330
1F
100
AcDbEntity
  8
0
100
AcDbLine
 10
85.00956281401237
 20
-57.95710198074256
 30
0.0
 11
85.24419376108303
 21
-57.62744348569365
 31
0.0
  0
LINE
  5
1BE
330
1F
100
AcDbEntity
  8
0
100
AcDbLine
 10
84.69760482569207
 20
-58.21480067729363
 30
0.0
 11
85.00956281401237
 21
-57.95710198074256
 31
0.0
  0
LINE
  5
1BF
330
1F
100
AcDbEntity
  8
0
100
AcDbLine
 10
84.32957921749085
 20
-58.38297783504423
 30
0.0
 11
84.69760482569207
 21
-58.21480067729363
 31
0.0
  0
LINE
  5
1C0
330
1F
100
AcDbEntity
  8
0
100
AcDbLine
 10
83.9305663264165
 20
-58.45017245861943
 30
0.0
 11
84.32957921749085
 21
-58.38297783504423
 31
0.0
  0
LINE
  5
1C1
330
1F
100
AcDbEntity
  8
0
100
AcDbLine
 10
83.5277582215956
 20
-58.41180534546713
 30
0.0
 11
83.9305663264165
 21
-58.45017245861943
 31
0.0
  0
LINE
  5
1C2
330
1F
100
AcDbEntity
  8
0
100
AcDbLine
 10
83.14860560970008
 20
-58.27049115094367
 30
0.0
 11
83.5277582215956
 21
-58.41180534546713
 31
0.0
  0
LINE
  5
1C3
330
1F
100
AcDbEntity
  8
0
100
AcDbLine
 10
84.27604537267543
 20
-110.4039882118795
 30
0.0
 11
83.87487585276645
 21
-110.3511732426276
 31
0.0
  0
LINE
  5
1C4
330
1F
100
AcDbEntity
  8
0
100
AcDbLine
 10
84.64987585276627
 20
-110.5588338667617
 30
0.0
 11
84.27604537267543
 21
-110.4039882118795
 31
0.0
  0
LINE
  5
1C5
330
1F
100
AcDbEntity
  8
0
100
AcDbLine
 10
84.9708913636057
 20
-110.8051577317883
 30
0.0
 11
84.64987585276627
 21
-110.5588338667617
 31
0.0
  0
LINE
  5
1C6
330
1F
100
AcDbEntity
  8
0
100
AcDbLine
 10
85.21721522863231
 20
-111.1261732426276
 30
0.0
 11
84.9708913636057
 21
-110.8051577317883
 31
0.0
  0
LINE
  5
1C7
330
1F
100
AcDbEntity
  8
0
100
AcDbLine
 10
85.37206088351468
 20
-111.5000037227186
 30
0.0
 11
85.21721522863231
 21
-111.1261732426276
 31
0.0
  0
LINE
  5
1C8
330
1F
100
AcDbEntity
  8
0
100
AcDbLine
 10
85.4248758527661
 20
-111.9011732426276
 30
0.0
 11
85.37206088351468
 21
-111.5000037227186
 31
0.0
  0
LINE
  5
1C9
330
1F
100
AcDbEntity
  8
0
100
AcDbLine
 10
85.37206088351468
 20
-112.3023427625364
 30
0.0
 11
85.4248758527661
 21
-111.9011732426276
 31
0.0
  0
LINE
  5
1CA
330
1F
100
AcDbEntity
  8
0
100
AcDbLine
 10
85.21721522863231
 20
-112.6761732426276
 30
0.0
 11
85.37206088351468
 21
-112.3023427625364
 31
0.0
  0
LINE
  5
1CB
330
1F
100
AcDbEntity
  8
0
100
AcDbLine
 10
84.9708913636057
 20
-112.9971887534666
 30
0.0
 11
85.21721522863231
 21
-112.6761732426276
 31
0.0
  0
LINE
  5
1CC
330
1F
100
AcDbEntity
  8
0
100
AcDbLine
 10
84.64987585276627
 20
-113.2435126184934
 30
0.0
 11
84.9708913636057
 21
-112.9971887534666
 31
0.0
  0
LINE
  5
1CD
330
1F
100
AcDbEntity
  8
0
100
AcDbLine
 10
84.27604537267543
 20
-113.3983582733756
 30
0.0
 11
84.64987585276627
 21
-113.2435126184934
 31
0.0
  0
LINE
  5
1CE
330
1F
100
AcDbEntity
  8
0
100
AcDbLine
 10
83.87487585276645
 20
-113.4511732426276
 30
0.0
 11
84.27604537267543
 21
-113.3983582733756
 31
0.0
  0
LINE
  5
1CF
330
1F
100
AcDbEntity
  8
0
100
AcDbLine
 10
83.47370633285747
 20
-113.3983582733756
 30
0.0
 11
83.87487585276645
 21
-113.4511732426276
 31
0.0
  0
LINE
  5
1D0
330
1F
100
AcDbEntity
  8
0
100
AcDbLine
 10
83.09987585276663
 20
-113.2435126184934
 30
0.0
 11
83.47370633285747
 21
-113.3983582733756
 31
0.0
  0
LINE
  5
1D1
330
1F
100
AcDbEntity
  8
0
100
AcDbLine
 10
82.7788603419272
 20
-112.9971887534666
 30
0.0
 11
83.09987585276663
 21
-113.2435126184934
 31
0.0
  0
LINE
  5
1D2
330
1F
100
AcDbEntity
  8
0
100
AcDbLine
 10
82.5325364769006
 20
-112.6761732426276
 30
0.0
 11
82.7788603419272
 21
-112.9971887534666
 31
0.0
  0
LINE
  5
1D3
330
1F
100
AcDbEntity
  8
0
100
AcDbLine
 10
82.37769082201824
 20
-112.3023427625364
 30
0.0
 11
82.5325364769006
 21
-112.6761732426276
 31
0.0
  0
LINE
  5
1D4
330
1F
100
AcDbEntity
  8
0
100
AcDbLine
 10
82.32487585276608
 20
-111.9011732426276
 30
0.0
 11
82.37769082201824
 21
-112.3023427625364
 31
0.0
  0
LINE
  5
1D5
330
1F
100
AcDbEntity
  8
0
100
AcDbLine
 10
82.37769082201824
 20
-111.5000037227186
 30
0.0
 11
82.32487585276608
 21
-111.9011732426276
 31
0.0
  0
LINE
  5
1D6
330
1F
100
AcDbEntity
  8
0
100
AcDbLine
 10
82.5325364769006
 20
-111.1261732426276
 30
0.0
 11
82.37769082201824
 21
-111.5000037227186
 31
0.0
  0
LINE
  5
1D7
330
1F
100
AcDbEntity
  8
0
100
AcDbLine
 10
82.7788603419272
 20
-110.8051577317883
 30
0.0
 11
82.5325364769006
 21
-111.1261732426276
 31
0.0
  0
LINE
  5
1D8
330
1F
100
AcDbEntity
  8
0
100
AcDbLine
 10
83.09987585276663
 20
-110.5588338667617
 30
0.0
 11
82.7788603419272
 21
-110.8051577317883
 31
0.0
  0
LINE
  5
1D9
330
1F
100
AcDbEntity
  8
0
100
AcDbLine
 10
83.47370633285747
 20
-110.4039882118795
 30
0.0
 11
83.09987585276663
 21
-110.5588338667617
 31
0.0
  0
LINE
  5
1DA
330
1F
100
AcDbEntity
  8
0
100
AcDbLine
 10
83.87487585276645
 20
-110.3511732426276
 30
0.0
 11
83.47370633285747
 21
-110.4039882118795
 31
0.0
  0
LINE
  5
1DB
330
1F
100
AcDbEntity
  8
0
100
AcDbLine
 10
-114.0011656810861
 20
136.098826877101
 30
0.0
 11
-114.0194677842664
 21
-39.90117312289924
 31
0.0
  0
LINE
  5
1DC
330
1F
100
AcDbEntity
  8
0
100
AcDbLine
 10
21.01153864493208
 20
-68.94439045061986
 30
0.0
 11
20.94339029751007
 21
-68.4267523604148
 31
0.0
  0
LINE
  5
1DD
330
1F
100
AcDbEntity
  8
0
100
AcDbLine
 10
20.94339029751007
 20
-69.46202854082493
 30
0.0
 11
21.01153864493208
 21
-68.94439045061986
 31
0.0
  0
LINE
  5
1DE
330
1F
100
AcDbEntity
  8
0
100
AcDbLine
 10
20.74358945250059
 20
-69.9443904506198
 30
0.0
 11
20.94339029751007
 21
-69.46202854082493
 31
0.0
  0
LINE
  5
1DF
330
1F
100
AcDbEntity
  8
0
100
AcDbLine
 10
20.42575220730536
 20
-70.35860401299306
 30
0.0
 11
20.74358945250059
 21
-69.9443904506198
 31
0.0
  0
LINE
  5
1E0
330
1F
100
AcDbEntity
  8
0
100
AcDbLine
 10
20.01153864493158
 20
-70.67644125818882
 30
0.0
 11
20.42575220730536
 21
-70.35860401299306
 31
0.0
  0
LINE
  5
1E1
330
1F
100
AcDbEntity
  8
0
100
AcDbLine
 10
19.52917673513724
 20
-70.87624210319794
 30
0.0
 11
20.01153864493158
 21
-70.67644125818882
 31
0.0
  0
LINE
  5
1E2
330
1F
100
AcDbEntity
  8
0
100
AcDbLine
 10
19.01153864493181
 20
-70.94439045061995
 30
0.0
 11
19.52917673513724
 21
-70.87624210319794
 31
0.0
  0
LINE
  5
1E3
330
1F
100
AcDbEntity
  8
0
100
AcDbLine
 10
18.49390055472711
 20
-70.87624210319794
 30
0.0
 11
19.01153864493181
 21
-70.94439045061995
 31
0.0
  0
LINE
  5
1E4
330
1F
100
AcDbEntity
  8
0
100
AcDbLine
 10
18.01153864493204
 20
-70.67644125818882
 30
0.0
 11
18.49390055472711
 21
-70.87624210319794
 31
0.0
  0
LINE
  5
1E5
330
1F
100
AcDbEntity
  8
0
100
AcDbLine
 10
17.59732508255899
 20
-70.35860401299306
 30
0.0
 11
18.01153864493204
 21
-70.67644125818882
 31
0.0
  0
LINE
  5
1E6
330
1F
100
AcDbEntity
  8
0
100
AcDbLine
 10
17.27948783736304
 20
-69.9443904506198
 30
0.0
 11
17.59732508255899
 21
-70.35860401299306
 31
0.0
  0
LINE
  5
1E7
330
1F
100
AcDbEntity
  8
0
100
AcDbLine
 10
17.07968699235355
 20
-69.46202854082493
 30
0.0
 11
17.27948783736304
 21
-69.9443904506198
 31
0.0
  0
LINE
  5
1E8
330
1F
100
AcDbEntity
  8
0
100
AcDbLine
 10
17.01153864493227
 20
-68.94439045061986
 30
0.0
 11
17.07968699235355
 21
-69.46202854082493
 31
0.0
  0
LINE
  5
1E9
330
1F
100
AcDbEntity
  8
0
100
AcDbLine
 10
17.07968699235355
 20
-68.4267523604148
 30
0.0
 11
17.01153864493227
 21
-68.94439045061986
 31
0.0
  0
LINE
  5
1EA
330
1F
100
AcDbEntity
  8
0
100
AcDbLine
 10
17.27948783736304
 20
-67.9443904506199
 30
0.0
 11
17.07968699235355
 21
-68.4267523604148
 31
0.0
  0
LINE
  5
1EB
330
1F
100
AcDbEntity
  8
0
100
AcDbLine
 10
17.59732508255899
 20
-67.53017688824686
 30
0.0
 11
17.27948783736304
 21
-67.9443904506199
 31
0.0
  0
LINE
  5
1EC
330
1F
100
AcDbEntity
  8
0
100
AcDbLine
 10
18.01153864493204
 20
-67.21233964305108
 30
0.0
 11
17.59732508255899
 21
-67.53017688824686
 31
0.0
  0
LINE
  5
1ED
330
1F
100
AcDbEntity
  8
0
100
AcDbLine
 10
18.49390055472711
 20
-67.01253879804179
 30
0.0
 11
18.01153864493204
 21
-67.21233964305108
 31
0.0
  0
LINE
  5
1EE
330
1F
100
AcDbEntity
  8
0
100
AcDbLine
 10
19.01153864493181
 20
-66.94439045061995
 30
0.0
 11
18.49390055472711
 21
-67.01253879804179
 31
0.0
  0
LINE
  5
1EF
330
1F
100
AcDbEntity
  8
0
100
AcDbLine
 10
19.52917673513724
 20
-67.01253879804179
 30
0.0
 11
19.01153864493181
 21
-66.94439045061995
 31
0.0
  0
LINE
  5
1F0
330
1F
100
AcDbEntity
  8
0
100
AcDbLine
 10
20.01153864493158
 20
-67.21233964305108
 30
0.0
 11
19.52917673513724
 21
-67.01253879804179
 31
0.0
  0
LINE
  5
1F1
330
1F
100
AcDbEntity
  8
0
100
AcDbLine
 10
20.42575220730536
 20
-67.53017688824686
 30
0.0
 11
20.01153864493158
 21
-67.21233964305108
 31
0.0
  0
LINE
  5
1F2
330
1F
100
AcDbEntity
  8
0
100
AcDbLine
 10
20.74358945250059
 20
-67.9443904506199
 30
0.0
 11
20.42575220730536
 21
-67.53017688824686
 31
0.0
  0
LINE
  5
1F3
330
1F
100
AcDbEntity
  8
0
100
AcDbLine
 10
20.94339029751007
 20
-68.4267523604148
 30
0.0
 11
20.74358945250059
 21
-67.9443904506199
 31
0.0
  0
LINE
  5
1F4
330
1F
100
AcDbEntity
  8
0
100
AcDbLine
 10
30.44339029751007
 20
-68.4267523604148
 30
0.0
 11
30.24358945250059
 21
-67.9443904506199
 31
0.0
  0
LINE
  5
1F5
330
1F
100
AcDbEntity
  8
0
100
AcDbLine
 10
30.51153864493208
 20
-68.94439045061986
 30
0.0
 11
30.44339029751007
 21
-68.4267523604148
 31
0.0
  0
LINE
  5
1F6
330
1F
100
AcDbEntity
  8
0
100
AcDbLine
 10
30.44339029751007
 20
-69.46202854082493
 30
0.0
 11
30.51153864493208
 21
-68.94439045061986
 31
0.0
  0
LINE
  5
1F7
330
1F
100
AcDbEntity
  8
0
100
AcDbLine
 10
30.24358945250059
 20
-69.9443904506198
 30
0.0
 11
30.44339029751007
 21
-69.46202854082493
 31
0.0
  0
LINE
  5
1F8
330
1F
100
AcDbEntity
  8
0
100
AcDbLine
 10
29.92575220730537
 20
-70.35860401299287
 30
0.0
 11
30.24358945250059
 21
-69.9443904506198
 31
0.0
  0
LINE
  5
1F9
330
1F
100
AcDbEntity
  8
0
100
AcDbLine
 10
29.51153864493231
 20
-70.67644125818863
 30
0.0
 11
29.92575220730537
 21
-70.35860401299287
 31
0.0
  0
LINE
  5
1FA
330
1F
100
AcDbEntity
  8
0
100
AcDbLine
 10
29.02917673513724
 20
-70.87624210319794
 30
0.0
 11
29.51153864493231
 21
-70.67644125818863
 31
0.0
  0
LINE
  5
1FB
330
1F
100
AcDbEntity
  8
0
100
AcDbLine
 10
28.51153864493182
 20
-70.94439045061976
 30
0.0
 11
29.02917673513724
 21
-70.87624210319794
 31
0.0
  0
LINE
  5
1FC
330
1F
100
AcDbEntity
  8
0
100
AcDbLine
 10
27.99390055472711
 20
-70.87624210319794
 30
0.0
 11
28.51153864493182
 21
-70.94439045061976
 31
0.0
  0
LINE
  5
1FD
330
1F
100
AcDbEntity
  8
0
100
AcDbLine
 10
27.51153864493205
 20
-70.67644125818882
 30
0.0
 11
27.99390055472711
 21
-70.87624210319794
 31
0.0
  0
LINE
  5
1FE
330
1F
100
AcDbEntity
  8
0
100
AcDbLine
 10
27.09732508255899
 20
-70.35860401299306
 30
0.0
 11
27.51153864493205
 21
-70.67644125818882
 31
0.0
  0
LINE
  5
1FF
330
1F
100
AcDbEntity
  8
0
100
AcDbLine
 10
26.77948783736304
 20
-69.9443904506198
 30
0.0
 11
27.09732508255899
 21
-70.35860401299306
 31
0.0
  0
LINE
  5
200
330
1F
100
AcDbEntity
  8
0
100
AcDbLine
 10
26.57968699235356
 20
-69.46202854082493
 30
0.0
 11
26.77948783736304
 21
-69.9443904506198
 31
0.0
  0
LINE
  5
201
330
1F
100
AcDbEntity
  8
0
100
AcDbLine
 10
26.51153864493227
 20
-68.94439045061986
 30
0.0
 11
26.57968699235356
 21
-69.46202854082493
 31
0.0
  0
LINE
  5
202
330
1F
100
AcDbEntity
  8
0
100
AcDbLine
 10
26.57968699235356
 20
-68.4267523604148
 30
0.0
 11
26.51153864493227
 21
-68.94439045061986
 31
0.0
  0
LINE
  5
203
330
1F
100
AcDbEntity
  8
0
100
AcDbLine
 10
26.77948783736304
 20
-67.9443904506199
 30
0.0
 11
26.57968699235356
 21
-68.4267523604148
 31
0.0
  0
LINE
  5
204
330
1F
100
AcDbEntity
  8
0
100
AcDbLine
 10
27.09732508255899
 20
-67.53017688824686
 30
0.0
 11
26.77948783736304
 21
-67.9443904506199
 31
0.0
  0
LINE
  5
205
330
1F
100
AcDbEntity
  8
0
100
AcDbLine
 10
27.51153864493205
 20
-67.21233964305108
 30
0.0
 11
27.09732508255899
 21
-67.53017688824686
 31
0.0
  0
LINE
  5
206
330
1F
100
AcDbEntity
  8
0
100
AcDbLine
 10
27.99390055472711
 20
-67.0125387980416
 30
0.0
 11
27.51153864493205
 21
-67.21233964305108
 31
0.0
  0
LINE
  5
207
330
1F
100
AcDbEntity
  8
0
100
AcDbLine
 10
28.51153864493182
 20
-66.94439045061978
 30
0.0
 11
27.99390055472711
 21
-67.0125387980416
 31
0.0
  0
LINE
  5
208
330
1F
100
AcDbEntity
  8
0
100
AcDbLine
 10
29.02917673513724
 20
-67.0125387980416
 30
0.0
 11
28.51153864493182
 21
-66.94439045061978
 31
0.0
  0
LINE
  5
209
330
1F
100
AcDbEntity
  8
0
100
AcDbLine
 10
29.51153864493159
 20
-67.2123396430509
 30
0.0
 11
29.02917673513724
 21
-67.0125387980416
 31
0.0
  0
LINE
  5
20A
330
1F
100
AcDbEntity
  8
0
100
AcDbLine
 10
29.92575220730537
 20
-67.53017688824667
 30
0.0
 11
29.51153864493159
 21
-67.2123396430509
 31
0.0
  0
LINE
  5
20B
330
1F
100
AcDbEntity
  8
0
100
AcDbLine
 10
30.24358945250059
 20
-67.9443904506199
 30
0.0
 11
29.92575220730537
 21
-67.53017688824667
 31
0.0
  0
LINE
  5
20C
330
1F
100
AcDbEntity
  8
0
100
AcDbLine
 10
53.54883431890978
 20
-114.9011731228822
 30
0.0
 11
53.49601934965763
 21
-114.5000036029732
 31
0.0
  0
LINE
  5
20D
330
1F
100
AcDbEntity
  8
0
100
AcDbLine
 10
53.49601934965763
 20
-115.3023426427912
 30
0.0
 11
53.54883431890978
 21
-114.9011731228822
 31
0.0
  0
LINE
  5
20E
330
1F
100
AcDbEntity
  8
0
100
AcDbLine
 10
53.34117369477599
 20
-115.6761731228822
 30
0.0
 11
53.49601934965763
 21
-115.3023426427912
 31
0.0
  0
LINE
  5
20F
330
1F
100
AcDbEntity
  8
0
100
AcDbLine
 10
53.09484982974865
 20
-115.9971886337213
 30
0.0
 11
53.34117369477599
 21
-115.6761731228822
 31
0.0
  0
LINE
  5
210
330
1F
100
AcDbEntity
  8
0
100
AcDbLine
 10
52.77383431890996
 20
-116.243512498748
 30
0.0
 11
53.09484982974865
 21
-115.9971886337213
 31
0.0
  0
LINE
  5
211
330
1F
100
AcDbEntity
  8
0
100
AcDbLine
 10
52.40000383881838
 20
-116.3983581536302
 30
0.0
 11
52.77383431890996
 21
-116.243512498748
 31
0.0
  0
LINE
  5
212
330
1F
100
AcDbEntity
  8
0
100
AcDbLine
 10
51.99883431891013
 20
-116.4511731228822
 30
0.0
 11
52.40000383881838
 21
-116.3983581536302
 31
0.0
  0
LINE
  5
213
330
1F
100
AcDbEntity
  8
0
100
AcDbLine
 10
51.59766479900116
 20
-116.3983581536302
 30
0.0
 11
51.99883431891013
 21
-116.4511731228822
 31
0.0
  0
LINE
  5
214
330
1F
100
AcDbEntity
  8
0
100
AcDbLine
 10
51.22383431890958
 20
-116.243512498748
 30
0.0
 11
51.59766479900116
 21
-116.3983581536302
 31
0.0
  0
LINE
  5
215
330
1F
100
AcDbEntity
  8
0
100
AcDbLine
 10
50.90281880807088
 20
-115.9971886337213
 30
0.0
 11
51.22383431890958
 21
-116.243512498748
 31
0.0
  0
LINE
  5
216
330
1F
100
AcDbEntity
  8
0
100
AcDbLine
 10
50.65649494304427
 20
-115.6761731228822
 30
0.0
 11
50.90281880807088
 21
-115.9971886337213
 31
0.0
  0
LINE
  5
217
330
1F
100
AcDbEntity
  8
0
100
AcDbLine
 10
50.50164928816191
 20
-115.3023426427912
 30
0.0
 11
50.65649494304427
 21
-115.6761731228822
 31
0.0
  0
LINE
  5
218
330
1F
100
AcDbEntity
  8
0
100
AcDbLine
 10
50.44883431890976
 20
-114.9011731228822
 30
0.0
 11
50.50164928816191
 21
-115.3023426427912
 31
0.0
  0
LINE
  5
219
330
1F
100
AcDbEntity
  8
0
100
AcDbLine
 10
50.50164928816191
 20
-114.5000036029732
 30
0.0
 11
50.44883431890976
 21
-114.9011731228822
 31
0.0
  0
LINE
  5
21A
330
1F
100
AcDbEntity
  8
0
100
AcDbLine
 10
50.65649494304355
 20
-114.1261731228822
 30
0.0
 11
50.50164928816191
 21
-114.5000036029732
 31
0.0
  0
LINE
  5
21B
330
1F
100
AcDbEntity
  8
0
100
AcDbLine
 10
50.90281880807088
 20
-113.8051576120431
 30
0.0
 11
50.65649494304355
 21
-114.1261731228822
 31
0.0
  0
LINE
  5
21C
330
1F
100
AcDbEntity
  8
0
100
AcDbLine
 10
51.22383431890958
 20
-113.5588337470163
 30
0.0
 11
50.90281880807088
 21
-113.8051576120431
 31
0.0
  0
LINE
  5
21D
330
1F
100
AcDbEntity
  8
0
100
AcDbLine
 10
51.59766479900116
 20
-113.4039880921341
 30
0.0
 11
51.22383431890958
 21
-113.5588337470163
 31
0.0
  0
LINE
  5
21E
330
1F
100
AcDbEntity
  8
0
100
AcDbLine
 10
51.99883431891013
 20
-113.3511731228822
 30
0.0
 11
51.59766479900116
 21
-113.4039880921341
 31
0.0
  0
LINE
  5
21F
330
1F
100
AcDbEntity
  8
0
100
AcDbLine
 10
52.40000383881838
 20
-113.4039880921341
 30
0.0
 11
51.99883431891013
 21
-113.3511731228822
 31
0.0
  0
LINE
  5
220
330
1F
100
AcDbEntity
  8
0
100
AcDbLine
 10
52.77383431890996
 20
-113.5588337470163
 30
0.0
 11
52.40000383881838
 21
-113.4039880921341
 31
0.0
  0
LINE
  5
221
330
1F
100
AcDbEntity
  8
0
100
AcDbLine
 10
53.09484982974865
 20
-113.8051576120431
 30
0.0
 11
52.77383431890996
 21
-113.5588337470163
 31
0.0
  0
LINE
  5
222
330
1F
100
AcDbEntity
  8
0
100
AcDbLine
 10
53.34117369477599
 20
-114.1261731228822
 30
0.0
 11
53.09484982974865
 21
-113.8051576120431
 31
0.0
  0
LINE
  5
223
330
1F
100
AcDbEntity
  8
0
100
AcDbLine
 10
53.49601934965763
 20
-114.5000036029732
 30
0.0
 11
53.34117369477599
 21
-114.1261731228822
 31
0.0
  0
LINE
  5
224
330
1F
100
AcDbEntity
  8
0
100
AcDbLine
 10
58.4488343189157
 20
113.2973277173411
 30
0.0
 11
58.50164928816767
 21
112.8961581974321
 31
0.0
  0
LINE
  5
225
330
1F
100
AcDbEntity
  8
0
100
AcDbLine
 10
58.50164928816767
 20
113.6984972372501
 30
0.0
 11
58.4488343189157
 21
113.2973277173411
 31
0.0
  0
LINE
  5
226
330
1F
100
AcDbEntity
  8
0
100
AcDbLine
 10
58.65649494304986
 20
114.0723277173411
 30
0.0
 11
58.50164928816767
 21
113.6984972372501
 31
0.0
  0
LINE
  5
227
330
1F
100
AcDbEntity
  8
0
100
AcDbLine
 10
58.90281880807655
 20
114.3933432281803
 30
0.0
 11
58.65649494304986
 21
114.0723277173411
 31
0.0
  0
LINE
  5
228
330
1F
100
AcDbEntity
  8
0
100
AcDbLine
 10
59.22383431891571
 20
114.639667093207
 30
0.0
 11
58.90281880807655
 21
114.3933432281803
 31
0.0
  0
LINE
  5
229
330
1F
100
AcDbEntity
  8
0
100
AcDbLine
 10
59.59766479900683
 20
114.7945127480891
 30
0.0
 11
59.22383431891571
 21
114.639667093207
 31
0.0
  0
LINE
  5
22A
330
1F
100
AcDbEntity
  8
0
100
AcDbLine
 10
59.99883431891571
 20
114.8473277173411
 30
0.0
 11
59.59766479900683
 21
114.7945127480891
 31
0.0
  0
LINE
  5
22B
330
1F
100
AcDbEntity
  8
0
100
AcDbLine
 10
60.4000038388246
 20
114.7945127480891
 30
0.0
 11
59.99883431891571
 21
114.8473277173411
 31
0.0
  0
LINE
  5
22C
330
1F
100
AcDbEntity
  8
0
100
AcDbLine
 10
60.77383431891572
 20
114.639667093207
 30
0.0
 11
60.4000038388246
 21
114.7945127480891
 31
0.0
  0
LINE
  5
22D
330
1F
100
AcDbEntity
  8
0
100
AcDbLine
 10
61.09484982975487
 20
114.3933432281803
 30
0.0
 11
60.77383431891572
 21
114.639667093207
 31
0.0
  0
LINE
  5
22E
330
1F
100
AcDbEntity
  8
0
100
AcDbLine
 10
61.34117369478157
 20
114.0723277173411
 30
0.0
 11
61.09484982975487
 21
114.3933432281803
 31
0.0
  0
LINE
  5
22F
330
1F
100
AcDbEntity
  8
0
100
AcDbLine
 10
61.49601934966375
 20
113.6984972372501
 30
0.0
 11
61.34117369478157
 21
114.0723277173411
 31
0.0
  0
LINE
  5
230
330
1F
100
AcDbEntity
  8
0
100
AcDbLine
 10
61.54883431891572
 20
113.2973277173411
 30
0.0
 11
61.49601934966375
 21
113.6984972372501
 31
0.0
  0
LINE
  5
231
330
1F
100
AcDbEntity
  8
0
100
AcDbLine
 10
61.49601934966375
 20
112.8961581974321
 30
0.0
 11
61.54883431891572
 21
113.2973277173411
 31
0.0
  0
LINE
  5
232
330
1F
100
AcDbEntity
  8
0
100
AcDbLine
 10
61.34117369478157
 20
112.5223277173411
 30
0.0
 11
61.49601934966375
 21
112.8961581974321
 31
0.0
  0
LINE
  5
233
330
1F
100
AcDbEntity
  8
0
100
AcDbLine
 10
61.09484982975487
 20
112.2013122065019
 30
0.0
 11
61.34117369478157
 21
112.5223277173411
 31
0.0
  0
LINE
  5
234
330
1F
100
AcDbEntity
  8
0
100
AcDbLine
 10
60.77383431891572
 20
111.9549883414752
 30
0.0
 11
61.09484982975487
 21
112.2013122065019
 31
0.0
  0
LINE
  5
235
330
1F
100
AcDbEntity
  8
0
100
AcDbLine
 10
60.4000038388246
 20
111.800142686593
 30
0.0
 11
60.77383431891572
 21
111.9549883414752
 31
0.0
  0
LINE
  5
236
330
1F
100
AcDbEntity
  8
0
100
AcDbLine
 10
59.99883431891571
 20
111.7473277173411
 30
0.0
 11
60.4000038388246
 21
111.800142686593
 31
0.0
  0
LINE
  5
237
330
1F
100
AcDbEntity
  8
0
100
AcDbLine
 10
59.59766479900683
 20
111.800142686593
 30
0.0
 11
59.99883431891571
 21
111.7473277173411
 31
0.0
  0
LINE
  5
238
330
1F
100
AcDbEntity
  8
0
100
AcDbLine
 10
59.22383431891571
 20
111.9549883414752
 30
0.0
 11
59.59766479900683
 21
111.800142686593
 31
0.0
  0
LINE
  5
239
330
1F
100
AcDbEntity
  8
0
100
AcDbLine
 10
58.90281880807655
 20
112.2013122065019
 30
0.0
 11
59.22383431891571
 21
111.9549883414752
 31
0.0
  0
LINE
  5
23A
330
1F
100
AcDbEntity
  8
0
100
AcDbLine
 10
58.65649494304986
 20
112.5223277173411
 30
0.0
 11
58.90281880807655
 21
112.2013122065019
 31
0.0
  0
LINE
  5
23B
330
1F
100
AcDbEntity
  8
0
100
AcDbLine
 10
58.50164928816767
 20
112.8961581974321
 30
0.0
 11
58.65649494304986
 21
112.5223277173411
 31
0.0
  0
LINE
  5
23C
330
1F
100
AcDbEntity
  8
0
100
AcDbLine
 10
31.52883914736911
 20
113.7888703865264
 30
0.0
 11
31.45170741393289
 21
113.3916587296252
 31
0.0
  0
LINE
  5
23D
330
1F
100
AcDbEntity
  8
0
100
AcDbLine
 10
31.70614862246422
 20
114.1525842228352
 30
0.0
 11
31.52883914736911
 21
113.7888703865264
 31
0.0
  0
LINE
  5
23E
330
1F
100
AcDbEntity
  8
0
100
AcDbLine
 10
31.97155249150845
 20
114.4580137416728
 30
0.0
 11
31.70614862246422
 21
114.1525842228352
 31
0.0
  0
LINE
  5
23F
330
1F
100
AcDbEntity
  8
0
100
AcDbLine
 10
32.30696391942703
 20
114.6843444260766
 30
0.0
 11
31.97155249150845
 21
114.4580137416728
 31
0.0
  0
LINE
  5
240
330
1F
100
AcDbEntity
  8
0
100
AcDbLine
 10
32.68952517170083
 20
114.8161522139335
 30
0.0
 11
32.30696391942703
 21
114.6843444260766
 31
0.0
  0
LINE
  5
241
330
1F
100
AcDbEntity
  8
0
100
AcDbLine
 10
33.09316533119974
 20
114.8444546223238
 30
0.0
 11
32.68952517170083
 21
114.8161522139335
 31
0.0
  0
LINE
  5
242
330
1F
100
AcDbEntity
  8
0
100
AcDbLine
 10
33.49037698810089
 20
114.7673228888877
 30
0.0
 11
33.09316533119974
 21
114.8444546223238
 31
0.0
  0
LINE
  5
243
330
1F
100
AcDbEntity
  8
0
100
AcDbLine
 10
33.85409082440977
 20
114.5900134137925
 30
0.0
 11
33.49037698810089
 21
114.7673228888877
 31
0.0
  0
LINE
  5
244
330
1F
100
AcDbEntity
  8
0
100
AcDbLine
 10
34.15952034324735
 20
114.3246095447483
 30
0.0
 11
33.85409082440977
 21
114.5900134137925
 31
0.0
  0
LINE
  5
245
330
1F
100
AcDbEntity
  8
0
100
AcDbLine
 10
34.38585102765115
 20
113.9891981168297
 30
0.0
 11
34.15952034324735
 21
114.3246095447483
 31
0.0
  0
LINE
  5
246
330
1F
100
AcDbEntity
  8
0
100
AcDbLine
 10
34.51765881550806
 20
113.606636864556
 30
0.0
 11
34.38585102765115
 21
113.9891981168297
 31
0.0
  0
LINE
  5
247
330
1F
100
AcDbEntity
  8
0
100
AcDbLine
 10
34.54596122389837
 20
113.202996705057
 30
0.0
 11
34.51765881550806
 21
113.606636864556
 31
0.0
  0
LINE
  5
248
330
1F
100
AcDbEntity
  8
0
100
AcDbLine
 10
34.46882949046223
 20
112.8057850481558
 30
0.0
 11
34.54596122389837
 21
113.202996705057
 31
0.0
  0
LINE
  5
249
330
1F
100
AcDbEntity
  8
0
100
AcDbLine
 10
34.29152001536703
 20
112.442071211847
 30
0.0
 11
34.46882949046223
 21
112.8057850481558
 31
0.0
  0
LINE
  5
24A
330
1F
100
AcDbEntity
  8
0
100
AcDbLine
 10
34.0261161463228
 20
112.1366416930094
 30
0.0
 11
34.29152001536703
 21
112.442071211847
 31
0.0
  0
LINE
  5
24B
330
1F
100
AcDbEntity
  8
0
100
AcDbLine
 10
33.69070471840432
 20
111.9103110086056
 30
0.0
 11
34.0261161463228
 21
112.1366416930094
 31
0.0
  0
LINE
  5
24C
330
1F
100
AcDbEntity
  8
0
100
AcDbLine
 10
33.30814346613051
 20
111.7785032207487
 30
0.0
 11
33.69070471840432
 21
111.9103110086056
 31
0.0
  0
LINE
  5
24D
330
1F
100
AcDbEntity
  8
0
100
AcDbLine
 10
32.9045033066315
 20
111.7502008123584
 30
0.0
 11
33.30814346613051
 21
111.7785032207487
 31
0.0
  0
LINE
  5
24E
330
1F
100
AcDbEntity
  8
0
100
AcDbLine
 10
32.50729164973045
 20
111.8273325457945
 30
0.0
 11
32.9045033066315
 21
111.7502008123584
 31
0.0
  0
LINE
  5
24F
330
1F
100
AcDbEntity
  8
0
100
AcDbLine
 10
32.14357781342158
 20
112.0046420208897
 30
0.0
 11
32.50729164973045
 21
111.8273325457945
 31
0.0
  0
LINE
  5
250
330
1F
100
AcDbEntity
  8
0
100
AcDbLine
 10
31.8381482945839
 20
112.2700458899339
 30
0.0
 11
32.14357781342158
 21
112.0046420208897
 31
0.0
  0
LINE
  5
251
330
1F
100
AcDbEntity
  8
0
100
AcDbLine
 10
31.61181761018019
 20
112.6054573178525
 30
0.0
 11
31.8381482945839
 21
112.2700458899339
 31
0.0
  0
LINE
  5
252
330
1F
100
AcDbEntity
  8
0
100
AcDbLine
 10
31.48000982232328
 20
112.9880185701262
 30
0.0
 11
31.61181761018019
 21
112.6054573178525
 31
0.0
  0
LINE
  5
253
330
1F
100
AcDbEntity
  8
0
100
AcDbLine
 10
31.45170741393289
 20
113.3916587296252
 30
0.0
 11
31.48000982232328
 21
112.9880185701262
 31
0.0
  0
LINE
  5
254
330
1F
100
AcDbEntity
  8
0
100
AcDbLine
 10
71.49619641913233
 20
-113.0224935957146
 30
0.0
 11
71.97295228692572
 21
-112.4011732521547
 31
0.0
  0
LINE
  5
255
330
1F
100
AcDbEntity
  8
0
100
AcDbLine
 10
70.87487607557293
 20
-113.4992494635086
 30
0.0
 11
71.49619641913233
 21
-113.0224935957146
 31
0.0
  0
LINE
  5
256
330
1F
100
AcDbEntity
  8
0
100
AcDbLine
 10
70.1513332108807
 20
-113.7989507310228
 30
0.0
 11
70.87487607557293
 21
-113.4992494635086
 31
0.0
  0
LINE
  5
257
330
1F
100
AcDbEntity
  8
0
100
AcDbLine
 10
69.37487607557318
 20
-113.901173252156
 30
0.0
 11
70.1513332108807
 21
-113.7989507310228
 31
0.0
  0
LINE
  5
258
330
1F
100
AcDbEntity
  8
0
100
AcDbLine
 10
68.59841894026557
 20
-113.7989507310235
 30
0.0
 11
69.37487607557318
 21
-113.901173252156
 31
0.0
  0
LINE
  5
259
330
1F
100
AcDbEntity
  8
0
100
AcDbLine
 10
67.87487607557298
 20
-113.49924946351
 30
0.0
 11
68.59841894026557
 21
-113.7989507310235
 31
0.0
  0
LINE
  5
25A
330
1F
100
AcDbEntity
  8
0
100
AcDbLine
 10
67.25355573201313
 20
-113.0224935957166
 30
0.0
 11
67.87487607557298
 21
-113.49924946351
 31
0.0
  0
LINE
  5
25B
330
1F
100
AcDbEntity
  8
0
100
AcDbLine
 10
66.77679986421911
 20
-112.4011732521572
 30
0.0
 11
67.25355573201313
 21
-113.0224935957166
 31
0.0
  0
LINE
  5
25C
330
1F
100
AcDbEntity
  8
0
100
AcDbLine
 10
66.47709859670489
 20
-111.6776303874649
 30
0.0
 11
66.77679986421911
 21
-112.4011732521572
 31
0.0
  0
LINE
  5
25D
330
1F
100
AcDbEntity
  8
0
100
AcDbLine
 10
66.37487607557179
 20
-110.9011732521574
 30
0.0
 11
66.47709859670489
 21
-111.6776303874649
 31
0.0
  0
LINE
  5
25E
330
1F
100
AcDbEntity
  8
0
100
AcDbLine
 10
66.47709859670417
 20
-110.1247161168498
 30
0.0
 11
66.37487607557179
 21
-110.9011732521574
 31
0.0
  0
LINE
  5
25F
330
1F
100
AcDbEntity
  8
0
100
AcDbLine
 10
66.77679986421776
 20
-109.4011732521572
 30
0.0
 11
66.47709859670417
 21
-110.1247161168498
 31
0.0
  0
LINE
  5
260
330
1F
100
AcDbEntity
  8
0
100
AcDbLine
 10
67.25355573201114
 20
-108.7798529085973
 30
0.0
 11
66.77679986421776
 21
-109.4011732521572
 31
0.0
  0
LINE
  5
261
330
1F
100
AcDbEntity
  8
0
100
AcDbLine
 10
67.87487607557054
 20
-108.3030970408034
 30
0.0
 11
67.25355573201114
 21
-108.7798529085973
 31
0.0
  0
LINE
  5
262
330
1F
100
AcDbEntity
  8
0
100
AcDbLine
 10
68.59841894026277
 20
-108.0033957732891
 30
0.0
 11
67.87487607557054
 21
-108.3030970408034
 31
0.0
  0
LINE
  5
263
330
1F
100
AcDbEntity
  8
0
100
AcDbLine
 10
69.3748760755703
 20
-107.901173252156
 30
0.0
 11
68.59841894026277
 21
-108.0033957732891
 31
0.0
  0
LINE
  5
264
330
1F
100
AcDbEntity
  8
0
100
AcDbLine
 10
70.1513332108779
 20
-108.0033957732884
 30
0.0
 11
69.3748760755703
 21
-107.901173252156
 31
0.0
  0
LINE
  5
265
330
1F
100
AcDbEntity
  8
0
100
AcDbLine
 10
70.8748760755705
 20
-108.303097040802
 30
0.0
 11
70.1513332108779
 21
-108.0033957732884
 31
0.0
  0
LINE
  5
266
330
1F
100
AcDbEntity
  8
0
100
AcDbLine
 10
71.49619641913034
 20
-108.7798529085954
 30
0.0
 11
70.8748760755705
 21
-108.303097040802
 31
0.0
  0
LINE
  5
267
330
1F
100
AcDbEntity
  8
0
100
AcDbLine
 10
71.97295228692437
 20
-109.4011732521548
 30
0.0
 11
71.49619641913034
 21
-108.7798529085954
 31
0.0
  0
LINE
  5
268
330
1F
100
AcDbEntity
  8
0
100
AcDbLine
 10
72.27265355443858
 20
-110.124716116847
 30
0.0
 11
71.97295228692437
 21
-109.4011732521548
 31
0.0
  0
LINE
  5
269
330
1F
100
AcDbEntity
  8
0
100
AcDbLine
 10
72.37487607557169
 20
-110.9011732521545
 30
0.0
 11
72.27265355443858
 21
-110.124716116847
 31
0.0
  0
LINE
  5
26A
330
1F
100
AcDbEntity
  8
0
100
AcDbLine
 10
72.2726535544393
 20
-111.6776303874621
 30
0.0
 11
72.37487607557169
 21
-110.9011732521545
 31
0.0
  0
LINE
  5
26B
330
1F
100
AcDbEntity
  8
0
100
AcDbLine
 10
71.97295228692572
 20
-112.4011732521547
 30
0.0
 11
72.2726535544393
 21
-111.6776303874621
 31
0.0
  0
LINE
  5
26C
330
1F
100
AcDbEntity
  8
0
100
AcDbLine
 10
70.15133314381079
 20
-55.00339575020983
 30
0.0
 11
69.3748760085032
 21
-54.90117322907709
 31
0.0
  0
LINE
  5
26D
330
1F
100
AcDbEntity
  8
0
100
AcDbLine
 10
70.87487600850321
 20
-55.30309701772369
 30
0.0
 11
70.15133314381079
 21
-55.00339575020983
 31
0.0
  0
LINE
  5
26E
330
1F
100
AcDbEntity
  8
0
100
AcDbLine
 10
71.4961963520628
 20
-55.77985288551744
 30
0.0
 11
70.87487600850321
 21
-55.30309701772369
 31
0.0
  0
LINE
  5
26F
330
1F
100
AcDbEntity
  8
0
100
AcDbLine
 10
71.97295221985654
 20
-56.40117322907702
 30
0.0
 11
71.4961963520628
 21
-55.77985288551744
 31
0.0
  0
LINE
  5
270
330
1F
100
AcDbEntity
  8
0
100
AcDbLine
 10
72.27265348737039
 20
-57.12471609376953
 30
0.0
 11
71.97295221985654
 21
-56.40117322907702
 31
0.0
  0
LINE
  5
271
330
1F
100
AcDbEntity
  8
0
100
AcDbLine
 10
72.37487600850322
 20
-57.90117322907704
 30
0.0
 11
72.27265348737039
 21
-57.12471609376953
 31
0.0
  0
LINE
  5
272
330
1F
100
AcDbEntity
  8
0
100
AcDbLine
 10
72.27265348737039
 20
-58.67763036438456
 30
0.0
 11
72.37487600850322
 21
-57.90117322907704
 31
0.0
  0
LINE
  5
273
330
1F
100
AcDbEntity
  8
0
100
AcDbLine
 10
71.97295221985654
 20
-59.40117322907706
 30
0.0
 11
72.27265348737039
 21
-58.67763036438456
 31
0.0
  0
LINE
  5
274
330
1F
100
AcDbEntity
  8
0
100
AcDbLine
 10
71.4961963520628
 20
-60.02249357263664
 30
0.0
 11
71.97295221985654
 21
-59.40117322907706
 31
0.0
  0
LINE
  5
275
330
1F
100
AcDbEntity
  8
0
100
AcDbLine
 10
70.87487600850321
 20
-60.49924944043038
 30
0.0
 11
71.4961963520628
 21
-60.02249357263664
 31
0.0
  0
LINE
  5
276
330
1F
100
AcDbEntity
  8
0
100
AcDbLine
 10
70.15133314381079
 20
-60.79895070794424
 30
0.0
 11
70.87487600850321
 21
-60.49924944043038
 31
0.0
  0
LINE
  5
277
330
1F
100
AcDbEntity
  8
0
100
AcDbLine
 10
69.3748760085032
 20
-60.90117322907699
 30
0.0
 11
70.15133314381079
 21
-60.79895070794424
 31
0.0
  0
LINE
  5
278
330
1F
100
AcDbEntity
  8
0
100
AcDbLine
 10
68.59841887319558
 20
-60.79895070794424
 30
0.0
 11
69.3748760085032
 21
-60.90117322907699
 31
0.0
  0
LINE
  5
279
330
1F
100
AcDbEntity
  8
0
100
AcDbLine
 10
67.87487600850316
 20
-60.49924944043038
 30
0.0
 11
68.59841887319558
 21
-60.79895070794424
 31
0.0
  0
LINE
  5
27A
330
1F
100
AcDbEntity
  8
0
100
AcDbLine
 10
67.25355566494359
 20
-60.02249357263664
 30
0.0
 11
67.87487600850316
 21
-60.49924944043038
 31
0.0
  0
LINE
  5
27B
330
1F
100
AcDbEntity
  8
0
100
AcDbLine
 10
66.77679979714985
 20
-59.40117322907706
 30
0.0
 11
67.25355566494359
 21
-60.02249357263664
 31
0.0
  0
LINE
  5
27C
330
1F
100
AcDbEntity
  8
0
100
AcDbLine
 10
66.47709852963598
 20
-58.67763036438456
 30
0.0
 11
66.77679979714985
 21
-59.40117322907706
 31
0.0
  0
LINE
  5
27D
330
1F
100
AcDbEntity
  8
0
100
AcDbLine
 10
66.37487600850315
 20
-57.90117322907704
 30
0.0
 11
66.47709852963598
 21
-58.67763036438456
 31
0.0
  0
LINE
  5
27E
330
1F
100
AcDbEntity
  8
0
100
AcDbLine
 10
66.47709852963598
 20
-57.12471609376944
 30
0.0
 11
66.37487600850315
 21
-57.90117322907704
 31
0.0
  0
LINE
  5
27F
330
1F
100
AcDbEntity
  8
0
100
AcDbLine
 10
66.77679979714985
 20
-56.40117322907702
 30
0.0
 11
66.47709852963598
 21
-57.12471609376944
 31
0.0
  0
LINE
  5
280
330
1F
100
AcDbEntity
  8
0
100
AcDbLine
 10
67.25355566494359
 20
-55.77985288551744
 30
0.0
 11
66.77679979714985
 21
-56.40117322907702
 31
0.0
  0
LINE
  5
281
330
1F
100
AcDbEntity
  8
0
100
AcDbLine
 10
67.87487600850316
 20
-55.30309701772369
 30
0.0
 11
67.25355566494359
 21
-55.77985288551744
 31
0.0
  0
LINE
  5
282
330
1F
100
AcDbEntity
  8
0
100
AcDbLine
 10
68.59841887319558
 20
-55.00339575020983
 30
0.0
 11
67.87487600850316
 21
-55.30309701772369
 31
0.0
  0
LINE
  5
283
330
1F
100
AcDbEntity
  8
0
100
AcDbLine
 10
69.3748760085032
 20
-54.90117322907709
 30
0.0
 11
68.59841887319558
 21
-55.00339575020983
 31
0.0
  0
LINE
  5
284
330
1F
100
AcDbEntity
  8
0
100
AcDbLine
 10
203.9774464723484
 20
-69.57485764234886
 30
0.0
 11
203.9136488846365
 21
-69.25412551014267
 31
0.0
  0
LINE
  5
285
330
1F
100
AcDbEntity
  8
0
100
AcDbLine
 10
203.9136488846365
 20
-69.25412551014267
 30
0.0
 11
203.808533150192
 21
-68.94446454198625
 31
0.0
  0
LINE
  5
286
330
1F
100
AcDbEntity
  8
0
100
AcDbLine
 10
203.808533150192
 20
-68.94446454198625
 30
0.0
 11
203.663897828375
 21
-68.65117312289902
 31
0.0
  0
LINE
  5
287
330
1F
100
AcDbEntity
  8
0
100
AcDbLine
 10
203.663897828375
 20
-68.65117312289902
 30
0.0
 11
203.4822176696419
 21
-68.3792695503772
 31
0.0
  0
LINE
  5
288
330
1F
100
AcDbEntity
  8
0
100
AcDbLine
 10
203.4822176696419
 20
-68.3792695503772
 30
0.0
 11
203.2666012718802
 21
-68.13340616993261
 31
0.0
  0
LINE
  5
289
330
1F
100
AcDbEntity
  8
0
100
AcDbLine
 10
203.2666012718802
 20
-68.13340616993261
 30
0.0
 11
203.0207378914356
 21
-67.91778977217093
 31
0.0
  0
LINE
  5
28A
330
1F
100
AcDbEntity
  8
0
100
AcDbLine
 10
203.0207378914356
 20
-67.91778977217093
 30
0.0
 11
202.7488343189137
 21
-67.73610961343795
 31
0.0
  0
LINE
  5
28B
330
1F
100
AcDbEntity
  8
0
100
AcDbLine
 10
202.7488343189137
 20
-67.73610961343795
 30
0.0
 11
202.4555428998265
 21
-67.59147429162078
 31
0.0
  0
LINE
  5
28C
330
1F
100
AcDbEntity
  8
0
100
AcDbLine
 10
202.4555428998265
 20
-67.59147429162078
 30
0.0
 11
202.1458819316701
 21
-67.48635855717637
 31
0.0
  0
LINE
  5
28D
330
1F
100
AcDbEntity
  8
0
100
AcDbLine
 10
202.1458819316701
 20
-67.48635855717637
 30
0.0
 11
201.8251497994639
 21
-67.42256096946446
 31
0.0
  0
LINE
  5
28E
330
1F
100
AcDbEntity
  8
0
100
AcDbLine
 10
201.8251497994639
 20
-67.42256096946446
 30
0.0
 11
201.4988343189139
 21
-67.40117312289904
 31
0.0
  0
LINE
  5
28F
330
1F
100
AcDbEntity
  8
0
100
AcDbLine
 10
203.9988343189138
 20
-69.90117312289901
 30
0.0
 11
203.9774464723484
 21
-69.57485764234886
 31
0.0
  0
LINE
  5
290
330
1F
100
AcDbEntity
  8
0
100
AcDbLine
 10
201.4988343189139
 20
-67.40117312289904
 30
0.0
 11
201.1798457645045
 21
-67.36094619828314
 31
0.0
  0
LINE
  5
291
330
1F
100
AcDbEntity
  8
0
100
AcDbLine
 10
201.1798457645045
 20
-67.36094619828314
 30
0.0
 11
200.86796615394
 21
-67.28282442268717
 31
0.0
  0
LINE
  5
292
330
1F
100
AcDbEntity
  8
0
100
AcDbLine
 10
200.86796615394
 20
-67.28282442268717
 30
0.0
 11
200.5676805237263
 21
-67.16793123927194
 31
0.0
  0
LINE
  5
293
330
1F
100
AcDbEntity
  8
0
100
AcDbLine
 10
200.5676805237263
 20
-67.16793123927194
 30
0.0
 11
200.2833071812105
 21
-67.01791888853165
 31
0.0
  0
LINE
  5
294
330
1F
100
AcDbEntity
  8
0
100
AcDbLine
 10
200.2833071812105
 20
-67.01791888853165
 30
0.0
 11
200.0189356044457
 21
-66.83494464797556
 31
0.0
  0
LINE
  5
295
330
1F
100
AcDbEntity
  8
0
100
AcDbLine
 10
200.0189356044457
 20
-66.83494464797556
 30
0.0
 11
199.7783676327724
 21
-66.62163980904037
 31
0.0
  0
LINE
  5
296
330
1F
100
AcDbEntity
  8
0
100
AcDbLine
 10
199.7783676327724
 20
-66.62163980904037
 30
0.0
 11
199.5650627938372
 21
-66.38107183736707
 31
0.0
  0
LINE
  5
297
330
1F
100
AcDbEntity
  8
0
100
AcDbLine
 10
199.5650627938372
 20
-66.38107183736707
 30
0.0
 11
199.3820885532812
 21
-66.11670026060227
 31
0.0
  0
LINE
  5
298
330
1F
100
AcDbEntity
  8
0
100
AcDbLine
 10
199.3820885532812
 20
-66.11670026060227
 30
0.0
 11
199.2320762025409
 21
-65.8323269180866
 31
0.0
  0
LINE
  5
299
330
1F
100
AcDbEntity
  8
0
100
AcDbLine
 10
199.2320762025409
 20
-65.8323269180866
 30
0.0
 11
199.1171830191257
 21
-65.53204128787279
 31
0.0
  0
LINE
  5
29A
330
1F
100
AcDbEntity
  8
0
100
AcDbLine
 10
199.1171830191257
 20
-65.53204128787279
 30
0.0
 11
199.0390612435297
 21
-65.22016167730827
 31
0.0
  0
LINE
  5
29B
330
1F
100
AcDbEntity
  8
0
100
AcDbLine
 10
199.0390612435297
 20
-65.22016167730827
 30
0.0
 11
198.9988343189139
 21
-64.90117312289897
 31
0.0
  0
LINE
  5
29C
330
1F
100
AcDbEntity
  8
0
100
AcDbLine
 10
203.9593127725749
 20
-40.22596849320763
 30
0.0
 11
203.9805322157337
 21
-39.90117312289897
 31
0.0
  0
LINE
  5
29D
330
1F
100
AcDbEntity
  8
0
100
AcDbLine
 10
203.9805322157337
 20
-39.90117312289897
 30
0.0
 11
203.9988343189138
 21
136.0988268771011
 31
0.0
  0
LINE
  5
29E
330
1F
100
AcDbEntity
  8
0
100
AcDbLine
 10
198.9988343189139
 20
-44.90117312289901
 30
0.0
 11
198.9988343189139
 21
-64.90117312289897
 31
0.0
  0
LINE
  5
29F
330
1F
100
AcDbEntity
  8
0
100
AcDbLine
 10
199.0410730938914
 20
-44.58301301388244
 30
0.0
 11
198.9988343189139
 21
-44.90117312289901
 31
0.0
  0
LINE
  5
2A0
330
1F
100
AcDbEntity
  8
0
100
AcDbLine
 10
199.1207233200993
 20
-44.27210175556893
 30
0.0
 11
199.0410730938914
 21
-44.58301301388244
 31
0.0
  0
LINE
  5
2A1
330
1F
100
AcDbEntity
  8
0
100
AcDbLine
 10
199.2366621443397
 20
-43.9728223574895
 30
0.0
 11
199.1207233200993
 21
-44.27210175556893
 31
0.0
  0
LINE
  5
2A2
330
1F
100
AcDbEntity
  8
0
100
AcDbLine
 10
199.3872551421328
 20
-43.68939385134252
 30
0.0
 11
199.2366621443397
 21
-43.9728223574895
 31
0.0
  0
LINE
  5
2A3
330
1F
100
AcDbEntity
  8
0
100
AcDbLine
 10
199.5703793586902
 20
-43.42581181403475
 30
0.0
 11
199.3872551421328
 21
-43.68939385134252
 31
0.0
  0
LINE
  5
2A4
330
1F
100
AcDbEntity
  8
0
100
AcDbLine
 10
199.7834532368468
 20
-43.18579204083196
 30
0.0
 11
199.5703793586902
 21
-43.42581181403475
 31
0.0
  0
LINE
  5
2A5
330
1F
100
AcDbEntity
  8
0
100
AcDbLine
 10
200.0234730100495
 20
-42.97271816267531
 30
0.0
 11
199.7834532368468
 21
-43.18579204083196
 31
0.0
  0
LINE
  5
2A6
330
1F
100
AcDbEntity
  8
0
100
AcDbLine
 10
200.2870550473573
 20
-42.78959394611802
 30
0.0
 11
200.0234730100495
 21
-42.97271816267531
 31
0.0
  0
LINE
  5
2A7
330
1F
100
AcDbEntity
  8
0
100
AcDbLine
 10
200.5704835535043
 20
-42.63900094832493
 30
0.0
 11
200.2870550473573
 21
-42.78959394611802
 31
0.0
  0
LINE
  5
2A8
330
1F
100
AcDbEntity
  8
0
100
AcDbLine
 10
200.8697629515838
 20
-42.52306212408448
 30
0.0
 11
200.5704835535043
 21
-42.63900094832493
 31
0.0
  0
LINE
  5
2A9
330
1F
100
AcDbEntity
  8
0
100
AcDbLine
 10
201.1806742098972
 20
-42.44341189787659
 30
0.0
 11
200.8697629515838
 21
-42.52306212408448
 31
0.0
  0
LINE
  5
2AA
330
1F
100
AcDbEntity
  8
0
100
AcDbLine
 10
201.4988343189139
 20
-42.40117312289904
 30
0.0
 11
201.1806742098972
 21
-42.44341189787659
 31
0.0
  0
LINE
  5
2AB
330
1F
100
AcDbEntity
  8
0
100
AcDbLine
 10
201.8234650088282
 20
-42.37756777376841
 30
0.0
 11
201.4988343189139
 21
-42.40117312289904
 31
0.0
  0
LINE
  5
2AC
330
1F
100
AcDbEntity
  8
0
100
AcDbLine
 10
202.1422786740054
 20
-42.31199228872943
 30
0.0
 11
201.8234650088282
 21
-42.37756777376841
 31
0.0
  0
LINE
  5
2AD
330
1F
100
AcDbEntity
  8
0
100
AcDbLine
 10
202.4498726020357
 20
-42.2055579297057
 30
0.0
 11
202.1422786740054
 21
-42.31199228872943
 31
0.0
  0
LINE
  5
2AE
330
1F
100
AcDbEntity
  8
0
100
AcDbLine
 10
202.7410342135544
 20
-42.0600683654075
 30
0.0
 11
202.4498726020357
 21
-42.2055579297057
 31
0.0
  0
LINE
  5
2AF
330
1F
100
AcDbEntity
  8
0
100
AcDbLine
 10
203.0108293961831
 20
-41.87798910581913
 30
0.0
 11
202.7410342135544
 21
-42.0600683654075
 31
0.0
  0
LINE
  5
2B0
330
1F
100
AcDbEntity
  8
0
100
AcDbLine
 10
203.2546861194833
 20
-41.66240572092318
 30
0.0
 11
203.0108293961831
 21
-41.87798910581913
 31
0.0
  0
LINE
  5
2B1
330
1F
100
AcDbEntity
  8
0
100
AcDbLine
 10
203.468471913962
 20
-41.41697155170279
 30
0.0
 11
203.2546861194833
 21
-41.66240572092318
 31
0.0
  0
LINE
  5
2B2
330
1F
100
AcDbEntity
  8
0
100
AcDbLine
 10
203.6485639011453
 20
-41.14584579952444
 30
0.0
 11
203.468471913962
 21
-41.41697155170279
 31
0.0
  0
LINE
  5
2B3
330
1F
100
AcDbEntity
  8
0
100
AcDbLine
 10
203.791910187967
 20
-40.85362304305893
 30
0.0
 11
203.6485639011453
 21
-41.14584579952444
 31
0.0
  0
LINE
  5
2B4
330
1F
100
AcDbEntity
  8
0
100
AcDbLine
 10
203.8960815850689
 20
-40.54525537716687
 30
0.0
 11
203.791910187967
 21
-40.85362304305893
 31
0.0
  0
LINE
  5
2B5
330
1F
100
AcDbEntity
  8
0
100
AcDbLine
 10
203.9593127725749
 20
-40.22596849320763
 30
0.0
 11
203.8960815850689
 21
-40.54525537716687
 31
0.0
  0
LINE
  5
2B6
330
1F
100
AcDbEntity
  8
0
100
AcDbLine
 10
-113.9980799377007
 20
-40.22748860344912
 30
0.0
 11
-113.9342823499887
 21
-40.54822073565549
 31
0.0
  0
LINE
  5
2B7
330
1F
100
AcDbEntity
  8
0
100
AcDbLine
 10
-110.8903964169361
 20
-67.27928412171377
 30
0.0
 11
-110.5911170188566
 21
-67.16334529747323
 31
0.0
  0
LINE
  5
2B8
330
1F
100
AcDbEntity
  8
0
100
AcDbLine
 10
-113.9342823499887
 20
-40.54822073565549
 30
0.0
 11
-113.8291666155445
 21
-40.85788170381137
 31
0.0
  0
LINE
  5
2B9
330
1F
100
AcDbEntity
  8
0
100
AcDbLine
 10
-113.8291666155445
 20
-40.85788170381137
 30
0.0
 11
-113.6845312937273
 21
-41.15117312289896
 31
0.0
  0
LINE
  5
2BA
330
1F
100
AcDbEntity
  8
0
100
AcDbLine
 10
-110.0441064754017
 20
-66.82962808312286
 30
0.0
 11
-109.8040867021993
 21
-66.61655420496548
 31
0.0
  0
LINE
  5
2BB
330
1F
100
AcDbEntity
  8
0
100
AcDbLine
 10
-110.3076885127098
 20
-67.01275229967969
 30
0.0
 11
-110.0441064754017
 21
-66.82962808312286
 31
0.0
  0
LINE
  5
2BC
330
1F
100
AcDbEntity
  8
0
100
AcDbLine
 10
-110.5911170188566
 20
-67.16334529747323
 30
0.0
 11
-110.3076885127098
 21
-67.01275229967969
 31
0.0
  0
LINE
  5
2BD
330
1F
100
AcDbEntity
  8
0
100
AcDbLine
 10
-111.2013076752494
 20
-67.3589343479213
 30
0.0
 11
-110.8903964169361
 21
-67.27928412171377
 31
0.0
  0
LINE
  5
2BE
330
1F
100
AcDbEntity
  8
0
100
AcDbLine
 10
-113.6845312937273
 20
-41.15117312289896
 30
0.0
 11
-113.5028511349945
 21
-41.42307669542068
 31
0.0
  0
LINE
  5
2BF
330
1F
100
AcDbEntity
  8
0
100
AcDbLine
 10
-113.5028511349945
 20
-41.42307669542068
 30
0.0
 11
-113.2872347372327
 21
-41.66894007586482
 31
0.0
  0
LINE
  5
2C0
330
1F
100
AcDbEntity
  8
0
100
AcDbLine
 10
-113.2872347372327
 20
-41.66894007586482
 30
0.0
 11
-113.0413713567878
 21
-41.88455647362687
 31
0.0
  0
LINE
  5
2C1
330
1F
100
AcDbEntity
  8
0
100
AcDbLine
 10
-113.0413713567878
 20
-41.88455647362687
 30
0.0
 11
-112.7694677842665
 21
-42.06623663235985
 31
0.0
  0
LINE
  5
2C2
330
1F
100
AcDbEntity
  8
0
100
AcDbLine
 10
-112.7694677842665
 20
-42.06623663235985
 30
0.0
 11
-112.4761763651786
 21
-42.21087195417756
 31
0.0
  0
LINE
  5
2C3
330
1F
100
AcDbEntity
  8
0
100
AcDbLine
 10
-112.4761763651786
 20
-42.21087195417756
 30
0.0
 11
-112.1665153970225
 21
-42.31598768862197
 31
0.0
  0
LINE
  5
2C4
330
1F
100
AcDbEntity
  8
0
100
AcDbLine
 10
-112.1665153970225
 20
-42.31598768862197
 30
0.0
 11
-111.8457832648168
 21
-42.37978527633326
 31
0.0
  0
LINE
  5
2C5
330
1F
100
AcDbEntity
  8
0
100
AcDbLine
 10
-111.8457832648168
 20
-42.37978527633326
 30
0.0
 11
-111.5194677842667
 21
-42.40117312289895
 31
0.0
  0
LINE
  5
2C6
330
1F
100
AcDbEntity
  8
0
100
AcDbLine
 10
-111.5194677842667
 20
-42.40117312289895
 30
0.0
 11
-111.2004792298567
 21
-42.44140004751429
 31
0.0
  0
LINE
  5
2C7
330
1F
100
AcDbEntity
  8
0
100
AcDbLine
 10
-109.2572956096918
 20
-65.82952388830839
 30
0.0
 11
-109.1413567854515
 21
-65.53024449022922
 31
0.0
  0
LINE
  5
2C8
330
1F
100
AcDbEntity
  8
0
100
AcDbLine
 10
-109.4027220186338
 20
-43.6856459851958
 30
0.0
 11
-109.2527096678932
 21
-43.9700193277113
 31
0.0
  0
LINE
  5
2C9
330
1F
100
AcDbEntity
  8
0
100
AcDbLine
 10
-111.2004792298567
 20
-42.44140004751429
 30
0.0
 11
-110.8885996192921
 21
-42.51952182311037
 31
0.0
  0
LINE
  5
2CA
330
1F
100
AcDbEntity
  8
0
100
AcDbLine
 10
-110.8885996192921
 20
-42.51952182311037
 30
0.0
 11
-110.588313989078
 21
-42.63441500652623
 31
0.0
  0
LINE
  5
2CB
330
1F
100
AcDbEntity
  8
0
100
AcDbLine
 10
-110.588313989078
 20
-42.63441500652623
 30
0.0
 11
-110.3039406465632
 21
-42.78442735726614
 31
0.0
  0
LINE
  5
2CC
330
1F
100
AcDbEntity
  8
0
100
AcDbLine
 10
-110.3039406465632
 20
-42.78442735726614
 30
0.0
 11
-110.0395690697979
 21
-42.96740159782225
 31
0.0
  0
LINE
  5
2CD
330
1F
100
AcDbEntity
  8
0
100
AcDbLine
 10
-110.0395690697979
 20
-42.96740159782225
 30
0.0
 11
-109.7990010981249
 21
-43.1807064367576
 31
0.0
  0
LINE
  5
2CE
330
1F
100
AcDbEntity
  8
0
100
AcDbLine
 10
-109.7990010981249
 20
-43.1807064367576
 30
0.0
 11
-109.5856962591897
 21
-43.42127440843099
 31
0.0
  0
LINE
  5
2CF
330
1F
100
AcDbEntity
  8
0
100
AcDbLine
 10
-109.5856962591897
 20
-43.42127440843099
 30
0.0
 11
-109.4027220186338
 21
-43.6856459851958
 31
0.0
  0
LINE
  5
2D0
330
1F
100
AcDbEntity
  8
0
100
AcDbLine
 10
-109.8040867021993
 20
-66.61655420496548
 30
0.0
 11
-109.5910128240424
 21
-66.37653443176313
 31
0.0
  0
LINE
  5
2D1
330
1F
100
AcDbEntity
  8
0
100
AcDbLine
 10
-109.2527096678932
 20
-43.9700193277113
 30
0.0
 11
-109.1378164844784
 21
-44.27030495792519
 31
0.0
  0
LINE
  5
2D2
330
1F
100
AcDbEntity
  8
0
100
AcDbLine
 10
-109.1378164844784
 20
-44.27030495792519
 30
0.0
 11
-109.0596947088817
 21
-44.58218456848962
 31
0.0
  0
LINE
  5
2D3
330
1F
100
AcDbEntity
  8
0
100
AcDbLine
 10
-109.0596947088817
 20
-44.58218456848962
 30
0.0
 11
-109.0194677842661
 21
-44.90117312289919
 31
0.0
  0
LINE
  5
2D4
330
1F
100
AcDbEntity
  8
0
100
AcDbLine
 10
-109.0194677842658
 20
-64.9011731228988
 30
0.0
 11
-109.0194677842661
 21
-44.90117312289919
 31
0.0
  0
LINE
  5
2D5
330
1F
100
AcDbEntity
  8
0
100
AcDbLine
 10
-109.0617065592438
 20
-65.21933323191492
 30
0.0
 11
-109.0194677842658
 21
-64.9011731228988
 31
0.0
  0
LINE
  5
2D6
330
1F
100
AcDbEntity
  8
0
100
AcDbLine
 10
-109.1413567854515
 20
-65.53024449022922
 30
0.0
 11
-109.0617065592438
 21
-65.21933323191492
 31
0.0
  0
LINE
  5
2D7
330
1F
100
AcDbEntity
  8
0
100
AcDbLine
 10
-109.4078886074849
 20
-66.11295239445556
 30
0.0
 11
-109.2572956096918
 21
-65.82952388830839
 31
0.0
  0
LINE
  5
2D8
330
1F
100
AcDbEntity
  8
0
100
AcDbLine
 10
-109.5910128240424
 20
-66.37653443176313
 30
0.0
 11
-109.4078886074849
 21
-66.11295239445556
 31
0.0
  0
LINE
  5
2D9
330
1F
100
AcDbEntity
  8
0
100
AcDbLine
 10
-113.9167150504212
 20
-69.25709086863093
 30
0.0
 11
-113.8125436533192
 21
-68.94872320273915
 31
0.0
  0
LINE
  5
2DA
330
1F
100
AcDbEntity
  8
0
100
AcDbLine
 10
-113.9799462379279
 20
-69.57637775259045
 30
0.0
 11
-113.9167150504212
 21
-69.25709086863093
 31
0.0
  0
LINE
  5
2DB
330
1F
100
AcDbEntity
  8
0
100
AcDbLine
 10
-111.5194677842664
 20
-67.40117312289885
 30
0.0
 11
-111.2013076752494
 21
-67.3589343479213
 31
0.0
  0
LINE
  5
2DC
330
1F
100
AcDbEntity
  8
0
100
AcDbLine
 10
-111.8440984741804
 20
-67.42477847202957
 30
0.0
 11
-111.5194677842664
 21
-67.40117312289885
 31
0.0
  0
LINE
  5
2DD
330
1F
100
AcDbEntity
  8
0
100
AcDbLine
 10
-112.1629121393576
 20
-67.49035395706828
 30
0.0
 11
-111.8440984741804
 21
-67.42477847202957
 31
0.0
  0
LINE
  5
2DE
330
1F
100
AcDbEntity
  8
0
100
AcDbLine
 10
-112.4705060673881
 20
-67.59678831609246
 30
0.0
 11
-112.1629121393576
 21
-67.49035395706828
 31
0.0
  0
LINE
  5
2DF
330
1F
100
AcDbEntity
  8
0
100
AcDbLine
 10
-112.7616676789063
 20
-67.74227788039039
 30
0.0
 11
-112.4705060673881
 21
-67.59678831609246
 31
0.0
  0
LINE
  5
2E0
330
1F
100
AcDbEntity
  8
0
100
AcDbLine
 10
-113.0314628615352
 20
-67.9243571399784
 30
0.0
 11
-112.7616676789063
 21
-67.74227788039039
 31
0.0
  0
LINE
  5
2E1
330
1F
100
AcDbEntity
  8
0
100
AcDbLine
 10
-113.2753195848357
 20
-68.1399405248747
 30
0.0
 11
-113.0314628615352
 21
-67.9243571399784
 31
0.0
  0
LINE
  5
2E2
330
1F
100
AcDbEntity
  8
0
100
AcDbLine
 10
-113.4891053793143
 20
-68.3853746940951
 30
0.0
 11
-113.2753195848357
 21
-68.1399405248747
 31
0.0
  0
LINE
  5
2E3
330
1F
100
AcDbEntity
  8
0
100
AcDbLine
 10
-113.6691973664973
 20
-68.65650044627344
 30
0.0
 11
-113.4891053793143
 21
-68.3853746940951
 31
0.0
  0
LINE
  5
2E4
330
1F
100
AcDbEntity
  8
0
100
AcDbLine
 10
-113.8125436533192
 20
-68.94872320273915
 30
0.0
 11
-113.6691973664973
 21
-68.65650044627344
 31
0.0
  0
LINE
  5
2E5
330
1F
100
AcDbEntity
  8
0
100
AcDbLine
 10
-114.0011656810861
 20
-69.90117312289901
 30
0.0
 11
-114.0011656810861
 21
-129.9011731228992
 31
0.0
  0
LINE
  5
2E6
330
1F
100
AcDbEntity
  8
0
100
AcDbLine
 10
-113.9799462379279
 20
-69.57637775259045
 30
0.0
 11
-114.0011656810861
 21
-69.90117312289901
 31
0.0
  0
LINE
  5
2E7
330
1F
100
AcDbEntity
  8
0
100
AcDbLine
 10
203.9905303330801
 20
-71.90117312289901
 30
0.0
 11
203.9988343189138
 21
-69.90117312289901
 31
0.0
  0
LINE
  5
2E8
330
1F
100
AcDbEntity
  8
0
100
AcDbLine
 10
-114.0194677842664
 20
-39.90117312289924
 30
0.0
 11
-113.9980799377007
 21
-40.22748860344912
 31
0.0
  0
ENDSEC
  0
SECTION
  2
OBJECTS
  0
DICTIONARY
  5
C
330
0
100
AcDbDictionary
  3
ACAD_GROUP
350
D
  3
ACAD_LAYOUT
350
1A
  3
ACAD_MATERIAL
350
43
  3
ACAD_MLEADERSTYLE
350
30B
  3
ACAD_MLINESTYLE
350
17
  3
ACAD_PLOTSETTINGS
350
19
  3
ACAD_SCALELIST
350
47
  3
ACAD_VISUALSTYLE
350
2A
  3
ACDBHEADERROUNDTRIPXREC
350
2E9
  3
ACDBVARIABLEDICTIONARY
350
309
  0
DICTIONARY
  5
310
330
8
100
AcDbDictionary
280
     1
  3
ACAD_XREC_ROUNDTRIP
360
311
  0
DICTIONARY
  5
D
102
{ACAD_REACTORS
330
C
102
}
330
C
100
AcDbDictionary
  0
DICTIONARY
  5
1A
102
{ACAD_REACTORS
330
C
102
}
330
C
100
AcDbDictionary
  0
DICTIONARY
  5
43
102
{ACAD_REACTORS
330
C
102
}
330
C
100
AcDbDictionary
  3
BYBLOCK
350
45
  3
BYLAYER
350
44
  3
GLOBAL
350
46
  0
DICTIONARY
  5
30B
102
{ACAD_REACTORS
330
C
102
}
330
C
100
AcDbDictionary
  0
DICTIONARY
  5
17
102
{ACAD_REACTORS
330
C
102
}
330
C
100
AcDbDictionary
  3
STANDARD
350
18
  0
DICTIONARY
  5
19
102
{ACAD_REACTORS
330
C
102
}
330
C
100
AcDbDictionary
  0
DICTIONARY
  5
47
102
{ACAD_REACTORS
330
C
102
}
330
C
100
AcDbDictionary
  3
A0
350
48
  3
A1
350
49
  3
A2
350
4A
  3
A3
350
4B
  3
A4
350
4C
  3
A5
350
4D
  3
A6
350
4E
  3
A7
350
4F
  3
A8
350
50
  3
A9
350
51
  3
B0
350
52
  3
B1
350
53
  3
B2
350
54
  3
B3
350
55
  3
B4
350
56
  3
B5
350
57
  3
B6
350
58
  3
B7
350
59
  3
B8
350
5A
  3
B9
350
5B
  3
C0
350
5C
  3
C1
350
5D
  3
C2
350
5E
  3
C3
350
5F
  3
C4
350
60
  3
C5
350
61
  3
C6
350
62
  3
C7
350
63
  3
C8
350
64
  3
C9
350
65
  3
D0
350
66
  3
D1
350
67
  3
D2
350
68
  0
DICTIONARY
  5
2A
102
{ACAD_REACTORS
330
C
102
}
330
C
100
AcDbDictionary
  3
2DWIREFRAME
350
2F
  3
BASIC
350
32
  3
BRIGHTEN
350
36
  3
COLORCHANGE
350
3A
  3
CONCEPTUAL
350
34
  3
DIM
350
35
  3
EDGECOLOROFF
350
3D
  3
FACEPATTERN
350
39
  3
FLAT
350
2B
  3
FLATWITHEDGES
350
2C
  3
GOURAUD
350
2D
  3
GOURAUDWITHEDGES
350
2E
  3
HIDDEN
350
31
  3
JITTEROFF
350
3B
  3
LINEPATTERN
350
38
  3
OVERHANGOFF
350
3C
  3
REALISTIC
350
33
  3
SHADED
350
42
  3
SHADED_WITH_EDGES
350
41
  3
SHADES_OF_GRAY
350
3E
  3
SKETCHY
350
3F
  3
THICKEN
350
37
  3
WIREFRAME
350
30
  3
X-RAY
350
40
  0
DICTIONARY
  5
2E9
102
{ACAD_REACTORS
330
C
102
}
330
C
100
AcDbDictionary
  3
CEPSNTYPE
350
2F2
  3
DIMSTYLEDATA
350
308
  3
FINGERPRINTGUID
350
2F3
  3
HYPERLINKBASE
350
2EC
  3
INSUNITS
350
2F1
  3
LAYOUTDICT
350
2EE
  3
LWETCUNION
350
2F0
  3
PLOTSETDICT
350
2EF
  3
PSVPSCALE
350
2F5
  3
PUCSBASE
350
2F8
  3
PUCSORGBACK
350
2FE
  3
PUCSORGBOTTOM
350
2FA
  3
PUCSORGFRONT
350
2FD
  3
PUCSORGLEFT
350
2FB
  3
PUCSORGRIGHT
350
2FC
  3
PUCSORGTOP
350
2F9
  3
PUCSORTHOREF
350
2F6
  3
PUCSORTHOVIEW
350
2F7
  3
STYLESHEET
350
2ED
  3
TSTACKALIGN
350
2EA
  3
TSTACKSIZE
350
2EB
  3
UCSBASE
350
301
  3
UCSORGBACK
350
307
  3
UCSORGBOTTOM
350
303
  3
UCSORGFRONT
350
306
  3
UCSORGLEFT
350
304
  3
UCSORGRIGHT
350
305
  3
UCSORGTOP
350
302
  3
UCSORTHOREF
350
2FF
  3
UCSORTHOVIEW
350
300
  3
VERSIONGUID
350
2F4
  0
DICTIONARY
  5
309
102
{ACAD_REACTORS
330
C
102
}
330
C
100
AcDbDictionary
  3
CANNOSCALE
350
312
  3
DIMASSOC
350
30E
  3
HIDETEXT
350
30F
  3
MSLTSCALE
350
313
  0
XRECORD
  5
311
102
{ACAD_REACTORS
330
310
102
}
330
310
100
AcDbXrecord
102
VTR_0.000_0.000_1.000_1.000_GRIDDISPLAY
 70
     3
102
VTR_0.000_0.000_1.000_1.000_GRIDMAJOR
 70
     5
102
VTR_0.000_0.000_1.000_1.000_DEFAULTLIGHTING
280
     1
102
VTR_0.000_0.000_1.000_1.000_DEFAULTLIGHTINGTYPE
 70
     1
102
VTR_0.000_0.000_1.000_1.000_BRIGHTNESS
141
0.0
102
VTR_0.000_0.000_1.000_1.000_CONTRAST
142
0.0
  0
MATERIAL
  5
45
102
{ACAD_REACTORS
330
43
102
}
102
{ACAD_XDICTIONARY
360
316
102
}
330
43
100
AcDbMaterial
  1
BYBLOCK
  0
MATERIAL
  5
44
102
{ACAD_REACTORS
330
43
102
}
102
{ACAD_XDICTIONARY
360
314
102
}
330
43
100
AcDbMaterial
  1
BYLAYER
  0
MATERIAL
  5
46
102
{ACAD_REACTORS
330
43
102
}
102
{ACAD_XDICTIONARY
360
318
102
}
330
43
100
AcDbMaterial
  1
GLOBAL
  0
MLINESTYLE
  5
18
102
{ACAD_REACTORS
330
17
102
}
330
17
100
AcDbMlineStyle
  2
Standard
 70
     0
  3

 62
   256
 51
90.0
 52
90.0
 71
     2
 49
0.5
 62
   256
  6
BYLAYER
 49
-0.5
 62
   256
  6
BYLAYER
  0
ACAD_PROXY_OBJECT
  5
48
102
{ACAD_REACTORS
330
47
102
}
330
47
100
AcDbProxyObject
 90
      499
 91
      503
 93
       41
310
903313A31580
  0
ACAD_PROXY_OBJECT
  5
49
102
{ACAD_REACTORS
330
47
102
}
330
47
100
AcDbProxyObject
 90
      499
 91
      503
 93
      105
310
903313A324000000000000004000
  0
ACAD_PROXY_OBJECT
  5
4A
102
{ACAD_REACTORS
330
47
102
}
330
47
100
AcDbProxyObject
 90
      499
 91
      503
 93
      105
310
903313A344000000000000104000
  0
ACAD_PROXY_OBJECT
  5
4B
102
{ACAD_REACTORS
330
47
102
}
330
47
100
AcDbProxyObject
 90
      499
 91
      503
 93
      105
310
903313A354000000000000144000
  0
ACAD_PROXY_OBJECT
  5
4C
102
{ACAD_REACTORS
330
47
102
}
330
47
100
AcDbProxyObject
 90
      499
 91
      503
 93
      105
310
903313A384000000000000204000
  0
ACAD_PROXY_OBJECT
  5
4D
102
{ACAD_REACTORS
330
47
102
}
330
47
100
AcDbProxyObject
 90
      499
 91
      503
 93
      113
310
904313A31304000000000000244000
  0
ACAD_PROXY_OBJECT
  5
4E
102
{ACAD_REACTORS
330
47
102
}
330
47
100
AcDbProxyObject
 90
      499
 91
      503
 93
      113
310
904313A31364000000000000304000
  0
ACAD_PROXY_OBJECT
  5
4F
102
{ACAD_REACTORS
330
47
102
}
330
47
100
AcDbProxyObject
 90
      499
 91
      503
 93
      113
310
904313A32304000000000000344000
  0
ACAD_PROXY_OBJECT
  5
50
102
{ACAD_REACTORS
330
47
102
}
330
47
100
AcDbProxyObject
 90
      499
 91
      503
 93
      113
310
904313A333040000000000003E4000
  0
ACAD_PROXY_OBJECT
  5
51
102
{ACAD_REACTORS
330
47
102
}
330
47
100
AcDbProxyObject
 90
      499
 91
      503
 93
      113
310
904313A34304000000000000444000
  0
ACAD_PROXY_OBJECT
  5
52
102
{ACAD_REACTORS
330
47
102
}
330
47
100
AcDbProxyObject
 90
      499
 91
      503
 93
      113
310
904313A35304000000000000494000
  0
ACAD_PROXY_OBJECT
  5
53
102
{ACAD_REACTORS
330
47
102
}
330
47
100
AcDbProxyObject
 90
      499
 91
      503
 93
      121
310
905313A3130304000000000000594000
  0
ACAD_PROXY_OBJECT
  5
54
102
{ACAD_REACTORS
330
47
102
}
330
47
100
AcDbProxyObject
 90
      499
 91
      503
 93
      105
310
903323A310000000000000010100
  0
ACAD_PROXY_OBJECT
  5
55
102
{ACAD_REACTORS
330
47
102
}
330
47
100
AcDbProxyObject
 90
      499
 91
      503
 93
      105
310
903343A310000000000000410100
  0
ACAD_PROXY_OBJECT
  5
56
102
{ACAD_REACTORS
330
47
102
}
330
47
100
AcDbProxyObject
 90
      499
 91
      503
 93
      105
310
903383A310000000000000810100
  0
ACAD_PROXY_OBJECT
  5
57
102
{ACAD_REACTORS
330
47
102
}
330
47
100
AcDbProxyObject
 90
      499
 91
      503
 93
      113
310
90431303A310000000000000910100
  0
ACAD_PROXY_OBJECT
  5
58
102
{ACAD_REACTORS
330
47
102
}
330
47
100
AcDbProxyObject
 90
      499
 91
      503
 93
      121
310
9053130303A310000000000001650100
  0
ACAD_PROXY_OBJECT
  5
59
102
{ACAD_REACTORS
330
47
102
}
330
47
100
AcDbProxyObject
 90
      499
 91
      503
 93
      257
310
90E312F31323822203D2031272D3022000000000000200FC000000000000284000
  0
ACAD_PROXY_OBJECT
  5
5A
102
{ACAD_REACTORS
330
47
102
}
330
47
100
AcDbProxyObject
 90
      499
 91
      503
 93
      249
310
90D312F363422203D2031272D3022000000000000240FC000000000000284000
  0
ACAD_PROXY_OBJECT
  5
5B
102
{ACAD_REACTORS
330
47
102
}
330
47
100
AcDbProxyObject
 90
      499
 91
      503
 93
      249
310
90D312F333222203D2031272D3022000000000000280FC000000000000284000
  0
ACAD_PROXY_OBJECT
  5
5C
102
{ACAD_REACTORS
330
47
102
}
330
47
100
AcDbProxyObject
 90
      499
 91
      503
 93
      249
310
90D312F313622203D2031272D30220000000000002C0FC000000000000284000
  0
ACAD_PROXY_OBJECT
  5
5D
102
{ACAD_REACTORS
330
47
102
}
330
47
100
AcDbProxyObject
 90
      499
 91
      503
 93
      249
310
90D332F333222203D2031272D30220000000000002E0FC000000000000284000
  0
ACAD_PROXY_OBJECT
  5
5E
102
{ACAD_REACTORS
330
47
102
}
330
47
100
AcDbProxyObject
 90
      499
 91
      503
 93
      241
310
90C312F3822203D2031272D3022000000000000300FC000000000000284000
  0
ACAD_PROXY_OBJECT
  5
5F
102
{ACAD_REACTORS
330
47
102
}
330
47
100
AcDbProxyObject
 90
      499
 91
      503
 93
      249
310
90D332F313622203D2031272D3022000000000000320FC000000000000284000
  0
ACAD_PROXY_OBJECT
  5
60
102
{ACAD_REACTORS
330
47
102
}
330
47
100
AcDbProxyObject
 90
      499
 91
      503
 93
      241
310
90C312F3422203D2031272D3022000000000000340FC000000000000284000
  0
ACAD_PROXY_OBJECT
  5
61
102
{ACAD_REACTORS
330
47
102
}
330
47
100
AcDbProxyObject
 90
      499
 91
      503
 93
      241
310
90C332F3822203D2031272D3022000000000000360FC000000000000284000
  0
ACAD_PROXY_OBJECT
  5
62
102
{ACAD_REACTORS
330
47
102
}
330
47
100
AcDbProxyObject
 90
      499
 91
      503
 93
      241
310
90C312F3222203D2031272D3022000000000000380FC000000000000284000
  0
ACAD_PROXY_OBJECT
  5
63
102
{ACAD_REACTORS
330
47
102
}
330
47
100
AcDbProxyObject
 90
      499
 91
      503
 93
      241
310
90C332F3422203D2031272D30220000000000003A0FC000000000000284000
  0
ACAD_PROXY_OBJECT
  5
64
102
{ACAD_REACTORS
330
47
102
}
330
47
100
AcDbProxyObject
 90
      499
 91
      503
 93
      161
310
90A3122203D2031272D30224000000000000284000
  0
ACAD_PROXY_OBJECT
  5
65
102
{ACAD_REACTORS
330
47
102
}
330
47
100
AcDbProxyObject
 90
      499
 91
      503
 93
      257
310
90E312D312F3222203D2031272D30220000000000003E0FC000000000000284000
  0
ACAD_PROXY_OBJECT
  5
66
102
{ACAD_REACTORS
330
47
102
}
330
47
100
AcDbProxyObject
 90
      499
 91
      503
 93
      225
310
90A3322203D2031272D302200000000000002100000000000000284000
  0
ACAD_PROXY_OBJECT
  5
67
102
{ACAD_REACTORS
330
47
102
}
330
47
100
AcDbProxyObject
 90
      499
 91
      503
 93
      225
310
90A3622203D2031272D302200000000000006100000000000000284000
  0
ACAD_PROXY_OBJECT
  5
68
102
{ACAD_REACTORS
330
47
102
}
330
47
100
AcDbProxyObject
 90
      499
 91
      503
 93
      249
310
90D31272D3022203D2031272D30220000000000000A100000000000000284000
  0
ACAD_PROXY_OBJECT
  5
2F
102
{ACAD_REACTORS
330
2A
102
}
330
2A
100
AcDbProxyObject
 90
      499
 91
      501
 93
      436
310
42CC9915DA5C99599C985B595049028333333333333E33F0000000000000F90107901411070040501600405405064090741402480A0340
1001
ACAD
1000
AcDbSavedByObjectVersion
1070
     0
  0
ACAD_PROXY_OBJECT
  5
32
102
{ACAD_REACTORS
330
2A
102
}
330
2A
100
AcDbProxyObject
 90
      499
 91
      501
 93
      388
310
4150985CDA58D07406404333333333333E33F0000000000000F90107A41107004050150841D405064090741402480A0350
1001
ACAD
1000
AcDbSavedByObjectVersion
1070
     0
  0
ACAD_PROXY_OBJECT
  5
36
102
{ACAD_REACTORS
330
2A
102
}
330
2A
100
AcDbProxyObject
 90
      499
 91
      501
 93
      428
310
42109C9A59DA1D195B90C409028333333333333E33F0000000000000F9010790141107004050150841D405064090741402480A029950
1001
ACAD
1000
AcDbSavedByObjectVersion
1070
     0
  0
ACAD_PROXY_OBJECT
  5
3A
102
{ACAD_REACTORS
330
2A
102
}
330
2A
100
AcDbProxyObject
 90
      499
 91
      501
 93
      452
310
42D0DBDB1BDC90DA185B99D95104090240C333333333333E33F0000000000000F90108901411070040501508421405064090741402480A0350
1001
ACAD
1000
AcDbSavedByObjectVersion
1070
     0
  0
ACAD_PROXY_OBJECT
  5
34
102
{ACAD_REACTORS
330
2A
102
}
330
2A
100
AcDbProxyObject
 90
      499
 91
      501
 93
      500
310
4290DBDB98D95C1D1D585B10940D028333333333333E33F0000000000000F90107902409070040501000000000018199010841D405064090740C02480A0340
1001
ACAD
1000
AcDbSavedByObjectVersion
1070
     0
  0
ACAD_PROXY_OBJECT
  5
35
102
{ACAD_REACTORS
330
2A
102
}
330
2A
100
AcDbProxyObject
 90
      499
 91
      501
 93
      412
310
40D11A5B50B409028333333333333E33F0000000000000F9010790141107004050150841D405064090741402480A02677FFFFFD0
1001
ACAD
1000
AcDbSavedByObjectVersion
1070
     0
  0
ACAD_PROXY_OBJECT
  5
3D
102
{ACAD_REACTORS
330
2A
102
}
330
2A
100
AcDbProxyObject
 90
      499
 91
      501
 93
      452
310
43115919D950DBDB1BDC93D999916409028333333333333E33F0000000000000F9010790141107004050150841D405064090741402480A0350
1001
ACAD
1000
AcDbSavedByObjectVersion
1070
     0
  0
ACAD_PROXY_OBJECT
  5
39
102
{ACAD_REACTORS
330
2A
102
}
330
2A
100
AcDbProxyObject
 90
      499
 91
      501
 93
      444
310
42D19858D95C185D1D195C9B90F409028333333333333E33F0000000000000F9010790141107004050150841D405064090741402480A0350
1001
ACAD
1000
AcDbSavedByObjectVersion
1070
     0
  0
ACAD_PROXY_OBJECT
  5
2B
102
{ACAD_REACTORS
330
2A
102
}
330
2A
100
AcDbProxyObject
 90
      499
 91
      501
 93
      380
310
41119B185D240901404333333333333E33F0000000000000F9010740A907004050150841D405064090741402480A1B50
1001
ACAD
1000
AcDbSavedByObjectVersion
1070
     0
  0
ACAD_PROXY_OBJECT
  5
2C
102
{ACAD_REACTORS
330
2A
102
}
330
2A
100
AcDbProxyObject
 90
      499
 91
      501
 93
      468
310
43519B185D15DA5D1A115919D95CD0140901404333333333333E33F0000000000000F90107409019070040501600405405064090741402480A1B50
1001
ACAD
1000
AcDbSavedByObjectVersion
1070
     0
  0
ACAD_PROXY_OBJECT
  5
2D
102
{ACAD_REACTORS
330
2A
102
}
330
2A
100
AcDbProxyObject
 90
      499
 91
      501
 93
      404
310
41D1DBDD5C985D5910240902404333333333333E33F0000000000000F9010740A9070040501641D405064090741402480A1B50
1001
ACAD
1000
AcDbSavedByObjectVersion
1070
     0
  0
ACAD_PROXY_OBJECT
  5
2E
102
{ACAD_REACTORS
330
2A
102
}
330
2A
100
AcDbProxyObject
 90
      499
 91
      501
 93
      492
310
4411DBDD5C985D5915DA5D1A115919D95CD0340902404333333333333E33F0000000000000F90107409019070040501600405405064090741402480A1B50
1001
ACAD
1000
AcDbSavedByObjectVersion
1070
     0
  0
ACAD_PROXY_OBJECT
  5
31
102
{ACAD_REACTORS
330
2A
102
}
330
2A
100
AcDbProxyObject
 90
      499
 91
      501
 93
      476
310
41921A5919195B90640502408333333333333E33F0000000000000F901079024090700405020000000000001110200405405064090740C02480A0340
1001
ACAD
1000
AcDbSavedByObjectVersion
1070
     0
  0
ACAD_PROXY_OBJECT
  5
3B
102
{ACAD_REACTORS
330
2A
102
}
330
2A
100
AcDbProxyObject
 90
      499
 91
      501
 93
      428
310
42529A5D1D195C93D999914409028333333333333E33F0000000000000F9010790141107004050150A41D405064090741402480A0350
1001
ACAD
1000
AcDbSavedByObjectVersion
1070
     0
  0
ACAD_PROXY_OBJECT
  5
38
102
{ACAD_REACTORS
330
2A
102
}
330
2A
100
AcDbProxyObject
 90
      499
 91
      501
 93
      444
310
42D31A5B995C185D1D195C9B90E409028333333333333E33F0000000000000F9010790141107004050750841D405064090741402483A0350
1001
ACAD
1000
AcDbSavedByObjectVersion
1070
     0
  0
ACAD_PROXY_OBJECT
  5
3C
102
{ACAD_REACTORS
330
2A
102
}
330
2A
100
AcDbProxyObject
 90
      499
 91
      501
 93
      444
310
42D3DD995C9A185B99D3D999915409028333333333333E33F0000000000000F9010790141107004050150941D405064090741402480A0350
1001
ACAD
1000
AcDbSavedByObjectVersion
1070
     0
  0
ACAD_PROXY_OBJECT
  5
33
102
{ACAD_REACTORS
330
2A
102
}
330
2A
100
AcDbProxyObject
 90
      499
 91
      501
 93
      428
310
425499585B1A5CDD1A58D08409038333333333333E33F0000000000000F9010740A907004050150800405405064090740C02480A1B40
1001
ACAD
1000
AcDbSavedByObjectVersion
1070
     0
  0
ACAD_PROXY_OBJECT
  5
42
102
{ACAD_REACTORS
330
2A
102
}
330
2A
100
AcDbProxyObject
 90
      499
 91
      501
 93
      420
310
4194DA1859195911B40902404333333333333E33F0000000000000F9010740A41107004050150800405405064090840C02480A0B40
1001
ACAD
1000
AcDbSavedByObjectVersion
1070
     0
  0
ACAD_PROXY_OBJECT
  5
41
102
{ACAD_REACTORS
330
2A
102
}
330
2A
100
AcDbProxyObject
 90
      499
 91
      501
 93
      516
310
4454DA18591959081DDA5D1A08195919D95CD1A40902404333333333333E33F0000000000000F901074090142907004050250800405405064090740C02480A0B40
1001
ACAD
1000
AcDbSavedByObjectVersion
1070
     0
  0
ACAD_PROXY_OBJECT
  5
3E
102
{ACAD_REACTORS
330
2A
102
}
330
2A
100
AcDbProxyObject
 90
      499
 91
      501
 93
      532
310
4394DA1859195CC81BD98811DC985E5174090240C333333333333E33F0000000000000F901079024090741D01000000000000111010841D405064090740C02480A0340
1001
ACAD
1000
AcDbSavedByObjectVersion
1070
     0
  0
ACAD_PROXY_OBJECT
  5
3F
102
{ACAD_REACTORS
330
2A
102
}
330
2A
100
AcDbProxyObject
 90
      499
 91
      501
 93
      476
310
41D4DAD95D18DA1E51840502408333333333333E33F0000000000000F901079024090741D01000000000000111010B41D405064090741802480A0340
1001
ACAD
1000
AcDbSavedByObjectVersion
1070
     0
  0
ACAD_PROXY_OBJECT
  5
37
102
{ACAD_REACTORS
330
2A
102
}
330
2A
100
AcDbProxyObject
 90
      499
 91
      501
 93
      412
310
41D51A1A58DAD95B90D409028333333333333E33F0000000000000F9010790141107004050150C41D405064090741402480A0350
1001
ACAD
1000
AcDbSavedByObjectVersion
1070
     0
  0
ACAD_PROXY_OBJECT
  5
30
102
{ACAD_REACTORS
330
2A
102
}
330
2A
100
AcDbProxyObject
 90
      499
 91
      501
 93
      420
310
4255DA5C99599C985B595059028333333333333E33F0000000000000F90107901411070040501600405405064090740C02480A0340
1001
ACAD
1000
AcDbSavedByObjectVersion
1070
     0
  0
ACAD_PROXY_OBJECT
  5
40
102
{ACAD_REACTORS
330
2A
102
}
330
2A
100
AcDbProxyObject
 90
      499
 91
      501
 93
      404
310
41560B54985E51940902404000000000000E03F0000000000000F9010740501907004050150841D405064090740C02480A1B40
1001
ACAD
1000
AcDbSavedByObjectVersion
1070
     0
  0
XRECORD
  5
2F2
102
{ACAD_REACTORS
330
2E9
102
}
330
2E9
100
AcDbXrecord
 90
        0
  0
XRECORD
  5
308
102
{ACAD_REACTORS
330
2E9
102
}
330
2E9
100
AcDbXrecord
1000
DSTYLE
1002
{
1070
   171
 70
     2
1070
   143
 40
25.4
1070
   274
 70
     2
1070
    41
 40
0.18
1070
   141
 40
0.09
1070
   271
 70
     4
1070
    43
 40
0.38
1070
   278
 70
    46
1070
    44
 40
0.18
1070
    42
 40
0.0625
1070
   147
 40
0.09
1070
    77
 70
     0
1070
   272
 70
     4
1070
    73
 70
     1
1070
   172
 70
     0
1070
    74
 70
     1
1070
   283
 70
     1
1070
   340
340
11
1070
   140
 40
0.18
1070
   284
 70
     0
1070
    78
 70
     0
1002
}
  0
XRECORD
  5
2F3
102
{ACAD_REACTORS
330
2E9
102
}
330
2E9
100
AcDbXrecord
  1
{2A5D02E0-5CF2-4936-8EB6-5F4793DA78DD}
  0
XRECORD
  5
2EC
102
{ACAD_REACTORS
330
2E9
102
}
330
2E9
100
AcDbXrecord
  1

  0
XRECORD
  5
2F1
102
{ACAD_REACTORS
330
2E9
102
}
330
2E9
100
AcDbXrecord
 90
        4
  0
XRECORD
  5
2EE
102
{ACAD_REACTORS
330
2E9
102
}
330
2E9
100
AcDbXrecord
340
1A
  0
XRECORD
  5
2F0
102
{ACAD_REACTORS
330
2E9
102
}
330
2E9
100
AcDbXrecord
 90
    10781
  0
XRECORD
  5
2EF
102
{ACAD_REACTORS
330
2E9
102
}
330
2E9
100
AcDbXrecord
340
19
  0
XRECORD
  5
2F5
102
{ACAD_REACTORS
330
2E9
102
}
330
2E9
100
AcDbXrecord
 40
0.0
  0
XRECORD
  5
2F8
102
{ACAD_REACTORS
330
2E9
102
}
330
2E9
100
AcDbXrecord
340
0
  0
XRECORD
  5
2FE
102
{ACAD_REACTORS
330
2E9
102
}
330
2E9
100
AcDbXrecord
 10
0.0
 20
0.0
 30
0.0
  0
XRECORD
  5
2FA
102
{ACAD_REACTORS
330
2E9
102
}
330
2E9
100
AcDbXrecord
 10
0.0
 20
0.0
 30
0.0
  0
XRECORD
  5
2FD
102
{ACAD_REACTORS
330
2E9
102
}
330
2E9
100
AcDbXrecord
 10
0.0
 20
0.0
 30
0.0
  0
XRECORD
  5
2FB
102
{ACAD_REACTORS
330
2E9
102
}
330
2E9
100
AcDbXrecord
 10
0.0
 20
0.0
 30
0.0
  0
XRECORD
  5
2FC
102
{ACAD_REACTORS
330
2E9
102
}
330
2E9
100
AcDbXrecord
 10
0.0
 20
0.0
 30
0.0
  0
XRECORD
  5
2F9
102
{ACAD_REACTORS
330
2E9
102
}
330
2E9
100
AcDbXrecord
 10
0.0
 20
0.0
 30
0.0
  0
XRECORD
  5
2F6
102
{ACAD_REACTORS
330
2E9
102
}
330
2E9
100
AcDbXrecord
340
0
  0
XRECORD
  5
2F7
102
{ACAD_REACTORS
330
2E9
102
}
330
2E9
100
AcDbXrecord
 70
     0
  0
XRECORD
  5
2ED
102
{ACAD_REACTORS
330
2E9
102
}
330
2E9
100
AcDbXrecord
  1

  0
XRECORD
  5
2EA
102
{ACAD_REACTORS
330
2E9
102
}
330
2E9
100
AcDbXrecord
 90
        1
  0
XRECORD
  5
2EB
102
{ACAD_REACTORS
330
2E9
102
}
330
2E9
100
AcDbXrecord
 90
       70
  0
XRECORD
  5
301
102
{ACAD_REACTORS
330
2E9
102
}
330
2E9
100
AcDbXrecord
340
0
  0
XRECORD
  5
307
102
{ACAD_REACTORS
330
2E9
102
}
330
2E9
100
AcDbXrecord
 10
0.0
 20
0.0
 30
0.0
  0
XRECORD
  5
303
102
{ACAD_REACTORS
330
2E9
102
}
330
2E9
100
AcDbXrecord
 10
0.0
 20
0.0
 30
0.0
  0
XRECORD
  5
306
102
{ACAD_REACTORS
330
2E9
102
}
330
2E9
100
AcDbXrecord
 10
0.0
 20
0.0
 30
0.0
  0
XRECORD
  5
304
102
{ACAD_REACTORS
330
2E9
102
}
330
2E9
100
AcDbXrecord
 10
0.0
 20
0.0
 30
0.0
  0
XRECORD
  5
305
102
{ACAD_REACTORS
330
2E9
102
}
330
2E9
100
AcDbXrecord
 10
0.0
 20
0.0
 30
0.0
  0
XRECORD
  5
302
102
{ACAD_REACTORS
330
2E9
102
}
330
2E9
100
AcDbXrecord
 10
0.0
 20
0.0
 30
0.0
  0
XRECORD
  5
2FF
102
{ACAD_REACTORS
330
2E9
102
}
330
2E9
100
AcDbXrecord
340
0
  0
XRECORD
  5
300
102
{ACAD_REACTORS
330
2E9
102
}
330
2E9
100
AcDbXrecord
 70
     0
  0
XRECORD
  5
2F4
102
{ACAD_REACTORS
330
2E9
102
}
330
2E9
100
AcDbXrecord
  1
{FAEB1C32-E019-11D5-929B-00C0DF256EC4}
  0
DICTIONARYVAR
  5
312
102
{ACAD_REACTORS
330
309
102
}
330
309
100
DictionaryVariables
280
     0
  1
1:1
  0
DICTIONARYVAR
  5
30E
102
{ACAD_REACTORS
330
309
102
}
330
309
100
DictionaryVariables
280
     0
  1
2
  0
DICTIONARYVAR
  5
30F
102
{ACAD_REACTORS
330
309
102
}
330
309
100
DictionaryVariables
280
     0
  1
1
  0
DICTIONARYVAR
  5
313
102
{ACAD_REACTORS
330
309
102
}
330
309
100
DictionaryVariables
280
     0
  1
1
  0
DICTIONARY
  5
316
330
45
100
AcDbDictionary
280
     1
  3
ACAD_XREC_ROUNDTRIP
360
317
  0
DICTIONARY
  5
314
330
44
100
AcDbDictionary
280
     1
  3
ACAD_XREC_ROUNDTRIP
360
315
  0
DICTIONARY
  5
318
330
46
100
AcDbDictionary
280
     1
  3
ACAD_XREC_ROUNDTRIP
360
319
  0
XRECORD
  5
317
102
{ACAD_REACTORS
330
316
102
}
330
316
100
AcDbXrecord
102
MATERIAL
148
0.0
149
0.0
149
0.0
 93
        0
 94
      127
282
     0
 72
     1
 77
     1
171
     1
175
     1
179
     1
273
     0
  0
XRECORD
  5
315
102
{ACAD_REACTORS
330
314
102
}
330
314
100
AcDbXrecord
102
MATERIAL
148
0.0
149
0.0
149
0.0
 93
        0
 94
      127
282
     0
 72
     1
 77
     1
171
     1
175
     1
179
     1
273
     0
  0
XRECORD
  5
319
102
{ACAD_REACTORS
330
318
102
}
330
318
100
AcDbXrecord
102
MATERIAL
148
0.0
149
0.0
149
0.0
 93
        0
 94
      127
282
     0
 72
     1
 77
     1
171
     1
175
     1
179
     1
273
     0
  0
ENDSEC
  0
EOF
