  0
SECTION
  2
HEADER
  9
$ACADVER
  1
AC1014
  9
$ACADMAINTVER
 70
     9
  9
$DWGCODEPAGE
  3
ANSI_1252
  9
$INSBASE
 10
0.0
 20
0.0
 30
0.0
  9
$EXTMIN
 10
1.000000000000000E+20
 20
1.000000000000000E+20
 30
1.000000000000000E+20
  9
$EXTMAX
 10
-1.000000000000000E+20
 20
-1.000000000000000E+20
 30
-1.000000000000000E+20
  9
$LIMMIN
 10
0.0
 20
0.0
  9
$LIMMAX
 10
12.0
 20
9.0
  9
$ORTHOMODE
 70
     0
  9
$REGENMODE
 70
     1
  9
$FILLMODE
 70
     1
  9
$QTEXTMODE
 70
     0
  9
$MIRRTEXT
 70
     1
  9
$DRAGMODE
 70
     2
  9
$LTSCALE
 40
1.0
  9
$OSMODE
 70
    37
  9
$ATTMODE
 70
     1
  9
$TEXTSIZE
 40
0.2
  9
$TRACEWID
 40
0.05
  9
$TEXTSTYLE
  7
STANDARD
  9
$CLAYER
  8
0
  9
$CELTYPE
  6
BYLAYER
  9
$CECOLOR
 62
   256
  9
$CELTSCALE
 40
1.0
  9
$DELOBJ
 70
     1
  9
$DISPSILH
 70
     0
  9
$DIMSCALE
 40
1.0
  9
$DIMASZ
 40
0.18
  9
$DIMEXO
 40
0.0625
  9
$DIMDLI
 40
0.38
  9
$DIMRND
 40
0.0
  9
$DIMDLE
 40
0.0
  9
$DIMEXE
 40
0.18
  9
$DIMTP
 40
0.0
  9
$DIMTM
 40
0.0
  9
$DIMTXT
 40
0.18
  9
$DIMCEN
 40
0.09
  9
$DIMTSZ
 40
0.0
  9
$DIMTOL
 70
     0
  9
$DIMLIM
 70
     0
  9
$DIMTIH
 70
     1
  9
$DIMTOH
 70
     1
  9
$DIMSE1
 70
     0
  9
$DIMSE2
 70
     0
  9
$DIMTAD
 70
     0
  9
$DIMZIN
 70
     0
  9
$DIMBLK
  1

  9
$DIMASO
 70
     1
  9
$DIMSHO
 70
     1
  9
$DIMPOST
  1

  9
$DIMAPOST
  1

  9
$DIMALT
 70
     0
  9
$DIMALTD
 70
     2
  9
$DIMALTF
 40
25.4
  9
$DIMLFAC
 40
1.0
  9
$DIMTOFL
 70
     0
  9
$DIMTVP
 40
0.0
  9
$DIMTIX
 70
     0
  9
$DIMSOXD
 70
     0
  9
$DIMSAH
 70
     0
  9
$DIMBLK1
  1

  9
$DIMBLK2
  1

  9
$DIMSTYLE
  2
STANDARD
  9
$DIMCLRD
 70
     0
  9
$DIMCLRE
 70
     0
  9
$DIMCLRT
 70
     0
  9
$DIMTFAC
 40
1.0
  9
$DIMGAP
 40
0.09
  9
$DIMJUST
 70
     0
  9
$DIMSD1
 70
     0
  9
$DIMSD2
 70
     0
  9
$DIMTOLJ
 70
     1
  9
$DIMTZIN
 70
     0
  9
$DIMALTZ
 70
     0
  9
$DIMALTTZ
 70
     0
  9
$DIMFIT
 70
     3
  9
$DIMUPT
 70
     0
  9
$DIMUNIT
 70
     2
  9
$DIMDEC
 70
     4
  9
$DIMTDEC
 70
     4
  9
$DIMALTU
 70
     2
  9
$DIMALTTD
 70
     2
  9
$DIMTXSTY
  7
STANDARD
  9
$DIMAUNIT
 70
     0
  9
$LUNITS
 70
     2
  9
$LUPREC
 70
     4
  9
$SKETCHINC
 40
0.1
  9
$FILLETRAD
 40
0.5
  9
$AUNITS
 70
     0
  9
$AUPREC
 70
     0
  9
$MENU
  1
.
  9
$ELEVATION
 40
0.0
  9
$PELEVATION
 40
0.0
  9
$THICKNESS
 40
0.0
  9
$LIMCHECK
 70
     0
  9
$CHAMFERA
 40
0.5
  9
$CHAMFERB
 40
0.5
  9
$CHAMFERC
 40
1.0
  9
$CHAMFERD
 40
0.0
  9
$SKPOLY
 70
     0
  9
$TDCREATE
 40
2457273.848502234
  9
$TDUPDATE
 40
2457273.848502245
  9
$TDINDWG
 40
0.0000000116
  9
$TDUSRTIMER
 40
0.0000000116
  9
$USRTIMER
 70
     1
  9
$ANGBASE
 50
0.0
  9
$ANGDIR
 70
     0
  9
$PDMODE
 70
     0
  9
$PDSIZE
 40
0.0
  9
$PLINEWID
 40
0.0
  9
$COORDS
 70
     1
  9
$SPLFRAME
 70
     0
  9
$SPLINETYPE
 70
     6
  9
$SPLINESEGS
 70
     8
  9
$ATTDIA
 70
     0
  9
$ATTREQ
 70
     1
  9
$HANDLING
 70
     1
  9
$HANDSEED
  5
100
  9
$SURFTAB1
 70
     6
  9
$SURFTAB2
 70
     6
  9
$SURFTYPE
 70
     6
  9
$SURFU
 70
     6
  9
$SURFV
 70
     6
  9
$UCSNAME
  2

  9
$UCSORG
 10
0.0
 20
0.0
 30
0.0
  9
$UCSXDIR
 10
1.0
 20
0.0
 30
0.0
  9
$UCSYDIR
 10
0.0
 20
1.0
 30
0.0
  9
$PUCSNAME
  2

  9
$PUCSORG
 10
0.0
 20
0.0
 30
0.0
  9
$PUCSXDIR
 10
1.0
 20
0.0
 30
0.0
  9
$PUCSYDIR
 10
0.0
 20
1.0
 30
0.0
  9
$USERI1
 70
     0
  9
$USERI2
 70
     0
  9
$USERI3
 70
     0
  9
$USERI4
 70
     0
  9
$USERI5
 70
     0
  9
$USERR1
 40
0.0
  9
$USERR2
 40
0.0
  9
$USERR3
 40
0.0
  9
$USERR4
 40
0.0
  9
$USERR5
 40
0.0
  9
$WORLDVIEW
 70
     1
  9
$SHADEDGE
 70
     3
  9
$SHADEDIF
 70
    70
  9
$TILEMODE
 70
     1
  9
$MAXACTVP
 70
    64
  9
$PINSBASE
 10
0.0
 20
0.0
 30
0.0
  9
$PLIMCHECK
 70
     0
  9
$PEXTMIN
 10
1.000000000000000E+20
 20
1.000000000000000E+20
 30
1.000000000000000E+20
  9
$PEXTMAX
 10
-1.000000000000000E+20
 20
-1.000000000000000E+20
 30
-1.000000000000000E+20
  9
$PLIMMIN
 10
0.0
 20
0.0
  9
$PLIMMAX
 10
12.0
 20
9.0
  9
$UNITMODE
 70
     0
  9
$VISRETAIN
 70
     1
  9
$PLINEGEN
 70
     0
  9
$PSLTSCALE
 70
     1
  9
$TREEDEPTH
 70
  3020
  9
$PICKSTYLE
 70
     1
  9
$CMLSTYLE
  2
STANDARD
  9
$CMLJUST
 70
     0
  9
$CMLSCALE
 40
1.0
  9
$PROXYGRAPHICS
 70
     1
  9
$MEASUREMENT
 70
     0
  0
ENDSEC
  0
SECTION
  2
CLASSES
  0
CLASS
  1
ACDBDICTIONARYWDFLT
  2
AcDbDictionaryWithDefault
  3
ObjectDBX Classes
 90
        0
280
     0
281
     0
  0
CLASS
  1
VISUALSTYLE
  2
AcDbVisualStyle
  3
ObjectDBX Classes
 90
     4095
280
     0
281
     0
  0
CLASS
  1
MATERIAL
  2
AcDbMaterial
  3
ObjectDBX Classes
 90
     1153
280
     0
281
     0
  0
CLASS
  1
DICTIONARYVAR
  2
AcDbDictionaryVar
  3
ObjectDBX Classes
 90
        0
280
     0
281
     0
  0
CLASS
  1
XRECORD
  2
AcDbXrecord
  3
AutoCAD 2000
 90
        0
280
     0
281
     0
  0
CLASS
  1
LWPOLYLINE
  2
AcDbPolyline
  3
AutoCAD 2000
 90
        0
280
     0
281
     1
  0
CLASS
  1
HATCH
  2
AcDbHatch
  3
AutoCAD 2000
 90
        0
280
     0
281
     1
  0
CLASS
  1
ACDBPLACEHOLDER
  2
AcDbPlaceHolder
  3
ObjectDBX Classes
 90
        0
280
     0
281
     0
  0
CLASS
  1
LAYOUT
  2
AcDbLayout
  3
ObjectDBX Classes
 90
        0
280
     0
281
     0
  0
ENDSEC
  0
SECTION
  2
TABLES
  0
TABLE
  2
VPORT
  5
8
330
0
100
AcDbSymbolTable
 70
     1
  0
VPORT
  5
29
330
8
100
AcDbSymbolTableRecord
100
AcDbViewportTableRecord
  2
*ACTIVE
 70
     0
 10
0.0
 20
0.0
 11
1.0
 21
1.0
 12
0.0
 22
0.0
 13
0.0
 23
0.0
 14
0.5
 24
0.5
 15
0.5
 25
0.5
 16
0.0
 26
0.0
 36
1.0
 17
0.0
 27
0.0
 37
-1000.0
 40
130.7753354364131
 41
1.763768115942029
 42
50.0
 43
0.2541915057810993
 44
254.1915057810993
 50
0.0
 51
0.0
 71
     0
 72
   100
 73
     1
 74
     3
 75
     0
 76
     0
 77
     0
 78
     0
  0
ENDTAB
  0
TABLE
  2
LTYPE
  5
5
330
0
100
AcDbSymbolTable
 70
     1
  0
LTYPE
  5
14
330
5
100
AcDbSymbolTableRecord
100
AcDbLinetypeTableRecord
  2
BYBLOCK
 70
     0
  3

 72
    65
 73
     0
 40
0.0
  0
LTYPE
  5
15
330
5
100
AcDbSymbolTableRecord
100
AcDbLinetypeTableRecord
  2
BYLAYER
 70
     0
  3

 72
    65
 73
     0
 40
0.0
  0
LTYPE
  5
16
330
5
100
AcDbSymbolTableRecord
100
AcDbLinetypeTableRecord
  2
CONTINUOUS
 70
     0
  3
Solid line
 72
    65
 73
     0
 40
0.0
  0
ENDTAB
  0
TABLE
  2
LAYER
  5
2
330
0
100
AcDbSymbolTable
 70
     3
  0
LAYER
  5
10
330
2
100
AcDbSymbolTableRecord
100
AcDbLayerTableRecord
  2
0
 70
     0
 62
     7
  6
CONTINUOUS
  0
LAYER
  5
3F
330
2
100
AcDbSymbolTableRecord
100
AcDbLayerTableRecord
  2
PROFILEEDGES
 70
     0
 62
     7
  6
CONTINUOUS
  0
LAYER
  5
40
330
2
100
AcDbSymbolTableRecord
100
AcDbLayerTableRecord
  2
SECTIONCUTEDGES
 70
     0
 62
     7
  6
CONTINUOUS
  0
ENDTAB
  0
TABLE
  2
STYLE
  5
3
330
0
100
AcDbSymbolTable
 70
     1
  0
STYLE
  5
11
330
3
100
AcDbSymbolTableRecord
100
AcDbTextStyleTableRecord
  2
STANDARD
 70
     0
 40
0.0
 41
1.0
 50
0.0
 71
     0
 42
0.2
  3
txt
  4

  0
ENDTAB
  0
TABLE
  2
VIEW
  5
6
330
0
100
AcDbSymbolTable
 70
     0
  0
ENDTAB
  0
TABLE
  2
UCS
  5
7
330
0
100
AcDbSymbolTable
 70
     0
  0
ENDTAB
  0
TABLE
  2
APPID
  5
9
330
0
100
AcDbSymbolTable
 70
     1
  0
APPID
  5
12
330
9
100
AcDbSymbolTableRecord
100
AcDbRegAppTableRecord
  2
ACAD
 70
     0
  0
ENDTAB
  0
TABLE
  2
DIMSTYLE
  5
A
330
0
100
AcDbSymbolTable
 70
     1
  0
DIMSTYLE
105
27
330
A
100
AcDbSymbolTableRecord
100
AcDbDimStyleTableRecord
  2
STANDARD
 70
     0
  3

  4

  5

  6

  7

 40
1.0
 41
0.18
 42
0.0625
 43
0.38
 44
0.18
 45
0.0
 46
0.0
 47
0.0
 48
0.0
140
0.18
141
0.09
142
0.0
143
25.4
144
1.0
145
0.0
146
1.0
147
0.09
 71
     0
 72
     0
 73
     1
 74
     1
 75
     0
 76
     0
 77
     0
 78
     0
170
     0
171
     2
172
     0
173
     0
174
     0
175
     0
176
     0
177
     0
178
     0
270
     2
271
     4
272
     4
273
     2
274
     2
340
11
275
     0
280
     0
281
     0
282
     0
283
     1
284
     0
285
     0
286
     0
287
     3
288
     0
  0
ENDTAB
  0
TABLE
  2
BLOCK_RECORD
  5
1
330
0
100
AcDbSymbolTable
 70
     1
  0
BLOCK_RECORD
  5
1F
330
1
100
AcDbSymbolTableRecord
100
AcDbBlockTableRecord
  2
*MODEL_SPACE
  0
BLOCK_RECORD
  5
1B
330
1
100
AcDbSymbolTableRecord
100
AcDbBlockTableRecord
  2
*PAPER_SPACE
  0
ENDTAB
  0
ENDSEC
  0
SECTION
  2
BLOCKS
  0
BLOCK
  5
20
330
1F
100
AcDbEntity
  8
0
100
AcDbBlockBegin
  2
*MODEL_SPACE
 70
     0
 10
0.0
 20
0.0
 30
0.0
  3
*MODEL_SPACE
  1

  0
ENDBLK
  5
21
330
1F
100
AcDbEntity
  8
0
100
AcDbBlockEnd
  0
BLOCK
  5
1C
330
1B
100
AcDbEntity
 67
     1
  8
0
100
AcDbBlockBegin
  2
*PAPER_SPACE
 70
     0
 10
0.0
 20
0.0
 30
0.0
  3
*PAPER_SPACE
  1

  0
ENDBLK
  5
1D
330
1B
100
AcDbEntity
 67
     1
  8
0
100
AcDbBlockEnd
  0
ENDSEC
  0
SECTION
  2
ENTITIES
  0
LINE
  5
41
330
1F
100
AcDbEntity
  8
0
100
AcDbLine
 10
29.99999999998163
 20
-55.04000000000957
 30
0.0
 11
30.00000000001845
 21
55.0399999999899
 31
0.0
  0
LINE
  5
42
330
1F
100
AcDbEntity
  8
0
100
AcDbLine
 10
-30.00000000001808
 20
-55.03999999999008
 30
0.0
 11
29.99999999998163
 21
-55.04000000000957
 31
0.0
  0
LINE
  5
43
330
1F
100
AcDbEntity
  8
0
100
AcDbLine
 10
-29.99999999998163
 20
55.04000000000957
 30
0.0
 11
-30.00000000001808
 21
-55.03999999999008
 31
0.0
  0
LINE
  5
44
330
1F
100
AcDbEntity
  8
0
100
AcDbLine
 10
-29.99999999998163
 20
55.04000000000957
 30
0.0
 11
30.00000000001845
 21
55.0399999999899
 31
0.0
  0
LINE
  5
45
330
1F
100
AcDbEntity
  8
0
100
AcDbLine
 10
-13.44999999998611
 20
40.04000000000504
 30
0.0
 11
-13.5028149692379
 21
40.44116951991401
 31
0.0
  0
LINE
  5
46
330
1F
100
AcDbEntity
  8
0
100
AcDbLine
 10
-13.5028149692379
 20
40.44116951991401
 30
0.0
 11
-13.65766062412026
 21
40.81500000000505
 31
0.0
  0
LINE
  5
47
330
1F
100
AcDbEntity
  8
0
100
AcDbLine
 10
-13.65766062412026
 20
40.81500000000505
 30
0.0
 11
-13.90398448914687
 21
41.13601551084411
 31
0.0
  0
LINE
  5
48
330
1F
100
AcDbEntity
  8
0
100
AcDbLine
 10
-13.90398448914687
 20
41.13601551084411
 30
0.0
 11
-14.22499999998594
 21
41.3823393758709
 31
0.0
  0
LINE
  5
49
330
1F
100
AcDbEntity
  8
0
100
AcDbLine
 10
-14.22499999998594
 20
41.3823393758709
 30
0.0
 11
-14.59883048007715
 21
41.53718503075309
 31
0.0
  0
LINE
  5
4A
330
1F
100
AcDbEntity
  8
0
100
AcDbLine
 10
-14.59883048007715
 20
41.53718503075309
 30
0.0
 11
-14.99999999998612
 21
41.59000000000505
 31
0.0
  0
LINE
  5
4B
330
1F
100
AcDbEntity
  8
0
100
AcDbLine
 10
-14.99999999998612
 20
41.59000000000505
 30
0.0
 11
-15.40116951989509
 21
41.53718503075309
 31
0.0
  0
LINE
  5
4C
330
1F
100
AcDbEntity
  8
0
100
AcDbLine
 10
-15.40116951989509
 20
41.53718503075309
 30
0.0
 11
-15.77499999998594
 21
41.3823393758709
 31
0.0
  0
LINE
  5
4D
330
1F
100
AcDbEntity
  8
0
100
AcDbLine
 10
-15.77499999998594
 20
41.3823393758709
 30
0.0
 11
-16.09601551082537
 21
41.13601551084411
 31
0.0
  0
LINE
  5
4E
330
1F
100
AcDbEntity
  8
0
100
AcDbLine
 10
-16.09601551082537
 20
41.13601551084411
 30
0.0
 11
-16.34233937585198
 21
40.81500000000505
 31
0.0
  0
LINE
  5
4F
330
1F
100
AcDbEntity
  8
0
100
AcDbLine
 10
-16.34233937585198
 20
40.81500000000505
 30
0.0
 11
-16.49718503073434
 21
40.44116951991401
 31
0.0
  0
LINE
  5
50
330
1F
100
AcDbEntity
  8
0
100
AcDbLine
 10
-16.49718503073434
 20
40.44116951991401
 30
0.0
 11
-16.54999999998613
 21
40.04000000000504
 31
0.0
  0
LINE
  5
51
330
1F
100
AcDbEntity
  8
0
100
AcDbLine
 10
-16.54999999998613
 20
40.04000000000504
 30
0.0
 11
-16.49718503073434
 21
39.63883048009607
 31
0.0
  0
LINE
  5
52
330
1F
100
AcDbEntity
  8
0
100
AcDbLine
 10
-16.49718503073434
 20
39.63883048009607
 30
0.0
 11
-16.34233937585198
 21
39.26500000000504
 31
0.0
  0
LINE
  5
53
330
1F
100
AcDbEntity
  8
0
100
AcDbLine
 10
-16.34233937585198
 20
39.26500000000504
 30
0.0
 11
-16.09601551082537
 21
38.94398448916598
 31
0.0
  0
LINE
  5
54
330
1F
100
AcDbEntity
  8
0
100
AcDbLine
 10
-16.09601551082537
 20
38.94398448916598
 30
0.0
 11
-15.77499999998631
 21
38.69766062413919
 31
0.0
  0
LINE
  5
55
330
1F
100
AcDbEntity
  8
0
100
AcDbLine
 10
-15.77499999998631
 20
38.69766062413919
 30
0.0
 11
-15.40116951989509
 21
38.542814969257
 31
0.0
  0
LINE
  5
56
330
1F
100
AcDbEntity
  8
0
100
AcDbLine
 10
-15.40116951989509
 20
38.542814969257
 30
0.0
 11
-14.99999999998612
 21
38.49000000000503
 31
0.0
  0
LINE
  5
57
330
1F
100
AcDbEntity
  8
0
100
AcDbLine
 10
-14.99999999998612
 20
38.49000000000503
 30
0.0
 11
-14.59883048007715
 21
38.542814969257
 31
0.0
  0
LINE
  5
58
330
1F
100
AcDbEntity
  8
0
100
AcDbLine
 10
-14.59883048007715
 20
38.542814969257
 30
0.0
 11
-14.2249999999863
 21
38.69766062413919
 31
0.0
  0
LINE
  5
59
330
1F
100
AcDbEntity
  8
0
100
AcDbLine
 10
-14.2249999999863
 20
38.69766062413919
 30
0.0
 11
-13.90398448914687
 21
38.94398448916598
 31
0.0
  0
LINE
  5
5A
330
1F
100
AcDbEntity
  8
0
100
AcDbLine
 10
-13.90398448914687
 20
38.94398448916598
 30
0.0
 11
-13.65766062412026
 21
39.26500000000504
 31
0.0
  0
LINE
  5
5B
330
1F
100
AcDbEntity
  8
0
100
AcDbLine
 10
-13.65766062412026
 20
39.26500000000504
 30
0.0
 11
-13.5028149692379
 21
39.63883048009607
 31
0.0
  0
LINE
  5
5C
330
1F
100
AcDbEntity
  8
0
100
AcDbLine
 10
-13.5028149692379
 20
39.63883048009607
 30
0.0
 11
-13.44999999998611
 21
40.04000000000504
 31
0.0
  0
LINE
  5
5D
330
1F
100
AcDbEntity
  8
0
100
AcDbLine
 10
16.49718503076214
 20
40.44116951990318
 30
0.0
 11
16.34233937588013
 21
40.8149999999944
 31
0.0
  0
LINE
  5
5E
330
1F
100
AcDbEntity
  8
0
100
AcDbLine
 10
16.34233937588013
 20
40.8149999999944
 30
0.0
 11
16.09601551085352
 21
41.13601551083364
 31
0.0
  0
LINE
  5
5F
330
1F
100
AcDbEntity
  8
0
100
AcDbLine
 10
16.09601551085352
 20
41.13601551083364
 30
0.0
 11
15.77500000001446
 21
41.38233937586043
 31
0.0
  0
LINE
  5
60
330
1F
100
AcDbEntity
  8
0
100
AcDbLine
 10
15.77500000001446
 20
41.38233937586043
 30
0.0
 11
15.40116951992361
 21
41.5371850307428
 31
0.0
  0
LINE
  5
61
330
1F
100
AcDbEntity
  8
0
100
AcDbLine
 10
15.40116951992361
 20
41.5371850307428
 30
0.0
 11
15.00000000001464
 21
41.58999999999494
 31
0.0
  0
LINE
  5
62
330
1F
100
AcDbEntity
  8
0
100
AcDbLine
 10
15.00000000001464
 20
41.58999999999494
 30
0.0
 11
14.59883048010566
 21
41.53718503074316
 31
0.0
  0
LINE
  5
63
330
1F
100
AcDbEntity
  8
0
100
AcDbLine
 10
14.59883048010566
 20
41.53718503074316
 30
0.0
 11
14.22500000001445
 21
41.38233937586115
 31
0.0
  0
LINE
  5
64
330
1F
100
AcDbEntity
  8
0
100
AcDbLine
 10
14.22500000001445
 20
41.38233937586115
 30
0.0
 11
13.90398448917539
 21
41.13601551083455
 31
0.0
  0
LINE
  5
65
330
1F
100
AcDbEntity
  8
0
100
AcDbLine
 10
13.90398448917539
 20
41.13601551083455
 30
0.0
 11
13.65766062414842
 21
40.81499999999548
 31
0.0
  0
LINE
  5
66
330
1F
100
AcDbEntity
  8
0
100
AcDbLine
 10
13.65766062414842
 20
40.81499999999548
 30
0.0
 11
13.50281496926605
 21
40.44116951990445
 31
0.0
  0
LINE
  5
67
330
1F
100
AcDbEntity
  8
0
100
AcDbLine
 10
13.50281496926605
 20
40.44116951990445
 30
0.0
 11
13.45000000001391
 21
40.03999999999566
 31
0.0
  0
LINE
  5
68
330
1F
100
AcDbEntity
  8
0
100
AcDbLine
 10
13.45000000001391
 20
40.03999999999566
 30
0.0
 11
13.50281496926569
 21
39.63883048008668
 31
0.0
  0
LINE
  5
69
330
1F
100
AcDbEntity
  8
0
100
AcDbLine
 10
13.50281496926569
 20
39.63883048008668
 30
0.0
 11
13.6576606241477
 21
39.26499999999547
 31
0.0
  0
LINE
  5
6A
330
1F
100
AcDbEntity
  8
0
100
AcDbLine
 10
13.6576606241477
 20
39.26499999999547
 30
0.0
 11
13.90398448917431
 21
38.94398448915623
 31
0.0
  0
LINE
  5
6B
330
1F
100
AcDbEntity
  8
0
100
AcDbLine
 10
13.90398448917431
 20
38.94398448915623
 30
0.0
 11
14.22500000001337
 21
38.69766062412944
 31
0.0
  0
LINE
  5
6C
330
1F
100
AcDbEntity
  8
0
100
AcDbLine
 10
14.22500000001337
 20
38.69766062412944
 30
0.0
 11
14.59883048010422
 21
38.54281496924708
 31
0.0
  0
LINE
  5
6D
330
1F
100
AcDbEntity
  8
0
100
AcDbLine
 10
14.59883048010422
 20
38.54281496924708
 30
0.0
 11
15.00000000001319
 21
38.48999999999493
 31
0.0
  0
LINE
  5
6E
330
1F
100
AcDbEntity
  8
0
100
AcDbLine
 10
15.00000000001319
 20
38.48999999999493
 30
0.0
 11
15.40116951992217
 21
38.54281496924671
 31
0.0
  0
LINE
  5
6F
330
1F
100
AcDbEntity
  8
0
100
AcDbLine
 10
15.40116951992217
 20
38.54281496924671
 30
0.0
 11
15.77500000001338
 21
38.69766062412872
 31
0.0
  0
LINE
  5
70
330
1F
100
AcDbEntity
  8
0
100
AcDbLine
 10
15.77500000001338
 20
38.69766062412872
 30
0.0
 11
16.09601551085244
 21
38.94398448915533
 31
0.0
  0
LINE
  5
71
330
1F
100
AcDbEntity
  8
0
100
AcDbLine
 10
16.09601551085244
 20
38.94398448915533
 30
0.0
 11
16.34233937587941
 21
39.26499999999439
 31
0.0
  0
LINE
  5
72
330
1F
100
AcDbEntity
  8
0
100
AcDbLine
 10
16.34233937587941
 20
39.26499999999439
 30
0.0
 11
16.49718503076177
 21
39.63883048008542
 31
0.0
  0
LINE
  5
73
330
1F
100
AcDbEntity
  8
0
100
AcDbLine
 10
16.49718503076177
 20
39.63883048008542
 30
0.0
 11
16.55000000001392
 21
40.03999999999422
 31
0.0
  0
LINE
  5
74
330
1F
100
AcDbEntity
  8
0
100
AcDbLine
 10
16.55000000001392
 20
40.03999999999422
 30
0.0
 11
16.49718503076214
 21
40.44116951990318
 31
0.0
  0
LINE
  5
75
330
1F
100
AcDbEntity
  8
0
100
AcDbLine
 10
-13.44999999999694
 20
9.960000000005062
 30
0.0
 11
-13.50281496924873
 21
10.36116951991404
 31
0.0
  0
LINE
  5
76
330
1F
100
AcDbEntity
  8
0
100
AcDbLine
 10
-13.50281496924873
 20
10.36116951991404
 30
0.0
 11
-13.65766062413109
 21
10.73500000000507
 31
0.0
  0
LINE
  5
77
330
1F
100
AcDbEntity
  8
0
100
AcDbLine
 10
-13.65766062413109
 20
10.73500000000507
 30
0.0
 11
-13.9039844891577
 21
11.05601551084413
 31
0.0
  0
LINE
  5
78
330
1F
100
AcDbEntity
  8
0
100
AcDbLine
 10
-13.9039844891577
 20
11.05601551084413
 30
0.0
 11
-14.22499999999676
 21
11.30233937587092
 31
0.0
  0
LINE
  5
79
330
1F
100
AcDbEntity
  8
0
100
AcDbLine
 10
-14.22499999999676
 20
11.30233937587092
 30
0.0
 11
-14.59883048008798
 21
11.4571850307531
 31
0.0
  0
LINE
  5
7A
330
1F
100
AcDbEntity
  8
0
100
AcDbLine
 10
-14.59883048008798
 20
11.4571850307531
 30
0.0
 11
-14.99999999999695
 21
11.51000000000507
 31
0.0
  0
LINE
  5
7B
330
1F
100
AcDbEntity
  8
0
100
AcDbLine
 10
-14.99999999999695
 20
11.51000000000507
 30
0.0
 11
-15.40116951990592
 21
11.4571850307531
 31
0.0
  0
LINE
  5
7C
330
1F
100
AcDbEntity
  8
0
100
AcDbLine
 10
-15.40116951990592
 20
11.4571850307531
 30
0.0
 11
-15.77499999999677
 21
11.30233937587092
 31
0.0
  0
LINE
  5
7D
330
1F
100
AcDbEntity
  8
0
100
AcDbLine
 10
-15.77499999999677
 20
11.30233937587092
 30
0.0
 11
-16.0960155108362
 21
11.05601551084413
 31
0.0
  0
LINE
  5
7E
330
1F
100
AcDbEntity
  8
0
100
AcDbLine
 10
-16.0960155108362
 20
11.05601551084413
 30
0.0
 11
-16.34233937586281
 21
10.73500000000507
 31
0.0
  0
LINE
  5
7F
330
1F
100
AcDbEntity
  8
0
100
AcDbLine
 10
-16.34233937586281
 20
10.73500000000507
 30
0.0
 11
-16.49718503074517
 21
10.36116951991404
 31
0.0
  0
LINE
  5
80
330
1F
100
AcDbEntity
  8
0
100
AcDbLine
 10
-16.49718503074517
 20
10.36116951991404
 30
0.0
 11
-16.54999999999696
 21
9.960000000005062
 31
0.0
  0
LINE
  5
81
330
1F
100
AcDbEntity
  8
0
100
AcDbLine
 10
-16.54999999999696
 20
9.960000000005062
 30
0.0
 11
-16.49718503074517
 21
9.55883048009609
 31
0.0
  0
LINE
  5
82
330
1F
100
AcDbEntity
  8
0
100
AcDbLine
 10
-16.49718503074517
 20
9.55883048009609
 30
0.0
 11
-16.34233937586281
 21
9.185000000005058
 31
0.0
  0
LINE
  5
83
330
1F
100
AcDbEntity
  8
0
100
AcDbLine
 10
-16.34233937586281
 20
9.185000000005058
 30
0.0
 11
-16.0960155108362
 21
8.863984489165995
 31
0.0
  0
LINE
  5
84
330
1F
100
AcDbEntity
  8
0
100
AcDbLine
 10
-16.0960155108362
 20
8.863984489165995
 30
0.0
 11
-15.77499999999714
 21
8.617660624139207
 31
0.0
  0
LINE
  5
85
330
1F
100
AcDbEntity
  8
0
100
AcDbLine
 10
-15.77499999999714
 20
8.617660624139207
 30
0.0
 11
-15.40116951990592
 21
8.462814969257021
 31
0.0
  0
LINE
  5
86
330
1F
100
AcDbEntity
  8
0
100
AcDbLine
 10
-15.40116951990592
 20
8.462814969257021
 30
0.0
 11
-14.99999999999695
 21
8.410000000005054
 31
0.0
  0
LINE
  5
87
330
1F
100
AcDbEntity
  8
0
100
AcDbLine
 10
-14.99999999999695
 20
8.410000000005054
 30
0.0
 11
-14.59883048008798
 21
8.462814969257021
 31
0.0
  0
LINE
  5
88
330
1F
100
AcDbEntity
  8
0
100
AcDbLine
 10
-14.59883048008798
 20
8.462814969257021
 30
0.0
 11
-14.22499999999713
 21
8.617660624139207
 31
0.0
  0
LINE
  5
89
330
1F
100
AcDbEntity
  8
0
100
AcDbLine
 10
-14.22499999999713
 20
8.617660624139207
 30
0.0
 11
-13.9039844891577
 21
8.863984489165995
 31
0.0
  0
LINE
  5
8A
330
1F
100
AcDbEntity
  8
0
100
AcDbLine
 10
-13.9039844891577
 20
8.863984489165995
 30
0.0
 11
-13.65766062413109
 21
9.185000000005058
 31
0.0
  0
LINE
  5
8B
330
1F
100
AcDbEntity
  8
0
100
AcDbLine
 10
-13.65766062413109
 20
9.185000000005058
 30
0.0
 11
-13.50281496924873
 21
9.55883048009609
 31
0.0
  0
LINE
  5
8C
330
1F
100
AcDbEntity
  8
0
100
AcDbLine
 10
-13.50281496924873
 20
9.55883048009609
 30
0.0
 11
-13.44999999999694
 21
9.960000000005062
 31
0.0
  0
LINE
  5
8D
330
1F
100
AcDbEntity
  8
0
100
AcDbLine
 10
16.60829767240556
 20
10.16636733327943
 30
0.0
 11
16.50485507079059
 21
10.5575527533198
 31
0.0
  0
LINE
  5
8E
330
1F
100
AcDbEntity
  8
0
100
AcDbLine
 10
16.50485507079059
 20
10.5575527533198
 30
0.0
 11
16.3036909534793
 21
10.90863593803139
 31
0.0
  0
LINE
  5
8F
330
1F
100
AcDbEntity
  8
0
100
AcDbLine
 10
16.3036909534793
 20
10.90863593803139
 30
0.0
 11
16.01851432262662
 21
11.19569114856888
 31
0.0
  0
LINE
  5
90
330
1F
100
AcDbEntity
  8
0
100
AcDbLine
 10
16.01851432262662
 20
11.19569114856888
 30
0.0
 11
15.66875949434929
 21
11.3991560467151
 31
0.0
  0
LINE
  5
91
330
1F
100
AcDbEntity
  8
0
100
AcDbLine
 10
15.66875949434929
 20
11.3991560467151
 30
0.0
 11
15.27826168219699
 21
11.50516483590314
 31
0.0
  0
LINE
  5
92
330
1F
100
AcDbEntity
  8
0
100
AcDbLine
 10
15.27826168219699
 20
11.50516483590314
 30
0.0
 11
14.87363266673949
 21
11.5064931923374
 31
0.0
  0
LINE
  5
93
330
1F
100
AcDbEntity
  8
0
100
AcDbLine
 10
14.87363266673949
 20
11.5064931923374
 30
0.0
 11
14.48244724669894
 21
11.40305059072243
 31
0.0
  0
LINE
  5
94
330
1F
100
AcDbEntity
  8
0
100
AcDbLine
 10
14.48244724669894
 20
11.40305059072243
 30
0.0
 11
14.13136406198718
 21
11.20188647341096
 31
0.0
  0
LINE
  5
95
330
1F
100
AcDbEntity
  8
0
100
AcDbLine
 10
14.13136406198718
 20
11.20188647341096
 30
0.0
 11
13.84430885144986
 21
10.91670984255864
 31
0.0
  0
LINE
  5
96
330
1F
100
AcDbEntity
  8
0
100
AcDbLine
 10
13.84430885144986
 20
10.91670984255864
 30
0.0
 11
13.64084395330365
 21
10.56695501428131
 31
0.0
  0
LINE
  5
97
330
1F
100
AcDbEntity
  8
0
100
AcDbLine
 10
13.64084395330365
 20
10.56695501428131
 30
0.0
 11
13.53483516411578
 21
10.17645720212865
 31
0.0
  0
LINE
  5
98
330
1F
100
AcDbEntity
  8
0
100
AcDbLine
 10
13.53483516411578
 20
10.17645720212865
 30
0.0
 11
13.53350680768134
 21
9.77182818667115
 31
0.0
  0
LINE
  5
99
330
1F
100
AcDbEntity
  8
0
100
AcDbLine
 10
13.53350680768134
 20
9.77182818667115
 30
0.0
 11
13.63694940929631
 21
9.380642766630784
 31
0.0
  0
LINE
  5
9A
330
1F
100
AcDbEntity
  8
0
100
AcDbLine
 10
13.63694940929631
 20
9.380642766630784
 30
0.0
 11
13.83811352660761
 21
9.029559581919196
 31
0.0
  0
LINE
  5
9B
330
1F
100
AcDbEntity
  8
0
100
AcDbLine
 10
13.83811352660761
 20
9.029559581919196
 30
0.0
 11
14.12329015746029
 21
8.742504371381697
 31
0.0
  0
LINE
  5
9C
330
1F
100
AcDbEntity
  8
0
100
AcDbLine
 10
14.12329015746029
 20
8.742504371381697
 30
0.0
 11
14.47304498573762
 21
8.539039473235485
 31
0.0
  0
LINE
  5
9D
330
1F
100
AcDbEntity
  8
0
100
AcDbLine
 10
14.47304498573762
 20
8.539039473235485
 30
0.0
 11
14.86354279788991
 21
8.433030684047438
 31
0.0
  0
LINE
  5
9E
330
1F
100
AcDbEntity
  8
0
100
AcDbLine
 10
14.86354279788991
 20
8.433030684047438
 30
0.0
 11
15.26817181334741
 21
8.431702327613179
 31
0.0
  0
LINE
  5
9F
330
1F
100
AcDbEntity
  8
0
100
AcDbLine
 10
15.26817181334741
 20
8.431702327613179
 30
0.0
 11
15.65935723338796
 21
8.535144929228155
 31
0.0
  0
LINE
  5
A0
330
1F
100
AcDbEntity
  8
0
100
AcDbLine
 10
15.65935723338796
 20
8.535144929228155
 30
0.0
 11
16.01044041809973
 21
8.736309046539626
 31
0.0
  0
LINE
  5
A1
330
1F
100
AcDbEntity
  8
0
100
AcDbLine
 10
16.01044041809973
 20
8.736309046539626
 30
0.0
 11
16.29749562863704
 21
9.021485677391945
 31
0.0
  0
LINE
  5
A2
330
1F
100
AcDbEntity
  8
0
100
AcDbLine
 10
16.29749562863704
 20
9.021485677391945
 30
0.0
 11
16.50096052678326
 21
9.371240505669274
 31
0.0
  0
LINE
  5
A3
330
1F
100
AcDbEntity
  8
0
100
AcDbLine
 10
16.50096052678326
 20
9.371240505669274
 30
0.0
 11
16.60696931597112
 21
9.761738317821928
 31
0.0
  0
LINE
  5
A4
330
1F
100
AcDbEntity
  8
0
100
AcDbLine
 10
16.60696931597112
 20
9.761738317821928
 30
0.0
 11
16.60829767240556
 21
10.16636733327943
 31
0.0
  0
LINE
  5
A5
330
1F
100
AcDbEntity
  8
0
100
AcDbLine
 10
-13.90398448916745
 20
-21.13601551083368
 30
0.0
 11
-13.65766062414228
 21
-20.81499999999335
 31
0.0
  0
LINE
  5
A6
330
1F
100
AcDbEntity
  8
0
100
AcDbLine
 10
-13.65766062414228
 20
-20.81499999999335
 30
0.0
 11
-13.50281496926172
 21
-20.4411695199016
 31
0.0
  0
LINE
  5
A7
330
1F
100
AcDbEntity
  8
0
100
AcDbLine
 10
-13.50281496926172
 20
-20.4411695199016
 30
0.0
 11
-13.45000000001174
 21
-20.03999999999245
 31
0.0
  0
LINE
  5
A8
330
1F
100
AcDbEntity
  8
0
100
AcDbLine
 10
-13.45000000001174
 20
-20.03999999999245
 30
0.0
 11
-13.50281496926569
 21
-19.63883048008366
 31
0.0
  0
LINE
  5
A9
330
1F
100
AcDbEntity
  8
0
100
AcDbLine
 10
-13.50281496926569
 20
-19.63883048008366
 30
0.0
 11
-13.6576606241495
 21
-19.26499999999334
 31
0.0
  0
LINE
  5
AA
330
1F
100
AcDbEntity
  8
0
100
AcDbLine
 10
-13.6576606241495
 20
-19.26499999999334
 30
0.0
 11
-13.90398448917755
 21
-18.94398448915537
 31
0.0
  0
LINE
  5
AB
330
1F
100
AcDbEntity
  8
0
100
AcDbLine
 10
-13.90398448917755
 20
-18.94398448915537
 30
0.0
 11
-14.22500000001806
 21
-18.6976606241302
 31
0.0
  0
LINE
  5
AC
330
1F
100
AcDbEntity
  8
0
100
AcDbLine
 10
-14.22500000001806
 20
-18.6976606241302
 30
0.0
 11
-14.59883048011
 21
-18.54281496924964
 31
0.0
  0
LINE
  5
AD
330
1F
100
AcDbEntity
  8
0
100
AcDbLine
 10
-14.59883048011
 20
-18.54281496924964
 30
0.0
 11
-15.00000000001897
 21
-18.48999999999966
 31
0.0
  0
LINE
  5
AE
330
1F
100
AcDbEntity
  8
0
100
AcDbLine
 10
-15.00000000001897
 20
-18.48999999999966
 30
0.0
 11
-15.40116951992758
 21
-18.54281496925343
 31
0.0
  0
LINE
  5
AF
330
1F
100
AcDbEntity
  8
0
100
AcDbLine
 10
-15.40116951992758
 20
-18.54281496925343
 30
0.0
 11
-15.77500000001807
 21
-18.69766062413742
 31
0.0
  0
LINE
  5
B0
330
1F
100
AcDbEntity
  8
0
100
AcDbLine
 10
-15.77500000001807
 20
-18.69766062413742
 30
0.0
 11
-16.09601551085605
 21
-18.94398448916565
 31
0.0
  0
LINE
  5
B1
330
1F
100
AcDbEntity
  8
0
100
AcDbLine
 10
-16.09601551085605
 20
-18.94398448916565
 30
0.0
 11
-16.34233937588121
 21
-19.26500000000598
 31
0.0
  0
LINE
  5
B2
330
1F
100
AcDbEntity
  8
0
100
AcDbLine
 10
-16.34233937588121
 20
-19.26500000000598
 30
0.0
 11
-16.49718503076177
 21
-19.63883048009773
 31
0.0
  0
LINE
  5
B3
330
1F
100
AcDbEntity
  8
0
100
AcDbLine
 10
-16.49718503076177
 20
-19.63883048009773
 30
0.0
 11
-16.55000000001176
 21
-20.04000000000688
 31
0.0
  0
LINE
  5
B4
330
1F
100
AcDbEntity
  8
0
100
AcDbLine
 10
-16.55000000001176
 20
-20.04000000000688
 30
0.0
 11
-16.49718503075781
 21
-20.44116951991568
 31
0.0
  0
LINE
  5
B5
330
1F
100
AcDbEntity
  8
0
100
AcDbLine
 10
-16.49718503075781
 20
-20.44116951991568
 30
0.0
 11
-16.34233937587399
 21
-20.81500000000599
 31
0.0
  0
LINE
  5
B6
330
1F
100
AcDbEntity
  8
0
100
AcDbLine
 10
-16.34233937587399
 20
-20.81500000000599
 30
0.0
 11
-16.09601551084594
 21
-21.13601551084397
 31
0.0
  0
LINE
  5
B7
330
1F
100
AcDbEntity
  8
0
100
AcDbLine
 10
-16.09601551084594
 20
-21.13601551084397
 30
0.0
 11
-15.77500000000544
 21
-21.38233937586913
 31
0.0
  0
LINE
  5
B8
330
1F
100
AcDbEntity
  8
0
100
AcDbLine
 10
-15.77500000000544
 20
-21.38233937586913
 30
0.0
 11
-15.4011695199135
 21
-21.53718503074969
 31
0.0
  0
LINE
  5
B9
330
1F
100
AcDbEntity
  8
0
100
AcDbLine
 10
-15.4011695199135
 20
-21.53718503074969
 30
0.0
 11
-15.00000000000453
 21
-21.58999999999967
 31
0.0
  0
LINE
  5
BA
330
1F
100
AcDbEntity
  8
0
100
AcDbLine
 10
-15.00000000000453
 20
-21.58999999999967
 30
0.0
 11
-14.59883048009592
 21
-21.5371850307459
 31
0.0
  0
LINE
  5
BB
330
1F
100
AcDbEntity
  8
0
100
AcDbLine
 10
-14.59883048009592
 20
-21.5371850307459
 30
0.0
 11
-14.22500000000543
 21
-21.38233937586191
 31
0.0
  0
LINE
  5
BC
330
1F
100
AcDbEntity
  8
0
100
AcDbLine
 10
-14.22500000000543
 20
-21.38233937586191
 30
0.0
 11
-13.90398448916745
 21
-21.13601551083368
 31
0.0
  0
LINE
  5
BD
330
1F
100
AcDbEntity
  8
0
100
AcDbLine
 10
16.54999999999804
 20
-20.0400000000049
 30
0.0
 11
16.49718503074626
 21
-19.63883048009593
 31
0.0
  0
LINE
  5
BE
330
1F
100
AcDbEntity
  8
0
100
AcDbLine
 10
16.49718503074626
 20
-19.63883048009593
 30
0.0
 11
16.34233937586389
 21
-19.2650000000049
 31
0.0
  0
LINE
  5
BF
330
1F
100
AcDbEntity
  8
0
100
AcDbLine
 10
16.34233937586389
 20
-19.2650000000049
 30
0.0
 11
16.09601551083728
 21
-18.94398448916583
 31
0.0
  0
LINE
  5
C0
330
1F
100
AcDbEntity
  8
0
100
AcDbLine
 10
16.09601551083728
 20
-18.94398448916583
 30
0.0
 11
15.77499999999822
 21
-18.69766062413904
 31
0.0
  0
LINE
  5
C1
330
1F
100
AcDbEntity
  8
0
100
AcDbLine
 10
15.77499999999822
 20
-18.69766062413904
 30
0.0
 11
15.40116951990701
 21
-18.54281496925686
 31
0.0
  0
LINE
  5
C2
330
1F
100
AcDbEntity
  8
0
100
AcDbLine
 10
15.40116951990701
 20
-18.54281496925686
 30
0.0
 11
14.99999999999803
 21
-18.49000000000489
 31
0.0
  0
LINE
  5
C3
330
1F
100
AcDbEntity
  8
0
100
AcDbLine
 10
14.99999999999803
 20
-18.49000000000489
 30
0.0
 11
14.59883048008906
 21
-18.54281496925686
 31
0.0
  0
LINE
  5
C4
330
1F
100
AcDbEntity
  8
0
100
AcDbLine
 10
14.59883048008906
 20
-18.54281496925686
 30
0.0
 11
14.22499999999821
 21
-18.69766062413904
 31
0.0
  0
LINE
  5
C5
330
1F
100
AcDbEntity
  8
0
100
AcDbLine
 10
14.22499999999821
 20
-18.69766062413904
 30
0.0
 11
13.90398448915878
 21
-18.94398448916583
 31
0.0
  0
LINE
  5
C6
330
1F
100
AcDbEntity
  8
0
100
AcDbLine
 10
13.90398448915878
 20
-18.94398448916583
 30
0.0
 11
13.65766062413218
 21
-19.2650000000049
 31
0.0
  0
LINE
  5
C7
330
1F
100
AcDbEntity
  8
0
100
AcDbLine
 10
13.65766062413218
 20
-19.2650000000049
 30
0.0
 11
13.50281496924981
 21
-19.63883048009593
 31
0.0
  0
LINE
  5
C8
330
1F
100
AcDbEntity
  8
0
100
AcDbLine
 10
13.50281496924981
 20
-19.63883048009593
 30
0.0
 11
13.44999999999802
 21
-20.0400000000049
 31
0.0
  0
LINE
  5
C9
330
1F
100
AcDbEntity
  8
0
100
AcDbLine
 10
13.44999999999802
 20
-20.0400000000049
 30
0.0
 11
13.50281496924981
 21
-20.44116951991387
 31
0.0
  0
LINE
  5
CA
330
1F
100
AcDbEntity
  8
0
100
AcDbLine
 10
13.50281496924981
 20
-20.44116951991387
 30
0.0
 11
13.65766062413218
 21
-20.8150000000049
 31
0.0
  0
LINE
  5
CB
330
1F
100
AcDbEntity
  8
0
100
AcDbLine
 10
13.65766062413218
 20
-20.8150000000049
 30
0.0
 11
13.90398448915878
 21
-21.13601551084397
 31
0.0
  0
LINE
  5
CC
330
1F
100
AcDbEntity
  8
0
100
AcDbLine
 10
13.90398448915878
 20
-21.13601551084397
 30
0.0
 11
14.22499999999785
 21
-21.38233937587076
 31
0.0
  0
LINE
  5
CD
330
1F
100
AcDbEntity
  8
0
100
AcDbLine
 10
14.22499999999785
 20
-21.38233937587076
 30
0.0
 11
14.59883048008906
 21
-21.53718503075294
 31
0.0
  0
LINE
  5
CE
330
1F
100
AcDbEntity
  8
0
100
AcDbLine
 10
14.59883048008906
 20
-21.53718503075294
 30
0.0
 11
14.99999999999803
 21
-21.59000000000491
 31
0.0
  0
LINE
  5
CF
330
1F
100
AcDbEntity
  8
0
100
AcDbLine
 10
14.99999999999803
 20
-21.59000000000491
 30
0.0
 11
15.40116951990701
 21
-21.53718503075294
 31
0.0
  0
LINE
  5
D0
330
1F
100
AcDbEntity
  8
0
100
AcDbLine
 10
15.40116951990701
 20
-21.53718503075294
 30
0.0
 11
15.77499999999786
 21
-21.38233937587076
 31
0.0
  0
LINE
  5
D1
330
1F
100
AcDbEntity
  8
0
100
AcDbLine
 10
15.77499999999786
 20
-21.38233937587076
 30
0.0
 11
16.09601551083728
 21
-21.13601551084397
 31
0.0
  0
LINE
  5
D2
330
1F
100
AcDbEntity
  8
0
100
AcDbLine
 10
16.09601551083728
 20
-21.13601551084397
 30
0.0
 11
16.34233937586389
 21
-20.8150000000049
 31
0.0
  0
LINE
  5
D3
330
1F
100
AcDbEntity
  8
0
100
AcDbLine
 10
16.34233937586389
 20
-20.8150000000049
 30
0.0
 11
16.49718503074626
 21
-20.44116951991387
 31
0.0
  0
LINE
  5
D4
330
1F
100
AcDbEntity
  8
0
100
AcDbLine
 10
16.49718503074626
 20
-20.44116951991387
 30
0.0
 11
16.54999999999804
 21
-20.0400000000049
 31
0.0
  0
ENDSEC
  0
SECTION
  2
OBJECTS
  0
DICTIONARY
  5
C
330
0
100
AcDbDictionary
  3
ACAD_GROUP
350
D
  3
ACAD_LAYOUT
350
1A
  3
ACAD_MATERIAL
350
3B
  3
ACAD_MLEADERSTYLE
350
F7
  3
ACAD_MLINESTYLE
350
17
  3
ACAD_PLOTSETTINGS
350
19
  3
ACAD_VISUALSTYLE
350
2A
  3
ACDBHEADERROUNDTRIPXREC
350
D5
  3
ACDBVARIABLEDICTIONARY
350
F5
  0
DICTIONARY
  5
D
102
{ACAD_REACTORS
330
C
102
}
330
C
100
AcDbDictionary
  0
DICTIONARY
  5
1A
102
{ACAD_REACTORS
330
C
102
}
330
C
100
AcDbDictionary
  0
DICTIONARY
  5
3B
102
{ACAD_REACTORS
330
C
102
}
330
C
100
AcDbDictionary
  3
BYBLOCK
350
3D
  3
BYLAYER
350
3C
  3
GLOBAL
350
3E
  0
DICTIONARY
  5
F7
102
{ACAD_REACTORS
330
C
102
}
330
C
100
AcDbDictionary
  0
DICTIONARY
  5
17
102
{ACAD_REACTORS
330
C
102
}
330
C
100
AcDbDictionary
  3
STANDARD
350
18
  0
DICTIONARY
  5
19
102
{ACAD_REACTORS
330
C
102
}
330
C
100
AcDbDictionary
  0
DICTIONARY
  5
2A
102
{ACAD_REACTORS
330
C
102
}
330
C
100
AcDbDictionary
  3
2DWIREFRAME
350
2F
  3
3D_HIDDEN
350
31
  3
3DWIREFRAME
350
30
  3
BASIC
350
32
  3
BRIGHTEN
350
36
  3
COLORCHANGE
350
3A
  3
CONCEPTUAL
350
34
  3
DIM
350
35
  3
FACEPATTERN
350
39
  3
FLAT
350
2B
  3
FLATWITHEDGES
350
2C
  3
GOURAUD
350
2D
  3
GOURAUDWITHEDGES
350
2E
  3
LINEPATTERN
350
38
  3
REALISTIC
350
33
  3
THICKEN
350
37
  0
DICTIONARY
  5
D5
102
{ACAD_REACTORS
330
C
102
}
330
C
100
AcDbDictionary
  3
CEPSNTYPE
350
DE
  3
DIMSTYLEDATA
350
F4
  3
FINGERPRINTGUID
350
DF
  3
HYPERLINKBASE
350
D8
  3
INSUNITS
350
DD
  3
LAYOUTDICT
350
DA
  3
LWETCUNION
350
DC
  3
PLOTSETDICT
350
DB
  3
PSVPSCALE
350
E1
  3
PUCSBASE
350
E4
  3
PUCSORGBACK
350
EA
  3
PUCSORGBOTTOM
350
E6
  3
PUCSORGFRONT
350
E9
  3
PUCSORGLEFT
350
E7
  3
PUCSORGRIGHT
350
E8
  3
PUCSORGTOP
350
E5
  3
PUCSORTHOREF
350
E2
  3
PUCSORTHOVIEW
350
E3
  3
STYLESHEET
350
D9
  3
TSTACKALIGN
350
D6
  3
TSTACKSIZE
350
D7
  3
UCSBASE
350
ED
  3
UCSORGBACK
350
F3
  3
UCSORGBOTTOM
350
EF
  3
UCSORGFRONT
350
F2
  3
UCSORGLEFT
350
F0
  3
UCSORGRIGHT
350
F1
  3
UCSORGTOP
350
EE
  3
UCSORTHOREF
350
EB
  3
UCSORTHOVIEW
350
EC
  3
VERSIONGUID
350
E0
  0
DICTIONARY
  5
F5
102
{ACAD_REACTORS
330
C
102
}
330
C
100
AcDbDictionary
  3
DIMASSOC
350
F8
  3
HIDETEXT
350
F9
  0
MATERIAL
  5
3D
102
{ACAD_REACTORS
330
3B
102
}
102
{ACAD_XDICTIONARY
360
FC
102
}
330
3B
100
AcDbMaterial
  1
ByBlock
  0
MATERIAL
  5
3C
102
{ACAD_REACTORS
330
3B
102
}
102
{ACAD_XDICTIONARY
360
FA
102
}
330
3B
100
AcDbMaterial
  1
ByLayer
  0
MATERIAL
  5
3E
102
{ACAD_REACTORS
330
3B
102
}
102
{ACAD_XDICTIONARY
360
FE
102
}
330
3B
100
AcDbMaterial
  1
Global
  0
MLINESTYLE
  5
18
102
{ACAD_REACTORS
330
17
102
}
330
17
100
AcDbMlineStyle
  2
Standard
 70
     0
  3

 62
   256
 51
90.0
 52
90.0
 71
     2
 49
0.5
 62
   256
  6
BYLAYER
 49
-0.5
 62
   256
  6
BYLAYER
  0
ACAD_PROXY_OBJECT
  5
2F
102
{ACAD_REACTORS
330
2A
102
}
330
2A
100
AcDbProxyObject
 90
      499
 91
      501
 93
      436
310
42CC9915DA5C99599C985B595049028333333333333E3BF0000000000000FB0107901411070040501600405405064090741402480A0340
1001
ACAD
1000
AcDbSavedByObjectVersion
1070
     0
  0
ACAD_PROXY_OBJECT
  5
31
102
{ACAD_REACTORS
330
2A
102
}
330
2A
100
AcDbProxyObject
 90
      499
 91
      501
 93
      500
310
424CD108121A5919195B90640502408333333333333E3BF0000000000000FB01079024090700405020000000000001110200405405064090740C02480A0340
1001
ACAD
1000
AcDbSavedByObjectVersion
1070
     0
  0
ACAD_PROXY_OBJECT
  5
30
102
{ACAD_REACTORS
330
2A
102
}
330
2A
100
AcDbProxyObject
 90
      499
 91
      501
 93
      436
310
42CCD915DA5C99599C985B595059028333333333333E3BF0000000000000FB0107901411070040501600405405064090741402480A0340
1001
ACAD
1000
AcDbSavedByObjectVersion
1070
     0
  0
ACAD_PROXY_OBJECT
  5
32
102
{ACAD_REACTORS
330
2A
102
}
330
2A
100
AcDbProxyObject
 90
      499
 91
      501
 93
      388
310
4150985CDA58D07406404333333333333E3BF0000000000000FB0107A41107004050150841D405064090741402480A0350
1001
ACAD
1000
AcDbSavedByObjectVersion
1070
     0
  0
ACAD_PROXY_OBJECT
  5
36
102
{ACAD_REACTORS
330
2A
102
}
330
2A
100
AcDbProxyObject
 90
      499
 91
      501
 93
      428
310
42109C9A59DA1D195B90C409028333333333333E3BF0000000000000FB010790141107004050150841D405064090741402480A029950
1001
ACAD
1000
AcDbSavedByObjectVersion
1070
     0
  0
ACAD_PROXY_OBJECT
  5
3A
102
{ACAD_REACTORS
330
2A
102
}
330
2A
100
AcDbProxyObject
 90
      499
 91
      501
 93
      452
310
42D0DBDB1BDC90DA185B99D95104090240C333333333333E3BF0000000000000FB0108901411070040501508421405064090741402480A0350
1001
ACAD
1000
AcDbSavedByObjectVersion
1070
     0
  0
ACAD_PROXY_OBJECT
  5
34
102
{ACAD_REACTORS
330
2A
102
}
330
2A
100
AcDbProxyObject
 90
      499
 91
      501
 93
      500
310
4290DBDB98D95C1D1D585B10940D028333333333333E3BF0000000000000FB0107902409070040501000000000000111010841D405064090740C02480A0340
1001
ACAD
1000
AcDbSavedByObjectVersion
1070
     0
  0
ACAD_PROXY_OBJECT
  5
35
102
{ACAD_REACTORS
330
2A
102
}
330
2A
100
AcDbProxyObject
 90
      499
 91
      501
 93
      412
310
40D11A5B50B409028333333333333E3BF0000000000000FB010790141107004050150841D405064090741402480A02677FFFFFD0
1001
ACAD
1000
AcDbSavedByObjectVersion
1070
     0
  0
ACAD_PROXY_OBJECT
  5
39
102
{ACAD_REACTORS
330
2A
102
}
330
2A
100
AcDbProxyObject
 90
      499
 91
      501
 93
      444
310
42D19858D95C185D1D195C9B90F409028333333333333E3BF0000000000000FB010790141107004050150841D405064090741402480A0350
1001
ACAD
1000
AcDbSavedByObjectVersion
1070
     0
  0
ACAD_PROXY_OBJECT
  5
2B
102
{ACAD_REACTORS
330
2A
102
}
330
2A
100
AcDbProxyObject
 90
      499
 91
      501
 93
      388
310
41119B185D240901404333333333333E3BF0000000000000F9010740A41107004050150841D405064090741402480A1B50
1001
ACAD
1000
AcDbSavedByObjectVersion
1070
     0
  0
ACAD_PROXY_OBJECT
  5
2C
102
{ACAD_REACTORS
330
2A
102
}
330
2A
100
AcDbProxyObject
 90
      499
 91
      501
 93
      476
310
43519B185D15DA5D1A115919D95CD0140901404333333333333E3BF0000000000000F9010740901411070040501600405405064090741402480A1B50
1001
ACAD
1000
AcDbSavedByObjectVersion
1070
     0
  0
ACAD_PROXY_OBJECT
  5
2D
102
{ACAD_REACTORS
330
2A
102
}
330
2A
100
AcDbProxyObject
 90
      499
 91
      501
 93
      412
310
41D1DBDD5C985D5910240902404333333333333E3BF0000000000000F9010740A411070040501641D405064090741402480A1B50
1001
ACAD
1000
AcDbSavedByObjectVersion
1070
     0
  0
ACAD_PROXY_OBJECT
  5
2E
102
{ACAD_REACTORS
330
2A
102
}
330
2A
100
AcDbProxyObject
 90
      499
 91
      501
 93
      500
310
4411DBDD5C985D5915DA5D1A115919D95CD0340902404333333333333E3BF0000000000000F9010740901411070040501600405405064090741402480A1B50
1001
ACAD
1000
AcDbSavedByObjectVersion
1070
     0
  0
ACAD_PROXY_OBJECT
  5
38
102
{ACAD_REACTORS
330
2A
102
}
330
2A
100
AcDbProxyObject
 90
      499
 91
      501
 93
      444
310
42D31A5B995C185D1D195C9B90E409028333333333333E3BF0000000000000FB010790141107004050750841D405064090741402483A0350
1001
ACAD
1000
AcDbSavedByObjectVersion
1070
     0
  0
ACAD_PROXY_OBJECT
  5
33
102
{ACAD_REACTORS
330
2A
102
}
330
2A
100
AcDbProxyObject
 90
      499
 91
      501
 93
      420
310
425499585B1A5CDD1A58D08409028333333333333E3BF0000000000000FB01079019070040501508421405064090741402480A1B40
1001
ACAD
1000
AcDbSavedByObjectVersion
1070
     0
  0
ACAD_PROXY_OBJECT
  5
37
102
{ACAD_REACTORS
330
2A
102
}
330
2A
100
AcDbProxyObject
 90
      499
 91
      501
 93
      412
310
41D51A1A58DAD95B90D409028333333333333E3BF0000000000000FB010790141107004050150C41D405064090741402480A0350
1001
ACAD
1000
AcDbSavedByObjectVersion
1070
     0
  0
XRECORD
  5
DE
102
{ACAD_REACTORS
330
D5
102
}
330
D5
100
AcDbXrecord
 90
        0
  0
XRECORD
  5
F4
102
{ACAD_REACTORS
330
D5
102
}
330
D5
100
AcDbXrecord
1000
DSTYLE
1002
{
1070
   340
340
11
1002
}
  0
XRECORD
  5
DF
102
{ACAD_REACTORS
330
D5
102
}
330
D5
100
AcDbXrecord
  1
{C12ED4BF-33AF-4C2A-84D5-59AEA2B5223A}
  0
XRECORD
  5
D8
102
{ACAD_REACTORS
330
D5
102
}
330
D5
100
AcDbXrecord
  1

  0
XRECORD
  5
DD
102
{ACAD_REACTORS
330
D5
102
}
330
D5
100
AcDbXrecord
 90
        1
  0
XRECORD
  5
DA
102
{ACAD_REACTORS
330
D5
102
}
330
D5
100
AcDbXrecord
340
1A
  0
XRECORD
  5
DC
102
{ACAD_REACTORS
330
D5
102
}
330
D5
100
AcDbXrecord
 90
    10781
  0
XRECORD
  5
DB
102
{ACAD_REACTORS
330
D5
102
}
330
D5
100
AcDbXrecord
340
19
  0
XRECORD
  5
E1
102
{ACAD_REACTORS
330
D5
102
}
330
D5
100
AcDbXrecord
 40
0.0
  0
XRECORD
  5
E4
102
{ACAD_REACTORS
330
D5
102
}
330
D5
100
AcDbXrecord
340
0
  0
XRECORD
  5
EA
102
{ACAD_REACTORS
330
D5
102
}
330
D5
100
AcDbXrecord
 10
0.0
 20
0.0
 30
0.0
  0
XRECORD
  5
E6
102
{ACAD_REACTORS
330
D5
102
}
330
D5
100
AcDbXrecord
 10
0.0
 20
0.0
 30
0.0
  0
XRECORD
  5
E9
102
{ACAD_REACTORS
330
D5
102
}
330
D5
100
AcDbXrecord
 10
0.0
 20
0.0
 30
0.0
  0
XRECORD
  5
E7
102
{ACAD_REACTORS
330
D5
102
}
330
D5
100
AcDbXrecord
 10
0.0
 20
0.0
 30
0.0
  0
XRECORD
  5
E8
102
{ACAD_REACTORS
330
D5
102
}
330
D5
100
AcDbXrecord
 10
0.0
 20
0.0
 30
0.0
  0
XRECORD
  5
E5
102
{ACAD_REACTORS
330
D5
102
}
330
D5
100
AcDbXrecord
 10
0.0
 20
0.0
 30
0.0
  0
XRECORD
  5
E2
102
{ACAD_REACTORS
330
D5
102
}
330
D5
100
AcDbXrecord
340
0
  0
XRECORD
  5
E3
102
{ACAD_REACTORS
330
D5
102
}
330
D5
100
AcDbXrecord
 70
     0
  0
XRECORD
  5
D9
102
{ACAD_REACTORS
330
D5
102
}
330
D5
100
AcDbXrecord
  1

  0
XRECORD
  5
D6
102
{ACAD_REACTORS
330
D5
102
}
330
D5
100
AcDbXrecord
 90
        1
  0
XRECORD
  5
D7
102
{ACAD_REACTORS
330
D5
102
}
330
D5
100
AcDbXrecord
 90
       70
  0
XRECORD
  5
ED
102
{ACAD_REACTORS
330
D5
102
}
330
D5
100
AcDbXrecord
340
0
  0
XRECORD
  5
F3
102
{ACAD_REACTORS
330
D5
102
}
330
D5
100
AcDbXrecord
 10
0.0
 20
0.0
 30
0.0
  0
XRECORD
  5
EF
102
{ACAD_REACTORS
330
D5
102
}
330
D5
100
AcDbXrecord
 10
0.0
 20
0.0
 30
0.0
  0
XRECORD
  5
F2
102
{ACAD_REACTORS
330
D5
102
}
330
D5
100
AcDbXrecord
 10
0.0
 20
0.0
 30
0.0
  0
XRECORD
  5
F0
102
{ACAD_REACTORS
330
D5
102
}
330
D5
100
AcDbXrecord
 10
0.0
 20
0.0
 30
0.0
  0
XRECORD
  5
F1
102
{ACAD_REACTORS
330
D5
102
}
330
D5
100
AcDbXrecord
 10
0.0
 20
0.0
 30
0.0
  0
XRECORD
  5
EE
102
{ACAD_REACTORS
330
D5
102
}
330
D5
100
AcDbXrecord
 10
0.0
 20
0.0
 30
0.0
  0
XRECORD
  5
EB
102
{ACAD_REACTORS
330
D5
102
}
330
D5
100
AcDbXrecord
340
0
  0
XRECORD
  5
EC
102
{ACAD_REACTORS
330
D5
102
}
330
D5
100
AcDbXrecord
 70
     0
  0
XRECORD
  5
E0
102
{ACAD_REACTORS
330
D5
102
}
330
D5
100
AcDbXrecord
  1
{FAEB1C32-E019-11D5-929B-00C0DF256EC4}
  0
DICTIONARYVAR
  5
F8
102
{ACAD_REACTORS
330
F5
102
}
330
F5
100
DictionaryVariables
280
     0
  1
2
  0
DICTIONARYVAR
  5
F9
102
{ACAD_REACTORS
330
F5
102
}
330
F5
100
DictionaryVariables
280
     0
  1
1
  0
DICTIONARY
  5
FC
330
3D
100
AcDbDictionary
280
     1
  3
ACAD_XREC_ROUNDTRIP
360
FD
  0
DICTIONARY
  5
FA
330
3C
100
AcDbDictionary
280
     1
  3
ACAD_XREC_ROUNDTRIP
360
FB
  0
DICTIONARY
  5
FE
330
3E
100
AcDbDictionary
280
     1
  3
ACAD_XREC_ROUNDTRIP
360
FF
  0
XRECORD
  5
FD
102
{ACAD_REACTORS
330
FC
102
}
330
FC
100
AcDbXrecord
102
MATERIAL
148
0.0
149
0.0
149
0.0
 93
        0
 94
      127
282
     0
 72
     1
 77
     1
171
     1
175
     1
179
     1
273
     0
  0
XRECORD
  5
FB
102
{ACAD_REACTORS
330
FA
102
}
330
FA
100
AcDbXrecord
102
MATERIAL
148
0.0
149
0.0
149
0.0
 93
        0
 94
      127
282
     0
 72
     1
 77
     1
171
     1
175
     1
179
     1
273
     0
  0
XRECORD
  5
FF
102
{ACAD_REACTORS
330
FE
102
}
330
FE
100
AcDbXrecord
102
MATERIAL
148
0.0
149
0.0
149
0.0
 93
        0
 94
      127
282
     0
 72
     1
 77
     1
171
     1
175
     1
179
     1
273
     0
  0
ENDSEC
  0
EOF
