  0
SECTION
  2
HEADER
  9
$ACADVER
  1
AC1014
  9
$ACADMAINTVER
 70
     9
  9
$DWGCODEPAGE
  3
ANSI_1252
  9
$INSBASE
 10
0.0
 20
0.0
 30
0.0
  9
$EXTMIN
 10
1.000000000000000E+20
 20
1.000000000000000E+20
 30
1.000000000000000E+20
  9
$EXTMAX
 10
-1.000000000000000E+20
 20
-1.000000000000000E+20
 30
-1.000000000000000E+20
  9
$LIMMIN
 10
0.0
 20
0.0
  9
$LIMMAX
 10
12.0
 20
9.0
  9
$ORTHOMODE
 70
     0
  9
$REGENMODE
 70
     1
  9
$FILLMODE
 70
     1
  9
$QTEXTMODE
 70
     0
  9
$MIRRTEXT
 70
     1
  9
$DRAGMODE
 70
     2
  9
$LTSCALE
 40
1.0
  9
$OSMODE
 70
    37
  9
$ATTMODE
 70
     1
  9
$TEXTSIZE
 40
0.2
  9
$TRACEWID
 40
0.05
  9
$TEXTSTYLE
  7
STANDARD
  9
$CLAYER
  8
0
  9
$CELTYPE
  6
BYLAYER
  9
$CECOLOR
 62
   256
  9
$CELTSCALE
 40
1.0
  9
$DELOBJ
 70
     1
  9
$DISPSILH
 70
     0
  9
$DIMSCALE
 40
1.0
  9
$DIMASZ
 40
0.18
  9
$DIMEXO
 40
0.0625
  9
$DIMDLI
 40
0.38
  9
$DIMRND
 40
0.0
  9
$DIMDLE
 40
0.0
  9
$DIMEXE
 40
0.18
  9
$DIMTP
 40
0.0
  9
$DIMTM
 40
0.0
  9
$DIMTXT
 40
0.18
  9
$DIMCEN
 40
0.09
  9
$DIMTSZ
 40
0.0
  9
$DIMTOL
 70
     0
  9
$DIMLIM
 70
     0
  9
$DIMTIH
 70
     1
  9
$DIMTOH
 70
     1
  9
$DIMSE1
 70
     0
  9
$DIMSE2
 70
     0
  9
$DIMTAD
 70
     0
  9
$DIMZIN
 70
     0
  9
$DIMBLK
  1

  9
$DIMASO
 70
     1
  9
$DIMSHO
 70
     1
  9
$DIMPOST
  1

  9
$DIMAPOST
  1

  9
$DIMALT
 70
     0
  9
$DIMALTD
 70
     2
  9
$DIMALTF
 40
25.4
  9
$DIMLFAC
 40
1.0
  9
$DIMTOFL
 70
     0
  9
$DIMTVP
 40
0.0
  9
$DIMTIX
 70
     0
  9
$DIMSOXD
 70
     0
  9
$DIMSAH
 70
     0
  9
$DIMBLK1
  1

  9
$DIMBLK2
  1

  9
$DIMSTYLE
  2
STANDARD
  9
$DIMCLRD
 70
     0
  9
$DIMCLRE
 70
     0
  9
$DIMCLRT
 70
     0
  9
$DIMTFAC
 40
1.0
  9
$DIMGAP
 40
0.09
  9
$DIMJUST
 70
     0
  9
$DIMSD1
 70
     0
  9
$DIMSD2
 70
     0
  9
$DIMTOLJ
 70
     1
  9
$DIMTZIN
 70
     0
  9
$DIMALTZ
 70
     0
  9
$DIMALTTZ
 70
     0
  9
$DIMFIT
 70
     3
  9
$DIMUPT
 70
     0
  9
$DIMUNIT
 70
     2
  9
$DIMDEC
 70
     4
  9
$DIMTDEC
 70
     4
  9
$DIMALTU
 70
     2
  9
$DIMALTTD
 70
     2
  9
$DIMTXSTY
  7
STANDARD
  9
$DIMAUNIT
 70
     0
  9
$LUNITS
 70
     2
  9
$LUPREC
 70
     4
  9
$SKETCHINC
 40
0.1
  9
$FILLETRAD
 40
0.5
  9
$AUNITS
 70
     0
  9
$AUPREC
 70
     0
  9
$MENU
  1
.
  9
$ELEVATION
 40
0.0
  9
$PELEVATION
 40
0.0
  9
$THICKNESS
 40
0.0
  9
$LIMCHECK
 70
     0
  9
$CHAMFERA
 40
0.5
  9
$CHAMFERB
 40
0.5
  9
$CHAMFERC
 40
1.0
  9
$CHAMFERD
 40
0.0
  9
$SKPOLY
 70
     0
  9
$TDCREATE
 40
2457286.91626794
  9
$TDUPDATE
 40
2457286.916267951
  9
$TDINDWG
 40
0.0000000116
  9
$TDUSRTIMER
 40
0.0000000116
  9
$USRTIMER
 70
     1
  9
$ANGBASE
 50
0.0
  9
$ANGDIR
 70
     0
  9
$PDMODE
 70
     0
  9
$PDSIZE
 40
0.0
  9
$PLINEWID
 40
0.0
  9
$COORDS
 70
     1
  9
$SPLFRAME
 70
     0
  9
$SPLINETYPE
 70
     6
  9
$SPLINESEGS
 70
     8
  9
$ATTDIA
 70
     0
  9
$ATTREQ
 70
     1
  9
$HANDLING
 70
     1
  9
$HANDSEED
  5
240
  9
$SURFTAB1
 70
     6
  9
$SURFTAB2
 70
     6
  9
$SURFTYPE
 70
     6
  9
$SURFU
 70
     6
  9
$SURFV
 70
     6
  9
$UCSNAME
  2

  9
$UCSORG
 10
0.0
 20
0.0
 30
0.0
  9
$UCSXDIR
 10
1.0
 20
0.0
 30
0.0
  9
$UCSYDIR
 10
0.0
 20
1.0
 30
0.0
  9
$PUCSNAME
  2

  9
$PUCSORG
 10
0.0
 20
0.0
 30
0.0
  9
$PUCSXDIR
 10
1.0
 20
0.0
 30
0.0
  9
$PUCSYDIR
 10
0.0
 20
1.0
 30
0.0
  9
$USERI1
 70
     0
  9
$USERI2
 70
     0
  9
$USERI3
 70
     0
  9
$USERI4
 70
     0
  9
$USERI5
 70
     0
  9
$USERR1
 40
0.0
  9
$USERR2
 40
0.0
  9
$USERR3
 40
0.0
  9
$USERR4
 40
0.0
  9
$USERR5
 40
0.0
  9
$WORLDVIEW
 70
     1
  9
$SHADEDGE
 70
     3
  9
$SHADEDIF
 70
    70
  9
$TILEMODE
 70
     1
  9
$MAXACTVP
 70
    64
  9
$PINSBASE
 10
0.0
 20
0.0
 30
0.0
  9
$PLIMCHECK
 70
     0
  9
$PEXTMIN
 10
1.000000000000000E+20
 20
1.000000000000000E+20
 30
1.000000000000000E+20
  9
$PEXTMAX
 10
-1.000000000000000E+20
 20
-1.000000000000000E+20
 30
-1.000000000000000E+20
  9
$PLIMMIN
 10
0.0
 20
0.0
  9
$PLIMMAX
 10
12.0
 20
9.0
  9
$UNITMODE
 70
     0
  9
$VISRETAIN
 70
     1
  9
$PLINEGEN
 70
     0
  9
$PSLTSCALE
 70
     1
  9
$TREEDEPTH
 70
  3020
  9
$PICKSTYLE
 70
     1
  9
$CMLSTYLE
  2
STANDARD
  9
$CMLJUST
 70
     0
  9
$CMLSCALE
 40
1.0
  9
$PROXYGRAPHICS
 70
     1
  9
$MEASUREMENT
 70
     0
  0
ENDSEC
  0
SECTION
  2
CLASSES
  0
CLASS
  1
ACDBDICTIONARYWDFLT
  2
AcDbDictionaryWithDefault
  3
ObjectDBX Classes
 90
        0
280
     0
281
     0
  0
CLASS
  1
VISUALSTYLE
  2
AcDbVisualStyle
  3
ObjectDBX Classes
 90
     4095
280
     0
281
     0
  0
CLASS
  1
MATERIAL
  2
AcDbMaterial
  3
ObjectDBX Classes
 90
     1153
280
     0
281
     0
  0
CLASS
  1
DICTIONARYVAR
  2
AcDbDictionaryVar
  3
ObjectDBX Classes
 90
        0
280
     0
281
     0
  0
CLASS
  1
XRECORD
  2
AcDbXrecord
  3
AutoCAD 2000
 90
        0
280
     0
281
     0
  0
CLASS
  1
LWPOLYLINE
  2
AcDbPolyline
  3
AutoCAD 2000
 90
        0
280
     0
281
     1
  0
CLASS
  1
HATCH
  2
AcDbHatch
  3
AutoCAD 2000
 90
        0
280
     0
281
     1
  0
CLASS
  1
ACDBPLACEHOLDER
  2
AcDbPlaceHolder
  3
ObjectDBX Classes
 90
        0
280
     0
281
     0
  0
CLASS
  1
LAYOUT
  2
AcDbLayout
  3
ObjectDBX Classes
 90
        0
280
     0
281
     0
  0
ENDSEC
  0
SECTION
  2
TABLES
  0
TABLE
  2
VPORT
  5
8
330
0
100
AcDbSymbolTable
 70
     1
  0
VPORT
  5
29
330
8
100
AcDbSymbolTableRecord
100
AcDbViewportTableRecord
  2
*ACTIVE
 70
     0
 10
0.0
 20
0.0
 11
1.0
 21
1.0
 12
0.0
 22
0.0
 13
0.0
 23
0.0
 14
0.5
 24
0.5
 15
0.5
 25
0.5
 16
0.0
 26
0.0
 36
1.0
 17
0.0
 27
0.0
 37
-1000.0
 40
337.5172413509897
 41
1.914432989690722
 42
50.0
 43
2087.275676565638
 44
2939.27074426811
 50
0.0
 51
0.0
 71
     0
 72
   100
 73
     1
 74
     3
 75
     0
 76
     0
 77
     0
 78
     0
  0
ENDTAB
  0
TABLE
  2
LTYPE
  5
5
330
0
100
AcDbSymbolTable
 70
     1
  0
LTYPE
  5
14
330
5
100
AcDbSymbolTableRecord
100
AcDbLinetypeTableRecord
  2
BYBLOCK
 70
     0
  3

 72
    65
 73
     0
 40
0.0
  0
LTYPE
  5
15
330
5
100
AcDbSymbolTableRecord
100
AcDbLinetypeTableRecord
  2
BYLAYER
 70
     0
  3

 72
    65
 73
     0
 40
0.0
  0
LTYPE
  5
16
330
5
100
AcDbSymbolTableRecord
100
AcDbLinetypeTableRecord
  2
CONTINUOUS
 70
     0
  3
Solid line
 72
    65
 73
     0
 40
0.0
  0
ENDTAB
  0
TABLE
  2
LAYER
  5
2
330
0
100
AcDbSymbolTable
 70
     3
  0
LAYER
  5
10
330
2
100
AcDbSymbolTableRecord
100
AcDbLayerTableRecord
  2
0
 70
     0
 62
     7
  6
CONTINUOUS
  0
LAYER
  5
3F
330
2
100
AcDbSymbolTableRecord
100
AcDbLayerTableRecord
  2
PROFILEEDGES
 70
     0
 62
     7
  6
CONTINUOUS
  0
LAYER
  5
40
330
2
100
AcDbSymbolTableRecord
100
AcDbLayerTableRecord
  2
SECTIONCUTEDGES
 70
     0
 62
     7
  6
CONTINUOUS
  0
ENDTAB
  0
TABLE
  2
STYLE
  5
3
330
0
100
AcDbSymbolTable
 70
     1
  0
STYLE
  5
11
330
3
100
AcDbSymbolTableRecord
100
AcDbTextStyleTableRecord
  2
STANDARD
 70
     0
 40
0.0
 41
1.0
 50
0.0
 71
     0
 42
0.2
  3
txt
  4

  0
ENDTAB
  0
TABLE
  2
VIEW
  5
6
330
0
100
AcDbSymbolTable
 70
     0
  0
ENDTAB
  0
TABLE
  2
UCS
  5
7
330
0
100
AcDbSymbolTable
 70
     0
  0
ENDTAB
  0
TABLE
  2
APPID
  5
9
330
0
100
AcDbSymbolTable
 70
     1
  0
APPID
  5
12
330
9
100
AcDbSymbolTableRecord
100
AcDbRegAppTableRecord
  2
ACAD
 70
     0
  0
ENDTAB
  0
TABLE
  2
DIMSTYLE
  5
A
330
0
100
AcDbSymbolTable
 70
     1
  0
DIMSTYLE
105
27
330
A
100
AcDbSymbolTableRecord
100
AcDbDimStyleTableRecord
  2
STANDARD
 70
     0
  3

  4

  5

  6

  7

 40
1.0
 41
0.18
 42
0.0625
 43
0.38
 44
0.18
 45
0.0
 46
0.0
 47
0.0
 48
0.0
140
0.18
141
0.09
142
0.0
143
25.4
144
1.0
145
0.0
146
1.0
147
0.09
 71
     0
 72
     0
 73
     1
 74
     1
 75
     0
 76
     0
 77
     0
 78
     0
170
     0
171
     2
172
     0
173
     0
174
     0
175
     0
176
     0
177
     0
178
     0
270
     2
271
     4
272
     4
273
     2
274
     2
340
11
275
     0
280
     0
281
     0
282
     0
283
     1
284
     0
285
     0
286
     0
287
     3
288
     0
  0
ENDTAB
  0
TABLE
  2
BLOCK_RECORD
  5
1
330
0
100
AcDbSymbolTable
 70
     1
  0
BLOCK_RECORD
  5
1F
330
1
100
AcDbSymbolTableRecord
100
AcDbBlockTableRecord
  2
*MODEL_SPACE
  0
BLOCK_RECORD
  5
1B
330
1
100
AcDbSymbolTableRecord
100
AcDbBlockTableRecord
  2
*PAPER_SPACE
  0
ENDTAB
  0
ENDSEC
  0
SECTION
  2
BLOCKS
  0
BLOCK
  5
20
330
1F
100
AcDbEntity
  8
0
100
AcDbBlockBegin
  2
*MODEL_SPACE
 70
     0
 10
0.0
 20
0.0
 30
0.0
  3
*MODEL_SPACE
  1

  0
ENDBLK
  5
21
330
1F
100
AcDbEntity
  8
0
100
AcDbBlockEnd
  0
BLOCK
  5
1C
330
1B
100
AcDbEntity
 67
     1
  8
0
100
AcDbBlockBegin
  2
*PAPER_SPACE
 70
     0
 10
0.0
 20
0.0
 30
0.0
  3
*PAPER_SPACE
  1

  0
ENDBLK
  5
1D
330
1B
100
AcDbEntity
 67
     1
  8
0
100
AcDbBlockEnd
  0
ENDSEC
  0
SECTION
  2
ENTITIES
  0
LINE
  5
41
330
1F
100
AcDbEntity
  8
0
100
AcDbLine
 10
-185.7736434834047
 20
64.32895075454685
 30
0.0
 11
-185.8458315457677
 21
64.72709053946313
 31
0.0
  0
LINE
  5
42
330
1F
100
AcDbEntity
  8
0
100
AcDbLine
 10
-178.5978507152178
 20
32.96171376827565
 30
0.0
 11
-181.7326804027715
 21
35.36715319025319
 31
0.0
  0
LINE
  5
43
330
1F
100
AcDbEntity
  8
0
100
AcDbLine
 10
-150.8487628207935
 20
64.4139534651433
 30
0.0
 11
-150.9986134545504
 21
64.052182032797
 31
0.0
  0
LINE
  5
44
330
1F
100
AcDbEntity
  8
0
100
AcDbLine
 10
-150.9986134545504
 20
64.052182032797
 30
0.0
 11
-151.2369913884472
 21
63.74152186101703
 31
0.0
  0
LINE
  5
45
330
1F
100
AcDbEntity
  8
0
100
AcDbLine
 10
-151.547651560227
 20
63.50314392712043
 30
0.0
 11
-151.9094229925733
 21
63.3532932933635
 31
0.0
  0
LINE
  5
46
330
1F
100
AcDbEntity
  8
0
100
AcDbLine
 10
-171.4356600954075
 20
-41.8029297407339
 30
0.0
 11
-168.8712771433437
 21
-41.31428383892948
 31
0.0
  0
LINE
  5
47
330
1F
100
AcDbEntity
  8
0
100
AcDbLine
 10
-172.3654536618503
 20
-42.2521780520557
 30
0.0
 11
-171.4356600954075
 21
-41.8029297407339
 31
0.0
  0
LINE
  5
48
330
1F
100
AcDbEntity
  8
0
100
AcDbLine
 10
-149.4293040578144
 20
-52.29781796720253
 30
0.0
 11
-158.4299965494117
 21
-52.29781796720253
 31
0.0
  0
LINE
  5
49
330
1F
100
AcDbEntity
  8
0
100
AcDbLine
 10
-149.4293040578144
 20
-52.29781796720253
 30
0.0
 11
-149.9450608607348
 21
-56.21537982415036
 31
0.0
  0
LINE
  5
4A
330
1F
100
AcDbEntity
  8
0
100
AcDbLine
 10
-149.9450608607348
 20
-46.38025611025479
 30
0.0
 11
-149.4293040578144
 21
-50.29781796720262
 31
0.0
  0
LINE
  5
4B
330
1F
100
AcDbEntity
  8
0
100
AcDbLine
 10
-158.3953635310503
 20
-50.29781796720262
 30
0.0
 11
-149.4293040578144
 21
-50.29781796720262
 31
0.0
  0
LINE
  5
4C
330
1F
100
AcDbEntity
  8
0
100
AcDbLine
 10
-178.1653065710424
 20
-50.29781796720262
 30
0.0
 11
-178.0894702380331
 21
-49.26796896272691
 31
0.0
  0
LINE
  5
4D
330
1F
100
AcDbEntity
  8
0
100
AcDbLine
 10
-150.797651560227
 20
-35.29781796720278
 30
0.0
 11
-150.8487628207935
 21
-35.68604653485632
 31
0.0
  0
LINE
  5
4E
330
1F
100
AcDbEntity
  8
0
100
AcDbLine
 10
-184.7521342321314
 20
-60.79781796720276
 30
0.0
 11
-186.6502422597193
 21
-56.21537982415072
 31
0.0
  0
LINE
  5
4F
330
1F
100
AcDbEntity
  8
0
100
AcDbLine
 10
-186.6502422597193
 20
-56.21537982415072
 30
0.0
 11
-187.1659990626397
 21
-52.29781796720253
 31
0.0
  0
LINE
  5
50
330
1F
100
AcDbEntity
  8
0
100
AcDbLine
 10
-187.1659990626397
 20
-52.29781796720253
 30
0.0
 11
-178.1999395894038
 21
-52.29781796720253
 31
0.0
  0
LINE
  5
51
330
1F
100
AcDbEntity
  8
0
100
AcDbLine
 10
-177.7925397866958
 20
-54.43582650238329
 30
0.0
 11
-178.1999395894038
 21
-52.29781796720253
 31
0.0
  0
LINE
  5
52
330
1F
100
AcDbEntity
  8
0
100
AcDbLine
 10
-164.2125329494232
 20
-42.22218497834515
 30
0.0
 11
-159.7295032128052
 21
-34.45734970268069
 31
0.0
  0
LINE
  5
53
330
1F
100
AcDbEntity
  8
0
100
AcDbLine
 10
-166.2678025557515
 20
-41.50599928939665
 30
0.0
 11
-164.2125329494232
 21
-42.22218497834515
 31
0.0
  0
LINE
  5
54
330
1F
100
AcDbEntity
  8
0
100
AcDbLine
 10
-168.8712771433437
 20
-41.31428383892948
 30
0.0
 11
-166.2678025557515
 21
-41.50599928939665
 31
0.0
  0
LINE
  5
55
330
1F
100
AcDbEntity
  8
0
100
AcDbLine
 10
-159.9384701771519
 20
-45.80927657582662
 30
0.0
 11
-158.8027633337583
 21
-48.15980943202221
 31
0.0
  0
LINE
  5
56
330
1F
100
AcDbEntity
  8
0
100
AcDbLine
 10
-161.6438414176016
 20
-43.83277874520975
 30
0.0
 11
-159.9384701771519
 21
-45.80927657582662
 31
0.0
  0
LINE
  5
57
330
1F
100
AcDbEntity
  8
0
100
AcDbLine
 10
-179.300466529479
 20
-0.8466484472961411
 30
0.0
 11
-179.247651560227
 21
-1.247817967205114
 31
0.0
  0
LINE
  5
58
330
1F
100
AcDbEntity
  8
0
100
AcDbLine
 10
-179.247651560227
 20
-1.247817967205114
 30
0.0
 11
-179.300466529479
 21
-1.648987487113726
 31
0.0
  0
LINE
  5
59
330
1F
100
AcDbEntity
  8
0
100
AcDbLine
 10
-179.4553121843611
 20
-2.022817967204938
 30
0.0
 11
-179.7016360493879
 21
-2.343833478044001
 31
0.0
  0
LINE
  5
5A
330
1F
100
AcDbEntity
  8
0
100
AcDbLine
 10
-180.022651560227
 20
-2.59015734307097
 30
0.0
 11
-180.396482040318
 21
-2.745002997952974
 31
0.0
  0
LINE
  5
5B
330
1F
100
AcDbEntity
  8
0
100
AcDbLine
 10
-180.396482040318
 20
-2.745002997952974
 30
0.0
 11
-180.797651560227
 21
-2.797817967205122
 31
0.0
  0
LINE
  5
5C
330
1F
100
AcDbEntity
  8
0
100
AcDbLine
 10
-175.8983512994728
 20
-132.7436872494023
 30
0.0
 11
-176.2853422405529
 21
-130.6914367172981
 31
0.0
  0
LINE
  5
5D
330
1F
100
AcDbEntity
  8
0
100
AcDbLine
 10
-176.2853422405529
 20
-130.6914367172981
 30
0.0
 11
-176.1279852620517
 21
-128.6089543004898
 31
0.0
  0
LINE
  5
5E
330
1F
100
AcDbEntity
  8
0
100
AcDbLine
 10
-170.7935208424267
 20
-122.647118227957
 30
0.0
 11
-168.7412703103226
 21
-122.2601272868767
 31
0.0
  0
LINE
  5
5F
330
1F
100
AcDbEntity
  8
0
100
AcDbLine
 10
-168.7412703103226
 20
-122.2601272868767
 30
0.0
 11
-166.6587878935143
 21
-122.417484265378
 31
0.0
  0
LINE
  5
60
330
1F
100
AcDbEntity
  8
0
100
AcDbLine
 10
-179.9021769545424
 20
100.0173402168085
 30
0.0
 11
-179.6052424787205
 21
99.74246511471769
 31
0.0
  0
LINE
  5
61
330
1F
100
AcDbEntity
  8
0
100
AcDbLine
 10
-179.6052424787205
 20
99.74246511471769
 30
0.0
 11
-179.389568711254
 21
99.40010385711405
 31
0.0
  0
LINE
  5
62
330
1F
100
AcDbEntity
  8
0
100
AcDbLine
 10
-179.389568711254
 20
99.40010385711405
 30
0.0
 11
-179.2698534629781
 21
99.01358779792493
 31
0.0
  0
LINE
  5
63
330
1F
100
AcDbEntity
  8
0
100
AcDbLine
 10
-179.2698534629781
 20
99.01358779792493
 30
0.0
 11
-179.254255130224
 21
98.60925736783553
 31
0.0
  0
LINE
  5
64
330
1F
100
AcDbEntity
  8
0
100
AcDbLine
 10
-179.254255130224
 20
98.60925736783553
 30
0.0
 11
-179.3438367135915
 21
98.21466701746883
 31
0.0
  0
LINE
  5
65
330
1F
100
AcDbEntity
  8
0
100
AcDbLine
 10
-153.847651560227
 20
32.80218203279761
 30
0.0
 11
-153.794836590975
 21
33.20335155270659
 31
0.0
  0
LINE
  5
66
330
1F
100
AcDbEntity
  8
0
100
AcDbLine
 10
-153.794836590975
 20
33.20335155270659
 30
0.0
 11
-153.639990936093
 21
33.57718203279743
 31
0.0
  0
LINE
  5
67
330
1F
100
AcDbEntity
  8
0
100
AcDbLine
 10
-153.3936670710662
 20
33.89819754363686
 30
0.0
 11
-153.072651560227
 21
34.14452140866346
 31
0.0
  0
LINE
  5
68
330
1F
100
AcDbEntity
  8
0
100
AcDbLine
 10
-153.072651560227
 20
34.14452140866346
 30
0.0
 11
-152.698821080136
 21
34.29936706354583
 31
0.0
  0
LINE
  5
69
330
1F
100
AcDbEntity
  8
0
100
AcDbLine
 10
-153.7465402996607
 20
-35.68604653485632
 30
0.0
 11
-153.797651560227
 21
-35.29781796720278
 31
0.0
  0
LINE
  5
6A
330
1F
100
AcDbEntity
  8
0
100
AcDbLine
 10
-181.572651560227
 20
-102.5901573430684
 30
0.0
 11
-181.8936670710661
 21
-102.3438334780415
 31
0.0
  0
LINE
  5
6B
330
1F
100
AcDbEntity
  8
0
100
AcDbLine
 10
-181.8936670710661
 20
-102.3438334780415
 30
0.0
 11
-182.1399909360929
 21
-102.0228179672024
 31
0.0
  0
LINE
  5
6C
330
1F
100
AcDbEntity
  8
0
100
AcDbLine
 10
-182.1399909360929
 20
-102.0228179672024
 30
0.0
 11
-182.2948365909751
 21
-101.6489874871116
 31
0.0
  0
LINE
  5
6D
330
1F
100
AcDbEntity
  8
0
100
AcDbLine
 10
-151.2369913884472
 20
-34.23715779542298
 30
0.0
 11
-150.9986134545504
 21
-34.5478179672026
 31
0.0
  0
LINE
  5
6E
330
1F
100
AcDbEntity
  8
0
100
AcDbLine
 10
-150.9986134545504
 20
-34.5478179672026
 30
0.0
 11
-150.8487628207935
 21
-34.90958939954889
 31
0.0
  0
LINE
  5
6F
330
1F
100
AcDbEntity
  8
0
100
AcDbLine
 10
-150.8004665294789
 20
-66.89664844729376
 30
0.0
 11
-150.747651560227
 21
-67.29781796720273
 31
0.0
  0
LINE
  5
70
330
1F
100
AcDbEntity
  8
0
100
AcDbLine
 10
-150.8004665294789
 20
-67.69898748711134
 30
0.0
 11
-150.9553121843611
 21
-68.07281796720255
 31
0.0
  0
LINE
  5
71
330
1F
100
AcDbEntity
  8
0
100
AcDbLine
 10
-152.297651560227
 20
63.30218203279717
 30
0.0
 11
-152.6858801278809
 21
63.3532932933635
 31
0.0
  0
LINE
  5
72
330
1F
100
AcDbEntity
  8
0
100
AcDbLine
 10
-152.6858801278809
 20
63.3532932933635
 30
0.0
 11
-153.047651560227
 21
63.50314392712043
 31
0.0
  0
LINE
  5
73
330
1F
100
AcDbEntity
  8
0
100
AcDbLine
 10
-153.047651560227
 20
63.50314392712043
 30
0.0
 11
-153.3583117320068
 21
63.74152186101703
 31
0.0
  0
LINE
  5
74
330
1F
100
AcDbEntity
  8
0
100
AcDbLine
 10
-153.3583117320068
 20
63.74152186101703
 30
0.0
 11
-153.5966896659037
 21
64.052182032797
 31
0.0
  0
LINE
  5
75
330
1F
100
AcDbEntity
  8
0
100
AcDbLine
 10
-153.3936670710662
 20
-68.39383347804161
 30
0.0
 11
-153.639990936093
 21
-68.07281796720255
 31
0.0
  0
LINE
  5
76
330
1F
100
AcDbEntity
  8
0
100
AcDbLine
 10
-153.794836590975
 20
-67.69898748711134
 30
0.0
 11
-153.847651560227
 21
-67.29781796720273
 31
0.0
  0
LINE
  5
77
330
1F
100
AcDbEntity
  8
0
100
AcDbLine
 10
-153.847651560227
 20
-67.29781796720273
 30
0.0
 11
-153.794836590975
 21
-66.89664844729376
 31
0.0
  0
LINE
  5
78
330
1F
100
AcDbEntity
  8
0
100
AcDbLine
 10
-153.794836590975
 20
-66.89664844729376
 30
0.0
 11
-153.639990936093
 21
-66.52281796720254
 31
0.0
  0
LINE
  5
79
330
1F
100
AcDbEntity
  8
0
100
AcDbLine
 10
-151.2369913884472
 20
65.86284220457664
 30
0.0
 11
-150.9986134545504
 21
65.55218203279702
 31
0.0
  0
LINE
  5
7A
330
1F
100
AcDbEntity
  8
0
100
AcDbLine
 10
-150.9986134545504
 20
65.55218203279702
 30
0.0
 11
-150.8487628207935
 21
65.19041060045072
 31
0.0
  0
LINE
  5
7B
330
1F
100
AcDbEntity
  8
0
100
AcDbLine
 10
-150.8487628207935
 20
65.19041060045072
 30
0.0
 11
-150.797651560227
 21
64.80218203279684
 31
0.0
  0
LINE
  5
7C
330
1F
100
AcDbEntity
  8
0
100
AcDbLine
 10
-150.797651560227
 20
64.80218203279684
 30
0.0
 11
-150.8487628207935
 21
64.4139534651433
 31
0.0
  0
LINE
  5
7D
330
1F
100
AcDbEntity
  8
0
100
AcDbLine
 10
-184.2225600668932
 20
63.2540020472562
 30
0.0
 11
-184.6258172129858
 21
63.2873198924193
 31
0.0
  0
LINE
  5
7E
330
1F
100
AcDbEntity
  8
0
100
AcDbLine
 10
-185.8125137006046
 20
65.13034768555585
 30
0.0
 11
-185.6759605040029
 21
65.51124088473226
 31
0.0
  0
LINE
  5
7F
330
1F
100
AcDbEntity
  8
0
100
AcDbLine
 10
-169.9365152269398
 20
-138.078151669027
 30
0.0
 11
-171.907311793212
 21
-137.3871703889847
 31
0.0
  0
LINE
  5
80
330
1F
100
AcDbEntity
  8
0
100
AcDbLine
 10
-171.907311793212
 20
-137.3871703889847
 30
0.0
 11
-173.6321159798518
 21
-136.2096540397357
 31
0.0
  0
LINE
  5
81
330
1F
100
AcDbEntity
  8
0
100
AcDbLine
 10
-173.6321159798518
 20
-136.2096540397357
 30
0.0
 11
-174.9933852319135
 21
-134.6258484145435
 31
0.0
  0
LINE
  5
82
330
1F
100
AcDbEntity
  8
0
100
AcDbLine
 10
-150.9553121843611
 20
-68.07281796720255
 30
0.0
 11
-151.2016360493879
 21
-68.39383347804161
 31
0.0
  0
LINE
  5
83
330
1F
100
AcDbEntity
  8
0
100
AcDbLine
 10
-151.8964820403182
 20
-68.79500299795059
 30
0.0
 11
-152.297651560227
 21
-68.84781796720273
 31
0.0
  0
LINE
  5
84
330
1F
100
AcDbEntity
  8
0
100
AcDbLine
 10
-152.297651560227
 20
-68.84781796720273
 30
0.0
 11
-152.698821080136
 21
-68.79500299795059
 31
0.0
  0
LINE
  5
85
330
1F
100
AcDbEntity
  8
0
100
AcDbLine
 10
-152.698821080136
 20
-68.79500299795059
 30
0.0
 11
-153.072651560227
 21
-68.64015734306858
 31
0.0
  0
LINE
  5
86
330
1F
100
AcDbEntity
  8
0
100
AcDbLine
 10
-153.072651560227
 20
-68.64015734306858
 30
0.0
 11
-153.3936670710662
 21
-68.39383347804161
 31
0.0
  0
LINE
  5
87
330
1F
100
AcDbEntity
  8
0
100
AcDbLine
 10
-152.698821080136
 20
-65.8006329364545
 30
0.0
 11
-152.297651560227
 21
-65.74781796720272
 31
0.0
  0
LINE
  5
88
330
1F
100
AcDbEntity
  8
0
100
AcDbLine
 10
-185.0726515602271
 20
-68.64015734306858
 30
0.0
 11
-185.3936670710662
 21
-68.39383347804161
 31
0.0
  0
LINE
  5
89
330
1F
100
AcDbEntity
  8
0
100
AcDbLine
 10
-185.3936670710662
 20
-68.39383347804161
 30
0.0
 11
-185.639990936093
 21
-68.07281796720255
 31
0.0
  0
LINE
  5
8A
330
1F
100
AcDbEntity
  8
0
100
AcDbLine
 10
-185.8476515602271
 20
-67.29781796720273
 30
0.0
 11
-185.7948365909751
 21
-66.89664844729376
 31
0.0
  0
LINE
  5
8B
330
1F
100
AcDbEntity
  8
0
100
AcDbLine
 10
-183.4585304266214
 20
-36.60103541764447
 30
0.0
 11
-183.8244202819768
 21
-36.7738098903802
 31
0.0
  0
LINE
  5
8C
330
1F
100
AcDbEntity
  8
0
100
AcDbLine
 10
-160.832612338234
 20
-57.95162810982796
 30
0.0
 11
-162.4804821418542
 21
-59.37345095606022
 31
0.0
  0
LINE
  5
8D
330
1F
100
AcDbEntity
  8
0
100
AcDbLine
 10
-158.505832882421
 20
-53.32766697167824
 30
0.0
 11
-159.3648445940352
 21
-55.79281070409952
 31
0.0
  0
LINE
  5
8E
330
1F
100
AcDbEntity
  8
0
100
AcDbLine
 10
-187.1659990626397
 20
49.80218203279699
 30
0.0
 11
-186.6502422597193
 21
53.71974388974483
 31
0.0
  0
LINE
  5
8F
330
1F
100
AcDbEntity
  8
0
100
AcDbLine
 10
-186.6502422597193
 20
53.71974388974483
 30
0.0
 11
-184.7521342321314
 21
58.30218203279686
 31
0.0
  0
LINE
  5
90
330
1F
100
AcDbEntity
  8
0
100
AcDbLine
 10
-181.7326804027715
 20
62.23721087534125
 30
0.0
 11
-178.5978507152178
 21
64.64265029731878
 31
0.0
  0
LINE
  5
91
330
1F
100
AcDbEntity
  8
0
100
AcDbLine
 10
-174.9514617028525
 20
41.33714281080457
 30
0.0
 11
-176.6568329433021
 21
43.31364064142072
 31
0.0
  0
LINE
  5
92
330
1F
100
AcDbEntity
  8
0
100
AcDbLine
 10
-178.0894702380331
 20
-49.26796896272691
 30
0.0
 11
-177.2304585264189
 21
-46.80282523030562
 31
0.0
  0
LINE
  5
93
330
1F
100
AcDbEntity
  8
0
100
AcDbLine
 10
-178.1653065710424
 20
-50.29781796720262
 30
0.0
 11
-187.1659990626397
 21
-50.29781796720262
 31
0.0
  0
LINE
  5
94
330
1F
100
AcDbEntity
  8
0
100
AcDbLine
 10
-187.1659990626397
 20
-50.29781796720262
 30
0.0
 11
-186.6502422597193
 21
-46.38025611025479
 31
0.0
  0
LINE
  5
95
330
1F
100
AcDbEntity
  8
0
100
AcDbLine
 10
-182.1399909360929
 20
-2.022817967204938
 30
0.0
 11
-182.2948365909751
 21
-1.648987487113726
 31
0.0
  0
LINE
  5
96
330
1F
100
AcDbEntity
  8
0
100
AcDbLine
 10
-182.2948365909751
 20
-1.648987487113726
 30
0.0
 11
-182.347651560227
 21
-1.247817967205114
 31
0.0
  0
LINE
  5
97
330
1F
100
AcDbEntity
  8
0
100
AcDbLine
 10
-182.347651560227
 20
-1.247817967205114
 30
0.0
 11
-182.2948365909751
 21
-0.8466484472961411
 31
0.0
  0
LINE
  5
98
330
1F
100
AcDbEntity
  8
0
100
AcDbLine
 10
-182.2948365909751
 20
-0.8466484472961411
 30
0.0
 11
-182.1399909360929
 21
-0.4728179672049293
 31
0.0
  0
LINE
  5
99
330
1F
100
AcDbEntity
  8
0
100
AcDbLine
 10
-182.1399909360929
 20
-0.4728179672049293
 30
0.0
 11
-181.8936670710663
 21
-0.1518024563658656
 31
0.0
  0
LINE
  5
9A
330
1F
100
AcDbEntity
  8
0
100
AcDbLine
 10
-181.8936670710663
 20
-0.1518024563658656
 30
0.0
 11
-181.572651560227
 21
0.0945214086607422
 31
0.0
  0
LINE
  5
9B
330
1F
100
AcDbEntity
  8
0
100
AcDbLine
 10
-153.5966896659037
 20
64.052182032797
 30
0.0
 11
-153.7465402996607
 21
64.4139534651433
 31
0.0
  0
LINE
  5
9C
330
1F
100
AcDbEntity
  8
0
100
AcDbLine
 10
-176.8657999076488
 20
65.64265029731892
 30
0.0
 11
-173.2152134171749
 21
67.15477273228922
 31
0.0
  0
LINE
  5
9D
330
1F
100
AcDbEntity
  8
0
100
AcDbLine
 10
-173.2152134171749
 20
67.15477273228922
 30
0.0
 11
-168.2976515602271
 21
67.80218203279686
 31
0.0
  0
LINE
  5
9E
330
1F
100
AcDbEntity
  8
0
100
AcDbLine
 10
-185.639990936093
 20
-66.52281796720254
 30
0.0
 11
-185.3936670710662
 21
-66.20180245636348
 31
0.0
  0
LINE
  5
9F
330
1F
100
AcDbEntity
  8
0
100
AcDbLine
 10
-182.7476515602271
 20
32.80218203279761
 30
0.0
 11
-182.8004665294789
 21
32.40101251288863
 31
0.0
  0
LINE
  5
A0
330
1F
100
AcDbEntity
  8
0
100
AcDbLine
 10
-182.8004665294789
 20
32.40101251288863
 30
0.0
 11
-182.9553121843611
 21
32.02718203279779
 31
0.0
  0
LINE
  5
A1
330
1F
100
AcDbEntity
  8
0
100
AcDbLine
 10
-184.2225600668932
 20
-36.84599795274341
 30
0.0
 11
-184.6258172129858
 21
-36.81268010758031
 31
0.0
  0
LINE
  5
A2
330
1F
100
AcDbEntity
  8
0
100
AcDbLine
 10
-184.6258172129858
 20
-36.81268010758031
 30
0.0
 11
-185.0067104121622
 21
-36.67612691097853
 31
0.0
  0
LINE
  5
A3
330
1F
100
AcDbEntity
  8
0
100
AcDbLine
 10
-185.0067104121622
 20
-36.67612691097853
 30
0.0
 11
-185.3392824223543
 21
-36.44564423762155
 31
0.0
  0
LINE
  5
A4
330
1F
100
AcDbEntity
  8
0
100
AcDbLine
 10
-185.3392824223543
 20
-36.44564423762155
 30
0.0
 11
-185.600869010669
 21
-36.13693910080834
 31
0.0
  0
LINE
  5
A5
330
1F
100
AcDbEntity
  8
0
100
AcDbLine
 10
-185.600869010669
 20
-36.13693910080834
 30
0.0
 11
-185.7736434834047
 21
-35.77104924545313
 31
0.0
  0
LINE
  5
A6
330
1F
100
AcDbEntity
  8
0
100
AcDbLine
 10
-166.6587878935143
 20
-122.417484265378
 30
0.0
 11
-164.6879913272421
 21
-123.1084655454206
 31
0.0
  0
LINE
  5
A7
330
1F
100
AcDbEntity
  8
0
100
AcDbLine
 10
-164.6879913272421
 20
-123.1084655454206
 30
0.0
 11
-162.9631871406022
 21
-124.2859818946696
 31
0.0
  0
LINE
  5
A8
330
1F
100
AcDbEntity
  8
0
100
AcDbLine
 10
-162.9631871406022
 20
-124.2859818946696
 30
0.0
 11
-161.6019178885405
 21
-125.8697875198618
 31
0.0
  0
LINE
  5
A9
330
1F
100
AcDbEntity
  8
0
100
AcDbLine
 10
-161.6019178885405
 20
-125.8697875198618
 30
0.0
 11
-160.6969518209812
 21
-127.7519486850031
 31
0.0
  0
LINE
  5
AA
330
1F
100
AcDbEntity
  8
0
100
AcDbLine
 10
-152.698821080136
 20
34.29936706354583
 30
0.0
 11
-152.297651560227
 21
34.35218203279762
 31
0.0
  0
LINE
  5
AB
330
1F
100
AcDbEntity
  8
0
100
AcDbLine
 10
-150.8004665294789
 20
33.20335155270659
 30
0.0
 11
-150.747651560227
 21
32.80218203279761
 31
0.0
  0
LINE
  5
AC
330
1F
100
AcDbEntity
  8
0
100
AcDbLine
 10
-150.8004665294789
 20
32.40101251288863
 30
0.0
 11
-150.9553121843611
 21
32.02718203279779
 31
0.0
  0
LINE
  5
AD
330
1F
100
AcDbEntity
  8
0
100
AcDbLine
 10
-153.797651560227
 20
64.80218203279684
 30
0.0
 11
-153.7465402996607
 21
65.19041060045072
 31
0.0
  0
LINE
  5
AE
330
1F
100
AcDbEntity
  8
0
100
AcDbLine
 10
-153.5966896659037
 20
65.55218203279702
 30
0.0
 11
-153.3583117320068
 21
65.86284220457664
 31
0.0
  0
LINE
  5
AF
330
1F
100
AcDbEntity
  8
0
100
AcDbLine
 10
-181.198821080136
 20
-99.75063293645437
 30
0.0
 11
-180.797651560227
 21
-99.69781796720258
 31
0.0
  0
LINE
  5
B0
330
1F
100
AcDbEntity
  8
0
100
AcDbLine
 10
-180.797651560227
 20
-99.69781796720258
 30
0.0
 11
-180.396482040318
 21
-99.75063293645437
 31
0.0
  0
LINE
  5
B1
330
1F
100
AcDbEntity
  8
0
100
AcDbLine
 10
-180.022651560227
 20
-99.90547859133673
 30
0.0
 11
-179.7016360493879
 21
-100.1518024563633
 31
0.0
  0
LINE
  5
B2
330
1F
100
AcDbEntity
  8
0
100
AcDbLine
 10
-179.7016360493879
 20
-100.1518024563633
 30
0.0
 11
-179.4553121843611
 21
-100.4728179672024
 31
0.0
  0
LINE
  5
B3
330
1F
100
AcDbEntity
  8
0
100
AcDbLine
 10
-180.1497297359087
 20
97.344099183823
 30
0.0
 11
-180.536245795098
 21
97.2243839355471
 31
0.0
  0
LINE
  5
B4
330
1F
100
AcDbEntity
  8
0
100
AcDbLine
 10
-182.3254496574759
 20
98.490776267667
 30
0.0
 11
-182.34104799023
 21
98.8951066977564
 31
0.0
  0
LINE
  5
B5
330
1F
100
AcDbEntity
  8
0
100
AcDbLine
 10
-195.797651560227
 20
147.452182032795
 30
0.0
 11
-195.797651560227
 21
158.752182032795
 31
0.0
  0
LINE
  5
B6
330
1F
100
AcDbEntity
  8
0
100
AcDbLine
 10
-195.797651560227
 20
147.452182032795
 30
0.0
 11
-198.7976515602271
 21
147.452182032795
 31
0.0
  0
LINE
  5
B7
330
1F
100
AcDbEntity
  8
0
100
AcDbLine
 10
-198.7976515602271
 20
-149.9478179672049
 30
0.0
 11
-198.7976515602271
 21
147.452182032795
 31
0.0
  0
LINE
  5
B8
330
1F
100
AcDbEntity
  8
0
100
AcDbLine
 10
-195.7976515602272
 20
-149.9478179672049
 30
0.0
 11
-198.7976515602271
 21
-149.9478179672049
 31
0.0
  0
LINE
  5
B9
330
1F
100
AcDbEntity
  8
0
100
AcDbLine
 10
-195.7976515602272
 20
-161.2478179672026
 30
0.0
 11
-195.7976515602272
 21
-149.9478179672049
 31
0.0
  0
LINE
  5
BA
330
1F
100
AcDbEntity
  8
0
100
AcDbLine
 10
-158.4299965494117
 20
47.80218203279708
 30
0.0
 11
-158.505832882421
 21
46.77233302832137
 31
0.0
  0
LINE
  5
BB
330
1F
100
AcDbEntity
  8
0
100
AcDbLine
 10
-149.9450608607348
 20
43.88462017584925
 30
0.0
 11
-151.8431688883227
 21
39.30218203279757
 31
0.0
  0
LINE
  5
BC
330
1F
100
AcDbEntity
  8
0
100
AcDbLine
 10
-159.9384701771519
 20
54.290723424173
 30
0.0
 11
-158.8027633337583
 21
51.9401905679774
 31
0.0
  0
LINE
  5
BD
330
1F
100
AcDbEntity
  8
0
100
AcDbLine
 10
-150.747651560227
 20
32.80218203279761
 30
0.0
 11
-150.8004665294789
 21
32.40101251288863
 31
0.0
  0
LINE
  5
BE
330
1F
100
AcDbEntity
  8
0
100
AcDbLine
 10
-153.7465402996607
 20
65.19041060045072
 30
0.0
 11
-153.5966896659037
 21
65.55218203279702
 31
0.0
  0
LINE
  5
BF
330
1F
100
AcDbEntity
  8
0
100
AcDbLine
 10
-153.3583117320068
 20
65.86284220457664
 30
0.0
 11
-153.047651560227
 21
66.1012201384736
 31
0.0
  0
LINE
  5
C0
330
1F
100
AcDbEntity
  8
0
100
AcDbLine
 10
-153.047651560227
 20
66.1012201384736
 30
0.0
 11
-152.6858801278809
 21
66.25107077223052
 31
0.0
  0
LINE
  5
C1
330
1F
100
AcDbEntity
  8
0
100
AcDbLine
 10
-152.297651560227
 20
66.3021820327972
 30
0.0
 11
-151.9094229925733
 21
66.25107077223052
 31
0.0
  0
LINE
  5
C2
330
1F
100
AcDbEntity
  8
0
100
AcDbLine
 10
-151.9094229925733
 20
66.25107077223052
 30
0.0
 11
-151.547651560227
 21
66.1012201384736
 31
0.0
  0
LINE
  5
C3
330
1F
100
AcDbEntity
  8
0
100
AcDbLine
 10
-182.34104799023
 20
98.8951066977564
 30
0.0
 11
-182.2514664068625
 21
99.28969704812312
 31
0.0
  0
LINE
  5
C4
330
1F
100
AcDbEntity
  8
0
100
AcDbLine
 10
-182.2514664068625
 20
99.28969704812312
 30
0.0
 11
-182.0628097442395
 21
99.64765663848053
 31
0.0
  0
LINE
  5
C5
330
1F
100
AcDbEntity
  8
0
100
AcDbLine
 10
-182.0628097442395
 20
99.64765663848053
 30
0.0
 11
-181.7879346421489
 21
99.9445911143025
 31
0.0
  0
LINE
  5
C6
330
1F
100
AcDbEntity
  8
0
100
AcDbLine
 10
-181.7879346421489
 20
99.9445911143025
 30
0.0
 11
-181.4455733845454
 21
100.1602648817689
 31
0.0
  0
LINE
  5
C7
330
1F
100
AcDbEntity
  8
0
100
AcDbLine
 10
-181.4455733845454
 20
100.1602648817689
 30
0.0
 11
-181.059057325356
 21
100.2799801300448
 31
0.0
  0
LINE
  5
C8
330
1F
100
AcDbEntity
  8
0
100
AcDbLine
 10
-151.2369913884472
 20
63.74152186101703
 30
0.0
 11
-151.547651560227
 21
63.50314392712043
 31
0.0
  0
LINE
  5
C9
330
1F
100
AcDbEntity
  8
0
100
AcDbLine
 10
-151.9094229925733
 20
63.3532932933635
 30
0.0
 11
-152.297651560227
 21
63.30218203279717
 31
0.0
  0
LINE
  5
CA
330
1F
100
AcDbEntity
  8
0
100
AcDbLine
 10
-153.7465402996607
 20
64.4139534651433
 30
0.0
 11
-153.797651560227
 21
64.80218203279684
 31
0.0
  0
LINE
  5
CB
330
1F
100
AcDbEntity
  8
0
100
AcDbLine
 10
-172.3654536618503
 20
57.84782194794392
 30
0.0
 11
-171.4356600954075
 21
58.29707025926571
 31
0.0
  0
LINE
  5
CC
330
1F
100
AcDbEntity
  8
0
100
AcDbLine
 10
-172.3654536618503
 20
57.84782194794392
 30
0.0
 11
-176.8657999076488
 21
65.64265029731892
 31
0.0
  0
LINE
  5
CD
330
1F
100
AcDbEntity
  8
0
100
AcDbLine
 10
-163.3800897032792
 20
67.15477273228922
 30
0.0
 11
-159.7295032128052
 21
65.64265029731892
 31
0.0
  0
LINE
  5
CE
330
1F
100
AcDbEntity
  8
0
100
AcDbLine
 10
-164.2125329494232
 20
57.87781502165482
 30
0.0
 11
-159.7295032128052
 21
65.64265029731892
 31
0.0
  0
LINE
  5
CF
330
1F
100
AcDbEntity
  8
0
100
AcDbLine
 10
-166.2678025557515
 20
58.59400071060297
 30
0.0
 11
-164.2125329494232
 21
57.87781502165482
 31
0.0
  0
LINE
  5
D0
330
1F
100
AcDbEntity
  8
0
100
AcDbLine
 10
-168.8712771433437
 20
58.78571616107013
 30
0.0
 11
-166.2678025557515
 21
58.59400071060297
 31
0.0
  0
LINE
  5
D1
330
1F
100
AcDbEntity
  8
0
100
AcDbLine
 10
-171.4356600954075
 20
58.29707025926571
 30
0.0
 11
-168.8712771433437
 21
58.78571616107013
 31
0.0
  0
LINE
  5
D2
330
1F
100
AcDbEntity
  8
0
100
AcDbLine
 10
-168.7004716761259
 20
-147.5077448850543
 30
0.0
 11
-168.9958019084443
 21
-147.2311468760961
 31
0.0
  0
LINE
  5
D3
330
1F
100
AcDbEntity
  8
0
100
AcDbLine
 10
-168.9958019084443
 20
-147.2311468760961
 30
0.0
 11
-169.209480174569
 21
-146.8875366270246
 31
0.0
  0
LINE
  5
D4
330
1F
100
AcDbEntity
  8
0
100
AcDbLine
 10
-169.209480174569
 20
-146.8875366270246
 30
0.0
 11
-169.3269446537831
 21
-146.500330608471
 31
0.0
  0
LINE
  5
D5
330
1F
100
AcDbEntity
  8
0
100
AcDbLine
 10
-169.2483145497129
 20
-145.7018537825396
 30
0.0
 11
-169.0575784780784
 21
-145.3449978513032
 31
0.0
  0
LINE
  5
D6
330
1F
100
AcDbEntity
  8
0
100
AcDbLine
 10
-169.0575784780784
 20
-145.3449978513032
 30
0.0
 11
-168.7809804691201
 21
-145.049667618985
 31
0.0
  0
LINE
  5
D7
330
1F
100
AcDbEntity
  8
0
100
AcDbLine
 10
-168.7809804691201
 20
-145.049667618985
 30
0.0
 11
-168.4373702200485
 21
-144.8359893528603
 31
0.0
  0
LINE
  5
D8
330
1F
100
AcDbEntity
  8
0
100
AcDbLine
 10
-168.4373702200485
 20
-144.8359893528603
 30
0.0
 11
-168.0501642014951
 21
-144.7185248736461
 31
0.0
  0
LINE
  5
D9
330
1F
100
AcDbEntity
  8
0
100
AcDbLine
 10
-168.0501642014951
 20
-144.7185248736461
 30
0.0
 11
-167.6457498637361
 21
-144.7052791914814
 31
0.0
  0
LINE
  5
DA
330
1F
100
AcDbEntity
  8
0
100
AcDbLine
 10
-167.6457498637361
 20
-144.7052791914814
 30
0.0
 11
-167.2516873755637
 21
-144.7971549777165
 31
0.0
  0
LINE
  5
DB
330
1F
100
AcDbEntity
  8
0
100
AcDbLine
 10
-166.3858229458842
 20
-145.6080993073806
 30
0.0
 11
-166.2683584666701
 21
-145.9953053259343
 31
0.0
  0
LINE
  5
DC
330
1F
100
AcDbEntity
  8
0
100
AcDbLine
 10
-166.5377246423748
 20
-147.1506380831021
 30
0.0
 11
-166.8143226513331
 21
-147.4459683154206
 31
0.0
  0
LINE
  5
DD
330
1F
100
AcDbEntity
  8
0
100
AcDbLine
 10
-167.5451389189582
 20
-147.7771110607592
 30
0.0
 11
-167.9495532567171
 21
-147.7903567429239
 31
0.0
  0
LINE
  5
DE
330
1F
100
AcDbEntity
  8
0
100
AcDbLine
 10
-168.3436157448897
 20
-147.6984809566888
 30
0.0
 11
-168.7004716761259
 21
-147.5077448850543
 31
0.0
  0
LINE
  5
DF
330
1F
100
AcDbEntity
  8
0
100
AcDbLine
 10
-179.4553121843611
 20
-100.4728179672024
 30
0.0
 11
-179.300466529479
 21
-100.8466484472936
 31
0.0
  0
LINE
  5
E0
330
1F
100
AcDbEntity
  8
0
100
AcDbLine
 10
-179.300466529479
 20
-100.8466484472936
 30
0.0
 11
-179.247651560227
 21
-101.2478179672026
 31
0.0
  0
LINE
  5
E1
330
1F
100
AcDbEntity
  8
0
100
AcDbLine
 10
-179.4553121843611
 20
-102.0228179672024
 30
0.0
 11
-179.7016360493879
 21
-102.3438334780415
 31
0.0
  0
LINE
  5
E2
330
1F
100
AcDbEntity
  8
0
100
AcDbLine
 10
-180.022651560227
 20
-102.5901573430684
 30
0.0
 11
-180.396482040318
 21
-102.7450029979505
 31
0.0
  0
LINE
  5
E3
330
1F
100
AcDbEntity
  8
0
100
AcDbLine
 10
-180.797651560227
 20
-102.7978179672026
 30
0.0
 11
-181.198821080136
 21
-102.7450029979505
 31
0.0
  0
LINE
  5
E4
330
1F
100
AcDbEntity
  8
0
100
AcDbLine
 10
-185.7948365909751
 20
32.40101251288863
 30
0.0
 11
-185.8476515602271
 21
32.80218203279761
 31
0.0
  0
LINE
  5
E5
330
1F
100
AcDbEntity
  8
0
100
AcDbLine
 10
-184.7708828384773
 20
-33.82182604402501
 30
0.0
 11
-184.372743053561
 21
-33.7496379816618
 31
0.0
  0
LINE
  5
E6
330
1F
100
AcDbEntity
  8
0
100
AcDbLine
 10
-170.3275005647026
 20
-61.0896366450085
 30
0.0
 11
-172.3827701710311
 21
-60.37345095606035
 31
0.0
  0
LINE
  5
E7
330
1F
100
AcDbEntity
  8
0
100
AcDbLine
 10
-167.7240259771104
 20
-61.28135209547567
 30
0.0
 11
-170.3275005647026
 21
-61.0896366450085
 31
0.0
  0
LINE
  5
E8
330
1F
100
AcDbEntity
  8
0
100
AcDbLine
 10
-151.2016360493879
 20
-68.39383347804161
 30
0.0
 11
-151.522651560227
 21
-68.64015734306858
 31
0.0
  0
LINE
  5
E9
330
1F
100
AcDbEntity
  8
0
100
AcDbLine
 10
-187.1659990626397
 20
47.80218203279708
 30
0.0
 11
-178.1999395894038
 21
47.80218203279708
 31
0.0
  0
LINE
  5
EA
330
1F
100
AcDbEntity
  8
0
100
AcDbLine
 10
-183.2560206980997
 20
-34.14999169678366
 30
0.0
 11
-182.9944341097851
 21
-34.45869683359687
 31
0.0
  0
LINE
  5
EB
330
1F
100
AcDbEntity
  8
0
100
AcDbLine
 10
-182.9944341097851
 20
-34.45869683359687
 30
0.0
 11
-182.8216596370493
 21
-34.82458668895244
 31
0.0
  0
LINE
  5
EC
330
1F
100
AcDbEntity
  8
0
100
AcDbLine
 10
-150.8487628207935
 20
-35.68604653485632
 30
0.0
 11
-150.9986134545504
 21
-36.04781796720261
 31
0.0
  0
LINE
  5
ED
330
1F
100
AcDbEntity
  8
0
100
AcDbLine
 10
-185.3936670710662
 20
-66.20180245636348
 30
0.0
 11
-185.0726515602271
 21
-65.95547859133652
 31
0.0
  0
LINE
  5
EE
330
1F
100
AcDbEntity
  8
0
100
AcDbLine
 10
-185.0726515602271
 20
-65.95547859133652
 30
0.0
 11
-184.6988210801359
 21
-65.8006329364545
 31
0.0
  0
LINE
  5
EF
330
1F
100
AcDbEntity
  8
0
100
AcDbLine
 10
-184.6988210801359
 20
-65.8006329364545
 30
0.0
 11
-184.2976515602271
 21
-65.74781796720272
 31
0.0
  0
LINE
  5
F0
330
1F
100
AcDbEntity
  8
0
100
AcDbLine
 10
-163.3800897032792
 20
30.44959133330522
 30
0.0
 11
-168.2976515602271
 21
29.80218203279757
 31
0.0
  0
LINE
  5
F1
330
1F
100
AcDbEntity
  8
0
100
AcDbLine
 10
-168.2976515602271
 20
29.80218203279757
 30
0.0
 11
-173.2152134171749
 21
30.44959133330522
 31
0.0
  0
LINE
  5
F2
330
1F
100
AcDbEntity
  8
0
100
AcDbLine
 10
-154.8626227176826
 20
35.36715319025319
 30
0.0
 11
-157.9974524052363
 21
32.96171376827565
 31
0.0
  0
LINE
  5
F3
330
1F
100
AcDbEntity
  8
0
100
AcDbLine
 10
-160.832612338234
 20
42.14837189017165
 30
0.0
 11
-162.4804821418542
 21
40.72654904393976
 31
0.0
  0
LINE
  5
F4
330
1F
100
AcDbEntity
  8
0
100
AcDbLine
 10
-159.3648445940352
 20
44.30718929590009
 30
0.0
 11
-160.832612338234
 21
42.14837189017165
 31
0.0
  0
LINE
  5
F5
330
1F
100
AcDbEntity
  8
0
100
AcDbLine
 10
-158.505832882421
 20
46.77233302832137
 30
0.0
 11
-159.3648445940352
 21
44.30718929590009
 31
0.0
  0
LINE
  5
F6
330
1F
100
AcDbEntity
  8
0
100
AcDbLine
 10
-149.4293040578144
 20
47.80218203279708
 30
0.0
 11
-158.4299965494117
 21
47.80218203279708
 31
0.0
  0
LINE
  5
F7
330
1F
100
AcDbEntity
  8
0
100
AcDbLine
 10
-149.4293040578144
 20
47.80218203279708
 30
0.0
 11
-149.9450608607348
 21
43.88462017584925
 31
0.0
  0
LINE
  5
F8
330
1F
100
AcDbEntity
  8
0
100
AcDbLine
 10
-151.8431688883227
 20
39.30218203279757
 30
0.0
 11
-154.8626227176826
 21
35.36715319025319
 31
0.0
  0
LINE
  5
F9
330
1F
100
AcDbEntity
  8
0
100
AcDbLine
 10
-149.9450608607348
 20
53.71974388974483
 30
0.0
 11
-149.4293040578144
 21
49.80218203279699
 31
0.0
  0
LINE
  5
FA
330
1F
100
AcDbEntity
  8
0
100
AcDbLine
 10
-151.522651560227
 20
-68.64015734306858
 30
0.0
 11
-151.8964820403182
 21
-68.79500299795059
 31
0.0
  0
LINE
  5
FB
330
1F
100
AcDbEntity
  8
0
100
AcDbLine
 10
-168.2976515602271
 20
67.80218203279686
 30
0.0
 11
-163.3800897032792
 21
67.15477273228922
 31
0.0
  0
LINE
  5
FC
330
1F
100
AcDbEntity
  8
0
100
AcDbLine
 10
-169.3269446537831
 20
-146.500330608471
 30
0.0
 11
-169.3401903359478
 21
-146.0959162707122
 31
0.0
  0
LINE
  5
FD
330
1F
100
AcDbEntity
  8
0
100
AcDbLine
 10
-169.3401903359478
 20
-146.0959162707122
 30
0.0
 11
-169.2483145497129
 21
-145.7018537825396
 31
0.0
  0
LINE
  5
FE
330
1F
100
AcDbEntity
  8
0
100
AcDbLine
 10
-182.2948365909751
 20
-101.6489874871116
 30
0.0
 11
-182.347651560227
 21
-101.2478179672026
 31
0.0
  0
LINE
  5
FF
330
1F
100
AcDbEntity
  8
0
100
AcDbLine
 10
-182.347651560227
 20
-101.2478179672026
 30
0.0
 11
-182.2948365909751
 21
-100.8466484472936
 31
0.0
  0
LINE
  5
100
330
1F
100
AcDbEntity
  8
0
100
AcDbLine
 10
-182.2948365909751
 20
-100.8466484472936
 30
0.0
 11
-182.1399909360929
 21
-100.4728179672024
 31
0.0
  0
LINE
  5
101
330
1F
100
AcDbEntity
  8
0
100
AcDbLine
 10
-181.572651560227
 20
-99.90547859133673
 30
0.0
 11
-181.198821080136
 21
-99.75063293645437
 31
0.0
  0
LINE
  5
102
330
1F
100
AcDbEntity
  8
0
100
AcDbLine
 10
-185.6759605040029
 20
65.51124088473226
 30
0.0
 11
-185.445477830646
 21
65.84381289492437
 31
0.0
  0
LINE
  5
103
330
1F
100
AcDbEntity
  8
0
100
AcDbLine
 10
-151.522651560227
 20
31.45984265693176
 30
0.0
 11
-151.8964820403182
 21
31.30499700204939
 31
0.0
  0
LINE
  5
104
330
1F
100
AcDbEntity
  8
0
100
AcDbLine
 10
-151.8964820403182
 20
31.30499700204939
 30
0.0
 11
-152.297651560227
 21
31.2521820327976
 31
0.0
  0
LINE
  5
105
330
1F
100
AcDbEntity
  8
0
100
AcDbLine
 10
-154.8626227176826
 20
62.23721087534125
 30
0.0
 11
-151.8431688883227
 21
58.30218203279686
 31
0.0
  0
LINE
  5
106
330
1F
100
AcDbEntity
  8
0
100
AcDbLine
 10
-184.372743053561
 20
66.35036201833782
 30
0.0
 11
-183.9694859074683
 21
66.31704417317472
 31
0.0
  0
LINE
  5
107
330
1F
100
AcDbEntity
  8
0
100
AcDbLine
 10
-168.2976515602271
 20
-32.29781796720275
 30
0.0
 11
-163.3800897032792
 21
-32.9452272677104
 31
0.0
  0
LINE
  5
108
330
1F
100
AcDbEntity
  8
0
100
AcDbLine
 10
-158.4299965494117
 20
-52.29781796720253
 30
0.0
 11
-158.505832882421
 21
-53.32766697167824
 31
0.0
  0
LINE
  5
109
330
1F
100
AcDbEntity
  8
0
100
AcDbLine
 10
-174.0975044694192
 20
-59.34345788234968
 30
0.0
 11
-174.9514617028525
 21
-58.76285718919576
 31
0.0
  0
LINE
  5
10A
330
1F
100
AcDbEntity
  8
0
100
AcDbLine
 10
-157.9974524052363
 20
-35.45734970268083
 30
0.0
 11
-154.8626227176827
 21
-37.86278912465836
 31
0.0
  0
LINE
  5
10B
330
1F
100
AcDbEntity
  8
0
100
AcDbLine
 10
-185.7948365909751
 20
33.20335155270659
 30
0.0
 11
-185.639990936093
 21
33.57718203279743
 31
0.0
  0
LINE
  5
10C
330
1F
100
AcDbEntity
  8
0
100
AcDbLine
 10
-185.639990936093
 20
33.57718203279743
 30
0.0
 11
-185.3936670710662
 21
33.89819754363686
 31
0.0
  0
LINE
  5
10D
330
1F
100
AcDbEntity
  8
0
100
AcDbLine
 10
-185.3936670710662
 20
33.89819754363686
 30
0.0
 11
-185.0726515602271
 21
34.14452140866346
 31
0.0
  0
LINE
  5
10E
330
1F
100
AcDbEntity
  8
0
100
AcDbLine
 10
-185.0726515602271
 20
34.14452140866346
 30
0.0
 11
-184.6988210801359
 21
34.29936706354583
 31
0.0
  0
LINE
  5
10F
330
1F
100
AcDbEntity
  8
0
100
AcDbLine
 10
-184.6988210801359
 20
34.29936706354583
 30
0.0
 11
-184.2976515602271
 21
34.35218203279762
 31
0.0
  0
LINE
  5
110
330
1F
100
AcDbEntity
  8
0
100
AcDbLine
 10
-183.8964820403181
 20
34.29936706354583
 30
0.0
 11
-183.5226515602271
 21
34.14452140866346
 31
0.0
  0
LINE
  5
111
330
1F
100
AcDbEntity
  8
0
100
AcDbLine
 10
-185.1367726938327
 20
66.10539948323888
 30
0.0
 11
-184.7708828384773
 21
66.27817395597461
 31
0.0
  0
LINE
  5
112
330
1F
100
AcDbEntity
  8
0
100
AcDbLine
 10
-184.7708828384773
 20
66.27817395597461
 30
0.0
 11
-184.372743053561
 21
66.35036201833782
 31
0.0
  0
LINE
  5
113
330
1F
100
AcDbEntity
  8
0
100
AcDbLine
 10
-183.5226515602271
 20
31.45984265693176
 30
0.0
 11
-183.8964820403181
 21
31.30499700204939
 31
0.0
  0
LINE
  5
114
330
1F
100
AcDbEntity
  8
0
100
AcDbLine
 10
-151.547651560227
 20
-33.99877986152602
 30
0.0
 11
-151.2369913884472
 21
-34.23715779542298
 31
0.0
  0
LINE
  5
115
330
1F
100
AcDbEntity
  8
0
100
AcDbLine
 10
-159.3648445940352
 20
-55.79281070409952
 30
0.0
 11
-160.832612338234
 21
-57.95162810982796
 31
0.0
  0
LINE
  5
116
330
1F
100
AcDbEntity
  8
0
100
AcDbLine
 10
-175.7626907822201
 20
-44.64400782457719
 30
0.0
 11
-174.1148209785999
 21
-43.22218497834493
 31
0.0
  0
LINE
  5
117
330
1F
100
AcDbEntity
  8
0
100
AcDbLine
 10
-177.2304585264189
 20
-46.80282523030562
 30
0.0
 11
-175.7626907822201
 21
-44.64400782457719
 31
0.0
  0
LINE
  5
118
330
1F
100
AcDbEntity
  8
0
100
AcDbLine
 10
-184.6988210801359
 20
31.30499700204939
 30
0.0
 11
-185.0726515602271
 21
31.45984265693176
 31
0.0
  0
LINE
  5
119
330
1F
100
AcDbEntity
  8
0
100
AcDbLine
 10
-185.3936670710662
 20
31.70616652195836
 30
0.0
 11
-185.639990936093
 21
32.02718203279779
 31
0.0
  0
LINE
  5
11A
330
1F
100
AcDbEntity
  8
0
100
AcDbLine
 10
-185.639990936093
 20
32.02718203279779
 30
0.0
 11
-185.7948365909751
 21
32.40101251288863
 31
0.0
  0
LINE
  5
11B
330
1F
100
AcDbEntity
  8
0
100
AcDbLine
 10
-185.8476515602271
 20
32.80218203279761
 30
0.0
 11
-185.7948365909751
 21
33.20335155270659
 31
0.0
  0
LINE
  5
11C
330
1F
100
AcDbEntity
  8
0
100
AcDbLine
 10
-150.9553121843611
 20
32.02718203279779
 30
0.0
 11
-151.2016360493879
 21
31.70616652195836
 31
0.0
  0
LINE
  5
11D
330
1F
100
AcDbEntity
  8
0
100
AcDbLine
 10
-168.2976515602271
 20
-70.29781796720276
 30
0.0
 11
-173.2152134171749
 21
-69.65040866669476
 31
0.0
  0
LINE
  5
11E
330
1F
100
AcDbEntity
  8
0
100
AcDbLine
 10
-173.2152134171749
 20
-69.65040866669476
 30
0.0
 11
-176.865799907649
 21
-68.13828623172445
 31
0.0
  0
LINE
  5
11F
330
1F
100
AcDbEntity
  8
0
100
AcDbLine
 10
-172.3827701710311
 20
-60.37345095606035
 30
0.0
 11
-176.865799907649
 21
-68.13828623172445
 31
0.0
  0
LINE
  5
120
330
1F
100
AcDbEntity
  8
0
100
AcDbLine
 10
-182.8216596370493
 20
-34.82458668895244
 30
0.0
 11
-182.7494715746863
 21
-35.22272647386873
 31
0.0
  0
LINE
  5
121
330
1F
100
AcDbEntity
  8
0
100
AcDbLine
 10
-180.797651560227
 20
-2.797817967205122
 30
0.0
 11
-181.198821080136
 21
-2.745002997952974
 31
0.0
  0
LINE
  5
122
330
1F
100
AcDbEntity
  8
0
100
AcDbLine
 10
-146.797651560227
 20
-161.2478179672026
 30
0.0
 11
-195.7976515602272
 21
-161.2478179672026
 31
0.0
  0
LINE
  5
123
330
1F
100
AcDbEntity
  8
0
100
AcDbLine
 10
-146.797651560227
 20
158.752182032795
 30
0.0
 11
-146.797651560227
 21
-161.2478179672026
 31
0.0
  0
LINE
  5
124
330
1F
100
AcDbEntity
  8
0
100
AcDbLine
 10
-195.797651560227
 20
158.752182032795
 30
0.0
 11
-146.797651560227
 21
158.752182032795
 31
0.0
  0
LINE
  5
125
330
1F
100
AcDbEntity
  8
0
100
AcDbLine
 10
-181.7326804027715
 20
-37.86278912465836
 30
0.0
 11
-178.5978507152178
 21
-35.45734970268083
 31
0.0
  0
LINE
  5
126
330
1F
100
AcDbEntity
  8
0
100
AcDbLine
 10
-178.5978507152178
 20
-35.45734970268083
 30
0.0
 11
-174.1148209785999
 21
-43.22218497834493
 31
0.0
  0
LINE
  5
127
330
1F
100
AcDbEntity
  8
0
100
AcDbLine
 10
-186.6502422597193
 20
-46.38025611025479
 30
0.0
 11
-184.7521342321314
 21
-41.79781796720275
 31
0.0
  0
LINE
  5
128
330
1F
100
AcDbEntity
  8
0
100
AcDbLine
 10
-184.7521342321314
 20
-41.79781796720275
 30
0.0
 11
-181.7326804027715
 21
-37.86278912465836
 31
0.0
  0
LINE
  5
129
330
1F
100
AcDbEntity
  8
0
100
AcDbLine
 10
-162.497798651035
 20
-43.25217805205583
 30
0.0
 11
-161.6438414176016
 21
-43.83277874520975
 31
0.0
  0
LINE
  5
12A
330
1F
100
AcDbEntity
  8
0
100
AcDbLine
 10
-157.9974524052363
 20
-35.45734970268083
 30
0.0
 11
-162.497798651035
 21
-43.25217805205583
 31
0.0
  0
LINE
  5
12B
330
1F
100
AcDbEntity
  8
0
100
AcDbLine
 10
-154.8626227176827
 20
-37.86278912465836
 30
0.0
 11
-151.8431688883227
 21
-41.79781796720275
 31
0.0
  0
LINE
  5
12C
330
1F
100
AcDbEntity
  8
0
100
AcDbLine
 10
-151.8431688883227
 20
-41.79781796720275
 30
0.0
 11
-149.9450608607348
 21
-46.38025611025479
 31
0.0
  0
LINE
  5
12D
330
1F
100
AcDbEntity
  8
0
100
AcDbLine
 10
-158.8027633337583
 20
-48.15980943202221
 30
0.0
 11
-158.3953635310503
 21
-50.29781796720262
 31
0.0
  0
LINE
  5
12E
330
1F
100
AcDbEntity
  8
0
100
AcDbLine
 10
-172.3654536618503
 20
-42.2521780520557
 30
0.0
 11
-176.8657999076488
 21
-34.45734970268069
 31
0.0
  0
LINE
  5
12F
330
1F
100
AcDbEntity
  8
0
100
AcDbLine
 10
-176.8657999076488
 20
-34.45734970268069
 30
0.0
 11
-173.2152134171749
 21
-32.9452272677104
 31
0.0
  0
LINE
  5
130
330
1F
100
AcDbEntity
  8
0
100
AcDbLine
 10
-173.2152134171749
 20
-32.9452272677104
 30
0.0
 11
-168.2976515602271
 21
-32.29781796720275
 31
0.0
  0
LINE
  5
131
330
1F
100
AcDbEntity
  8
0
100
AcDbLine
 10
-163.3800897032792
 20
-32.9452272677104
 30
0.0
 11
-159.7295032128052
 21
-34.45734970268069
 31
0.0
  0
LINE
  5
132
330
1F
100
AcDbEntity
  8
0
100
AcDbLine
 10
-149.9450608607348
 20
-56.21537982415036
 30
0.0
 11
-151.8431688883227
 21
-60.79781796720276
 31
0.0
  0
LINE
  5
133
330
1F
100
AcDbEntity
  8
0
100
AcDbLine
 10
-151.8431688883227
 20
-60.79781796720276
 30
0.0
 11
-154.8626227176826
 21
-64.73284680974714
 31
0.0
  0
LINE
  5
134
330
1F
100
AcDbEntity
  8
0
100
AcDbLine
 10
-154.8626227176826
 20
-64.73284680974714
 30
0.0
 11
-157.9974524052363
 21
-67.13828623172468
 31
0.0
  0
LINE
  5
135
330
1F
100
AcDbEntity
  8
0
100
AcDbLine
 10
-162.4804821418542
 20
-59.37345095606022
 30
0.0
 11
-157.9974524052363
 21
-67.13828623172468
 31
0.0
  0
LINE
  5
136
330
1F
100
AcDbEntity
  8
0
100
AcDbLine
 10
-178.5978507152178
 20
-67.13828623172468
 30
0.0
 11
-174.0975044694192
 21
-59.34345788234968
 31
0.0
  0
LINE
  5
137
330
1F
100
AcDbEntity
  8
0
100
AcDbLine
 10
-178.5978507152178
 20
-67.13828623172468
 30
0.0
 11
-181.7326804027715
 21
-64.73284680974714
 31
0.0
  0
LINE
  5
138
330
1F
100
AcDbEntity
  8
0
100
AcDbLine
 10
-181.7326804027715
 20
-64.73284680974714
 30
0.0
 11
-184.7521342321314
 21
-60.79781796720276
 31
0.0
  0
LINE
  5
139
330
1F
100
AcDbEntity
  8
0
100
AcDbLine
 10
-176.6568329433021
 20
-56.78635935857889
 30
0.0
 11
-177.7925397866958
 21
-54.43582650238329
 31
0.0
  0
LINE
  5
13A
330
1F
100
AcDbEntity
  8
0
100
AcDbLine
 10
-174.9514617028525
 20
-58.76285718919576
 30
0.0
 11
-176.6568329433021
 21
-56.78635935857889
 31
0.0
  0
LINE
  5
13B
330
1F
100
AcDbEntity
  8
0
100
AcDbLine
 10
-178.5978507152178
 20
64.64265029731878
 30
0.0
 11
-174.1148209785999
 21
56.87781502165468
 31
0.0
  0
LINE
  5
13C
330
1F
100
AcDbEntity
  8
0
100
AcDbLine
 10
-175.7626907822201
 20
55.45599217542243
 30
0.0
 11
-174.1148209785999
 21
56.87781502165468
 31
0.0
  0
LINE
  5
13D
330
1F
100
AcDbEntity
  8
0
100
AcDbLine
 10
-177.2304585264189
 20
53.29717476969399
 30
0.0
 11
-175.7626907822201
 21
55.45599217542243
 31
0.0
  0
LINE
  5
13E
330
1F
100
AcDbEntity
  8
0
100
AcDbLine
 10
-178.0894702380331
 20
50.83203103727271
 30
0.0
 11
-177.2304585264189
 21
53.29717476969399
 31
0.0
  0
LINE
  5
13F
330
1F
100
AcDbEntity
  8
0
100
AcDbLine
 10
-178.1653065710424
 20
49.80218203279699
 30
0.0
 11
-178.0894702380331
 21
50.83203103727271
 31
0.0
  0
LINE
  5
140
330
1F
100
AcDbEntity
  8
0
100
AcDbLine
 10
-178.1653065710424
 20
49.80218203279699
 30
0.0
 11
-187.1659990626397
 21
49.80218203279699
 31
0.0
  0
LINE
  5
141
330
1F
100
AcDbEntity
  8
0
100
AcDbLine
 10
-184.7521342321314
 20
58.30218203279686
 30
0.0
 11
-181.7326804027715
 21
62.23721087534125
 31
0.0
  0
LINE
  5
142
330
1F
100
AcDbEntity
  8
0
100
AcDbLine
 10
-177.7925397866958
 20
45.66417349761668
 30
0.0
 11
-178.1999395894038
 21
47.80218203279708
 31
0.0
  0
LINE
  5
143
330
1F
100
AcDbEntity
  8
0
100
AcDbLine
 10
-176.6568329433021
 20
43.31364064142072
 30
0.0
 11
-177.7925397866958
 21
45.66417349761668
 31
0.0
  0
LINE
  5
144
330
1F
100
AcDbEntity
  8
0
100
AcDbLine
 10
-174.0975044694192
 20
40.75654211765065
 30
0.0
 11
-174.9514617028525
 21
41.33714281080457
 31
0.0
  0
LINE
  5
145
330
1F
100
AcDbEntity
  8
0
100
AcDbLine
 10
-178.5978507152178
 20
32.96171376827565
 30
0.0
 11
-174.0975044694192
 21
40.75654211765065
 31
0.0
  0
LINE
  5
146
330
1F
100
AcDbEntity
  8
0
100
AcDbLine
 10
-181.7326804027715
 20
35.36715319025319
 30
0.0
 11
-184.7521342321314
 21
39.30218203279757
 31
0.0
  0
LINE
  5
147
330
1F
100
AcDbEntity
  8
0
100
AcDbLine
 10
-184.7521342321314
 20
39.30218203279757
 30
0.0
 11
-186.6502422597193
 21
43.88462017584889
 31
0.0
  0
LINE
  5
148
330
1F
100
AcDbEntity
  8
0
100
AcDbLine
 10
-186.6502422597193
 20
43.88462017584889
 30
0.0
 11
-187.1659990626397
 21
47.80218203279708
 31
0.0
  0
LINE
  5
149
330
1F
100
AcDbEntity
  8
0
100
AcDbLine
 10
-173.2152134171749
 20
30.44959133330522
 30
0.0
 11
-176.865799907649
 21
31.96171376827552
 31
0.0
  0
LINE
  5
14A
330
1F
100
AcDbEntity
  8
0
100
AcDbLine
 10
-172.3827701710309
 20
39.72654904393998
 30
0.0
 11
-176.865799907649
 21
31.96171376827552
 31
0.0
  0
LINE
  5
14B
330
1F
100
AcDbEntity
  8
0
100
AcDbLine
 10
-170.3275005647026
 20
39.01036335499147
 30
0.0
 11
-172.3827701710309
 21
39.72654904393998
 31
0.0
  0
LINE
  5
14C
330
1F
100
AcDbEntity
  8
0
100
AcDbLine
 10
-167.7240259771104
 20
38.81864790452431
 30
0.0
 11
-170.3275005647026
 21
39.01036335499147
 31
0.0
  0
LINE
  5
14D
330
1F
100
AcDbEntity
  8
0
100
AcDbLine
 10
-165.1596430250466
 20
39.30729380632873
 30
0.0
 11
-167.7240259771104
 21
38.81864790452431
 31
0.0
  0
LINE
  5
14E
330
1F
100
AcDbEntity
  8
0
100
AcDbLine
 10
-164.2298494586038
 20
39.75654211765052
 30
0.0
 11
-165.1596430250466
 21
39.30729380632873
 31
0.0
  0
LINE
  5
14F
330
1F
100
AcDbEntity
  8
0
100
AcDbLine
 10
-159.7295032128052
 20
31.96171376827552
 30
0.0
 11
-164.2298494586038
 21
39.75654211765052
 31
0.0
  0
LINE
  5
150
330
1F
100
AcDbEntity
  8
0
100
AcDbLine
 10
-159.7295032128052
 20
31.96171376827552
 30
0.0
 11
-163.3800897032792
 21
30.44959133330522
 31
0.0
  0
LINE
  5
151
330
1F
100
AcDbEntity
  8
0
100
AcDbLine
 10
-162.4804821418542
 20
40.72654904393976
 30
0.0
 11
-157.9974524052363
 21
32.96171376827565
 31
0.0
  0
LINE
  5
152
330
1F
100
AcDbEntity
  8
0
100
AcDbLine
 10
-158.3953635310503
 20
49.80218203279699
 30
0.0
 11
-149.4293040578144
 21
49.80218203279699
 31
0.0
  0
LINE
  5
153
330
1F
100
AcDbEntity
  8
0
100
AcDbLine
 10
-158.8027633337583
 20
51.9401905679774
 30
0.0
 11
-158.3953635310503
 21
49.80218203279699
 31
0.0
  0
LINE
  5
154
330
1F
100
AcDbEntity
  8
0
100
AcDbLine
 10
-161.6438414176016
 20
56.26722125479023
 30
0.0
 11
-159.9384701771519
 21
54.290723424173
 31
0.0
  0
LINE
  5
155
330
1F
100
AcDbEntity
  8
0
100
AcDbLine
 10
-162.497798651035
 20
56.84782194794379
 30
0.0
 11
-161.6438414176016
 21
56.26722125479023
 31
0.0
  0
LINE
  5
156
330
1F
100
AcDbEntity
  8
0
100
AcDbLine
 10
-157.9974524052363
 20
64.64265029731878
 30
0.0
 11
-162.497798651035
 21
56.84782194794379
 31
0.0
  0
LINE
  5
157
330
1F
100
AcDbEntity
  8
0
100
AcDbLine
 10
-157.9974524052363
 20
64.64265029731878
 30
0.0
 11
-154.8626227176826
 21
62.23721087534125
 31
0.0
  0
LINE
  5
158
330
1F
100
AcDbEntity
  8
0
100
AcDbLine
 10
-151.8431688883227
 20
58.30218203279686
 30
0.0
 11
-149.9450608607348
 21
53.71974388974483
 31
0.0
  0
LINE
  5
159
330
1F
100
AcDbEntity
  8
0
100
AcDbLine
 10
-182.8004665294789
 20
-66.89664844729376
 30
0.0
 11
-182.7476515602271
 21
-67.29781796720273
 31
0.0
  0
LINE
  5
15A
330
1F
100
AcDbEntity
  8
0
100
AcDbLine
 10
-182.7476515602271
 20
-67.29781796720273
 30
0.0
 11
-182.8004665294789
 21
-67.69898748711134
 31
0.0
  0
LINE
  5
15B
330
1F
100
AcDbEntity
  8
0
100
AcDbLine
 10
-182.8004665294789
 20
-67.69898748711134
 30
0.0
 11
-182.9553121843611
 21
-68.07281796720255
 31
0.0
  0
LINE
  5
15C
330
1F
100
AcDbEntity
  8
0
100
AcDbLine
 10
-182.9553121843611
 20
-68.07281796720255
 30
0.0
 11
-183.2016360493879
 21
-68.39383347804161
 31
0.0
  0
LINE
  5
15D
330
1F
100
AcDbEntity
  8
0
100
AcDbLine
 10
-183.2016360493879
 20
-68.39383347804161
 30
0.0
 11
-183.5226515602271
 21
-68.64015734306858
 31
0.0
  0
LINE
  5
15E
330
1F
100
AcDbEntity
  8
0
100
AcDbLine
 10
-183.5226515602271
 20
-68.64015734306858
 30
0.0
 11
-183.8964820403181
 21
-68.79500299795059
 31
0.0
  0
LINE
  5
15F
330
1F
100
AcDbEntity
  8
0
100
AcDbLine
 10
-183.8964820403181
 20
-68.79500299795059
 30
0.0
 11
-184.2976515602271
 21
-68.84781796720273
 31
0.0
  0
LINE
  5
160
330
1F
100
AcDbEntity
  8
0
100
AcDbLine
 10
-184.2976515602271
 20
-68.84781796720273
 30
0.0
 11
-184.6988210801359
 21
-68.79500299795059
 31
0.0
  0
LINE
  5
161
330
1F
100
AcDbEntity
  8
0
100
AcDbLine
 10
-184.6988210801359
 20
-68.79500299795059
 30
0.0
 11
-185.0726515602271
 21
-68.64015734306858
 31
0.0
  0
LINE
  5
162
330
1F
100
AcDbEntity
  8
0
100
AcDbLine
 10
-185.639990936093
 20
-68.07281796720255
 30
0.0
 11
-185.7948365909751
 21
-67.69898748711134
 31
0.0
  0
LINE
  5
163
330
1F
100
AcDbEntity
  8
0
100
AcDbLine
 10
-185.7948365909751
 20
-67.69898748711134
 30
0.0
 11
-185.8476515602271
 21
-67.29781796720273
 31
0.0
  0
LINE
  5
164
330
1F
100
AcDbEntity
  8
0
100
AcDbLine
 10
-185.7948365909751
 20
-66.89664844729376
 30
0.0
 11
-185.639990936093
 21
-66.52281796720254
 31
0.0
  0
LINE
  5
165
330
1F
100
AcDbEntity
  8
0
100
AcDbLine
 10
-184.2976515602271
 20
-65.74781796720272
 30
0.0
 11
-183.8964820403181
 21
-65.8006329364545
 31
0.0
  0
LINE
  5
166
330
1F
100
AcDbEntity
  8
0
100
AcDbLine
 10
-183.8964820403181
 20
-65.8006329364545
 30
0.0
 11
-183.5226515602271
 21
-65.95547859133652
 31
0.0
  0
LINE
  5
167
330
1F
100
AcDbEntity
  8
0
100
AcDbLine
 10
-183.5226515602271
 20
-65.95547859133652
 30
0.0
 11
-183.2016360493879
 21
-66.20180245636348
 31
0.0
  0
LINE
  5
168
330
1F
100
AcDbEntity
  8
0
100
AcDbLine
 10
-183.2016360493879
 20
-66.20180245636348
 30
0.0
 11
-182.9553121843611
 21
-66.52281796720254
 31
0.0
  0
LINE
  5
169
330
1F
100
AcDbEntity
  8
0
100
AcDbLine
 10
-182.9553121843611
 20
-66.52281796720254
 30
0.0
 11
-182.8004665294789
 21
-66.89664844729376
 31
0.0
  0
LINE
  5
16A
330
1F
100
AcDbEntity
  8
0
100
AcDbLine
 10
-182.7494715746863
 20
-35.22272647386873
 30
0.0
 11
-182.7827894198494
 21
-35.62598361996144
 31
0.0
  0
LINE
  5
16B
330
1F
100
AcDbEntity
  8
0
100
AcDbLine
 10
-182.7827894198494
 20
-35.62598361996144
 30
0.0
 11
-182.9193426164512
 21
-36.00687681913786
 31
0.0
  0
LINE
  5
16C
330
1F
100
AcDbEntity
  8
0
100
AcDbLine
 10
-182.9193426164512
 20
-36.00687681913786
 30
0.0
 11
-183.1498252898081
 21
-36.33944882932997
 31
0.0
  0
LINE
  5
16D
330
1F
100
AcDbEntity
  8
0
100
AcDbLine
 10
-183.1498252898081
 20
-36.33944882932997
 30
0.0
 11
-183.4585304266214
 21
-36.60103541764447
 31
0.0
  0
LINE
  5
16E
330
1F
100
AcDbEntity
  8
0
100
AcDbLine
 10
-183.8244202819768
 20
-36.7738098903802
 30
0.0
 11
-184.2225600668932
 21
-36.84599795274341
 31
0.0
  0
LINE
  5
16F
330
1F
100
AcDbEntity
  8
0
100
AcDbLine
 10
-185.7736434834047
 20
-35.77104924545313
 30
0.0
 11
-185.8458315457677
 21
-35.37290946053648
 31
0.0
  0
LINE
  5
170
330
1F
100
AcDbEntity
  8
0
100
AcDbLine
 10
-185.8458315457677
 20
-35.37290946053648
 30
0.0
 11
-185.8125137006046
 21
-34.96965231444413
 31
0.0
  0
LINE
  5
171
330
1F
100
AcDbEntity
  8
0
100
AcDbLine
 10
-185.8125137006046
 20
-34.96965231444413
 30
0.0
 11
-185.6759605040029
 21
-34.58875911526735
 31
0.0
  0
LINE
  5
172
330
1F
100
AcDbEntity
  8
0
100
AcDbLine
 10
-185.6759605040029
 20
-34.58875911526735
 30
0.0
 11
-185.445477830646
 21
-34.25618710507524
 31
0.0
  0
LINE
  5
173
330
1F
100
AcDbEntity
  8
0
100
AcDbLine
 10
-185.445477830646
 20
-34.25618710507524
 30
0.0
 11
-185.1367726938327
 21
-33.99460051676073
 31
0.0
  0
LINE
  5
174
330
1F
100
AcDbEntity
  8
0
100
AcDbLine
 10
-185.1367726938327
 20
-33.99460051676073
 30
0.0
 11
-184.7708828384773
 21
-33.82182604402501
 31
0.0
  0
LINE
  5
175
330
1F
100
AcDbEntity
  8
0
100
AcDbLine
 10
-184.372743053561
 20
-33.7496379816618
 30
0.0
 11
-183.9694859074683
 21
-33.7829558268249
 31
0.0
  0
LINE
  5
176
330
1F
100
AcDbEntity
  8
0
100
AcDbLine
 10
-183.9694859074683
 20
-33.7829558268249
 30
0.0
 11
-183.5885927082919
 21
-33.91950902342668
 31
0.0
  0
LINE
  5
177
330
1F
100
AcDbEntity
  8
0
100
AcDbLine
 10
-183.5885927082919
 20
-33.91950902342668
 30
0.0
 11
-183.2560206980997
 21
-34.14999169678366
 31
0.0
  0
LINE
  5
178
330
1F
100
AcDbEntity
  8
0
100
AcDbLine
 10
-150.8487628207935
 20
-34.90958939954889
 30
0.0
 11
-150.797651560227
 21
-35.29781796720278
 31
0.0
  0
LINE
  5
179
330
1F
100
AcDbEntity
  8
0
100
AcDbLine
 10
-150.9986134545504
 20
-36.04781796720261
 30
0.0
 11
-151.2369913884472
 21
-36.35847813898258
 31
0.0
  0
LINE
  5
17A
330
1F
100
AcDbEntity
  8
0
100
AcDbLine
 10
-151.2369913884472
 20
-36.35847813898258
 30
0.0
 11
-151.547651560227
 21
-36.59685607287918
 31
0.0
  0
LINE
  5
17B
330
1F
100
AcDbEntity
  8
0
100
AcDbLine
 10
-151.547651560227
 20
-36.59685607287918
 30
0.0
 11
-151.9094229925733
 21
-36.74670670663612
 31
0.0
  0
LINE
  5
17C
330
1F
100
AcDbEntity
  8
0
100
AcDbLine
 10
-151.9094229925733
 20
-36.74670670663612
 30
0.0
 11
-152.297651560227
 21
-36.7978179672028
 31
0.0
  0
LINE
  5
17D
330
1F
100
AcDbEntity
  8
0
100
AcDbLine
 10
-152.297651560227
 20
-36.7978179672028
 30
0.0
 11
-152.6858801278809
 21
-36.74670670663612
 31
0.0
  0
LINE
  5
17E
330
1F
100
AcDbEntity
  8
0
100
AcDbLine
 10
-152.6858801278809
 20
-36.74670670663612
 30
0.0
 11
-153.047651560227
 21
-36.59685607287918
 31
0.0
  0
LINE
  5
17F
330
1F
100
AcDbEntity
  8
0
100
AcDbLine
 10
-153.047651560227
 20
-36.59685607287918
 30
0.0
 11
-153.358311732007
 21
-36.35847813898258
 31
0.0
  0
LINE
  5
180
330
1F
100
AcDbEntity
  8
0
100
AcDbLine
 10
-153.358311732007
 20
-36.35847813898258
 30
0.0
 11
-153.5966896659037
 21
-36.04781796720261
 31
0.0
  0
LINE
  5
181
330
1F
100
AcDbEntity
  8
0
100
AcDbLine
 10
-153.5966896659037
 20
-36.04781796720261
 30
0.0
 11
-153.7465402996607
 21
-35.68604653485632
 31
0.0
  0
LINE
  5
182
330
1F
100
AcDbEntity
  8
0
100
AcDbLine
 10
-153.797651560227
 20
-35.29781796720278
 30
0.0
 11
-153.7465402996607
 21
-34.90958939954889
 31
0.0
  0
LINE
  5
183
330
1F
100
AcDbEntity
  8
0
100
AcDbLine
 10
-153.7465402996607
 20
-34.90958939954889
 30
0.0
 11
-153.5966896659037
 21
-34.5478179672026
 31
0.0
  0
LINE
  5
184
330
1F
100
AcDbEntity
  8
0
100
AcDbLine
 10
-153.5966896659037
 20
-34.5478179672026
 30
0.0
 11
-153.3583117320068
 21
-34.23715779542298
 31
0.0
  0
LINE
  5
185
330
1F
100
AcDbEntity
  8
0
100
AcDbLine
 10
-153.3583117320068
 20
-34.23715779542298
 30
0.0
 11
-153.047651560227
 21
-33.99877986152602
 31
0.0
  0
LINE
  5
186
330
1F
100
AcDbEntity
  8
0
100
AcDbLine
 10
-153.047651560227
 20
-33.99877986152602
 30
0.0
 11
-152.6858801278809
 21
-33.84892922776909
 31
0.0
  0
LINE
  5
187
330
1F
100
AcDbEntity
  8
0
100
AcDbLine
 10
-152.6858801278809
 20
-33.84892922776909
 30
0.0
 11
-152.297651560227
 21
-33.79781796720277
 31
0.0
  0
LINE
  5
188
330
1F
100
AcDbEntity
  8
0
100
AcDbLine
 10
-152.297651560227
 20
-33.79781796720277
 30
0.0
 11
-151.9094229925733
 21
-33.84892922776909
 31
0.0
  0
LINE
  5
189
330
1F
100
AcDbEntity
  8
0
100
AcDbLine
 10
-151.9094229925733
 20
-33.84892922776909
 30
0.0
 11
-151.547651560227
 21
-33.99877986152602
 31
0.0
  0
LINE
  5
18A
330
1F
100
AcDbEntity
  8
0
100
AcDbLine
 10
-150.747651560227
 20
-67.29781796720273
 30
0.0
 11
-150.8004665294789
 21
-67.69898748711134
 31
0.0
  0
LINE
  5
18B
330
1F
100
AcDbEntity
  8
0
100
AcDbLine
 10
-153.639990936093
 20
-68.07281796720255
 30
0.0
 11
-153.794836590975
 21
-67.69898748711134
 31
0.0
  0
LINE
  5
18C
330
1F
100
AcDbEntity
  8
0
100
AcDbLine
 10
-153.639990936093
 20
-66.52281796720254
 30
0.0
 11
-153.3936670710662
 21
-66.20180245636348
 31
0.0
  0
LINE
  5
18D
330
1F
100
AcDbEntity
  8
0
100
AcDbLine
 10
-153.3936670710662
 20
-66.20180245636348
 30
0.0
 11
-153.072651560227
 21
-65.95547859133652
 31
0.0
  0
LINE
  5
18E
330
1F
100
AcDbEntity
  8
0
100
AcDbLine
 10
-153.072651560227
 20
-65.95547859133652
 30
0.0
 11
-152.698821080136
 21
-65.8006329364545
 31
0.0
  0
LINE
  5
18F
330
1F
100
AcDbEntity
  8
0
100
AcDbLine
 10
-152.297651560227
 20
-65.74781796720272
 30
0.0
 11
-151.8964820403182
 21
-65.8006329364545
 31
0.0
  0
LINE
  5
190
330
1F
100
AcDbEntity
  8
0
100
AcDbLine
 10
-151.8964820403182
 20
-65.8006329364545
 30
0.0
 11
-151.522651560227
 21
-65.95547859133652
 31
0.0
  0
LINE
  5
191
330
1F
100
AcDbEntity
  8
0
100
AcDbLine
 10
-151.522651560227
 20
-65.95547859133652
 30
0.0
 11
-151.2016360493879
 21
-66.20180245636348
 31
0.0
  0
LINE
  5
192
330
1F
100
AcDbEntity
  8
0
100
AcDbLine
 10
-151.2016360493879
 20
-66.20180245636348
 30
0.0
 11
-150.9553121843611
 21
-66.52281796720254
 31
0.0
  0
LINE
  5
193
330
1F
100
AcDbEntity
  8
0
100
AcDbLine
 10
-150.9553121843611
 20
-66.52281796720254
 30
0.0
 11
-150.8004665294789
 21
-66.89664844729376
 31
0.0
  0
LINE
  5
194
330
1F
100
AcDbEntity
  8
0
100
AcDbLine
 10
-159.7295032128052
 20
-68.13828623172445
 30
0.0
 11
-164.2298494586038
 21
-60.34345788234945
 31
0.0
  0
LINE
  5
195
330
1F
100
AcDbEntity
  8
0
100
AcDbLine
 10
-159.7295032128052
 20
-68.13828623172445
 30
0.0
 11
-163.3800897032792
 21
-69.65040866669476
 31
0.0
  0
LINE
  5
196
330
1F
100
AcDbEntity
  8
0
100
AcDbLine
 10
-163.3800897032792
 20
-69.65040866669476
 30
0.0
 11
-168.2976515602271
 21
-70.29781796720276
 31
0.0
  0
LINE
  5
197
330
1F
100
AcDbEntity
  8
0
100
AcDbLine
 10
-165.1596430250466
 20
-60.79270619367125
 30
0.0
 11
-167.7240259771104
 21
-61.28135209547567
 31
0.0
  0
LINE
  5
198
330
1F
100
AcDbEntity
  8
0
100
AcDbLine
 10
-164.2298494586038
 20
-60.34345788234945
 30
0.0
 11
-165.1596430250466
 21
-60.79270619367125
 31
0.0
  0
LINE
  5
199
330
1F
100
AcDbEntity
  8
0
100
AcDbLine
 10
-185.445477830646
 20
65.84381289492437
 30
0.0
 11
-185.1367726938327
 21
66.10539948323888
 31
0.0
  0
LINE
  5
19A
330
1F
100
AcDbEntity
  8
0
100
AcDbLine
 10
-183.9694859074683
 20
66.31704417317472
 30
0.0
 11
-183.5885927082919
 21
66.18049097657294
 31
0.0
  0
LINE
  5
19B
330
1F
100
AcDbEntity
  8
0
100
AcDbLine
 10
-183.5885927082919
 20
66.18049097657294
 30
0.0
 11
-183.2560206980997
 21
65.95000830321595
 31
0.0
  0
LINE
  5
19C
330
1F
100
AcDbEntity
  8
0
100
AcDbLine
 10
-183.2560206980997
 20
65.95000830321595
 30
0.0
 11
-182.9944341097851
 21
65.64130316640275
 31
0.0
  0
LINE
  5
19D
330
1F
100
AcDbEntity
  8
0
100
AcDbLine
 10
-182.9944341097851
 20
65.64130316640275
 30
0.0
 11
-182.8216596370493
 21
65.27541331104717
 31
0.0
  0
LINE
  5
19E
330
1F
100
AcDbEntity
  8
0
100
AcDbLine
 10
-182.8216596370493
 20
65.27541331104717
 30
0.0
 11
-182.7494715746863
 21
64.87727352613089
 31
0.0
  0
LINE
  5
19F
330
1F
100
AcDbEntity
  8
0
100
AcDbLine
 10
-182.7494715746863
 20
64.87727352613089
 30
0.0
 11
-182.7827894198494
 21
64.47401638003818
 31
0.0
  0
LINE
  5
1A0
330
1F
100
AcDbEntity
  8
0
100
AcDbLine
 10
-182.7827894198494
 20
64.47401638003818
 30
0.0
 11
-182.9193426164512
 21
64.09312318086212
 31
0.0
  0
LINE
  5
1A1
330
1F
100
AcDbEntity
  8
0
100
AcDbLine
 10
-182.9193426164512
 20
64.09312318086212
 30
0.0
 11
-183.1498252898081
 21
63.76055117066964
 31
0.0
  0
LINE
  5
1A2
330
1F
100
AcDbEntity
  8
0
100
AcDbLine
 10
-183.1498252898081
 20
63.76055117066964
 30
0.0
 11
-183.4585304266214
 21
63.49896458235514
 31
0.0
  0
LINE
  5
1A3
330
1F
100
AcDbEntity
  8
0
100
AcDbLine
 10
-183.4585304266214
 20
63.49896458235514
 30
0.0
 11
-183.8244202819768
 21
63.32619010961942
 31
0.0
  0
LINE
  5
1A4
330
1F
100
AcDbEntity
  8
0
100
AcDbLine
 10
-183.8244202819768
 20
63.32619010961942
 30
0.0
 11
-184.2225600668932
 21
63.2540020472562
 31
0.0
  0
LINE
  5
1A5
330
1F
100
AcDbEntity
  8
0
100
AcDbLine
 10
-184.6258172129858
 20
63.2873198924193
 30
0.0
 11
-185.0067104121622
 21
63.42387308902108
 31
0.0
  0
LINE
  5
1A6
330
1F
100
AcDbEntity
  8
0
100
AcDbLine
 10
-185.0067104121622
 20
63.42387308902108
 30
0.0
 11
-185.3392824223543
 21
63.65435576237807
 31
0.0
  0
LINE
  5
1A7
330
1F
100
AcDbEntity
  8
0
100
AcDbLine
 10
-185.3392824223543
 20
63.65435576237807
 30
0.0
 11
-185.600869010669
 21
63.96306089919164
 31
0.0
  0
LINE
  5
1A8
330
1F
100
AcDbEntity
  8
0
100
AcDbLine
 10
-185.600869010669
 20
63.96306089919164
 30
0.0
 11
-185.7736434834047
 21
64.32895075454685
 31
0.0
  0
LINE
  5
1A9
330
1F
100
AcDbEntity
  8
0
100
AcDbLine
 10
-185.8458315457677
 20
64.72709053946313
 30
0.0
 11
-185.8125137006046
 21
65.13034768555585
 31
0.0
  0
LINE
  5
1AA
330
1F
100
AcDbEntity
  8
0
100
AcDbLine
 10
-184.2976515602271
 20
34.35218203279762
 30
0.0
 11
-183.8964820403181
 21
34.29936706354583
 31
0.0
  0
LINE
  5
1AB
330
1F
100
AcDbEntity
  8
0
100
AcDbLine
 10
-183.5226515602271
 20
34.14452140866346
 30
0.0
 11
-183.2016360493879
 21
33.89819754363686
 31
0.0
  0
LINE
  5
1AC
330
1F
100
AcDbEntity
  8
0
100
AcDbLine
 10
-183.2016360493879
 20
33.89819754363686
 30
0.0
 11
-182.9553121843611
 21
33.57718203279743
 31
0.0
  0
LINE
  5
1AD
330
1F
100
AcDbEntity
  8
0
100
AcDbLine
 10
-182.9553121843611
 20
33.57718203279743
 30
0.0
 11
-182.8004665294789
 21
33.20335155270659
 31
0.0
  0
LINE
  5
1AE
330
1F
100
AcDbEntity
  8
0
100
AcDbLine
 10
-182.8004665294789
 20
33.20335155270659
 30
0.0
 11
-182.7476515602271
 21
32.80218203279761
 31
0.0
  0
LINE
  5
1AF
330
1F
100
AcDbEntity
  8
0
100
AcDbLine
 10
-182.9553121843611
 20
32.02718203279779
 30
0.0
 11
-183.2016360493879
 21
31.70616652195836
 31
0.0
  0
LINE
  5
1B0
330
1F
100
AcDbEntity
  8
0
100
AcDbLine
 10
-183.2016360493879
 20
31.70616652195836
 30
0.0
 11
-183.5226515602271
 21
31.45984265693176
 31
0.0
  0
LINE
  5
1B1
330
1F
100
AcDbEntity
  8
0
100
AcDbLine
 10
-183.8964820403181
 20
31.30499700204939
 30
0.0
 11
-184.2976515602271
 21
31.2521820327976
 31
0.0
  0
LINE
  5
1B2
330
1F
100
AcDbEntity
  8
0
100
AcDbLine
 10
-184.2976515602271
 20
31.2521820327976
 30
0.0
 11
-184.6988210801359
 21
31.30499700204939
 31
0.0
  0
LINE
  5
1B3
330
1F
100
AcDbEntity
  8
0
100
AcDbLine
 10
-185.0726515602271
 20
31.45984265693176
 30
0.0
 11
-185.3936670710662
 21
31.70616652195836
 31
0.0
  0
LINE
  5
1B4
330
1F
100
AcDbEntity
  8
0
100
AcDbLine
 10
-151.2016360493879
 20
31.70616652195836
 30
0.0
 11
-151.522651560227
 21
31.45984265693176
 31
0.0
  0
LINE
  5
1B5
330
1F
100
AcDbEntity
  8
0
100
AcDbLine
 10
-152.297651560227
 20
31.2521820327976
 30
0.0
 11
-152.698821080136
 21
31.30499700204939
 31
0.0
  0
LINE
  5
1B6
330
1F
100
AcDbEntity
  8
0
100
AcDbLine
 10
-152.698821080136
 20
31.30499700204939
 30
0.0
 11
-153.072651560227
 21
31.45984265693176
 31
0.0
  0
LINE
  5
1B7
330
1F
100
AcDbEntity
  8
0
100
AcDbLine
 10
-153.072651560227
 20
31.45984265693176
 30
0.0
 11
-153.3936670710662
 21
31.70616652195836
 31
0.0
  0
LINE
  5
1B8
330
1F
100
AcDbEntity
  8
0
100
AcDbLine
 10
-153.3936670710662
 20
31.70616652195836
 30
0.0
 11
-153.6399909360928
 21
32.02718203279779
 31
0.0
  0
LINE
  5
1B9
330
1F
100
AcDbEntity
  8
0
100
AcDbLine
 10
-153.6399909360928
 20
32.02718203279779
 30
0.0
 11
-153.794836590975
 21
32.40101251288863
 31
0.0
  0
LINE
  5
1BA
330
1F
100
AcDbEntity
  8
0
100
AcDbLine
 10
-153.794836590975
 20
32.40101251288863
 30
0.0
 11
-153.847651560227
 21
32.80218203279761
 31
0.0
  0
LINE
  5
1BB
330
1F
100
AcDbEntity
  8
0
100
AcDbLine
 10
-153.639990936093
 20
33.57718203279743
 30
0.0
 11
-153.3936670710662
 21
33.89819754363686
 31
0.0
  0
LINE
  5
1BC
330
1F
100
AcDbEntity
  8
0
100
AcDbLine
 10
-152.297651560227
 20
34.35218203279762
 30
0.0
 11
-151.8964820403182
 21
34.29936706354583
 31
0.0
  0
LINE
  5
1BD
330
1F
100
AcDbEntity
  8
0
100
AcDbLine
 10
-151.8964820403182
 20
34.29936706354583
 30
0.0
 11
-151.522651560227
 21
34.14452140866346
 31
0.0
  0
LINE
  5
1BE
330
1F
100
AcDbEntity
  8
0
100
AcDbLine
 10
-151.522651560227
 20
34.14452140866346
 30
0.0
 11
-151.2016360493879
 21
33.89819754363686
 31
0.0
  0
LINE
  5
1BF
330
1F
100
AcDbEntity
  8
0
100
AcDbLine
 10
-151.2016360493879
 20
33.89819754363686
 30
0.0
 11
-150.9553121843611
 21
33.57718203279743
 31
0.0
  0
LINE
  5
1C0
330
1F
100
AcDbEntity
  8
0
100
AcDbLine
 10
-150.9553121843611
 20
33.57718203279743
 30
0.0
 11
-150.8004665294789
 21
33.20335155270659
 31
0.0
  0
LINE
  5
1C1
330
1F
100
AcDbEntity
  8
0
100
AcDbLine
 10
-152.6858801278809
 20
66.25107077223052
 30
0.0
 11
-152.297651560227
 21
66.3021820327972
 31
0.0
  0
LINE
  5
1C2
330
1F
100
AcDbEntity
  8
0
100
AcDbLine
 10
-151.547651560227
 20
66.1012201384736
 30
0.0
 11
-151.2369913884472
 21
65.86284220457664
 31
0.0
  0
LINE
  5
1C3
330
1F
100
AcDbEntity
  8
0
100
AcDbLine
 10
-167.2516873755637
 20
-144.7971549777165
 30
0.0
 11
-166.8948314443273
 21
-144.9878910493509
 31
0.0
  0
LINE
  5
1C4
330
1F
100
AcDbEntity
  8
0
100
AcDbLine
 10
-166.8948314443273
 20
-144.9878910493509
 30
0.0
 11
-166.5995012120089
 21
-145.2644890583092
 31
0.0
  0
LINE
  5
1C5
330
1F
100
AcDbEntity
  8
0
100
AcDbLine
 10
-166.5995012120089
 20
-145.2644890583092
 30
0.0
 11
-166.3858229458842
 21
-145.6080993073806
 31
0.0
  0
LINE
  5
1C6
330
1F
100
AcDbEntity
  8
0
100
AcDbLine
 10
-166.2683584666701
 20
-145.9953053259343
 30
0.0
 11
-166.2551127845055
 21
-146.399719663693
 31
0.0
  0
LINE
  5
1C7
330
1F
100
AcDbEntity
  8
0
100
AcDbLine
 10
-166.2551127845055
 20
-146.399719663693
 30
0.0
 11
-166.3469885707404
 21
-146.7937821518656
 31
0.0
  0
LINE
  5
1C8
330
1F
100
AcDbEntity
  8
0
100
AcDbLine
 10
-166.3469885707404
 20
-146.7937821518656
 30
0.0
 11
-166.5377246423748
 21
-147.1506380831021
 31
0.0
  0
LINE
  5
1C9
330
1F
100
AcDbEntity
  8
0
100
AcDbLine
 10
-166.8143226513331
 20
-147.4459683154206
 30
0.0
 11
-167.1579329004047
 21
-147.6596465815449
 31
0.0
  0
LINE
  5
1CA
330
1F
100
AcDbEntity
  8
0
100
AcDbLine
 10
-167.1579329004047
 20
-147.6596465815449
 30
0.0
 11
-167.5451389189582
 21
-147.7771110607592
 31
0.0
  0
LINE
  5
1CB
330
1F
100
AcDbEntity
  8
0
100
AcDbLine
 10
-167.9495532567171
 20
-147.7903567429239
 30
0.0
 11
-168.3436157448897
 21
-147.6984809566888
 31
0.0
  0
LINE
  5
1CC
330
1F
100
AcDbEntity
  8
0
100
AcDbLine
 10
-179.247651560227
 20
-101.2478179672026
 30
0.0
 11
-179.300466529479
 21
-101.6489874871116
 31
0.0
  0
LINE
  5
1CD
330
1F
100
AcDbEntity
  8
0
100
AcDbLine
 10
-179.300466529479
 20
-101.6489874871116
 30
0.0
 11
-179.4553121843611
 21
-102.0228179672024
 31
0.0
  0
LINE
  5
1CE
330
1F
100
AcDbEntity
  8
0
100
AcDbLine
 10
-179.7016360493879
 20
-102.3438334780415
 30
0.0
 11
-180.022651560227
 21
-102.5901573430684
 31
0.0
  0
LINE
  5
1CF
330
1F
100
AcDbEntity
  8
0
100
AcDbLine
 10
-180.396482040318
 20
-102.7450029979505
 30
0.0
 11
-180.797651560227
 21
-102.7978179672026
 31
0.0
  0
LINE
  5
1D0
330
1F
100
AcDbEntity
  8
0
100
AcDbLine
 10
-181.198821080136
 20
-102.7450029979505
 30
0.0
 11
-181.572651560227
 21
-102.5901573430684
 31
0.0
  0
LINE
  5
1D1
330
1F
100
AcDbEntity
  8
0
100
AcDbLine
 10
-182.1399909360929
 20
-100.4728179672024
 30
0.0
 11
-181.8936670710661
 21
-100.1518024563633
 31
0.0
  0
LINE
  5
1D2
330
1F
100
AcDbEntity
  8
0
100
AcDbLine
 10
-181.8936670710661
 20
-100.1518024563633
 30
0.0
 11
-181.572651560227
 21
-99.90547859133673
 31
0.0
  0
LINE
  5
1D3
330
1F
100
AcDbEntity
  8
0
100
AcDbLine
 10
-180.396482040318
 20
-99.75063293645437
 30
0.0
 11
-180.022651560227
 21
-99.90547859133673
 31
0.0
  0
LINE
  5
1D4
330
1F
100
AcDbEntity
  8
0
100
AcDbLine
 10
-180.536245795098
 20
97.2243839355471
 30
0.0
 11
-180.9405762251874
 21
97.20878560279296
 31
0.0
  0
LINE
  5
1D5
330
1F
100
AcDbEntity
  8
0
100
AcDbLine
 10
-180.9405762251874
 20
97.20878560279296
 30
0.0
 11
-181.335166575554
 21
97.2983671861601
 31
0.0
  0
LINE
  5
1D6
330
1F
100
AcDbEntity
  8
0
100
AcDbLine
 10
-181.335166575554
 20
97.2983671861601
 30
0.0
 11
-181.6931261659116
 21
97.48702384878344
 31
0.0
  0
LINE
  5
1D7
330
1F
100
AcDbEntity
  8
0
100
AcDbLine
 10
-181.6931261659116
 20
97.48702384878344
 30
0.0
 11
-181.9900606417335
 21
97.76189895087388
 31
0.0
  0
LINE
  5
1D8
330
1F
100
AcDbEntity
  8
0
100
AcDbLine
 10
-181.9900606417335
 20
97.76189895087388
 30
0.0
 11
-182.2057344092
 21
98.10426020847753
 31
0.0
  0
LINE
  5
1D9
330
1F
100
AcDbEntity
  8
0
100
AcDbLine
 10
-182.2057344092
 20
98.10426020847753
 30
0.0
 11
-182.3254496574759
 21
98.490776267667
 31
0.0
  0
LINE
  5
1DA
330
1F
100
AcDbEntity
  8
0
100
AcDbLine
 10
-181.059057325356
 20
100.2799801300448
 30
0.0
 11
-180.6547268952666
 21
100.295578462799
 31
0.0
  0
LINE
  5
1DB
330
1F
100
AcDbEntity
  8
0
100
AcDbLine
 10
-180.6547268952666
 20
100.295578462799
 30
0.0
 11
-180.2601365449
 21
100.2059968794315
 31
0.0
  0
LINE
  5
1DC
330
1F
100
AcDbEntity
  8
0
100
AcDbLine
 10
-180.2601365449
 20
100.2059968794315
 30
0.0
 11
-179.9021769545424
 21
100.0173402168085
 31
0.0
  0
LINE
  5
1DD
330
1F
100
AcDbEntity
  8
0
100
AcDbLine
 10
-179.3438367135915
 20
98.21466701746883
 30
0.0
 11
-179.5324933762145
 21
97.8567074271114
 31
0.0
  0
LINE
  5
1DE
330
1F
100
AcDbEntity
  8
0
100
AcDbLine
 10
-179.5324933762145
 20
97.8567074271114
 30
0.0
 11
-179.8073684783051
 21
97.55977295128943
 31
0.0
  0
LINE
  5
1DF
330
1F
100
AcDbEntity
  8
0
100
AcDbLine
 10
-179.8073684783051
 20
97.55977295128943
 30
0.0
 11
-180.1497297359087
 21
97.344099183823
 31
0.0
  0
LINE
  5
1E0
330
1F
100
AcDbEntity
  8
0
100
AcDbLine
 10
-160.4673178584025
 20
-131.8866816339155
 30
0.0
 11
-161.1582991384449
 21
-133.8574782001876
 31
0.0
  0
LINE
  5
1E1
330
1F
100
AcDbEntity
  8
0
100
AcDbLine
 10
-161.1582991384449
 20
-133.8574782001876
 30
0.0
 11
-162.3358154876939
 21
-135.5822823868276
 31
0.0
  0
LINE
  5
1E2
330
1F
100
AcDbEntity
  8
0
100
AcDbLine
 10
-162.3358154876939
 20
-135.5822823868276
 30
0.0
 11
-163.9196211128863
 21
-136.9435516388891
 31
0.0
  0
LINE
  5
1E3
330
1F
100
AcDbEntity
  8
0
100
AcDbLine
 10
-163.9196211128863
 20
-136.9435516388891
 30
0.0
 11
-165.8017822780273
 21
-137.8485177064484
 31
0.0
  0
LINE
  5
1E4
330
1F
100
AcDbEntity
  8
0
100
AcDbLine
 10
-165.8017822780273
 20
-137.8485177064484
 30
0.0
 11
-167.8540328101315
 21
-138.2355086475286
 31
0.0
  0
LINE
  5
1E5
330
1F
100
AcDbEntity
  8
0
100
AcDbLine
 10
-167.8540328101315
 20
-138.2355086475286
 30
0.0
 11
-169.9365152269398
 21
-138.078151669027
 31
0.0
  0
LINE
  5
1E6
330
1F
100
AcDbEntity
  8
0
100
AcDbLine
 10
-174.9933852319135
 20
-134.6258484145435
 30
0.0
 11
-175.8983512994728
 21
-132.7436872494023
 31
0.0
  0
LINE
  5
1E7
330
1F
100
AcDbEntity
  8
0
100
AcDbLine
 10
-176.1279852620517
 20
-128.6089543004898
 30
0.0
 11
-175.4370039820092
 21
-126.6381577342178
 31
0.0
  0
LINE
  5
1E8
330
1F
100
AcDbEntity
  8
0
100
AcDbLine
 10
-175.4370039820092
 20
-126.6381577342178
 30
0.0
 11
-174.2594876327602
 21
-124.9133535475778
 31
0.0
  0
LINE
  5
1E9
330
1F
100
AcDbEntity
  8
0
100
AcDbLine
 10
-174.2594876327602
 20
-124.9133535475778
 30
0.0
 11
-172.6756820075678
 21
-123.5520842955162
 31
0.0
  0
LINE
  5
1EA
330
1F
100
AcDbEntity
  8
0
100
AcDbLine
 10
-172.6756820075678
 20
-123.5520842955162
 30
0.0
 11
-170.7935208424267
 21
-122.647118227957
 31
0.0
  0
LINE
  5
1EB
330
1F
100
AcDbEntity
  8
0
100
AcDbLine
 10
-160.6969518209812
 20
-127.7519486850031
 30
0.0
 11
-160.3099608799012
 21
-129.8041992171069
 31
0.0
  0
LINE
  5
1EC
330
1F
100
AcDbEntity
  8
0
100
AcDbLine
 10
-160.3099608799012
 20
-129.8041992171069
 30
0.0
 11
-160.4673178584025
 21
-131.8866816339155
 31
0.0
  0
LINE
  5
1ED
330
1F
100
AcDbEntity
  8
0
100
AcDbLine
 10
-171.7476515602271
 20
-110.8478179672026
 30
0.0
 11
-171.7476515602271
 21
-91.64781796720224
 31
0.0
  0
LINE
  5
1EE
330
1F
100
AcDbEntity
  8
0
100
AcDbLine
 10
-171.7476515602271
 20
-91.64781796720224
 30
0.0
 11
-158.847651560227
 21
-91.64781796720224
 31
0.0
  0
LINE
  5
1EF
330
1F
100
AcDbEntity
  8
0
100
AcDbLine
 10
-158.847651560227
 20
-91.64781796720224
 30
0.0
 11
-158.8476515602271
 21
-110.8478179672026
 31
0.0
  0
LINE
  5
1F0
330
1F
100
AcDbEntity
  8
0
100
AcDbLine
 10
-158.8476515602271
 20
-110.8478179672026
 30
0.0
 11
-171.7476515602271
 21
-110.8478179672026
 31
0.0
  0
LINE
  5
1F1
330
1F
100
AcDbEntity
  8
0
100
AcDbLine
 10
-181.198821080136
 20
-2.745002997952974
 30
0.0
 11
-181.572651560227
 21
-2.59015734307097
 31
0.0
  0
LINE
  5
1F2
330
1F
100
AcDbEntity
  8
0
100
AcDbLine
 10
-181.572651560227
 20
-2.59015734307097
 30
0.0
 11
-181.8936670710663
 21
-2.343833478044001
 31
0.0
  0
LINE
  5
1F3
330
1F
100
AcDbEntity
  8
0
100
AcDbLine
 10
-181.8936670710663
 20
-2.343833478044001
 30
0.0
 11
-182.1399909360929
 21
-2.022817967204938
 31
0.0
  0
LINE
  5
1F4
330
1F
100
AcDbEntity
  8
0
100
AcDbLine
 10
-181.572651560227
 20
0.0945214086607422
 30
0.0
 11
-181.198821080136
 21
0.2493670635431073
 31
0.0
  0
LINE
  5
1F5
330
1F
100
AcDbEntity
  8
0
100
AcDbLine
 10
-181.198821080136
 20
0.2493670635431073
 30
0.0
 11
-180.797651560227
 21
0.3021820327948944
 31
0.0
  0
LINE
  5
1F6
330
1F
100
AcDbEntity
  8
0
100
AcDbLine
 10
-180.797651560227
 20
0.3021820327948944
 30
0.0
 11
-180.396482040318
 21
0.2493670635431073
 31
0.0
  0
LINE
  5
1F7
330
1F
100
AcDbEntity
  8
0
100
AcDbLine
 10
-180.396482040318
 20
0.2493670635431073
 30
0.0
 11
-180.022651560227
 21
0.0945214086607422
 31
0.0
  0
LINE
  5
1F8
330
1F
100
AcDbEntity
  8
0
100
AcDbLine
 10
-180.022651560227
 20
0.0945214086607422
 30
0.0
 11
-179.7016360493879
 21
-0.1518024563658656
 31
0.0
  0
LINE
  5
1F9
330
1F
100
AcDbEntity
  8
0
100
AcDbLine
 10
-179.7016360493879
 20
-0.1518024563658656
 30
0.0
 11
-179.4553121843611
 21
-0.4728179672049293
 31
0.0
  0
LINE
  5
1FA
330
1F
100
AcDbEntity
  8
0
100
AcDbLine
 10
-179.4553121843611
 20
-0.4728179672049293
 30
0.0
 11
-179.300466529479
 21
-0.8466484472961411
 31
0.0
  0
LINE
  5
1FB
330
1F
100
AcDbEntity
  8
0
100
AcDbLine
 10
-179.300466529479
 20
-1.648987487113726
 30
0.0
 11
-179.4553121843611
 21
-2.022817967204938
 31
0.0
  0
LINE
  5
1FC
330
1F
100
AcDbEntity
  8
0
100
AcDbLine
 10
-179.7016360493879
 20
-2.343833478044001
 30
0.0
 11
-180.022651560227
 21
-2.59015734307097
 31
0.0
  0
LINE
  5
1FD
330
1F
100
AcDbEntity
  8
0
100
AcDbLine
 10
-166.455312184361
 20
144.5271820327949
 30
0.0
 11
-166.3004665294789
 21
144.1533515527041
 31
0.0
  0
LINE
  5
1FE
330
1F
100
AcDbEntity
  8
0
100
AcDbLine
 10
-166.3004665294789
 20
144.1533515527041
 30
0.0
 11
-166.2476515602269
 21
143.7521820327951
 31
0.0
  0
LINE
  5
1FF
330
1F
100
AcDbEntity
  8
0
100
AcDbLine
 10
-166.2476515602269
 20
143.7521820327951
 30
0.0
 11
-166.3004665294789
 21
143.3510125128861
 31
0.0
  0
LINE
  5
200
330
1F
100
AcDbEntity
  8
0
100
AcDbLine
 10
-166.3004665294789
 20
143.3510125128861
 30
0.0
 11
-166.455312184361
 21
142.9771820327949
 31
0.0
  0
LINE
  5
201
330
1F
100
AcDbEntity
  8
0
100
AcDbLine
 10
-166.455312184361
 20
142.9771820327949
 30
0.0
 11
-166.7016360493876
 21
142.6561665219559
 31
0.0
  0
LINE
  5
202
330
1F
100
AcDbEntity
  8
0
100
AcDbLine
 10
-166.7016360493876
 20
142.6561665219559
 30
0.0
 11
-167.0226515602269
 21
142.4098426569293
 31
0.0
  0
LINE
  5
203
330
1F
100
AcDbEntity
  8
0
100
AcDbLine
 10
-167.0226515602269
 20
142.4098426569293
 30
0.0
 11
-167.3964820403179
 21
142.2549970020469
 31
0.0
  0
LINE
  5
204
330
1F
100
AcDbEntity
  8
0
100
AcDbLine
 10
-167.3964820403179
 20
142.2549970020469
 30
0.0
 11
-167.7976515602269
 21
142.2021820327951
 31
0.0
  0
LINE
  5
205
330
1F
100
AcDbEntity
  8
0
100
AcDbLine
 10
-167.7976515602269
 20
142.2021820327951
 30
0.0
 11
-168.1988210801359
 21
142.2549970020469
 31
0.0
  0
LINE
  5
206
330
1F
100
AcDbEntity
  8
0
100
AcDbLine
 10
-168.1988210801359
 20
142.2549970020469
 30
0.0
 11
-168.5726515602269
 21
142.4098426569293
 31
0.0
  0
LINE
  5
207
330
1F
100
AcDbEntity
  8
0
100
AcDbLine
 10
-168.5726515602269
 20
142.4098426569293
 30
0.0
 11
-168.8936670710659
 21
142.6561665219559
 31
0.0
  0
LINE
  5
208
330
1F
100
AcDbEntity
  8
0
100
AcDbLine
 10
-168.8936670710659
 20
142.6561665219559
 30
0.0
 11
-169.1399909360927
 21
142.9771820327949
 31
0.0
  0
LINE
  5
209
330
1F
100
AcDbEntity
  8
0
100
AcDbLine
 10
-169.1399909360927
 20
142.9771820327949
 30
0.0
 11
-169.2948365909749
 21
143.3510125128861
 31
0.0
  0
LINE
  5
20A
330
1F
100
AcDbEntity
  8
0
100
AcDbLine
 10
-169.2948365909749
 20
143.3510125128861
 30
0.0
 11
-169.3476515602269
 21
143.7521820327951
 31
0.0
  0
LINE
  5
20B
330
1F
100
AcDbEntity
  8
0
100
AcDbLine
 10
-169.3476515602269
 20
143.7521820327951
 30
0.0
 11
-169.2948365909749
 21
144.1533515527041
 31
0.0
  0
LINE
  5
20C
330
1F
100
AcDbEntity
  8
0
100
AcDbLine
 10
-169.2948365909749
 20
144.1533515527041
 30
0.0
 11
-169.1399909360927
 21
144.5271820327949
 31
0.0
  0
LINE
  5
20D
330
1F
100
AcDbEntity
  8
0
100
AcDbLine
 10
-169.1399909360927
 20
144.5271820327949
 30
0.0
 11
-168.8936670710659
 21
144.848197543634
 31
0.0
  0
LINE
  5
20E
330
1F
100
AcDbEntity
  8
0
100
AcDbLine
 10
-168.8936670710659
 20
144.848197543634
 30
0.0
 11
-168.5726515602269
 21
145.094521408661
 31
0.0
  0
LINE
  5
20F
330
1F
100
AcDbEntity
  8
0
100
AcDbLine
 10
-168.5726515602269
 20
145.094521408661
 30
0.0
 11
-168.1988210801359
 21
145.249367063543
 31
0.0
  0
LINE
  5
210
330
1F
100
AcDbEntity
  8
0
100
AcDbLine
 10
-168.1988210801359
 20
145.249367063543
 30
0.0
 11
-167.7976515602269
 21
145.3021820327951
 31
0.0
  0
LINE
  5
211
330
1F
100
AcDbEntity
  8
0
100
AcDbLine
 10
-167.7976515602269
 20
145.3021820327951
 30
0.0
 11
-167.3964820403179
 21
145.249367063543
 31
0.0
  0
LINE
  5
212
330
1F
100
AcDbEntity
  8
0
100
AcDbLine
 10
-167.3964820403179
 20
145.249367063543
 30
0.0
 11
-167.0226515602269
 21
145.094521408661
 31
0.0
  0
LINE
  5
213
330
1F
100
AcDbEntity
  8
0
100
AcDbLine
 10
-167.0226515602269
 20
145.094521408661
 30
0.0
 11
-166.7016360493876
 21
144.848197543634
 31
0.0
  0
LINE
  5
214
330
1F
100
AcDbEntity
  8
0
100
AcDbLine
 10
-166.7016360493876
 20
144.848197543634
 30
0.0
 11
-166.455312184361
 21
144.5271820327949
 31
0.0
  0
ENDSEC
  0
SECTION
  2
OBJECTS
  0
DICTIONARY
  5
C
330
0
100
AcDbDictionary
  3
ACAD_GROUP
350
D
  3
ACAD_LAYOUT
350
1A
  3
ACAD_MATERIAL
350
3B
  3
ACAD_MLEADERSTYLE
350
237
  3
ACAD_MLINESTYLE
350
17
  3
ACAD_PLOTSETTINGS
350
19
  3
ACAD_VISUALSTYLE
350
2A
  3
ACDBHEADERROUNDTRIPXREC
350
215
  3
ACDBVARIABLEDICTIONARY
350
235
  0
DICTIONARY
  5
D
102
{ACAD_REACTORS
330
C
102
}
330
C
100
AcDbDictionary
  0
DICTIONARY
  5
1A
102
{ACAD_REACTORS
330
C
102
}
330
C
100
AcDbDictionary
  0
DICTIONARY
  5
3B
102
{ACAD_REACTORS
330
C
102
}
330
C
100
AcDbDictionary
  3
BYBLOCK
350
3D
  3
BYLAYER
350
3C
  3
GLOBAL
350
3E
  0
DICTIONARY
  5
237
102
{ACAD_REACTORS
330
C
102
}
330
C
100
AcDbDictionary
  0
DICTIONARY
  5
17
102
{ACAD_REACTORS
330
C
102
}
330
C
100
AcDbDictionary
  3
STANDARD
350
18
  0
DICTIONARY
  5
19
102
{ACAD_REACTORS
330
C
102
}
330
C
100
AcDbDictionary
  0
DICTIONARY
  5
2A
102
{ACAD_REACTORS
330
C
102
}
330
C
100
AcDbDictionary
  3
2DWIREFRAME
350
2F
  3
3D_HIDDEN
350
31
  3
3DWIREFRAME
350
30
  3
BASIC
350
32
  3
BRIGHTEN
350
36
  3
COLORCHANGE
350
3A
  3
CONCEPTUAL
350
34
  3
DIM
350
35
  3
FACEPATTERN
350
39
  3
FLAT
350
2B
  3
FLATWITHEDGES
350
2C
  3
GOURAUD
350
2D
  3
GOURAUDWITHEDGES
350
2E
  3
LINEPATTERN
350
38
  3
REALISTIC
350
33
  3
THICKEN
350
37
  0
DICTIONARY
  5
215
102
{ACAD_REACTORS
330
C
102
}
330
C
100
AcDbDictionary
  3
CEPSNTYPE
350
21E
  3
DIMSTYLEDATA
350
234
  3
FINGERPRINTGUID
350
21F
  3
HYPERLINKBASE
350
218
  3
INSUNITS
350
21D
  3
LAYOUTDICT
350
21A
  3
LWETCUNION
350
21C
  3
PLOTSETDICT
350
21B
  3
PSVPSCALE
350
221
  3
PUCSBASE
350
224
  3
PUCSORGBACK
350
22A
  3
PUCSORGBOTTOM
350
226
  3
PUCSORGFRONT
350
229
  3
PUCSORGLEFT
350
227
  3
PUCSORGRIGHT
350
228
  3
PUCSORGTOP
350
225
  3
PUCSORTHOREF
350
222
  3
PUCSORTHOVIEW
350
223
  3
STYLESHEET
350
219
  3
TSTACKALIGN
350
216
  3
TSTACKSIZE
350
217
  3
UCSBASE
350
22D
  3
UCSORGBACK
350
233
  3
UCSORGBOTTOM
350
22F
  3
UCSORGFRONT
350
232
  3
UCSORGLEFT
350
230
  3
UCSORGRIGHT
350
231
  3
UCSORGTOP
350
22E
  3
UCSORTHOREF
350
22B
  3
UCSORTHOVIEW
350
22C
  3
VERSIONGUID
350
220
  0
DICTIONARY
  5
235
102
{ACAD_REACTORS
330
C
102
}
330
C
100
AcDbDictionary
  3
DIMASSOC
350
238
  3
HIDETEXT
350
239
  0
MATERIAL
  5
3D
102
{ACAD_REACTORS
330
3B
102
}
102
{ACAD_XDICTIONARY
360
23C
102
}
330
3B
100
AcDbMaterial
  1
ByBlock
  0
MATERIAL
  5
3C
102
{ACAD_REACTORS
330
3B
102
}
102
{ACAD_XDICTIONARY
360
23A
102
}
330
3B
100
AcDbMaterial
  1
ByLayer
  0
MATERIAL
  5
3E
102
{ACAD_REACTORS
330
3B
102
}
102
{ACAD_XDICTIONARY
360
23E
102
}
330
3B
100
AcDbMaterial
  1
Global
  0
MLINESTYLE
  5
18
102
{ACAD_REACTORS
330
17
102
}
330
17
100
AcDbMlineStyle
  2
Standard
 70
     0
  3

 62
   256
 51
90.0
 52
90.0
 71
     2
 49
0.5
 62
   256
  6
BYLAYER
 49
-0.5
 62
   256
  6
BYLAYER
  0
ACAD_PROXY_OBJECT
  5
2F
102
{ACAD_REACTORS
330
2A
102
}
330
2A
100
AcDbProxyObject
 90
      499
 91
      501
 93
      436
310
42CC9915DA5C99599C985B595049028333333333333E3BF0000000000000FB0107901411070040501600405405064090741402480A0340
1001
ACAD
1000
AcDbSavedByObjectVersion
1070
     0
  0
ACAD_PROXY_OBJECT
  5
31
102
{ACAD_REACTORS
330
2A
102
}
330
2A
100
AcDbProxyObject
 90
      499
 91
      501
 93
      500
310
424CD108121A5919195B90640502408333333333333E3BF0000000000000FB01079024090700405020000000000001110200405405064090740C02480A0340
1001
ACAD
1000
AcDbSavedByObjectVersion
1070
     0
  0
ACAD_PROXY_OBJECT
  5
30
102
{ACAD_REACTORS
330
2A
102
}
330
2A
100
AcDbProxyObject
 90
      499
 91
      501
 93
      436
310
42CCD915DA5C99599C985B595059028333333333333E3BF0000000000000FB0107901411070040501600405405064090741402480A0340
1001
ACAD
1000
AcDbSavedByObjectVersion
1070
     0
  0
ACAD_PROXY_OBJECT
  5
32
102
{ACAD_REACTORS
330
2A
102
}
330
2A
100
AcDbProxyObject
 90
      499
 91
      501
 93
      388
310
4150985CDA58D07406404333333333333E3BF0000000000000FB0107A41107004050150841D405064090741402480A0350
1001
ACAD
1000
AcDbSavedByObjectVersion
1070
     0
  0
ACAD_PROXY_OBJECT
  5
36
102
{ACAD_REACTORS
330
2A
102
}
330
2A
100
AcDbProxyObject
 90
      499
 91
      501
 93
      428
310
42109C9A59DA1D195B90C409028333333333333E3BF0000000000000FB010790141107004050150841D405064090741402480A029950
1001
ACAD
1000
AcDbSavedByObjectVersion
1070
     0
  0
ACAD_PROXY_OBJECT
  5
3A
102
{ACAD_REACTORS
330
2A
102
}
330
2A
100
AcDbProxyObject
 90
      499
 91
      501
 93
      452
310
42D0DBDB1BDC90DA185B99D95104090240C333333333333E3BF0000000000000FB0108901411070040501508421405064090741402480A0350
1001
ACAD
1000
AcDbSavedByObjectVersion
1070
     0
  0
ACAD_PROXY_OBJECT
  5
34
102
{ACAD_REACTORS
330
2A
102
}
330
2A
100
AcDbProxyObject
 90
      499
 91
      501
 93
      500
310
4290DBDB98D95C1D1D585B10940D028333333333333E3BF0000000000000FB0107902409070040501000000000000111010841D405064090740C02480A0340
1001
ACAD
1000
AcDbSavedByObjectVersion
1070
     0
  0
ACAD_PROXY_OBJECT
  5
35
102
{ACAD_REACTORS
330
2A
102
}
330
2A
100
AcDbProxyObject
 90
      499
 91
      501
 93
      412
310
40D11A5B50B409028333333333333E3BF0000000000000FB010790141107004050150841D405064090741402480A02677FFFFFD0
1001
ACAD
1000
AcDbSavedByObjectVersion
1070
     0
  0
ACAD_PROXY_OBJECT
  5
39
102
{ACAD_REACTORS
330
2A
102
}
330
2A
100
AcDbProxyObject
 90
      499
 91
      501
 93
      444
310
42D19858D95C185D1D195C9B90F409028333333333333E3BF0000000000000FB010790141107004050150841D405064090741402480A0350
1001
ACAD
1000
AcDbSavedByObjectVersion
1070
     0
  0
ACAD_PROXY_OBJECT
  5
2B
102
{ACAD_REACTORS
330
2A
102
}
330
2A
100
AcDbProxyObject
 90
      499
 91
      501
 93
      388
310
41119B185D240901404333333333333E3BF0000000000000F9010740A41107004050150841D405064090741402480A1B50
1001
ACAD
1000
AcDbSavedByObjectVersion
1070
     0
  0
ACAD_PROXY_OBJECT
  5
2C
102
{ACAD_REACTORS
330
2A
102
}
330
2A
100
AcDbProxyObject
 90
      499
 91
      501
 93
      476
310
43519B185D15DA5D1A115919D95CD0140901404333333333333E3BF0000000000000F9010740901411070040501600405405064090741402480A1B50
1001
ACAD
1000
AcDbSavedByObjectVersion
1070
     0
  0
ACAD_PROXY_OBJECT
  5
2D
102
{ACAD_REACTORS
330
2A
102
}
330
2A
100
AcDbProxyObject
 90
      499
 91
      501
 93
      412
310
41D1DBDD5C985D5910240902404333333333333E3BF0000000000000F9010740A411070040501641D405064090741402480A1B50
1001
ACAD
1000
AcDbSavedByObjectVersion
1070
     0
  0
ACAD_PROXY_OBJECT
  5
2E
102
{ACAD_REACTORS
330
2A
102
}
330
2A
100
AcDbProxyObject
 90
      499
 91
      501
 93
      500
310
4411DBDD5C985D5915DA5D1A115919D95CD0340902404333333333333E3BF0000000000000F9010740901411070040501600405405064090741402480A1B50
1001
ACAD
1000
AcDbSavedByObjectVersion
1070
     0
  0
ACAD_PROXY_OBJECT
  5
38
102
{ACAD_REACTORS
330
2A
102
}
330
2A
100
AcDbProxyObject
 90
      499
 91
      501
 93
      444
310
42D31A5B995C185D1D195C9B90E409028333333333333E3BF0000000000000FB010790141107004050750841D405064090741402483A0350
1001
ACAD
1000
AcDbSavedByObjectVersion
1070
     0
  0
ACAD_PROXY_OBJECT
  5
33
102
{ACAD_REACTORS
330
2A
102
}
330
2A
100
AcDbProxyObject
 90
      499
 91
      501
 93
      420
310
425499585B1A5CDD1A58D08409028333333333333E3BF0000000000000FB01079019070040501508421405064090741402480A1B40
1001
ACAD
1000
AcDbSavedByObjectVersion
1070
     0
  0
ACAD_PROXY_OBJECT
  5
37
102
{ACAD_REACTORS
330
2A
102
}
330
2A
100
AcDbProxyObject
 90
      499
 91
      501
 93
      412
310
41D51A1A58DAD95B90D409028333333333333E3BF0000000000000FB010790141107004050150C41D405064090741402480A0350
1001
ACAD
1000
AcDbSavedByObjectVersion
1070
     0
  0
XRECORD
  5
21E
102
{ACAD_REACTORS
330
215
102
}
330
215
100
AcDbXrecord
 90
        0
  0
XRECORD
  5
234
102
{ACAD_REACTORS
330
215
102
}
330
215
100
AcDbXrecord
1000
DSTYLE
1002
{
1070
   340
340
11
1002
}
  0
XRECORD
  5
21F
102
{ACAD_REACTORS
330
215
102
}
330
215
100
AcDbXrecord
  1
{CDBDA6BD-B9A0-4972-84D3-3FAD02447C58}
  0
XRECORD
  5
218
102
{ACAD_REACTORS
330
215
102
}
330
215
100
AcDbXrecord
  1

  0
XRECORD
  5
21D
102
{ACAD_REACTORS
330
215
102
}
330
215
100
AcDbXrecord
 90
        1
  0
XRECORD
  5
21A
102
{ACAD_REACTORS
330
215
102
}
330
215
100
AcDbXrecord
340
1A
  0
XRECORD
  5
21C
102
{ACAD_REACTORS
330
215
102
}
330
215
100
AcDbXrecord
 90
    10781
  0
XRECORD
  5
21B
102
{ACAD_REACTORS
330
215
102
}
330
215
100
AcDbXrecord
340
19
  0
XRECORD
  5
221
102
{ACAD_REACTORS
330
215
102
}
330
215
100
AcDbXrecord
 40
0.0
  0
XRECORD
  5
224
102
{ACAD_REACTORS
330
215
102
}
330
215
100
AcDbXrecord
340
0
  0
XRECORD
  5
22A
102
{ACAD_REACTORS
330
215
102
}
330
215
100
AcDbXrecord
 10
0.0
 20
0.0
 30
0.0
  0
XRECORD
  5
226
102
{ACAD_REACTORS
330
215
102
}
330
215
100
AcDbXrecord
 10
0.0
 20
0.0
 30
0.0
  0
XRECORD
  5
229
102
{ACAD_REACTORS
330
215
102
}
330
215
100
AcDbXrecord
 10
0.0
 20
0.0
 30
0.0
  0
XRECORD
  5
227
102
{ACAD_REACTORS
330
215
102
}
330
215
100
AcDbXrecord
 10
0.0
 20
0.0
 30
0.0
  0
XRECORD
  5
228
102
{ACAD_REACTORS
330
215
102
}
330
215
100
AcDbXrecord
 10
0.0
 20
0.0
 30
0.0
  0
XRECORD
  5
225
102
{ACAD_REACTORS
330
215
102
}
330
215
100
AcDbXrecord
 10
0.0
 20
0.0
 30
0.0
  0
XRECORD
  5
222
102
{ACAD_REACTORS
330
215
102
}
330
215
100
AcDbXrecord
340
0
  0
XRECORD
  5
223
102
{ACAD_REACTORS
330
215
102
}
330
215
100
AcDbXrecord
 70
     0
  0
XRECORD
  5
219
102
{ACAD_REACTORS
330
215
102
}
330
215
100
AcDbXrecord
  1

  0
XRECORD
  5
216
102
{ACAD_REACTORS
330
215
102
}
330
215
100
AcDbXrecord
 90
        1
  0
XRECORD
  5
217
102
{ACAD_REACTORS
330
215
102
}
330
215
100
AcDbXrecord
 90
       70
  0
XRECORD
  5
22D
102
{ACAD_REACTORS
330
215
102
}
330
215
100
AcDbXrecord
340
0
  0
XRECORD
  5
233
102
{ACAD_REACTORS
330
215
102
}
330
215
100
AcDbXrecord
 10
0.0
 20
0.0
 30
0.0
  0
XRECORD
  5
22F
102
{ACAD_REACTORS
330
215
102
}
330
215
100
AcDbXrecord
 10
0.0
 20
0.0
 30
0.0
  0
XRECORD
  5
232
102
{ACAD_REACTORS
330
215
102
}
330
215
100
AcDbXrecord
 10
0.0
 20
0.0
 30
0.0
  0
XRECORD
  5
230
102
{ACAD_REACTORS
330
215
102
}
330
215
100
AcDbXrecord
 10
0.0
 20
0.0
 30
0.0
  0
XRECORD
  5
231
102
{ACAD_REACTORS
330
215
102
}
330
215
100
AcDbXrecord
 10
0.0
 20
0.0
 30
0.0
  0
XRECORD
  5
22E
102
{ACAD_REACTORS
330
215
102
}
330
215
100
AcDbXrecord
 10
0.0
 20
0.0
 30
0.0
  0
XRECORD
  5
22B
102
{ACAD_REACTORS
330
215
102
}
330
215
100
AcDbXrecord
340
0
  0
XRECORD
  5
22C
102
{ACAD_REACTORS
330
215
102
}
330
215
100
AcDbXrecord
 70
     0
  0
XRECORD
  5
220
102
{ACAD_REACTORS
330
215
102
}
330
215
100
AcDbXrecord
  1
{FAEB1C32-E019-11D5-929B-00C0DF256EC4}
  0
DICTIONARYVAR
  5
238
102
{ACAD_REACTORS
330
235
102
}
330
235
100
DictionaryVariables
280
     0
  1
2
  0
DICTIONARYVAR
  5
239
102
{ACAD_REACTORS
330
235
102
}
330
235
100
DictionaryVariables
280
     0
  1
1
  0
DICTIONARY
  5
23C
330
3D
100
AcDbDictionary
280
     1
  3
ACAD_XREC_ROUNDTRIP
360
23D
  0
DICTIONARY
  5
23A
330
3C
100
AcDbDictionary
280
     1
  3
ACAD_XREC_ROUNDTRIP
360
23B
  0
DICTIONARY
  5
23E
330
3E
100
AcDbDictionary
280
     1
  3
ACAD_XREC_ROUNDTRIP
360
23F
  0
XRECORD
  5
23D
102
{ACAD_REACTORS
330
23C
102
}
330
23C
100
AcDbXrecord
102
MATERIAL
148
0.0
149
0.0
149
0.0
 93
        0
 94
      127
282
     0
 72
     1
 77
     1
171
     1
175
     1
179
     1
273
     0
  0
XRECORD
  5
23B
102
{ACAD_REACTORS
330
23A
102
}
330
23A
100
AcDbXrecord
102
MATERIAL
148
0.0
149
0.0
149
0.0
 93
        0
 94
      127
282
     0
 72
     1
 77
     1
171
     1
175
     1
179
     1
273
     0
  0
XRECORD
  5
23F
102
{ACAD_REACTORS
330
23E
102
}
330
23E
100
AcDbXrecord
102
MATERIAL
148
0.0
149
0.0
149
0.0
 93
        0
 94
      127
282
     0
 72
     1
 77
     1
171
     1
175
     1
179
     1
273
     0
  0
ENDSEC
  0
EOF
