  0
SECTION
  2
HEADER
  9
$ACADVER
  1
AC1014
  9
$ACADMAINTVER
 70
     9
  9
$DWGCODEPAGE
  3
ANSI_1252
  9
$INSBASE
 10
0.0
 20
0.0
 30
0.0
  9
$EXTMIN
 10
1.000000000000000E+20
 20
1.000000000000000E+20
 30
1.000000000000000E+20
  9
$EXTMAX
 10
-1.000000000000000E+20
 20
-1.000000000000000E+20
 30
-1.000000000000000E+20
  9
$LIMMIN
 10
0.0
 20
0.0
  9
$LIMMAX
 10
12.0
 20
9.0
  9
$ORTHOMODE
 70
     0
  9
$REGENMODE
 70
     1
  9
$FILLMODE
 70
     1
  9
$QTEXTMODE
 70
     0
  9
$MIRRTEXT
 70
     1
  9
$DRAGMODE
 70
     2
  9
$LTSCALE
 40
1.0
  9
$OSMODE
 70
    37
  9
$ATTMODE
 70
     1
  9
$TEXTSIZE
 40
0.2
  9
$TRACEWID
 40
0.05
  9
$TEXTSTYLE
  7
STANDARD
  9
$CLAYER
  8
0
  9
$CELTYPE
  6
BYLAYER
  9
$CECOLOR
 62
   256
  9
$CELTSCALE
 40
1.0
  9
$DELOBJ
 70
     1
  9
$DISPSILH
 70
     0
  9
$DIMSCALE
 40
1.0
  9
$DIMASZ
 40
0.18
  9
$DIMEXO
 40
0.0625
  9
$DIMDLI
 40
0.38
  9
$DIMRND
 40
0.0
  9
$DIMDLE
 40
0.0
  9
$DIMEXE
 40
0.18
  9
$DIMTP
 40
0.0
  9
$DIMTM
 40
0.0
  9
$DIMTXT
 40
0.18
  9
$DIMCEN
 40
0.09
  9
$DIMTSZ
 40
0.0
  9
$DIMTOL
 70
     0
  9
$DIMLIM
 70
     0
  9
$DIMTIH
 70
     1
  9
$DIMTOH
 70
     1
  9
$DIMSE1
 70
     0
  9
$DIMSE2
 70
     0
  9
$DIMTAD
 70
     0
  9
$DIMZIN
 70
     0
  9
$DIMBLK
  1

  9
$DIMASO
 70
     1
  9
$DIMSHO
 70
     1
  9
$DIMPOST
  1

  9
$DIMAPOST
  1

  9
$DIMALT
 70
     0
  9
$DIMALTD
 70
     2
  9
$DIMALTF
 40
25.4
  9
$DIMLFAC
 40
1.0
  9
$DIMTOFL
 70
     0
  9
$DIMTVP
 40
0.0
  9
$DIMTIX
 70
     0
  9
$DIMSOXD
 70
     0
  9
$DIMSAH
 70
     0
  9
$DIMBLK1
  1

  9
$DIMBLK2
  1

  9
$DIMSTYLE
  2
STANDARD
  9
$DIMCLRD
 70
     0
  9
$DIMCLRE
 70
     0
  9
$DIMCLRT
 70
     0
  9
$DIMTFAC
 40
1.0
  9
$DIMGAP
 40
0.09
  9
$DIMJUST
 70
     0
  9
$DIMSD1
 70
     0
  9
$DIMSD2
 70
     0
  9
$DIMTOLJ
 70
     1
  9
$DIMTZIN
 70
     0
  9
$DIMALTZ
 70
     0
  9
$DIMALTTZ
 70
     0
  9
$DIMFIT
 70
     3
  9
$DIMUPT
 70
     0
  9
$DIMUNIT
 70
     2
  9
$DIMDEC
 70
     4
  9
$DIMTDEC
 70
     4
  9
$DIMALTU
 70
     2
  9
$DIMALTTD
 70
     2
  9
$DIMTXSTY
  7
STANDARD
  9
$DIMAUNIT
 70
     0
  9
$LUNITS
 70
     2
  9
$LUPREC
 70
     4
  9
$SKETCHINC
 40
0.1
  9
$FILLETRAD
 40
0.5
  9
$AUNITS
 70
     0
  9
$AUPREC
 70
     0
  9
$MENU
  1
.
  9
$ELEVATION
 40
0.0
  9
$PELEVATION
 40
0.0
  9
$THICKNESS
 40
0.0
  9
$LIMCHECK
 70
     0
  9
$CHAMFERA
 40
0.5
  9
$CHAMFERB
 40
0.5
  9
$CHAMFERC
 40
1.0
  9
$CHAMFERD
 40
0.0
  9
$SKPOLY
 70
     0
  9
$TDCREATE
 40
2457286.917097176
  9
$TDUPDATE
 40
2457286.917097188
  9
$TDINDWG
 40
0.0000000116
  9
$TDUSRTIMER
 40
0.0000000116
  9
$USRTIMER
 70
     1
  9
$ANGBASE
 50
0.0
  9
$ANGDIR
 70
     0
  9
$PDMODE
 70
     0
  9
$PDSIZE
 40
0.0
  9
$PLINEWID
 40
0.0
  9
$COORDS
 70
     1
  9
$SPLFRAME
 70
     0
  9
$SPLINETYPE
 70
     6
  9
$SPLINESEGS
 70
     8
  9
$ATTDIA
 70
     0
  9
$ATTREQ
 70
     1
  9
$HANDLING
 70
     1
  9
$HANDSEED
  5
25C
  9
$SURFTAB1
 70
     6
  9
$SURFTAB2
 70
     6
  9
$SURFTYPE
 70
     6
  9
$SURFU
 70
     6
  9
$SURFV
 70
     6
  9
$UCSNAME
  2

  9
$UCSORG
 10
0.0
 20
0.0
 30
0.0
  9
$UCSXDIR
 10
1.0
 20
0.0
 30
0.0
  9
$UCSYDIR
 10
0.0
 20
1.0
 30
0.0
  9
$PUCSNAME
  2

  9
$PUCSORG
 10
0.0
 20
0.0
 30
0.0
  9
$PUCSXDIR
 10
1.0
 20
0.0
 30
0.0
  9
$PUCSYDIR
 10
0.0
 20
1.0
 30
0.0
  9
$USERI1
 70
     0
  9
$USERI2
 70
     0
  9
$USERI3
 70
     0
  9
$USERI4
 70
     0
  9
$USERI5
 70
     0
  9
$USERR1
 40
0.0
  9
$USERR2
 40
0.0
  9
$USERR3
 40
0.0
  9
$USERR4
 40
0.0
  9
$USERR5
 40
0.0
  9
$WORLDVIEW
 70
     1
  9
$SHADEDGE
 70
     3
  9
$SHADEDIF
 70
    70
  9
$TILEMODE
 70
     1
  9
$MAXACTVP
 70
    64
  9
$PINSBASE
 10
0.0
 20
0.0
 30
0.0
  9
$PLIMCHECK
 70
     0
  9
$PEXTMIN
 10
1.000000000000000E+20
 20
1.000000000000000E+20
 30
1.000000000000000E+20
  9
$PEXTMAX
 10
-1.000000000000000E+20
 20
-1.000000000000000E+20
 30
-1.000000000000000E+20
  9
$PLIMMIN
 10
0.0
 20
0.0
  9
$PLIMMAX
 10
12.0
 20
9.0
  9
$UNITMODE
 70
     0
  9
$VISRETAIN
 70
     1
  9
$PLINEGEN
 70
     0
  9
$PSLTSCALE
 70
     1
  9
$TREEDEPTH
 70
  3020
  9
$PICKSTYLE
 70
     1
  9
$CMLSTYLE
  2
STANDARD
  9
$CMLJUST
 70
     0
  9
$CMLSCALE
 40
1.0
  9
$PROXYGRAPHICS
 70
     1
  9
$MEASUREMENT
 70
     0
  0
ENDSEC
  0
SECTION
  2
CLASSES
  0
CLASS
  1
ACDBDICTIONARYWDFLT
  2
AcDbDictionaryWithDefault
  3
ObjectDBX Classes
 90
        0
280
     0
281
     0
  0
CLASS
  1
VISUALSTYLE
  2
AcDbVisualStyle
  3
ObjectDBX Classes
 90
     4095
280
     0
281
     0
  0
CLASS
  1
MATERIAL
  2
AcDbMaterial
  3
ObjectDBX Classes
 90
     1153
280
     0
281
     0
  0
CLASS
  1
DICTIONARYVAR
  2
AcDbDictionaryVar
  3
ObjectDBX Classes
 90
        0
280
     0
281
     0
  0
CLASS
  1
XRECORD
  2
AcDbXrecord
  3
AutoCAD 2000
 90
        0
280
     0
281
     0
  0
CLASS
  1
LWPOLYLINE
  2
AcDbPolyline
  3
AutoCAD 2000
 90
        0
280
     0
281
     1
  0
CLASS
  1
HATCH
  2
AcDbHatch
  3
AutoCAD 2000
 90
        0
280
     0
281
     1
  0
CLASS
  1
ACDBPLACEHOLDER
  2
AcDbPlaceHolder
  3
ObjectDBX Classes
 90
        0
280
     0
281
     0
  0
CLASS
  1
LAYOUT
  2
AcDbLayout
  3
ObjectDBX Classes
 90
        0
280
     0
281
     0
  0
ENDSEC
  0
SECTION
  2
TABLES
  0
TABLE
  2
VPORT
  5
8
330
0
100
AcDbSymbolTable
 70
     1
  0
VPORT
  5
29
330
8
100
AcDbSymbolTableRecord
100
AcDbViewportTableRecord
  2
*ACTIVE
 70
     0
 10
0.0
 20
0.0
 11
1.0
 21
1.0
 12
0.0
 22
0.0
 13
0.0
 23
0.0
 14
0.5
 24
0.5
 15
0.5
 25
0.5
 16
0.0
 26
0.0
 36
1.0
 17
0.0
 27
0.0
 37
-1000.0
 40
369.0977641149112
 41
1.914432989690722
 42
50.0
 43
2087.275676565638
 44
2939.27074426811
 50
0.0
 51
0.0
 71
     0
 72
   100
 73
     1
 74
     3
 75
     0
 76
     0
 77
     0
 78
     0
  0
ENDTAB
  0
TABLE
  2
LTYPE
  5
5
330
0
100
AcDbSymbolTable
 70
     1
  0
LTYPE
  5
14
330
5
100
AcDbSymbolTableRecord
100
AcDbLinetypeTableRecord
  2
BYBLOCK
 70
     0
  3

 72
    65
 73
     0
 40
0.0
  0
LTYPE
  5
15
330
5
100
AcDbSymbolTableRecord
100
AcDbLinetypeTableRecord
  2
BYLAYER
 70
     0
  3

 72
    65
 73
     0
 40
0.0
  0
LTYPE
  5
16
330
5
100
AcDbSymbolTableRecord
100
AcDbLinetypeTableRecord
  2
CONTINUOUS
 70
     0
  3
Solid line
 72
    65
 73
     0
 40
0.0
  0
ENDTAB
  0
TABLE
  2
LAYER
  5
2
330
0
100
AcDbSymbolTable
 70
     3
  0
LAYER
  5
10
330
2
100
AcDbSymbolTableRecord
100
AcDbLayerTableRecord
  2
0
 70
     0
 62
     7
  6
CONTINUOUS
  0
LAYER
  5
3F
330
2
100
AcDbSymbolTableRecord
100
AcDbLayerTableRecord
  2
PROFILEEDGES
 70
     0
 62
     7
  6
CONTINUOUS
  0
LAYER
  5
40
330
2
100
AcDbSymbolTableRecord
100
AcDbLayerTableRecord
  2
SECTIONCUTEDGES
 70
     0
 62
     7
  6
CONTINUOUS
  0
ENDTAB
  0
TABLE
  2
STYLE
  5
3
330
0
100
AcDbSymbolTable
 70
     1
  0
STYLE
  5
11
330
3
100
AcDbSymbolTableRecord
100
AcDbTextStyleTableRecord
  2
STANDARD
 70
     0
 40
0.0
 41
1.0
 50
0.0
 71
     0
 42
0.2
  3
txt
  4

  0
ENDTAB
  0
TABLE
  2
VIEW
  5
6
330
0
100
AcDbSymbolTable
 70
     0
  0
ENDTAB
  0
TABLE
  2
UCS
  5
7
330
0
100
AcDbSymbolTable
 70
     0
  0
ENDTAB
  0
TABLE
  2
APPID
  5
9
330
0
100
AcDbSymbolTable
 70
     1
  0
APPID
  5
12
330
9
100
AcDbSymbolTableRecord
100
AcDbRegAppTableRecord
  2
ACAD
 70
     0
  0
ENDTAB
  0
TABLE
  2
DIMSTYLE
  5
A
330
0
100
AcDbSymbolTable
 70
     1
  0
DIMSTYLE
105
27
330
A
100
AcDbSymbolTableRecord
100
AcDbDimStyleTableRecord
  2
STANDARD
 70
     0
  3

  4

  5

  6

  7

 40
1.0
 41
0.18
 42
0.0625
 43
0.38
 44
0.18
 45
0.0
 46
0.0
 47
0.0
 48
0.0
140
0.18
141
0.09
142
0.0
143
25.4
144
1.0
145
0.0
146
1.0
147
0.09
 71
     0
 72
     0
 73
     1
 74
     1
 75
     0
 76
     0
 77
     0
 78
     0
170
     0
171
     2
172
     0
173
     0
174
     0
175
     0
176
     0
177
     0
178
     0
270
     2
271
     4
272
     4
273
     2
274
     2
340
11
275
     0
280
     0
281
     0
282
     0
283
     1
284
     0
285
     0
286
     0
287
     3
288
     0
  0
ENDTAB
  0
TABLE
  2
BLOCK_RECORD
  5
1
330
0
100
AcDbSymbolTable
 70
     1
  0
BLOCK_RECORD
  5
1F
330
1
100
AcDbSymbolTableRecord
100
AcDbBlockTableRecord
  2
*MODEL_SPACE
  0
BLOCK_RECORD
  5
1B
330
1
100
AcDbSymbolTableRecord
100
AcDbBlockTableRecord
  2
*PAPER_SPACE
  0
ENDTAB
  0
ENDSEC
  0
SECTION
  2
BLOCKS
  0
BLOCK
  5
20
330
1F
100
AcDbEntity
  8
0
100
AcDbBlockBegin
  2
*MODEL_SPACE
 70
     0
 10
0.0
 20
0.0
 30
0.0
  3
*MODEL_SPACE
  1

  0
ENDBLK
  5
21
330
1F
100
AcDbEntity
  8
0
100
AcDbBlockEnd
  0
BLOCK
  5
1C
330
1B
100
AcDbEntity
 67
     1
  8
0
100
AcDbBlockBegin
  2
*PAPER_SPACE
 70
     0
 10
0.0
 20
0.0
 30
0.0
  3
*PAPER_SPACE
  1

  0
ENDBLK
  5
1D
330
1B
100
AcDbEntity
 67
     1
  8
0
100
AcDbBlockEnd
  0
ENDSEC
  0
SECTION
  2
ENTITIES
  0
LINE
  5
41
330
1F
100
AcDbEntity
  8
0
100
AcDbLine
 10
68.41678237560633
 20
75.86764023637265
 30
0.0
 11
68.66310624063311
 21
76.1886557472119
 31
0.0
  0
LINE
  5
42
330
1F
100
AcDbEntity
  8
0
100
AcDbLine
 10
-82.99494856451642
 20
143.6914707164637
 30
0.0
 11
-83.1497942193986
 21
143.3176402363727
 31
0.0
  0
LINE
  5
43
330
1F
100
AcDbEntity
  8
0
100
AcDbLine
 10
-83.1497942193986
 20
143.3176402363727
 30
0.0
 11
-83.39611808442538
 21
142.9966247255332
 31
0.0
  0
LINE
  5
44
330
1F
100
AcDbEntity
  8
0
100
AcDbLine
 10
-83.39611808442538
 20
142.9966247255332
 30
0.0
 11
-83.71713359526446
 21
142.7503008605064
 31
0.0
  0
LINE
  5
45
330
1F
100
AcDbEntity
  8
0
100
AcDbLine
 10
-83.71713359526446
 20
142.7503008605064
 30
0.0
 11
-84.09096407535566
 21
142.5954552056243
 31
0.0
  0
LINE
  5
46
330
1F
100
AcDbEntity
  8
0
100
AcDbLine
 10
-84.09096407535566
 20
142.5954552056243
 30
0.0
 11
-84.49213359526446
 21
142.5426402363725
 31
0.0
  0
LINE
  5
47
330
1F
100
AcDbEntity
  8
0
100
AcDbLine
 10
69.35795223156285
 20
93.59545520562493
 30
0.0
 11
68.98412175147182
 21
93.75030086050693
 31
0.0
  0
LINE
  5
48
330
1F
100
AcDbEntity
  8
0
100
AcDbLine
 10
71.2563067822224
 20
-76.52789411382822
 30
0.0
 11
71.30912175147436
 21
-76.9290636337372
 31
0.0
  0
LINE
  5
49
330
1F
100
AcDbEntity
  8
0
100
AcDbLine
 10
71.30912175147436
 20
-76.9290636337372
 30
0.0
 11
71.2563067822224
 21
-77.33023315364599
 31
0.0
  0
LINE
  5
4A
330
1F
100
AcDbEntity
  8
0
100
AcDbLine
 10
71.2563067822224
 20
-77.33023315364599
 30
0.0
 11
71.1014611273402
 21
-77.7040636337372
 31
0.0
  0
LINE
  5
4B
330
1F
100
AcDbEntity
  8
0
100
AcDbLine
 10
-155.1678007396071
 20
-155.9073597636275
 30
0.0
 11
104.8321992603929
 21
-155.9073597636272
 31
0.0
  0
LINE
  5
4C
330
1F
100
AcDbEntity
  8
0
100
AcDbLine
 10
-145.3928007396071
 20
-99.56502038776154
 30
0.0
 11
-145.0717852287681
 21
-99.81134425278815
 31
0.0
  0
LINE
  5
4D
330
1F
100
AcDbEntity
  8
0
100
AcDbLine
 10
-155.1678007396071
 20
-155.9073597636275
 30
0.0
 11
-155.1678007396076
 21
154.0926402363725
 31
0.0
  0
LINE
  5
4E
330
1F
100
AcDbEntity
  8
0
100
AcDbLine
 10
104.8321992603929
 20
-155.9073597636272
 30
0.0
 11
104.8321992603927
 21
-20.90735976362718
 31
0.0
  0
LINE
  5
4F
330
1F
100
AcDbEntity
  8
0
100
AcDbLine
 10
-155.1678007396076
 20
154.0926402363725
 30
0.0
 11
104.8321992603923
 21
154.0926402363727
 31
0.0
  0
LINE
  5
50
330
1F
100
AcDbEntity
  8
0
100
AcDbLine
 10
-147.510140115473
 20
-100.1323597636274
 30
0.0
 11
-147.2638162504464
 21
-99.81134425278815
 31
0.0
  0
LINE
  5
51
330
1F
100
AcDbEntity
  8
0
100
AcDbLine
 10
-147.2638162504464
 20
-99.81134425278815
 30
0.0
 11
-146.942800739607
 21
-99.56502038776154
 31
0.0
  0
LINE
  5
52
330
1F
100
AcDbEntity
  8
0
100
AcDbLine
 10
-146.942800739607
 20
-99.56502038776154
 30
0.0
 11
-146.5689702595161
 21
-99.41017473287936
 31
0.0
  0
LINE
  5
53
330
1F
100
AcDbEntity
  8
0
100
AcDbLine
 10
-146.5689702595161
 20
-99.41017473287936
 30
0.0
 11
-146.1678007396071
 21
-99.35735976362739
 31
0.0
  0
LINE
  5
54
330
1F
100
AcDbEntity
  8
0
100
AcDbLine
 10
-146.1678007396071
 20
-99.35735976362739
 30
0.0
 11
-145.7666312196983
 21
-99.41017473287936
 31
0.0
  0
LINE
  5
55
330
1F
100
AcDbEntity
  8
0
100
AcDbLine
 10
-145.7666312196983
 20
-99.41017473287936
 30
0.0
 11
-145.3928007396071
 21
-99.56502038776154
 31
0.0
  0
LINE
  5
56
330
1F
100
AcDbEntity
  8
0
100
AcDbLine
 10
-147.6649857703551
 20
-101.3085292835362
 30
0.0
 11
-147.7178007396071
 21
-100.9073597636274
 31
0.0
  0
LINE
  5
57
330
1F
100
AcDbEntity
  8
0
100
AcDbLine
 10
-147.7178007396071
 20
-100.9073597636274
 30
0.0
 11
-147.6649857703551
 21
-100.5061902437184
 31
0.0
  0
LINE
  5
58
330
1F
100
AcDbEntity
  8
0
100
AcDbLine
 10
-145.0717852287681
 20
-99.81134425278815
 30
0.0
 11
-144.8254613637413
 21
-100.1323597636274
 31
0.0
  0
LINE
  5
59
330
1F
100
AcDbEntity
  8
0
100
AcDbLine
 10
-144.8254613637413
 20
-100.1323597636274
 30
0.0
 11
-144.6706157088591
 21
-100.5061902437184
 31
0.0
  0
LINE
  5
5A
330
1F
100
AcDbEntity
  8
0
100
AcDbLine
 10
-144.6706157088591
 20
-100.5061902437184
 30
0.0
 11
-144.6178007396071
 21
-100.9073597636274
 31
0.0
  0
LINE
  5
5B
330
1F
100
AcDbEntity
  8
0
100
AcDbLine
 10
-144.6178007396071
 20
-100.9073597636274
 30
0.0
 11
-144.6706157088591
 21
-101.3085292835362
 31
0.0
  0
LINE
  5
5C
330
1F
100
AcDbEntity
  8
0
100
AcDbLine
 10
-144.6706157088591
 20
-101.3085292835362
 30
0.0
 11
-144.8254613637413
 21
-101.6823597636274
 31
0.0
  0
LINE
  5
5D
330
1F
100
AcDbEntity
  8
0
100
AcDbLine
 10
-144.8254613637413
 20
-101.6823597636274
 30
0.0
 11
-145.0717852287681
 21
-102.0033752744665
 31
0.0
  0
LINE
  5
5E
330
1F
100
AcDbEntity
  8
0
100
AcDbLine
 10
-145.0717852287681
 20
-102.0033752744665
 30
0.0
 11
-145.3928007396071
 21
-102.2496991394932
 31
0.0
  0
LINE
  5
5F
330
1F
100
AcDbEntity
  8
0
100
AcDbLine
 10
-145.3928007396071
 20
-102.2496991394932
 30
0.0
 11
-145.7666312196983
 21
-102.4045447943754
 31
0.0
  0
LINE
  5
60
330
1F
100
AcDbEntity
  8
0
100
AcDbLine
 10
-145.7666312196983
 20
-102.4045447943754
 30
0.0
 11
-146.1678007396071
 21
-102.4573597636274
 31
0.0
  0
LINE
  5
61
330
1F
100
AcDbEntity
  8
0
100
AcDbLine
 10
-146.1678007396071
 20
-102.4573597636274
 30
0.0
 11
-146.5689702595161
 21
-102.4045447943754
 31
0.0
  0
LINE
  5
62
330
1F
100
AcDbEntity
  8
0
100
AcDbLine
 10
-146.5689702595161
 20
-102.4045447943754
 30
0.0
 11
-146.942800739607
 21
-102.2496991394932
 31
0.0
  0
LINE
  5
63
330
1F
100
AcDbEntity
  8
0
100
AcDbLine
 10
-146.942800739607
 20
-102.2496991394932
 30
0.0
 11
-147.2638162504464
 21
-102.0033752744665
 31
0.0
  0
LINE
  5
64
330
1F
100
AcDbEntity
  8
0
100
AcDbLine
 10
-147.2638162504464
 20
-102.0033752744665
 30
0.0
 11
-147.510140115473
 21
-101.6823597636274
 31
0.0
  0
LINE
  5
65
330
1F
100
AcDbEntity
  8
0
100
AcDbLine
 10
-147.510140115473
 20
-101.6823597636274
 30
0.0
 11
-147.6649857703551
 21
-101.3085292835362
 31
0.0
  0
LINE
  5
66
330
1F
100
AcDbEntity
  8
0
100
AcDbLine
 10
-147.2638162504465
 20
0.1886557472093244
 30
0.0
 11
-146.9428007396073
 21
0.4349796122361127
 31
0.0
  0
LINE
  5
67
330
1F
100
AcDbEntity
  8
0
100
AcDbLine
 10
-146.9428007396073
 20
0.4349796122361127
 30
0.0
 11
-146.5689702595163
 21
0.5898252671182973
 31
0.0
  0
LINE
  5
68
330
1F
100
AcDbEntity
  8
0
100
AcDbLine
 10
-146.5689702595163
 20
0.5898252671182973
 30
0.0
 11
-146.1678007396073
 21
0.6426402363700845
 31
0.0
  0
LINE
  5
69
330
1F
100
AcDbEntity
  8
0
100
AcDbLine
 10
-147.6649857703551
 20
-100.5061902437184
 30
0.0
 11
-147.510140115473
 21
-100.1323597636274
 31
0.0
  0
LINE
  5
6A
330
1F
100
AcDbEntity
  8
0
100
AcDbLine
 10
-145.7666312196986
 20
0.5898252671182973
 30
0.0
 11
-145.3928007396074
 21
0.4349796122361127
 31
0.0
  0
LINE
  5
6B
330
1F
100
AcDbEntity
  8
0
100
AcDbLine
 10
-145.3928007396074
 20
0.4349796122361127
 30
0.0
 11
-145.0717852287682
 21
0.1886557472093244
 31
0.0
  0
LINE
  5
6C
330
1F
100
AcDbEntity
  8
0
100
AcDbLine
 10
-145.0717852287682
 20
0.1886557472093244
 30
0.0
 11
-144.8254613637415
 21
-0.1323597636297393
 31
0.0
  0
LINE
  5
6D
330
1F
100
AcDbEntity
  8
0
100
AcDbLine
 10
-144.8254613637415
 20
-0.1323597636297393
 30
0.0
 11
-144.6706157088593
 21
-0.5061902437209511
 31
0.0
  0
LINE
  5
6E
330
1F
100
AcDbEntity
  8
0
100
AcDbLine
 10
-144.6706157088593
 20
-0.5061902437209511
 30
0.0
 11
-144.6178007396073
 21
-0.907359763629924
 31
0.0
  0
LINE
  5
6F
330
1F
100
AcDbEntity
  8
0
100
AcDbLine
 10
-144.6178007396073
 20
-0.907359763629924
 30
0.0
 11
-144.6706157088593
 21
-1.308529283538716
 31
0.0
  0
LINE
  5
70
330
1F
100
AcDbEntity
  8
0
100
AcDbLine
 10
-144.6706157088593
 20
-1.308529283538716
 30
0.0
 11
-144.8254613637415
 21
-1.682359763629748
 31
0.0
  0
LINE
  5
71
330
1F
100
AcDbEntity
  8
0
100
AcDbLine
 10
-144.8254613637415
 20
-1.682359763629748
 30
0.0
 11
-145.0717852287682
 21
-2.003375274468992
 31
0.0
  0
LINE
  5
72
330
1F
100
AcDbEntity
  8
0
100
AcDbLine
 10
-145.0717852287682
 20
-2.003375274468992
 30
0.0
 11
-145.3928007396074
 21
-2.24969913949578
 31
0.0
  0
LINE
  5
73
330
1F
100
AcDbEntity
  8
0
100
AcDbLine
 10
-145.3928007396074
 20
-2.24969913949578
 30
0.0
 11
-145.7666312196986
 21
-2.404544794377965
 31
0.0
  0
LINE
  5
74
330
1F
100
AcDbEntity
  8
0
100
AcDbLine
 10
-145.7666312196986
 20
-2.404544794377965
 30
0.0
 11
-146.1678007396073
 21
-2.457359763629932
 31
0.0
  0
LINE
  5
75
330
1F
100
AcDbEntity
  8
0
100
AcDbLine
 10
-146.1678007396073
 20
-2.457359763629932
 30
0.0
 11
-146.5689702595163
 21
-2.404544794377965
 31
0.0
  0
LINE
  5
76
330
1F
100
AcDbEntity
  8
0
100
AcDbLine
 10
-146.5689702595163
 20
-2.404544794377965
 30
0.0
 11
-146.9428007396073
 21
-2.24969913949578
 31
0.0
  0
LINE
  5
77
330
1F
100
AcDbEntity
  8
0
100
AcDbLine
 10
-146.9428007396073
 20
-2.24969913949578
 30
0.0
 11
-147.2638162504465
 21
-2.003375274468992
 31
0.0
  0
LINE
  5
78
330
1F
100
AcDbEntity
  8
0
100
AcDbLine
 10
-147.2638162504465
 20
-2.003375274468992
 30
0.0
 11
-147.5101401154731
 21
-1.682359763629748
 31
0.0
  0
LINE
  5
79
330
1F
100
AcDbEntity
  8
0
100
AcDbLine
 10
-147.5101401154731
 20
-1.682359763629748
 30
0.0
 11
-147.6649857703553
 21
-1.308529283538716
 31
0.0
  0
LINE
  5
7A
330
1F
100
AcDbEntity
  8
0
100
AcDbLine
 10
-147.6649857703553
 20
-1.308529283538716
 30
0.0
 11
-147.7178007396073
 21
-0.907359763629924
 31
0.0
  0
LINE
  5
7B
330
1F
100
AcDbEntity
  8
0
100
AcDbLine
 10
-147.7178007396073
 20
-0.907359763629924
 30
0.0
 11
-147.6649857703553
 21
-0.5061902437209511
 31
0.0
  0
LINE
  5
7C
330
1F
100
AcDbEntity
  8
0
100
AcDbLine
 10
-147.6649857703553
 20
-0.5061902437209511
 30
0.0
 11
-147.5101401154731
 21
-0.1323597636297393
 31
0.0
  0
LINE
  5
7D
330
1F
100
AcDbEntity
  8
0
100
AcDbLine
 10
-147.5101401154731
 20
-0.1323597636297393
 30
0.0
 11
-147.2638162504465
 21
0.1886557472093244
 31
0.0
  0
LINE
  5
7E
330
1F
100
AcDbEntity
  8
0
100
AcDbLine
 10
-82.93906584676658
 20
-145.9073597636275
 30
0.0
 11
-82.99188081601864
 21
-146.3085292835364
 31
0.0
  0
LINE
  5
7F
330
1F
100
AcDbEntity
  8
0
100
AcDbLine
 10
-82.99188081601864
 20
-146.3085292835364
 30
0.0
 11
-83.14672647090073
 21
-146.6823597636275
 31
0.0
  0
LINE
  5
80
330
1F
100
AcDbEntity
  8
0
100
AcDbLine
 10
-83.14672647090073
 20
-146.6823597636275
 30
0.0
 11
-83.39305033592734
 21
-147.0033752744667
 31
0.0
  0
LINE
  5
81
330
1F
100
AcDbEntity
  8
0
100
AcDbLine
 10
-83.39305033592734
 20
-147.0033752744667
 30
0.0
 11
-83.71406584676667
 21
-147.2496991394935
 31
0.0
  0
LINE
  5
82
330
1F
100
AcDbEntity
  8
0
100
AcDbLine
 10
-146.1678007396073
 20
0.6426402363700845
 30
0.0
 11
-145.7666312196986
 21
0.5898252671182973
 31
0.0
  0
LINE
  5
83
330
1F
100
AcDbEntity
  8
0
100
AcDbLine
 10
-147.7178004569795
 20
99.09170420967422
 30
0.0
 11
-147.6652277588938
 21
99.49290555076989
 31
0.0
  0
LINE
  5
84
330
1F
100
AcDbEntity
  8
0
100
AcDbLine
 10
-147.6652277588938
 20
99.49290555076989
 30
0.0
 11
-147.5106078840588
 21
99.86682947215908
 31
0.0
  0
LINE
  5
85
330
1F
100
AcDbEntity
  8
0
100
AcDbLine
 10
-147.5106078840588
 20
99.86682947215908
 30
0.0
 11
-147.2644779214232
 21
100.1879936765374
 31
0.0
  0
LINE
  5
86
330
1F
100
AcDbEntity
  8
0
100
AcDbLine
 10
-147.2644779214232
 20
100.1879936765374
 30
0.0
 11
-146.9436112211916
 21
100.4345113541257
 31
0.0
  0
LINE
  5
87
330
1F
100
AcDbEntity
  8
0
100
AcDbLine
 10
-146.9436112211916
 20
100.4345113541257
 30
0.0
 11
-146.5698743187274
 21
100.5895827325858
 31
0.0
  0
LINE
  5
88
330
1F
100
AcDbEntity
  8
0
100
AcDbLine
 10
-146.5698743187274
 20
100.5895827325858
 30
0.0
 11
-146.1687367663042
 21
100.6426399537432
 31
0.0
  0
LINE
  5
89
330
1F
100
AcDbEntity
  8
0
100
AcDbLine
 10
-146.1687367663042
 20
100.6426399537432
 30
0.0
 11
-145.7675354252085
 21
100.5900672556575
 31
0.0
  0
LINE
  5
8A
330
1F
100
AcDbEntity
  8
0
100
AcDbLine
 10
-145.7675354252085
 20
100.5900672556575
 30
0.0
 11
-145.3936115038195
 21
100.4354473808225
 31
0.0
  0
LINE
  5
8B
330
1F
100
AcDbEntity
  8
0
100
AcDbLine
 10
-145.3936115038195
 20
100.4354473808225
 30
0.0
 11
-145.0724472994409
 21
100.1893174181868
 31
0.0
  0
LINE
  5
8C
330
1F
100
AcDbEntity
  8
0
100
AcDbLine
 10
-145.0724472994409
 20
100.1893174181868
 30
0.0
 11
-144.8259296218527
 21
99.86845071795528
 31
0.0
  0
LINE
  5
8D
330
1F
100
AcDbEntity
  8
0
100
AcDbLine
 10
-144.8259296218527
 20
99.86845071795528
 30
0.0
 11
-144.6708582433927
 21
99.49471381549105
 31
0.0
  0
LINE
  5
8E
330
1F
100
AcDbEntity
  8
0
100
AcDbLine
 10
-144.6708582433927
 20
99.49471381549105
 30
0.0
 11
-144.6178010222352
 21
99.09357626306792
 31
0.0
  0
LINE
  5
8F
330
1F
100
AcDbEntity
  8
0
100
AcDbLine
 10
-144.6178010222352
 20
99.09357626306792
 30
0.0
 11
-144.6703737203211
 21
98.69237492197225
 31
0.0
  0
LINE
  5
90
330
1F
100
AcDbEntity
  8
0
100
AcDbLine
 10
-144.6703737203211
 20
98.69237492197225
 30
0.0
 11
-144.8249935951559
 21
98.31845100058305
 31
0.0
  0
LINE
  5
91
330
1F
100
AcDbEntity
  8
0
100
AcDbLine
 10
-144.8249935951559
 20
98.31845100058305
 30
0.0
 11
-145.0711235577915
 21
97.99728679620453
 31
0.0
  0
LINE
  5
92
330
1F
100
AcDbEntity
  8
0
100
AcDbLine
 10
-145.0711235577915
 20
97.99728679620453
 30
0.0
 11
-145.3919902580233
 21
97.75076911861639
 31
0.0
  0
LINE
  5
93
330
1F
100
AcDbEntity
  8
0
100
AcDbLine
 10
-145.3919902580233
 20
97.75076911861639
 30
0.0
 11
-145.7657271604873
 21
97.59569774015618
 31
0.0
  0
LINE
  5
94
330
1F
100
AcDbEntity
  8
0
100
AcDbLine
 10
-145.7657271604873
 20
97.59569774015618
 30
0.0
 11
-146.1668647129106
 21
97.54264051899875
 31
0.0
  0
LINE
  5
95
330
1F
100
AcDbEntity
  8
0
100
AcDbLine
 10
-146.1668647129106
 20
97.54264051899875
 30
0.0
 11
-146.5680660540062
 21
97.59521321708465
 31
0.0
  0
LINE
  5
96
330
1F
100
AcDbEntity
  8
0
100
AcDbLine
 10
-146.5680660540062
 20
97.59521321708465
 30
0.0
 11
-146.9419899753954
 21
97.74983309191963
 31
0.0
  0
LINE
  5
97
330
1F
100
AcDbEntity
  8
0
100
AcDbLine
 10
-146.9419899753954
 20
97.74983309191963
 30
0.0
 11
-147.2631541797737
 21
97.9959630545551
 31
0.0
  0
LINE
  5
98
330
1F
100
AcDbEntity
  8
0
100
AcDbLine
 10
-147.2631541797737
 20
97.9959630545551
 30
0.0
 11
-147.5096718573619
 21
98.31682975478685
 31
0.0
  0
LINE
  5
99
330
1F
100
AcDbEntity
  8
0
100
AcDbLine
 10
-147.5096718573619
 20
98.31682975478685
 30
0.0
 11
-147.6647432358221
 21
98.69056665725108
 31
0.0
  0
LINE
  5
9A
330
1F
100
AcDbEntity
  8
0
100
AcDbLine
 10
-147.6647432358221
 20
98.69056665725108
 30
0.0
 11
-147.7178004569795
 21
99.09170420967422
 31
0.0
  0
LINE
  5
9B
330
1F
100
AcDbEntity
  8
0
100
AcDbLine
 10
-84.4890658467666
 20
-144.3573597636274
 30
0.0
 11
-84.08789632685762
 21
-144.4101747328794
 31
0.0
  0
LINE
  5
9C
330
1F
100
AcDbEntity
  8
0
100
AcDbLine
 10
-84.08789632685762
 20
-144.4101747328794
 30
0.0
 11
-83.71406584676667
 21
-144.5650203877616
 31
0.0
  0
LINE
  5
9D
330
1F
100
AcDbEntity
  8
0
100
AcDbLine
 10
-83.71406584676667
 20
-144.5650203877616
 30
0.0
 11
-83.39305033592734
 21
-144.8113442527884
 31
0.0
  0
LINE
  5
9E
330
1F
100
AcDbEntity
  8
0
100
AcDbLine
 10
-83.39305033592734
 20
-144.8113442527884
 30
0.0
 11
-83.14672647090073
 21
-145.1323597636274
 31
0.0
  0
LINE
  5
9F
330
1F
100
AcDbEntity
  8
0
100
AcDbLine
 10
-83.14672647090073
 20
-145.1323597636274
 30
0.0
 11
-82.99188081601864
 21
-145.5061902437187
 31
0.0
  0
LINE
  5
A0
330
1F
100
AcDbEntity
  8
0
100
AcDbLine
 10
-82.99188081601864
 20
-145.5061902437187
 30
0.0
 11
-82.93906584676658
 21
-145.9073597636275
 31
0.0
  0
LINE
  5
A1
330
1F
100
AcDbEntity
  8
0
100
AcDbLine
 10
-109.7950892380687
 20
42.3940893389082
 30
0.0
 11
-109.4343006584943
 21
42.8575897269035
 31
0.0
  0
LINE
  5
A2
330
1F
100
AcDbEntity
  8
0
100
AcDbLine
 10
56.05912175147476
 20
-88.12906363373718
 30
0.0
 11
83.45912175147448
 21
-88.12906363373718
 31
0.0
  0
LINE
  5
A3
330
1F
100
AcDbEntity
  8
0
100
AcDbLine
 10
73.0416465706962
 20
-54.8559013305853
 30
0.0
 11
73.36266208153535
 21
-54.60957746555852
 31
0.0
  0
LINE
  5
A4
330
1F
100
AcDbEntity
  8
0
100
AcDbLine
 10
70.53412175147436
 20
-78.27140300960305
 30
0.0
 11
70.16029127138333
 21
-78.42624866448524
 31
0.0
  0
LINE
  5
A5
330
1F
100
AcDbEntity
  8
0
100
AcDbLine
 10
-83.71406584676667
 20
-147.2496991394935
 30
0.0
 11
-84.08789632685762
 21
-147.4045447943755
 31
0.0
  0
LINE
  5
A6
330
1F
100
AcDbEntity
  8
0
100
AcDbLine
 10
-84.08789632685762
 20
-147.4045447943755
 30
0.0
 11
-84.4890658467666
 21
-147.4573597636275
 31
0.0
  0
LINE
  5
A7
330
1F
100
AcDbEntity
  8
0
100
AcDbLine
 10
-84.4890658467666
 20
-147.4573597636275
 30
0.0
 11
-84.89023536667547
 21
-147.4045447943755
 31
0.0
  0
LINE
  5
A8
330
1F
100
AcDbEntity
  8
0
100
AcDbLine
 10
-84.89023536667547
 20
-147.4045447943755
 30
0.0
 11
-85.26406584676668
 21
-147.2496991394935
 31
0.0
  0
LINE
  5
A9
330
1F
100
AcDbEntity
  8
0
100
AcDbLine
 10
-85.26406584676668
 20
-147.2496991394935
 30
0.0
 11
-85.58508135760574
 21
-147.0033752744667
 31
0.0
  0
LINE
  5
AA
330
1F
100
AcDbEntity
  8
0
100
AcDbLine
 10
-85.58508135760574
 20
-147.0033752744667
 30
0.0
 11
-85.83140522263245
 21
-146.6823597636275
 31
0.0
  0
LINE
  5
AB
330
1F
100
AcDbEntity
  8
0
100
AcDbLine
 10
-85.83140522263245
 20
-146.6823597636275
 30
0.0
 11
-85.98625087751472
 21
-146.3085292835364
 31
0.0
  0
LINE
  5
AC
330
1F
100
AcDbEntity
  8
0
100
AcDbLine
 10
-85.98625087751472
 20
-146.3085292835364
 30
0.0
 11
-86.0390658467666
 21
-145.9073597636275
 31
0.0
  0
LINE
  5
AD
330
1F
100
AcDbEntity
  8
0
100
AcDbLine
 10
-86.0390658467666
 20
-145.9073597636275
 30
0.0
 11
-85.98625087751472
 21
-145.5061902437187
 31
0.0
  0
LINE
  5
AE
330
1F
100
AcDbEntity
  8
0
100
AcDbLine
 10
-85.98625087751472
 20
-145.5061902437187
 30
0.0
 11
-85.83140522263245
 21
-145.1323597636274
 31
0.0
  0
LINE
  5
AF
330
1F
100
AcDbEntity
  8
0
100
AcDbLine
 10
-85.83140522263245
 20
-145.1323597636274
 30
0.0
 11
-85.58508135760574
 21
-144.8113442527884
 31
0.0
  0
LINE
  5
B0
330
1F
100
AcDbEntity
  8
0
100
AcDbLine
 10
-85.58508135760574
 20
-144.8113442527884
 30
0.0
 11
-85.26406584676668
 21
-144.5650203877616
 31
0.0
  0
LINE
  5
B1
330
1F
100
AcDbEntity
  8
0
100
AcDbLine
 10
-85.26406584676668
 20
-144.5650203877616
 30
0.0
 11
-84.89023536667547
 21
-144.4101747328794
 31
0.0
  0
LINE
  5
B2
330
1F
100
AcDbEntity
  8
0
100
AcDbLine
 10
-84.89023536667547
 20
-144.4101747328794
 30
0.0
 11
-84.4890658467666
 21
-144.3573597636274
 31
0.0
  0
LINE
  5
B3
330
1F
100
AcDbEntity
  8
0
100
AcDbLine
 10
-85.26713359526428
 20
145.4349796122383
 30
0.0
 11
-84.89330311517325
 21
145.5898252671205
 31
0.0
  0
LINE
  5
B4
330
1F
100
AcDbEntity
  8
0
100
AcDbLine
 10
-84.89330311517325
 20
145.5898252671205
 30
0.0
 11
-84.49213359526428
 21
145.6426402363725
 31
0.0
  0
LINE
  5
B5
330
1F
100
AcDbEntity
  8
0
100
AcDbLine
 10
-84.49213359526428
 20
145.6426402363725
 30
0.0
 11
-84.09096407535549
 21
145.5898252671205
 31
0.0
  0
LINE
  5
B6
330
1F
100
AcDbEntity
  8
0
100
AcDbLine
 10
-84.09096407535549
 20
145.5898252671205
 30
0.0
 11
-83.71713359526427
 21
145.4349796122383
 31
0.0
  0
LINE
  5
B7
330
1F
100
AcDbEntity
  8
0
100
AcDbLine
 10
-83.71713359526427
 20
145.4349796122383
 30
0.0
 11
-83.39611808442521
 21
145.1886557472115
 31
0.0
  0
LINE
  5
B8
330
1F
100
AcDbEntity
  8
0
100
AcDbLine
 10
-83.39611808442521
 20
145.1886557472115
 30
0.0
 11
-83.14979421939842
 21
144.8676402363727
 31
0.0
  0
LINE
  5
B9
330
1F
100
AcDbEntity
  8
0
100
AcDbLine
 10
-83.14979421939842
 20
144.8676402363727
 30
0.0
 11
-82.99494856451624
 21
144.4938097562815
 31
0.0
  0
LINE
  5
BA
330
1F
100
AcDbEntity
  8
0
100
AcDbLine
 10
-82.99494856451624
 20
144.4938097562815
 30
0.0
 11
-82.94213359526445
 21
144.0926402363725
 31
0.0
  0
LINE
  5
BB
330
1F
100
AcDbEntity
  8
0
100
AcDbLine
 10
-82.94213359526445
 20
144.0926402363725
 30
0.0
 11
-82.99494856451642
 21
143.6914707164637
 31
0.0
  0
LINE
  5
BC
330
1F
100
AcDbEntity
  8
0
100
AcDbLine
 10
70.1602912713807
 20
93.59545520562475
 30
0.0
 11
69.75912175147182
 21
93.54264023637278
 31
0.0
  0
LINE
  5
BD
330
1F
100
AcDbEntity
  8
0
100
AcDbLine
 10
68.41678237560596
 20
94.31764023637297
 30
0.0
 11
68.26193672072378
 21
94.691470716464
 31
0.0
  0
LINE
  5
BE
330
1F
100
AcDbEntity
  8
0
100
AcDbLine
 10
68.26193672072414
 20
74.69147071646385
 30
0.0
 11
68.20912175147235
 21
75.09264023637265
 31
0.0
  0
LINE
  5
BF
330
1F
100
AcDbEntity
  8
0
100
AcDbLine
 10
-84.49213359526446
 20
142.5426402363725
 30
0.0
 11
-84.89330311517342
 21
142.5954552056244
 31
0.0
  0
LINE
  5
C0
330
1F
100
AcDbEntity
  8
0
100
AcDbLine
 10
-84.89330311517342
 20
142.5954552056244
 30
0.0
 11
-85.26713359526445
 21
142.7503008605066
 31
0.0
  0
LINE
  5
C1
330
1F
100
AcDbEntity
  8
0
100
AcDbLine
 10
-85.26713359526445
 20
142.7503008605066
 30
0.0
 11
-85.5881491061037
 21
142.9966247255332
 31
0.0
  0
LINE
  5
C2
330
1F
100
AcDbEntity
  8
0
100
AcDbLine
 10
-85.5881491061037
 20
142.9966247255332
 30
0.0
 11
-85.83447297113031
 21
143.3176402363725
 31
0.0
  0
LINE
  5
C3
330
1F
100
AcDbEntity
  8
0
100
AcDbLine
 10
-85.83447297113031
 20
143.3176402363725
 30
0.0
 11
-85.98931862601249
 21
143.6914707164635
 31
0.0
  0
LINE
  5
C4
330
1F
100
AcDbEntity
  8
0
100
AcDbLine
 10
-85.98931862601249
 20
143.6914707164635
 30
0.0
 11
-86.04213359526446
 21
144.0926402363725
 31
0.0
  0
LINE
  5
C5
330
1F
100
AcDbEntity
  8
0
100
AcDbLine
 10
-86.04213359526446
 20
144.0926402363725
 30
0.0
 11
-85.98931862601249
 21
144.4938097562815
 31
0.0
  0
LINE
  5
C6
330
1F
100
AcDbEntity
  8
0
100
AcDbLine
 10
-85.98931862601249
 20
144.4938097562815
 30
0.0
 11
-85.83447297113031
 21
144.8676402363725
 31
0.0
  0
LINE
  5
C7
330
1F
100
AcDbEntity
  8
0
100
AcDbLine
 10
-85.83447297113031
 20
144.8676402363725
 30
0.0
 11
-85.58814910610353
 21
145.1886557472117
 31
0.0
  0
LINE
  5
C8
330
1F
100
AcDbEntity
  8
0
100
AcDbLine
 10
-85.58814910610353
 20
145.1886557472117
 30
0.0
 11
-85.26713359526428
 21
145.4349796122383
 31
0.0
  0
LINE
  5
C9
330
1F
100
AcDbEntity
  8
0
100
AcDbLine
 10
70.16029127138115
 20
76.58982526712069
 30
0.0
 11
70.53412175147228
 21
76.4349796122385
 31
0.0
  0
LINE
  5
CA
330
1F
100
AcDbEntity
  8
0
100
AcDbLine
 10
71.25630678222032
 20
75.49380975628162
 30
0.0
 11
71.30912175147219
 21
75.09264023637265
 31
0.0
  0
LINE
  5
CB
330
1F
100
AcDbEntity
  8
0
100
AcDbLine
 10
-107.8699745823006
 20
99.8859972173104
 30
0.0
 11
-108.4517719827559
 21
99.96669909861949
 31
0.0
  0
LINE
  5
CC
330
1F
100
AcDbEntity
  8
0
100
AcDbLine
 10
69.75912175147218
 20
73.54264023637263
 30
0.0
 11
69.35795223156339
 21
73.5954552056246
 31
0.0
  0
LINE
  5
CD
330
1F
100
AcDbEntity
  8
0
100
AcDbLine
 10
68.66310624063311
 20
73.99662472553358
 30
0.0
 11
68.41678237560633
 21
74.31764023637282
 31
0.0
  0
LINE
  5
CE
330
1F
100
AcDbEntity
  8
0
100
AcDbLine
 10
68.26193672072685
 20
-96.52789411382837
 30
0.0
 11
68.41678237560903
 21
-96.15406363373734
 31
0.0
  0
LINE
  5
CF
330
1F
100
AcDbEntity
  8
0
100
AcDbLine
 10
68.41678237560903
 20
-96.15406363373734
 30
0.0
 11
68.66310624063573
 21
-95.83304812289809
 31
0.0
  0
LINE
  5
D0
330
1F
100
AcDbEntity
  8
0
100
AcDbLine
 10
-66.80293461761372
 20
40.13060886434243
 30
0.0
 11
-67.0277105682492
 21
40.6732660128617
 31
0.0
  0
LINE
  5
D1
330
1F
100
AcDbEntity
  8
0
100
AcDbLine
 10
-67.10437745909879
 20
41.25560886434236
 30
0.0
 11
-67.0277105682492
 21
41.83795171582301
 31
0.0
  0
LINE
  5
D2
330
1F
100
AcDbEntity
  8
0
100
AcDbLine
 10
-67.0277105682492
 20
41.83795171582301
 30
0.0
 11
-66.8029346176139
 21
42.38060886434246
 31
0.0
  0
LINE
  5
D3
330
1F
100
AcDbEntity
  8
0
100
AcDbLine
 10
-66.8029346176139
 20
42.38060886434246
 30
0.0
 11
-66.44536771676863
 21
42.84659912201206
 31
0.0
  0
LINE
  5
D4
330
1F
100
AcDbEntity
  8
0
100
AcDbLine
 10
-65.97937745909886
 20
43.2041660228575
 30
0.0
 11
-65.4367203105795
 21
43.4289419734929
 31
0.0
  0
LINE
  5
D5
330
1F
100
AcDbEntity
  8
0
100
AcDbLine
 10
-65.4367203105795
 20
43.4289419734929
 30
0.0
 11
-64.85437745909893
 21
43.50560886434256
 31
0.0
  0
LINE
  5
D6
330
1F
100
AcDbEntity
  8
0
100
AcDbLine
 10
-64.85437745909893
 20
43.50560886434256
 30
0.0
 11
-64.27203460761818
 21
43.4289419734929
 31
0.0
  0
LINE
  5
D7
330
1F
100
AcDbEntity
  8
0
100
AcDbLine
 10
-64.27203460761818
 20
43.4289419734929
 30
0.0
 11
-63.72937745909883
 21
43.2041660228575
 31
0.0
  0
LINE
  5
D8
330
1F
100
AcDbEntity
  8
0
100
AcDbLine
 10
-63.72937745909883
 20
43.2041660228575
 30
0.0
 11
-63.26338720142905
 21
42.84659912201224
 31
0.0
  0
LINE
  5
D9
330
1F
100
AcDbEntity
  8
0
100
AcDbLine
 10
71.10146112734074
 20
-96.15406363373734
 30
0.0
 11
71.25630678222294
 21
-96.52789411382837
 31
0.0
  0
LINE
  5
DA
330
1F
100
AcDbEntity
  8
0
100
AcDbLine
 10
71.25630678222294
 20
-96.52789411382837
 30
0.0
 11
71.3091217514748
 21
-96.92906363373734
 31
0.0
  0
LINE
  5
DB
330
1F
100
AcDbEntity
  8
0
100
AcDbLine
 10
71.3091217514748
 20
-96.92906363373734
 30
0.0
 11
71.25630678222294
 21
-97.33023315364632
 31
0.0
  0
LINE
  5
DC
330
1F
100
AcDbEntity
  8
0
100
AcDbLine
 10
71.25630678222294
 20
-97.33023315364632
 30
0.0
 11
71.10146112734074
 21
-97.70406363373735
 31
0.0
  0
LINE
  5
DD
330
1F
100
AcDbEntity
  8
0
100
AcDbLine
 10
71.10146112734074
 20
-97.70406363373735
 30
0.0
 11
70.85513726231396
 21
-98.02507914457641
 31
0.0
  0
LINE
  5
DE
330
1F
100
AcDbEntity
  8
0
100
AcDbLine
 10
70.85513726231396
 20
-98.02507914457641
 30
0.0
 11
70.5341217514748
 21
-98.27140300960319
 31
0.0
  0
LINE
  5
DF
330
1F
100
AcDbEntity
  8
0
100
AcDbLine
 10
70.5341217514748
 20
-98.27140300960319
 30
0.0
 11
70.16029127138377
 21
-98.42624866448539
 31
0.0
  0
LINE
  5
E0
330
1F
100
AcDbEntity
  8
0
100
AcDbLine
 10
70.16029127138377
 20
-98.42624866448539
 30
0.0
 11
69.75912175147481
 21
-98.47906363373735
 31
0.0
  0
LINE
  5
E1
330
1F
100
AcDbEntity
  8
0
100
AcDbLine
 10
69.75912175147481
 20
-98.47906363373735
 30
0.0
 11
69.35795223156592
 21
-98.42624866448539
 31
0.0
  0
LINE
  5
E2
330
1F
100
AcDbEntity
  8
0
100
AcDbLine
 10
69.35795223156592
 20
-98.42624866448539
 30
0.0
 11
68.98412175147489
 21
-98.27140300960319
 31
0.0
  0
LINE
  5
E3
330
1F
100
AcDbEntity
  8
0
100
AcDbLine
 10
68.98412175147489
 20
-98.27140300960319
 30
0.0
 11
68.66310624063573
 21
-98.02507914457641
 31
0.0
  0
LINE
  5
E4
330
1F
100
AcDbEntity
  8
0
100
AcDbLine
 10
68.66310624063573
 20
-98.02507914457641
 30
0.0
 11
68.41678237560895
 21
-97.70406363373735
 31
0.0
  0
LINE
  5
E5
330
1F
100
AcDbEntity
  8
0
100
AcDbLine
 10
68.41678237560895
 20
-97.70406363373735
 30
0.0
 11
68.26193672072685
 21
-97.33023315364613
 31
0.0
  0
LINE
  5
E6
330
1F
100
AcDbEntity
  8
0
100
AcDbLine
 10
68.26193672072685
 20
-97.33023315364613
 30
0.0
 11
68.20912175147488
 21
-96.92906363373734
 31
0.0
  0
LINE
  5
E7
330
1F
100
AcDbEntity
  8
0
100
AcDbLine
 10
71.1014611273402
 20
-77.7040636337372
 30
0.0
 11
70.85513726231342
 21
-78.02507914457627
 31
0.0
  0
LINE
  5
E8
330
1F
100
AcDbEntity
  8
0
100
AcDbLine
 10
70.85513726231342
 20
-78.02507914457627
 30
0.0
 11
70.53412175147436
 21
-78.27140300960305
 31
0.0
  0
LINE
  5
E9
330
1F
100
AcDbEntity
  8
0
100
AcDbLine
 10
69.35795223156546
 20
-78.42624866448506
 30
0.0
 11
68.98412175147435
 21
-78.27140300960305
 31
0.0
  0
LINE
  5
EA
330
1F
100
AcDbEntity
  8
0
100
AcDbLine
 10
68.98412175147435
 20
-78.27140300960305
 30
0.0
 11
68.66310624063529
 21
-78.02507914457627
 31
0.0
  0
LINE
  5
EB
330
1F
100
AcDbEntity
  8
0
100
AcDbLine
 10
68.66310624063529
 20
-78.02507914457627
 30
0.0
 11
68.41678237560849
 21
-77.70406363373702
 31
0.0
  0
LINE
  5
EC
330
1F
100
AcDbEntity
  8
0
100
AcDbLine
 10
68.26193672072631
 20
-77.33023315364599
 30
0.0
 11
68.20912175147434
 21
-76.9290636337372
 31
0.0
  0
LINE
  5
ED
330
1F
100
AcDbEntity
  8
0
100
AcDbLine
 10
68.20912175147434
 20
-76.9290636337372
 30
0.0
 11
68.26193672072631
 21
-76.52789411382822
 31
0.0
  0
LINE
  5
EE
330
1F
100
AcDbEntity
  8
0
100
AcDbLine
 10
68.26193672072631
 20
-76.52789411382822
 30
0.0
 11
68.41678237560849
 21
-76.1540636337372
 31
0.0
  0
LINE
  5
EF
330
1F
100
AcDbEntity
  8
0
100
AcDbLine
 10
68.41678237560849
 20
-76.1540636337372
 30
0.0
 11
68.66310624063529
 21
-75.83304812289795
 31
0.0
  0
LINE
  5
F0
330
1F
100
AcDbEntity
  8
0
100
AcDbLine
 10
68.66310624063529
 20
-75.83304812289795
 30
0.0
 11
68.98412175147435
 21
-75.58672425787134
 31
0.0
  0
LINE
  5
F1
330
1F
100
AcDbEntity
  8
0
100
AcDbLine
 10
68.98412175147435
 20
-75.58672425787134
 30
0.0
 11
69.35795223156556
 21
-75.43187860298916
 31
0.0
  0
LINE
  5
F2
330
1F
100
AcDbEntity
  8
0
100
AcDbLine
 10
69.35795223156556
 20
-75.43187860298916
 30
0.0
 11
69.75912175147435
 21
-75.37906363373719
 31
0.0
  0
LINE
  5
F3
330
1F
100
AcDbEntity
  8
0
100
AcDbLine
 10
69.75912175147435
 20
-75.37906363373719
 30
0.0
 11
70.16029127138333
 21
-75.43187860298916
 31
0.0
  0
LINE
  5
F4
330
1F
100
AcDbEntity
  8
0
100
AcDbLine
 10
70.16029127138333
 20
-75.43187860298916
 30
0.0
 11
70.53412175147436
 21
-75.58672425787134
 31
0.0
  0
LINE
  5
F5
330
1F
100
AcDbEntity
  8
0
100
AcDbLine
 10
70.53412175147436
 20
-75.58672425787134
 30
0.0
 11
70.8551372623136
 21
-75.83304812289795
 31
0.0
  0
LINE
  5
F6
330
1F
100
AcDbEntity
  8
0
100
AcDbLine
 10
70.8551372623136
 20
-75.83304812289795
 30
0.0
 11
71.1014611273402
 21
-76.1540636337372
 31
0.0
  0
LINE
  5
F7
330
1F
100
AcDbEntity
  8
0
100
AcDbLine
 10
71.1014611273402
 20
-76.1540636337372
 30
0.0
 11
71.2563067822224
 21
-76.52789411382822
 31
0.0
  0
LINE
  5
F8
330
1F
100
AcDbEntity
  8
0
100
AcDbLine
 10
83.45912175147448
 20
-85.72906363373718
 30
0.0
 11
56.05912175147467
 21
-85.72906363373718
 31
0.0
  0
LINE
  5
F9
330
1F
100
AcDbEntity
  8
0
100
AcDbLine
 10
83.45912175147448
 20
-88.12906363373718
 30
0.0
 11
83.45912175147448
 21
-85.72906363373718
 31
0.0
  0
LINE
  5
FA
330
1F
100
AcDbEntity
  8
0
100
AcDbLine
 10
33.55561761000308
 20
-56.57793770312799
 30
0.0
 11
33.34527582537128
 21
-56.92360045541544
 31
0.0
  0
LINE
  5
FB
330
1F
100
AcDbEntity
  8
0
100
AcDbLine
 10
33.34527582537128
 20
-56.92360045541544
 30
0.0
 11
33.05263715977316
 21
-57.20304457519254
 31
0.0
  0
LINE
  5
FC
330
1F
100
AcDbEntity
  8
0
100
AcDbLine
 10
33.05263715977316
 20
-57.20304457519254
 30
0.0
 11
32.6976444546611
 21
-57.39722640749964
 31
0.0
  0
LINE
  5
FD
330
1F
100
AcDbEntity
  8
0
100
AcDbLine
 10
32.30448987623491
 20
-57.4929127813659
 30
0.0
 11
31.89996625929619
 21
-57.4835828285411
 31
0.0
  0
LINE
  5
FE
330
1F
100
AcDbEntity
  8
0
100
AcDbLine
 10
31.89996625929619
 20
-57.4835828285411
 30
0.0
 11
31.51164121983182
 21
-57.36987236989219
 31
0.0
  0
LINE
  5
FF
330
1F
100
AcDbEntity
  8
0
100
AcDbLine
 10
31.16597846754446
 20
-57.15953058526058
 30
0.0
 11
30.88653434776727
 21
-56.86689191966246
 31
0.0
  0
LINE
  5
100
330
1F
100
AcDbEntity
  8
0
100
AcDbLine
 10
30.88653434776727
 20
-56.86689191966246
 30
0.0
 11
30.69235251546016
 21
-56.51189921455022
 31
0.0
  0
LINE
  5
101
330
1F
100
AcDbEntity
  8
0
100
AcDbLine
 10
30.69235251546016
 20
-56.51189921455022
 30
0.0
 11
30.59666614159401
 21
-56.11874463612421
 31
0.0
  0
LINE
  5
102
330
1F
100
AcDbEntity
  8
0
100
AcDbLine
 10
30.59666614159401
 20
-56.11874463612421
 30
0.0
 11
30.6059960944187
 21
-55.7142210191853
 31
0.0
  0
LINE
  5
103
330
1F
100
AcDbEntity
  8
0
100
AcDbLine
 10
30.6059960944187
 20
-55.7142210191853
 30
0.0
 11
30.71970655306761
 21
-55.32589597972112
 31
0.0
  0
LINE
  5
104
330
1F
100
AcDbEntity
  8
0
100
AcDbLine
 10
30.71970655306761
 20
-55.32589597972112
 30
0.0
 11
30.93004833769923
 21
-54.98023322743366
 31
0.0
  0
LINE
  5
105
330
1F
100
AcDbEntity
  8
0
100
AcDbLine
 10
30.93004833769923
 20
-54.98023322743366
 30
0.0
 11
31.22268700329735
 21
-54.70078910765657
 31
0.0
  0
LINE
  5
106
330
1F
100
AcDbEntity
  8
0
100
AcDbLine
 10
31.22268700329735
 20
-54.70078910765657
 30
0.0
 11
31.57767970840959
 21
-54.50660727534927
 31
0.0
  0
LINE
  5
107
330
1F
100
AcDbEntity
  8
0
100
AcDbLine
 10
31.57767970840959
 20
-54.50660727534927
 30
0.0
 11
31.9708342868356
 21
-54.41092090148322
 31
0.0
  0
LINE
  5
108
330
1F
100
AcDbEntity
  8
0
100
AcDbLine
 10
31.9708342868356
 20
-54.41092090148322
 30
0.0
 11
32.3753579037745
 21
-54.42025085430782
 31
0.0
  0
LINE
  5
109
330
1F
100
AcDbEntity
  8
0
100
AcDbLine
 10
32.3753579037745
 20
-54.42025085430782
 30
0.0
 11
32.76368294323868
 21
-54.53396131295673
 31
0.0
  0
LINE
  5
10A
330
1F
100
AcDbEntity
  8
0
100
AcDbLine
 10
32.76368294323868
 20
-54.53396131295673
 30
0.0
 11
33.10934569552623
 21
-54.74430309758853
 31
0.0
  0
LINE
  5
10B
330
1F
100
AcDbEntity
  8
0
100
AcDbLine
 10
75.23367759237452
 20
-57.04793235226362
 30
0.0
 11
74.91266208153536
 21
-57.29425621729041
 31
0.0
  0
LINE
  5
10C
330
1F
100
AcDbEntity
  8
0
100
AcDbLine
 10
74.91266208153536
 20
-57.29425621729041
 30
0.0
 11
74.53883160144424
 21
-57.44910187217259
 31
0.0
  0
LINE
  5
10D
330
1F
100
AcDbEntity
  8
0
100
AcDbLine
 10
74.53883160144424
 20
-57.44910187217259
 30
0.0
 11
74.13766208153535
 21
-57.50191684142456
 31
0.0
  0
LINE
  5
10E
330
1F
100
AcDbEntity
  8
0
100
AcDbLine
 10
74.13766208153535
 20
-57.50191684142456
 30
0.0
 11
73.73649256162648
 21
-57.44910187217259
 31
0.0
  0
LINE
  5
10F
330
1F
100
AcDbEntity
  8
0
100
AcDbLine
 10
73.73649256162648
 20
-57.44910187217259
 30
0.0
 11
73.36266208153535
 21
-57.29425621729041
 31
0.0
  0
LINE
  5
110
330
1F
100
AcDbEntity
  8
0
100
AcDbLine
 10
73.36266208153535
 20
-57.29425621729041
 30
0.0
 11
73.0416465706962
 21
-57.04793235226362
 31
0.0
  0
LINE
  5
111
330
1F
100
AcDbEntity
  8
0
100
AcDbLine
 10
72.7953227056695
 20
-56.72691684142455
 30
0.0
 11
72.64047705078731
 21
-56.35308636133335
 31
0.0
  0
LINE
  5
112
330
1F
100
AcDbEntity
  8
0
100
AcDbLine
 10
72.58766208153536
 20
-55.95191684142456
 30
0.0
 11
72.64047705078731
 21
-55.55074732151558
 31
0.0
  0
LINE
  5
113
330
1F
100
AcDbEntity
  8
0
100
AcDbLine
 10
72.64047705078731
 20
-55.55074732151558
 30
0.0
 11
72.7953227056695
 21
-55.17691684142455
 31
0.0
  0
LINE
  5
114
330
1F
100
AcDbEntity
  8
0
100
AcDbLine
 10
41.87729063589256
 20
-114.8590607374851
 30
0.0
 11
42.27846015580135
 21
-114.911875706737
 31
0.0
  0
LINE
  5
115
330
1F
100
AcDbEntity
  8
0
100
AcDbLine
 10
42.27846015580135
 20
-114.911875706737
 30
0.0
 11
42.65229063589248
 21
-115.0667213616192
 31
0.0
  0
LINE
  5
116
330
1F
100
AcDbEntity
  8
0
100
AcDbLine
 10
-108.9928579336648
 20
100.195231377635
 30
0.0
 11
-109.4563583216602
 21
100.5560199572096
 31
0.0
  0
LINE
  5
117
330
1F
100
AcDbEntity
  8
0
100
AcDbLine
 10
-109.4563583216602
 20
100.5560199572096
 30
0.0
 11
-109.8106863612706
 21
101.0244776918763
 31
0.0
  0
LINE
  5
118
330
1F
100
AcDbEntity
  8
0
100
AcDbLine
 10
-105.6044315198046
 20
102.1203460334032
 30
0.0
 11
-105.6851334011137
 21
101.5385486329481
 31
0.0
  0
LINE
  5
119
330
1F
100
AcDbEntity
  8
0
100
AcDbLine
 10
-62.90582030058378
 20
42.38060886434246
 30
0.0
 11
-62.68104434994839
 21
41.83795171582319
 31
0.0
  0
LINE
  5
11A
330
1F
100
AcDbEntity
  8
0
100
AcDbLine
 10
-62.68104434994839
 20
41.83795171582319
 30
0.0
 11
-62.60437745909872
 21
41.25560886434253
 31
0.0
  0
LINE
  5
11B
330
1F
100
AcDbEntity
  8
0
100
AcDbLine
 10
-66.44536771676863
 20
100.5449528989352
 30
0.0
 11
-66.8029346176139
 21
101.010943156605
 31
0.0
  0
LINE
  5
11C
330
1F
100
AcDbEntity
  8
0
100
AcDbLine
 10
-62.6043774590989
 20
102.1359431566051
 30
0.0
 11
-62.68104434994839
 21
101.5536003051244
 31
0.0
  0
LINE
  5
11D
330
1F
100
AcDbEntity
  8
0
100
AcDbLine
 10
32.6976444546611
 20
-57.39722640749964
 30
0.0
 11
32.30448987623491
 21
-57.4929127813659
 31
0.0
  0
LINE
  5
11E
330
1F
100
AcDbEntity
  8
0
100
AcDbLine
 10
71.25630678221987
 20
95.49380975628176
 30
0.0
 11
71.30912175147184
 21
95.09264023637279
 31
0.0
  0
LINE
  5
11F
330
1F
100
AcDbEntity
  8
0
100
AcDbLine
 10
70.85513726231098
 20
93.99662472553372
 30
0.0
 11
70.53412175147183
 21
93.75030086050693
 31
0.0
  0
LINE
  5
120
330
1F
100
AcDbEntity
  8
0
100
AcDbLine
 10
25.50207224147035
 20
51.59264023637275
 30
0.0
 11
25.8654325589365
 21
52.13644738141657
 31
0.0
  0
LINE
  5
121
330
1F
100
AcDbEntity
  8
0
100
AcDbLine
 10
25.8654325589365
 20
52.13644738141657
 30
0.0
 11
26.29666535445986
 21
52.62817414230557
 31
0.0
  0
LINE
  5
122
330
1F
100
AcDbEntity
  8
0
100
AcDbLine
 10
26.29666535445986
 20
52.62817414230557
 30
0.0
 11
26.78839211534887
 21
53.05940693782912
 31
0.0
  0
LINE
  5
123
330
1F
100
AcDbEntity
  8
0
100
AcDbLine
 10
26.78839211534887
 20
53.05940693782912
 30
0.0
 11
27.33219926039268
 21
53.42276725529508
 31
0.0
  0
LINE
  5
124
330
1F
100
AcDbEntity
  8
0
100
AcDbLine
 10
68.20912175147181
 20
95.09264023637297
 30
0.0
 11
68.26193672072378
 21
95.49380975628176
 31
0.0
  0
LINE
  5
125
330
1F
100
AcDbEntity
  8
0
100
AcDbLine
 10
31.51164121983182
 20
-57.36987236989219
 30
0.0
 11
31.16597846754446
 21
-57.15953058526058
 31
0.0
  0
LINE
  5
126
330
1F
100
AcDbEntity
  8
0
100
AcDbLine
 10
69.75912175147435
 20
-78.47906363373703
 30
0.0
 11
69.35795223156546
 21
-78.42624866448506
 31
0.0
  0
LINE
  5
127
330
1F
100
AcDbEntity
  8
0
100
AcDbLine
 10
68.41678237560633
 20
74.31764023637282
 30
0.0
 11
68.26193672072414
 21
74.69147071646385
 31
0.0
  0
LINE
  5
128
330
1F
100
AcDbEntity
  8
0
100
AcDbLine
 10
-106.2744542597034
 20
39.65362800178121
 30
0.0
 11
-106.7429119943703
 21
39.2992999621708
 31
0.0
  0
LINE
  5
129
330
1F
100
AcDbEntity
  8
0
100
AcDbLine
 10
-110.1043233983936
 20
102.1515402798065
 30
0.0
 11
-110.0236215170845
 21
102.7333376802617
 31
0.0
  0
LINE
  5
12A
330
1F
100
AcDbEntity
  8
0
100
AcDbLine
 10
56.05912175147223
 20
86.2926402363728
 30
0.0
 11
83.45912175147195
 21
86.2926402363728
 31
0.0
  0
LINE
  5
12B
330
1F
100
AcDbEntity
  8
0
100
AcDbLine
 10
41.87729063589256
 20
-117.9590607374851
 30
0.0
 11
41.47612111598368
 21
-117.9062457682331
 31
0.0
  0
LINE
  5
12C
330
1F
100
AcDbEntity
  8
0
100
AcDbLine
 10
83.45912175147195
 20
83.89264023637281
 30
0.0
 11
56.05912175147223
 21
83.89264023637281
 31
0.0
  0
LINE
  5
12D
330
1F
100
AcDbEntity
  8
0
100
AcDbLine
 10
100.4848302214931
 20
54.13541592950393
 30
0.0
 11
101.1262944859055
 21
54.26301110492757
 31
0.0
  0
LINE
  5
12E
330
1F
100
AcDbEntity
  8
0
100
AcDbLine
 10
71.10146112733769
 20
95.8676402363728
 30
0.0
 11
71.25630678221987
 21
95.49380975628176
 31
0.0
  0
LINE
  5
12F
330
1F
100
AcDbEntity
  8
0
100
AcDbLine
 10
69.35795223156303
 20
96.58982526712101
 30
0.0
 11
69.75912175147182
 21
96.6426402363728
 31
0.0
  0
LINE
  5
130
330
1F
100
AcDbEntity
  8
0
100
AcDbLine
 10
69.75912175147182
 20
96.6426402363728
 30
0.0
 11
70.1602912713808
 21
96.58982526712101
 31
0.0
  0
LINE
  5
131
330
1F
100
AcDbEntity
  8
0
100
AcDbLine
 10
68.98412175147217
 20
73.75030086050678
 30
0.0
 11
68.66310624063311
 21
73.99662472553358
 31
0.0
  0
LINE
  5
132
330
1F
100
AcDbEntity
  8
0
100
AcDbLine
 10
68.26193672072378
 20
95.49380975628176
 30
0.0
 11
68.41678237560596
 21
95.86764023637298
 31
0.0
  0
LINE
  5
133
330
1F
100
AcDbEntity
  8
0
100
AcDbLine
 10
71.10146112733769
 20
94.31764023637278
 30
0.0
 11
70.85513726231098
 21
93.99662472553372
 31
0.0
  0
LINE
  5
134
330
1F
100
AcDbEntity
  8
0
100
AcDbLine
 10
69.35795223156339
 20
73.5954552056246
 30
0.0
 11
68.98412175147217
 21
73.75030086050678
 31
0.0
  0
LINE
  5
135
330
1F
100
AcDbEntity
  8
0
100
AcDbLine
 10
68.98412175147182
 20
93.75030086050693
 30
0.0
 11
68.66310624063257
 21
93.99662472553372
 31
0.0
  0
LINE
  5
136
330
1F
100
AcDbEntity
  8
0
100
AcDbLine
 10
-109.4343006584943
 20
103.737924019166
 30
0.0
 11
-108.9658429238277
 21
104.0922520587764
 31
0.0
  0
LINE
  5
137
330
1F
100
AcDbEntity
  8
0
100
AcDbLine
 10
-108.9658429238277
 20
104.0922520587764
 30
0.0
 11
-108.4216406545231
 21
104.313260879657
 31
0.0
  0
LINE
  5
138
330
1F
100
AcDbEntity
  8
0
100
AcDbLine
 10
68.66310624063257
 20
93.99662472553372
 30
0.0
 11
68.41678237560596
 21
94.31764023637297
 31
0.0
  0
LINE
  5
139
330
1F
100
AcDbEntity
  8
0
100
AcDbLine
 10
68.20912175147235
 20
75.09264023637265
 30
0.0
 11
68.26193672072414
 21
75.49380975628162
 31
0.0
  0
LINE
  5
13A
330
1F
100
AcDbEntity
  8
0
100
AcDbLine
 10
68.9841217514719
 20
96.43497961223882
 30
0.0
 11
69.35795223156303
 21
96.58982526712101
 31
0.0
  0
LINE
  5
13B
330
1F
100
AcDbEntity
  8
0
100
AcDbLine
 10
70.53412175147228
 20
73.75030086050678
 30
0.0
 11
70.16029127138115
 21
73.5954552056246
 31
0.0
  0
LINE
  5
13C
330
1F
100
AcDbEntity
  8
0
100
AcDbLine
 10
-66.44536771676863
 20
42.84659912201206
 30
0.0
 11
-65.97937745909886
 21
43.2041660228575
 31
0.0
  0
LINE
  5
13D
330
1F
100
AcDbEntity
  8
0
100
AcDbLine
 10
-67.0277105682492
 20
40.6732660128617
 30
0.0
 11
-67.10437745909879
 21
41.25560886434236
 31
0.0
  0
LINE
  5
13E
330
1F
100
AcDbEntity
  8
0
100
AcDbLine
 10
-67.10437745909896
 20
102.1359431566051
 30
0.0
 11
-67.02771056824947
 21
102.7182860080857
 31
0.0
  0
LINE
  5
13F
330
1F
100
AcDbEntity
  8
0
100
AcDbLine
 10
56.05912175147467
 20
-85.72906363373718
 30
0.0
 11
56.05912175147476
 21
-88.12906363373718
 31
0.0
  0
LINE
  5
140
330
1F
100
AcDbEntity
  8
0
100
AcDbLine
 10
68.41678237560849
 20
-77.70406363373702
 30
0.0
 11
68.26193672072631
 21
-77.33023315364599
 31
0.0
  0
LINE
  5
141
330
1F
100
AcDbEntity
  8
0
100
AcDbLine
 10
70.16029127138333
 20
-78.42624866448524
 30
0.0
 11
69.75912175147435
 21
-78.47906363373703
 31
0.0
  0
LINE
  5
142
330
1F
100
AcDbEntity
  8
0
100
AcDbLine
 10
72.64047705078731
 20
-56.35308636133335
 30
0.0
 11
72.58766208153536
 21
-55.95191684142456
 31
0.0
  0
LINE
  5
143
330
1F
100
AcDbEntity
  8
0
100
AcDbLine
 10
104.7894235672618
 20
-20.25472880252669
 30
0.0
 11
104.8321992603927
 21
-20.90735976362718
 31
0.0
  0
LINE
  5
144
330
1F
100
AcDbEntity
  8
0
100
AcDbLine
 10
104.6618283918383
 20
-19.61326453811469
 30
0.0
 11
104.7894235672618
 21
-20.25472880252669
 31
0.0
  0
LINE
  5
145
330
1F
100
AcDbEntity
  8
0
100
AcDbLine
 10
104.4515969229493
 20
-18.99394260180186
 30
0.0
 11
104.6618283918383
 21
-19.61326453811469
 31
0.0
  0
LINE
  5
146
330
1F
100
AcDbEntity
  8
0
100
AcDbLine
 10
104.1623262793151
 20
-18.40735976362739
 30
0.0
 11
104.4515969229493
 21
-18.99394260180186
 31
0.0
  0
LINE
  5
147
330
1F
100
AcDbEntity
  8
0
100
AcDbLine
 10
103.798965961849
 20
-17.86355261858376
 30
0.0
 11
104.1623262793151
 21
-18.40735976362739
 31
0.0
  0
LINE
  5
148
330
1F
100
AcDbEntity
  8
0
100
AcDbLine
 10
103.3677331663257
 20
-17.37182585769439
 30
0.0
 11
103.798965961849
 21
-17.86355261858376
 31
0.0
  0
LINE
  5
149
330
1F
100
AcDbEntity
  8
0
100
AcDbLine
 10
102.8760064054366
 20
-16.94059306217085
 30
0.0
 11
103.3677331663257
 21
-17.37182585769439
 31
0.0
  0
LINE
  5
14A
330
1F
100
AcDbEntity
  8
0
100
AcDbLine
 10
102.3321992603928
 20
-16.57723274470488
 30
0.0
 11
102.8760064054366
 21
-16.94059306217085
 31
0.0
  0
LINE
  5
14B
330
1F
100
AcDbEntity
  8
0
100
AcDbLine
 10
101.7456164222185
 20
-16.2879621010709
 30
0.0
 11
102.3321992603928
 21
-16.57723274470488
 31
0.0
  0
LINE
  5
14C
330
1F
100
AcDbEntity
  8
0
100
AcDbLine
 10
101.1262944859055
 20
-16.0777306321819
 30
0.0
 11
101.7456164222185
 21
-16.2879621010709
 31
0.0
  0
LINE
  5
14D
330
1F
100
AcDbEntity
  8
0
100
AcDbLine
 10
100.4848302214931
 20
-15.95013545675807
 30
0.0
 11
101.1262944859055
 21
-16.0777306321819
 31
0.0
  0
LINE
  5
14E
330
1F
100
AcDbEntity
  8
0
100
AcDbLine
 10
99.8321992603928
 20
-15.90735976362687
 30
0.0
 11
100.4848302214931
 21
-15.95013545675807
 31
0.0
  0
LINE
  5
14F
330
1F
100
AcDbEntity
  8
0
100
AcDbLine
 10
99.8321992603928
 20
-15.90735976362687
 30
0.0
 11
29.83219926039301
 21
-15.90735976362705
 31
0.0
  0
LINE
  5
150
330
1F
100
AcDbEntity
  8
0
100
AcDbLine
 10
29.83219926039301
 20
-15.90735976362705
 30
0.0
 11
29.1795682992927
 21
-15.86458407049622
 31
0.0
  0
LINE
  5
151
330
1F
100
AcDbEntity
  8
0
100
AcDbLine
 10
29.1795682992927
 20
-15.86458407049622
 30
0.0
 11
28.53810403488016
 21
-15.73698889507257
 31
0.0
  0
LINE
  5
152
330
1F
100
AcDbEntity
  8
0
100
AcDbLine
 10
28.53810403488016
 20
-15.73698889507257
 30
0.0
 11
27.91878209856733
 21
-15.52675742618357
 31
0.0
  0
LINE
  5
153
330
1F
100
AcDbEntity
  8
0
100
AcDbLine
 10
27.91878209856733
 20
-15.52675742618357
 30
0.0
 11
27.33219926039268
 21
-15.23748678254941
 31
0.0
  0
LINE
  5
154
330
1F
100
AcDbEntity
  8
0
100
AcDbLine
 10
27.33219926039268
 20
-15.23748678254941
 30
0.0
 11
26.78839211534932
 21
-14.87412646508326
 31
0.0
  0
LINE
  5
155
330
1F
100
AcDbEntity
  8
0
100
AcDbLine
 10
26.78839211534932
 20
-14.87412646508326
 30
0.0
 11
26.29666535445986
 21
-14.44289366956008
 31
0.0
  0
LINE
  5
156
330
1F
100
AcDbEntity
  8
0
100
AcDbLine
 10
26.29666535445986
 20
-14.44289366956008
 30
0.0
 11
25.86543255893668
 21
-13.95116690867107
 31
0.0
  0
LINE
  5
157
330
1F
100
AcDbEntity
  8
0
100
AcDbLine
 10
25.86543255893668
 20
-13.95116690867107
 30
0.0
 11
25.50207224147053
 21
-13.40735976362708
 31
0.0
  0
LINE
  5
158
330
1F
100
AcDbEntity
  8
0
100
AcDbLine
 10
25.50207224147053
 20
-13.40735976362708
 30
0.0
 11
25.21280159783664
 21
-12.82077692545243
 31
0.0
  0
LINE
  5
159
330
1F
100
AcDbEntity
  8
0
100
AcDbLine
 10
25.21280159783664
 20
-12.82077692545243
 30
0.0
 11
25.00257012894773
 21
-12.20145498913996
 31
0.0
  0
LINE
  5
15A
330
1F
100
AcDbEntity
  8
0
100
AcDbLine
 10
25.00257012894773
 20
-12.20145498913996
 30
0.0
 11
24.8749749535239
 21
-11.5599907247276
 31
0.0
  0
LINE
  5
15B
330
1F
100
AcDbEntity
  8
0
100
AcDbLine
 10
24.8749749535239
 20
-11.5599907247276
 30
0.0
 11
24.83219926039271
 21
-10.90735976362729
 31
0.0
  0
LINE
  5
15C
330
1F
100
AcDbEntity
  8
0
100
AcDbLine
 10
24.83219926039271
 20
-10.90735976362729
 30
0.0
 11
24.83219926039279
 21
49.09264023637278
 31
0.0
  0
LINE
  5
15D
330
1F
100
AcDbEntity
  8
0
100
AcDbLine
 10
24.83219926039279
 20
49.09264023637278
 30
0.0
 11
24.87497495352354
 21
49.74527119747309
 31
0.0
  0
LINE
  5
15E
330
1F
100
AcDbEntity
  8
0
100
AcDbLine
 10
24.87497495352354
 20
49.74527119747309
 30
0.0
 11
25.00257012894737
 21
50.38673546188527
 31
0.0
  0
LINE
  5
15F
330
1F
100
AcDbEntity
  8
0
100
AcDbLine
 10
25.00257012894737
 20
50.38673546188527
 30
0.0
 11
25.21280159783619
 21
51.00605739819846
 31
0.0
  0
LINE
  5
160
330
1F
100
AcDbEntity
  8
0
100
AcDbLine
 10
25.21280159783619
 20
51.00605739819846
 30
0.0
 11
25.50207224147035
 21
51.59264023637275
 31
0.0
  0
LINE
  5
161
330
1F
100
AcDbEntity
  8
0
100
AcDbLine
 10
27.33219926039268
 20
53.42276725529508
 30
0.0
 11
27.91878209856706
 21
53.71203789892942
 31
0.0
  0
LINE
  5
162
330
1F
100
AcDbEntity
  8
0
100
AcDbLine
 10
27.91878209856706
 20
53.71203789892942
 30
0.0
 11
28.53810403488007
 21
53.92226936781806
 31
0.0
  0
LINE
  5
163
330
1F
100
AcDbEntity
  8
0
100
AcDbLine
 10
28.53810403488007
 20
53.92226936781806
 30
0.0
 11
29.17956829929225
 21
54.04986454324189
 31
0.0
  0
LINE
  5
164
330
1F
100
AcDbEntity
  8
0
100
AcDbLine
 10
29.17956829929225
 20
54.04986454324189
 30
0.0
 11
29.83219926039256
 21
54.09264023637291
 31
0.0
  0
LINE
  5
165
330
1F
100
AcDbEntity
  8
0
100
AcDbLine
 10
29.83219926039256
 20
54.09264023637291
 30
0.0
 11
99.8321992603927
 21
54.09264023637291
 31
0.0
  0
LINE
  5
166
330
1F
100
AcDbEntity
  8
0
100
AcDbLine
 10
99.8321992603927
 20
54.09264023637291
 30
0.0
 11
100.4848302214931
 21
54.13541592950393
 31
0.0
  0
LINE
  5
167
330
1F
100
AcDbEntity
  8
0
100
AcDbLine
 10
101.1262944859055
 20
54.26301110492757
 30
0.0
 11
101.7456164222181
 21
54.47324257381657
 31
0.0
  0
LINE
  5
168
330
1F
100
AcDbEntity
  8
0
100
AcDbLine
 10
101.7456164222181
 20
54.47324257381657
 30
0.0
 11
102.3321992603926
 21
54.76251321745073
 31
0.0
  0
LINE
  5
169
330
1F
100
AcDbEntity
  8
0
100
AcDbLine
 10
102.3321992603926
 20
54.76251321745073
 30
0.0
 11
102.8760064054362
 21
55.1258735349167
 31
0.0
  0
LINE
  5
16A
330
1F
100
AcDbEntity
  8
0
100
AcDbLine
 10
102.8760064054362
 20
55.1258735349167
 30
0.0
 11
103.3677331663254
 21
55.55710633044024
 31
0.0
  0
LINE
  5
16B
330
1F
100
AcDbEntity
  8
0
100
AcDbLine
 10
103.3677331663254
 20
55.55710633044024
 30
0.0
 11
103.7989659618489
 21
56.04883309132925
 31
0.0
  0
LINE
  5
16C
330
1F
100
AcDbEntity
  8
0
100
AcDbLine
 10
103.7989659618489
 20
56.04883309132925
 30
0.0
 11
104.162326279315
 21
56.59264023637288
 31
0.0
  0
LINE
  5
16D
330
1F
100
AcDbEntity
  8
0
100
AcDbLine
 10
104.162326279315
 20
56.59264023637288
 30
0.0
 11
104.4515969229492
 21
57.17922307454735
 31
0.0
  0
LINE
  5
16E
330
1F
100
AcDbEntity
  8
0
100
AcDbLine
 10
104.4515969229492
 20
57.17922307454735
 30
0.0
 11
104.661828391838
 21
57.79854501086018
 31
0.0
  0
LINE
  5
16F
330
1F
100
AcDbEntity
  8
0
100
AcDbLine
 10
104.661828391838
 20
57.79854501086018
 30
0.0
 11
104.7894235672617
 21
58.44000927527254
 31
0.0
  0
LINE
  5
170
330
1F
100
AcDbEntity
  8
0
100
AcDbLine
 10
104.7894235672617
 20
58.44000927527254
 30
0.0
 11
104.8321992603925
 21
59.09264023637285
 31
0.0
  0
LINE
  5
171
330
1F
100
AcDbEntity
  8
0
100
AcDbLine
 10
104.8321992603925
 20
59.09264023637285
 30
0.0
 11
104.8321992603923
 21
154.0926402363727
 31
0.0
  0
LINE
  5
172
330
1F
100
AcDbEntity
  8
0
100
AcDbLine
 10
83.45912175147195
 20
86.2926402363728
 30
0.0
 11
83.45912175147195
 21
83.89264023637281
 31
0.0
  0
LINE
  5
173
330
1F
100
AcDbEntity
  8
0
100
AcDbLine
 10
56.05912175147223
 20
83.89264023637281
 30
0.0
 11
56.05912175147223
 21
86.2926402363728
 31
0.0
  0
LINE
  5
174
330
1F
100
AcDbEntity
  8
0
100
AcDbLine
 10
68.26193672072378
 20
94.691470716464
 30
0.0
 11
68.20912175147181
 21
95.09264023637297
 31
0.0
  0
LINE
  5
175
330
1F
100
AcDbEntity
  8
0
100
AcDbLine
 10
68.41678237560596
 20
95.86764023637298
 30
0.0
 11
68.66310624063276
 21
96.18865574721204
 31
0.0
  0
LINE
  5
176
330
1F
100
AcDbEntity
  8
0
100
AcDbLine
 10
68.66310624063276
 20
96.18865574721204
 30
0.0
 11
68.9841217514719
 21
96.43497961223882
 31
0.0
  0
LINE
  5
177
330
1F
100
AcDbEntity
  8
0
100
AcDbLine
 10
70.1602912713808
 20
96.58982526712101
 30
0.0
 11
70.53412175147183
 21
96.43497961223865
 31
0.0
  0
LINE
  5
178
330
1F
100
AcDbEntity
  8
0
100
AcDbLine
 10
70.53412175147183
 20
96.43497961223865
 30
0.0
 11
70.85513726231108
 21
96.18865574721204
 31
0.0
  0
LINE
  5
179
330
1F
100
AcDbEntity
  8
0
100
AcDbLine
 10
70.85513726231108
 20
96.18865574721204
 30
0.0
 11
71.10146112733769
 21
95.8676402363728
 31
0.0
  0
LINE
  5
17A
330
1F
100
AcDbEntity
  8
0
100
AcDbLine
 10
71.30912175147184
 20
95.09264023637279
 30
0.0
 11
71.25630678221987
 21
94.69147071646381
 31
0.0
  0
LINE
  5
17B
330
1F
100
AcDbEntity
  8
0
100
AcDbLine
 10
71.25630678221987
 20
94.69147071646381
 30
0.0
 11
71.10146112733769
 21
94.31764023637278
 31
0.0
  0
LINE
  5
17C
330
1F
100
AcDbEntity
  8
0
100
AcDbLine
 10
70.53412175147183
 20
93.75030086050693
 30
0.0
 11
70.1602912713807
 21
93.59545520562475
 31
0.0
  0
LINE
  5
17D
330
1F
100
AcDbEntity
  8
0
100
AcDbLine
 10
69.75912175147182
 20
93.54264023637278
 30
0.0
 11
69.35795223156285
 21
93.59545520562493
 31
0.0
  0
LINE
  5
17E
330
1F
100
AcDbEntity
  8
0
100
AcDbLine
 10
68.66310624063311
 20
76.1886557472119
 30
0.0
 11
68.98412175147236
 21
76.4349796122385
 31
0.0
  0
LINE
  5
17F
330
1F
100
AcDbEntity
  8
0
100
AcDbLine
 10
68.98412175147236
 20
76.4349796122385
 30
0.0
 11
69.35795223156339
 21
76.58982526712069
 31
0.0
  0
LINE
  5
180
330
1F
100
AcDbEntity
  8
0
100
AcDbLine
 10
69.35795223156339
 20
76.58982526712069
 30
0.0
 11
69.75912175147236
 21
76.64264023637266
 31
0.0
  0
LINE
  5
181
330
1F
100
AcDbEntity
  8
0
100
AcDbLine
 10
69.75912175147236
 20
76.64264023637266
 30
0.0
 11
70.16029127138115
 21
76.58982526712069
 31
0.0
  0
LINE
  5
182
330
1F
100
AcDbEntity
  8
0
100
AcDbLine
 10
70.53412175147228
 20
76.4349796122385
 30
0.0
 11
70.85513726231143
 21
76.1886557472119
 31
0.0
  0
LINE
  5
183
330
1F
100
AcDbEntity
  8
0
100
AcDbLine
 10
70.85513726231143
 20
76.1886557472119
 30
0.0
 11
71.10146112733823
 21
75.86764023637265
 31
0.0
  0
LINE
  5
184
330
1F
100
AcDbEntity
  8
0
100
AcDbLine
 10
71.10146112733823
 20
75.86764023637265
 30
0.0
 11
71.25630678222032
 21
75.49380975628162
 31
0.0
  0
LINE
  5
185
330
1F
100
AcDbEntity
  8
0
100
AcDbLine
 10
71.30912175147219
 20
75.09264023637265
 30
0.0
 11
71.25630678222032
 21
74.69147071646367
 31
0.0
  0
LINE
  5
186
330
1F
100
AcDbEntity
  8
0
100
AcDbLine
 10
71.25630678222032
 20
74.69147071646367
 30
0.0
 11
71.10146112733804
 21
74.31764023637264
 31
0.0
  0
LINE
  5
187
330
1F
100
AcDbEntity
  8
0
100
AcDbLine
 10
71.10146112733804
 20
74.31764023637264
 30
0.0
 11
70.85513726231143
 21
73.99662472553358
 31
0.0
  0
LINE
  5
188
330
1F
100
AcDbEntity
  8
0
100
AcDbLine
 10
70.85513726231143
 20
73.99662472553358
 30
0.0
 11
70.53412175147228
 21
73.75030086050678
 31
0.0
  0
LINE
  5
189
330
1F
100
AcDbEntity
  8
0
100
AcDbLine
 10
70.16029127138115
 20
73.5954552056246
 30
0.0
 11
69.75912175147218
 21
73.54264023637263
 31
0.0
  0
LINE
  5
18A
330
1F
100
AcDbEntity
  8
0
100
AcDbLine
 10
68.26193672072414
 20
75.49380975628162
 30
0.0
 11
68.41678237560633
 21
75.86764023637265
 31
0.0
  0
LINE
  5
18B
330
1F
100
AcDbEntity
  8
0
100
AcDbLine
 10
68.20912175147488
 20
-96.92906363373734
 30
0.0
 11
68.26193672072685
 21
-96.52789411382837
 31
0.0
  0
LINE
  5
18C
330
1F
100
AcDbEntity
  8
0
100
AcDbLine
 10
68.66310624063573
 20
-95.83304812289809
 30
0.0
 11
68.98412175147489
 21
-95.58672425787148
 31
0.0
  0
LINE
  5
18D
330
1F
100
AcDbEntity
  8
0
100
AcDbLine
 10
68.98412175147489
 20
-95.58672425787148
 30
0.0
 11
69.357952231566
 21
-95.4318786029893
 31
0.0
  0
LINE
  5
18E
330
1F
100
AcDbEntity
  8
0
100
AcDbLine
 10
69.357952231566
 20
-95.4318786029893
 30
0.0
 11
69.7591217514749
 21
-95.37906363373733
 31
0.0
  0
LINE
  5
18F
330
1F
100
AcDbEntity
  8
0
100
AcDbLine
 10
69.7591217514749
 20
-95.37906363373733
 30
0.0
 11
70.16029127138377
 21
-95.4318786029893
 31
0.0
  0
LINE
  5
190
330
1F
100
AcDbEntity
  8
0
100
AcDbLine
 10
70.16029127138377
 20
-95.4318786029893
 30
0.0
 11
70.5341217514749
 21
-95.58672425787148
 31
0.0
  0
LINE
  5
191
330
1F
100
AcDbEntity
  8
0
100
AcDbLine
 10
70.5341217514749
 20
-95.58672425787148
 30
0.0
 11
70.85513726231405
 21
-95.83304812289828
 31
0.0
  0
LINE
  5
192
330
1F
100
AcDbEntity
  8
0
100
AcDbLine
 10
70.85513726231405
 20
-95.83304812289828
 30
0.0
 11
71.10146112734074
 21
-96.15406363373734
 31
0.0
  0
LINE
  5
193
330
1F
100
AcDbEntity
  8
0
100
AcDbLine
 10
33.10934569552623
 20
-54.74430309758853
 30
0.0
 11
33.38878981530324
 21
-55.03694176318665
 31
0.0
  0
LINE
  5
194
330
1F
100
AcDbEntity
  8
0
100
AcDbLine
 10
33.38878981530324
 20
-55.03694176318665
 30
0.0
 11
33.58297164761053
 21
-55.39193446829871
 31
0.0
  0
LINE
  5
195
330
1F
100
AcDbEntity
  8
0
100
AcDbLine
 10
33.58297164761053
 20
-55.39193446829871
 30
0.0
 11
33.67865802147669
 21
-55.7850890467249
 31
0.0
  0
LINE
  5
196
330
1F
100
AcDbEntity
  8
0
100
AcDbLine
 10
33.67865802147669
 20
-55.7850890467249
 30
0.0
 11
33.66932806865199
 21
-56.1896126636638
 31
0.0
  0
LINE
  5
197
330
1F
100
AcDbEntity
  8
0
100
AcDbLine
 10
33.66932806865199
 20
-56.1896126636638
 30
0.0
 11
33.55561761000308
 21
-56.57793770312799
 31
0.0
  0
LINE
  5
198
330
1F
100
AcDbEntity
  8
0
100
AcDbLine
 10
75.48000145740122
 20
-56.72691684142455
 30
0.0
 11
75.23367759237452
 21
-57.04793235226362
 31
0.0
  0
LINE
  5
199
330
1F
100
AcDbEntity
  8
0
100
AcDbLine
 10
73.0416465706962
 20
-57.04793235226362
 30
0.0
 11
72.7953227056695
 21
-56.72691684142455
 31
0.0
  0
LINE
  5
19A
330
1F
100
AcDbEntity
  8
0
100
AcDbLine
 10
72.7953227056695
 20
-55.17691684142455
 30
0.0
 11
73.0416465706962
 21
-54.8559013305853
 31
0.0
  0
LINE
  5
19B
330
1F
100
AcDbEntity
  8
0
100
AcDbLine
 10
73.36266208153535
 20
-54.60957746555852
 30
0.0
 11
73.73649256162648
 21
-54.45473181067651
 31
0.0
  0
LINE
  5
19C
330
1F
100
AcDbEntity
  8
0
100
AcDbLine
 10
73.73649256162648
 20
-54.45473181067651
 30
0.0
 11
74.13766208153535
 21
-54.40191684142454
 31
0.0
  0
LINE
  5
19D
330
1F
100
AcDbEntity
  8
0
100
AcDbLine
 10
74.13766208153535
 20
-54.40191684142454
 30
0.0
 11
74.53883160144424
 21
-54.45473181067651
 31
0.0
  0
LINE
  5
19E
330
1F
100
AcDbEntity
  8
0
100
AcDbLine
 10
74.53883160144424
 20
-54.45473181067651
 30
0.0
 11
74.91266208153536
 21
-54.60957746555852
 31
0.0
  0
LINE
  5
19F
330
1F
100
AcDbEntity
  8
0
100
AcDbLine
 10
74.91266208153536
 20
-54.60957746555852
 30
0.0
 11
75.23367759237452
 21
-54.8559013305853
 31
0.0
  0
LINE
  5
1A0
330
1F
100
AcDbEntity
  8
0
100
AcDbLine
 10
75.23367759237452
 20
-54.8559013305853
 30
0.0
 11
75.48000145740122
 21
-55.17691684142455
 31
0.0
  0
LINE
  5
1A1
330
1F
100
AcDbEntity
  8
0
100
AcDbLine
 10
75.48000145740122
 20
-55.17691684142455
 30
0.0
 11
75.6348471122834
 21
-55.55074732151558
 31
0.0
  0
LINE
  5
1A2
330
1F
100
AcDbEntity
  8
0
100
AcDbLine
 10
75.6348471122834
 20
-55.55074732151558
 30
0.0
 11
75.68766208153536
 21
-55.95191684142456
 31
0.0
  0
LINE
  5
1A3
330
1F
100
AcDbEntity
  8
0
100
AcDbLine
 10
75.68766208153536
 20
-55.95191684142456
 30
0.0
 11
75.6348471122834
 21
-56.35308636133335
 31
0.0
  0
LINE
  5
1A4
330
1F
100
AcDbEntity
  8
0
100
AcDbLine
 10
75.6348471122834
 20
-56.35308636133335
 30
0.0
 11
75.48000145740122
 21
-56.72691684142455
 31
0.0
  0
LINE
  5
1A5
330
1F
100
AcDbEntity
  8
0
100
AcDbLine
 10
42.65229063589248
 20
-115.0667213616192
 30
0.0
 11
42.97330614673163
 21
-115.3130452266458
 31
0.0
  0
LINE
  5
1A6
330
1F
100
AcDbEntity
  8
0
100
AcDbLine
 10
42.97330614673163
 20
-115.3130452266458
 30
0.0
 11
43.21963001175842
 21
-115.6340607374851
 31
0.0
  0
LINE
  5
1A7
330
1F
100
AcDbEntity
  8
0
100
AcDbLine
 10
43.21963001175842
 20
-115.6340607374851
 30
0.0
 11
43.37447566664051
 21
-116.0078912175761
 31
0.0
  0
LINE
  5
1A8
330
1F
100
AcDbEntity
  8
0
100
AcDbLine
 10
43.37447566664051
 20
-116.0078912175761
 30
0.0
 11
43.42729063589257
 21
-116.4090607374851
 31
0.0
  0
LINE
  5
1A9
330
1F
100
AcDbEntity
  8
0
100
AcDbLine
 10
43.42729063589257
 20
-116.4090607374851
 30
0.0
 11
43.37447566664061
 21
-116.8102302573941
 31
0.0
  0
LINE
  5
1AA
330
1F
100
AcDbEntity
  8
0
100
AcDbLine
 10
43.37447566664061
 20
-116.8102302573941
 30
0.0
 11
43.21963001175842
 21
-117.1840607374851
 31
0.0
  0
LINE
  5
1AB
330
1F
100
AcDbEntity
  8
0
100
AcDbLine
 10
43.21963001175842
 20
-117.1840607374851
 30
0.0
 11
42.97330614673163
 21
-117.5050762483241
 31
0.0
  0
LINE
  5
1AC
330
1F
100
AcDbEntity
  8
0
100
AcDbLine
 10
42.97330614673163
 20
-117.5050762483241
 30
0.0
 11
42.65229063589257
 21
-117.7514001133509
 31
0.0
  0
LINE
  5
1AD
330
1F
100
AcDbEntity
  8
0
100
AcDbLine
 10
42.65229063589257
 20
-117.7514001133509
 30
0.0
 11
42.27846015580135
 21
-117.9062457682331
 31
0.0
  0
LINE
  5
1AE
330
1F
100
AcDbEntity
  8
0
100
AcDbLine
 10
42.27846015580135
 20
-117.9062457682331
 30
0.0
 11
41.87729063589256
 21
-117.9590607374851
 31
0.0
  0
LINE
  5
1AF
330
1F
100
AcDbEntity
  8
0
100
AcDbLine
 10
41.47612111598368
 20
-117.9062457682331
 30
0.0
 11
41.10229063589256
 21
-117.7514001133509
 31
0.0
  0
LINE
  5
1B0
330
1F
100
AcDbEntity
  8
0
100
AcDbLine
 10
41.10229063589256
 20
-117.7514001133509
 30
0.0
 11
40.7812751250534
 21
-117.5050762483241
 31
0.0
  0
LINE
  5
1B1
330
1F
100
AcDbEntity
  8
0
100
AcDbLine
 10
40.7812751250534
 20
-117.5050762483241
 30
0.0
 11
40.53495126002671
 21
-117.1840607374851
 31
0.0
  0
LINE
  5
1B2
330
1F
100
AcDbEntity
  8
0
100
AcDbLine
 10
40.53495126002671
 20
-117.1840607374851
 30
0.0
 11
40.38010560514452
 21
-116.8102302573941
 31
0.0
  0
LINE
  5
1B3
330
1F
100
AcDbEntity
  8
0
100
AcDbLine
 10
40.38010560514452
 20
-116.8102302573941
 30
0.0
 11
40.32729063589255
 21
-116.4090607374851
 31
0.0
  0
LINE
  5
1B4
330
1F
100
AcDbEntity
  8
0
100
AcDbLine
 10
40.32729063589255
 20
-116.4090607374851
 30
0.0
 11
40.38010560514452
 21
-116.0078912175761
 31
0.0
  0
LINE
  5
1B5
330
1F
100
AcDbEntity
  8
0
100
AcDbLine
 10
40.38010560514452
 20
-116.0078912175761
 30
0.0
 11
40.53495126002671
 21
-115.6340607374851
 31
0.0
  0
LINE
  5
1B6
330
1F
100
AcDbEntity
  8
0
100
AcDbLine
 10
40.53495126002671
 20
-115.6340607374851
 30
0.0
 11
40.78127512505331
 21
-115.3130452266458
 31
0.0
  0
LINE
  5
1B7
330
1F
100
AcDbEntity
  8
0
100
AcDbLine
 10
40.78127512505331
 20
-115.3130452266458
 30
0.0
 11
41.10229063589247
 21
-115.0667213616192
 31
0.0
  0
LINE
  5
1B8
330
1F
100
AcDbEntity
  8
0
100
AcDbLine
 10
41.10229063589247
 20
-115.0667213616192
 30
0.0
 11
41.47612111598359
 21
-114.911875706737
 31
0.0
  0
LINE
  5
1B9
330
1F
100
AcDbEntity
  8
0
100
AcDbLine
 10
41.47612111598359
 20
-114.911875706737
 30
0.0
 11
41.87729063589256
 21
-114.8590607374851
 31
0.0
  0
LINE
  5
1BA
330
1F
100
AcDbEntity
  8
0
100
AcDbLine
 10
-108.4517719827559
 20
99.96669909861949
 30
0.0
 11
-108.9928579336648
 21
100.195231377635
 31
0.0
  0
LINE
  5
1BB
330
1F
100
AcDbEntity
  8
0
100
AcDbLine
 10
-109.8106863612706
 20
101.0244776918763
 30
0.0
 11
-110.0316951821512
 21
101.5686799611808
 31
0.0
  0
LINE
  5
1BC
330
1F
100
AcDbEntity
  8
0
100
AcDbLine
 10
-110.0316951821512
 20
101.5686799611808
 30
0.0
 11
-110.1043233983936
 21
102.1515402798065
 31
0.0
  0
LINE
  5
1BD
330
1F
100
AcDbEntity
  8
0
100
AcDbLine
 10
-110.0236215170845
 20
102.7333376802617
 30
0.0
 11
-109.7950892380687
 21
103.2744236311707
 31
0.0
  0
LINE
  5
1BE
330
1F
100
AcDbEntity
  8
0
100
AcDbLine
 10
-109.7950892380687
 20
103.2744236311707
 30
0.0
 11
-109.4343006584943
 21
103.737924019166
 31
0.0
  0
LINE
  5
1BF
330
1F
100
AcDbEntity
  8
0
100
AcDbLine
 10
-108.4216406545231
 20
104.313260879657
 30
0.0
 11
-107.8387803358973
 21
104.3858890958994
 31
0.0
  0
LINE
  5
1C0
330
1F
100
AcDbEntity
  8
0
100
AcDbLine
 10
-107.8387803358973
 20
104.3858890958994
 30
0.0
 11
-107.2569829354423
 21
104.3051872145903
 31
0.0
  0
LINE
  5
1C1
330
1F
100
AcDbEntity
  8
0
100
AcDbLine
 10
-107.2569829354423
 20
104.3051872145903
 30
0.0
 11
-106.7158969845331
 21
104.0766549355748
 31
0.0
  0
LINE
  5
1C2
330
1F
100
AcDbEntity
  8
0
100
AcDbLine
 10
-106.7158969845331
 20
104.0766549355748
 30
0.0
 11
-106.2523965965379
 21
103.7158663560004
 31
0.0
  0
LINE
  5
1C3
330
1F
100
AcDbEntity
  8
0
100
AcDbLine
 10
-106.2523965965379
 20
103.7158663560004
 30
0.0
 11
-105.8980685569275
 21
103.2474086213335
 31
0.0
  0
LINE
  5
1C4
330
1F
100
AcDbEntity
  8
0
100
AcDbLine
 10
-105.8980685569275
 20
103.2474086213335
 30
0.0
 11
-105.6770597360467
 21
102.7032063520291
 31
0.0
  0
LINE
  5
1C5
330
1F
100
AcDbEntity
  8
0
100
AcDbLine
 10
-105.6770597360467
 20
102.7032063520291
 30
0.0
 11
-105.6044315198046
 21
102.1203460334032
 31
0.0
  0
LINE
  5
1C6
330
1F
100
AcDbEntity
  8
0
100
AcDbLine
 10
-105.6851334011137
 20
101.5385486329481
 30
0.0
 11
-105.9136656801292
 21
100.997462682039
 31
0.0
  0
LINE
  5
1C7
330
1F
100
AcDbEntity
  8
0
100
AcDbLine
 10
-105.9136656801292
 20
100.997462682039
 30
0.0
 11
-106.2744542597036
 21
100.5339622940437
 31
0.0
  0
LINE
  5
1C8
330
1F
100
AcDbEntity
  8
0
100
AcDbLine
 10
-106.2744542597036
 20
100.5339622940437
 30
0.0
 11
-106.7429119943704
 21
100.1796342544333
 31
0.0
  0
LINE
  5
1C9
330
1F
100
AcDbEntity
  8
0
100
AcDbLine
 10
-106.7429119943704
 20
100.1796342544333
 30
0.0
 11
-107.2871142636747
 21
99.95862543355278
 31
0.0
  0
LINE
  5
1CA
330
1F
100
AcDbEntity
  8
0
100
AcDbLine
 10
-107.2871142636747
 20
99.95862543355278
 30
0.0
 11
-107.8699745823006
 21
99.8859972173104
 31
0.0
  0
LINE
  5
1CB
330
1F
100
AcDbEntity
  8
0
100
AcDbLine
 10
-109.4343006584943
 20
42.8575897269035
 30
0.0
 11
-108.9658429238275
 21
43.21191776651373
 31
0.0
  0
LINE
  5
1CC
330
1F
100
AcDbEntity
  8
0
100
AcDbLine
 10
-108.9658429238275
 20
43.21191776651373
 30
0.0
 11
-108.421640654523
 21
43.43292658739445
 31
0.0
  0
LINE
  5
1CD
330
1F
100
AcDbEntity
  8
0
100
AcDbLine
 10
-108.421640654523
 20
43.43292658739445
 30
0.0
 11
-107.8387803358973
 21
43.50555480363683
 31
0.0
  0
LINE
  5
1CE
330
1F
100
AcDbEntity
  8
0
100
AcDbLine
 10
-107.8387803358973
 20
43.50555480363683
 30
0.0
 11
-107.2569829354421
 21
43.42485292232757
 31
0.0
  0
LINE
  5
1CF
330
1F
100
AcDbEntity
  8
0
100
AcDbLine
 10
-107.2569829354421
 20
43.42485292232757
 30
0.0
 11
-106.7158969845331
 21
43.19632064331206
 31
0.0
  0
LINE
  5
1D0
330
1F
100
AcDbEntity
  8
0
100
AcDbLine
 10
-106.7158969845331
 20
43.19632064331206
 30
0.0
 11
-106.2523965965377
 21
42.83553206373766
 31
0.0
  0
LINE
  5
1D1
330
1F
100
AcDbEntity
  8
0
100
AcDbLine
 10
-106.2523965965377
 20
42.83553206373766
 30
0.0
 11
-105.8980685569273
 21
42.36707432907099
 31
0.0
  0
LINE
  5
1D2
330
1F
100
AcDbEntity
  8
0
100
AcDbLine
 10
-105.8980685569273
 20
42.36707432907099
 30
0.0
 11
-105.6770597360467
 21
41.8228720597666
 31
0.0
  0
LINE
  5
1D3
330
1F
100
AcDbEntity
  8
0
100
AcDbLine
 10
-105.6770597360467
 20
41.8228720597666
 30
0.0
 11
-105.6044315198044
 21
41.24001174114069
 31
0.0
  0
LINE
  5
1D4
330
1F
100
AcDbEntity
  8
0
100
AcDbLine
 10
-105.6044315198044
 20
41.24001174114069
 30
0.0
 11
-105.6851334011135
 21
40.65821434068556
 31
0.0
  0
LINE
  5
1D5
330
1F
100
AcDbEntity
  8
0
100
AcDbLine
 10
-105.6851334011135
 20
40.65821434068556
 30
0.0
 11
-105.913665680129
 21
40.1171283897765
 31
0.0
  0
LINE
  5
1D6
330
1F
100
AcDbEntity
  8
0
100
AcDbLine
 10
-105.913665680129
 20
40.1171283897765
 30
0.0
 11
-106.2744542597034
 21
39.65362800178121
 31
0.0
  0
LINE
  5
1D7
330
1F
100
AcDbEntity
  8
0
100
AcDbLine
 10
-106.7429119943703
 20
39.2992999621708
 30
0.0
 11
-107.2871142636747
 21
39.07829114129007
 31
0.0
  0
LINE
  5
1D8
330
1F
100
AcDbEntity
  8
0
100
AcDbLine
 10
-107.2871142636747
 20
39.07829114129007
 30
0.0
 11
-107.8699745823006
 21
39.00566292504787
 31
0.0
  0
LINE
  5
1D9
330
1F
100
AcDbEntity
  8
0
100
AcDbLine
 10
-107.8699745823006
 20
39.00566292504787
 30
0.0
 11
-108.4517719827557
 21
39.08636480635696
 31
0.0
  0
LINE
  5
1DA
330
1F
100
AcDbEntity
  8
0
100
AcDbLine
 10
-108.4517719827557
 20
39.08636480635696
 30
0.0
 11
-108.9928579336648
 21
39.31489708537246
 31
0.0
  0
LINE
  5
1DB
330
1F
100
AcDbEntity
  8
0
100
AcDbLine
 10
-108.9928579336648
 20
39.31489708537246
 30
0.0
 11
-109.45635832166
 21
39.67568566494705
 31
0.0
  0
LINE
  5
1DC
330
1F
100
AcDbEntity
  8
0
100
AcDbLine
 10
-109.45635832166
 20
39.67568566494705
 30
0.0
 11
-109.8106863612705
 21
40.14414339961372
 31
0.0
  0
LINE
  5
1DD
330
1F
100
AcDbEntity
  8
0
100
AcDbLine
 10
-109.8106863612705
 20
40.14414339961372
 30
0.0
 11
-110.031695182151
 21
40.6883456689181
 31
0.0
  0
LINE
  5
1DE
330
1F
100
AcDbEntity
  8
0
100
AcDbLine
 10
-110.031695182151
 20
40.6883456689181
 30
0.0
 11
-110.1043233983934
 21
41.27120598754401
 31
0.0
  0
LINE
  5
1DF
330
1F
100
AcDbEntity
  8
0
100
AcDbLine
 10
-110.1043233983934
 20
41.27120598754401
 30
0.0
 11
-110.0236215170843
 21
41.85300338799915
 31
0.0
  0
LINE
  5
1E0
330
1F
100
AcDbEntity
  8
0
100
AcDbLine
 10
-110.0236215170843
 20
41.85300338799915
 30
0.0
 11
-109.7950892380687
 21
42.3940893389082
 31
0.0
  0
LINE
  5
1E1
330
1F
100
AcDbEntity
  8
0
100
AcDbLine
 10
-65.4367203105794
 20
39.08227575519199
 30
0.0
 11
-65.97937745909867
 21
39.30705170582739
 31
0.0
  0
LINE
  5
1E2
330
1F
100
AcDbEntity
  8
0
100
AcDbLine
 10
-65.97937745909867
 20
39.30705170582739
 30
0.0
 11
-66.44536771676846
 21
39.66461860667265
 31
0.0
  0
LINE
  5
1E3
330
1F
100
AcDbEntity
  8
0
100
AcDbLine
 10
-66.44536771676846
 20
39.66461860667265
 30
0.0
 11
-66.80293461761372
 21
40.13060886434243
 31
0.0
  0
LINE
  5
1E4
330
1F
100
AcDbEntity
  8
0
100
AcDbLine
 10
-63.26338720142905
 20
42.84659912201224
 30
0.0
 11
-62.90582030058378
 21
42.38060886434246
 31
0.0
  0
LINE
  5
1E5
330
1F
100
AcDbEntity
  8
0
100
AcDbLine
 10
-62.60437745909872
 20
41.25560886434253
 30
0.0
 11
-62.68104434994839
 21
40.67326601286188
 31
0.0
  0
LINE
  5
1E6
330
1F
100
AcDbEntity
  8
0
100
AcDbLine
 10
-62.68104434994839
 20
40.67326601286188
 30
0.0
 11
-62.9058203005837
 21
40.13060886434261
 31
0.0
  0
LINE
  5
1E7
330
1F
100
AcDbEntity
  8
0
100
AcDbLine
 10
-62.9058203005837
 20
40.13060886434261
 30
0.0
 11
-63.26338720142896
 21
39.66461860667283
 31
0.0
  0
LINE
  5
1E8
330
1F
100
AcDbEntity
  8
0
100
AcDbLine
 10
-63.26338720142896
 20
39.66461860667283
 30
0.0
 11
-63.72937745909864
 21
39.30705170582739
 31
0.0
  0
LINE
  5
1E9
330
1F
100
AcDbEntity
  8
0
100
AcDbLine
 10
-63.72937745909864
 20
39.30705170582739
 30
0.0
 11
-64.2720346076181
 21
39.08227575519199
 31
0.0
  0
LINE
  5
1EA
330
1F
100
AcDbEntity
  8
0
100
AcDbLine
 10
-64.2720346076181
 20
39.08227575519199
 30
0.0
 11
-64.85437745909866
 21
39.00560886434251
 31
0.0
  0
LINE
  5
1EB
330
1F
100
AcDbEntity
  8
0
100
AcDbLine
 10
-64.85437745909866
 20
39.00560886434251
 30
0.0
 11
-65.4367203105794
 21
39.08227575519199
 31
0.0
  0
LINE
  5
1EC
330
1F
100
AcDbEntity
  8
0
100
AcDbLine
 10
-66.8029346176139
 20
101.010943156605
 30
0.0
 11
-67.02771056824929
 21
101.5536003051242
 31
0.0
  0
LINE
  5
1ED
330
1F
100
AcDbEntity
  8
0
100
AcDbLine
 10
-67.02771056824929
 20
101.5536003051242
 30
0.0
 11
-67.10437745909896
 21
102.1359431566051
 31
0.0
  0
LINE
  5
1EE
330
1F
100
AcDbEntity
  8
0
100
AcDbLine
 10
-67.02771056824947
 20
102.7182860080857
 30
0.0
 11
-66.8029346176139
 21
103.260943156605
 31
0.0
  0
LINE
  5
1EF
330
1F
100
AcDbEntity
  8
0
100
AcDbLine
 10
-66.8029346176139
 20
103.260943156605
 30
0.0
 11
-66.44536771676881
 21
103.7269334142748
 31
0.0
  0
LINE
  5
1F0
330
1F
100
AcDbEntity
  8
0
100
AcDbLine
 10
-66.44536771676881
 20
103.7269334142748
 30
0.0
 11
-65.97937745909904
 21
104.08450031512
 31
0.0
  0
LINE
  5
1F1
330
1F
100
AcDbEntity
  8
0
100
AcDbLine
 10
-65.97937745909904
 20
104.08450031512
 30
0.0
 11
-65.43672031057959
 21
104.3092762657556
 31
0.0
  0
LINE
  5
1F2
330
1F
100
AcDbEntity
  8
0
100
AcDbLine
 10
-65.43672031057959
 20
104.3092762657556
 30
0.0
 11
-64.85437745909893
 21
104.3859431566051
 31
0.0
  0
LINE
  5
1F3
330
1F
100
AcDbEntity
  8
0
100
AcDbLine
 10
-64.85437745909893
 20
104.3859431566051
 30
0.0
 11
-64.27203460761828
 21
104.3092762657556
 31
0.0
  0
LINE
  5
1F4
330
1F
100
AcDbEntity
  8
0
100
AcDbLine
 10
-64.27203460761828
 20
104.3092762657556
 30
0.0
 11
-63.72937745909891
 21
104.0845003151202
 31
0.0
  0
LINE
  5
1F5
330
1F
100
AcDbEntity
  8
0
100
AcDbLine
 10
-63.72937745909891
 20
104.0845003151202
 30
0.0
 11
-63.26338720142923
 21
103.726933414275
 31
0.0
  0
LINE
  5
1F6
330
1F
100
AcDbEntity
  8
0
100
AcDbLine
 10
-63.26338720142923
 20
103.726933414275
 30
0.0
 11
-62.90582030058397
 21
103.2609431566052
 31
0.0
  0
LINE
  5
1F7
330
1F
100
AcDbEntity
  8
0
100
AcDbLine
 10
-62.90582030058397
 20
103.2609431566052
 30
0.0
 11
-62.68104434994839
 21
102.7182860080859
 31
0.0
  0
LINE
  5
1F8
330
1F
100
AcDbEntity
  8
0
100
AcDbLine
 10
-62.68104434994839
 20
102.7182860080859
 30
0.0
 11
-62.6043774590989
 21
102.1359431566051
 31
0.0
  0
LINE
  5
1F9
330
1F
100
AcDbEntity
  8
0
100
AcDbLine
 10
-62.68104434994839
 20
101.5536003051244
 30
0.0
 11
-62.90582030058378
 21
101.0109431566051
 31
0.0
  0
LINE
  5
1FA
330
1F
100
AcDbEntity
  8
0
100
AcDbLine
 10
-62.90582030058378
 20
101.0109431566051
 30
0.0
 11
-63.26338720142905
 21
100.5449528989354
 31
0.0
  0
LINE
  5
1FB
330
1F
100
AcDbEntity
  8
0
100
AcDbLine
 10
-63.26338720142905
 20
100.5449528989354
 30
0.0
 11
-63.72937745909883
 21
100.1873859980901
 31
0.0
  0
LINE
  5
1FC
330
1F
100
AcDbEntity
  8
0
100
AcDbLine
 10
-63.72937745909883
 20
100.1873859980901
 30
0.0
 11
-64.2720346076181
 21
99.96261004745453
 31
0.0
  0
LINE
  5
1FD
330
1F
100
AcDbEntity
  8
0
100
AcDbLine
 10
-64.2720346076181
 20
99.96261004745453
 30
0.0
 11
-64.85437745909876
 21
99.88594315660504
 31
0.0
  0
LINE
  5
1FE
330
1F
100
AcDbEntity
  8
0
100
AcDbLine
 10
-64.85437745909876
 20
99.88594315660504
 30
0.0
 11
-65.43672031057959
 21
99.96261004745453
 31
0.0
  0
LINE
  5
1FF
330
1F
100
AcDbEntity
  8
0
100
AcDbLine
 10
-65.43672031057959
 20
99.96261004745453
 30
0.0
 11
-65.97937745909886
 21
100.1873859980899
 31
0.0
  0
LINE
  5
200
330
1F
100
AcDbEntity
  8
0
100
AcDbLine
 10
-65.97937745909886
 20
100.1873859980899
 30
0.0
 11
-66.44536771676863
 21
100.5449528989352
 31
0.0
  0
LINE
  5
201
330
1F
100
AcDbEntity
  8
0
100
AcDbLine
 10
-94.83124618781987
 20
-69.9171931659541
 30
0.0
 11
-94.67640053293778
 21
-69.54336268586307
 31
0.0
  0
LINE
  5
202
330
1F
100
AcDbEntity
  8
0
100
AcDbLine
 10
-95.07757005284667
 20
-70.23820867679335
 30
0.0
 11
-94.83124618781987
 21
-69.9171931659541
 31
0.0
  0
LINE
  5
203
330
1F
100
AcDbEntity
  8
0
100
AcDbLine
 10
-95.39858556368581
 20
-70.48453254182014
 30
0.0
 11
-95.07757005284667
 21
-70.23820867679335
 31
0.0
  0
LINE
  5
204
330
1F
100
AcDbEntity
  8
0
100
AcDbLine
 10
-95.77241604377694
 20
-70.63937819670232
 30
0.0
 11
-95.39858556368581
 21
-70.48453254182014
 31
0.0
  0
LINE
  5
205
330
1F
100
AcDbEntity
  8
0
100
AcDbLine
 10
-96.17358556368573
 20
-70.69219316595411
 30
0.0
 11
-95.77241604377694
 21
-70.63937819670232
 31
0.0
  0
LINE
  5
206
330
1F
100
AcDbEntity
  8
0
100
AcDbLine
 10
-96.57475508359461
 20
-70.63937819670232
 30
0.0
 11
-96.17358556368573
 21
-70.69219316595411
 31
0.0
  0
LINE
  5
207
330
1F
100
AcDbEntity
  8
0
100
AcDbLine
 10
-96.94858556368582
 20
-70.48453254182014
 30
0.0
 11
-96.57475508359461
 21
-70.63937819670232
 31
0.0
  0
LINE
  5
208
330
1F
100
AcDbEntity
  8
0
100
AcDbLine
 10
-97.26960107452489
 20
-70.23820867679335
 30
0.0
 11
-96.94858556368582
 21
-70.48453254182014
 31
0.0
  0
LINE
  5
209
330
1F
100
AcDbEntity
  8
0
100
AcDbLine
 10
-97.51592493955158
 20
-69.9171931659541
 30
0.0
 11
-97.26960107452489
 21
-70.23820867679335
 31
0.0
  0
LINE
  5
20A
330
1F
100
AcDbEntity
  8
0
100
AcDbLine
 10
-97.67077059443386
 20
-69.54336268586307
 30
0.0
 11
-97.51592493955158
 21
-69.9171931659541
 31
0.0
  0
LINE
  5
20B
330
1F
100
AcDbEntity
  8
0
100
AcDbLine
 10
-97.72358556368583
 20
-69.14219316595428
 30
0.0
 11
-97.67077059443386
 21
-69.54336268586307
 31
0.0
  0
LINE
  5
20C
330
1F
100
AcDbEntity
  8
0
100
AcDbLine
 10
-97.67077059443386
 20
-68.7410236460453
 30
0.0
 11
-97.72358556368583
 21
-69.14219316595428
 31
0.0
  0
LINE
  5
20D
330
1F
100
AcDbEntity
  8
0
100
AcDbLine
 10
-97.51592493955168
 20
-68.3671931659541
 30
0.0
 11
-97.67077059443386
 21
-68.7410236460453
 31
0.0
  0
LINE
  5
20E
330
1F
100
AcDbEntity
  8
0
100
AcDbLine
 10
-97.26960107452497
 20
-68.04617765511503
 30
0.0
 11
-97.51592493955168
 21
-68.3671931659541
 31
0.0
  0
LINE
  5
20F
330
1F
100
AcDbEntity
  8
0
100
AcDbLine
 10
-96.94858556368582
 20
-67.79985379008825
 30
0.0
 11
-97.26960107452497
 21
-68.04617765511503
 31
0.0
  0
LINE
  5
210
330
1F
100
AcDbEntity
  8
0
100
AcDbLine
 10
-96.5747550835947
 20
-67.64500813520607
 30
0.0
 11
-96.94858556368582
 21
-67.79985379008825
 31
0.0
  0
LINE
  5
211
330
1F
100
AcDbEntity
  8
0
100
AcDbLine
 10
-96.1735855636859
 20
-67.59219316595427
 30
0.0
 11
-96.5747550835947
 21
-67.64500813520607
 31
0.0
  0
LINE
  5
212
330
1F
100
AcDbEntity
  8
0
100
AcDbLine
 10
-95.77241604377694
 20
-67.64500813520607
 30
0.0
 11
-96.1735855636859
 21
-67.59219316595427
 31
0.0
  0
LINE
  5
213
330
1F
100
AcDbEntity
  8
0
100
AcDbLine
 10
-95.39858556368581
 20
-67.79985379008825
 30
0.0
 11
-95.77241604377694
 21
-67.64500813520607
 31
0.0
  0
LINE
  5
214
330
1F
100
AcDbEntity
  8
0
100
AcDbLine
 10
-95.07757005284667
 20
-68.04617765511503
 30
0.0
 11
-95.39858556368581
 21
-67.79985379008825
 31
0.0
  0
LINE
  5
215
330
1F
100
AcDbEntity
  8
0
100
AcDbLine
 10
-94.83124618782006
 20
-68.36719316595428
 30
0.0
 11
-95.07757005284667
 21
-68.04617765511503
 31
0.0
  0
LINE
  5
216
330
1F
100
AcDbEntity
  8
0
100
AcDbLine
 10
-94.67640053293778
 20
-68.7410236460453
 30
0.0
 11
-94.83124618782006
 21
-68.36719316595428
 31
0.0
  0
LINE
  5
217
330
1F
100
AcDbEntity
  8
0
100
AcDbLine
 10
-94.62358556368581
 20
-69.14219316595428
 30
0.0
 11
-94.67640053293778
 21
-68.7410236460453
 31
0.0
  0
LINE
  5
218
330
1F
100
AcDbEntity
  8
0
100
AcDbLine
 10
-94.67640053293778
 20
-69.54336268586307
 30
0.0
 11
-94.62358556368581
 21
-69.14219316595428
 31
0.0
  0
LINE
  5
219
330
1F
100
AcDbEntity
  8
0
100
AcDbLine
 10
-40.77241604377681
 20
-70.63937819670232
 30
0.0
 11
-40.39858556368569
 21
-70.48453254182014
 31
0.0
  0
LINE
  5
21A
330
1F
100
AcDbEntity
  8
0
100
AcDbLine
 10
-41.17358556368578
 20
-70.69219316595411
 30
0.0
 11
-40.77241604377681
 21
-70.63937819670232
 31
0.0
  0
LINE
  5
21B
330
1F
100
AcDbEntity
  8
0
100
AcDbLine
 10
-41.57475508359457
 20
-70.63937819670232
 30
0.0
 11
-41.17358556368578
 21
-70.69219316595411
 31
0.0
  0
LINE
  5
21C
330
1F
100
AcDbEntity
  8
0
100
AcDbLine
 10
-41.9485855636857
 20
-70.48453254182014
 30
0.0
 11
-41.57475508359457
 21
-70.63937819670232
 31
0.0
  0
LINE
  5
21D
330
1F
100
AcDbEntity
  8
0
100
AcDbLine
 10
-42.26960107452485
 20
-70.23820867679335
 30
0.0
 11
-41.9485855636857
 21
-70.48453254182014
 31
0.0
  0
LINE
  5
21E
330
1F
100
AcDbEntity
  8
0
100
AcDbLine
 10
-42.51592493955164
 20
-69.91719316595429
 30
0.0
 11
-42.26960107452485
 21
-70.23820867679335
 31
0.0
  0
LINE
  5
21F
330
1F
100
AcDbEntity
  8
0
100
AcDbLine
 10
-42.67077059443373
 20
-69.54336268586307
 30
0.0
 11
-42.51592493955164
 21
-69.91719316595429
 31
0.0
  0
LINE
  5
220
330
1F
100
AcDbEntity
  8
0
100
AcDbLine
 10
-42.72358556368579
 20
-69.14219316595428
 30
0.0
 11
-42.67077059443373
 21
-69.54336268586307
 31
0.0
  0
LINE
  5
221
330
1F
100
AcDbEntity
  8
0
100
AcDbLine
 10
-42.67077059443383
 20
-68.7410236460453
 30
0.0
 11
-42.72358556368579
 21
-69.14219316595428
 31
0.0
  0
LINE
  5
222
330
1F
100
AcDbEntity
  8
0
100
AcDbLine
 10
-42.51592493955164
 20
-68.36719316595428
 30
0.0
 11
-42.67077059443383
 21
-68.7410236460453
 31
0.0
  0
LINE
  5
223
330
1F
100
AcDbEntity
  8
0
100
AcDbLine
 10
-42.26960107452503
 20
-68.04617765511503
 30
0.0
 11
-42.51592493955164
 21
-68.36719316595428
 31
0.0
  0
LINE
  5
224
330
1F
100
AcDbEntity
  8
0
100
AcDbLine
 10
-41.94858556368579
 20
-67.79985379008825
 30
0.0
 11
-42.26960107452503
 21
-68.04617765511503
 31
0.0
  0
LINE
  5
225
330
1F
100
AcDbEntity
  8
0
100
AcDbLine
 10
-41.57475508359476
 20
-67.64500813520607
 30
0.0
 11
-41.94858556368579
 21
-67.79985379008825
 31
0.0
  0
LINE
  5
226
330
1F
100
AcDbEntity
  8
0
100
AcDbLine
 10
-41.17358556368578
 20
-67.59219316595427
 30
0.0
 11
-41.57475508359476
 21
-67.64500813520607
 31
0.0
  0
LINE
  5
227
330
1F
100
AcDbEntity
  8
0
100
AcDbLine
 10
-40.7724160437769
 20
-67.64500813520607
 30
0.0
 11
-41.17358556368578
 21
-67.59219316595427
 31
0.0
  0
LINE
  5
228
330
1F
100
AcDbEntity
  8
0
100
AcDbLine
 10
-40.39858556368578
 20
-67.79985379008825
 30
0.0
 11
-40.7724160437769
 21
-67.64500813520607
 31
0.0
  0
LINE
  5
229
330
1F
100
AcDbEntity
  8
0
100
AcDbLine
 10
-40.07757005284662
 20
-68.04617765511503
 30
0.0
 11
-40.39858556368578
 21
-67.79985379008825
 31
0.0
  0
LINE
  5
22A
330
1F
100
AcDbEntity
  8
0
100
AcDbLine
 10
-39.83124618781993
 20
-68.3671931659541
 30
0.0
 11
-40.07757005284662
 21
-68.04617765511503
 31
0.0
  0
LINE
  5
22B
330
1F
100
AcDbEntity
  8
0
100
AcDbLine
 10
-39.67640053293774
 20
-68.7410236460453
 30
0.0
 11
-39.83124618781993
 21
-68.3671931659541
 31
0.0
  0
LINE
  5
22C
330
1F
100
AcDbEntity
  8
0
100
AcDbLine
 10
-39.62358556368578
 20
-69.1421931659541
 30
0.0
 11
-39.67640053293774
 21
-68.7410236460453
 31
0.0
  0
LINE
  5
22D
330
1F
100
AcDbEntity
  8
0
100
AcDbLine
 10
-39.67640053293766
 20
-69.54336268586307
 30
0.0
 11
-39.62358556368578
 21
-69.1421931659541
 31
0.0
  0
LINE
  5
22E
330
1F
100
AcDbEntity
  8
0
100
AcDbLine
 10
-39.83124618781993
 20
-69.9171931659541
 30
0.0
 11
-39.67640053293766
 21
-69.54336268586307
 31
0.0
  0
LINE
  5
22F
330
1F
100
AcDbEntity
  8
0
100
AcDbLine
 10
-40.07757005284654
 20
-70.23820867679335
 30
0.0
 11
-39.83124618781993
 21
-69.9171931659541
 31
0.0
  0
LINE
  5
230
330
1F
100
AcDbEntity
  8
0
100
AcDbLine
 10
-40.39858556368569
 20
-70.48453254182014
 30
0.0
 11
-40.07757005284654
 21
-70.23820867679335
 31
0.0
  0
ENDSEC
  0
SECTION
  2
OBJECTS
  0
DICTIONARY
  5
C
330
0
100
AcDbDictionary
  3
ACAD_GROUP
350
D
  3
ACAD_LAYOUT
350
1A
  3
ACAD_MATERIAL
350
3B
  3
ACAD_MLEADERSTYLE
350
253
  3
ACAD_MLINESTYLE
350
17
  3
ACAD_PLOTSETTINGS
350
19
  3
ACAD_VISUALSTYLE
350
2A
  3
ACDBHEADERROUNDTRIPXREC
350
231
  3
ACDBVARIABLEDICTIONARY
350
251
  0
DICTIONARY
  5
D
102
{ACAD_REACTORS
330
C
102
}
330
C
100
AcDbDictionary
  0
DICTIONARY
  5
1A
102
{ACAD_REACTORS
330
C
102
}
330
C
100
AcDbDictionary
  0
DICTIONARY
  5
3B
102
{ACAD_REACTORS
330
C
102
}
330
C
100
AcDbDictionary
  3
BYBLOCK
350
3D
  3
BYLAYER
350
3C
  3
GLOBAL
350
3E
  0
DICTIONARY
  5
253
102
{ACAD_REACTORS
330
C
102
}
330
C
100
AcDbDictionary
  0
DICTIONARY
  5
17
102
{ACAD_REACTORS
330
C
102
}
330
C
100
AcDbDictionary
  3
STANDARD
350
18
  0
DICTIONARY
  5
19
102
{ACAD_REACTORS
330
C
102
}
330
C
100
AcDbDictionary
  0
DICTIONARY
  5
2A
102
{ACAD_REACTORS
330
C
102
}
330
C
100
AcDbDictionary
  3
2DWIREFRAME
350
2F
  3
3D_HIDDEN
350
31
  3
3DWIREFRAME
350
30
  3
BASIC
350
32
  3
BRIGHTEN
350
36
  3
COLORCHANGE
350
3A
  3
CONCEPTUAL
350
34
  3
DIM
350
35
  3
FACEPATTERN
350
39
  3
FLAT
350
2B
  3
FLATWITHEDGES
350
2C
  3
GOURAUD
350
2D
  3
GOURAUDWITHEDGES
350
2E
  3
LINEPATTERN
350
38
  3
REALISTIC
350
33
  3
THICKEN
350
37
  0
DICTIONARY
  5
231
102
{ACAD_REACTORS
330
C
102
}
330
C
100
AcDbDictionary
  3
CEPSNTYPE
350
23A
  3
DIMSTYLEDATA
350
250
  3
FINGERPRINTGUID
350
23B
  3
HYPERLINKBASE
350
234
  3
INSUNITS
350
239
  3
LAYOUTDICT
350
236
  3
LWETCUNION
350
238
  3
PLOTSETDICT
350
237
  3
PSVPSCALE
350
23D
  3
PUCSBASE
350
240
  3
PUCSORGBACK
350
246
  3
PUCSORGBOTTOM
350
242
  3
PUCSORGFRONT
350
245
  3
PUCSORGLEFT
350
243
  3
PUCSORGRIGHT
350
244
  3
PUCSORGTOP
350
241
  3
PUCSORTHOREF
350
23E
  3
PUCSORTHOVIEW
350
23F
  3
STYLESHEET
350
235
  3
TSTACKALIGN
350
232
  3
TSTACKSIZE
350
233
  3
UCSBASE
350
249
  3
UCSORGBACK
350
24F
  3
UCSORGBOTTOM
350
24B
  3
UCSORGFRONT
350
24E
  3
UCSORGLEFT
350
24C
  3
UCSORGRIGHT
350
24D
  3
UCSORGTOP
350
24A
  3
UCSORTHOREF
350
247
  3
UCSORTHOVIEW
350
248
  3
VERSIONGUID
350
23C
  0
DICTIONARY
  5
251
102
{ACAD_REACTORS
330
C
102
}
330
C
100
AcDbDictionary
  3
DIMASSOC
350
254
  3
HIDETEXT
350
255
  0
MATERIAL
  5
3D
102
{ACAD_REACTORS
330
3B
102
}
102
{ACAD_XDICTIONARY
360
258
102
}
330
3B
100
AcDbMaterial
  1
ByBlock
  0
MATERIAL
  5
3C
102
{ACAD_REACTORS
330
3B
102
}
102
{ACAD_XDICTIONARY
360
256
102
}
330
3B
100
AcDbMaterial
  1
ByLayer
  0
MATERIAL
  5
3E
102
{ACAD_REACTORS
330
3B
102
}
102
{ACAD_XDICTIONARY
360
25A
102
}
330
3B
100
AcDbMaterial
  1
Global
  0
MLINESTYLE
  5
18
102
{ACAD_REACTORS
330
17
102
}
330
17
100
AcDbMlineStyle
  2
Standard
 70
     0
  3

 62
   256
 51
90.0
 52
90.0
 71
     2
 49
0.5
 62
   256
  6
BYLAYER
 49
-0.5
 62
   256
  6
BYLAYER
  0
ACAD_PROXY_OBJECT
  5
2F
102
{ACAD_REACTORS
330
2A
102
}
330
2A
100
AcDbProxyObject
 90
      499
 91
      501
 93
      436
310
42CC9915DA5C99599C985B595049028333333333333E3BF0000000000000FB0107901411070040501600405405064090741402480A0340
1001
ACAD
1000
AcDbSavedByObjectVersion
1070
     0
  0
ACAD_PROXY_OBJECT
  5
31
102
{ACAD_REACTORS
330
2A
102
}
330
2A
100
AcDbProxyObject
 90
      499
 91
      501
 93
      500
310
424CD108121A5919195B90640502408333333333333E3BF0000000000000FB01079024090700405020000000000001110200405405064090740C02480A0340
1001
ACAD
1000
AcDbSavedByObjectVersion
1070
     0
  0
ACAD_PROXY_OBJECT
  5
30
102
{ACAD_REACTORS
330
2A
102
}
330
2A
100
AcDbProxyObject
 90
      499
 91
      501
 93
      436
310
42CCD915DA5C99599C985B595059028333333333333E3BF0000000000000FB0107901411070040501600405405064090741402480A0340
1001
ACAD
1000
AcDbSavedByObjectVersion
1070
     0
  0
ACAD_PROXY_OBJECT
  5
32
102
{ACAD_REACTORS
330
2A
102
}
330
2A
100
AcDbProxyObject
 90
      499
 91
      501
 93
      388
310
4150985CDA58D07406404333333333333E3BF0000000000000FB0107A41107004050150841D405064090741402480A0350
1001
ACAD
1000
AcDbSavedByObjectVersion
1070
     0
  0
ACAD_PROXY_OBJECT
  5
36
102
{ACAD_REACTORS
330
2A
102
}
330
2A
100
AcDbProxyObject
 90
      499
 91
      501
 93
      428
310
42109C9A59DA1D195B90C409028333333333333E3BF0000000000000FB010790141107004050150841D405064090741402480A029950
1001
ACAD
1000
AcDbSavedByObjectVersion
1070
     0
  0
ACAD_PROXY_OBJECT
  5
3A
102
{ACAD_REACTORS
330
2A
102
}
330
2A
100
AcDbProxyObject
 90
      499
 91
      501
 93
      452
310
42D0DBDB1BDC90DA185B99D95104090240C333333333333E3BF0000000000000FB0108901411070040501508421405064090741402480A0350
1001
ACAD
1000
AcDbSavedByObjectVersion
1070
     0
  0
ACAD_PROXY_OBJECT
  5
34
102
{ACAD_REACTORS
330
2A
102
}
330
2A
100
AcDbProxyObject
 90
      499
 91
      501
 93
      500
310
4290DBDB98D95C1D1D585B10940D028333333333333E3BF0000000000000FB0107902409070040501000000000000111010841D405064090740C02480A0340
1001
ACAD
1000
AcDbSavedByObjectVersion
1070
     0
  0
ACAD_PROXY_OBJECT
  5
35
102
{ACAD_REACTORS
330
2A
102
}
330
2A
100
AcDbProxyObject
 90
      499
 91
      501
 93
      412
310
40D11A5B50B409028333333333333E3BF0000000000000FB010790141107004050150841D405064090741402480A02677FFFFFD0
1001
ACAD
1000
AcDbSavedByObjectVersion
1070
     0
  0
ACAD_PROXY_OBJECT
  5
39
102
{ACAD_REACTORS
330
2A
102
}
330
2A
100
AcDbProxyObject
 90
      499
 91
      501
 93
      444
310
42D19858D95C185D1D195C9B90F409028333333333333E3BF0000000000000FB010790141107004050150841D405064090741402480A0350
1001
ACAD
1000
AcDbSavedByObjectVersion
1070
     0
  0
ACAD_PROXY_OBJECT
  5
2B
102
{ACAD_REACTORS
330
2A
102
}
330
2A
100
AcDbProxyObject
 90
      499
 91
      501
 93
      388
310
41119B185D240901404333333333333E3BF0000000000000F9010740A41107004050150841D405064090741402480A1B50
1001
ACAD
1000
AcDbSavedByObjectVersion
1070
     0
  0
ACAD_PROXY_OBJECT
  5
2C
102
{ACAD_REACTORS
330
2A
102
}
330
2A
100
AcDbProxyObject
 90
      499
 91
      501
 93
      476
310
43519B185D15DA5D1A115919D95CD0140901404333333333333E3BF0000000000000F9010740901411070040501600405405064090741402480A1B50
1001
ACAD
1000
AcDbSavedByObjectVersion
1070
     0
  0
ACAD_PROXY_OBJECT
  5
2D
102
{ACAD_REACTORS
330
2A
102
}
330
2A
100
AcDbProxyObject
 90
      499
 91
      501
 93
      412
310
41D1DBDD5C985D5910240902404333333333333E3BF0000000000000F9010740A411070040501641D405064090741402480A1B50
1001
ACAD
1000
AcDbSavedByObjectVersion
1070
     0
  0
ACAD_PROXY_OBJECT
  5
2E
102
{ACAD_REACTORS
330
2A
102
}
330
2A
100
AcDbProxyObject
 90
      499
 91
      501
 93
      500
310
4411DBDD5C985D5915DA5D1A115919D95CD0340902404333333333333E3BF0000000000000F9010740901411070040501600405405064090741402480A1B50
1001
ACAD
1000
AcDbSavedByObjectVersion
1070
     0
  0
ACAD_PROXY_OBJECT
  5
38
102
{ACAD_REACTORS
330
2A
102
}
330
2A
100
AcDbProxyObject
 90
      499
 91
      501
 93
      444
310
42D31A5B995C185D1D195C9B90E409028333333333333E3BF0000000000000FB010790141107004050750841D405064090741402483A0350
1001
ACAD
1000
AcDbSavedByObjectVersion
1070
     0
  0
ACAD_PROXY_OBJECT
  5
33
102
{ACAD_REACTORS
330
2A
102
}
330
2A
100
AcDbProxyObject
 90
      499
 91
      501
 93
      420
310
425499585B1A5CDD1A58D08409028333333333333E3BF0000000000000FB01079019070040501508421405064090741402480A1B40
1001
ACAD
1000
AcDbSavedByObjectVersion
1070
     0
  0
ACAD_PROXY_OBJECT
  5
37
102
{ACAD_REACTORS
330
2A
102
}
330
2A
100
AcDbProxyObject
 90
      499
 91
      501
 93
      412
310
41D51A1A58DAD95B90D409028333333333333E3BF0000000000000FB010790141107004050150C41D405064090741402480A0350
1001
ACAD
1000
AcDbSavedByObjectVersion
1070
     0
  0
XRECORD
  5
23A
102
{ACAD_REACTORS
330
231
102
}
330
231
100
AcDbXrecord
 90
        0
  0
XRECORD
  5
250
102
{ACAD_REACTORS
330
231
102
}
330
231
100
AcDbXrecord
1000
DSTYLE
1002
{
1070
   340
340
11
1002
}
  0
XRECORD
  5
23B
102
{ACAD_REACTORS
330
231
102
}
330
231
100
AcDbXrecord
  1
{1865B340-8031-41B0-8FBD-C0616681FA62}
  0
XRECORD
  5
234
102
{ACAD_REACTORS
330
231
102
}
330
231
100
AcDbXrecord
  1

  0
XRECORD
  5
239
102
{ACAD_REACTORS
330
231
102
}
330
231
100
AcDbXrecord
 90
        1
  0
XRECORD
  5
236
102
{ACAD_REACTORS
330
231
102
}
330
231
100
AcDbXrecord
340
1A
  0
XRECORD
  5
238
102
{ACAD_REACTORS
330
231
102
}
330
231
100
AcDbXrecord
 90
    10781
  0
XRECORD
  5
237
102
{ACAD_REACTORS
330
231
102
}
330
231
100
AcDbXrecord
340
19
  0
XRECORD
  5
23D
102
{ACAD_REACTORS
330
231
102
}
330
231
100
AcDbXrecord
 40
0.0
  0
XRECORD
  5
240
102
{ACAD_REACTORS
330
231
102
}
330
231
100
AcDbXrecord
340
0
  0
XRECORD
  5
246
102
{ACAD_REACTORS
330
231
102
}
330
231
100
AcDbXrecord
 10
0.0
 20
0.0
 30
0.0
  0
XRECORD
  5
242
102
{ACAD_REACTORS
330
231
102
}
330
231
100
AcDbXrecord
 10
0.0
 20
0.0
 30
0.0
  0
XRECORD
  5
245
102
{ACAD_REACTORS
330
231
102
}
330
231
100
AcDbXrecord
 10
0.0
 20
0.0
 30
0.0
  0
XRECORD
  5
243
102
{ACAD_REACTORS
330
231
102
}
330
231
100
AcDbXrecord
 10
0.0
 20
0.0
 30
0.0
  0
XRECORD
  5
244
102
{ACAD_REACTORS
330
231
102
}
330
231
100
AcDbXrecord
 10
0.0
 20
0.0
 30
0.0
  0
XRECORD
  5
241
102
{ACAD_REACTORS
330
231
102
}
330
231
100
AcDbXrecord
 10
0.0
 20
0.0
 30
0.0
  0
XRECORD
  5
23E
102
{ACAD_REACTORS
330
231
102
}
330
231
100
AcDbXrecord
340
0
  0
XRECORD
  5
23F
102
{ACAD_REACTORS
330
231
102
}
330
231
100
AcDbXrecord
 70
     0
  0
XRECORD
  5
235
102
{ACAD_REACTORS
330
231
102
}
330
231
100
AcDbXrecord
  1

  0
XRECORD
  5
232
102
{ACAD_REACTORS
330
231
102
}
330
231
100
AcDbXrecord
 90
        1
  0
XRECORD
  5
233
102
{ACAD_REACTORS
330
231
102
}
330
231
100
AcDbXrecord
 90
       70
  0
XRECORD
  5
249
102
{ACAD_REACTORS
330
231
102
}
330
231
100
AcDbXrecord
340
0
  0
XRECORD
  5
24F
102
{ACAD_REACTORS
330
231
102
}
330
231
100
AcDbXrecord
 10
0.0
 20
0.0
 30
0.0
  0
XRECORD
  5
24B
102
{ACAD_REACTORS
330
231
102
}
330
231
100
AcDbXrecord
 10
0.0
 20
0.0
 30
0.0
  0
XRECORD
  5
24E
102
{ACAD_REACTORS
330
231
102
}
330
231
100
AcDbXrecord
 10
0.0
 20
0.0
 30
0.0
  0
XRECORD
  5
24C
102
{ACAD_REACTORS
330
231
102
}
330
231
100
AcDbXrecord
 10
0.0
 20
0.0
 30
0.0
  0
XRECORD
  5
24D
102
{ACAD_REACTORS
330
231
102
}
330
231
100
AcDbXrecord
 10
0.0
 20
0.0
 30
0.0
  0
XRECORD
  5
24A
102
{ACAD_REACTORS
330
231
102
}
330
231
100
AcDbXrecord
 10
0.0
 20
0.0
 30
0.0
  0
XRECORD
  5
247
102
{ACAD_REACTORS
330
231
102
}
330
231
100
AcDbXrecord
340
0
  0
XRECORD
  5
248
102
{ACAD_REACTORS
330
231
102
}
330
231
100
AcDbXrecord
 70
     0
  0
XRECORD
  5
23C
102
{ACAD_REACTORS
330
231
102
}
330
231
100
AcDbXrecord
  1
{FAEB1C32-E019-11D5-929B-00C0DF256EC4}
  0
DICTIONARYVAR
  5
254
102
{ACAD_REACTORS
330
251
102
}
330
251
100
DictionaryVariables
280
     0
  1
2
  0
DICTIONARYVAR
  5
255
102
{ACAD_REACTORS
330
251
102
}
330
251
100
DictionaryVariables
280
     0
  1
1
  0
DICTIONARY
  5
258
330
3D
100
AcDbDictionary
280
     1
  3
ACAD_XREC_ROUNDTRIP
360
259
  0
DICTIONARY
  5
256
330
3C
100
AcDbDictionary
280
     1
  3
ACAD_XREC_ROUNDTRIP
360
257
  0
DICTIONARY
  5
25A
330
3E
100
AcDbDictionary
280
     1
  3
ACAD_XREC_ROUNDTRIP
360
25B
  0
XRECORD
  5
259
102
{ACAD_REACTORS
330
258
102
}
330
258
100
AcDbXrecord
102
MATERIAL
148
0.0
149
0.0
149
0.0
 93
        0
 94
      127
282
     0
 72
     1
 77
     1
171
     1
175
     1
179
     1
273
     0
  0
XRECORD
  5
257
102
{ACAD_REACTORS
330
256
102
}
330
256
100
AcDbXrecord
102
MATERIAL
148
0.0
149
0.0
149
0.0
 93
        0
 94
      127
282
     0
 72
     1
 77
     1
171
     1
175
     1
179
     1
273
     0
  0
XRECORD
  5
25B
102
{ACAD_REACTORS
330
25A
102
}
330
25A
100
AcDbXrecord
102
MATERIAL
148
0.0
149
0.0
149
0.0
 93
        0
 94
      127
282
     0
 72
     1
 77
     1
171
     1
175
     1
179
     1
273
     0
  0
ENDSEC
  0
EOF
