  0
SECTION
  2
HEADER
  9
$ACADVER
  1
AC1014
  9
$ACADMAINTVER
 70
     9
  9
$DWGCODEPAGE
  3
ANSI_1252
  9
$INSBASE
 10
0.0
 20
0.0
 30
0.0
  9
$EXTMIN
 10
1.000000000000000E+20
 20
1.000000000000000E+20
 30
1.000000000000000E+20
  9
$EXTMAX
 10
-1.000000000000000E+20
 20
-1.000000000000000E+20
 30
-1.000000000000000E+20
  9
$LIMMIN
 10
0.0
 20
0.0
  9
$LIMMAX
 10
12.0
 20
9.0
  9
$ORTHOMODE
 70
     0
  9
$REGENMODE
 70
     1
  9
$FILLMODE
 70
     1
  9
$QTEXTMODE
 70
     0
  9
$MIRRTEXT
 70
     1
  9
$DRAGMODE
 70
     2
  9
$LTSCALE
 40
1.0
  9
$OSMODE
 70
    37
  9
$ATTMODE
 70
     1
  9
$TEXTSIZE
 40
0.2
  9
$TRACEWID
 40
0.05
  9
$TEXTSTYLE
  7
STANDARD
  9
$CLAYER
  8
0
  9
$CELTYPE
  6
BYLAYER
  9
$CECOLOR
 62
   256
  9
$CELTSCALE
 40
1.0
  9
$DELOBJ
 70
     1
  9
$DISPSILH
 70
     0
  9
$DIMSCALE
 40
1.0
  9
$DIMASZ
 40
0.18
  9
$DIMEXO
 40
0.0625
  9
$DIMDLI
 40
0.38
  9
$DIMRND
 40
0.0
  9
$DIMDLE
 40
0.0
  9
$DIMEXE
 40
0.18
  9
$DIMTP
 40
0.0
  9
$DIMTM
 40
0.0
  9
$DIMTXT
 40
0.18
  9
$DIMCEN
 40
0.09
  9
$DIMTSZ
 40
0.0
  9
$DIMTOL
 70
     0
  9
$DIMLIM
 70
     0
  9
$DIMTIH
 70
     1
  9
$DIMTOH
 70
     1
  9
$DIMSE1
 70
     0
  9
$DIMSE2
 70
     0
  9
$DIMTAD
 70
     0
  9
$DIMZIN
 70
     0
  9
$DIMBLK
  1

  9
$DIMASO
 70
     1
  9
$DIMSHO
 70
     1
  9
$DIMPOST
  1

  9
$DIMAPOST
  1

  9
$DIMALT
 70
     0
  9
$DIMALTD
 70
     2
  9
$DIMALTF
 40
25.4
  9
$DIMLFAC
 40
1.0
  9
$DIMTOFL
 70
     0
  9
$DIMTVP
 40
0.0
  9
$DIMTIX
 70
     0
  9
$DIMSOXD
 70
     0
  9
$DIMSAH
 70
     0
  9
$DIMBLK1
  1

  9
$DIMBLK2
  1

  9
$DIMSTYLE
  2
STANDARD
  9
$DIMCLRD
 70
     0
  9
$DIMCLRE
 70
     0
  9
$DIMCLRT
 70
     0
  9
$DIMTFAC
 40
1.0
  9
$DIMGAP
 40
0.09
  9
$DIMJUST
 70
     0
  9
$DIMSD1
 70
     0
  9
$DIMSD2
 70
     0
  9
$DIMTOLJ
 70
     1
  9
$DIMTZIN
 70
     0
  9
$DIMALTZ
 70
     0
  9
$DIMALTTZ
 70
     0
  9
$DIMFIT
 70
     3
  9
$DIMUPT
 70
     0
  9
$DIMUNIT
 70
     2
  9
$DIMDEC
 70
     4
  9
$DIMTDEC
 70
     4
  9
$DIMALTU
 70
     2
  9
$DIMALTTD
 70
     2
  9
$DIMTXSTY
  7
STANDARD
  9
$DIMAUNIT
 70
     0
  9
$LUNITS
 70
     2
  9
$LUPREC
 70
     4
  9
$SKETCHINC
 40
0.1
  9
$FILLETRAD
 40
0.5
  9
$AUNITS
 70
     0
  9
$AUPREC
 70
     0
  9
$MENU
  1
.
  9
$ELEVATION
 40
0.0
  9
$PELEVATION
 40
0.0
  9
$THICKNESS
 40
0.0
  9
$LIMCHECK
 70
     0
  9
$CHAMFERA
 40
0.5
  9
$CHAMFERB
 40
0.5
  9
$CHAMFERC
 40
1.0
  9
$CHAMFERD
 40
0.0
  9
$SKPOLY
 70
     0
  9
$TDCREATE
 40
2457391.677155475
  9
$TDUPDATE
 40
2457391.677155486
  9
$TDINDWG
 40
0.0000000116
  9
$TDUSRTIMER
 40
0.0000000116
  9
$USRTIMER
 70
     1
  9
$ANGBASE
 50
0.0
  9
$ANGDIR
 70
     0
  9
$PDMODE
 70
     0
  9
$PDSIZE
 40
0.0
  9
$PLINEWID
 40
0.0
  9
$COORDS
 70
     1
  9
$SPLFRAME
 70
     0
  9
$SPLINETYPE
 70
     6
  9
$SPLINESEGS
 70
     8
  9
$ATTDIA
 70
     0
  9
$ATTREQ
 70
     1
  9
$HANDLING
 70
     1
  9
$HANDSEED
  5
168
  9
$SURFTAB1
 70
     6
  9
$SURFTAB2
 70
     6
  9
$SURFTYPE
 70
     6
  9
$SURFU
 70
     6
  9
$SURFV
 70
     6
  9
$UCSNAME
  2

  9
$UCSORG
 10
0.0
 20
0.0
 30
0.0
  9
$UCSXDIR
 10
1.0
 20
0.0
 30
0.0
  9
$UCSYDIR
 10
0.0
 20
1.0
 30
0.0
  9
$PUCSNAME
  2

  9
$PUCSORG
 10
0.0
 20
0.0
 30
0.0
  9
$PUCSXDIR
 10
1.0
 20
0.0
 30
0.0
  9
$PUCSYDIR
 10
0.0
 20
1.0
 30
0.0
  9
$USERI1
 70
     0
  9
$USERI2
 70
     0
  9
$USERI3
 70
     0
  9
$USERI4
 70
     0
  9
$USERI5
 70
     0
  9
$USERR1
 40
0.0
  9
$USERR2
 40
0.0
  9
$USERR3
 40
0.0
  9
$USERR4
 40
0.0
  9
$USERR5
 40
0.0
  9
$WORLDVIEW
 70
     1
  9
$SHADEDGE
 70
     3
  9
$SHADEDIF
 70
    70
  9
$TILEMODE
 70
     1
  9
$MAXACTVP
 70
    64
  9
$PINSBASE
 10
0.0
 20
0.0
 30
0.0
  9
$PLIMCHECK
 70
     0
  9
$PEXTMIN
 10
1.000000000000000E+20
 20
1.000000000000000E+20
 30
1.000000000000000E+20
  9
$PEXTMAX
 10
-1.000000000000000E+20
 20
-1.000000000000000E+20
 30
-1.000000000000000E+20
  9
$PLIMMIN
 10
0.0
 20
0.0
  9
$PLIMMAX
 10
12.0
 20
9.0
  9
$UNITMODE
 70
     0
  9
$VISRETAIN
 70
     1
  9
$PLINEGEN
 70
     0
  9
$PSLTSCALE
 70
     1
  9
$TREEDEPTH
 70
  3020
  9
$PICKSTYLE
 70
     1
  9
$CMLSTYLE
  2
STANDARD
  9
$CMLJUST
 70
     0
  9
$CMLSCALE
 40
1.0
  9
$PROXYGRAPHICS
 70
     1
  9
$MEASUREMENT
 70
     0
  0
ENDSEC
  0
SECTION
  2
CLASSES
  0
CLASS
  1
ACDBDICTIONARYWDFLT
  2
AcDbDictionaryWithDefault
  3
ObjectDBX Classes
 90
        0
280
     0
281
     0
  0
CLASS
  1
VISUALSTYLE
  2
AcDbVisualStyle
  3
ObjectDBX Classes
 90
     4095
280
     0
281
     0
  0
CLASS
  1
MATERIAL
  2
AcDbMaterial
  3
ObjectDBX Classes
 90
     1153
280
     0
281
     0
  0
CLASS
  1
DICTIONARYVAR
  2
AcDbDictionaryVar
  3
ObjectDBX Classes
 90
        0
280
     0
281
     0
  0
CLASS
  1
XRECORD
  2
AcDbXrecord
  3
AutoCAD 2000
 90
        0
280
     0
281
     0
  0
CLASS
  1
LWPOLYLINE
  2
AcDbPolyline
  3
AutoCAD 2000
 90
        0
280
     0
281
     1
  0
CLASS
  1
HATCH
  2
AcDbHatch
  3
AutoCAD 2000
 90
        0
280
     0
281
     1
  0
CLASS
  1
ACDBPLACEHOLDER
  2
AcDbPlaceHolder
  3
ObjectDBX Classes
 90
        0
280
     0
281
     0
  0
CLASS
  1
LAYOUT
  2
AcDbLayout
  3
ObjectDBX Classes
 90
        0
280
     0
281
     0
  0
ENDSEC
  0
SECTION
  2
TABLES
  0
TABLE
  2
VPORT
  5
8
330
0
100
AcDbSymbolTable
 70
     1
  0
VPORT
  5
29
330
8
100
AcDbSymbolTableRecord
100
AcDbViewportTableRecord
  2
*ACTIVE
 70
     0
 10
0.0
 20
0.0
 11
1.0
 21
1.0
 12
0.0
 22
0.0
 13
0.0
 23
0.0
 14
0.5
 24
0.5
 15
0.5
 25
0.5
 16
0.0
 26
0.0
 36
1.0
 17
0.0
 27
0.0
 37
-1000.0
 40
251.6654722275239
 41
1.975257731958763
 42
50.0
 43
812.5816546565277
 44
1396.195355691312
 50
0.0
 51
0.0
 71
     0
 72
   100
 73
     1
 74
     3
 75
     0
 76
     0
 77
     0
 78
     0
  0
ENDTAB
  0
TABLE
  2
LTYPE
  5
5
330
0
100
AcDbSymbolTable
 70
     1
  0
LTYPE
  5
14
330
5
100
AcDbSymbolTableRecord
100
AcDbLinetypeTableRecord
  2
BYBLOCK
 70
     0
  3

 72
    65
 73
     0
 40
0.0
  0
LTYPE
  5
15
330
5
100
AcDbSymbolTableRecord
100
AcDbLinetypeTableRecord
  2
BYLAYER
 70
     0
  3

 72
    65
 73
     0
 40
0.0
  0
LTYPE
  5
16
330
5
100
AcDbSymbolTableRecord
100
AcDbLinetypeTableRecord
  2
CONTINUOUS
 70
     0
  3
Solid line
 72
    65
 73
     0
 40
0.0
  0
ENDTAB
  0
TABLE
  2
LAYER
  5
2
330
0
100
AcDbSymbolTable
 70
     3
  0
LAYER
  5
10
330
2
100
AcDbSymbolTableRecord
100
AcDbLayerTableRecord
  2
0
 70
     0
 62
     7
  6
CONTINUOUS
  0
LAYER
  5
3F
330
2
100
AcDbSymbolTableRecord
100
AcDbLayerTableRecord
  2
PROFILEEDGES
 70
     0
 62
     7
  6
CONTINUOUS
  0
LAYER
  5
40
330
2
100
AcDbSymbolTableRecord
100
AcDbLayerTableRecord
  2
SECTIONCUTEDGES
 70
     0
 62
     7
  6
CONTINUOUS
  0
ENDTAB
  0
TABLE
  2
STYLE
  5
3
330
0
100
AcDbSymbolTable
 70
     1
  0
STYLE
  5
11
330
3
100
AcDbSymbolTableRecord
100
AcDbTextStyleTableRecord
  2
STANDARD
 70
     0
 40
0.0
 41
1.0
 50
0.0
 71
     0
 42
0.2
  3
txt
  4

  0
ENDTAB
  0
TABLE
  2
VIEW
  5
6
330
0
100
AcDbSymbolTable
 70
     0
  0
ENDTAB
  0
TABLE
  2
UCS
  5
7
330
0
100
AcDbSymbolTable
 70
     0
  0
ENDTAB
  0
TABLE
  2
APPID
  5
9
330
0
100
AcDbSymbolTable
 70
     1
  0
APPID
  5
12
330
9
100
AcDbSymbolTableRecord
100
AcDbRegAppTableRecord
  2
ACAD
 70
     0
  0
ENDTAB
  0
TABLE
  2
DIMSTYLE
  5
A
330
0
100
AcDbSymbolTable
 70
     1
  0
DIMSTYLE
105
27
330
A
100
AcDbSymbolTableRecord
100
AcDbDimStyleTableRecord
  2
STANDARD
 70
     0
  3

  4

  5

  6

  7

 40
1.0
 41
0.18
 42
0.0625
 43
0.38
 44
0.18
 45
0.0
 46
0.0
 47
0.0
 48
0.0
140
0.18
141
0.09
142
0.0
143
25.4
144
1.0
145
0.0
146
1.0
147
0.09
 71
     0
 72
     0
 73
     1
 74
     1
 75
     0
 76
     0
 77
     0
 78
     0
170
     0
171
     2
172
     0
173
     0
174
     0
175
     0
176
     0
177
     0
178
     0
270
     2
271
     4
272
     4
273
     2
274
     2
340
11
275
     0
280
     0
281
     0
282
     0
283
     1
284
     0
285
     0
286
     0
287
     3
288
     0
  0
ENDTAB
  0
TABLE
  2
BLOCK_RECORD
  5
1
330
0
100
AcDbSymbolTable
 70
     1
  0
BLOCK_RECORD
  5
1F
330
1
100
AcDbSymbolTableRecord
100
AcDbBlockTableRecord
  2
*MODEL_SPACE
  0
BLOCK_RECORD
  5
1B
330
1
100
AcDbSymbolTableRecord
100
AcDbBlockTableRecord
  2
*PAPER_SPACE
  0
ENDTAB
  0
ENDSEC
  0
SECTION
  2
BLOCKS
  0
BLOCK
  5
20
330
1F
100
AcDbEntity
  8
0
100
AcDbBlockBegin
  2
*MODEL_SPACE
 70
     0
 10
0.0
 20
0.0
 30
0.0
  3
*MODEL_SPACE
  1

  0
ENDBLK
  5
21
330
1F
100
AcDbEntity
  8
0
100
AcDbBlockEnd
  0
BLOCK
  5
1C
330
1B
100
AcDbEntity
 67
     1
  8
0
100
AcDbBlockBegin
  2
*PAPER_SPACE
 70
     0
 10
0.0
 20
0.0
 30
0.0
  3
*PAPER_SPACE
  1

  0
ENDBLK
  5
1D
330
1B
100
AcDbEntity
 67
     1
  8
0
100
AcDbBlockEnd
  0
ENDSEC
  0
SECTION
  2
ENTITIES
  0
LINE
  5
41
330
1F
100
AcDbEntity
  8
0
100
AcDbLine
 10
-12.439041119547
 20
-90.77137801866321
 30
0.0
 11
-12.7340771760805
 21
-91.03011769597721
 31
0.0
  0
LINE
  5
42
330
1F
100
AcDbEntity
  8
0
100
AcDbLine
 10
-50.68593451675087
 20
74.6297382131092
 30
0.0
 11
-50.76801904729799
 21
74.68211855051763
 31
0.0
  0
LINE
  5
43
330
1F
100
AcDbEntity
  8
0
100
AcDbLine
 10
-11.96228525175335
 20
-90.15005767510354
 30
0.0
 11
-12.18030144223301
 21
-90.47634196212972
 31
0.0
  0
LINE
  5
44
330
1F
100
AcDbEntity
  8
0
100
AcDbLine
 10
-51.31406689326968
 20
74.88024915193147
 30
0.0
 11
-51.41064166005138
 21
74.89269440497097
 31
0.0
  0
LINE
  5
45
330
1F
100
AcDbEntity
  8
0
100
AcDbLine
 10
-53.00148449107614
 20
-85.22072782348988
 30
0.0
 11
-52.96280808887663
 21
-85.310090599941
 31
0.0
  0
LINE
  5
46
330
1F
100
AcDbEntity
  8
0
100
AcDbLine
 10
-27.1461479007332
 20
-77.06427123747693
 30
0.0
 11
-26.97365478252384
 21
-76.86758053312124
 31
0.0
  0
LINE
  5
47
330
1F
100
AcDbEntity
  8
0
100
AcDbLine
 10
-11.66258398424006
 20
78.12639946020406
 30
0.0
 11
-11.78872286557331
 21
78.4979926219918
 31
0.0
  0
LINE
  5
48
330
1F
100
AcDbEntity
  8
0
100
AcDbLine
 10
-50.03783176340346
 20
-84.35953519143285
 30
0.0
 11
-50.0590781856616
 21
-84.26450804034761
 31
0.0
  0
LINE
  5
49
330
1F
100
AcDbEntity
  8
0
100
AcDbLine
 10
-50.07299045733188
 20
72.91379155832907
 30
0.0
 11
-50.04853931102822
 21
73.00804500042325
 31
0.0
  0
LINE
  5
4A
330
1F
100
AcDbEntity
  8
0
100
AcDbLine
 10
-50.57229039320259
 20
-85.84430034760211
 30
0.0
 11
-50.49925300790539
 21
-85.77990228667554
 31
0.0
  0
LINE
  5
4B
330
1F
100
AcDbEntity
  8
0
100
AcDbLine
 10
-26.57747174036023
 20
64.61099470933713
 30
0.0
 11
-26.57747174035865
 21
-75.91111005954389
 31
0.0
  0
LINE
  5
4C
330
1F
100
AcDbEntity
  8
0
100
AcDbLine
 10
-50.15784423024527
 20
-85.30994055222939
 30
0.0
 11
-50.11917738894658
 21
-85.22057363840707
 31
0.0
  0
LINE
  5
4D
330
1F
100
AcDbEntity
  8
0
100
AcDbLine
 10
-52.5134219763419
 20
72.12757754378062
 30
0.0
 11
-52.43478840946432
 21
72.07014643668451
 31
0.0
  0
LINE
  5
4E
330
1F
100
AcDbEntity
  8
0
100
AcDbLine
 10
-53.10729768367391
 20
-84.74746573175409
 30
0.0
 11
-53.09812885592313
 21
-84.84440644817312
 31
0.0
  0
LINE
  5
4F
330
1F
100
AcDbEntity
  8
0
100
AcDbLine
 10
-53.09812885592313
 20
-84.84440644817312
 30
0.0
 11
-53.08289116281204
 21
-84.94058015877438
 31
0.0
  0
LINE
  5
50
330
1F
100
AcDbEntity
  8
0
100
AcDbLine
 10
-53.08289116281204
 20
-84.94058015877438
 30
0.0
 11
-53.06164474055389
 21
-85.03560730985963
 31
0.0
  0
LINE
  5
51
330
1F
100
AcDbEntity
  8
0
100
AcDbLine
 10
-51.71008126616381
 20
71.80719024482293
 30
0.0
 11
-51.61291562371989
 21
71.80083352942691
 31
0.0
  0
LINE
  5
52
330
1F
100
AcDbEntity
  8
0
100
AcDbLine
 10
-13.41231116601143
 20
-91.42169627263738
 30
0.0
 11
-13.78390432779909
 21
-91.54783515397072
 31
0.0
  0
LINE
  5
53
330
1F
100
AcDbEntity
  8
0
100
AcDbLine
 10
-51.6051803522014
 20
74.89929421106747
 30
0.0
 11
-51.70237652222804
 21
74.89342271770504
 31
0.0
  0
LINE
  5
54
330
1F
100
AcDbEntity
  8
0
100
AcDbLine
 10
-11.56036146310665
 20
-88.65005767510353
 30
0.0
 11
-11.56036146310722
 21
77.34994232489653
 31
0.0
  0
LINE
  5
55
330
1F
100
AcDbEntity
  8
0
100
AcDbLine
 10
-13.06036146310668
 20
-91.24813388645687
 30
0.0
 11
-13.41231116601143
 21
-91.42169627263738
 31
0.0
  0
LINE
  5
56
330
1F
100
AcDbEntity
  8
0
100
AcDbLine
 10
-26.71260239808528
 20
65.11530918962714
 30
0.0
 11
-26.62850981052971
 21
64.86758041510197
 31
0.0
  0
LINE
  5
57
330
1F
100
AcDbEntity
  8
0
100
AcDbLine
 10
-28.29930907866764
 20
66.33283204764454
 30
0.0
 11
-28.04272337290272
 21
66.28179397747516
 31
0.0
  0
LINE
  5
58
330
1F
100
AcDbEntity
  8
0
100
AcDbLine
 10
-27.14614790073469
 20
65.76415588727009
 30
0.0
 11
-26.97365478252533
 21
65.56746518291449
 31
0.0
  0
LINE
  5
59
330
1F
100
AcDbEntity
  8
0
100
AcDbLine
 10
-50.36611879060921
 20
-83.66198660519841
 30
0.0
 11
-50.43051685153587
 21
-83.5889492199013
 31
0.0
  0
LINE
  5
5A
330
1F
100
AcDbEntity
  8
0
100
AcDbLine
 10
-50.53242867742959
 20
74.51005188357153
 30
0.0
 11
-50.60730094987331
 21
74.57230710601328
 31
0.0
  0
LINE
  5
5B
330
1F
100
AcDbEntity
  8
0
100
AcDbLine
 10
-27.56036146310784
 20
66.08199313246585
 30
0.0
 11
-27.34283860509038
 21
65.93664900547945
 31
0.0
  0
LINE
  5
5C
330
1F
100
AcDbEntity
  8
0
100
AcDbLine
 10
-52.17238748235834
 20
74.77399434352552
 30
0.0
 11
-52.26059675489987
 21
74.73275487044623
 31
0.0
  0
LINE
  5
5D
330
1F
100
AcDbEntity
  8
0
100
AcDbLine
 10
-50.49925300790539
 20
-85.77990228667554
 30
0.0
 11
-50.43040333290655
 21
-85.71104524524395
 31
0.0
  0
LINE
  5
5E
330
1F
100
AcDbEntity
  8
0
100
AcDbLine
 10
-50.43040333290655
 20
-85.71104524524395
 30
0.0
 11
-50.36601308641887
 21
-85.63800097059212
 31
0.0
  0
LINE
  5
5F
330
1F
100
AcDbEntity
  8
0
100
AcDbLine
 10
-50.18106239102766
 20
72.64281145316289
 30
0.0
 11
-50.1393830078641
 21
72.73081371973171
 31
0.0
  0
LINE
  5
60
330
1F
100
AcDbEntity
  8
0
100
AcDbLine
 10
-50.01688107029952
 20
73.4919573840174
 30
0.0
 11
-50.02884397562328
 21
73.58859308548608
 31
0.0
  0
LINE
  5
61
330
1F
100
AcDbEntity
  8
0
100
AcDbLine
 10
-52.75470983979662
 20
-83.66211437961512
 30
0.0
 11
-52.81438653888733
 21
-83.73905761510584
 31
0.0
  0
LINE
  5
62
330
1F
100
AcDbEntity
  8
0
100
AcDbLine
 10
-50.22818523748692
 20
72.55759990908734
 30
0.0
 11
-50.18106239102766
 21
72.64281145316289
 31
0.0
  0
LINE
  5
63
330
1F
100
AcDbEntity
  8
0
100
AcDbLine
 10
-52.93966053518754
 20
74.05707319663101
 30
0.0
 11
-52.9813399183511
 21
73.96907093006219
 31
0.0
  0
LINE
  5
64
330
1F
100
AcDbEntity
  8
0
100
AcDbLine
 10
-12.7340771760805
 20
-91.03011769597721
 30
0.0
 11
-13.06036146310668
 21
-91.24813388645687
 31
0.0
  0
LINE
  5
65
330
1F
100
AcDbEntity
  8
0
100
AcDbLine
 10
-11.96228525175391
 20
78.84994232489656
 30
0.0
 11
-12.18030144223356
 21
79.17622661192273
 31
0.0
  0
LINE
  5
66
330
1F
100
AcDbEntity
  8
0
100
AcDbLine
 10
-52.84015735131995
 20
74.2243692712536
 30
0.0
 11
-52.89253768872828
 21
74.14228474070656
 31
0.0
  0
LINE
  5
67
330
1F
100
AcDbEntity
  8
0
100
AcDbLine
 10
-50.01100957693698
 20
73.39476121399066
 30
0.0
 11
-50.01688107029952
 21
73.4919573840174
 31
0.0
  0
LINE
  5
68
330
1F
100
AcDbEntity
  8
0
100
AcDbLine
 10
-52.98441348173617
 20
72.73791630564612
 30
0.0
 11
-52.94317400865696
 21
72.64970703310468
 31
0.0
  0
LINE
  5
69
330
1F
100
AcDbEntity
  8
0
100
AcDbLine
 10
-50.33325333896218
 20
74.29688775714537
 30
0.0
 11
-50.39513395219576
 21
74.37206993327771
 31
0.0
  0
LINE
  5
6A
330
1F
100
AcDbEntity
  8
0
100
AcDbLine
 10
-53.04989160624372
 20
72.9212233578698
 30
0.0
 11
-53.02003287208534
 21
72.82854096527758
 31
0.0
  0
LINE
  5
6B
330
1F
100
AcDbEntity
  8
0
100
AcDbLine
 10
-53.02003287208534
 20
72.82854096527758
 30
0.0
 11
-52.98441348173617
 21
72.73791630564612
 31
0.0
  0
LINE
  5
6C
330
1F
100
AcDbEntity
  8
0
100
AcDbLine
 10
-50.7298999396412
 20
-83.3413049642978
 30
0.0
 11
-50.81371592840381
 21
-83.29174237830884
 31
0.0
  0
LINE
  5
6D
330
1F
100
AcDbEntity
  8
0
100
AcDbLine
 10
-50.02884397562328
 20
73.58859308548608
 30
0.0
 11
-50.0468510807864
 21
73.68428694143213
 31
0.0
  0
LINE
  5
6E
330
1F
100
AcDbEntity
  8
0
100
AcDbLine
 10
-51.41064166005138
 20
74.89269440497097
 30
0.0
 11
-51.50780730249532
 21
74.8990511203668
 31
0.0
  0
LINE
  5
6F
330
1F
100
AcDbEntity
  8
0
100
AcDbLine
 10
-50.2516976086023
 20
-83.81945613651185
 30
0.0
 11
-50.30643385991334
 21
-83.7389234556018
 31
0.0
  0
LINE
  5
70
330
1F
100
AcDbEntity
  8
0
100
AcDbLine
 10
-27.34283860508889
 20
-77.2367643556863
 30
0.0
 11
-27.1461479007332
 21
-77.06427123747693
 31
0.0
  0
LINE
  5
71
330
1F
100
AcDbEntity
  8
0
100
AcDbLine
 10
-52.54843253301291
 20
-83.45581500260504
 30
0.0
 11
-52.62146991831011
 21
-83.5202130635317
 31
0.0
  0
LINE
  5
72
330
1F
100
AcDbEntity
  8
0
100
AcDbLine
 10
-50.40025190443293
 20
72.32200953921885
 30
0.0
 11
-50.33799668199126
 21
72.39688181166257
 31
0.0
  0
LINE
  5
73
330
1F
100
AcDbEntity
  8
0
100
AcDbLine
 10
-50.33799668199126
 20
72.39688181166257
 30
0.0
 11
-50.28056557489525
 21
72.47551537854014
 31
0.0
  0
LINE
  5
74
330
1F
100
AcDbEntity
  8
0
100
AcDbLine
 10
-52.22024434023357
 20
-86.05257490796606
 30
0.0
 11
-52.13087742641127
 21
-86.09124174926484
 31
0.0
  0
LINE
  5
75
330
1F
100
AcDbEntity
  8
0
100
AcDbLine
 10
-50.13630944447903
 20
73.9619683441476
 30
0.0
 11
-50.17754891755823
 21
74.05017761668923
 31
0.0
  0
LINE
  5
76
330
1F
100
AcDbEntity
  8
0
100
AcDbLine
 10
-50.17754891755823
 20
74.05017761668923
 30
0.0
 11
-50.22424572000783
 21
74.13562338044105
 31
0.0
  0
LINE
  5
77
330
1F
100
AcDbEntity
  8
0
100
AcDbLine
 10
-28.29930907866616
 20
-77.6329473978514
 30
0.0
 11
-56.56036146310778
 21
-77.65005767510372
 31
0.0
  0
LINE
  5
78
330
1F
100
AcDbEntity
  8
0
100
AcDbLine
 10
-26.82831065553743
 20
-76.6500576751038
 30
0.0
 11
-26.71260239808369
 21
-76.41542453983398
 31
0.0
  0
LINE
  5
79
330
1F
100
AcDbEntity
  8
0
100
AcDbLine
 10
-52.69020607467964
 20
-85.71116613030594
 30
0.0
 11
-52.62134903324813
 21
-85.78001580530477
 31
0.0
  0
LINE
  5
7A
330
1F
100
AcDbEntity
  8
0
100
AcDbLine
 10
-52.08176282272697
 20
74.8096137338747
 30
0.0
 11
-52.17238748235834
 21
74.77399434352552
 31
0.0
  0
LINE
  5
7B
330
1F
100
AcDbEntity
  8
0
100
AcDbLine
 10
-52.47136152310549
 20
-85.90408275088325
 30
0.0
 11
-52.39082298657431
 21
-85.95881038590943
 31
0.0
  0
LINE
  5
7C
330
1F
100
AcDbEntity
  8
0
100
AcDbLine
 10
-50.01760938303349
 20
73.20022252184073
 30
0.0
 11
-50.01125266763765
 21
73.29738816428467
 31
0.0
  0
LINE
  5
7D
330
1F
100
AcDbEntity
  8
0
100
AcDbLine
 10
-51.94575047745968
 20
-86.15138219286014
 30
0.0
 11
-51.85072105382164
 21
-86.17261844830135
 31
0.0
  0
LINE
  5
7E
330
1F
100
AcDbEntity
  8
0
100
AcDbLine
 10
-51.85072105382164
 20
-86.17261844830135
 30
0.0
 11
-51.75454571353161
 21
-86.18784585196259
 31
0.0
  0
LINE
  5
7F
330
1F
100
AcDbEntity
  8
0
100
AcDbLine
 10
-50.20204616631302
 20
-85.39670320980761
 30
0.0
 11
-50.15784423024527
 21
-85.30994055222939
 31
0.0
  0
LINE
  5
80
330
1F
100
AcDbEntity
  8
0
100
AcDbLine
 10
-50.1033115774801
 20
72.82125940405231
 30
0.0
 11
-50.07299045733188
 21
72.91379155832907
 31
0.0
  0
LINE
  5
81
330
1F
100
AcDbEntity
  8
0
100
AcDbLine
 10
-50.43051685153587
 20
-83.5889492199013
 30
0.0
 11
-50.49937389296738
 21
-83.52009954490246
 31
0.0
  0
LINE
  5
82
330
1F
100
AcDbEntity
  8
0
100
AcDbLine
 10
-50.49937389296738
 20
-83.52009954490246
 30
0.0
 11
-50.5724181676192
 21
-83.45570929841479
 31
0.0
  0
LINE
  5
83
330
1F
100
AcDbEntity
  8
0
100
AcDbLine
 10
-50.28056557489525
 20
72.47551537854014
 30
0.0
 11
-50.22818523748692
 21
72.55759990908734
 31
0.0
  0
LINE
  5
84
330
1F
100
AcDbEntity
  8
0
100
AcDbLine
 10
-11.56036146310722
 20
77.34994232489653
 30
0.0
 11
-11.5860268789858
 21
77.74152090155671
 31
0.0
  0
LINE
  5
85
330
1F
100
AcDbEntity
  8
0
100
AcDbLine
 10
-11.5860268789858
 20
77.74152090155671
 30
0.0
 11
-11.66258398424006
 21
78.12639946020406
 31
0.0
  0
LINE
  5
86
330
1F
100
AcDbEntity
  8
0
100
AcDbLine
 10
-52.72047102178227
 20
74.37787511057488
 30
0.0
 11
-52.78272624422394
 21
74.30300283813115
 31
0.0
  0
LINE
  5
87
330
1F
100
AcDbEntity
  8
0
100
AcDbLine
 10
-52.03941666068155
 20
-83.1759456991406
 30
0.0
 11
-52.13103161149396
 21
-83.20893464713518
 31
0.0
  0
LINE
  5
88
330
1F
100
AcDbEntity
  8
0
100
AcDbLine
 10
-52.30715231598227
 20
-83.29182226764922
 30
0.0
 11
-52.39096300169947
 21
-83.34139382059813
 31
0.0
  0
LINE
  5
89
330
1F
100
AcDbEntity
  8
0
100
AcDbLine
 10
-14.16878288644709
 20
80.324276909018
 30
0.0
 11
-14.56036146310725
 21
80.34994232489657
 31
0.0
  0
LINE
  5
8A
330
1F
100
AcDbEntity
  8
0
100
AcDbLine
 10
-52.96287869597023
 20
-83.99017479797776
 30
0.0
 11
-53.00154553726892
 21
-84.07954171180016
 31
0.0
  0
LINE
  5
8B
330
1F
100
AcDbEntity
  8
0
100
AcDbLine
 10
-53.00154553726892
 20
-84.07954171180016
 30
0.0
 11
-53.03452468344137
 21
-84.17116019148568
 31
0.0
  0
LINE
  5
8C
330
1F
100
AcDbEntity
  8
0
100
AcDbLine
 10
-53.03452468344137
 20
-84.17116019148568
 30
0.0
 11
-53.06168598086423
 21
-84.26466866075165
 31
0.0
  0
LINE
  5
8D
330
1F
100
AcDbEntity
  8
0
100
AcDbLine
 10
-26.97365478252384
 20
-76.86758053312124
 30
0.0
 11
-26.82831065553743
 21
-76.6500576751038
 31
0.0
  0
LINE
  5
8E
330
1F
100
AcDbEntity
  8
0
100
AcDbLine
 10
-51.56044437824113
 20
-83.10005767732136
 30
0.0
 11
-51.65776951975827
 21
-83.1031214545374
 31
0.0
  0
LINE
  5
8F
330
1F
100
AcDbEntity
  8
0
100
AcDbLine
 10
-50.04853931102822
 20
73.00804500042325
 30
0.0
 11
-50.03005463607308
 21
73.10364775505911
 31
0.0
  0
LINE
  5
90
330
1F
100
AcDbEntity
  8
0
100
AcDbLine
 10
-50.03005463607308
 20
73.10364775505911
 30
0.0
 11
-50.01760938303349
 21
73.20022252184073
 31
0.0
  0
LINE
  5
91
330
1F
100
AcDbEntity
  8
0
100
AcDbLine
 10
-51.50780730249532
 20
74.8990511203668
 30
0.0
 11
-51.6051803522014
 21
74.89929421106747
 31
0.0
  0
LINE
  5
92
330
1F
100
AcDbEntity
  8
0
100
AcDbLine
 10
-50.46708554929908
 20
72.25119404786237
 30
0.0
 11
-50.40025190443293
 21
72.32200953921885
 31
0.0
  0
LINE
  5
93
330
1F
100
AcDbEntity
  8
0
100
AcDbLine
 10
-52.86902531761321
 20
-85.4806592136953
 30
0.0
 11
-52.81428906630217
 21
-85.56119189460543
 31
0.0
  0
LINE
  5
94
330
1F
100
AcDbEntity
  8
0
100
AcDbLine
 10
-52.81428906630217
 20
-85.56119189460543
 30
0.0
 11
-52.7546041356063
 21
-85.63812874500874
 31
0.0
  0
LINE
  5
95
330
1F
100
AcDbEntity
  8
0
100
AcDbLine
 10
-50.5724181676192
 20
-83.45570929841479
 30
0.0
 11
-50.64936140311001
 21
-83.39603259932399
 31
0.0
  0
LINE
  5
96
330
1F
100
AcDbEntity
  8
0
100
AcDbLine
 10
-50.02259407029237
 20
-84.45570890203402
 30
0.0
 11
-50.03783176340346
 21
-84.35953519143285
 31
0.0
  0
LINE
  5
97
330
1F
100
AcDbEntity
  8
0
100
AcDbLine
 10
-51.17497244875582
 20
-83.1487331573471
 30
0.0
 11
-51.27000187239386
 21
-83.12749690190589
 31
0.0
  0
LINE
  5
98
330
1F
100
AcDbEntity
  8
0
100
AcDbLine
 10
-51.41834640398716
 20
71.80646193208887
 30
0.0
 11
-51.32171070251838
 21
71.81842483741254
 31
0.0
  0
LINE
  5
99
330
1F
100
AcDbEntity
  8
0
100
AcDbLine
 10
-52.58829424878561
 20
72.18983276622218
 30
0.0
 11
-52.5134219763419
 21
72.12757754378062
 31
0.0
  0
LINE
  5
9A
330
1F
100
AcDbEntity
  8
0
100
AcDbLine
 10
-53.04773246888332
 20
73.78609309146483
 30
0.0
 11
-53.07218361518697
 21
73.69183964937065
 31
0.0
  0
LINE
  5
9B
330
1F
100
AcDbEntity
  8
0
100
AcDbLine
 10
-53.07218361518697
 20
73.69183964937065
 30
0.0
 11
-53.09066829014212
 21
73.59623689473479
 31
0.0
  0
LINE
  5
9C
330
1F
100
AcDbEntity
  8
0
100
AcDbLine
 10
-51.79901222369681
 20
74.88145981238118
 30
0.0
 11
-51.89470607964279
 21
74.86345270721806
 31
0.0
  0
LINE
  5
9D
330
1F
100
AcDbEntity
  8
0
100
AcDbLine
 10
-51.89470607964279
 20
74.86345270721806
 30
0.0
 11
-51.98908043013475
 21
74.83947246803307
 31
0.0
  0
LINE
  5
9E
330
1F
100
AcDbEntity
  8
0
100
AcDbLine
 10
-50.01341482997299
 20
-84.74730022871543
 30
0.0
 11
-50.01036146532545
 21
-84.64997475997019
 31
0.0
  0
LINE
  5
9F
330
1F
100
AcDbEntity
  8
0
100
AcDbLine
 10
-52.13103161149396
 20
-83.20893464713518
 30
0.0
 11
-52.22039438794509
 21
-83.24761104933468
 31
0.0
  0
LINE
  5
A0
330
1F
100
AcDbEntity
  8
0
100
AcDbLine
 10
-27.79499459837615
 20
-77.49781674012635
 30
0.0
 11
-27.56036146310625
 21
-77.3821084826727
 31
0.0
  0
LINE
  5
A1
330
1F
100
AcDbEntity
  8
0
100
AcDbLine
 10
-52.58248907148837
 20
74.51516983580879
 30
0.0
 11
-52.65363737691612
 21
74.44869060193135
 31
0.0
  0
LINE
  5
A2
330
1F
100
AcDbEntity
  8
0
100
AcDbLine
 10
-51.7547102361773
 20
-83.11229028228819
 30
0.0
 11
-51.85088394677855
 21
-83.12752797539927
 31
0.0
  0
LINE
  5
A3
330
1F
100
AcDbEntity
  8
0
100
AcDbLine
 10
-51.85088394677855
 20
-83.12752797539927
 30
0.0
 11
-51.94591109786381
 21
-83.14877439765743
 31
0.0
  0
LINE
  5
A4
330
1F
100
AcDbEntity
  8
0
100
AcDbLine
 10
-53.0738718454288
 20
73.01559770836177
 30
0.0
 11
-53.04989160624372
 21
72.9212233578698
 31
0.0
  0
LINE
  5
A5
330
1F
100
AcDbEntity
  8
0
100
AcDbLine
 10
-51.36601269003821
 20
-86.18782506791905
 30
0.0
 11
-51.26983897943695
 21
-86.17258737480796
 31
0.0
  0
LINE
  5
A6
330
1F
100
AcDbEntity
  8
0
100
AcDbLine
 10
-52.78272624422394
 20
74.30300283813115
 30
0.0
 11
-52.84015735131995
 21
74.2243692712536
 31
0.0
  0
LINE
  5
A7
330
1F
100
AcDbEntity
  8
0
100
AcDbLine
 10
-50.36601308641887
 20
-85.63800097059212
 30
0.0
 11
-50.30633638732817
 21
-85.5610577351014
 31
0.0
  0
LINE
  5
A8
330
1F
100
AcDbEntity
  8
0
100
AcDbLine
 10
-50.30633638732817
 20
-85.5610577351014
 30
0.0
 11
-50.2516087523019
 21
-85.48051919857012
 31
0.0
  0
LINE
  5
A9
330
1F
100
AcDbEntity
  8
0
100
AcDbLine
 10
-52.78746958725302
 20
72.40299689264835
 30
0.0
 11
-52.72558897401944
 21
72.32781471651619
 31
0.0
  0
LINE
  5
AA
330
1F
100
AcDbEntity
  8
0
100
AcDbLine
 10
-52.72558897401944
 20
72.32781471651619
 30
0.0
 11
-52.65910974014209
 21
72.25666641108843
 31
0.0
  0
LINE
  5
AB
330
1F
100
AcDbEntity
  8
0
100
AcDbLine
 10
-51.99651222967548
 20
71.86257131912123
 30
0.0
 11
-51.9022587875813
 21
71.83812017281757
 31
0.0
  0
LINE
  5
AC
330
1F
100
AcDbEntity
  8
0
100
AcDbLine
 10
-53.10947025857755
 20
73.40249648550923
 30
0.0
 11
-53.10971334927822
 21
73.30512343580305
 31
0.0
  0
LINE
  5
AD
330
1F
100
AcDbEntity
  8
0
100
AcDbLine
 10
-14.56036146310725
 20
80.34994232489657
 30
0.0
 11
-56.56036146310763
 21
80.34994232489672
 31
0.0
  0
LINE
  5
AE
330
1F
100
AcDbEntity
  8
0
100
AcDbLine
 10
-51.61291562371989
 20
71.80083352942691
 30
0.0
 11
-51.5155425740138
 21
71.80059043872625
 31
0.0
  0
LINE
  5
AF
330
1F
100
AcDbEntity
  8
0
100
AcDbLine
 10
-56.56036146310763
 20
80.34994232489672
 30
0.0
 11
-56.56036146310755
 21
66.34994232489701
 31
0.0
  0
LINE
  5
B0
330
1F
100
AcDbEntity
  8
0
100
AcDbLine
 10
-52.30700699781169
 20
-86.0083729718984
 30
0.0
 11
-52.22024434023357
 21
-86.05257490796606
 31
0.0
  0
LINE
  5
B1
330
1F
100
AcDbEntity
  8
0
100
AcDbLine
 10
-51.94591109786381
 20
-83.14877439765743
 30
0.0
 11
-52.03941666068155
 21
-83.1759456991406
 31
0.0
  0
LINE
  5
B2
330
1F
100
AcDbEntity
  8
0
100
AcDbLine
 10
-50.90032853827041
 20
-86.05250430087256
 30
0.0
 11
-50.81357061023323
 21
-86.00829308255801
 31
0.0
  0
LINE
  5
B3
330
1F
100
AcDbEntity
  8
0
100
AcDbLine
 10
-50.0468510807864
 20
73.68428694143213
 30
0.0
 11
-50.07083131997148
 21
73.7786612919241
 31
0.0
  0
LINE
  5
B4
330
1F
100
AcDbEntity
  8
0
100
AcDbLine
 10
-50.98969131472154
 20
-86.09118070307206
 30
0.0
 11
-50.90032853827041
 21
-86.05250430087256
 31
0.0
  0
LINE
  5
B5
330
1F
100
AcDbEntity
  8
0
100
AcDbLine
 10
-50.61341603085909
 20
72.12283420075153
 30
0.0
 11
-50.53823385472683
 21
72.18471481398511
 31
0.0
  0
LINE
  5
B6
330
1F
100
AcDbEntity
  8
0
100
AcDbLine
 10
-51.27000187239386
 20
-83.12749690190589
 30
0.0
 11
-51.36617721268389
 21
-83.11226949824464
 31
0.0
  0
LINE
  5
B7
330
1F
100
AcDbEntity
  8
0
100
AcDbLine
 10
-52.84450736533299
 20
72.48191622978365
 30
0.0
 11
-52.78746958725302
 21
72.40299689264835
 31
0.0
  0
LINE
  5
B8
330
1F
100
AcDbEntity
  8
0
100
AcDbLine
 10
-50.08619824277413
 20
-85.12895515872155
 30
0.0
 11
-50.05903694535127
 21
-85.03544668945558
 31
0.0
  0
LINE
  5
B9
330
1F
100
AcDbEntity
  8
0
100
AcDbLine
 10
-50.76801904729799
 20
74.68211855051763
 30
0.0
 11
-50.85323059137355
 21
74.7292413969768
 31
0.0
  0
LINE
  5
BA
330
1F
100
AcDbEntity
  8
0
100
AcDbLine
 10
-50.03780068991007
 20
-84.94041726581746
 30
0.0
 11
-50.02257328624874
 21
-84.84424192552751
 31
0.0
  0
LINE
  5
BB
330
1F
100
AcDbEntity
  8
0
100
AcDbLine
 10
-50.02257328624874
 20
-84.84424192552751
 30
0.0
 11
-50.01341482997299
 21
-84.74730022871543
 31
0.0
  0
LINE
  5
BC
330
1F
100
AcDbEntity
  8
0
100
AcDbLine
 10
-11.66258398423949
 20
-89.42651481041112
 30
0.0
 11
-11.78872286557275
 21
-89.79810797219879
 31
0.0
  0
LINE
  5
BD
330
1F
100
AcDbEntity
  8
0
100
AcDbLine
 10
-50.30643385991334
 20
-83.7389234556018
 30
0.0
 11
-50.36611879060921
 21
-83.66198660519841
 31
0.0
  0
LINE
  5
BE
330
1F
100
AcDbEntity
  8
0
100
AcDbLine
 10
-52.62146991831011
 20
-83.5202130635317
 30
0.0
 11
-52.69031959330895
 21
-83.58907010496328
 31
0.0
  0
LINE
  5
BF
330
1F
100
AcDbEntity
  8
0
100
AcDbLine
 10
-56.56036146310778
 20
-77.65005767510372
 30
0.0
 11
-56.5603614631078
 21
-91.65005767510351
 31
0.0
  0
LINE
  5
C0
330
1F
100
AcDbEntity
  8
0
100
AcDbLine
 10
-51.03167854226287
 20
74.80699221052454
 30
0.0
 11
-51.12421069653972
 21
74.83731333067267
 31
0.0
  0
LINE
  5
C1
330
1F
100
AcDbEntity
  8
0
100
AcDbLine
 10
-51.46311890949589
 20
-83.10311104196882
 30
0.0
 11
-51.56044437824113
 21
-83.10005767732136
 31
0.0
  0
LINE
  5
C2
330
1F
100
AcDbEntity
  8
0
100
AcDbLine
 10
-50.7746804075635
 20
72.01382658179718
 30
0.0
 11
-50.6923353679943
 21
72.06579642267155
 31
0.0
  0
LINE
  5
C3
330
1F
100
AcDbEntity
  8
0
100
AcDbLine
 10
-11.78872286557331
 20
78.4979926219918
 30
0.0
 11
-11.96228525175391
 21
78.84994232489656
 31
0.0
  0
LINE
  5
C4
330
1F
100
AcDbEntity
  8
0
100
AcDbLine
 10
-51.32171070251838
 20
71.81842483741254
 30
0.0
 11
-51.22601684657241
 21
71.83643194257566
 31
0.0
  0
LINE
  5
C5
330
1F
100
AcDbEntity
  8
0
100
AcDbLine
 10
-53.09066829014212
 20
73.59623689473479
 30
0.0
 11
-53.10311354318171
 21
73.49966212795317
 31
0.0
  0
LINE
  5
C6
330
1F
100
AcDbEntity
  8
0
100
AcDbLine
 10
-52.7546041356063
 20
-85.63812874500874
 30
0.0
 11
-52.69020607467964
 21
-85.71116613030594
 31
0.0
  0
LINE
  5
C7
330
1F
100
AcDbEntity
  8
0
100
AcDbLine
 10
-52.9813399183511
 20
73.96907093006219
 30
0.0
 11
-53.0174113487351
 21
73.87862524574159
 31
0.0
  0
LINE
  5
C8
330
1F
100
AcDbEntity
  8
0
100
AcDbLine
 10
-53.0174113487351
 20
73.87862524574159
 30
0.0
 11
-53.04773246888332
 21
73.78609309146483
 31
0.0
  0
LINE
  5
C9
330
1F
100
AcDbEntity
  8
0
100
AcDbLine
 10
-50.01125266763765
 20
73.29738816428467
 30
0.0
 11
-50.01100957693698
 21
73.39476121399066
 31
0.0
  0
LINE
  5
CA
330
1F
100
AcDbEntity
  8
0
100
AcDbLine
 10
-50.60730094987331
 20
74.57230710601328
 30
0.0
 11
-50.68593451675087
 21
74.6297382131092
 31
0.0
  0
LINE
  5
CB
330
1F
100
AcDbEntity
  8
0
100
AcDbLine
 10
-13.78390432779909
 20
-91.54783515397072
 30
0.0
 11
-14.16878288644653
 21
-91.62439225922499
 31
0.0
  0
LINE
  5
CC
330
1F
100
AcDbEntity
  8
0
100
AcDbLine
 10
-52.26059675489987
 20
74.73275487044623
 30
0.0
 11
-52.3460425186517
 21
74.68605806799673
 31
0.0
  0
LINE
  5
CD
330
1F
100
AcDbEntity
  8
0
100
AcDbLine
 10
-53.06168598086423
 20
-84.26466866075165
 30
0.0
 11
-53.08292223630543
 21
-84.35969808438978
 31
0.0
  0
LINE
  5
CE
330
1F
100
AcDbEntity
  8
0
100
AcDbLine
 10
-53.08292223630543
 20
-84.35969808438978
 30
0.0
 11
-53.09814963996676
 21
-84.45587342467972
 31
0.0
  0
LINE
  5
CF
330
1F
100
AcDbEntity
  8
0
100
AcDbLine
 10
-53.09814963996676
 20
-84.45587342467972
 30
0.0
 11
-53.1073080962425
 21
-84.5528151214918
 31
0.0
  0
LINE
  5
D0
330
1F
100
AcDbEntity
  8
0
100
AcDbLine
 10
-13.78390432779965
 20
80.24771980376383
 30
0.0
 11
-14.16878288644709
 21
80.324276909018
 31
0.0
  0
LINE
  5
D1
330
1F
100
AcDbEntity
  8
0
100
AcDbLine
 10
-26.71260239808369
 20
-76.41542453983398
 30
0.0
 11
-26.62850981052813
 21
-76.16769576530882
 31
0.0
  0
LINE
  5
D2
330
1F
100
AcDbEntity
  8
0
100
AcDbLine
 10
-50.10069005412986
 20
73.87134368451632
 30
0.0
 11
-50.13630944447903
 21
73.9619683441476
 31
0.0
  0
LINE
  5
D3
330
1F
100
AcDbEntity
  8
0
100
AcDbLine
 10
-52.94317400865696
 20
72.64970703310468
 30
0.0
 11
-52.89647720620736
 21
72.56426126935285
 31
0.0
  0
LINE
  5
D4
330
1F
100
AcDbEntity
  8
0
100
AcDbLine
 10
-28.04272337290123
 20
-77.58190932768191
 30
0.0
 11
-27.79499459837615
 21
-77.49781674012635
 31
0.0
  0
LINE
  5
D5
330
1F
100
AcDbEntity
  8
0
100
AcDbLine
 10
-50.6492272436059
 20
-85.90398527829798
 30
0.0
 11
-50.57229039320259
 21
-85.84430034760211
 31
0.0
  0
LINE
  5
D6
330
1F
100
AcDbEntity
  8
0
100
AcDbLine
 10
-27.56036146310625
 20
-77.3821084826727
 30
0.0
 11
-27.34283860508889
 21
-77.2367643556863
 31
0.0
  0
LINE
  5
D7
330
1F
100
AcDbEntity
  8
0
100
AcDbLine
 10
-28.29930907866616
 20
-77.6329473978514
 30
0.0
 11
-28.04272337290123
 21
-77.58190932768191
 31
0.0
  0
LINE
  5
D8
330
1F
100
AcDbEntity
  8
0
100
AcDbLine
 10
-11.58602687898523
 20
-89.04163625176369
 30
0.0
 11
-11.66258398423949
 21
-89.42651481041112
 31
0.0
  0
LINE
  5
D9
330
1F
100
AcDbEntity
  8
0
100
AcDbLine
 10
-52.26749233484166
 20
71.97064325281693
 30
0.0
 11
-52.17949006827283
 21
71.92896386965336
 31
0.0
  0
LINE
  5
DA
330
1F
100
AcDbEntity
  8
0
100
AcDbLine
 10
-52.39096300169947
 20
-83.34139382059813
 30
0.0
 11
-52.47149568260959
 21
-83.39613007190925
 31
0.0
  0
LINE
  5
DB
330
1F
100
AcDbEntity
  8
0
100
AcDbLine
 10
-26.97365478252533
 20
65.56746518291449
 30
0.0
 11
-26.82831065553892
 21
65.34994232489703
 31
0.0
  0
LINE
  5
DC
330
1F
100
AcDbEntity
  8
0
100
AcDbLine
 10
-26.82831065553892
 20
65.34994232489703
 30
0.0
 11
-26.71260239808528
 21
65.11530918962714
 31
0.0
  0
LINE
  5
DD
330
1F
100
AcDbEntity
  8
0
100
AcDbLine
 10
-52.62134903324813
 20
-85.78001580530477
 30
0.0
 11
-52.5483047585963
 21
-85.84440605179245
 31
0.0
  0
LINE
  5
DE
330
1F
100
AcDbEntity
  8
0
100
AcDbLine
 10
-51.36617721268389
 20
-83.11226949824464
 30
0.0
 11
-51.46311890949589
 21
-83.10311104196882
 31
0.0
  0
LINE
  5
DF
330
1F
100
AcDbEntity
  8
0
100
AcDbLine
 10
-52.3460425186517
 20
74.68605806799673
 30
0.0
 11
-52.4283875582209
 21
74.63408822712235
 31
0.0
  0
LINE
  5
E0
330
1F
100
AcDbEntity
  8
0
100
AcDbLine
 10
-51.03896010348824
 20
71.8902709159192
 30
0.0
 11
-50.94833544385686
 21
71.92589030626839
 31
0.0
  0
LINE
  5
E1
330
1F
100
AcDbEntity
  8
0
100
AcDbLine
 10
-50.11917738894658
 20
-85.22057363840707
 30
0.0
 11
-50.08619824277413
 21
-85.12895515872155
 31
0.0
  0
LINE
  5
E2
330
1F
100
AcDbEntity
  8
0
100
AcDbLine
 10
-50.64936140311001
 20
-83.39603259932399
 30
0.0
 11
-50.7298999396412
 21
-83.3413049642978
 31
0.0
  0
LINE
  5
E3
330
1F
100
AcDbEntity
  8
0
100
AcDbLine
 10
-12.43904111954756
 20
79.47126266845623
 30
0.0
 11
-12.73407717608106
 21
79.73000234577032
 31
0.0
  0
LINE
  5
E4
330
1F
100
AcDbEntity
  8
0
100
AcDbLine
 10
-56.5603614631078
 20
-91.65005767510351
 30
0.0
 11
-14.5603614631067
 21
-91.65005767510355
 31
0.0
  0
LINE
  5
E5
330
1F
100
AcDbEntity
  8
0
100
AcDbLine
 10
-26.62850981052813
 20
-76.16769576530882
 30
0.0
 11
-26.57747174035865
 21
-75.91111005954389
 31
0.0
  0
LINE
  5
E6
330
1F
100
AcDbEntity
  8
0
100
AcDbLine
 10
-26.62850981052971
 20
64.86758041510197
 30
0.0
 11
-26.57747174036023
 21
64.61099470933713
 31
0.0
  0
LINE
  5
E7
330
1F
100
AcDbEntity
  8
0
100
AcDbLine
 10
-27.34283860509038
 20
65.93664900547945
 30
0.0
 11
-27.14614790073469
 21
65.76415588727009
 31
0.0
  0
LINE
  5
E8
330
1F
100
AcDbEntity
  8
0
100
AcDbLine
 10
-27.79499459837764
 20
66.19770138991959
 30
0.0
 11
-27.56036146310784
 21
66.08199313246585
 31
0.0
  0
LINE
  5
E9
330
1F
100
AcDbEntity
  8
0
100
AcDbLine
 10
-28.04272337290272
 20
66.28179397747516
 30
0.0
 11
-27.79499459837764
 21
66.19770138991959
 31
0.0
  0
LINE
  5
EA
330
1F
100
AcDbEntity
  8
0
100
AcDbLine
 10
-56.56036146310755
 20
66.34994232489701
 30
0.0
 11
-28.29930907866764
 21
66.33283204764454
 31
0.0
  0
LINE
  5
EB
330
1F
100
AcDbEntity
  8
0
100
AcDbLine
 10
-13.41231116601199
 20
80.1215809224304
 30
0.0
 11
-13.78390432779965
 21
80.24771980376383
 31
0.0
  0
LINE
  5
EC
330
1F
100
AcDbEntity
  8
0
100
AcDbLine
 10
-13.06036146310723
 20
79.94801853624988
 30
0.0
 11
-13.41231116601199
 21
80.1215809224304
 31
0.0
  0
LINE
  5
ED
330
1F
100
AcDbEntity
  8
0
100
AcDbLine
 10
-12.73407717608106
 20
79.73000234577032
 30
0.0
 11
-13.06036146310723
 21
79.94801853624988
 31
0.0
  0
LINE
  5
EE
330
1F
100
AcDbEntity
  8
0
100
AcDbLine
 10
-12.18030144223356
 20
79.17622661192273
 30
0.0
 11
-12.43904111954756
 21
79.47126266845623
 31
0.0
  0
LINE
  5
EF
330
1F
100
AcDbEntity
  8
0
100
AcDbLine
 10
-11.56036146310665
 20
-88.65005767510353
 30
0.0
 11
-11.58602687898523
 21
-89.04163625176369
 31
0.0
  0
LINE
  5
F0
330
1F
100
AcDbEntity
  8
0
100
AcDbLine
 10
-11.78872286557275
 20
-89.79810797219879
 30
0.0
 11
-11.96228525175335
 21
-90.15005767510354
 31
0.0
  0
LINE
  5
F1
330
1F
100
AcDbEntity
  8
0
100
AcDbLine
 10
-12.18030144223301
 20
-90.47634196212972
 30
0.0
 11
-12.439041119547
 21
-90.77137801866321
 31
0.0
  0
LINE
  5
F2
330
1F
100
AcDbEntity
  8
0
100
AcDbLine
 10
-14.16878288644653
 20
-91.62439225922499
 30
0.0
 11
-14.5603614631067
 21
-91.65005767510355
 31
0.0
  0
LINE
  5
F3
330
1F
100
AcDbEntity
  8
0
100
AcDbLine
 10
-51.9022587875813
 20
71.83812017281757
 30
0.0
 11
-51.80665603294552
 21
71.81963549786244
 31
0.0
  0
LINE
  5
F4
330
1F
100
AcDbEntity
  8
0
100
AcDbLine
 10
-51.80665603294552
 20
71.81963549786244
 30
0.0
 11
-51.71008126616381
 21
71.80719024482293
 31
0.0
  0
LINE
  5
F5
330
1F
100
AcDbEntity
  8
0
100
AcDbLine
 10
-51.5155425740138
 20
71.80059043872625
 30
0.0
 11
-51.41834640398716
 21
71.80646193208887
 31
0.0
  0
LINE
  5
F6
330
1F
100
AcDbEntity
  8
0
100
AcDbLine
 10
-51.22601684657241
 20
71.83643194257566
 30
0.0
 11
-51.13164249608045
 21
71.86041218176084
 31
0.0
  0
LINE
  5
F7
330
1F
100
AcDbEntity
  8
0
100
AcDbLine
 10
-51.13164249608045
 20
71.86041218176084
 30
0.0
 11
-51.03896010348824
 21
71.8902709159192
 31
0.0
  0
LINE
  5
F8
330
1F
100
AcDbEntity
  8
0
100
AcDbLine
 10
-50.94833544385686
 20
71.92589030626839
 30
0.0
 11
-50.86012617131533
 21
71.9671297793475
 31
0.0
  0
LINE
  5
F9
330
1F
100
AcDbEntity
  8
0
100
AcDbLine
 10
-50.86012617131533
 20
71.9671297793475
 30
0.0
 11
-50.7746804075635
 21
72.01382658179718
 31
0.0
  0
LINE
  5
FA
330
1F
100
AcDbEntity
  8
0
100
AcDbLine
 10
-50.6923353679943
 20
72.06579642267155
 30
0.0
 11
-50.61341603085909
 21
72.12283420075153
 31
0.0
  0
LINE
  5
FB
330
1F
100
AcDbEntity
  8
0
100
AcDbLine
 10
-50.53823385472683
 20
72.18471481398511
 30
0.0
 11
-50.46708554929908
 21
72.25119404786237
 31
0.0
  0
LINE
  5
FC
330
1F
100
AcDbEntity
  8
0
100
AcDbLine
 10
-50.1393830078641
 20
72.73081371973171
 30
0.0
 11
-50.1033115774801
 21
72.82125940405231
 31
0.0
  0
LINE
  5
FD
330
1F
100
AcDbEntity
  8
0
100
AcDbLine
 10
-50.07083131997148
 20
73.7786612919241
 30
0.0
 11
-50.10069005412986
 21
73.87134368451632
 31
0.0
  0
LINE
  5
FE
330
1F
100
AcDbEntity
  8
0
100
AcDbLine
 10
-50.22424572000783
 20
74.13562338044105
 30
0.0
 11
-50.2762155608822
 21
74.21796842001025
 31
0.0
  0
LINE
  5
FF
330
1F
100
AcDbEntity
  8
0
100
AcDbLine
 10
-50.2762155608822
 20
74.21796842001025
 30
0.0
 11
-50.33325333896218
 21
74.29688775714537
 31
0.0
  0
LINE
  5
100
330
1F
100
AcDbEntity
  8
0
100
AcDbLine
 10
-50.39513395219576
 20
74.37206993327771
 30
0.0
 11
-50.46161318607312
 21
74.44321823870547
 31
0.0
  0
LINE
  5
101
330
1F
100
AcDbEntity
  8
0
100
AcDbLine
 10
-50.46161318607312
 20
74.44321823870547
 30
0.0
 11
-50.53242867742959
 21
74.51005188357153
 31
0.0
  0
LINE
  5
102
330
1F
100
AcDbEntity
  8
0
100
AcDbLine
 10
-50.85323059137355
 20
74.7292413969768
 30
0.0
 11
-50.94123285794236
 21
74.77092078014036
 31
0.0
  0
LINE
  5
103
330
1F
100
AcDbEntity
  8
0
100
AcDbLine
 10
-50.94123285794236
 20
74.77092078014036
 30
0.0
 11
-51.03167854226287
 21
74.80699221052454
 31
0.0
  0
LINE
  5
104
330
1F
100
AcDbEntity
  8
0
100
AcDbLine
 10
-51.12421069653972
 20
74.83731333067267
 30
0.0
 11
-51.2184641386339
 21
74.86176447697633
 31
0.0
  0
LINE
  5
105
330
1F
100
AcDbEntity
  8
0
100
AcDbLine
 10
-51.2184641386339
 20
74.86176447697633
 30
0.0
 11
-51.31406689326968
 21
74.88024915193147
 31
0.0
  0
LINE
  5
106
330
1F
100
AcDbEntity
  8
0
100
AcDbLine
 10
-51.70237652222804
 20
74.89342271770504
 30
0.0
 11
-51.79901222369681
 21
74.88145981238118
 31
0.0
  0
LINE
  5
107
330
1F
100
AcDbEntity
  8
0
100
AcDbLine
 10
-51.98908043013475
 20
74.83947246803307
 30
0.0
 11
-52.08176282272697
 21
74.8096137338747
 31
0.0
  0
LINE
  5
108
330
1F
100
AcDbEntity
  8
0
100
AcDbLine
 10
-52.4283875582209
 20
74.63408822712235
 30
0.0
 11
-52.50730689535611
 21
74.57705044904237
 31
0.0
  0
LINE
  5
109
330
1F
100
AcDbEntity
  8
0
100
AcDbLine
 10
-52.50730689535611
 20
74.57705044904237
 30
0.0
 11
-52.58248907148837
 21
74.51516983580879
 31
0.0
  0
LINE
  5
10A
330
1F
100
AcDbEntity
  8
0
100
AcDbLine
 10
-52.65363737691612
 20
74.44869060193135
 30
0.0
 11
-52.72047102178227
 21
74.37787511057488
 31
0.0
  0
LINE
  5
10B
330
1F
100
AcDbEntity
  8
0
100
AcDbLine
 10
-52.89253768872828
 20
74.14228474070656
 30
0.0
 11
-52.93966053518754
 21
74.05707319663101
 31
0.0
  0
LINE
  5
10C
330
1F
100
AcDbEntity
  8
0
100
AcDbLine
 10
-53.10311354318171
 20
73.49966212795317
 30
0.0
 11
-53.10947025857755
 21
73.40249648550923
 31
0.0
  0
LINE
  5
10D
330
1F
100
AcDbEntity
  8
0
100
AcDbLine
 10
-53.10971334927822
 20
73.30512343580305
 30
0.0
 11
-53.10384185591568
 21
73.2079272657765
 31
0.0
  0
LINE
  5
10E
330
1F
100
AcDbEntity
  8
0
100
AcDbLine
 10
-53.10384185591568
 20
73.2079272657765
 30
0.0
 11
-53.09187895059192
 21
73.11129156430765
 31
0.0
  0
LINE
  5
10F
330
1F
100
AcDbEntity
  8
0
100
AcDbLine
 10
-53.09187895059192
 20
73.11129156430765
 30
0.0
 11
-53.0738718454288
 21
73.01559770836177
 31
0.0
  0
LINE
  5
110
330
1F
100
AcDbEntity
  8
0
100
AcDbLine
 10
-52.89647720620736
 20
72.56426126935285
 30
0.0
 11
-52.84450736533299
 21
72.48191622978365
 31
0.0
  0
LINE
  5
111
330
1F
100
AcDbEntity
  8
0
100
AcDbLine
 10
-52.65910974014209
 20
72.25666641108843
 30
0.0
 11
-52.58829424878561
 21
72.18983276622218
 31
0.0
  0
LINE
  5
112
330
1F
100
AcDbEntity
  8
0
100
AcDbLine
 10
-52.43478840946432
 20
72.07014643668451
 30
0.0
 11
-52.35270387891721
 21
72.01776609927627
 31
0.0
  0
LINE
  5
113
330
1F
100
AcDbEntity
  8
0
100
AcDbLine
 10
-52.35270387891721
 20
72.01776609927627
 30
0.0
 11
-52.26749233484166
 21
71.97064325281693
 31
0.0
  0
LINE
  5
114
330
1F
100
AcDbEntity
  8
0
100
AcDbLine
 10
-52.17949006827283
 20
71.92896386965336
 30
0.0
 11
-52.08904438395233
 21
71.89289243926936
 31
0.0
  0
LINE
  5
115
330
1F
100
AcDbEntity
  8
0
100
AcDbLine
 10
-52.08904438395233
 20
71.89289243926936
 30
0.0
 11
-51.99651222967548
 21
71.86257131912123
 31
0.0
  0
LINE
  5
116
330
1F
100
AcDbEntity
  8
0
100
AcDbLine
 10
-53.1073080962425
 20
-84.5528151214918
 30
0.0
 11
-53.11036146089004
 21
-84.65014059023704
 31
0.0
  0
LINE
  5
117
330
1F
100
AcDbEntity
  8
0
100
AcDbLine
 10
-53.11036146089004
 20
-84.65014059023704
 30
0.0
 11
-53.10729768367391
 21
-84.74746573175409
 31
0.0
  0
LINE
  5
118
330
1F
100
AcDbEntity
  8
0
100
AcDbLine
 10
-53.06164474055389
 20
-85.03560730985963
 30
0.0
 11
-53.03447343907072
 21
-85.12911287267738
 31
0.0
  0
LINE
  5
119
330
1F
100
AcDbEntity
  8
0
100
AcDbLine
 10
-53.03447343907072
 20
-85.12911287267738
 30
0.0
 11
-53.00148449107614
 21
-85.22072782348988
 31
0.0
  0
LINE
  5
11A
330
1F
100
AcDbEntity
  8
0
100
AcDbLine
 10
-52.96280808887663
 20
-85.310090599941
 30
0.0
 11
-52.91859687056219
 21
-85.3968485279782
 31
0.0
  0
LINE
  5
11B
330
1F
100
AcDbEntity
  8
0
100
AcDbLine
 10
-52.91859687056219
 20
-85.3968485279782
 30
0.0
 11
-52.86902531761321
 21
-85.4806592136953
 31
0.0
  0
LINE
  5
11C
330
1F
100
AcDbEntity
  8
0
100
AcDbLine
 10
-52.5483047585963
 20
-85.84440605179245
 30
0.0
 11
-52.47136152310549
 21
-85.90408275088325
 31
0.0
  0
LINE
  5
11D
330
1F
100
AcDbEntity
  8
0
100
AcDbLine
 10
-52.39082298657431
 20
-85.95881038590943
 30
0.0
 11
-52.30700699781169
 21
-86.0083729718984
 31
0.0
  0
LINE
  5
11E
330
1F
100
AcDbEntity
  8
0
100
AcDbLine
 10
-52.13087742641127
 20
-86.09124174926484
 30
0.0
 11
-52.03925894672565
 21
-86.12422089543719
 31
0.0
  0
LINE
  5
11F
330
1F
100
AcDbEntity
  8
0
100
AcDbLine
 10
-52.03925894672565
 20
-86.12422089543719
 30
0.0
 11
-51.94575047745968
 21
-86.15138219286014
 31
0.0
  0
LINE
  5
120
330
1F
100
AcDbEntity
  8
0
100
AcDbLine
 10
-51.75454571353161
 20
-86.18784585196259
 30
0.0
 11
-51.65760401671961
 21
-86.19700430823842
 31
0.0
  0
LINE
  5
121
330
1F
100
AcDbEntity
  8
0
100
AcDbLine
 10
-51.65760401671961
 20
-86.19700430823842
 30
0.0
 11
-51.56027854797437
 21
-86.20005767288588
 31
0.0
  0
LINE
  5
122
330
1F
100
AcDbEntity
  8
0
100
AcDbLine
 10
-51.56027854797437
 20
-86.20005767288588
 30
0.0
 11
-51.46295340645724
 21
-86.19699389566973
 31
0.0
  0
LINE
  5
123
330
1F
100
AcDbEntity
  8
0
100
AcDbLine
 10
-51.46295340645724
 20
-86.19699389566973
 30
0.0
 11
-51.36601269003821
 21
-86.18782506791905
 31
0.0
  0
LINE
  5
124
330
1F
100
AcDbEntity
  8
0
100
AcDbLine
 10
-51.26983897943695
 20
-86.17258737480796
 30
0.0
 11
-51.17481182835169
 21
-86.1513409525498
 31
0.0
  0
LINE
  5
125
330
1F
100
AcDbEntity
  8
0
100
AcDbLine
 10
-51.17481182835169
 20
-86.1513409525498
 30
0.0
 11
-51.08130626553395
 21
-86.12416965106664
 31
0.0
  0
LINE
  5
126
330
1F
100
AcDbEntity
  8
0
100
AcDbLine
 10
-51.08130626553395
 20
-86.12416965106664
 30
0.0
 11
-50.98969131472154
 21
-86.09118070307206
 31
0.0
  0
LINE
  5
127
330
1F
100
AcDbEntity
  8
0
100
AcDbLine
 10
-50.81357061023323
 20
-86.00829308255801
 30
0.0
 11
-50.72975992451602
 21
-85.95872152960902
 31
0.0
  0
LINE
  5
128
330
1F
100
AcDbEntity
  8
0
100
AcDbLine
 10
-50.72975992451602
 20
-85.95872152960902
 30
0.0
 11
-50.6492272436059
 21
-85.90398527829798
 31
0.0
  0
LINE
  5
129
330
1F
100
AcDbEntity
  8
0
100
AcDbLine
 10
-50.2516087523019
 20
-85.48051919857012
 30
0.0
 11
-50.20204616631302
 21
-85.39670320980761
 31
0.0
  0
LINE
  5
12A
330
1F
100
AcDbEntity
  8
0
100
AcDbLine
 10
-50.05903694535127
 20
-85.03544668945558
 30
0.0
 11
-50.03780068991007
 21
-84.94041726581746
 31
0.0
  0
LINE
  5
12B
330
1F
100
AcDbEntity
  8
0
100
AcDbLine
 10
-50.01036146532545
 20
-84.64997475997019
 30
0.0
 11
-50.01342524254159
 21
-84.55264961845305
 31
0.0
  0
LINE
  5
12C
330
1F
100
AcDbEntity
  8
0
100
AcDbLine
 10
-50.01342524254159
 20
-84.55264961845305
 30
0.0
 11
-50.02259407029237
 21
-84.45570890203402
 31
0.0
  0
LINE
  5
12D
330
1F
100
AcDbEntity
  8
0
100
AcDbLine
 10
-50.0590781856616
 20
-84.26450804034761
 30
0.0
 11
-50.08624948714477
 21
-84.17100247752977
 31
0.0
  0
LINE
  5
12E
330
1F
100
AcDbEntity
  8
0
100
AcDbLine
 10
-50.08624948714477
 20
-84.17100247752977
 30
0.0
 11
-50.11923843513936
 21
-84.07938752671735
 31
0.0
  0
LINE
  5
12F
330
1F
100
AcDbEntity
  8
0
100
AcDbLine
 10
-50.11923843513936
 20
-84.07938752671735
 30
0.0
 11
-50.15791483733886
 21
-83.99002475026623
 31
0.0
  0
LINE
  5
130
330
1F
100
AcDbEntity
  8
0
100
AcDbLine
 10
-50.15791483733886
 20
-83.99002475026623
 30
0.0
 11
-50.20212605565332
 21
-83.90326682222904
 31
0.0
  0
LINE
  5
131
330
1F
100
AcDbEntity
  8
0
100
AcDbLine
 10
-50.20212605565332
 20
-83.90326682222904
 30
0.0
 11
-50.2516976086023
 21
-83.81945613651185
 31
0.0
  0
LINE
  5
132
330
1F
100
AcDbEntity
  8
0
100
AcDbLine
 10
-50.81371592840381
 20
-83.29174237830884
 30
0.0
 11
-50.90047858598193
 21
-83.24754044224117
 31
0.0
  0
LINE
  5
133
330
1F
100
AcDbEntity
  8
0
100
AcDbLine
 10
-50.90047858598193
 20
-83.24754044224117
 30
0.0
 11
-50.98984549980424
 21
-83.2088736009424
 31
0.0
  0
LINE
  5
134
330
1F
100
AcDbEntity
  8
0
100
AcDbLine
 10
-50.98984549980424
 20
-83.2088736009424
 30
0.0
 11
-51.08146397948985
 21
-83.17589445476995
 31
0.0
  0
LINE
  5
135
330
1F
100
AcDbEntity
  8
0
100
AcDbLine
 10
-51.08146397948985
 20
-83.17589445476995
 30
0.0
 11
-51.17497244875582
 21
-83.1487331573471
 31
0.0
  0
LINE
  5
136
330
1F
100
AcDbEntity
  8
0
100
AcDbLine
 10
-51.65776951975827
 20
-83.1031214545374
 30
0.0
 11
-51.7547102361773
 21
-83.11229028228819
 31
0.0
  0
LINE
  5
137
330
1F
100
AcDbEntity
  8
0
100
AcDbLine
 10
-52.22039438794509
 20
-83.24761104933468
 30
0.0
 11
-52.30715231598227
 21
-83.29182226764922
 31
0.0
  0
LINE
  5
138
330
1F
100
AcDbEntity
  8
0
100
AcDbLine
 10
-52.47149568260959
 20
-83.39613007190925
 30
0.0
 11
-52.54843253301291
 21
-83.45581500260504
 31
0.0
  0
LINE
  5
139
330
1F
100
AcDbEntity
  8
0
100
AcDbLine
 10
-52.69031959330895
 20
-83.58907010496328
 30
0.0
 11
-52.75470983979662
 21
-83.66211437961512
 31
0.0
  0
LINE
  5
13A
330
1F
100
AcDbEntity
  8
0
100
AcDbLine
 10
-52.81438653888733
 20
-83.73905761510584
 30
0.0
 11
-52.86911417391359
 21
-83.81959615163711
 31
0.0
  0
LINE
  5
13B
330
1F
100
AcDbEntity
  8
0
100
AcDbLine
 10
-52.86911417391359
 20
-83.81959615163711
 30
0.0
 11
-52.91867675990248
 21
-83.90341214039964
 31
0.0
  0
LINE
  5
13C
330
1F
100
AcDbEntity
  8
0
100
AcDbLine
 10
-52.91867675990248
 20
-83.90341214039964
 30
0.0
 11
-52.96287869597023
 21
-83.99017479797776
 31
0.0
  0
ENDSEC
  0
SECTION
  2
OBJECTS
  0
DICTIONARY
  5
C
330
0
100
AcDbDictionary
  3
ACAD_GROUP
350
D
  3
ACAD_LAYOUT
350
1A
  3
ACAD_MATERIAL
350
3B
  3
ACAD_MLEADERSTYLE
350
15F
  3
ACAD_MLINESTYLE
350
17
  3
ACAD_PLOTSETTINGS
350
19
  3
ACAD_VISUALSTYLE
350
2A
  3
ACDBHEADERROUNDTRIPXREC
350
13D
  3
ACDBVARIABLEDICTIONARY
350
15D
  0
DICTIONARY
  5
D
102
{ACAD_REACTORS
330
C
102
}
330
C
100
AcDbDictionary
  0
DICTIONARY
  5
1A
102
{ACAD_REACTORS
330
C
102
}
330
C
100
AcDbDictionary
  0
DICTIONARY
  5
3B
102
{ACAD_REACTORS
330
C
102
}
330
C
100
AcDbDictionary
  3
BYBLOCK
350
3D
  3
BYLAYER
350
3C
  3
GLOBAL
350
3E
  0
DICTIONARY
  5
15F
102
{ACAD_REACTORS
330
C
102
}
330
C
100
AcDbDictionary
  0
DICTIONARY
  5
17
102
{ACAD_REACTORS
330
C
102
}
330
C
100
AcDbDictionary
  3
STANDARD
350
18
  0
DICTIONARY
  5
19
102
{ACAD_REACTORS
330
C
102
}
330
C
100
AcDbDictionary
  0
DICTIONARY
  5
2A
102
{ACAD_REACTORS
330
C
102
}
330
C
100
AcDbDictionary
  3
2DWIREFRAME
350
2F
  3
3D_HIDDEN
350
31
  3
3DWIREFRAME
350
30
  3
BASIC
350
32
  3
BRIGHTEN
350
36
  3
COLORCHANGE
350
3A
  3
CONCEPTUAL
350
34
  3
DIM
350
35
  3
FACEPATTERN
350
39
  3
FLAT
350
2B
  3
FLATWITHEDGES
350
2C
  3
GOURAUD
350
2D
  3
GOURAUDWITHEDGES
350
2E
  3
LINEPATTERN
350
38
  3
REALISTIC
350
33
  3
THICKEN
350
37
  0
DICTIONARY
  5
13D
102
{ACAD_REACTORS
330
C
102
}
330
C
100
AcDbDictionary
  3
CEPSNTYPE
350
146
  3
DIMSTYLEDATA
350
15C
  3
FINGERPRINTGUID
350
147
  3
HYPERLINKBASE
350
140
  3
INSUNITS
350
145
  3
LAYOUTDICT
350
142
  3
LWETCUNION
350
144
  3
PLOTSETDICT
350
143
  3
PSVPSCALE
350
149
  3
PUCSBASE
350
14C
  3
PUCSORGBACK
350
152
  3
PUCSORGBOTTOM
350
14E
  3
PUCSORGFRONT
350
151
  3
PUCSORGLEFT
350
14F
  3
PUCSORGRIGHT
350
150
  3
PUCSORGTOP
350
14D
  3
PUCSORTHOREF
350
14A
  3
PUCSORTHOVIEW
350
14B
  3
STYLESHEET
350
141
  3
TSTACKALIGN
350
13E
  3
TSTACKSIZE
350
13F
  3
UCSBASE
350
155
  3
UCSORGBACK
350
15B
  3
UCSORGBOTTOM
350
157
  3
UCSORGFRONT
350
15A
  3
UCSORGLEFT
350
158
  3
UCSORGRIGHT
350
159
  3
UCSORGTOP
350
156
  3
UCSORTHOREF
350
153
  3
UCSORTHOVIEW
350
154
  3
VERSIONGUID
350
148
  0
DICTIONARY
  5
15D
102
{ACAD_REACTORS
330
C
102
}
330
C
100
AcDbDictionary
  3
DIMASSOC
350
160
  3
HIDETEXT
350
161
  0
MATERIAL
  5
3D
102
{ACAD_REACTORS
330
3B
102
}
102
{ACAD_XDICTIONARY
360
164
102
}
330
3B
100
AcDbMaterial
  1
ByBlock
  0
MATERIAL
  5
3C
102
{ACAD_REACTORS
330
3B
102
}
102
{ACAD_XDICTIONARY
360
162
102
}
330
3B
100
AcDbMaterial
  1
ByLayer
  0
MATERIAL
  5
3E
102
{ACAD_REACTORS
330
3B
102
}
102
{ACAD_XDICTIONARY
360
166
102
}
330
3B
100
AcDbMaterial
  1
Global
  0
MLINESTYLE
  5
18
102
{ACAD_REACTORS
330
17
102
}
330
17
100
AcDbMlineStyle
  2
Standard
 70
     0
  3

 62
   256
 51
90.0
 52
90.0
 71
     2
 49
0.5
 62
   256
  6
BYLAYER
 49
-0.5
 62
   256
  6
BYLAYER
  0
ACAD_PROXY_OBJECT
  5
2F
102
{ACAD_REACTORS
330
2A
102
}
330
2A
100
AcDbProxyObject
 90
      499
 91
      501
 93
      436
310
42CC9915DA5C99599C985B595049028333333333333E3BF0000000000000FB0107901411070040501600405405064090741402480A0340
1001
ACAD
1000
AcDbSavedByObjectVersion
1070
     0
  0
ACAD_PROXY_OBJECT
  5
31
102
{ACAD_REACTORS
330
2A
102
}
330
2A
100
AcDbProxyObject
 90
      499
 91
      501
 93
      500
310
424CD108121A5919195B90640502408333333333333E3BF0000000000000FB01079024090700405020000000000001110200405405064090740C02480A0340
1001
ACAD
1000
AcDbSavedByObjectVersion
1070
     0
  0
ACAD_PROXY_OBJECT
  5
30
102
{ACAD_REACTORS
330
2A
102
}
330
2A
100
AcDbProxyObject
 90
      499
 91
      501
 93
      436
310
42CCD915DA5C99599C985B595059028333333333333E3BF0000000000000FB0107901411070040501600405405064090741402480A0340
1001
ACAD
1000
AcDbSavedByObjectVersion
1070
     0
  0
ACAD_PROXY_OBJECT
  5
32
102
{ACAD_REACTORS
330
2A
102
}
330
2A
100
AcDbProxyObject
 90
      499
 91
      501
 93
      388
310
4150985CDA58D07406404333333333333E3BF0000000000000FB0107A41107004050150841D405064090741402480A0350
1001
ACAD
1000
AcDbSavedByObjectVersion
1070
     0
  0
ACAD_PROXY_OBJECT
  5
36
102
{ACAD_REACTORS
330
2A
102
}
330
2A
100
AcDbProxyObject
 90
      499
 91
      501
 93
      428
310
42109C9A59DA1D195B90C409028333333333333E3BF0000000000000FB010790141107004050150841D405064090741402480A029950
1001
ACAD
1000
AcDbSavedByObjectVersion
1070
     0
  0
ACAD_PROXY_OBJECT
  5
3A
102
{ACAD_REACTORS
330
2A
102
}
330
2A
100
AcDbProxyObject
 90
      499
 91
      501
 93
      452
310
42D0DBDB1BDC90DA185B99D95104090240C333333333333E3BF0000000000000FB0108901411070040501508421405064090741402480A0350
1001
ACAD
1000
AcDbSavedByObjectVersion
1070
     0
  0
ACAD_PROXY_OBJECT
  5
34
102
{ACAD_REACTORS
330
2A
102
}
330
2A
100
AcDbProxyObject
 90
      499
 91
      501
 93
      500
310
4290DBDB98D95C1D1D585B10940D028333333333333E3BF0000000000000FB0107902409070040501000000000000111010841D405064090740C02480A0340
1001
ACAD
1000
AcDbSavedByObjectVersion
1070
     0
  0
ACAD_PROXY_OBJECT
  5
35
102
{ACAD_REACTORS
330
2A
102
}
330
2A
100
AcDbProxyObject
 90
      499
 91
      501
 93
      412
310
40D11A5B50B409028333333333333E3BF0000000000000FB010790141107004050150841D405064090741402480A02677FFFFFD0
1001
ACAD
1000
AcDbSavedByObjectVersion
1070
     0
  0
ACAD_PROXY_OBJECT
  5
39
102
{ACAD_REACTORS
330
2A
102
}
330
2A
100
AcDbProxyObject
 90
      499
 91
      501
 93
      444
310
42D19858D95C185D1D195C9B90F409028333333333333E3BF0000000000000FB010790141107004050150841D405064090741402480A0350
1001
ACAD
1000
AcDbSavedByObjectVersion
1070
     0
  0
ACAD_PROXY_OBJECT
  5
2B
102
{ACAD_REACTORS
330
2A
102
}
330
2A
100
AcDbProxyObject
 90
      499
 91
      501
 93
      388
310
41119B185D240901404333333333333E3BF0000000000000F9010740A41107004050150841D405064090741402480A1B50
1001
ACAD
1000
AcDbSavedByObjectVersion
1070
     0
  0
ACAD_PROXY_OBJECT
  5
2C
102
{ACAD_REACTORS
330
2A
102
}
330
2A
100
AcDbProxyObject
 90
      499
 91
      501
 93
      476
310
43519B185D15DA5D1A115919D95CD0140901404333333333333E3BF0000000000000F9010740901411070040501600405405064090741402480A1B50
1001
ACAD
1000
AcDbSavedByObjectVersion
1070
     0
  0
ACAD_PROXY_OBJECT
  5
2D
102
{ACAD_REACTORS
330
2A
102
}
330
2A
100
AcDbProxyObject
 90
      499
 91
      501
 93
      412
310
41D1DBDD5C985D5910240902404333333333333E3BF0000000000000F9010740A411070040501641D405064090741402480A1B50
1001
ACAD
1000
AcDbSavedByObjectVersion
1070
     0
  0
ACAD_PROXY_OBJECT
  5
2E
102
{ACAD_REACTORS
330
2A
102
}
330
2A
100
AcDbProxyObject
 90
      499
 91
      501
 93
      500
310
4411DBDD5C985D5915DA5D1A115919D95CD0340902404333333333333E3BF0000000000000F9010740901411070040501600405405064090741402480A1B50
1001
ACAD
1000
AcDbSavedByObjectVersion
1070
     0
  0
ACAD_PROXY_OBJECT
  5
38
102
{ACAD_REACTORS
330
2A
102
}
330
2A
100
AcDbProxyObject
 90
      499
 91
      501
 93
      444
310
42D31A5B995C185D1D195C9B90E409028333333333333E3BF0000000000000FB010790141107004050750841D405064090741402483A0350
1001
ACAD
1000
AcDbSavedByObjectVersion
1070
     0
  0
ACAD_PROXY_OBJECT
  5
33
102
{ACAD_REACTORS
330
2A
102
}
330
2A
100
AcDbProxyObject
 90
      499
 91
      501
 93
      420
310
425499585B1A5CDD1A58D08409028333333333333E3BF0000000000000FB01079019070040501508421405064090741402480A1B40
1001
ACAD
1000
AcDbSavedByObjectVersion
1070
     0
  0
ACAD_PROXY_OBJECT
  5
37
102
{ACAD_REACTORS
330
2A
102
}
330
2A
100
AcDbProxyObject
 90
      499
 91
      501
 93
      412
310
41D51A1A58DAD95B90D409028333333333333E3BF0000000000000FB010790141107004050150C41D405064090741402480A0350
1001
ACAD
1000
AcDbSavedByObjectVersion
1070
     0
  0
XRECORD
  5
146
102
{ACAD_REACTORS
330
13D
102
}
330
13D
100
AcDbXrecord
 90
        0
  0
XRECORD
  5
15C
102
{ACAD_REACTORS
330
13D
102
}
330
13D
100
AcDbXrecord
1000
DSTYLE
1002
{
1070
   340
340
11
1002
}
  0
XRECORD
  5
147
102
{ACAD_REACTORS
330
13D
102
}
330
13D
100
AcDbXrecord
  1
{0C0FEB78-B658-4FCC-ACC9-6E809FC55E9E}
  0
XRECORD
  5
140
102
{ACAD_REACTORS
330
13D
102
}
330
13D
100
AcDbXrecord
  1

  0
XRECORD
  5
145
102
{ACAD_REACTORS
330
13D
102
}
330
13D
100
AcDbXrecord
 90
        1
  0
XRECORD
  5
142
102
{ACAD_REACTORS
330
13D
102
}
330
13D
100
AcDbXrecord
340
1A
  0
XRECORD
  5
144
102
{ACAD_REACTORS
330
13D
102
}
330
13D
100
AcDbXrecord
 90
    10781
  0
XRECORD
  5
143
102
{ACAD_REACTORS
330
13D
102
}
330
13D
100
AcDbXrecord
340
19
  0
XRECORD
  5
149
102
{ACAD_REACTORS
330
13D
102
}
330
13D
100
AcDbXrecord
 40
0.0
  0
XRECORD
  5
14C
102
{ACAD_REACTORS
330
13D
102
}
330
13D
100
AcDbXrecord
340
0
  0
XRECORD
  5
152
102
{ACAD_REACTORS
330
13D
102
}
330
13D
100
AcDbXrecord
 10
0.0
 20
0.0
 30
0.0
  0
XRECORD
  5
14E
102
{ACAD_REACTORS
330
13D
102
}
330
13D
100
AcDbXrecord
 10
0.0
 20
0.0
 30
0.0
  0
XRECORD
  5
151
102
{ACAD_REACTORS
330
13D
102
}
330
13D
100
AcDbXrecord
 10
0.0
 20
0.0
 30
0.0
  0
XRECORD
  5
14F
102
{ACAD_REACTORS
330
13D
102
}
330
13D
100
AcDbXrecord
 10
0.0
 20
0.0
 30
0.0
  0
XRECORD
  5
150
102
{ACAD_REACTORS
330
13D
102
}
330
13D
100
AcDbXrecord
 10
0.0
 20
0.0
 30
0.0
  0
XRECORD
  5
14D
102
{ACAD_REACTORS
330
13D
102
}
330
13D
100
AcDbXrecord
 10
0.0
 20
0.0
 30
0.0
  0
XRECORD
  5
14A
102
{ACAD_REACTORS
330
13D
102
}
330
13D
100
AcDbXrecord
340
0
  0
XRECORD
  5
14B
102
{ACAD_REACTORS
330
13D
102
}
330
13D
100
AcDbXrecord
 70
     0
  0
XRECORD
  5
141
102
{ACAD_REACTORS
330
13D
102
}
330
13D
100
AcDbXrecord
  1

  0
XRECORD
  5
13E
102
{ACAD_REACTORS
330
13D
102
}
330
13D
100
AcDbXrecord
 90
        1
  0
XRECORD
  5
13F
102
{ACAD_REACTORS
330
13D
102
}
330
13D
100
AcDbXrecord
 90
       70
  0
XRECORD
  5
155
102
{ACAD_REACTORS
330
13D
102
}
330
13D
100
AcDbXrecord
340
0
  0
XRECORD
  5
15B
102
{ACAD_REACTORS
330
13D
102
}
330
13D
100
AcDbXrecord
 10
0.0
 20
0.0
 30
0.0
  0
XRECORD
  5
157
102
{ACAD_REACTORS
330
13D
102
}
330
13D
100
AcDbXrecord
 10
0.0
 20
0.0
 30
0.0
  0
XRECORD
  5
15A
102
{ACAD_REACTORS
330
13D
102
}
330
13D
100
AcDbXrecord
 10
0.0
 20
0.0
 30
0.0
  0
XRECORD
  5
158
102
{ACAD_REACTORS
330
13D
102
}
330
13D
100
AcDbXrecord
 10
0.0
 20
0.0
 30
0.0
  0
XRECORD
  5
159
102
{ACAD_REACTORS
330
13D
102
}
330
13D
100
AcDbXrecord
 10
0.0
 20
0.0
 30
0.0
  0
XRECORD
  5
156
102
{ACAD_REACTORS
330
13D
102
}
330
13D
100
AcDbXrecord
 10
0.0
 20
0.0
 30
0.0
  0
XRECORD
  5
153
102
{ACAD_REACTORS
330
13D
102
}
330
13D
100
AcDbXrecord
340
0
  0
XRECORD
  5
154
102
{ACAD_REACTORS
330
13D
102
}
330
13D
100
AcDbXrecord
 70
     0
  0
XRECORD
  5
148
102
{ACAD_REACTORS
330
13D
102
}
330
13D
100
AcDbXrecord
  1
{FAEB1C32-E019-11D5-929B-00C0DF256EC4}
  0
DICTIONARYVAR
  5
160
102
{ACAD_REACTORS
330
15D
102
}
330
15D
100
DictionaryVariables
280
     0
  1
2
  0
DICTIONARYVAR
  5
161
102
{ACAD_REACTORS
330
15D
102
}
330
15D
100
DictionaryVariables
280
     0
  1
1
  0
DICTIONARY
  5
164
330
3D
100
AcDbDictionary
280
     1
  3
ACAD_XREC_ROUNDTRIP
360
165
  0
DICTIONARY
  5
162
330
3C
100
AcDbDictionary
280
     1
  3
ACAD_XREC_ROUNDTRIP
360
163
  0
DICTIONARY
  5
166
330
3E
100
AcDbDictionary
280
     1
  3
ACAD_XREC_ROUNDTRIP
360
167
  0
XRECORD
  5
165
102
{ACAD_REACTORS
330
164
102
}
330
164
100
AcDbXrecord
102
MATERIAL
148
0.0
149
0.0
149
0.0
 93
        0
 94
      127
282
     0
 72
     1
 77
     1
171
     1
175
     1
179
     1
273
     0
  0
XRECORD
  5
163
102
{ACAD_REACTORS
330
162
102
}
330
162
100
AcDbXrecord
102
MATERIAL
148
0.0
149
0.0
149
0.0
 93
        0
 94
      127
282
     0
 72
     1
 77
     1
171
     1
175
     1
179
     1
273
     0
  0
XRECORD
  5
167
102
{ACAD_REACTORS
330
166
102
}
330
166
100
AcDbXrecord
102
MATERIAL
148
0.0
149
0.0
149
0.0
 93
        0
 94
      127
282
     0
 72
     1
 77
     1
171
     1
175
     1
179
     1
273
     0
  0
ENDSEC
  0
EOF
