  0
SECTION
  2
HEADER
  9
$ACADVER
  1
AC1014
  9
$ACADMAINTVER
 70
     9
  9
$DWGCODEPAGE
  3
ANSI_1252
  9
$INSBASE
 10
0.0
 20
0.0
 30
0.0
  9
$EXTMIN
 10
1.000000000000000E+20
 20
1.000000000000000E+20
 30
1.000000000000000E+20
  9
$EXTMAX
 10
-1.000000000000000E+20
 20
-1.000000000000000E+20
 30
-1.000000000000000E+20
  9
$LIMMIN
 10
0.0
 20
0.0
  9
$LIMMAX
 10
12.0
 20
9.0
  9
$ORTHOMODE
 70
     0
  9
$REGENMODE
 70
     1
  9
$FILLMODE
 70
     1
  9
$QTEXTMODE
 70
     0
  9
$MIRRTEXT
 70
     1
  9
$DRAGMODE
 70
     2
  9
$LTSCALE
 40
1.0
  9
$OSMODE
 70
    37
  9
$ATTMODE
 70
     1
  9
$TEXTSIZE
 40
0.2
  9
$TRACEWID
 40
0.05
  9
$TEXTSTYLE
  7
STANDARD
  9
$CLAYER
  8
0
  9
$CELTYPE
  6
BYLAYER
  9
$CECOLOR
 62
   256
  9
$CELTSCALE
 40
1.0
  9
$DELOBJ
 70
     1
  9
$DISPSILH
 70
     0
  9
$DIMSCALE
 40
1.0
  9
$DIMASZ
 40
0.18
  9
$DIMEXO
 40
0.0625
  9
$DIMDLI
 40
0.38
  9
$DIMRND
 40
0.0
  9
$DIMDLE
 40
0.0
  9
$DIMEXE
 40
0.18
  9
$DIMTP
 40
0.0
  9
$DIMTM
 40
0.0
  9
$DIMTXT
 40
0.18
  9
$DIMCEN
 40
0.09
  9
$DIMTSZ
 40
0.0
  9
$DIMTOL
 70
     0
  9
$DIMLIM
 70
     0
  9
$DIMTIH
 70
     1
  9
$DIMTOH
 70
     1
  9
$DIMSE1
 70
     0
  9
$DIMSE2
 70
     0
  9
$DIMTAD
 70
     0
  9
$DIMZIN
 70
     0
  9
$DIMBLK
  1

  9
$DIMASO
 70
     1
  9
$DIMSHO
 70
     1
  9
$DIMPOST
  1

  9
$DIMAPOST
  1

  9
$DIMALT
 70
     0
  9
$DIMALTD
 70
     2
  9
$DIMALTF
 40
25.4
  9
$DIMLFAC
 40
1.0
  9
$DIMTOFL
 70
     0
  9
$DIMTVP
 40
0.0
  9
$DIMTIX
 70
     0
  9
$DIMSOXD
 70
     0
  9
$DIMSAH
 70
     0
  9
$DIMBLK1
  1

  9
$DIMBLK2
  1

  9
$DIMSTYLE
  2
STANDARD
  9
$DIMCLRD
 70
     0
  9
$DIMCLRE
 70
     0
  9
$DIMCLRT
 70
     0
  9
$DIMTFAC
 40
1.0
  9
$DIMGAP
 40
0.09
  9
$DIMJUST
 70
     0
  9
$DIMSD1
 70
     0
  9
$DIMSD2
 70
     0
  9
$DIMTOLJ
 70
     1
  9
$DIMTZIN
 70
     0
  9
$DIMALTZ
 70
     0
  9
$DIMALTTZ
 70
     0
  9
$DIMFIT
 70
     3
  9
$DIMUPT
 70
     0
  9
$DIMUNIT
 70
     2
  9
$DIMDEC
 70
     4
  9
$DIMTDEC
 70
     4
  9
$DIMALTU
 70
     2
  9
$DIMALTTD
 70
     2
  9
$DIMTXSTY
  7
STANDARD
  9
$DIMAUNIT
 70
     0
  9
$LUNITS
 70
     2
  9
$LUPREC
 70
     4
  9
$SKETCHINC
 40
0.1
  9
$FILLETRAD
 40
0.5
  9
$AUNITS
 70
     0
  9
$AUPREC
 70
     0
  9
$MENU
  1
.
  9
$ELEVATION
 40
0.0
  9
$PELEVATION
 40
0.0
  9
$THICKNESS
 40
0.0
  9
$LIMCHECK
 70
     0
  9
$CHAMFERA
 40
0.5
  9
$CHAMFERB
 40
0.5
  9
$CHAMFERC
 40
1.0
  9
$CHAMFERD
 40
0.0
  9
$SKPOLY
 70
     0
  9
$TDCREATE
 40
2457266.845094687
  9
$TDUPDATE
 40
2457266.845094699
  9
$TDINDWG
 40
0.0000000116
  9
$TDUSRTIMER
 40
0.0000000116
  9
$USRTIMER
 70
     1
  9
$ANGBASE
 50
0.0
  9
$ANGDIR
 70
     0
  9
$PDMODE
 70
     0
  9
$PDSIZE
 40
0.0
  9
$PLINEWID
 40
0.0
  9
$COORDS
 70
     1
  9
$SPLFRAME
 70
     0
  9
$SPLINETYPE
 70
     6
  9
$SPLINESEGS
 70
     8
  9
$ATTDIA
 70
     0
  9
$ATTREQ
 70
     1
  9
$HANDLING
 70
     1
  9
$HANDSEED
  5
127
  9
$SURFTAB1
 70
     6
  9
$SURFTAB2
 70
     6
  9
$SURFTYPE
 70
     6
  9
$SURFU
 70
     6
  9
$SURFV
 70
     6
  9
$UCSNAME
  2

  9
$UCSORG
 10
0.0
 20
0.0
 30
0.0
  9
$UCSXDIR
 10
1.0
 20
0.0
 30
0.0
  9
$UCSYDIR
 10
0.0
 20
1.0
 30
0.0
  9
$PUCSNAME
  2

  9
$PUCSORG
 10
0.0
 20
0.0
 30
0.0
  9
$PUCSXDIR
 10
1.0
 20
0.0
 30
0.0
  9
$PUCSYDIR
 10
0.0
 20
1.0
 30
0.0
  9
$USERI1
 70
     0
  9
$USERI2
 70
     0
  9
$USERI3
 70
     0
  9
$USERI4
 70
     0
  9
$USERI5
 70
     0
  9
$USERR1
 40
0.0
  9
$USERR2
 40
0.0
  9
$USERR3
 40
0.0
  9
$USERR4
 40
0.0
  9
$USERR5
 40
0.0
  9
$WORLDVIEW
 70
     1
  9
$SHADEDGE
 70
     3
  9
$SHADEDIF
 70
    70
  9
$TILEMODE
 70
     1
  9
$MAXACTVP
 70
    64
  9
$PINSBASE
 10
0.0
 20
0.0
 30
0.0
  9
$PLIMCHECK
 70
     0
  9
$PEXTMIN
 10
1.000000000000000E+20
 20
1.000000000000000E+20
 30
1.000000000000000E+20
  9
$PEXTMAX
 10
-1.000000000000000E+20
 20
-1.000000000000000E+20
 30
-1.000000000000000E+20
  9
$PLIMMIN
 10
0.0
 20
0.0
  9
$PLIMMAX
 10
12.0
 20
9.0
  9
$UNITMODE
 70
     0
  9
$VISRETAIN
 70
     1
  9
$PLINEGEN
 70
     0
  9
$PSLTSCALE
 70
     1
  9
$TREEDEPTH
 70
  3020
  9
$PICKSTYLE
 70
     1
  9
$CMLSTYLE
  2
STANDARD
  9
$CMLJUST
 70
     0
  9
$CMLSCALE
 40
1.0
  9
$PROXYGRAPHICS
 70
     1
  9
$MEASUREMENT
 70
     0
  0
ENDSEC
  0
SECTION
  2
CLASSES
  0
CLASS
  1
ACDBDICTIONARYWDFLT
  2
AcDbDictionaryWithDefault
  3
ObjectDBX Classes
 90
        0
280
     0
281
     0
  0
CLASS
  1
VISUALSTYLE
  2
AcDbVisualStyle
  3
ObjectDBX Classes
 90
     4095
280
     0
281
     0
  0
CLASS
  1
MATERIAL
  2
AcDbMaterial
  3
ObjectDBX Classes
 90
     1153
280
     0
281
     0
  0
CLASS
  1
DICTIONARYVAR
  2
AcDbDictionaryVar
  3
ObjectDBX Classes
 90
        0
280
     0
281
     0
  0
CLASS
  1
XRECORD
  2
AcDbXrecord
  3
AutoCAD 2000
 90
        0
280
     0
281
     0
  0
CLASS
  1
LWPOLYLINE
  2
AcDbPolyline
  3
AutoCAD 2000
 90
        0
280
     0
281
     1
  0
CLASS
  1
HATCH
  2
AcDbHatch
  3
AutoCAD 2000
 90
        0
280
     0
281
     1
  0
CLASS
  1
ACDBPLACEHOLDER
  2
AcDbPlaceHolder
  3
ObjectDBX Classes
 90
        0
280
     0
281
     0
  0
CLASS
  1
LAYOUT
  2
AcDbLayout
  3
ObjectDBX Classes
 90
        0
280
     0
281
     0
  0
ENDSEC
  0
SECTION
  2
TABLES
  0
TABLE
  2
VPORT
  5
8
330
0
100
AcDbSymbolTable
 70
     1
  0
VPORT
  5
29
330
8
100
AcDbSymbolTableRecord
100
AcDbViewportTableRecord
  2
*ACTIVE
 70
     0
 10
0.0
 20
0.0
 11
1.0
 21
1.0
 12
0.0
 22
0.0
 13
0.0
 23
0.0
 14
0.5
 24
0.5
 15
0.5
 25
0.5
 16
0.0
 26
0.0
 36
1.0
 17
0.0
 27
0.0
 37
-1000.0
 40
167.45360603508
 41
1.763768115942029
 42
50.0
 43
327.8069496879085
 44
761.3089669731067
 50
0.0
 51
0.0
 71
     0
 72
   100
 73
     1
 74
     3
 75
     0
 76
     0
 77
     0
 78
     0
  0
ENDTAB
  0
TABLE
  2
LTYPE
  5
5
330
0
100
AcDbSymbolTable
 70
     1
  0
LTYPE
  5
14
330
5
100
AcDbSymbolTableRecord
100
AcDbLinetypeTableRecord
  2
BYBLOCK
 70
     0
  3

 72
    65
 73
     0
 40
0.0
  0
LTYPE
  5
15
330
5
100
AcDbSymbolTableRecord
100
AcDbLinetypeTableRecord
  2
BYLAYER
 70
     0
  3

 72
    65
 73
     0
 40
0.0
  0
LTYPE
  5
16
330
5
100
AcDbSymbolTableRecord
100
AcDbLinetypeTableRecord
  2
CONTINUOUS
 70
     0
  3
Solid line
 72
    65
 73
     0
 40
0.0
  0
ENDTAB
  0
TABLE
  2
LAYER
  5
2
330
0
100
AcDbSymbolTable
 70
     3
  0
LAYER
  5
10
330
2
100
AcDbSymbolTableRecord
100
AcDbLayerTableRecord
  2
0
 70
     0
 62
     7
  6
CONTINUOUS
  0
LAYER
  5
3F
330
2
100
AcDbSymbolTableRecord
100
AcDbLayerTableRecord
  2
PROFILEEDGES
 70
     0
 62
     7
  6
CONTINUOUS
  0
LAYER
  5
40
330
2
100
AcDbSymbolTableRecord
100
AcDbLayerTableRecord
  2
SECTIONCUTEDGES
 70
     0
 62
     7
  6
CONTINUOUS
  0
ENDTAB
  0
TABLE
  2
STYLE
  5
3
330
0
100
AcDbSymbolTable
 70
     1
  0
STYLE
  5
11
330
3
100
AcDbSymbolTableRecord
100
AcDbTextStyleTableRecord
  2
STANDARD
 70
     0
 40
0.0
 41
1.0
 50
0.0
 71
     0
 42
0.2
  3
txt
  4

  0
ENDTAB
  0
TABLE
  2
VIEW
  5
6
330
0
100
AcDbSymbolTable
 70
     0
  0
ENDTAB
  0
TABLE
  2
UCS
  5
7
330
0
100
AcDbSymbolTable
 70
     0
  0
ENDTAB
  0
TABLE
  2
APPID
  5
9
330
0
100
AcDbSymbolTable
 70
     1
  0
APPID
  5
12
330
9
100
AcDbSymbolTableRecord
100
AcDbRegAppTableRecord
  2
ACAD
 70
     0
  0
ENDTAB
  0
TABLE
  2
DIMSTYLE
  5
A
330
0
100
AcDbSymbolTable
 70
     1
  0
DIMSTYLE
105
27
330
A
100
AcDbSymbolTableRecord
100
AcDbDimStyleTableRecord
  2
STANDARD
 70
     0
  3

  4

  5

  6

  7

 40
1.0
 41
0.18
 42
0.0625
 43
0.38
 44
0.18
 45
0.0
 46
0.0
 47
0.0
 48
0.0
140
0.18
141
0.09
142
0.0
143
25.4
144
1.0
145
0.0
146
1.0
147
0.09
 71
     0
 72
     0
 73
     1
 74
     1
 75
     0
 76
     0
 77
     0
 78
     0
170
     0
171
     2
172
     0
173
     0
174
     0
175
     0
176
     0
177
     0
178
     0
270
     2
271
     4
272
     4
273
     2
274
     2
340
11
275
     0
280
     0
281
     0
282
     0
283
     1
284
     0
285
     0
286
     0
287
     3
288
     0
  0
ENDTAB
  0
TABLE
  2
BLOCK_RECORD
  5
1
330
0
100
AcDbSymbolTable
 70
     1
  0
BLOCK_RECORD
  5
1F
330
1
100
AcDbSymbolTableRecord
100
AcDbBlockTableRecord
  2
*MODEL_SPACE
  0
BLOCK_RECORD
  5
1B
330
1
100
AcDbSymbolTableRecord
100
AcDbBlockTableRecord
  2
*PAPER_SPACE
  0
ENDTAB
  0
ENDSEC
  0
SECTION
  2
BLOCKS
  0
BLOCK
  5
20
330
1F
100
AcDbEntity
  8
0
100
AcDbBlockBegin
  2
*MODEL_SPACE
 70
     0
 10
0.0
 20
0.0
 30
0.0
  3
*MODEL_SPACE
  1

  0
ENDBLK
  5
21
330
1F
100
AcDbEntity
  8
0
100
AcDbBlockEnd
  0
BLOCK
  5
1C
330
1B
100
AcDbEntity
 67
     1
  8
0
100
AcDbBlockBegin
  2
*PAPER_SPACE
 70
     0
 10
0.0
 20
0.0
 30
0.0
  3
*PAPER_SPACE
  1

  0
ENDBLK
  5
1D
330
1B
100
AcDbEntity
 67
     1
  8
0
100
AcDbBlockEnd
  0
ENDSEC
  0
SECTION
  2
ENTITIES
  0
LINE
  5
41
330
1F
100
AcDbEntity
  8
0
100
AcDbLine
 10
-35.88070653822015
 20
-20.30119276194478
 30
0.0
 11
-35.56244941310735
 21
-20.52932908963972
 31
0.0
  0
LINE
  5
42
330
1F
100
AcDbEntity
  8
0
100
AcDbLine
 10
-35.56244941310735
 20
-20.52932908963972
 30
0.0
 11
-35.31408266304759
 21
-20.83206286569349
 31
0.0
  0
LINE
  5
43
330
1F
100
AcDbEntity
  8
0
100
AcDbLine
 10
-35.08880704463187
 20
-21.57512179923629
 30
0.0
 11
-35.12725033738538
 21
-21.96480871836693
 31
0.0
  0
LINE
  5
44
330
1F
100
AcDbEntity
  8
0
100
AcDbLine
 10
-35.12725033738538
 20
-21.96480871836693
 30
0.0
 11
-35.2652421030019
 21
-22.33126752140107
 31
0.0
  0
LINE
  5
45
330
1F
100
AcDbEntity
  8
0
100
AcDbLine
 10
-36.1528126246172
 20
-23.059441988009
 30
0.0
 11
-36.53917114029348
 21
-23.12316701498937
 31
0.0
  0
LINE
  5
46
330
1F
100
AcDbEntity
  8
0
100
AcDbLine
 10
-51.18027034922339
 20
33.376037640718
 30
0.0
 11
-51.18027034922353
 21
-45.62396235928208
 31
0.0
  0
LINE
  5
47
330
1F
100
AcDbEntity
  8
0
100
AcDbLine
 10
-1.588011700339109
 20
13.37603764071778
 30
0.0
 11
-36.18027034922343
 21
13.37603764071783
 31
0.0
  0
LINE
  5
48
330
1F
100
AcDbEntity
  8
0
100
AcDbLine
 10
-5.588011700339175
 20
-20.12396235928182
 30
0.0
 11
-5.199783132685374
 21
-20.17507361984851
 31
0.0
  0
LINE
  5
49
330
1F
100
AcDbEntity
  8
0
100
AcDbLine
 10
-5.199783132685374
 20
-20.17507361984851
 30
0.0
 11
-4.83801170033917
 21
-20.32492425360544
 31
0.0
  0
LINE
  5
4A
330
1F
100
AcDbEntity
  8
0
100
AcDbLine
 10
-4.139122960905556
 20
-21.23573379162831
 30
0.0
 11
-4.088011700339161
 21
-21.6239623592822
 31
0.0
  0
LINE
  5
4B
330
1F
100
AcDbEntity
  8
0
100
AcDbLine
 10
-4.088011700339161
 20
-21.6239623592822
 30
0.0
 11
-4.139122960905556
 21
-22.01219092693573
 31
0.0
  0
LINE
  5
4C
330
1F
100
AcDbEntity
  8
0
100
AcDbLine
 10
-4.83801170033917
 20
-22.9230004649586
 30
0.0
 11
-5.199783132685379
 21
-23.07285109871553
 31
0.0
  0
LINE
  5
4D
330
1F
100
AcDbEntity
  8
0
100
AcDbLine
 10
-13.47624026799296
 20
-23.07285109871552
 30
0.0
 11
-13.83801170033919
 21
-22.92300046495859
 31
0.0
  0
LINE
  5
4E
330
1F
100
AcDbEntity
  8
0
100
AcDbLine
 10
-14.5369004397728
 20
-22.01219092693572
 30
0.0
 11
-14.5880117003392
 21
-21.62396235928219
 31
0.0
  0
LINE
  5
4F
330
1F
100
AcDbEntity
  8
0
100
AcDbLine
 10
-14.5880117003392
 20
-21.62396235928219
 30
0.0
 11
-14.5369004397728
 21
-21.2357337916283
 31
0.0
  0
LINE
  5
50
330
1F
100
AcDbEntity
  8
0
100
AcDbLine
 10
-14.5369004397728
 20
-21.2357337916283
 30
0.0
 11
-14.38704980601585
 21
-20.873962359282
 31
0.0
  0
LINE
  5
51
330
1F
100
AcDbEntity
  8
0
100
AcDbLine
 10
-45.14867187211896
 20
8.315377468938232
 30
0.0
 11
-45.3870498060158
 21
8.626037640718204
 31
0.0
  0
LINE
  5
52
330
1F
100
AcDbEntity
  8
0
100
AcDbLine
 10
-45.3870498060158
 20
8.626037640718204
 30
0.0
 11
-45.53690043977274
 21
8.987809073064142
 31
0.0
  0
LINE
  5
53
330
1F
100
AcDbEntity
  8
0
100
AcDbLine
 10
-45.53690043977274
 20
9.764266208371923
 30
0.0
 11
-45.3870498060158
 21
10.12603764071786
 31
0.0
  0
LINE
  5
54
330
1F
100
AcDbEntity
  8
0
100
AcDbLine
 10
-44.83801170033913
 20
10.6750757463948
 30
0.0
 11
-44.47624026799291
 21
10.82492638015172
 31
0.0
  0
LINE
  5
55
330
1F
100
AcDbEntity
  8
0
100
AcDbLine
 10
-13.4762402679929
 20
10.82492638015167
 30
0.0
 11
-13.08801170033912
 21
10.876037640718
 31
0.0
  0
LINE
  5
56
330
1F
100
AcDbEntity
  8
0
100
AcDbLine
 10
-4.115703524712018
 20
9.662932457648552
 30
0.0
 11
-4.091617366681527
 21
9.272095357707247
 31
0.0
  0
LINE
  5
57
330
1F
100
AcDbEntity
  8
0
100
AcDbLine
 10
-4.169508009581251
 20
8.888341752580354
 30
0.0
 11
-4.344067334817957
 21
8.537823816274514
 31
0.0
  0
LINE
  5
58
330
1F
100
AcDbEntity
  8
0
100
AcDbLine
 10
-4.603399412849651
 20
8.244428766890717
 30
0.0
 11
-4.929831191125023
 21
8.028150992186209
 31
0.0
  0
LINE
  5
59
330
1F
100
AcDbEntity
  8
0
100
AcDbLine
 10
-4.929831191125023
 20
8.028150992186209
 30
0.0
 11
-5.301116883408611
 21
7.90372946509074
 31
0.0
  0
LINE
  5
5A
330
1F
100
AcDbEntity
  8
0
100
AcDbLine
 10
-5.301116883408611
 20
7.90372946509074
 30
0.0
 11
-13.08801170033913
 21
7.876037640717956
 31
0.0
  0
LINE
  5
5B
330
1F
100
AcDbEntity
  8
0
100
AcDbLine
 10
-14.3870498060158
 20
8.626037640718158
 30
0.0
 11
-14.53690043977275
 21
8.987809073064096
 31
0.0
  0
LINE
  5
5C
330
1F
100
AcDbEntity
  8
0
100
AcDbLine
 10
-45.14867187211901
 20
-22.68462253106194
 30
0.0
 11
-45.38704980601585
 21
-22.37396235928196
 31
0.0
  0
LINE
  5
5D
330
1F
100
AcDbEntity
  8
0
100
AcDbLine
 10
-35.84826542810962
 20
8.07113325620472
 30
0.0
 11
-36.21120577784146
 21
7.924136371082028
 31
0.0
  0
LINE
  5
5E
330
1F
100
AcDbEntity
  8
0
100
AcDbLine
 10
-45.38704980601585
 20
-22.37396235928196
 30
0.0
 11
-45.53690043977279
 21
-22.01219092693566
 31
0.0
  0
LINE
  5
5F
330
1F
100
AcDbEntity
  8
0
100
AcDbLine
 10
-45.53690043977279
 20
-22.01219092693566
 30
0.0
 11
-45.58801170033919
 21
-21.62396235928213
 31
0.0
  0
LINE
  5
60
330
1F
100
AcDbEntity
  8
0
100
AcDbLine
 10
-45.58801170033919
 20
-21.62396235928213
 30
0.0
 11
-45.53690043977279
 21
-21.23573379162824
 31
0.0
  0
LINE
  5
61
330
1F
100
AcDbEntity
  8
0
100
AcDbLine
 10
-45.53690043977279
 20
-21.23573379162824
 30
0.0
 11
-45.38704980601585
 21
-20.87396235928194
 31
0.0
  0
LINE
  5
62
330
1F
100
AcDbEntity
  8
0
100
AcDbLine
 10
-45.38704980601585
 20
-20.87396235928194
 30
0.0
 11
-45.14867187211901
 21
-20.56330218750198
 31
0.0
  0
LINE
  5
63
330
1F
100
AcDbEntity
  8
0
100
AcDbLine
 10
-7.588011700339138
 20
-6.123962359282114
 30
0.0
 11
-8.048013045436718
 21
-9.618019468166052
 31
0.0
  0
LINE
  5
64
330
1F
100
AcDbEntity
  8
0
100
AcDbLine
 10
-8.048013045436718
 20
-9.618019468166052
 30
0.0
 11
-9.396668749249221
 21
-12.87396235928202
 31
0.0
  0
LINE
  5
65
330
1F
100
AcDbEntity
  8
0
100
AcDbLine
 10
-11.54207015432076
 20
-15.66990390530032
 30
0.0
 11
-14.33801170033915
 21
-17.81530531037189
 31
0.0
  0
LINE
  5
66
330
1F
100
AcDbEntity
  8
0
100
AcDbLine
 10
-14.33801170033915
 20
-17.81530531037189
 30
0.0
 11
-17.59395459145511
 21
-19.16396101418425
 31
0.0
  0
LINE
  5
67
330
1F
100
AcDbEntity
  8
0
100
AcDbLine
 10
-9.396668749249221
 20
-12.87396235928202
 30
0.0
 11
-11.54207015432076
 21
-15.66990390530032
 31
0.0
  0
LINE
  5
68
330
1F
100
AcDbEntity
  8
0
100
AcDbLine
 10
-14.33801170033912
 20
5.567380591808049
 30
0.0
 11
-11.54207015432074
 21
3.421979186736465
 31
0.0
  0
LINE
  5
69
330
1F
100
AcDbEntity
  8
0
100
AcDbLine
 10
-11.54207015432074
 20
3.421979186736465
 30
0.0
 11
-9.396668749249203
 21
0.6260376407178005
 31
0.0
  0
LINE
  5
6A
330
1F
100
AcDbEntity
  8
0
100
AcDbLine
 10
-9.396668749249203
 20
0.6260376407178005
 30
0.0
 11
-8.048013045436713
 21
-2.629905250397814
 31
0.0
  0
LINE
  5
6B
330
1F
100
AcDbEntity
  8
0
100
AcDbLine
 10
-8.048013045436713
 20
-2.629905250397814
 30
0.0
 11
-7.588011700339138
 21
-6.123962359282114
 31
0.0
  0
LINE
  5
6C
330
1F
100
AcDbEntity
  8
0
100
AcDbLine
 10
-17.59395459145511
 20
-19.16396101418425
 30
0.0
 11
-21.08801170033914
 21
-19.62396235928191
 31
0.0
  0
LINE
  5
6D
330
1F
100
AcDbEntity
  8
0
100
AcDbLine
 10
-21.0880117003391
 20
7.376037640718093
 30
0.0
 11
-17.59395459145508
 21
6.916036295620415
 31
0.0
  0
LINE
  5
6E
330
1F
100
AcDbEntity
  8
0
100
AcDbLine
 10
-17.59395459145508
 20
6.916036295620415
 30
0.0
 11
-14.33801170033912
 21
5.567380591808049
 31
0.0
  0
LINE
  5
6F
330
1F
100
AcDbEntity
  8
0
100
AcDbLine
 10
-36.1802703492234
 20
33.37603764071797
 30
0.0
 11
-51.18027034922339
 21
33.376037640718
 31
0.0
  0
LINE
  5
70
330
1F
100
AcDbEntity
  8
0
100
AcDbLine
 10
-36.18027034922343
 20
13.37603764071783
 30
0.0
 11
-36.1802703492234
 21
33.37603764071797
 31
0.0
  0
LINE
  5
71
330
1F
100
AcDbEntity
  8
0
100
AcDbLine
 10
-51.18027034922353
 20
-45.62396235928208
 30
0.0
 11
-36.18027034922353
 21
-45.6239623592821
 31
0.0
  0
LINE
  5
72
330
1F
100
AcDbEntity
  8
0
100
AcDbLine
 10
-36.1802703492235
 20
-25.62396235928196
 30
0.0
 11
-36.18027034922353
 21
-45.6239623592821
 31
0.0
  0
LINE
  5
73
330
1F
100
AcDbEntity
  8
0
100
AcDbLine
 10
-13.08801170033917
 20
-20.1239623592818
 30
0.0
 11
-12.89389741651228
 21
-20.14951798956515
 31
0.0
  0
LINE
  5
74
330
1F
100
AcDbEntity
  8
0
100
AcDbLine
 10
-44.47624026799296
 20
-23.07285109871547
 30
0.0
 11
-44.83801170033919
 21
-22.92300046495854
 31
0.0
  0
LINE
  5
75
330
1F
100
AcDbEntity
  8
0
100
AcDbLine
 10
-44.83801170033919
 20
-22.92300046495854
 30
0.0
 11
-45.14867187211901
 21
-22.68462253106194
 31
0.0
  0
LINE
  5
76
330
1F
100
AcDbEntity
  8
0
100
AcDbLine
 10
-44.08801170033912
 20
7.876037640718013
 30
0.0
 11
-44.47624026799291
 21
7.92714890128434
 31
0.0
  0
LINE
  5
77
330
1F
100
AcDbEntity
  8
0
100
AcDbLine
 10
-4.344067334817957
 20
8.537823816274514
 30
0.0
 11
-4.603399412849651
 21
8.244428766890717
 31
0.0
  0
LINE
  5
78
330
1F
100
AcDbEntity
  8
0
100
AcDbLine
 10
-36.21120577784146
 20
7.924136371082028
 30
0.0
 11
-36.59982482849028
 21
7.876084158105073
 31
0.0
  0
LINE
  5
79
330
1F
100
AcDbEntity
  8
0
100
AcDbLine
 10
-14.14867187211896
 20
10.43669781249779
 30
0.0
 11
-13.83801170033913
 21
10.67507574639474
 31
0.0
  0
LINE
  5
7A
330
1F
100
AcDbEntity
  8
0
100
AcDbLine
 10
-13.83801170033913
 20
10.67507574639474
 30
0.0
 11
-13.4762402679929
 21
10.82492638015167
 31
0.0
  0
LINE
  5
7B
330
1F
100
AcDbEntity
  8
0
100
AcDbLine
 10
-5.484069417328338
 20
10.87243197437564
 30
0.0
 11
-5.100315812201468
 21
10.7945413314758
 31
0.0
  0
LINE
  5
7C
330
1F
100
AcDbEntity
  8
0
100
AcDbLine
 10
-5.100315812201468
 20
10.7945413314758
 30
0.0
 11
-4.749797875895627
 21
10.619982006239
 31
0.0
  0
LINE
  5
7D
330
1F
100
AcDbEntity
  8
0
100
AcDbLine
 10
-13.83801170033914
 20
8.076999535041214
 30
0.0
 11
-14.14867187211896
 21
8.315377468938186
 31
0.0
  0
LINE
  5
7E
330
1F
100
AcDbEntity
  8
0
100
AcDbLine
 10
-14.14867187211896
 20
8.315377468938186
 30
0.0
 11
-14.3870498060158
 21
8.626037640718158
 31
0.0
  0
LINE
  5
7F
330
1F
100
AcDbEntity
  8
0
100
AcDbLine
 10
-44.47624026799291
 20
10.82492638015172
 30
0.0
 11
-44.08801170033912
 21
10.87603764071805
 31
0.0
  0
LINE
  5
80
330
1F
100
AcDbEntity
  8
0
100
AcDbLine
 10
-14.38704980601585
 20
-20.873962359282
 30
0.0
 11
-14.14867187211901
 21
-20.56330218750202
 31
0.0
  0
LINE
  5
81
330
1F
100
AcDbEntity
  8
0
100
AcDbLine
 10
-14.58801170033915
 20
9.376037640717987
 30
0.0
 11
-14.53690043977275
 21
9.764266208371879
 31
0.0
  0
LINE
  5
82
330
1F
100
AcDbEntity
  8
0
100
AcDbLine
 10
-14.53690043977275
 20
9.764266208371879
 30
0.0
 11
-14.3870498060158
 21
10.12603764071782
 31
0.0
  0
LINE
  5
83
330
1F
100
AcDbEntity
  8
0
100
AcDbLine
 10
-14.3870498060158
 20
10.12603764071782
 30
0.0
 11
-14.14867187211896
 21
10.43669781249779
 31
0.0
  0
LINE
  5
84
330
1F
100
AcDbEntity
  8
0
100
AcDbLine
 10
-4.749797875895627
 20
10.619982006239
 30
0.0
 11
-4.456402826511765
 21
10.36064992820758
 31
0.0
  0
LINE
  5
85
330
1F
100
AcDbEntity
  8
0
100
AcDbLine
 10
-4.456402826511765
 20
10.36064992820758
 30
0.0
 11
-4.240125051807171
 21
10.03421814993218
 31
0.0
  0
LINE
  5
86
330
1F
100
AcDbEntity
  8
0
100
AcDbLine
 10
-4.240125051807171
 20
10.03421814993218
 30
0.0
 11
-4.115703524712018
 21
9.662932457648552
 31
0.0
  0
LINE
  5
87
330
1F
100
AcDbEntity
  8
0
100
AcDbLine
 10
-14.14867187211901
 20
-20.56330218750202
 30
0.0
 11
-13.83801170033919
 21
-20.32492425360542
 31
0.0
  0
LINE
  5
88
330
1F
100
AcDbEntity
  8
0
100
AcDbLine
 10
-13.83801170033919
 20
-20.32492425360542
 30
0.0
 11
-13.47624026799296
 21
-20.17507361984849
 31
0.0
  0
LINE
  5
89
330
1F
100
AcDbEntity
  8
0
100
AcDbLine
 10
-13.47624026799296
 20
-20.17507361984849
 30
0.0
 11
-13.08801170033917
 21
-20.1239623592818
 31
0.0
  0
LINE
  5
8A
330
1F
100
AcDbEntity
  8
0
100
AcDbLine
 10
-44.83801170033914
 20
8.076999535041269
 30
0.0
 11
-45.14867187211896
 21
8.315377468938232
 31
0.0
  0
LINE
  5
8B
330
1F
100
AcDbEntity
  8
0
100
AcDbLine
 10
-35.31408266304759
 20
-20.83206286569349
 30
0.0
 11
-35.15253207161198
 21
-21.18876328355989
 31
0.0
  0
LINE
  5
8C
330
1F
100
AcDbEntity
  8
0
100
AcDbLine
 10
-35.15253207161198
 20
-21.18876328355989
 30
0.0
 11
-35.08880704463187
 21
-21.57512179923629
 31
0.0
  0
LINE
  5
8D
330
1F
100
AcDbEntity
  8
0
100
AcDbLine
 10
-4.091617366681527
 20
9.272095357707247
 30
0.0
 11
-4.169508009581251
 21
8.888341752580354
 31
0.0
  0
LINE
  5
8E
330
1F
100
AcDbEntity
  8
0
100
AcDbLine
 10
-13.08801170033912
 20
10.876037640718
 30
0.0
 11
-5.484069417328338
 21
10.87243197437564
 31
0.0
  0
LINE
  5
8F
330
1F
100
AcDbEntity
  8
0
100
AcDbLine
 10
-1.588011700339171
 20
-25.62396235928201
 30
0.0
 11
-1.588011700339109
 21
13.37603764071778
 31
0.0
  0
LINE
  5
90
330
1F
100
AcDbEntity
  8
0
100
AcDbLine
 10
-35.29492044397679
 20
8.615830430334443
 30
0.0
 11
-35.53573756434171
 21
8.30705721867524
 31
0.0
  0
LINE
  5
91
330
1F
100
AcDbEntity
  8
0
100
AcDbLine
 10
-35.53573756434171
 20
8.30705721867524
 30
0.0
 11
-35.84826542810962
 21
8.07113325620472
 31
0.0
  0
LINE
  5
92
330
1F
100
AcDbEntity
  8
0
100
AcDbLine
 10
-14.53690043977275
 20
8.987809073064096
 30
0.0
 11
-14.58801170033915
 21
9.376037640717987
 31
0.0
  0
LINE
  5
93
330
1F
100
AcDbEntity
  8
0
100
AcDbLine
 10
-45.53690043977274
 20
8.987809073064142
 30
0.0
 11
-45.58801170033914
 21
9.376037640718033
 31
0.0
  0
LINE
  5
94
330
1F
100
AcDbEntity
  8
0
100
AcDbLine
 10
-45.58801170033914
 20
9.376037640718033
 30
0.0
 11
-45.53690043977274
 21
9.764266208371923
 31
0.0
  0
LINE
  5
95
330
1F
100
AcDbEntity
  8
0
100
AcDbLine
 10
-5.199783132685379
 20
-23.07285109871553
 30
0.0
 11
-5.58801170033918
 21
-23.12396235928186
 31
0.0
  0
LINE
  5
96
330
1F
100
AcDbEntity
  8
0
100
AcDbLine
 10
-45.3870498060158
 20
10.12603764071786
 30
0.0
 11
-45.14867187211895
 21
10.43669781249783
 31
0.0
  0
LINE
  5
97
330
1F
100
AcDbEntity
  8
0
100
AcDbLine
 10
-45.14867187211895
 20
10.43669781249783
 30
0.0
 11
-44.83801170033913
 21
10.6750757463948
 31
0.0
  0
LINE
  5
98
330
1F
100
AcDbEntity
  8
0
100
AcDbLine
 10
-36.1802703492235
 20
-25.62396235928196
 30
0.0
 11
-1.588011700339171
 21
-25.62396235928201
 31
0.0
  0
LINE
  5
99
330
1F
100
AcDbEntity
  8
0
100
AcDbLine
 10
-44.08801170033918
 20
-23.12396235928179
 30
0.0
 11
-44.47624026799296
 21
-23.07285109871547
 31
0.0
  0
LINE
  5
9A
330
1F
100
AcDbEntity
  8
0
100
AcDbLine
 10
-44.47624026799291
 20
7.92714890128434
 30
0.0
 11
-44.83801170033914
 21
8.076999535041269
 31
0.0
  0
LINE
  5
9B
330
1F
100
AcDbEntity
  8
0
100
AcDbLine
 10
-36.57619857218796
 20
10.87599112333097
 30
0.0
 11
-36.18838456670053
 21
10.82182398525869
 31
0.0
  0
LINE
  5
9C
330
1F
100
AcDbEntity
  8
0
100
AcDbLine
 10
-36.18838456670053
 20
10.82182398525869
 30
0.0
 11
-35.8278044899555
 21
10.66912889708036
 31
0.0
  0
LINE
  5
9D
330
1F
100
AcDbEntity
  8
0
100
AcDbLine
 10
-35.8278044899555
 20
10.66912889708036
 30
0.0
 11
-35.5190312782963
 21
10.42831177671543
 31
0.0
  0
LINE
  5
9E
330
1F
100
AcDbEntity
  8
0
100
AcDbLine
 10
-35.5190312782963
 20
10.42831177671543
 30
0.0
 11
-35.28310731582563
 21
10.11578391294739
 31
0.0
  0
LINE
  5
9F
330
1F
100
AcDbEntity
  8
0
100
AcDbLine
 10
-45.14867187211901
 20
-20.56330218750198
 30
0.0
 11
-44.83801170033918
 21
-20.32492425360537
 31
0.0
  0
LINE
  5
A0
330
1F
100
AcDbEntity
  8
0
100
AcDbLine
 10
-44.83801170033918
 20
-20.32492425360537
 30
0.0
 11
-44.47624026799296
 21
-20.17507361984844
 31
0.0
  0
LINE
  5
A1
330
1F
100
AcDbEntity
  8
0
100
AcDbLine
 10
-35.28310731582563
 20
10.11578391294739
 30
0.0
 11
-35.13611043070312
 21
9.752843563215544
 31
0.0
  0
LINE
  5
A2
330
1F
100
AcDbEntity
  8
0
100
AcDbLine
 10
-4.139122960905556
 20
-22.01219092693573
 30
0.0
 11
-4.288973594662507
 21
-22.37396235928203
 31
0.0
  0
LINE
  5
A3
330
1F
100
AcDbEntity
  8
0
100
AcDbLine
 10
-4.288973594662507
 20
-22.37396235928203
 30
0.0
 11
-4.527351528559334
 21
-22.684622531062
 31
0.0
  0
LINE
  5
A4
330
1F
100
AcDbEntity
  8
0
100
AcDbLine
 10
-12.89389741651228
 20
-20.14951798956515
 30
0.0
 11
-5.588011700339175
 21
-20.12396235928182
 31
0.0
  0
LINE
  5
A5
330
1F
100
AcDbEntity
  8
0
100
AcDbLine
 10
-4.527351528559334
 20
-22.684622531062
 30
0.0
 11
-4.83801170033917
 21
-22.9230004649586
 31
0.0
  0
LINE
  5
A6
330
1F
100
AcDbEntity
  8
0
100
AcDbLine
 10
-13.08801170033918
 20
-23.12396235928184
 30
0.0
 11
-13.47624026799296
 21
-23.07285109871552
 31
0.0
  0
LINE
  5
A7
330
1F
100
AcDbEntity
  8
0
100
AcDbLine
 10
-13.83801170033919
 20
-22.92300046495859
 30
0.0
 11
-14.14867187211901
 21
-22.68462253106199
 31
0.0
  0
LINE
  5
A8
330
1F
100
AcDbEntity
  8
0
100
AcDbLine
 10
-14.14867187211901
 20
-22.68462253106199
 30
0.0
 11
-14.38704980601585
 21
-22.37396235928202
 31
0.0
  0
LINE
  5
A9
330
1F
100
AcDbEntity
  8
0
100
AcDbLine
 10
-14.38704980601585
 20
-22.37396235928202
 30
0.0
 11
-14.5369004397728
 21
-22.01219092693572
 31
0.0
  0
LINE
  5
AA
330
1F
100
AcDbEntity
  8
0
100
AcDbLine
 10
-35.13611043070312
 20
9.752843563215544
 30
0.0
 11
-35.08805821772599
 21
9.364224512566693
 31
0.0
  0
LINE
  5
AB
330
1F
100
AcDbEntity
  8
0
100
AcDbLine
 10
-35.08805821772599
 20
9.364224512566693
 30
0.0
 11
-35.14222535579863
 21
8.976410507079432
 31
0.0
  0
LINE
  5
AC
330
1F
100
AcDbEntity
  8
0
100
AcDbLine
 10
-35.14222535579863
 20
8.976410507079432
 30
0.0
 11
-35.29492044397679
 21
8.615830430334443
 31
0.0
  0
LINE
  5
AD
330
1F
100
AcDbEntity
  8
0
100
AcDbLine
 10
-4.83801170033917
 20
-20.32492425360544
 30
0.0
 11
-4.527351528559334
 21
-20.56330218750204
 31
0.0
  0
LINE
  5
AE
330
1F
100
AcDbEntity
  8
0
100
AcDbLine
 10
-4.527351528559334
 20
-20.56330218750204
 30
0.0
 11
-4.288973594662507
 21
-20.87396235928201
 31
0.0
  0
LINE
  5
AF
330
1F
100
AcDbEntity
  8
0
100
AcDbLine
 10
-4.288973594662507
 20
-20.87396235928201
 30
0.0
 11
-4.139122960905556
 21
-21.23573379162831
 31
0.0
  0
LINE
  5
B0
330
1F
100
AcDbEntity
  8
0
100
AcDbLine
 10
-13.08801170033913
 20
7.876037640717956
 30
0.0
 11
-13.47624026799291
 21
7.927148901284284
 31
0.0
  0
LINE
  5
B1
330
1F
100
AcDbEntity
  8
0
100
AcDbLine
 10
-13.47624026799291
 20
7.927148901284284
 30
0.0
 11
-13.83801170033914
 21
8.076999535041214
 31
0.0
  0
LINE
  5
B2
330
1F
100
AcDbEntity
  8
0
100
AcDbLine
 10
-44.47624026799296
 20
-20.17507361984844
 30
0.0
 11
-44.08801170033917
 21
-20.12396235928176
 31
0.0
  0
LINE
  5
B3
330
1F
100
AcDbEntity
  8
0
100
AcDbLine
 10
-36.63685226038486
 20
-20.12475770357457
 30
0.0
 11
-44.08801170033917
 21
-20.12396235928176
 31
0.0
  0
LINE
  5
B4
330
1F
100
AcDbEntity
  8
0
100
AcDbLine
 10
-36.63685226038486
 20
-20.12475770357457
 30
0.0
 11
-36.24716534125431
 21
-20.16320099632835
 31
0.0
  0
LINE
  5
B5
330
1F
100
AcDbEntity
  8
0
100
AcDbLine
 10
-36.24716534125431
 20
-20.16320099632835
 30
0.0
 11
-35.88070653822015
 21
-20.30119276194478
 31
0.0
  0
LINE
  5
B6
330
1F
100
AcDbEntity
  8
0
100
AcDbLine
 10
-35.2652421030019
 20
-22.33126752140107
 30
0.0
 11
-35.49337843069684
 21
-22.64952464651368
 31
0.0
  0
LINE
  5
B7
330
1F
100
AcDbEntity
  8
0
100
AcDbLine
 10
-35.49337843069684
 20
-22.64952464651368
 30
0.0
 11
-35.79611220675089
 21
-22.89789139657366
 31
0.0
  0
LINE
  5
B8
330
1F
100
AcDbEntity
  8
0
100
AcDbLine
 10
-35.79611220675089
 20
-22.89789139657366
 30
0.0
 11
-36.1528126246172
 21
-23.059441988009
 31
0.0
  0
LINE
  5
B9
330
1F
100
AcDbEntity
  8
0
100
AcDbLine
 10
-31.98739932270089
 20
-18.57824735146302
 30
0.0
 11
-35.03328986631433
 21
-16.80551299066328
 31
0.0
  0
LINE
  5
BA
330
1F
100
AcDbEntity
  8
0
100
AcDbLine
 10
-35.03328986631433
 20
-16.80551299066328
 30
0.0
 11
-37.51657679195753
 21
-14.3048486064317
 31
0.0
  0
LINE
  5
BB
330
1F
100
AcDbEntity
  8
0
100
AcDbLine
 10
-37.51657679195753
 20
-14.3048486064317
 30
0.0
 11
-39.26802819947358
 21
-11.24667034401066
 31
0.0
  0
LINE
  5
BC
330
1F
100
AcDbEntity
  8
0
100
AcDbLine
 10
-39.26802819947358
 20
-11.24667034401066
 30
0.0
 11
-40.16828556985057
 21
-7.839387998105621
 31
0.0
  0
LINE
  5
BD
330
1F
100
AcDbEntity
  8
0
100
AcDbLine
 10
-40.16828556985057
 20
-7.839387998105621
 30
0.0
 11
-40.15599785104294
 21
-4.315202229789352
 31
0.0
  0
LINE
  5
BE
330
1F
100
AcDbEntity
  8
0
100
AcDbLine
 10
-40.15599785104294
 20
-4.315202229789352
 30
0.0
 11
-39.23200243078105
 21
-0.9142804751808851
 31
0.0
  0
LINE
  5
BF
330
1F
100
AcDbEntity
  8
0
100
AcDbLine
 10
-39.23200243078105
 20
-0.9142804751808851
 30
0.0
 11
-37.45926806998109
 21
2.131610068432298
 31
0.0
  0
LINE
  5
C0
330
1F
100
AcDbEntity
  8
0
100
AcDbLine
 10
-37.45926806998109
 20
2.131610068432298
 30
0.0
 11
-34.95860368574953
 21
4.614896994075679
 31
0.0
  0
LINE
  5
C1
330
1F
100
AcDbEntity
  8
0
100
AcDbLine
 10
-34.95860368574953
 20
4.614896994075679
 30
0.0
 11
-31.90042542332847
 21
6.366348401591844
 31
0.0
  0
LINE
  5
C2
330
1F
100
AcDbEntity
  8
0
100
AcDbLine
 10
-31.90042542332847
 20
6.366348401591844
 30
0.0
 11
-28.49314307742338
 21
7.266605771968735
 31
0.0
  0
LINE
  5
C3
330
1F
100
AcDbEntity
  8
0
100
AcDbLine
 10
-28.58647756809234
 20
-19.50224277172504
 30
0.0
 11
-31.98739932270089
 21
-18.57824735146302
 31
0.0
  0
LINE
  5
C4
330
1F
100
AcDbEntity
  8
0
100
AcDbLine
 10
-21.0880117003391
 20
7.376037640718093
 30
0.0
 11
-28.1880117003391
 21
7.376037640718104
 31
0.0
  0
LINE
  5
C5
330
1F
100
AcDbEntity
  8
0
100
AcDbLine
 10
-28.1880117003391
 20
7.376037640718104
 30
0.0
 11
-28.49314307742338
 21
7.266605771968735
 31
0.0
  0
LINE
  5
C6
330
1F
100
AcDbEntity
  8
0
100
AcDbLine
 10
-21.08801170033914
 20
-19.62396235928191
 30
0.0
 11
-28.18801170033915
 21
-19.6239623592819
 31
0.0
  0
LINE
  5
C7
330
1F
100
AcDbEntity
  8
0
100
AcDbLine
 10
-28.18801170033915
 20
-19.6239623592819
 30
0.0
 11
-28.58647756809234
 21
-19.50224277172504
 31
0.0
  0
LINE
  5
C8
330
1F
100
AcDbEntity
  8
0
100
AcDbLine
 10
-5.58801170033918
 20
-23.12396235928186
 30
0.0
 11
-13.08801170033918
 21
-23.12396235928184
 31
0.0
  0
LINE
  5
C9
330
1F
100
AcDbEntity
  8
0
100
AcDbLine
 10
-36.59982482849028
 20
7.876084158105073
 30
0.0
 11
-44.08801170033912
 21
7.876037640718013
 31
0.0
  0
LINE
  5
CA
330
1F
100
AcDbEntity
  8
0
100
AcDbLine
 10
-44.08801170033912
 20
10.87603764071805
 30
0.0
 11
-36.57619857218796
 21
10.87599112333097
 31
0.0
  0
LINE
  5
CB
330
1F
100
AcDbEntity
  8
0
100
AcDbLine
 10
-36.53917114029348
 20
-23.12316701498937
 30
0.0
 11
-44.08801170033918
 21
-23.12396235928179
 31
0.0
  0
LINE
  5
CC
330
1F
100
AcDbEntity
  8
0
100
AcDbLine
 10
-43.48730292836856
 20
-38.89896235928182
 30
0.0
 11
-43.64214858325074
 21
-38.52513187919097
 31
0.0
  0
LINE
  5
CD
330
1F
100
AcDbEntity
  8
0
100
AcDbLine
 10
-43.64214858325074
 20
-38.52513187919097
 30
0.0
 11
-43.69496355250268
 21
-38.12396235928199
 31
0.0
  0
LINE
  5
CE
330
1F
100
AcDbEntity
  8
0
100
AcDbLine
 10
-43.69496355250268
 20
-38.12396235928199
 30
0.0
 11
-43.64214858325074
 21
-37.72279283937302
 31
0.0
  0
LINE
  5
CF
330
1F
100
AcDbEntity
  8
0
100
AcDbLine
 10
-43.64214858325074
 20
-37.72279283937302
 30
0.0
 11
-43.48730292836856
 21
-37.34896235928181
 31
0.0
  0
LINE
  5
D0
330
1F
100
AcDbEntity
  8
0
100
AcDbLine
 10
-43.48730292836856
 20
-37.34896235928181
 30
0.0
 11
-43.24097906334183
 21
-37.02794684844275
 31
0.0
  0
LINE
  5
D1
330
1F
100
AcDbEntity
  8
0
100
AcDbLine
 10
-43.24097906334183
 20
-37.02794684844275
 30
0.0
 11
-42.91996355250269
 21
-36.78162298341613
 31
0.0
  0
LINE
  5
D2
330
1F
100
AcDbEntity
  8
0
100
AcDbLine
 10
-42.91996355250269
 20
-36.78162298341613
 30
0.0
 11
-42.54613307241159
 21
-36.62677732853377
 31
0.0
  0
LINE
  5
D3
330
1F
100
AcDbEntity
  8
0
100
AcDbLine
 10
-42.54613307241159
 20
-36.62677732853377
 30
0.0
 11
-42.14496355250268
 21
-36.57396235928199
 31
0.0
  0
LINE
  5
D4
330
1F
100
AcDbEntity
  8
0
100
AcDbLine
 10
-42.14496355250268
 20
-36.57396235928199
 30
0.0
 11
-41.74379403259378
 21
-36.62677732853378
 31
0.0
  0
LINE
  5
D5
330
1F
100
AcDbEntity
  8
0
100
AcDbLine
 10
-41.74379403259378
 20
-36.62677732853378
 30
0.0
 11
-41.36996355250268
 21
-36.78162298341614
 31
0.0
  0
LINE
  5
D6
330
1F
100
AcDbEntity
  8
0
100
AcDbLine
 10
-41.36996355250268
 20
-36.78162298341614
 30
0.0
 11
-41.04894804166354
 21
-37.02794684844275
 31
0.0
  0
LINE
  5
D7
330
1F
100
AcDbEntity
  8
0
100
AcDbLine
 10
-41.04894804166354
 20
-37.02794684844275
 30
0.0
 11
-40.8026241766368
 21
-37.34896235928181
 31
0.0
  0
LINE
  5
D8
330
1F
100
AcDbEntity
  8
0
100
AcDbLine
 10
-40.8026241766368
 20
-37.34896235928181
 30
0.0
 11
-40.64777852175463
 21
-37.72279283937303
 31
0.0
  0
LINE
  5
D9
330
1F
100
AcDbEntity
  8
0
100
AcDbLine
 10
-40.64777852175463
 20
-37.72279283937303
 30
0.0
 11
-40.59496355250268
 21
-38.123962359282
 31
0.0
  0
LINE
  5
DA
330
1F
100
AcDbEntity
  8
0
100
AcDbLine
 10
-40.59496355250268
 20
-38.123962359282
 30
0.0
 11
-40.64777852175463
 21
-38.52513187919097
 31
0.0
  0
LINE
  5
DB
330
1F
100
AcDbEntity
  8
0
100
AcDbLine
 10
-40.64777852175463
 20
-38.52513187919097
 30
0.0
 11
-40.80262417663681
 21
-38.89896235928182
 31
0.0
  0
LINE
  5
DC
330
1F
100
AcDbEntity
  8
0
100
AcDbLine
 10
-40.80262417663681
 20
-38.89896235928182
 30
0.0
 11
-41.04894804166354
 21
-39.21997787012125
 31
0.0
  0
LINE
  5
DD
330
1F
100
AcDbEntity
  8
0
100
AcDbLine
 10
-41.04894804166354
 20
-39.21997787012125
 30
0.0
 11
-41.36996355250269
 21
-39.46630173514785
 31
0.0
  0
LINE
  5
DE
330
1F
100
AcDbEntity
  8
0
100
AcDbLine
 10
-41.36996355250269
 20
-39.46630173514785
 30
0.0
 11
-41.74379403259378
 21
-39.62114739002986
 31
0.0
  0
LINE
  5
DF
330
1F
100
AcDbEntity
  8
0
100
AcDbLine
 10
-41.74379403259378
 20
-39.62114739002986
 30
0.0
 11
-42.14496355250269
 21
-39.67396235928201
 31
0.0
  0
LINE
  5
E0
330
1F
100
AcDbEntity
  8
0
100
AcDbLine
 10
-42.14496355250269
 20
-39.67396235928201
 30
0.0
 11
-42.5461330724116
 21
-39.62114739002985
 31
0.0
  0
LINE
  5
E1
330
1F
100
AcDbEntity
  8
0
100
AcDbLine
 10
-42.5461330724116
 20
-39.62114739002985
 30
0.0
 11
-42.91996355250269
 21
-39.46630173514785
 31
0.0
  0
LINE
  5
E2
330
1F
100
AcDbEntity
  8
0
100
AcDbLine
 10
-42.91996355250269
 20
-39.46630173514785
 30
0.0
 11
-43.24097906334183
 21
-39.21997787012124
 31
0.0
  0
LINE
  5
E3
330
1F
100
AcDbEntity
  8
0
100
AcDbLine
 10
-43.24097906334183
 20
-39.21997787012124
 30
0.0
 11
-43.48730292836856
 21
-38.89896235928182
 31
0.0
  0
LINE
  5
E4
330
1F
100
AcDbEntity
  8
0
100
AcDbLine
 10
-43.57328501597476
 20
26.47803248868998
 30
0.0
 11
-43.36880841060464
 21
26.82719680894253
 31
0.0
  0
LINE
  5
E5
330
1F
100
AcDbEntity
  8
0
100
AcDbLine
 10
-43.36880841060464
 20
26.82719680894253
 30
0.0
 11
-43.08092880065411
 21
27.11154120374544
 31
0.0
  0
LINE
  5
E6
330
1F
100
AcDbEntity
  8
0
100
AcDbLine
 10
-43.08092880065411
 20
27.11154120374544
 30
0.0
 11
-42.72926470579777
 21
27.311688072494
 31
0.0
  0
LINE
  5
E7
330
1F
100
AcDbEntity
  8
0
100
AcDbLine
 10
-42.72926470579777
 20
27.311688072494
 30
0.0
 11
-42.33778145294766
 21
27.41399773684164
 31
0.0
  0
LINE
  5
E8
330
1F
100
AcDbEntity
  8
0
100
AcDbLine
 10
-42.33778145294766
 20
27.41399773684164
 30
0.0
 11
-41.93315797882887
 21
27.41149796223783
 31
0.0
  0
LINE
  5
E9
330
1F
100
AcDbEntity
  8
0
100
AcDbLine
 10
-41.93315797882887
 20
27.41149796223783
 30
0.0
 11
-41.54296870453069
 21
27.30435910419044
 31
0.0
  0
LINE
  5
EA
330
1F
100
AcDbEntity
  8
0
100
AcDbLine
 10
-41.54296870453069
 20
27.30435910419044
 30
0.0
 11
-41.19380438427827
 21
27.09988249882014
 31
0.0
  0
LINE
  5
EB
330
1F
100
AcDbEntity
  8
0
100
AcDbLine
 10
-41.19380438427827
 20
27.09988249882014
 30
0.0
 11
-40.90945998947548
 21
26.8120028888699
 31
0.0
  0
LINE
  5
EC
330
1F
100
AcDbEntity
  8
0
100
AcDbLine
 10
-40.90945998947548
 20
26.8120028888699
 30
0.0
 11
-40.70931312072682
 21
26.46033879401354
 31
0.0
  0
LINE
  5
ED
330
1F
100
AcDbEntity
  8
0
100
AcDbLine
 10
-40.70931312072682
 20
26.46033879401354
 30
0.0
 11
-40.60700345637915
 21
26.06885554116324
 31
0.0
  0
LINE
  5
EE
330
1F
100
AcDbEntity
  8
0
100
AcDbLine
 10
-40.60700345637915
 20
26.06885554116324
 30
0.0
 11
-40.60950323098308
 21
25.66423206704438
 31
0.0
  0
LINE
  5
EF
330
1F
100
AcDbEntity
  8
0
100
AcDbLine
 10
-40.60950323098308
 20
25.66423206704438
 30
0.0
 11
-40.7166420890304
 21
25.27404279274651
 31
0.0
  0
LINE
  5
F0
330
1F
100
AcDbEntity
  8
0
100
AcDbLine
 10
-40.7166420890304
 20
25.27404279274651
 30
0.0
 11
-40.92111869440052
 21
24.92487847249396
 31
0.0
  0
LINE
  5
F1
330
1F
100
AcDbEntity
  8
0
100
AcDbLine
 10
-40.92111869440052
 20
24.92487847249396
 30
0.0
 11
-41.20899830435105
 21
24.64053407769106
 31
0.0
  0
LINE
  5
F2
330
1F
100
AcDbEntity
  8
0
100
AcDbLine
 10
-41.20899830435105
 20
24.64053407769106
 30
0.0
 11
-41.56066239920739
 21
24.4403872089425
 31
0.0
  0
LINE
  5
F3
330
1F
100
AcDbEntity
  8
0
100
AcDbLine
 10
-41.56066239920739
 20
24.4403872089425
 30
0.0
 11
-41.9521456520575
 21
24.33807754459487
 31
0.0
  0
LINE
  5
F4
330
1F
100
AcDbEntity
  8
0
100
AcDbLine
 10
-41.9521456520575
 20
24.33807754459487
 30
0.0
 11
-42.35676912617628
 21
24.34057731919867
 31
0.0
  0
LINE
  5
F5
330
1F
100
AcDbEntity
  8
0
100
AcDbLine
 10
-42.35676912617628
 20
24.34057731919867
 30
0.0
 11
-42.74695840047447
 21
24.44771617724606
 31
0.0
  0
LINE
  5
F6
330
1F
100
AcDbEntity
  8
0
100
AcDbLine
 10
-42.74695840047447
 20
24.44771617724606
 30
0.0
 11
-43.0961227207269
 21
24.652192782616
 31
0.0
  0
LINE
  5
F7
330
1F
100
AcDbEntity
  8
0
100
AcDbLine
 10
-43.0961227207269
 20
24.652192782616
 30
0.0
 11
-43.38046711552968
 21
24.94007239256659
 31
0.0
  0
LINE
  5
F8
330
1F
100
AcDbEntity
  8
0
100
AcDbLine
 10
-43.38046711552968
 20
24.94007239256659
 30
0.0
 11
-43.58061398427834
 21
25.29173648742295
 31
0.0
  0
LINE
  5
F9
330
1F
100
AcDbEntity
  8
0
100
AcDbLine
 10
-43.58061398427834
 20
25.29173648742295
 30
0.0
 11
-43.682923648626
 21
25.68321974027324
 31
0.0
  0
LINE
  5
FA
330
1F
100
AcDbEntity
  8
0
100
AcDbLine
 10
-43.682923648626
 20
25.68321974027324
 30
0.0
 11
-43.68042387402208
 21
26.08784321439175
 31
0.0
  0
LINE
  5
FB
330
1F
100
AcDbEntity
  8
0
100
AcDbLine
 10
-43.68042387402208
 20
26.08784321439175
 30
0.0
 11
-43.57328501597476
 21
26.47803248868998
 31
0.0
  0
ENDSEC
  0
SECTION
  2
OBJECTS
  0
DICTIONARY
  5
C
330
0
100
AcDbDictionary
  3
ACAD_GROUP
350
D
  3
ACAD_LAYOUT
350
1A
  3
ACAD_MATERIAL
350
3B
  3
ACAD_MLEADERSTYLE
350
11E
  3
ACAD_MLINESTYLE
350
17
  3
ACAD_PLOTSETTINGS
350
19
  3
ACAD_VISUALSTYLE
350
2A
  3
ACDBHEADERROUNDTRIPXREC
350
FC
  3
ACDBVARIABLEDICTIONARY
350
11C
  0
DICTIONARY
  5
D
102
{ACAD_REACTORS
330
C
102
}
330
C
100
AcDbDictionary
  0
DICTIONARY
  5
1A
102
{ACAD_REACTORS
330
C
102
}
330
C
100
AcDbDictionary
  0
DICTIONARY
  5
3B
102
{ACAD_REACTORS
330
C
102
}
330
C
100
AcDbDictionary
  3
BYBLOCK
350
3D
  3
BYLAYER
350
3C
  3
GLOBAL
350
3E
  0
DICTIONARY
  5
11E
102
{ACAD_REACTORS
330
C
102
}
330
C
100
AcDbDictionary
  0
DICTIONARY
  5
17
102
{ACAD_REACTORS
330
C
102
}
330
C
100
AcDbDictionary
  3
STANDARD
350
18
  0
DICTIONARY
  5
19
102
{ACAD_REACTORS
330
C
102
}
330
C
100
AcDbDictionary
  0
DICTIONARY
  5
2A
102
{ACAD_REACTORS
330
C
102
}
330
C
100
AcDbDictionary
  3
2DWIREFRAME
350
2F
  3
3D_HIDDEN
350
31
  3
3DWIREFRAME
350
30
  3
BASIC
350
32
  3
BRIGHTEN
350
36
  3
COLORCHANGE
350
3A
  3
CONCEPTUAL
350
34
  3
DIM
350
35
  3
FACEPATTERN
350
39
  3
FLAT
350
2B
  3
FLATWITHEDGES
350
2C
  3
GOURAUD
350
2D
  3
GOURAUDWITHEDGES
350
2E
  3
LINEPATTERN
350
38
  3
REALISTIC
350
33
  3
THICKEN
350
37
  0
DICTIONARY
  5
FC
102
{ACAD_REACTORS
330
C
102
}
330
C
100
AcDbDictionary
  3
CEPSNTYPE
350
105
  3
DIMSTYLEDATA
350
11B
  3
FINGERPRINTGUID
350
106
  3
HYPERLINKBASE
350
FF
  3
INSUNITS
350
104
  3
LAYOUTDICT
350
101
  3
LWETCUNION
350
103
  3
PLOTSETDICT
350
102
  3
PSVPSCALE
350
108
  3
PUCSBASE
350
10B
  3
PUCSORGBACK
350
111
  3
PUCSORGBOTTOM
350
10D
  3
PUCSORGFRONT
350
110
  3
PUCSORGLEFT
350
10E
  3
PUCSORGRIGHT
350
10F
  3
PUCSORGTOP
350
10C
  3
PUCSORTHOREF
350
109
  3
PUCSORTHOVIEW
350
10A
  3
STYLESHEET
350
100
  3
TSTACKALIGN
350
FD
  3
TSTACKSIZE
350
FE
  3
UCSBASE
350
114
  3
UCSORGBACK
350
11A
  3
UCSORGBOTTOM
350
116
  3
UCSORGFRONT
350
119
  3
UCSORGLEFT
350
117
  3
UCSORGRIGHT
350
118
  3
UCSORGTOP
350
115
  3
UCSORTHOREF
350
112
  3
UCSORTHOVIEW
350
113
  3
VERSIONGUID
350
107
  0
DICTIONARY
  5
11C
102
{ACAD_REACTORS
330
C
102
}
330
C
100
AcDbDictionary
  3
DIMASSOC
350
11F
  3
HIDETEXT
350
120
  0
MATERIAL
  5
3D
102
{ACAD_REACTORS
330
3B
102
}
102
{ACAD_XDICTIONARY
360
123
102
}
330
3B
100
AcDbMaterial
  1
ByBlock
  0
MATERIAL
  5
3C
102
{ACAD_REACTORS
330
3B
102
}
102
{ACAD_XDICTIONARY
360
121
102
}
330
3B
100
AcDbMaterial
  1
ByLayer
  0
MATERIAL
  5
3E
102
{ACAD_REACTORS
330
3B
102
}
102
{ACAD_XDICTIONARY
360
125
102
}
330
3B
100
AcDbMaterial
  1
Global
  0
MLINESTYLE
  5
18
102
{ACAD_REACTORS
330
17
102
}
330
17
100
AcDbMlineStyle
  2
Standard
 70
     0
  3

 62
   256
 51
90.0
 52
90.0
 71
     2
 49
0.5
 62
   256
  6
BYLAYER
 49
-0.5
 62
   256
  6
BYLAYER
  0
ACAD_PROXY_OBJECT
  5
2F
102
{ACAD_REACTORS
330
2A
102
}
330
2A
100
AcDbProxyObject
 90
      499
 91
      501
 93
      436
310
42CC9915DA5C99599C985B595049028333333333333E3BF0000000000000FB0107901411070040501600405405064090741402480A0340
1001
ACAD
1000
AcDbSavedByObjectVersion
1070
     0
  0
ACAD_PROXY_OBJECT
  5
31
102
{ACAD_REACTORS
330
2A
102
}
330
2A
100
AcDbProxyObject
 90
      499
 91
      501
 93
      500
310
424CD108121A5919195B90640502408333333333333E3BF0000000000000FB01079024090700405020000000000001110200405405064090740C02480A0340
1001
ACAD
1000
AcDbSavedByObjectVersion
1070
     0
  0
ACAD_PROXY_OBJECT
  5
30
102
{ACAD_REACTORS
330
2A
102
}
330
2A
100
AcDbProxyObject
 90
      499
 91
      501
 93
      436
310
42CCD915DA5C99599C985B595059028333333333333E3BF0000000000000FB0107901411070040501600405405064090741402480A0340
1001
ACAD
1000
AcDbSavedByObjectVersion
1070
     0
  0
ACAD_PROXY_OBJECT
  5
32
102
{ACAD_REACTORS
330
2A
102
}
330
2A
100
AcDbProxyObject
 90
      499
 91
      501
 93
      388
310
4150985CDA58D07406404333333333333E3BF0000000000000FB0107A41107004050150841D405064090741402480A0350
1001
ACAD
1000
AcDbSavedByObjectVersion
1070
     0
  0
ACAD_PROXY_OBJECT
  5
36
102
{ACAD_REACTORS
330
2A
102
}
330
2A
100
AcDbProxyObject
 90
      499
 91
      501
 93
      428
310
42109C9A59DA1D195B90C409028333333333333E3BF0000000000000FB010790141107004050150841D405064090741402480A029950
1001
ACAD
1000
AcDbSavedByObjectVersion
1070
     0
  0
ACAD_PROXY_OBJECT
  5
3A
102
{ACAD_REACTORS
330
2A
102
}
330
2A
100
AcDbProxyObject
 90
      499
 91
      501
 93
      452
310
42D0DBDB1BDC90DA185B99D95104090240C333333333333E3BF0000000000000FB0108901411070040501508421405064090741402480A0350
1001
ACAD
1000
AcDbSavedByObjectVersion
1070
     0
  0
ACAD_PROXY_OBJECT
  5
34
102
{ACAD_REACTORS
330
2A
102
}
330
2A
100
AcDbProxyObject
 90
      499
 91
      501
 93
      500
310
4290DBDB98D95C1D1D585B10940D028333333333333E3BF0000000000000FB0107902409070040501000000000000111010841D405064090740C02480A0340
1001
ACAD
1000
AcDbSavedByObjectVersion
1070
     0
  0
ACAD_PROXY_OBJECT
  5
35
102
{ACAD_REACTORS
330
2A
102
}
330
2A
100
AcDbProxyObject
 90
      499
 91
      501
 93
      412
310
40D11A5B50B409028333333333333E3BF0000000000000FB010790141107004050150841D405064090741402480A02677FFFFFD0
1001
ACAD
1000
AcDbSavedByObjectVersion
1070
     0
  0
ACAD_PROXY_OBJECT
  5
39
102
{ACAD_REACTORS
330
2A
102
}
330
2A
100
AcDbProxyObject
 90
      499
 91
      501
 93
      444
310
42D19858D95C185D1D195C9B90F409028333333333333E3BF0000000000000FB010790141107004050150841D405064090741402480A0350
1001
ACAD
1000
AcDbSavedByObjectVersion
1070
     0
  0
ACAD_PROXY_OBJECT
  5
2B
102
{ACAD_REACTORS
330
2A
102
}
330
2A
100
AcDbProxyObject
 90
      499
 91
      501
 93
      388
310
41119B185D240901404333333333333E3BF0000000000000F9010740A41107004050150841D405064090741402480A1B50
1001
ACAD
1000
AcDbSavedByObjectVersion
1070
     0
  0
ACAD_PROXY_OBJECT
  5
2C
102
{ACAD_REACTORS
330
2A
102
}
330
2A
100
AcDbProxyObject
 90
      499
 91
      501
 93
      476
310
43519B185D15DA5D1A115919D95CD0140901404333333333333E3BF0000000000000F9010740901411070040501600405405064090741402480A1B50
1001
ACAD
1000
AcDbSavedByObjectVersion
1070
     0
  0
ACAD_PROXY_OBJECT
  5
2D
102
{ACAD_REACTORS
330
2A
102
}
330
2A
100
AcDbProxyObject
 90
      499
 91
      501
 93
      412
310
41D1DBDD5C985D5910240902404333333333333E3BF0000000000000F9010740A411070040501641D405064090741402480A1B50
1001
ACAD
1000
AcDbSavedByObjectVersion
1070
     0
  0
ACAD_PROXY_OBJECT
  5
2E
102
{ACAD_REACTORS
330
2A
102
}
330
2A
100
AcDbProxyObject
 90
      499
 91
      501
 93
      500
310
4411DBDD5C985D5915DA5D1A115919D95CD0340902404333333333333E3BF0000000000000F9010740901411070040501600405405064090741402480A1B50
1001
ACAD
1000
AcDbSavedByObjectVersion
1070
     0
  0
ACAD_PROXY_OBJECT
  5
38
102
{ACAD_REACTORS
330
2A
102
}
330
2A
100
AcDbProxyObject
 90
      499
 91
      501
 93
      444
310
42D31A5B995C185D1D195C9B90E409028333333333333E3BF0000000000000FB010790141107004050750841D405064090741402483A0350
1001
ACAD
1000
AcDbSavedByObjectVersion
1070
     0
  0
ACAD_PROXY_OBJECT
  5
33
102
{ACAD_REACTORS
330
2A
102
}
330
2A
100
AcDbProxyObject
 90
      499
 91
      501
 93
      420
310
425499585B1A5CDD1A58D08409028333333333333E3BF0000000000000FB01079019070040501508421405064090741402480A1B40
1001
ACAD
1000
AcDbSavedByObjectVersion
1070
     0
  0
ACAD_PROXY_OBJECT
  5
37
102
{ACAD_REACTORS
330
2A
102
}
330
2A
100
AcDbProxyObject
 90
      499
 91
      501
 93
      412
310
41D51A1A58DAD95B90D409028333333333333E3BF0000000000000FB010790141107004050150C41D405064090741402480A0350
1001
ACAD
1000
AcDbSavedByObjectVersion
1070
     0
  0
XRECORD
  5
105
102
{ACAD_REACTORS
330
FC
102
}
330
FC
100
AcDbXrecord
 90
        0
  0
XRECORD
  5
11B
102
{ACAD_REACTORS
330
FC
102
}
330
FC
100
AcDbXrecord
1000
DSTYLE
1002
{
1070
   340
340
11
1002
}
  0
XRECORD
  5
106
102
{ACAD_REACTORS
330
FC
102
}
330
FC
100
AcDbXrecord
  1
{5FB62601-9B73-4532-A2ED-B13170D0315D}
  0
XRECORD
  5
FF
102
{ACAD_REACTORS
330
FC
102
}
330
FC
100
AcDbXrecord
  1

  0
XRECORD
  5
104
102
{ACAD_REACTORS
330
FC
102
}
330
FC
100
AcDbXrecord
 90
        1
  0
XRECORD
  5
101
102
{ACAD_REACTORS
330
FC
102
}
330
FC
100
AcDbXrecord
340
1A
  0
XRECORD
  5
103
102
{ACAD_REACTORS
330
FC
102
}
330
FC
100
AcDbXrecord
 90
    10781
  0
XRECORD
  5
102
102
{ACAD_REACTORS
330
FC
102
}
330
FC
100
AcDbXrecord
340
19
  0
XRECORD
  5
108
102
{ACAD_REACTORS
330
FC
102
}
330
FC
100
AcDbXrecord
 40
0.0
  0
XRECORD
  5
10B
102
{ACAD_REACTORS
330
FC
102
}
330
FC
100
AcDbXrecord
340
0
  0
XRECORD
  5
111
102
{ACAD_REACTORS
330
FC
102
}
330
FC
100
AcDbXrecord
 10
0.0
 20
0.0
 30
0.0
  0
XRECORD
  5
10D
102
{ACAD_REACTORS
330
FC
102
}
330
FC
100
AcDbXrecord
 10
0.0
 20
0.0
 30
0.0
  0
XRECORD
  5
110
102
{ACAD_REACTORS
330
FC
102
}
330
FC
100
AcDbXrecord
 10
0.0
 20
0.0
 30
0.0
  0
XRECORD
  5
10E
102
{ACAD_REACTORS
330
FC
102
}
330
FC
100
AcDbXrecord
 10
0.0
 20
0.0
 30
0.0
  0
XRECORD
  5
10F
102
{ACAD_REACTORS
330
FC
102
}
330
FC
100
AcDbXrecord
 10
0.0
 20
0.0
 30
0.0
  0
XRECORD
  5
10C
102
{ACAD_REACTORS
330
FC
102
}
330
FC
100
AcDbXrecord
 10
0.0
 20
0.0
 30
0.0
  0
XRECORD
  5
109
102
{ACAD_REACTORS
330
FC
102
}
330
FC
100
AcDbXrecord
340
0
  0
XRECORD
  5
10A
102
{ACAD_REACTORS
330
FC
102
}
330
FC
100
AcDbXrecord
 70
     0
  0
XRECORD
  5
100
102
{ACAD_REACTORS
330
FC
102
}
330
FC
100
AcDbXrecord
  1

  0
XRECORD
  5
FD
102
{ACAD_REACTORS
330
FC
102
}
330
FC
100
AcDbXrecord
 90
        1
  0
XRECORD
  5
FE
102
{ACAD_REACTORS
330
FC
102
}
330
FC
100
AcDbXrecord
 90
       70
  0
XRECORD
  5
114
102
{ACAD_REACTORS
330
FC
102
}
330
FC
100
AcDbXrecord
340
0
  0
XRECORD
  5
11A
102
{ACAD_REACTORS
330
FC
102
}
330
FC
100
AcDbXrecord
 10
0.0
 20
0.0
 30
0.0
  0
XRECORD
  5
116
102
{ACAD_REACTORS
330
FC
102
}
330
FC
100
AcDbXrecord
 10
0.0
 20
0.0
 30
0.0
  0
XRECORD
  5
119
102
{ACAD_REACTORS
330
FC
102
}
330
FC
100
AcDbXrecord
 10
0.0
 20
0.0
 30
0.0
  0
XRECORD
  5
117
102
{ACAD_REACTORS
330
FC
102
}
330
FC
100
AcDbXrecord
 10
0.0
 20
0.0
 30
0.0
  0
XRECORD
  5
118
102
{ACAD_REACTORS
330
FC
102
}
330
FC
100
AcDbXrecord
 10
0.0
 20
0.0
 30
0.0
  0
XRECORD
  5
115
102
{ACAD_REACTORS
330
FC
102
}
330
FC
100
AcDbXrecord
 10
0.0
 20
0.0
 30
0.0
  0
XRECORD
  5
112
102
{ACAD_REACTORS
330
FC
102
}
330
FC
100
AcDbXrecord
340
0
  0
XRECORD
  5
113
102
{ACAD_REACTORS
330
FC
102
}
330
FC
100
AcDbXrecord
 70
     0
  0
XRECORD
  5
107
102
{ACAD_REACTORS
330
FC
102
}
330
FC
100
AcDbXrecord
  1
{FAEB1C32-E019-11D5-929B-00C0DF256EC4}
  0
DICTIONARYVAR
  5
11F
102
{ACAD_REACTORS
330
11C
102
}
330
11C
100
DictionaryVariables
280
     0
  1
2
  0
DICTIONARYVAR
  5
120
102
{ACAD_REACTORS
330
11C
102
}
330
11C
100
DictionaryVariables
280
     0
  1
1
  0
DICTIONARY
  5
123
330
3D
100
AcDbDictionary
280
     1
  3
ACAD_XREC_ROUNDTRIP
360
124
  0
DICTIONARY
  5
121
330
3C
100
AcDbDictionary
280
     1
  3
ACAD_XREC_ROUNDTRIP
360
122
  0
DICTIONARY
  5
125
330
3E
100
AcDbDictionary
280
     1
  3
ACAD_XREC_ROUNDTRIP
360
126
  0
XRECORD
  5
124
102
{ACAD_REACTORS
330
123
102
}
330
123
100
AcDbXrecord
102
MATERIAL
148
0.0
149
0.0
149
0.0
 93
        0
 94
      127
282
     0
 72
     1
 77
     1
171
     1
175
     1
179
     1
273
     0
  0
XRECORD
  5
122
102
{ACAD_REACTORS
330
121
102
}
330
121
100
AcDbXrecord
102
MATERIAL
148
0.0
149
0.0
149
0.0
 93
        0
 94
      127
282
     0
 72
     1
 77
     1
171
     1
175
     1
179
     1
273
     0
  0
XRECORD
  5
126
102
{ACAD_REACTORS
330
125
102
}
330
125
100
AcDbXrecord
102
MATERIAL
148
0.0
149
0.0
149
0.0
 93
        0
 94
      127
282
     0
 72
     1
 77
     1
171
     1
175
     1
179
     1
273
     0
  0
ENDSEC
  0
EOF
