  0
SECTION
  2
HEADER
  9
$ACADVER
  1
AC1014
  9
$ACADMAINTVER
 70
     9
  9
$DWGCODEPAGE
  3
ANSI_1252
  9
$INSBASE
 10
0.0
 20
0.0
 30
0.0
  9
$EXTMIN
 10
1.000000000000000E+20
 20
1.000000000000000E+20
 30
1.000000000000000E+20
  9
$EXTMAX
 10
-1.000000000000000E+20
 20
-1.000000000000000E+20
 30
-1.000000000000000E+20
  9
$LIMMIN
 10
0.0
 20
0.0
  9
$LIMMAX
 10
12.0
 20
9.0
  9
$ORTHOMODE
 70
     0
  9
$REGENMODE
 70
     1
  9
$FILLMODE
 70
     1
  9
$QTEXTMODE
 70
     0
  9
$MIRRTEXT
 70
     1
  9
$DRAGMODE
 70
     2
  9
$LTSCALE
 40
1.0
  9
$OSMODE
 70
    37
  9
$ATTMODE
 70
     1
  9
$TEXTSIZE
 40
0.2
  9
$TRACEWID
 40
0.05
  9
$TEXTSTYLE
  7
STANDARD
  9
$CLAYER
  8
0
  9
$CELTYPE
  6
BYLAYER
  9
$CECOLOR
 62
   256
  9
$CELTSCALE
 40
1.0
  9
$DELOBJ
 70
     1
  9
$DISPSILH
 70
     0
  9
$DIMSCALE
 40
1.0
  9
$DIMASZ
 40
0.18
  9
$DIMEXO
 40
0.0625
  9
$DIMDLI
 40
0.38
  9
$DIMRND
 40
0.0
  9
$DIMDLE
 40
0.0
  9
$DIMEXE
 40
0.18
  9
$DIMTP
 40
0.0
  9
$DIMTM
 40
0.0
  9
$DIMTXT
 40
0.18
  9
$DIMCEN
 40
0.09
  9
$DIMTSZ
 40
0.0
  9
$DIMTOL
 70
     0
  9
$DIMLIM
 70
     0
  9
$DIMTIH
 70
     1
  9
$DIMTOH
 70
     1
  9
$DIMSE1
 70
     0
  9
$DIMSE2
 70
     0
  9
$DIMTAD
 70
     0
  9
$DIMZIN
 70
     0
  9
$DIMBLK
  1

  9
$DIMASO
 70
     1
  9
$DIMSHO
 70
     1
  9
$DIMPOST
  1

  9
$DIMAPOST
  1

  9
$DIMALT
 70
     0
  9
$DIMALTD
 70
     2
  9
$DIMALTF
 40
25.4
  9
$DIMLFAC
 40
1.0
  9
$DIMTOFL
 70
     0
  9
$DIMTVP
 40
0.0
  9
$DIMTIX
 70
     0
  9
$DIMSOXD
 70
     0
  9
$DIMSAH
 70
     0
  9
$DIMBLK1
  1

  9
$DIMBLK2
  1

  9
$DIMSTYLE
  2
STANDARD
  9
$DIMCLRD
 70
     0
  9
$DIMCLRE
 70
     0
  9
$DIMCLRT
 70
     0
  9
$DIMTFAC
 40
1.0
  9
$DIMGAP
 40
0.09
  9
$DIMJUST
 70
     0
  9
$DIMSD1
 70
     0
  9
$DIMSD2
 70
     0
  9
$DIMTOLJ
 70
     1
  9
$DIMTZIN
 70
     0
  9
$DIMALTZ
 70
     0
  9
$DIMALTTZ
 70
     0
  9
$DIMFIT
 70
     3
  9
$DIMUPT
 70
     0
  9
$DIMUNIT
 70
     2
  9
$DIMDEC
 70
     4
  9
$DIMTDEC
 70
     4
  9
$DIMALTU
 70
     2
  9
$DIMALTTD
 70
     2
  9
$DIMTXSTY
  7
STANDARD
  9
$DIMAUNIT
 70
     0
  9
$LUNITS
 70
     2
  9
$LUPREC
 70
     4
  9
$SKETCHINC
 40
0.1
  9
$FILLETRAD
 40
0.5
  9
$AUNITS
 70
     0
  9
$AUPREC
 70
     0
  9
$MENU
  1
.
  9
$ELEVATION
 40
0.0
  9
$PELEVATION
 40
0.0
  9
$THICKNESS
 40
0.0
  9
$LIMCHECK
 70
     0
  9
$CHAMFERA
 40
0.5
  9
$CHAMFERB
 40
0.5
  9
$CHAMFERC
 40
1.0
  9
$CHAMFERD
 40
0.0
  9
$SKPOLY
 70
     0
  9
$TDCREATE
 40
2457348.827177037
  9
$TDUPDATE
 40
2457348.827177049
  9
$TDINDWG
 40
0.0000000116
  9
$TDUSRTIMER
 40
0.0000000116
  9
$USRTIMER
 70
     1
  9
$ANGBASE
 50
0.0
  9
$ANGDIR
 70
     0
  9
$PDMODE
 70
     0
  9
$PDSIZE
 40
0.0
  9
$PLINEWID
 40
0.0
  9
$COORDS
 70
     1
  9
$SPLFRAME
 70
     0
  9
$SPLINETYPE
 70
     6
  9
$SPLINESEGS
 70
     8
  9
$ATTDIA
 70
     0
  9
$ATTREQ
 70
     1
  9
$HANDLING
 70
     1
  9
$HANDSEED
  5
1C9
  9
$SURFTAB1
 70
     6
  9
$SURFTAB2
 70
     6
  9
$SURFTYPE
 70
     6
  9
$SURFU
 70
     6
  9
$SURFV
 70
     6
  9
$UCSNAME
  2

  9
$UCSORG
 10
0.0
 20
0.0
 30
0.0
  9
$UCSXDIR
 10
1.0
 20
0.0
 30
0.0
  9
$UCSYDIR
 10
0.0
 20
1.0
 30
0.0
  9
$PUCSNAME
  2

  9
$PUCSORG
 10
0.0
 20
0.0
 30
0.0
  9
$PUCSXDIR
 10
1.0
 20
0.0
 30
0.0
  9
$PUCSYDIR
 10
0.0
 20
1.0
 30
0.0
  9
$USERI1
 70
     0
  9
$USERI2
 70
     0
  9
$USERI3
 70
     0
  9
$USERI4
 70
     0
  9
$USERI5
 70
     0
  9
$USERR1
 40
0.0
  9
$USERR2
 40
0.0
  9
$USERR3
 40
0.0
  9
$USERR4
 40
0.0
  9
$USERR5
 40
0.0
  9
$WORLDVIEW
 70
     1
  9
$SHADEDGE
 70
     3
  9
$SHADEDIF
 70
    70
  9
$TILEMODE
 70
     1
  9
$MAXACTVP
 70
    64
  9
$PINSBASE
 10
0.0
 20
0.0
 30
0.0
  9
$PLIMCHECK
 70
     0
  9
$PEXTMIN
 10
1.000000000000000E+20
 20
1.000000000000000E+20
 30
1.000000000000000E+20
  9
$PEXTMAX
 10
-1.000000000000000E+20
 20
-1.000000000000000E+20
 30
-1.000000000000000E+20
  9
$PLIMMIN
 10
0.0
 20
0.0
  9
$PLIMMAX
 10
12.0
 20
9.0
  9
$UNITMODE
 70
     0
  9
$VISRETAIN
 70
     1
  9
$PLINEGEN
 70
     0
  9
$PSLTSCALE
 70
     1
  9
$TREEDEPTH
 70
  3020
  9
$PICKSTYLE
 70
     1
  9
$CMLSTYLE
  2
STANDARD
  9
$CMLJUST
 70
     0
  9
$CMLSCALE
 40
1.0
  9
$PROXYGRAPHICS
 70
     1
  9
$MEASUREMENT
 70
     0
  0
ENDSEC
  0
SECTION
  2
CLASSES
  0
CLASS
  1
ACDBDICTIONARYWDFLT
  2
AcDbDictionaryWithDefault
  3
ObjectDBX Classes
 90
        0
280
     0
281
     0
  0
CLASS
  1
VISUALSTYLE
  2
AcDbVisualStyle
  3
ObjectDBX Classes
 90
     4095
280
     0
281
     0
  0
CLASS
  1
MATERIAL
  2
AcDbMaterial
  3
ObjectDBX Classes
 90
     1153
280
     0
281
     0
  0
CLASS
  1
DICTIONARYVAR
  2
AcDbDictionaryVar
  3
ObjectDBX Classes
 90
        0
280
     0
281
     0
  0
CLASS
  1
XRECORD
  2
AcDbXrecord
  3
AutoCAD 2000
 90
        0
280
     0
281
     0
  0
CLASS
  1
LWPOLYLINE
  2
AcDbPolyline
  3
AutoCAD 2000
 90
        0
280
     0
281
     1
  0
CLASS
  1
HATCH
  2
AcDbHatch
  3
AutoCAD 2000
 90
        0
280
     0
281
     1
  0
CLASS
  1
ACDBPLACEHOLDER
  2
AcDbPlaceHolder
  3
ObjectDBX Classes
 90
        0
280
     0
281
     0
  0
CLASS
  1
LAYOUT
  2
AcDbLayout
  3
ObjectDBX Classes
 90
        0
280
     0
281
     0
  0
ENDSEC
  0
SECTION
  2
TABLES
  0
TABLE
  2
VPORT
  5
8
330
0
100
AcDbSymbolTable
 70
     1
  0
VPORT
  5
29
330
8
100
AcDbSymbolTableRecord
100
AcDbViewportTableRecord
  2
*ACTIVE
 70
     0
 10
0.0
 20
0.0
 11
1.0
 21
1.0
 12
0.0
 22
0.0
 13
0.0
 23
0.0
 14
0.5
 24
0.5
 15
0.5
 25
0.5
 16
0.0
 26
0.0
 36
1.0
 17
0.0
 27
0.0
 37
-1000.0
 40
135.244343604769
 41
1.914432989690722
 42
50.0
 43
99.9565437841432
 44
510.3251375351714
 50
0.0
 51
0.0
 71
     0
 72
   100
 73
     1
 74
     3
 75
     0
 76
     0
 77
     0
 78
     0
  0
ENDTAB
  0
TABLE
  2
LTYPE
  5
5
330
0
100
AcDbSymbolTable
 70
     1
  0
LTYPE
  5
14
330
5
100
AcDbSymbolTableRecord
100
AcDbLinetypeTableRecord
  2
BYBLOCK
 70
     0
  3

 72
    65
 73
     0
 40
0.0
  0
LTYPE
  5
15
330
5
100
AcDbSymbolTableRecord
100
AcDbLinetypeTableRecord
  2
BYLAYER
 70
     0
  3

 72
    65
 73
     0
 40
0.0
  0
LTYPE
  5
16
330
5
100
AcDbSymbolTableRecord
100
AcDbLinetypeTableRecord
  2
CONTINUOUS
 70
     0
  3
Solid line
 72
    65
 73
     0
 40
0.0
  0
ENDTAB
  0
TABLE
  2
LAYER
  5
2
330
0
100
AcDbSymbolTable
 70
     3
  0
LAYER
  5
10
330
2
100
AcDbSymbolTableRecord
100
AcDbLayerTableRecord
  2
0
 70
     0
 62
     7
  6
CONTINUOUS
  0
LAYER
  5
3F
330
2
100
AcDbSymbolTableRecord
100
AcDbLayerTableRecord
  2
PROFILEEDGES
 70
     0
 62
     7
  6
CONTINUOUS
  0
LAYER
  5
40
330
2
100
AcDbSymbolTableRecord
100
AcDbLayerTableRecord
  2
SECTIONCUTEDGES
 70
     0
 62
     7
  6
CONTINUOUS
  0
ENDTAB
  0
TABLE
  2
STYLE
  5
3
330
0
100
AcDbSymbolTable
 70
     1
  0
STYLE
  5
11
330
3
100
AcDbSymbolTableRecord
100
AcDbTextStyleTableRecord
  2
STANDARD
 70
     0
 40
0.0
 41
1.0
 50
0.0
 71
     0
 42
0.2
  3
txt
  4

  0
ENDTAB
  0
TABLE
  2
VIEW
  5
6
330
0
100
AcDbSymbolTable
 70
     0
  0
ENDTAB
  0
TABLE
  2
UCS
  5
7
330
0
100
AcDbSymbolTable
 70
     0
  0
ENDTAB
  0
TABLE
  2
APPID
  5
9
330
0
100
AcDbSymbolTable
 70
     1
  0
APPID
  5
12
330
9
100
AcDbSymbolTableRecord
100
AcDbRegAppTableRecord
  2
ACAD
 70
     0
  0
ENDTAB
  0
TABLE
  2
DIMSTYLE
  5
A
330
0
100
AcDbSymbolTable
 70
     1
  0
DIMSTYLE
105
27
330
A
100
AcDbSymbolTableRecord
100
AcDbDimStyleTableRecord
  2
STANDARD
 70
     0
  3

  4

  5

  6

  7

 40
1.0
 41
0.18
 42
0.0625
 43
0.38
 44
0.18
 45
0.0
 46
0.0
 47
0.0
 48
0.0
140
0.18
141
0.09
142
0.0
143
25.4
144
1.0
145
0.0
146
1.0
147
0.09
 71
     0
 72
     0
 73
     1
 74
     1
 75
     0
 76
     0
 77
     0
 78
     0
170
     0
171
     2
172
     0
173
     0
174
     0
175
     0
176
     0
177
     0
178
     0
270
     2
271
     4
272
     4
273
     2
274
     2
340
11
275
     0
280
     0
281
     0
282
     0
283
     1
284
     0
285
     0
286
     0
287
     3
288
     0
  0
ENDTAB
  0
TABLE
  2
BLOCK_RECORD
  5
1
330
0
100
AcDbSymbolTable
 70
     1
  0
BLOCK_RECORD
  5
1F
330
1
100
AcDbSymbolTableRecord
100
AcDbBlockTableRecord
  2
*MODEL_SPACE
  0
BLOCK_RECORD
  5
1B
330
1
100
AcDbSymbolTableRecord
100
AcDbBlockTableRecord
  2
*PAPER_SPACE
  0
ENDTAB
  0
ENDSEC
  0
SECTION
  2
BLOCKS
  0
BLOCK
  5
20
330
1F
100
AcDbEntity
  8
0
100
AcDbBlockBegin
  2
*MODEL_SPACE
 70
     0
 10
0.0
 20
0.0
 30
0.0
  3
*MODEL_SPACE
  1

  0
ENDBLK
  5
21
330
1F
100
AcDbEntity
  8
0
100
AcDbBlockEnd
  0
BLOCK
  5
1C
330
1B
100
AcDbEntity
 67
     1
  8
0
100
AcDbBlockBegin
  2
*PAPER_SPACE
 70
     0
 10
0.0
 20
0.0
 30
0.0
  3
*PAPER_SPACE
  1

  0
ENDBLK
  5
1D
330
1B
100
AcDbEntity
 67
     1
  8
0
100
AcDbBlockEnd
  0
ENDSEC
  0
SECTION
  2
ENTITIES
  0
LINE
  5
41
330
1F
100
AcDbEntity
  8
0
100
AcDbLine
 10
63.16888651478739
 20
48.86424918344915
 30
0.0
 11
64.0001154461585
 21
48.86424918344915
 31
0.0
  0
LINE
  5
42
330
1F
100
AcDbEntity
  8
0
100
AcDbLine
 10
62.4601190473399
 20
50.8115717959051
 30
0.0
 11
63.16888651478739
 21
48.86424918344915
 31
0.0
  0
LINE
  5
43
330
1F
100
AcDbEntity
  8
0
100
AcDbLine
 10
61.62889011596915
 20
50.8115717959051
 30
0.0
 11
62.4601190473399
 21
50.8115717959051
 31
0.0
  0
LINE
  5
44
330
1F
100
AcDbEntity
  8
0
100
AcDbLine
 10
60.9201226485213
 20
48.86424918344915
 30
0.0
 11
61.62889011596915
 21
50.8115717959051
 31
0.0
  0
LINE
  5
45
330
1F
100
AcDbEntity
  8
0
100
AcDbLine
 10
60.08889371715036
 20
48.86424918344915
 30
0.0
 11
60.9201226485213
 21
48.86424918344915
 31
0.0
  0
LINE
  5
46
330
1F
100
AcDbEntity
  8
0
100
AcDbLine
 10
59.38012624970288
 20
50.8115717959051
 30
0.0
 11
60.08889371715036
 21
48.86424918344915
 31
0.0
  0
LINE
  5
47
330
1F
100
AcDbEntity
  8
0
100
AcDbLine
 10
58.54889731833176
 20
50.81157179590515
 30
0.0
 11
59.38012624970288
 21
50.8115717959051
 31
0.0
  0
LINE
  5
48
330
1F
100
AcDbEntity
  8
0
100
AcDbLine
 10
57.84012985088427
 20
48.86424918344915
 30
0.0
 11
58.54889731833176
 21
50.81157179590515
 31
0.0
  0
LINE
  5
49
330
1F
100
AcDbEntity
  8
0
100
AcDbLine
 10
105.5800182142586
 20
50.8115717959051
 30
0.0
 11
106.2887856817061
 21
48.86424918344915
 31
0.0
  0
LINE
  5
4A
330
1F
100
AcDbEntity
  8
0
100
AcDbLine
 10
104.7487892828876
 20
50.8115717959051
 30
0.0
 11
105.5800182142586
 21
50.8115717959051
 31
0.0
  0
LINE
  5
4B
330
1F
100
AcDbEntity
  8
0
100
AcDbLine
 10
104.04002181544
 20
48.86424918344915
 30
0.0
 11
104.7487892828876
 21
50.8115717959051
 31
0.0
  0
LINE
  5
4C
330
1F
100
AcDbEntity
  8
0
100
AcDbLine
 10
103.2087928840692
 20
48.86424918344915
 30
0.0
 11
104.04002181544
 21
48.86424918344915
 31
0.0
  0
LINE
  5
4D
330
1F
100
AcDbEntity
  8
0
100
AcDbLine
 10
102.5000254166216
 20
50.8115717959051
 30
0.0
 11
103.2087928840692
 21
48.86424918344915
 31
0.0
  0
LINE
  5
4E
330
1F
100
AcDbEntity
  8
0
100
AcDbLine
 10
101.6687964852506
 20
50.8115717959051
 30
0.0
 11
102.5000254166216
 21
50.8115717959051
 31
0.0
  0
LINE
  5
4F
330
1F
100
AcDbEntity
  8
0
100
AcDbLine
 10
83.18883969942813
 20
50.8115717959051
 30
0.0
 11
84.02006863079924
 21
50.8115717959051
 31
0.0
  0
LINE
  5
50
330
1F
100
AcDbEntity
  8
0
100
AcDbLine
 10
82.48007223198064
 20
48.86424918344915
 30
0.0
 11
83.18883969942813
 21
50.8115717959051
 31
0.0
  0
LINE
  5
51
330
1F
100
AcDbEntity
  8
0
100
AcDbLine
 10
100.128800086432
 20
48.86424918344915
 30
0.0
 11
100.9600290178031
 21
48.86424918344915
 31
0.0
  0
LINE
  5
52
330
1F
100
AcDbEntity
  8
0
100
AcDbLine
 10
99.42003261898454
 20
50.81157179590515
 30
0.0
 11
100.128800086432
 21
48.86424918344915
 31
0.0
  0
LINE
  5
53
330
1F
100
AcDbEntity
  8
0
100
AcDbLine
 10
98.58880368761342
 20
50.81157179590515
 30
0.0
 11
99.42003261898454
 21
50.81157179590515
 31
0.0
  0
LINE
  5
54
330
1F
100
AcDbEntity
  8
0
100
AcDbLine
 10
97.88003622016593
 20
48.86424918344915
 30
0.0
 11
98.58880368761342
 21
50.81157179590515
 31
0.0
  0
LINE
  5
55
330
1F
100
AcDbEntity
  8
0
100
AcDbLine
 10
97.04880728879517
 20
48.86424918344915
 30
0.0
 11
97.88003622016593
 21
48.86424918344915
 31
0.0
  0
LINE
  5
56
330
1F
100
AcDbEntity
  8
0
100
AcDbLine
 10
96.34003982134752
 20
50.8115717959051
 30
0.0
 11
97.04880728879517
 21
48.86424918344915
 31
0.0
  0
LINE
  5
57
330
1F
100
AcDbEntity
  8
0
100
AcDbLine
 10
95.5088108899764
 20
50.8115717959051
 30
0.0
 11
96.34003982134752
 21
50.8115717959051
 31
0.0
  0
LINE
  5
58
330
1F
100
AcDbEntity
  8
0
100
AcDbLine
 10
94.80004342252892
 20
48.86424918344915
 30
0.0
 11
95.5088108899764
 21
50.8115717959051
 31
0.0
  0
LINE
  5
59
330
1F
100
AcDbEntity
  8
0
100
AcDbLine
 10
93.96881449115797
 20
48.86424918344915
 30
0.0
 11
94.80004342252892
 21
48.86424918344915
 31
0.0
  0
LINE
  5
5A
330
1F
100
AcDbEntity
  8
0
100
AcDbLine
 10
81.6488433006097
 20
48.86424918344915
 30
0.0
 11
82.48007223198064
 21
48.86424918344915
 31
0.0
  0
LINE
  5
5B
330
1F
100
AcDbEntity
  8
0
100
AcDbLine
 10
80.94007583316221
 20
50.8115717959051
 30
0.0
 11
81.6488433006097
 21
48.86424918344915
 31
0.0
  0
LINE
  5
5C
330
1F
100
AcDbEntity
  8
0
100
AcDbLine
 10
80.10884690179128
 20
50.81157179590515
 30
0.0
 11
80.94007583316221
 21
50.8115717959051
 31
0.0
  0
LINE
  5
5D
330
1F
100
AcDbEntity
  8
0
100
AcDbLine
 10
79.4000794343438
 20
48.86424918344915
 30
0.0
 11
80.10884690179128
 21
50.81157179590515
 31
0.0
  0
LINE
  5
5E
330
1F
100
AcDbEntity
  8
0
100
AcDbLine
 10
78.56885050297268
 20
48.86424918344915
 30
0.0
 11
79.4000794343438
 21
48.86424918344915
 31
0.0
  0
LINE
  5
5F
330
1F
100
AcDbEntity
  8
0
100
AcDbLine
 10
77.8600830355252
 20
50.8115717959051
 30
0.0
 11
78.56885050297268
 21
48.86424918344915
 31
0.0
  0
LINE
  5
60
330
1F
100
AcDbEntity
  8
0
100
AcDbLine
 10
77.02885410415408
 20
50.81157179590515
 30
0.0
 11
77.8600830355252
 21
50.8115717959051
 31
0.0
  0
LINE
  5
61
330
1F
100
AcDbEntity
  8
0
100
AcDbLine
 10
76.32008663670659
 20
48.86424918344915
 30
0.0
 11
77.02885410415408
 21
50.81157179590515
 31
0.0
  0
LINE
  5
62
330
1F
100
AcDbEntity
  8
0
100
AcDbLine
 10
75.48885770533566
 20
48.86424918344915
 30
0.0
 11
76.32008663670659
 21
48.86424918344915
 31
0.0
  0
LINE
  5
63
330
1F
100
AcDbEntity
  8
0
100
AcDbLine
 10
74.78009023788817
 20
50.81157179590515
 30
0.0
 11
75.48885770533566
 21
48.86424918344915
 31
0.0
  0
LINE
  5
64
330
1F
100
AcDbEntity
  8
0
100
AcDbLine
 10
73.94886130651724
 20
50.81157179590515
 30
0.0
 11
74.78009023788817
 21
50.81157179590515
 31
0.0
  0
LINE
  5
65
330
1F
100
AcDbEntity
  8
0
100
AcDbLine
 10
-19.15969009004201
 20
48.86424918344915
 30
0.0
 11
-18.45092262259434
 21
50.8115717959051
 31
0.0
  0
LINE
  5
66
330
1F
100
AcDbEntity
  8
0
100
AcDbLine
 10
-19.99091902141276
 20
48.86424918344915
 30
0.0
 11
-19.15969009004201
 21
48.86424918344915
 31
0.0
  0
LINE
  5
67
330
1F
100
AcDbEntity
  8
0
100
AcDbLine
 10
-20.69968648886043
 20
50.81157179590515
 30
0.0
 11
-19.99091902141276
 21
48.86424918344915
 31
0.0
  0
LINE
  5
68
330
1F
100
AcDbEntity
  8
0
100
AcDbLine
 10
-21.53091542023137
 20
50.81157179590515
 30
0.0
 11
-20.69968648886043
 21
50.81157179590515
 31
0.0
  0
LINE
  5
69
330
1F
100
AcDbEntity
  8
0
100
AcDbLine
 10
-22.23968288767885
 20
48.86424918344915
 30
0.0
 11
-21.53091542023137
 21
50.81157179590515
 31
0.0
  0
LINE
  5
6A
330
1F
100
AcDbEntity
  8
0
100
AcDbLine
 10
-23.07091181904997
 20
48.86424918344915
 30
0.0
 11
-22.23968288767885
 21
48.86424918344915
 31
0.0
  0
LINE
  5
6B
330
1F
100
AcDbEntity
  8
0
100
AcDbLine
 10
-23.77967928649727
 20
50.8115717959051
 30
0.0
 11
-23.07091181904997
 21
48.86424918344915
 31
0.0
  0
LINE
  5
6C
330
1F
100
AcDbEntity
  8
0
100
AcDbLine
 10
-24.61090821786839
 20
50.8115717959051
 30
0.0
 11
-23.77967928649727
 21
50.8115717959051
 31
0.0
  0
LINE
  5
6D
330
1F
100
AcDbEntity
  8
0
100
AcDbLine
 10
-25.31967568531588
 20
48.86424918344915
 30
0.0
 11
-24.61090821786839
 21
50.8115717959051
 31
0.0
  0
LINE
  5
6E
330
1F
100
AcDbEntity
  8
0
100
AcDbLine
 10
-26.15090461668699
 20
48.86424918344915
 30
0.0
 11
-25.31967568531588
 21
48.86424918344915
 31
0.0
  0
LINE
  5
6F
330
1F
100
AcDbEntity
  8
0
100
AcDbLine
 10
-96.15951003096812
 20
48.86424918344915
 30
0.0
 11
-95.45074256352063
 21
50.81157179590515
 31
0.0
  0
LINE
  5
70
330
1F
100
AcDbEntity
  8
0
100
AcDbLine
 10
-96.99073896233905
 20
48.86424918344915
 30
0.0
 11
-96.15951003096812
 21
48.86424918344915
 31
0.0
  0
LINE
  5
71
330
1F
100
AcDbEntity
  8
0
100
AcDbLine
 10
-97.69950642978654
 20
50.8115717959051
 30
0.0
 11
-96.99073896233905
 21
48.86424918344915
 31
0.0
  0
LINE
  5
72
330
1F
100
AcDbEntity
  8
0
100
AcDbLine
 10
-98.53073536115765
 20
50.81157179590515
 30
0.0
 11
-97.69950642978654
 21
50.8115717959051
 31
0.0
  0
LINE
  5
73
330
1F
100
AcDbEntity
  8
0
100
AcDbLine
 10
-99.23950282860514
 20
48.86424918344915
 30
0.0
 11
-98.53073536115765
 21
50.81157179590515
 31
0.0
  0
LINE
  5
74
330
1F
100
AcDbEntity
  8
0
100
AcDbLine
 10
-100.0707317599763
 20
48.86424918344915
 30
0.0
 11
-99.23950282860514
 21
48.86424918344915
 31
0.0
  0
LINE
  5
75
330
1F
100
AcDbEntity
  8
0
100
AcDbLine
 10
-100.7794992274236
 20
50.81157179590515
 30
0.0
 11
-100.0707317599763
 21
48.86424918344915
 31
0.0
  0
LINE
  5
76
330
1F
100
AcDbEntity
  8
0
100
AcDbLine
 10
-101.6107281587947
 20
50.8115717959051
 30
0.0
 11
-100.7794992274236
 21
50.81157179590515
 31
0.0
  0
LINE
  5
77
330
1F
100
AcDbEntity
  8
0
100
AcDbLine
 10
-102.3194956262422
 20
48.86424918344915
 30
0.0
 11
-101.6107281587947
 21
50.8115717959051
 31
0.0
  0
LINE
  5
78
330
1F
100
AcDbEntity
  8
0
100
AcDbLine
 10
-103.1507245576133
 20
48.86424918344915
 30
0.0
 11
-102.3194956262422
 21
48.86424918344915
 31
0.0
  0
LINE
  5
79
330
1F
100
AcDbEntity
  8
0
100
AcDbLine
 10
-103.8594920250608
 20
50.8115717959051
 30
0.0
 11
-103.1507245576133
 21
48.86424918344915
 31
0.0
  0
LINE
  5
7A
330
1F
100
AcDbEntity
  8
0
100
AcDbLine
 10
-104.6907209564319
 20
50.8115717959051
 30
0.0
 11
-103.8594920250608
 21
50.8115717959051
 31
0.0
  0
LINE
  5
7B
330
1F
100
AcDbEntity
  8
0
100
AcDbLine
 10
-105.399488423879
 20
48.86424918344915
 30
0.0
 11
-104.6907209564319
 21
50.8115717959051
 31
0.0
  0
LINE
  5
7C
330
1F
100
AcDbEntity
  8
0
100
AcDbLine
 10
-106.2307173552501
 20
48.86424918344915
 30
0.0
 11
-105.399488423879
 21
48.86424918344915
 31
0.0
  0
LINE
  5
7D
330
1F
100
AcDbEntity
  8
0
100
AcDbLine
 10
-106.9394848226978
 20
50.8115717959051
 30
0.0
 11
-106.2307173552501
 21
48.86424918344915
 31
0.0
  0
LINE
  5
7E
330
1F
100
AcDbEntity
  8
0
100
AcDbLine
 10
-107.7707137540689
 20
50.8115717959051
 30
0.0
 11
-106.9394848226978
 21
50.8115717959051
 31
0.0
  0
LINE
  5
7F
330
1F
100
AcDbEntity
  8
0
100
AcDbLine
 10
-108.4794812215164
 20
48.86424918344915
 30
0.0
 11
-107.7707137540689
 21
50.8115717959051
 31
0.0
  0
LINE
  5
80
330
1F
100
AcDbEntity
  8
0
100
AcDbLine
 10
-109.3107101528873
 20
48.86424918344915
 30
0.0
 11
-108.4794812215164
 21
48.86424918344915
 31
0.0
  0
LINE
  5
81
330
1F
100
AcDbEntity
  8
0
100
AcDbLine
 10
-110.0194776203346
 20
50.8115717959051
 30
0.0
 11
-109.3107101528873
 21
48.86424918344915
 31
0.0
  0
LINE
  5
82
330
1F
100
AcDbEntity
  8
0
100
AcDbLine
 10
-110.8507065517059
 20
50.81157179590515
 30
0.0
 11
-110.0194776203346
 21
50.8115717959051
 31
0.0
  0
LINE
  5
83
330
1F
100
AcDbEntity
  8
0
100
AcDbLine
 10
-111.5594740191534
 20
48.86424918344915
 30
0.0
 11
-110.8507065517059
 21
50.81157179590515
 31
0.0
  0
LINE
  5
84
330
1F
100
AcDbEntity
  8
0
100
AcDbLine
 10
-112.3907029505245
 20
48.86424918344915
 30
0.0
 11
-111.5594740191534
 21
48.86424918344915
 31
0.0
  0
LINE
  5
85
330
1F
100
AcDbEntity
  8
0
100
AcDbLine
 10
-113.099470417972
 20
50.8115717959051
 30
0.0
 11
-112.3907029505245
 21
48.86424918344915
 31
0.0
  0
LINE
  5
86
330
1F
100
AcDbEntity
  8
0
100
AcDbLine
 10
-113.9306993493429
 20
50.8115717959051
 30
0.0
 11
-113.099470417972
 21
50.8115717959051
 31
0.0
  0
LINE
  5
87
330
1F
100
AcDbEntity
  8
0
100
AcDbLine
 10
-114.6394668167902
 20
48.86424918344915
 30
0.0
 11
-113.9306993493429
 21
50.8115717959051
 31
0.0
  0
LINE
  5
88
330
1F
100
AcDbEntity
  8
0
100
AcDbLine
 10
0.8602630945989076
 20
50.81157179590515
 30
0.0
 11
1.569030562046575
 21
48.86424918344915
 31
0.0
  0
LINE
  5
89
330
1F
100
AcDbEntity
  8
0
100
AcDbLine
 10
0.0290341632279734
 20
50.81157179590515
 30
0.0
 11
0.8602630945989076
 21
50.81157179590515
 31
0.0
  0
LINE
  5
8A
330
1F
100
AcDbEntity
  8
0
100
AcDbLine
 10
-0.6797333042195134
 20
48.86424918344915
 30
0.0
 11
0.0290341632279734
 21
50.81157179590515
 31
0.0
  0
LINE
  5
8B
330
1F
100
AcDbEntity
  8
0
100
AcDbLine
 10
-1.510962235590628
 20
48.86424918344915
 30
0.0
 11
-0.6797333042195134
 21
48.86424918344915
 31
0.0
  0
LINE
  5
8C
330
1F
100
AcDbEntity
  8
0
100
AcDbLine
 10
-2.219729703037935
 20
50.8115717959051
 30
0.0
 11
-1.510962235590628
 21
48.86424918344915
 31
0.0
  0
LINE
  5
8D
330
1F
100
AcDbEntity
  8
0
100
AcDbLine
 10
-3.050958634409049
 20
50.8115717959051
 30
0.0
 11
-2.219729703037935
 21
50.8115717959051
 31
0.0
  0
LINE
  5
8E
330
1F
100
AcDbEntity
  8
0
100
AcDbLine
 10
-3.759726101856536
 20
48.86424918344915
 30
0.0
 11
-3.050958634409049
 21
50.8115717959051
 31
0.0
  0
LINE
  5
8F
330
1F
100
AcDbEntity
  8
0
100
AcDbLine
 10
-4.590955033227651
 20
48.86424918344915
 30
0.0
 11
-3.759726101856536
 21
48.86424918344915
 31
0.0
  0
LINE
  5
90
330
1F
100
AcDbEntity
  8
0
100
AcDbLine
 10
-5.299722500675138
 20
50.8115717959051
 30
0.0
 11
-4.590955033227651
 21
48.86424918344915
 31
0.0
  0
LINE
  5
91
330
1F
100
AcDbEntity
  8
0
100
AcDbLine
 10
-6.130951432046071
 20
50.8115717959051
 30
0.0
 11
-5.299722500675138
 21
50.8115717959051
 31
0.0
  0
LINE
  5
92
330
1F
100
AcDbEntity
  8
0
100
AcDbLine
 10
-6.839718899493558
 20
48.86424918344915
 30
0.0
 11
-6.130951432046071
 21
50.8115717959051
 31
0.0
  0
LINE
  5
93
330
1F
100
AcDbEntity
  8
0
100
AcDbLine
 10
69.32887211006161
 20
48.86424918344915
 30
0.0
 11
70.16010104143272
 21
48.86424918344915
 31
0.0
  0
LINE
  5
94
330
1F
100
AcDbEntity
  8
0
100
AcDbLine
 10
-60.0308253906946
 20
48.86424918344915
 30
0.0
 11
-59.19959645932366
 21
48.86424918344915
 31
0.0
  0
LINE
  5
95
330
1F
100
AcDbEntity
  8
0
100
AcDbLine
 10
-60.7395928581419
 20
50.81157179590515
 30
0.0
 11
-60.0308253906946
 21
48.86424918344915
 31
0.0
  0
LINE
  5
96
330
1F
100
AcDbEntity
  8
0
100
AcDbLine
 10
-61.57082178951302
 20
50.8115717959051
 30
0.0
 11
-60.7395928581419
 21
50.81157179590515
 31
0.0
  0
LINE
  5
97
330
1F
100
AcDbEntity
  8
0
100
AcDbLine
 10
-62.27958925696051
 20
48.86424918344915
 30
0.0
 11
-61.57082178951302
 21
50.8115717959051
 31
0.0
  0
LINE
  5
98
330
1F
100
AcDbEntity
  8
0
100
AcDbLine
 10
-63.11081818833162
 20
48.86424918344915
 30
0.0
 11
-62.27958925696051
 21
48.86424918344915
 31
0.0
  0
LINE
  5
99
330
1F
100
AcDbEntity
  8
0
100
AcDbLine
 10
-63.81958565577911
 20
50.8115717959051
 30
0.0
 11
-63.11081818833162
 21
48.86424918344915
 31
0.0
  0
LINE
  5
9A
330
1F
100
AcDbEntity
  8
0
100
AcDbLine
 10
-64.65081458715004
 20
50.8115717959051
 30
0.0
 11
-63.81958565577911
 21
50.8115717959051
 31
0.0
  0
LINE
  5
9B
330
1F
100
AcDbEntity
  8
0
100
AcDbLine
 10
-65.35958205459752
 20
48.86424918344915
 30
0.0
 11
-64.65081458715004
 21
50.8115717959051
 31
0.0
  0
LINE
  5
9C
330
1F
100
AcDbEntity
  8
0
100
AcDbLine
 10
-66.19081098596864
 20
48.86424918344915
 30
0.0
 11
-65.35958205459752
 21
48.86424918344915
 31
0.0
  0
LINE
  5
9D
330
1F
100
AcDbEntity
  8
0
100
AcDbLine
 10
-66.89957845341613
 20
50.8115717959051
 30
0.0
 11
-66.19081098596864
 21
48.86424918344915
 31
0.0
  0
LINE
  5
9E
330
1F
100
AcDbEntity
  8
0
100
AcDbLine
 10
-67.73080738478724
 20
50.8115717959051
 30
0.0
 11
-66.89957845341613
 21
50.8115717959051
 31
0.0
  0
LINE
  5
9F
330
1F
100
AcDbEntity
  8
0
100
AcDbLine
 10
-68.43957485223473
 20
48.86424918344915
 30
0.0
 11
-67.73080738478724
 21
50.8115717959051
 31
0.0
  0
LINE
  5
A0
330
1F
100
AcDbEntity
  8
0
100
AcDbLine
 10
-69.27080378360549
 20
48.86424918344915
 30
0.0
 11
-68.43957485223473
 21
48.86424918344915
 31
0.0
  0
LINE
  5
A1
330
1F
100
AcDbEntity
  8
0
100
AcDbLine
 10
-69.97957125105297
 20
50.81157179590515
 30
0.0
 11
-69.27080378360549
 21
48.86424918344915
 31
0.0
  0
LINE
  5
A2
330
1F
100
AcDbEntity
  8
0
100
AcDbLine
 10
-70.81080018242409
 20
50.81157179590515
 30
0.0
 11
-69.97957125105297
 21
50.81157179590515
 31
0.0
  0
LINE
  5
A3
330
1F
100
AcDbEntity
  8
0
100
AcDbLine
 10
-71.51956764987176
 20
48.86424918344915
 30
0.0
 11
-70.81080018242409
 21
50.81157179590515
 31
0.0
  0
LINE
  5
A4
330
1F
100
AcDbEntity
  8
0
100
AcDbLine
 10
-72.35079658124269
 20
48.86424918344915
 30
0.0
 11
-71.51956764987176
 21
48.86424918344915
 31
0.0
  0
LINE
  5
A5
330
1F
100
AcDbEntity
  8
0
100
AcDbLine
 10
-73.05956404869018
 20
50.8115717959051
 30
0.0
 11
-72.35079658124269
 21
48.86424918344915
 31
0.0
  0
LINE
  5
A6
330
1F
100
AcDbEntity
  8
0
100
AcDbLine
 10
7.020248689873133
 20
50.8115717959051
 30
0.0
 11
7.72901615732044
 21
48.86424918344915
 31
0.0
  0
LINE
  5
A7
330
1F
100
AcDbEntity
  8
0
100
AcDbLine
 10
6.189019758502019
 20
50.8115717959051
 30
0.0
 11
7.020248689873133
 21
50.8115717959051
 31
0.0
  0
LINE
  5
A8
330
1F
100
AcDbEntity
  8
0
100
AcDbLine
 10
5.480252291054532
 20
48.86424918344915
 30
0.0
 11
6.189019758502019
 21
50.8115717959051
 31
0.0
  0
LINE
  5
A9
330
1F
100
AcDbEntity
  8
0
100
AcDbLine
 10
4.649023359683597
 20
48.86424918344915
 30
0.0
 11
5.480252291054532
 21
48.86424918344915
 31
0.0
  0
LINE
  5
AA
330
1F
100
AcDbEntity
  8
0
100
AcDbLine
 10
3.940255892236111
 20
50.81157179590515
 30
0.0
 11
4.649023359683597
 21
48.86424918344915
 31
0.0
  0
LINE
  5
AB
330
1F
100
AcDbEntity
  8
0
100
AcDbLine
 10
3.109026960864996
 20
50.81157179590515
 30
0.0
 11
3.940255892236111
 21
50.81157179590515
 31
0.0
  0
LINE
  5
AC
330
1F
100
AcDbEntity
  8
0
100
AcDbLine
 10
2.400259493417328
 20
48.86424918344915
 30
0.0
 11
3.109026960864996
 21
50.81157179590515
 31
0.0
  0
LINE
  5
AD
330
1F
100
AcDbEntity
  8
0
100
AcDbLine
 10
1.569030562046575
 20
48.86424918344915
 30
0.0
 11
2.400259493417328
 21
48.86424918344915
 31
0.0
  0
LINE
  5
AE
330
1F
100
AcDbEntity
  8
0
100
AcDbLine
 10
-12.2909370273203
 20
50.8115717959051
 30
0.0
 11
-11.45970809594918
 21
50.81157179590515
 31
0.0
  0
LINE
  5
AF
330
1F
100
AcDbEntity
  8
0
100
AcDbLine
 10
-12.9997044947676
 20
48.86424918344915
 30
0.0
 11
-12.2909370273203
 21
50.8115717959051
 31
0.0
  0
LINE
  5
B0
330
1F
100
AcDbEntity
  8
0
100
AcDbLine
 10
-13.83093342613872
 20
48.86424918344915
 30
0.0
 11
-12.9997044947676
 21
48.86424918344915
 31
0.0
  0
LINE
  5
B1
330
1F
100
AcDbEntity
  8
0
100
AcDbLine
 10
-14.53970089358621
 20
50.8115717959051
 30
0.0
 11
-13.83093342613872
 21
48.86424918344915
 31
0.0
  0
LINE
  5
B2
330
1F
100
AcDbEntity
  8
0
100
AcDbLine
 10
-15.37092982495714
 20
50.8115717959051
 30
0.0
 11
-14.53970089358621
 21
50.8115717959051
 31
0.0
  0
LINE
  5
B3
330
1F
100
AcDbEntity
  8
0
100
AcDbLine
 10
33.2001874697881
 20
48.86424918344915
 30
0.0
 11
33.9089549372354
 21
50.8115717959051
 31
0.0
  0
LINE
  5
B4
330
1F
100
AcDbEntity
  8
0
100
AcDbLine
 10
32.36895853841698
 20
48.86424918344915
 30
0.0
 11
33.2001874697881
 21
48.86424918344915
 31
0.0
  0
LINE
  5
B5
330
1F
100
AcDbEntity
  8
0
100
AcDbLine
 10
31.66019107096932
 20
50.81157179590515
 30
0.0
 11
32.36895853841698
 21
48.86424918344915
 31
0.0
  0
LINE
  5
B6
330
1F
100
AcDbEntity
  8
0
100
AcDbLine
 10
30.82896213959838
 20
50.81157179590515
 30
0.0
 11
31.66019107096932
 21
50.81157179590515
 31
0.0
  0
LINE
  5
B7
330
1F
100
AcDbEntity
  8
0
100
AcDbLine
 10
30.12019467215107
 20
48.86424918344915
 30
0.0
 11
30.82896213959838
 21
50.81157179590515
 31
0.0
  0
LINE
  5
B8
330
1F
100
AcDbEntity
  8
0
100
AcDbLine
 10
29.28896574077996
 20
48.86424918344915
 30
0.0
 11
30.12019467215107
 21
48.86424918344915
 31
0.0
  0
LINE
  5
B9
330
1F
100
AcDbEntity
  8
0
100
AcDbLine
 10
100.9600290178031
 20
48.86424918344915
 30
0.0
 11
101.6687964852506
 21
50.8115717959051
 31
0.0
  0
LINE
  5
BA
330
1F
100
AcDbEntity
  8
0
100
AcDbLine
 10
112.4487712769803
 20
48.86424918344915
 30
0.0
 11
113.2800002083512
 21
48.86424918344915
 31
0.0
  0
LINE
  5
BB
330
1F
100
AcDbEntity
  8
0
100
AcDbLine
 10
111.7400038095326
 20
50.8115717959051
 30
0.0
 11
112.4487712769803
 21
48.86424918344915
 31
0.0
  0
LINE
  5
BC
330
1F
100
AcDbEntity
  8
0
100
AcDbLine
 10
110.9087748781617
 20
50.8115717959051
 30
0.0
 11
111.7400038095326
 21
50.8115717959051
 31
0.0
  0
LINE
  5
BD
330
1F
100
AcDbEntity
  8
0
100
AcDbLine
 10
110.2000074107142
 20
48.86424918344915
 30
0.0
 11
110.9087748781617
 21
50.8115717959051
 31
0.0
  0
LINE
  5
BE
330
1F
100
AcDbEntity
  8
0
100
AcDbLine
 10
109.3687784793431
 20
48.86424918344915
 30
0.0
 11
110.2000074107142
 21
48.86424918344915
 31
0.0
  0
LINE
  5
BF
330
1F
100
AcDbEntity
  8
0
100
AcDbLine
 10
108.6600110118956
 20
50.81157179590515
 30
0.0
 11
109.3687784793431
 21
48.86424918344915
 31
0.0
  0
LINE
  5
C0
330
1F
100
AcDbEntity
  8
0
100
AcDbLine
 10
107.8287820805247
 20
50.81157179590515
 30
0.0
 11
108.6600110118956
 21
50.81157179590515
 31
0.0
  0
LINE
  5
C1
330
1F
100
AcDbEntity
  8
0
100
AcDbLine
 10
107.1200146130772
 20
48.86424918344915
 30
0.0
 11
107.8287820805247
 21
50.81157179590515
 31
0.0
  0
LINE
  5
C2
330
1F
100
AcDbEntity
  8
0
100
AcDbLine
 10
106.2887856817061
 20
48.86424918344915
 30
0.0
 11
107.1200146130772
 21
48.86424918344915
 31
0.0
  0
LINE
  5
C3
330
1F
100
AcDbEntity
  8
0
100
AcDbLine
 10
57.00890091951334
 20
48.86424918344915
 30
0.0
 11
57.84012985088427
 21
48.86424918344915
 31
0.0
  0
LINE
  5
C4
330
1F
100
AcDbEntity
  8
0
100
AcDbLine
 10
15.42899815141327
 20
50.8115717959051
 30
0.0
 11
16.26022708278438
 21
50.8115717959051
 31
0.0
  0
LINE
  5
C5
330
1F
100
AcDbEntity
  8
0
100
AcDbLine
 10
14.72023068396578
 20
48.86424918344915
 30
0.0
 11
15.42899815141327
 21
50.8115717959051
 31
0.0
  0
LINE
  5
C6
330
1F
100
AcDbEntity
  8
0
100
AcDbLine
 10
13.88900175259467
 20
48.86424918344915
 30
0.0
 11
14.72023068396578
 21
48.86424918344915
 31
0.0
  0
LINE
  5
C7
330
1F
100
AcDbEntity
  8
0
100
AcDbLine
 10
54.76013705324726
 20
48.86424918344915
 30
0.0
 11
55.46890452069474
 21
50.8115717959051
 31
0.0
  0
LINE
  5
C8
330
1F
100
AcDbEntity
  8
0
100
AcDbLine
 10
53.92890812187632
 20
48.86424918344915
 30
0.0
 11
54.76013705324726
 21
48.86424918344915
 31
0.0
  0
LINE
  5
C9
330
1F
100
AcDbEntity
  8
0
100
AcDbLine
 10
53.22014065442865
 20
50.8115717959051
 30
0.0
 11
53.92890812187632
 21
48.86424918344915
 31
0.0
  0
LINE
  5
CA
330
1F
100
AcDbEntity
  8
0
100
AcDbLine
 10
-115.4706957481614
 20
48.86424918344915
 30
0.0
 11
-114.6394668167902
 21
48.86424918344915
 31
0.0
  0
LINE
  5
CB
330
1F
100
AcDbEntity
  8
0
100
AcDbLine
 10
-116.1794632156088
 20
50.8115717959051
 30
0.0
 11
-115.4706957481614
 21
48.86424918344915
 31
0.0
  0
LINE
  5
CC
330
1F
100
AcDbEntity
  8
0
100
AcDbLine
 10
-117.01069214698
 20
50.81157179590515
 30
0.0
 11
-116.1794632156088
 21
50.8115717959051
 31
0.0
  0
LINE
  5
CD
330
1F
100
AcDbEntity
  8
0
100
AcDbLine
 10
-117.7194596144274
 20
48.86424918344915
 30
0.0
 11
-117.01069214698
 21
50.81157179590515
 31
0.0
  0
LINE
  5
CE
330
1F
100
AcDbEntity
  8
0
100
AcDbLine
 10
-110.2166446451756
 20
36.4091580949128
 30
0.0
 11
-110.2694596144275
 21
36.81032761482173
 31
0.0
  0
LINE
  5
CF
330
1F
100
AcDbEntity
  8
0
100
AcDbLine
 10
-110.2694596144275
 20
36.81032761482173
 30
0.0
 11
-110.2464361784321
 21
45.10362157238625
 31
0.0
  0
LINE
  5
D0
330
1F
100
AcDbEntity
  8
0
100
AcDbLine
 10
-110.2464361784321
 20
45.10362157238625
 30
0.0
 11
-110.2639625185799
 21
45.18382380606758
 31
0.0
  0
LINE
  5
D1
330
1F
100
AcDbEntity
  8
0
100
AcDbLine
 10
-110.2639625185799
 20
45.18382380606758
 30
0.0
 11
-110.2450914299579
 21
45.58801470984358
 31
0.0
  0
LINE
  5
D2
330
1F
100
AcDbEntity
  8
0
100
AcDbLine
 10
-110.2450914299579
 20
45.58801470984358
 30
0.0
 11
-110.1222510543331
 21
45.9735489454147
 31
0.0
  0
LINE
  5
D3
330
1F
100
AcDbEntity
  8
0
100
AcDbLine
 10
-110.1222510543331
 20
45.9735489454147
 30
0.0
 11
-109.9038127603013
 21
46.31415299175222
 31
0.0
  0
LINE
  5
D4
330
1F
100
AcDbEntity
  8
0
100
AcDbLine
 10
-109.9038127603013
 20
46.31415299175222
 30
0.0
 11
-109.6046627566144
 21
46.58661524597309
 31
0.0
  0
LINE
  5
D5
330
1F
100
AcDbEntity
  8
0
100
AcDbLine
 10
-109.6046627566144
 20
46.58661524597309
 30
0.0
 11
-109.2451876216549
 21
46.77236785571728
 31
0.0
  0
LINE
  5
D6
330
1F
100
AcDbEntity
  8
0
100
AcDbLine
 10
-109.2451876216549
 20
46.77236785571728
 30
0.0
 11
-108.8498849918091
 21
46.85875208760145
 31
0.0
  0
LINE
  5
D7
330
1F
100
AcDbEntity
  8
0
100
AcDbLine
 10
-108.8498849918091
 20
46.85875208760145
 30
0.0
 11
-108.4456940880333
 21
46.83988099897938
 31
0.0
  0
LINE
  5
D8
330
1F
100
AcDbEntity
  8
0
100
AcDbLine
 10
-108.4456940880333
 20
46.83988099897938
 30
0.0
 11
-108.0601598524622
 21
46.7170406233547
 31
0.0
  0
LINE
  5
D9
330
1F
100
AcDbEntity
  8
0
100
AcDbLine
 10
-108.0601598524622
 20
46.7170406233547
 30
0.0
 11
-107.7195558061245
 21
46.49860232932289
 31
0.0
  0
LINE
  5
DA
330
1F
100
AcDbEntity
  8
0
100
AcDbLine
 10
-107.7195558061245
 20
46.49860232932289
 30
0.0
 11
-107.4470935519037
 21
46.19945232563593
 31
0.0
  0
LINE
  5
DB
330
1F
100
AcDbEntity
  8
0
100
AcDbLine
 10
-107.4470935519037
 20
46.19945232563593
 30
0.0
 11
-107.2613409421595
 21
45.83997719067631
 31
0.0
  0
LINE
  5
DC
330
1F
100
AcDbEntity
  8
0
100
AcDbLine
 10
-107.2613409421595
 20
45.83997719067631
 30
0.0
 11
-107.1749567102753
 21
45.44467456083076
 31
0.0
  0
LINE
  5
DD
330
1F
100
AcDbEntity
  8
0
100
AcDbLine
 10
-107.1749567102753
 20
45.44467456083076
 30
0.0
 11
-107.1694596144275
 21
36.81032761482173
 31
0.0
  0
LINE
  5
DE
330
1F
100
AcDbEntity
  8
0
100
AcDbLine
 10
-107.1694596144275
 20
36.81032761482173
 30
0.0
 11
-107.2222745836795
 21
36.4091580949128
 31
0.0
  0
LINE
  5
DF
330
1F
100
AcDbEntity
  8
0
100
AcDbLine
 10
-107.2222745836795
 20
36.4091580949128
 30
0.0
 11
-107.3771202385615
 21
36.03532761482173
 31
0.0
  0
LINE
  5
E0
330
1F
100
AcDbEntity
  8
0
100
AcDbLine
 10
-107.3771202385615
 20
36.03532761482173
 30
0.0
 11
-107.6234441035883
 21
35.71431210398257
 31
0.0
  0
LINE
  5
E1
330
1F
100
AcDbEntity
  8
0
100
AcDbLine
 10
-107.6234441035883
 20
35.71431210398257
 30
0.0
 11
-107.9444596144275
 21
35.46798823895583
 31
0.0
  0
LINE
  5
E2
330
1F
100
AcDbEntity
  8
0
100
AcDbLine
 10
-107.9444596144275
 20
35.46798823895583
 30
0.0
 11
-108.3182900945185
 21
35.31314258407365
 31
0.0
  0
LINE
  5
E3
330
1F
100
AcDbEntity
  8
0
100
AcDbLine
 10
-108.3182900945185
 20
35.31314258407365
 30
0.0
 11
-108.7194596144275
 21
35.26032761482173
 31
0.0
  0
LINE
  5
E4
330
1F
100
AcDbEntity
  8
0
100
AcDbLine
 10
-108.7194596144275
 20
35.26032761482173
 30
0.0
 11
-109.1206291343363
 21
35.31314258407365
 31
0.0
  0
LINE
  5
E5
330
1F
100
AcDbEntity
  8
0
100
AcDbLine
 10
-109.1206291343363
 20
35.31314258407365
 30
0.0
 11
-109.4944596144275
 21
35.46798823895583
 31
0.0
  0
LINE
  5
E6
330
1F
100
AcDbEntity
  8
0
100
AcDbLine
 10
-109.4944596144275
 20
35.46798823895583
 30
0.0
 11
-109.8154751252666
 21
35.71431210398257
 31
0.0
  0
LINE
  5
E7
330
1F
100
AcDbEntity
  8
0
100
AcDbLine
 10
-109.8154751252666
 20
35.71431210398257
 30
0.0
 11
-110.0617989902934
 21
36.03532761482173
 31
0.0
  0
LINE
  5
E8
330
1F
100
AcDbEntity
  8
0
100
AcDbLine
 10
-110.0617989902934
 20
36.03532761482173
 30
0.0
 11
-110.2166446451756
 21
36.4091580949128
 31
0.0
  0
LINE
  5
E9
330
1F
100
AcDbEntity
  8
0
100
AcDbLine
 10
-86.21076417060938
 20
50.81157179590515
 30
0.0
 11
-85.37953523923845
 21
50.8115717959051
 31
0.0
  0
LINE
  5
EA
330
1F
100
AcDbEntity
  8
0
100
AcDbLine
 10
-86.91953163805687
 20
48.86424918344915
 30
0.0
 11
-86.21076417060938
 21
50.81157179590515
 31
0.0
  0
LINE
  5
EB
330
1F
100
AcDbEntity
  8
0
100
AcDbLine
 10
-87.7507605694278
 20
48.86424918344915
 30
0.0
 11
-86.91953163805687
 21
48.86424918344915
 31
0.0
  0
LINE
  5
EC
330
1F
100
AcDbEntity
  8
0
100
AcDbLine
 10
-88.45952803687547
 20
50.8115717959051
 30
0.0
 11
-87.7507605694278
 21
48.86424918344915
 31
0.0
  0
LINE
  5
ED
330
1F
100
AcDbEntity
  8
0
100
AcDbLine
 10
-89.29075696824658
 20
50.81157179590515
 30
0.0
 11
-88.45952803687547
 21
50.8115717959051
 31
0.0
  0
LINE
  5
EE
330
1F
100
AcDbEntity
  8
0
100
AcDbLine
 10
-89.99952443569407
 20
48.86424918344915
 30
0.0
 11
-89.29075696824658
 21
50.81157179590515
 31
0.0
  0
LINE
  5
EF
330
1F
100
AcDbEntity
  8
0
100
AcDbLine
 10
-90.83075336706518
 20
48.86424918344915
 30
0.0
 11
-89.99952443569407
 21
48.86424918344915
 31
0.0
  0
LINE
  5
F0
330
1F
100
AcDbEntity
  8
0
100
AcDbLine
 10
-16.07969729240481
 20
48.86424918344915
 30
0.0
 11
-15.37092982495714
 21
50.8115717959051
 31
0.0
  0
LINE
  5
F1
330
1F
100
AcDbEntity
  8
0
100
AcDbLine
 10
-16.91092622377592
 20
48.86424918344915
 30
0.0
 11
-16.07969729240481
 21
48.86424918344915
 31
0.0
  0
LINE
  5
F2
330
1F
100
AcDbEntity
  8
0
100
AcDbLine
 10
-39.17964327468275
 20
50.81157179590515
 30
0.0
 11
-38.47087580723508
 21
48.86424918344915
 31
0.0
  0
LINE
  5
F3
330
1F
100
AcDbEntity
  8
0
100
AcDbLine
 10
-40.01087220605368
 20
50.81157179590515
 30
0.0
 11
-39.17964327468275
 21
50.81157179590515
 31
0.0
  0
LINE
  5
F4
330
1F
100
AcDbEntity
  8
0
100
AcDbLine
 10
-40.71963967350117
 20
48.86424918344915
 30
0.0
 11
-40.01087220605368
 21
50.81157179590515
 31
0.0
  0
LINE
  5
F5
330
1F
100
AcDbEntity
  8
0
100
AcDbLine
 10
-41.55086860487229
 20
48.86424918344915
 30
0.0
 11
-40.71963967350117
 21
48.86424918344915
 31
0.0
  0
LINE
  5
F6
330
1F
100
AcDbEntity
  8
0
100
AcDbLine
 10
-42.25963607231959
 20
50.8115717959051
 30
0.0
 11
-41.55086860487229
 21
48.86424918344915
 31
0.0
  0
LINE
  5
F7
330
1F
100
AcDbEntity
  8
0
100
AcDbLine
 10
-43.0908650036907
 20
50.8115717959051
 30
0.0
 11
-42.25963607231959
 21
50.8115717959051
 31
0.0
  0
LINE
  5
F8
330
1F
100
AcDbEntity
  8
0
100
AcDbLine
 10
-43.79963247113819
 20
48.86424918344915
 30
0.0
 11
-43.0908650036907
 21
50.8115717959051
 31
0.0
  0
LINE
  5
F9
330
1F
100
AcDbEntity
  8
0
100
AcDbLine
 10
-44.6308614025093
 20
48.86424918344915
 30
0.0
 11
-43.79963247113819
 21
48.86424918344915
 31
0.0
  0
LINE
  5
FA
330
1F
100
AcDbEntity
  8
0
100
AcDbLine
 10
-49.25085059896475
 20
50.8115717959051
 30
0.0
 11
-48.41962166759382
 21
50.8115717959051
 31
0.0
  0
LINE
  5
FB
330
1F
100
AcDbEntity
  8
0
100
AcDbLine
 10
-49.95961806641242
 20
48.86424918344915
 30
0.0
 11
-49.25085059896475
 21
50.8115717959051
 31
0.0
  0
LINE
  5
FC
330
1F
100
AcDbEntity
  8
0
100
AcDbLine
 10
-50.79084699778335
 20
48.86424918344915
 30
0.0
 11
-49.95961806641242
 21
48.86424918344915
 31
0.0
  0
LINE
  5
FD
330
1F
100
AcDbEntity
  8
0
100
AcDbLine
 10
-51.49961446523083
 20
50.8115717959051
 30
0.0
 11
-50.79084699778335
 21
48.86424918344915
 31
0.0
  0
LINE
  5
FE
330
1F
100
AcDbEntity
  8
0
100
AcDbLine
 10
-52.33084339660195
 20
50.8115717959051
 30
0.0
 11
-51.49961446523083
 21
50.8115717959051
 31
0.0
  0
LINE
  5
FF
330
1F
100
AcDbEntity
  8
0
100
AcDbLine
 10
93.26004702371048
 20
50.8115717959051
 30
0.0
 11
93.96881449115797
 21
48.86424918344915
 31
0.0
  0
LINE
  5
100
330
1F
100
AcDbEntity
  8
0
100
AcDbLine
 10
92.42881809233937
 20
50.8115717959051
 30
0.0
 11
93.26004702371048
 21
50.8115717959051
 31
0.0
  0
LINE
  5
101
330
1F
100
AcDbEntity
  8
0
100
AcDbLine
 10
91.72005062489188
 20
48.86424918344915
 30
0.0
 11
92.42881809233937
 21
50.8115717959051
 31
0.0
  0
LINE
  5
102
330
1F
100
AcDbEntity
  8
0
100
AcDbLine
 10
90.88882169352077
 20
48.86424918344915
 30
0.0
 11
91.72005062489188
 21
48.86424918344915
 31
0.0
  0
LINE
  5
103
330
1F
100
AcDbEntity
  8
0
100
AcDbLine
 10
90.18005422607328
 20
50.8115717959051
 30
0.0
 11
90.88882169352077
 21
48.86424918344915
 31
0.0
  0
LINE
  5
104
330
1F
100
AcDbEntity
  8
0
100
AcDbLine
 10
89.34882529470235
 20
50.8115717959051
 30
0.0
 11
90.18005422607328
 21
50.8115717959051
 31
0.0
  0
LINE
  5
105
330
1F
100
AcDbEntity
  8
0
100
AcDbLine
 10
88.64005782725486
 20
48.86424918344915
 30
0.0
 11
89.34882529470235
 21
50.8115717959051
 31
0.0
  0
LINE
  5
106
330
1F
100
AcDbEntity
  8
0
100
AcDbLine
 10
87.80882889588375
 20
48.86424918344915
 30
0.0
 11
88.64005782725486
 21
48.86424918344915
 31
0.0
  0
LINE
  5
107
330
1F
100
AcDbEntity
  8
0
100
AcDbLine
 10
87.10006142843645
 20
50.8115717959051
 30
0.0
 11
87.80882889588375
 21
48.86424918344915
 31
0.0
  0
LINE
  5
108
330
1F
100
AcDbEntity
  8
0
100
AcDbLine
 10
86.26883249706533
 20
50.8115717959051
 30
0.0
 11
87.10006142843645
 21
50.8115717959051
 31
0.0
  0
LINE
  5
109
330
1F
100
AcDbEntity
  8
0
100
AcDbLine
 10
85.56006502961785
 20
48.86424918344915
 30
0.0
 11
86.26883249706533
 21
50.8115717959051
 31
0.0
  0
LINE
  5
10A
330
1F
100
AcDbEntity
  8
0
100
AcDbLine
 10
84.72883609824673
 20
48.86424918344915
 30
0.0
 11
85.56006502961785
 21
48.86424918344915
 31
0.0
  0
LINE
  5
10B
330
1F
100
AcDbEntity
  8
0
100
AcDbLine
 10
84.02006863079924
 20
50.8115717959051
 30
0.0
 11
84.72883609824673
 21
48.86424918344915
 31
0.0
  0
LINE
  5
10C
330
1F
100
AcDbEntity
  8
0
100
AcDbLine
 10
56.30013345206586
 20
50.8115717959051
 30
0.0
 11
57.00890091951334
 21
48.86424918344915
 31
0.0
  0
LINE
  5
10D
330
1F
100
AcDbEntity
  8
0
100
AcDbLine
 10
55.46890452069474
 20
50.8115717959051
 30
0.0
 11
56.30013345206586
 21
50.8115717959051
 31
0.0
  0
LINE
  5
10E
330
1F
100
AcDbEntity
  8
0
100
AcDbLine
 10
-117.7194596144274
 20
33.26032761482168
 30
0.0
 11
-117.7194596144274
 21
48.86424918344915
 31
0.0
  0
LINE
  5
10F
330
1F
100
AcDbEntity
  8
0
100
AcDbLine
 10
127.8487352651659
 20
33.26032761482168
 30
0.0
 11
-117.7194596144274
 21
33.26032761482168
 31
0.0
  0
LINE
  5
110
330
1F
100
AcDbEntity
  8
0
100
AcDbLine
 10
127.8487352651658
 20
48.86424918344915
 30
0.0
 11
127.8487352651659
 21
33.26032761482168
 31
0.0
  0
LINE
  5
111
330
1F
100
AcDbEntity
  8
0
100
AcDbLine
 10
127.1399677977183
 20
50.8115717959051
 30
0.0
 11
127.8487352651658
 21
48.86424918344915
 31
0.0
  0
LINE
  5
112
330
1F
100
AcDbEntity
  8
0
100
AcDbLine
 10
126.3087388663475
 20
50.8115717959051
 30
0.0
 11
127.1399677977183
 21
50.8115717959051
 31
0.0
  0
LINE
  5
113
330
1F
100
AcDbEntity
  8
0
100
AcDbLine
 10
125.5999713989
 20
48.86424918344915
 30
0.0
 11
126.3087388663475
 21
50.8115717959051
 31
0.0
  0
LINE
  5
114
330
1F
100
AcDbEntity
  8
0
100
AcDbLine
 10
124.7687424675284
 20
48.86424918344915
 30
0.0
 11
125.5999713989
 21
48.86424918344915
 31
0.0
  0
LINE
  5
115
330
1F
100
AcDbEntity
  8
0
100
AcDbLine
 10
124.0599750000811
 20
50.81157179590515
 30
0.0
 11
124.7687424675284
 21
48.86424918344915
 31
0.0
  0
LINE
  5
116
330
1F
100
AcDbEntity
  8
0
100
AcDbLine
 10
123.2287460687101
 20
50.81157179590515
 30
0.0
 11
124.0599750000811
 21
50.81157179590515
 31
0.0
  0
LINE
  5
117
330
1F
100
AcDbEntity
  8
0
100
AcDbLine
 10
122.5199786012628
 20
48.86424918344915
 30
0.0
 11
123.2287460687101
 21
50.81157179590515
 31
0.0
  0
LINE
  5
118
330
1F
100
AcDbEntity
  8
0
100
AcDbLine
 10
121.6887496698919
 20
48.86424918344915
 30
0.0
 11
122.5199786012628
 21
48.86424918344915
 31
0.0
  0
LINE
  5
119
330
1F
100
AcDbEntity
  8
0
100
AcDbLine
 10
120.9799822024446
 20
50.8115717959051
 30
0.0
 11
121.6887496698919
 21
48.86424918344915
 31
0.0
  0
LINE
  5
11A
330
1F
100
AcDbEntity
  8
0
100
AcDbLine
 10
120.1487532710729
 20
50.8115717959051
 30
0.0
 11
120.9799822024446
 21
50.8115717959051
 31
0.0
  0
LINE
  5
11B
330
1F
100
AcDbEntity
  8
0
100
AcDbLine
 10
119.4399858036264
 20
48.86424918344915
 30
0.0
 11
120.1487532710729
 21
50.8115717959051
 31
0.0
  0
LINE
  5
11C
330
1F
100
AcDbEntity
  8
0
100
AcDbLine
 10
118.6087568722545
 20
48.86424918344915
 30
0.0
 11
119.4399858036264
 21
48.86424918344915
 31
0.0
  0
LINE
  5
11D
330
1F
100
AcDbEntity
  8
0
100
AcDbLine
 10
117.899989404807
 20
50.81157179590515
 30
0.0
 11
118.6087568722545
 21
48.86424918344915
 31
0.0
  0
LINE
  5
11E
330
1F
100
AcDbEntity
  8
0
100
AcDbLine
 10
117.0687604734357
 20
50.8115717959051
 30
0.0
 11
117.899989404807
 21
50.81157179590515
 31
0.0
  0
LINE
  5
11F
330
1F
100
AcDbEntity
  8
0
100
AcDbLine
 10
116.3599930059882
 20
48.86424918344915
 30
0.0
 11
117.0687604734357
 21
50.8115717959051
 31
0.0
  0
LINE
  5
120
330
1F
100
AcDbEntity
  8
0
100
AcDbLine
 10
115.5287640746171
 20
48.86424918344915
 30
0.0
 11
116.3599930059882
 21
48.86424918344915
 31
0.0
  0
LINE
  5
121
330
1F
100
AcDbEntity
  8
0
100
AcDbLine
 10
114.8199966071698
 20
50.8115717959051
 30
0.0
 11
115.5287640746171
 21
48.86424918344915
 31
0.0
  0
LINE
  5
122
330
1F
100
AcDbEntity
  8
0
100
AcDbLine
 10
113.9887676757987
 20
50.8115717959051
 30
0.0
 11
114.8199966071698
 21
50.8115717959051
 31
0.0
  0
LINE
  5
123
330
1F
100
AcDbEntity
  8
0
100
AcDbLine
 10
113.2800002083512
 20
48.86424918344915
 30
0.0
 11
113.9887676757987
 21
50.8115717959051
 31
0.0
  0
LINE
  5
124
330
1F
100
AcDbEntity
  8
0
100
AcDbLine
 10
73.24009383906957
 20
48.86424918344915
 30
0.0
 11
73.94886130651724
 21
50.81157179590515
 31
0.0
  0
LINE
  5
125
330
1F
100
AcDbEntity
  8
0
100
AcDbLine
 10
72.40886490769864
 20
48.86424918344915
 30
0.0
 11
73.24009383906957
 21
48.86424918344915
 31
0.0
  0
LINE
  5
126
330
1F
100
AcDbEntity
  8
0
100
AcDbLine
 10
71.70009744025116
 20
50.8115717959051
 30
0.0
 11
72.40886490769864
 21
48.86424918344915
 31
0.0
  0
LINE
  5
127
330
1F
100
AcDbEntity
  8
0
100
AcDbLine
 10
70.86886850888004
 20
50.81157179590515
 30
0.0
 11
71.70009744025116
 21
50.8115717959051
 31
0.0
  0
LINE
  5
128
330
1F
100
AcDbEntity
  8
0
100
AcDbLine
 10
70.16010104143272
 20
48.86424918344915
 30
0.0
 11
70.86886850888004
 21
50.81157179590515
 31
0.0
  0
LINE
  5
129
330
1F
100
AcDbEntity
  8
0
100
AcDbLine
 10
68.62010464261395
 20
50.81157179590515
 30
0.0
 11
69.32887211006161
 21
48.86424918344915
 31
0.0
  0
LINE
  5
12A
330
1F
100
AcDbEntity
  8
0
100
AcDbLine
 10
67.78887571124301
 20
50.8115717959051
 30
0.0
 11
68.62010464261395
 21
50.81157179590515
 31
0.0
  0
LINE
  5
12B
330
1F
100
AcDbEntity
  8
0
100
AcDbLine
 10
67.08010824379552
 20
48.86424918344915
 30
0.0
 11
67.78887571124301
 21
50.8115717959051
 31
0.0
  0
LINE
  5
12C
330
1F
100
AcDbEntity
  8
0
100
AcDbLine
 10
66.2488793124244
 20
48.86424918344915
 30
0.0
 11
67.08010824379552
 21
48.86424918344915
 31
0.0
  0
LINE
  5
12D
330
1F
100
AcDbEntity
  8
0
100
AcDbLine
 10
65.5401118449771
 20
50.8115717959051
 30
0.0
 11
66.2488793124244
 21
48.86424918344915
 31
0.0
  0
LINE
  5
12E
330
1F
100
AcDbEntity
  8
0
100
AcDbLine
 10
64.70888291360599
 20
50.8115717959051
 30
0.0
 11
65.5401118449771
 21
50.8115717959051
 31
0.0
  0
LINE
  5
12F
330
1F
100
AcDbEntity
  8
0
100
AcDbLine
 10
64.0001154461585
 20
48.86424918344915
 30
0.0
 11
64.70888291360599
 21
50.8115717959051
 31
0.0
  0
LINE
  5
130
330
1F
100
AcDbEntity
  8
0
100
AcDbLine
 10
52.38891172305772
 20
50.81157179590515
 30
0.0
 11
53.22014065442865
 21
50.8115717959051
 31
0.0
  0
LINE
  5
131
330
1F
100
AcDbEntity
  8
0
100
AcDbLine
 10
51.68014425561041
 20
48.86424918344915
 30
0.0
 11
52.38891172305772
 21
50.81157179590515
 31
0.0
  0
LINE
  5
132
330
1F
100
AcDbEntity
  8
0
100
AcDbLine
 10
50.8489153242393
 20
48.86424918344915
 30
0.0
 11
51.68014425561041
 21
48.86424918344915
 31
0.0
  0
LINE
  5
133
330
1F
100
AcDbEntity
  8
0
100
AcDbLine
 10
50.14014785679163
 20
50.81157179590515
 30
0.0
 11
50.8489153242393
 21
48.86424918344915
 31
0.0
  0
LINE
  5
134
330
1F
100
AcDbEntity
  8
0
100
AcDbLine
 10
49.30891892542051
 20
50.81157179590515
 30
0.0
 11
50.14014785679163
 21
50.81157179590515
 31
0.0
  0
LINE
  5
135
330
1F
100
AcDbEntity
  8
0
100
AcDbLine
 10
48.60015145797321
 20
48.86424918344915
 30
0.0
 11
49.30891892542051
 21
50.81157179590515
 31
0.0
  0
LINE
  5
136
330
1F
100
AcDbEntity
  8
0
100
AcDbLine
 10
47.7689225266021
 20
48.86424918344915
 30
0.0
 11
48.60015145797321
 21
48.86424918344915
 31
0.0
  0
LINE
  5
137
330
1F
100
AcDbEntity
  8
0
100
AcDbLine
 10
47.06015505915461
 20
50.8115717959051
 30
0.0
 11
47.7689225266021
 21
48.86424918344915
 31
0.0
  0
LINE
  5
138
330
1F
100
AcDbEntity
  8
0
100
AcDbLine
 10
46.2289261277835
 20
50.8115717959051
 30
0.0
 11
47.06015505915461
 21
50.8115717959051
 31
0.0
  0
LINE
  5
139
330
1F
100
AcDbEntity
  8
0
100
AcDbLine
 10
45.52015866033619
 20
48.86424918344915
 30
0.0
 11
46.2289261277835
 21
50.8115717959051
 31
0.0
  0
LINE
  5
13A
330
1F
100
AcDbEntity
  8
0
100
AcDbLine
 10
44.68892972896507
 20
48.86424918344915
 30
0.0
 11
45.52015866033619
 21
48.86424918344915
 31
0.0
  0
LINE
  5
13B
330
1F
100
AcDbEntity
  8
0
100
AcDbLine
 10
43.98016226151758
 20
50.8115717959051
 30
0.0
 11
44.68892972896507
 21
48.86424918344915
 31
0.0
  0
LINE
  5
13C
330
1F
100
AcDbEntity
  8
0
100
AcDbLine
 10
43.14893333014665
 20
50.81157179590515
 30
0.0
 11
43.98016226151758
 21
50.8115717959051
 31
0.0
  0
LINE
  5
13D
330
1F
100
AcDbEntity
  8
0
100
AcDbLine
 10
42.44016586269916
 20
48.86424918344915
 30
0.0
 11
43.14893333014665
 21
50.81157179590515
 31
0.0
  0
LINE
  5
13E
330
1F
100
AcDbEntity
  8
0
100
AcDbLine
 10
41.60893693132805
 20
48.86424918344915
 30
0.0
 11
42.44016586269916
 21
48.86424918344915
 31
0.0
  0
LINE
  5
13F
330
1F
100
AcDbEntity
  8
0
100
AcDbLine
 10
40.90016946388056
 20
50.8115717959051
 30
0.0
 11
41.60893693132805
 21
48.86424918344915
 31
0.0
  0
LINE
  5
140
330
1F
100
AcDbEntity
  8
0
100
AcDbLine
 10
40.06894053250944
 20
50.81157179590515
 30
0.0
 11
40.90016946388056
 21
50.8115717959051
 31
0.0
  0
LINE
  5
141
330
1F
100
AcDbEntity
  8
0
100
AcDbLine
 10
39.36017306506196
 20
48.86424918344915
 30
0.0
 11
40.06894053250944
 21
50.81157179590515
 31
0.0
  0
LINE
  5
142
330
1F
100
AcDbEntity
  8
0
100
AcDbLine
 10
38.5289441336912
 20
48.86424918344915
 30
0.0
 11
39.36017306506196
 21
48.86424918344915
 31
0.0
  0
LINE
  5
143
330
1F
100
AcDbEntity
  8
0
100
AcDbLine
 10
37.82017666624354
 20
50.8115717959051
 30
0.0
 11
38.5289441336912
 21
48.86424918344915
 31
0.0
  0
LINE
  5
144
330
1F
100
AcDbEntity
  8
0
100
AcDbLine
 10
36.98894773487243
 20
50.8115717959051
 30
0.0
 11
37.82017666624354
 21
50.8115717959051
 31
0.0
  0
LINE
  5
145
330
1F
100
AcDbEntity
  8
0
100
AcDbLine
 10
36.28018026742512
 20
48.86424918344915
 30
0.0
 11
36.98894773487243
 21
50.8115717959051
 31
0.0
  0
LINE
  5
146
330
1F
100
AcDbEntity
  8
0
100
AcDbLine
 10
35.448951336054
 20
48.86424918344915
 30
0.0
 11
36.28018026742512
 21
48.86424918344915
 31
0.0
  0
LINE
  5
147
330
1F
100
AcDbEntity
  8
0
100
AcDbLine
 10
34.7401838686067
 20
50.8115717959051
 30
0.0
 11
35.448951336054
 21
48.86424918344915
 31
0.0
  0
LINE
  5
148
330
1F
100
AcDbEntity
  8
0
100
AcDbLine
 10
33.9089549372354
 20
50.8115717959051
 30
0.0
 11
34.7401838686067
 21
50.8115717959051
 31
0.0
  0
LINE
  5
149
330
1F
100
AcDbEntity
  8
0
100
AcDbLine
 10
28.58019827333247
 20
50.81157179590515
 30
0.0
 11
29.28896574077996
 21
48.86424918344915
 31
0.0
  0
LINE
  5
14A
330
1F
100
AcDbEntity
  8
0
100
AcDbLine
 10
27.74896934196136
 20
50.8115717959051
 30
0.0
 11
28.58019827333247
 21
50.81157179590515
 31
0.0
  0
LINE
  5
14B
330
1F
100
AcDbEntity
  8
0
100
AcDbLine
 10
27.04020187451387
 20
48.86424918344915
 30
0.0
 11
27.74896934196136
 21
50.8115717959051
 31
0.0
  0
LINE
  5
14C
330
1F
100
AcDbEntity
  8
0
100
AcDbLine
 10
26.20897294314294
 20
48.86424918344915
 30
0.0
 11
27.04020187451387
 21
48.86424918344915
 31
0.0
  0
LINE
  5
14D
330
1F
100
AcDbEntity
  8
0
100
AcDbLine
 10
25.50020547569527
 20
50.8115717959051
 30
0.0
 11
26.20897294314294
 21
48.86424918344915
 31
0.0
  0
LINE
  5
14E
330
1F
100
AcDbEntity
  8
0
100
AcDbLine
 10
24.66897654432433
 20
50.8115717959051
 30
0.0
 11
25.50020547569527
 21
50.8115717959051
 31
0.0
  0
LINE
  5
14F
330
1F
100
AcDbEntity
  8
0
100
AcDbLine
 10
23.96020907687685
 20
48.86424918344915
 30
0.0
 11
24.66897654432433
 21
50.8115717959051
 31
0.0
  0
LINE
  5
150
330
1F
100
AcDbEntity
  8
0
100
AcDbLine
 10
23.12898014550591
 20
48.86424918344915
 30
0.0
 11
23.96020907687685
 21
48.86424918344915
 31
0.0
  0
LINE
  5
151
330
1F
100
AcDbEntity
  8
0
100
AcDbLine
 10
22.42021267805843
 20
50.81157179590515
 30
0.0
 11
23.12898014550591
 21
48.86424918344915
 31
0.0
  0
LINE
  5
152
330
1F
100
AcDbEntity
  8
0
100
AcDbLine
 10
21.58898374668731
 20
50.81157179590515
 30
0.0
 11
22.42021267805843
 21
50.81157179590515
 31
0.0
  0
LINE
  5
153
330
1F
100
AcDbEntity
  8
0
100
AcDbLine
 10
20.88021627924001
 20
48.86424918344915
 30
0.0
 11
21.58898374668731
 21
50.81157179590515
 31
0.0
  0
LINE
  5
154
330
1F
100
AcDbEntity
  8
0
100
AcDbLine
 10
20.04898734786889
 20
48.86424918344915
 30
0.0
 11
20.88021627924001
 21
48.86424918344915
 31
0.0
  0
LINE
  5
155
330
1F
100
AcDbEntity
  8
0
100
AcDbLine
 10
19.34021988042122
 20
50.81157179590515
 30
0.0
 11
20.04898734786889
 21
48.86424918344915
 31
0.0
  0
LINE
  5
156
330
1F
100
AcDbEntity
  8
0
100
AcDbLine
 10
18.50899094905011
 20
50.81157179590515
 30
0.0
 11
19.34021988042122
 21
50.81157179590515
 31
0.0
  0
LINE
  5
157
330
1F
100
AcDbEntity
  8
0
100
AcDbLine
 10
17.8002234816028
 20
48.86424918344915
 30
0.0
 11
18.50899094905011
 21
50.81157179590515
 31
0.0
  0
LINE
  5
158
330
1F
100
AcDbEntity
  8
0
100
AcDbLine
 10
16.96899455023169
 20
48.86424918344915
 30
0.0
 11
17.8002234816028
 21
48.86424918344915
 31
0.0
  0
LINE
  5
159
330
1F
100
AcDbEntity
  8
0
100
AcDbLine
 10
16.26022708278438
 20
50.8115717959051
 30
0.0
 11
16.96899455023169
 21
48.86424918344915
 31
0.0
  0
LINE
  5
15A
330
1F
100
AcDbEntity
  8
0
100
AcDbLine
 10
13.18023428514718
 20
50.81157179590515
 30
0.0
 11
13.88900175259467
 21
48.86424918344915
 31
0.0
  0
LINE
  5
15B
330
1F
100
AcDbEntity
  8
0
100
AcDbLine
 10
12.34900535377606
 20
50.81157179590515
 30
0.0
 11
13.18023428514718
 21
50.81157179590515
 31
0.0
  0
LINE
  5
15C
330
1F
100
AcDbEntity
  8
0
100
AcDbLine
 10
11.64023788632876
 20
48.86424918344915
 30
0.0
 11
12.34900535377606
 21
50.81157179590515
 31
0.0
  0
LINE
  5
15D
330
1F
100
AcDbEntity
  8
0
100
AcDbLine
 10
10.80900895495764
 20
48.86424918344915
 30
0.0
 11
11.64023788632876
 21
48.86424918344915
 31
0.0
  0
LINE
  5
15E
330
1F
100
AcDbEntity
  8
0
100
AcDbLine
 10
10.10024148751016
 20
50.81157179590515
 30
0.0
 11
10.80900895495764
 21
48.86424918344915
 31
0.0
  0
LINE
  5
15F
330
1F
100
AcDbEntity
  8
0
100
AcDbLine
 10
9.26901255613904
 20
50.81157179590515
 30
0.0
 11
10.10024148751016
 21
50.81157179590515
 31
0.0
  0
LINE
  5
160
330
1F
100
AcDbEntity
  8
0
100
AcDbLine
 10
8.560245088691554
 20
48.86424918344915
 30
0.0
 11
9.26901255613904
 21
50.81157179590515
 31
0.0
  0
LINE
  5
161
330
1F
100
AcDbEntity
  8
0
100
AcDbLine
 10
7.72901615732044
 20
48.86424918344915
 30
0.0
 11
8.560245088691554
 21
48.86424918344915
 31
0.0
  0
LINE
  5
162
330
1F
100
AcDbEntity
  8
0
100
AcDbLine
 10
-7.670947830864673
 20
48.86424918344915
 30
0.0
 11
-6.839718899493558
 21
48.86424918344915
 31
0.0
  0
LINE
  5
163
330
1F
100
AcDbEntity
  8
0
100
AcDbLine
 10
-8.37971529831216
 20
50.8115717959051
 30
0.0
 11
-7.670947830864673
 21
48.86424918344915
 31
0.0
  0
LINE
  5
164
330
1F
100
AcDbEntity
  8
0
100
AcDbLine
 10
-9.210944229683275
 20
50.8115717959051
 30
0.0
 11
-8.37971529831216
 21
50.8115717959051
 31
0.0
  0
LINE
  5
165
330
1F
100
AcDbEntity
  8
0
100
AcDbLine
 10
-9.919711697130762
 20
48.86424918344915
 30
0.0
 11
-9.210944229683275
 21
50.8115717959051
 31
0.0
  0
LINE
  5
166
330
1F
100
AcDbEntity
  8
0
100
AcDbLine
 10
-10.75094062850152
 20
48.86424918344915
 30
0.0
 11
-9.919711697130762
 21
48.86424918344915
 31
0.0
  0
LINE
  5
167
330
1F
100
AcDbEntity
  8
0
100
AcDbLine
 10
-11.45970809594918
 20
50.81157179590515
 30
0.0
 11
-10.75094062850152
 21
48.86424918344915
 31
0.0
  0
LINE
  5
168
330
1F
100
AcDbEntity
  8
0
100
AcDbLine
 10
-17.61969369122341
 20
50.8115717959051
 30
0.0
 11
-16.91092622377592
 21
48.86424918344915
 31
0.0
  0
LINE
  5
169
330
1F
100
AcDbEntity
  8
0
100
AcDbLine
 10
-18.45092262259434
 20
50.8115717959051
 30
0.0
 11
-17.61969369122341
 21
50.8115717959051
 31
0.0
  0
LINE
  5
16A
330
1F
100
AcDbEntity
  8
0
100
AcDbLine
 10
-26.85967208413448
 20
50.8115717959051
 30
0.0
 11
-26.15090461668699
 21
48.86424918344915
 31
0.0
  0
LINE
  5
16B
330
1F
100
AcDbEntity
  8
0
100
AcDbLine
 10
-27.69090101550541
 20
50.8115717959051
 30
0.0
 11
-26.85967208413448
 21
50.8115717959051
 31
0.0
  0
LINE
  5
16C
330
1F
100
AcDbEntity
  8
0
100
AcDbLine
 10
-28.39966848295308
 20
48.86424918344915
 30
0.0
 11
-27.69090101550541
 21
50.8115717959051
 31
0.0
  0
LINE
  5
16D
330
1F
100
AcDbEntity
  8
0
100
AcDbLine
 10
-29.23089741432401
 20
48.86424918344915
 30
0.0
 11
-28.39966848295308
 21
48.86424918344915
 31
0.0
  0
LINE
  5
16E
330
1F
100
AcDbEntity
  8
0
100
AcDbLine
 10
-29.9396648817715
 20
50.8115717959051
 30
0.0
 11
-29.23089741432401
 21
48.86424918344915
 31
0.0
  0
LINE
  5
16F
330
1F
100
AcDbEntity
  8
0
100
AcDbLine
 10
-30.77089381314261
 20
50.8115717959051
 30
0.0
 11
-29.9396648817715
 21
50.8115717959051
 31
0.0
  0
LINE
  5
170
330
1F
100
AcDbEntity
  8
0
100
AcDbLine
 10
-31.4796612805901
 20
48.86424918344915
 30
0.0
 11
-30.77089381314261
 21
50.8115717959051
 31
0.0
  0
LINE
  5
171
330
1F
100
AcDbEntity
  8
0
100
AcDbLine
 10
-32.31089021196104
 20
48.86424918344915
 30
0.0
 11
-31.4796612805901
 21
48.86424918344915
 31
0.0
  0
LINE
  5
172
330
1F
100
AcDbEntity
  8
0
100
AcDbLine
 10
-33.01965767940852
 20
50.8115717959051
 30
0.0
 11
-32.31089021196104
 21
48.86424918344915
 31
0.0
  0
LINE
  5
173
330
1F
100
AcDbEntity
  8
0
100
AcDbLine
 10
-33.85088661077945
 20
50.8115717959051
 30
0.0
 11
-33.01965767940852
 21
50.8115717959051
 31
0.0
  0
LINE
  5
174
330
1F
100
AcDbEntity
  8
0
100
AcDbLine
 10
-34.55965407822713
 20
48.86424918344915
 30
0.0
 11
-33.85088661077945
 21
50.8115717959051
 31
0.0
  0
LINE
  5
175
330
1F
100
AcDbEntity
  8
0
100
AcDbLine
 10
-35.39088300959806
 20
48.86424918344915
 30
0.0
 11
-34.55965407822713
 21
48.86424918344915
 31
0.0
  0
LINE
  5
176
330
1F
100
AcDbEntity
  8
0
100
AcDbLine
 10
-36.09965047704554
 20
50.8115717959051
 30
0.0
 11
-35.39088300959806
 21
48.86424918344915
 31
0.0
  0
LINE
  5
177
330
1F
100
AcDbEntity
  8
0
100
AcDbLine
 10
-36.93087940841666
 20
50.8115717959051
 30
0.0
 11
-36.09965047704554
 21
50.8115717959051
 31
0.0
  0
LINE
  5
178
330
1F
100
AcDbEntity
  8
0
100
AcDbLine
 10
-37.63964687586414
 20
48.86424918344915
 30
0.0
 11
-36.93087940841666
 21
50.8115717959051
 31
0.0
  0
LINE
  5
179
330
1F
100
AcDbEntity
  8
0
100
AcDbLine
 10
-38.47087580723508
 20
48.86424918344915
 30
0.0
 11
-37.63964687586414
 21
48.86424918344915
 31
0.0
  0
LINE
  5
17A
330
1F
100
AcDbEntity
  8
0
100
AcDbLine
 10
-45.33962886995679
 20
50.81157179590515
 30
0.0
 11
-44.6308614025093
 21
48.86424918344915
 31
0.0
  0
LINE
  5
17B
330
1F
100
AcDbEntity
  8
0
100
AcDbLine
 10
-46.17085780132791
 20
50.81157179590515
 30
0.0
 11
-45.33962886995679
 21
50.81157179590515
 31
0.0
  0
LINE
  5
17C
330
1F
100
AcDbEntity
  8
0
100
AcDbLine
 10
-46.87962526877521
 20
48.86424918344915
 30
0.0
 11
-46.17085780132791
 21
50.81157179590515
 31
0.0
  0
LINE
  5
17D
330
1F
100
AcDbEntity
  8
0
100
AcDbLine
 10
-47.71085420014633
 20
48.86424918344915
 30
0.0
 11
-46.87962526877521
 21
48.86424918344915
 31
0.0
  0
LINE
  5
17E
330
1F
100
AcDbEntity
  8
0
100
AcDbLine
 10
-48.41962166759382
 20
50.8115717959051
 30
0.0
 11
-47.71085420014633
 21
48.86424918344915
 31
0.0
  0
LINE
  5
17F
330
1F
100
AcDbEntity
  8
0
100
AcDbLine
 10
-53.03961086404944
 20
48.86424918344915
 30
0.0
 11
-52.33084339660195
 21
50.8115717959051
 31
0.0
  0
LINE
  5
180
330
1F
100
AcDbEntity
  8
0
100
AcDbLine
 10
-53.87083979542037
 20
48.86424918344915
 30
0.0
 11
-53.03961086404944
 21
48.86424918344915
 31
0.0
  0
LINE
  5
181
330
1F
100
AcDbEntity
  8
0
100
AcDbLine
 10
-54.57960726286804
 20
50.8115717959051
 30
0.0
 11
-53.87083979542037
 21
48.86424918344915
 31
0.0
  0
LINE
  5
182
330
1F
100
AcDbEntity
  8
0
100
AcDbLine
 10
-55.41083619423897
 20
50.8115717959051
 30
0.0
 11
-54.57960726286804
 21
50.8115717959051
 31
0.0
  0
LINE
  5
183
330
1F
100
AcDbEntity
  8
0
100
AcDbLine
 10
-56.11960366168646
 20
48.86424918344915
 30
0.0
 11
-55.41083619423897
 21
50.8115717959051
 31
0.0
  0
LINE
  5
184
330
1F
100
AcDbEntity
  8
0
100
AcDbLine
 10
-56.9508325930574
 20
48.86424918344915
 30
0.0
 11
-56.11960366168646
 21
48.86424918344915
 31
0.0
  0
LINE
  5
185
330
1F
100
AcDbEntity
  8
0
100
AcDbLine
 10
-57.65960006050506
 20
50.8115717959051
 30
0.0
 11
-56.9508325930574
 21
48.86424918344915
 31
0.0
  0
LINE
  5
186
330
1F
100
AcDbEntity
  8
0
100
AcDbLine
 10
-58.490828991876
 20
50.8115717959051
 30
0.0
 11
-57.65960006050506
 21
50.8115717959051
 31
0.0
  0
LINE
  5
187
330
1F
100
AcDbEntity
  8
0
100
AcDbLine
 10
-59.19959645932366
 20
48.86424918344915
 30
0.0
 11
-58.490828991876
 21
50.8115717959051
 31
0.0
  0
LINE
  5
188
330
1F
100
AcDbEntity
  8
0
100
AcDbLine
 10
-73.89079298006129
 20
50.8115717959051
 30
0.0
 11
-73.05956404869018
 21
50.8115717959051
 31
0.0
  0
LINE
  5
189
330
1F
100
AcDbEntity
  8
0
100
AcDbLine
 10
-74.5995604475086
 20
48.86424918344915
 30
0.0
 11
-73.89079298006129
 21
50.8115717959051
 31
0.0
  0
LINE
  5
18A
330
1F
100
AcDbEntity
  8
0
100
AcDbLine
 10
-75.4307893788799
 20
48.86424918344915
 30
0.0
 11
-74.5995604475086
 21
48.86424918344915
 31
0.0
  0
LINE
  5
18B
330
1F
100
AcDbEntity
  8
0
100
AcDbLine
 10
-76.13955684632738
 20
50.8115717959051
 30
0.0
 11
-75.4307893788799
 21
48.86424918344915
 31
0.0
  0
LINE
  5
18C
330
1F
100
AcDbEntity
  8
0
100
AcDbLine
 10
-76.97078577769831
 20
50.81157179590515
 30
0.0
 11
-76.13955684632738
 21
50.8115717959051
 31
0.0
  0
LINE
  5
18D
330
1F
100
AcDbEntity
  8
0
100
AcDbLine
 10
-77.6795532451458
 20
48.86424918344915
 30
0.0
 11
-76.97078577769831
 21
50.81157179590515
 31
0.0
  0
LINE
  5
18E
330
1F
100
AcDbEntity
  8
0
100
AcDbLine
 10
-78.51078217651673
 20
48.86424918344915
 30
0.0
 11
-77.6795532451458
 21
48.86424918344915
 31
0.0
  0
LINE
  5
18F
330
1F
100
AcDbEntity
  8
0
100
AcDbLine
 10
-79.21954964396421
 20
50.8115717959051
 30
0.0
 11
-78.51078217651673
 21
48.86424918344915
 31
0.0
  0
LINE
  5
190
330
1F
100
AcDbEntity
  8
0
100
AcDbLine
 10
-80.05077857533533
 20
50.81157179590515
 30
0.0
 11
-79.21954964396421
 21
50.8115717959051
 31
0.0
  0
LINE
  5
191
330
1F
100
AcDbEntity
  8
0
100
AcDbLine
 10
-80.75954604278282
 20
48.86424918344915
 30
0.0
 11
-80.05077857533533
 21
50.81157179590515
 31
0.0
  0
LINE
  5
192
330
1F
100
AcDbEntity
  8
0
100
AcDbLine
 10
-81.59077497415393
 20
48.86424918344915
 30
0.0
 11
-80.75954604278282
 21
48.86424918344915
 31
0.0
  0
LINE
  5
193
330
1F
100
AcDbEntity
  8
0
100
AcDbLine
 10
-82.29954244160106
 20
50.8115717959051
 30
0.0
 11
-81.59077497415393
 21
48.86424918344915
 31
0.0
  0
LINE
  5
194
330
1F
100
AcDbEntity
  8
0
100
AcDbLine
 10
-83.13077137297218
 20
50.8115717959051
 30
0.0
 11
-82.29954244160106
 21
50.8115717959051
 31
0.0
  0
LINE
  5
195
330
1F
100
AcDbEntity
  8
0
100
AcDbLine
 10
-83.83953884041985
 20
48.86424918344915
 30
0.0
 11
-83.13077137297218
 21
50.8115717959051
 31
0.0
  0
LINE
  5
196
330
1F
100
AcDbEntity
  8
0
100
AcDbLine
 10
-84.67076777179096
 20
48.86424918344915
 30
0.0
 11
-83.83953884041985
 21
48.86424918344915
 31
0.0
  0
LINE
  5
197
330
1F
100
AcDbEntity
  8
0
100
AcDbLine
 10
-85.37953523923845
 20
50.8115717959051
 30
0.0
 11
-84.67076777179096
 21
48.86424918344915
 31
0.0
  0
LINE
  5
198
330
1F
100
AcDbEntity
  8
0
100
AcDbLine
 10
-91.53952083451232
 20
50.8115717959051
 30
0.0
 11
-90.83075336706518
 21
48.86424918344915
 31
0.0
  0
LINE
  5
199
330
1F
100
AcDbEntity
  8
0
100
AcDbLine
 10
-92.37074976588343
 20
50.81157179590515
 30
0.0
 11
-91.53952083451232
 21
50.8115717959051
 31
0.0
  0
LINE
  5
19A
330
1F
100
AcDbEntity
  8
0
100
AcDbLine
 10
-93.07951723333092
 20
48.86424918344915
 30
0.0
 11
-92.37074976588343
 21
50.81157179590515
 31
0.0
  0
LINE
  5
19B
330
1F
100
AcDbEntity
  8
0
100
AcDbLine
 10
-93.91074616470203
 20
48.86424918344915
 30
0.0
 11
-93.07951723333092
 21
48.86424918344915
 31
0.0
  0
LINE
  5
19C
330
1F
100
AcDbEntity
  8
0
100
AcDbLine
 10
-94.61951363214969
 20
50.81157179590515
 30
0.0
 11
-93.91074616470203
 21
48.86424918344915
 31
0.0
  0
LINE
  5
19D
330
1F
100
AcDbEntity
  8
0
100
AcDbLine
 10
-95.45074256352063
 20
50.81157179590515
 30
0.0
 11
-94.61951363214969
 21
50.81157179590515
 31
0.0
  0
ENDSEC
  0
SECTION
  2
OBJECTS
  0
DICTIONARY
  5
C
330
0
100
AcDbDictionary
  3
ACAD_GROUP
350
D
  3
ACAD_LAYOUT
350
1A
  3
ACAD_MATERIAL
350
3B
  3
ACAD_MLEADERSTYLE
350
1C0
  3
ACAD_MLINESTYLE
350
17
  3
ACAD_PLOTSETTINGS
350
19
  3
ACAD_VISUALSTYLE
350
2A
  3
ACDBHEADERROUNDTRIPXREC
350
19E
  3
ACDBVARIABLEDICTIONARY
350
1BE
  0
DICTIONARY
  5
D
102
{ACAD_REACTORS
330
C
102
}
330
C
100
AcDbDictionary
  0
DICTIONARY
  5
1A
102
{ACAD_REACTORS
330
C
102
}
330
C
100
AcDbDictionary
  0
DICTIONARY
  5
3B
102
{ACAD_REACTORS
330
C
102
}
330
C
100
AcDbDictionary
  3
BYBLOCK
350
3D
  3
BYLAYER
350
3C
  3
GLOBAL
350
3E
  0
DICTIONARY
  5
1C0
102
{ACAD_REACTORS
330
C
102
}
330
C
100
AcDbDictionary
  0
DICTIONARY
  5
17
102
{ACAD_REACTORS
330
C
102
}
330
C
100
AcDbDictionary
  3
STANDARD
350
18
  0
DICTIONARY
  5
19
102
{ACAD_REACTORS
330
C
102
}
330
C
100
AcDbDictionary
  0
DICTIONARY
  5
2A
102
{ACAD_REACTORS
330
C
102
}
330
C
100
AcDbDictionary
  3
2DWIREFRAME
350
2F
  3
3D_HIDDEN
350
31
  3
3DWIREFRAME
350
30
  3
BASIC
350
32
  3
BRIGHTEN
350
36
  3
COLORCHANGE
350
3A
  3
CONCEPTUAL
350
34
  3
DIM
350
35
  3
FACEPATTERN
350
39
  3
FLAT
350
2B
  3
FLATWITHEDGES
350
2C
  3
GOURAUD
350
2D
  3
GOURAUDWITHEDGES
350
2E
  3
LINEPATTERN
350
38
  3
REALISTIC
350
33
  3
THICKEN
350
37
  0
DICTIONARY
  5
19E
102
{ACAD_REACTORS
330
C
102
}
330
C
100
AcDbDictionary
  3
CEPSNTYPE
350
1A7
  3
DIMSTYLEDATA
350
1BD
  3
FINGERPRINTGUID
350
1A8
  3
HYPERLINKBASE
350
1A1
  3
INSUNITS
350
1A6
  3
LAYOUTDICT
350
1A3
  3
LWETCUNION
350
1A5
  3
PLOTSETDICT
350
1A4
  3
PSVPSCALE
350
1AA
  3
PUCSBASE
350
1AD
  3
PUCSORGBACK
350
1B3
  3
PUCSORGBOTTOM
350
1AF
  3
PUCSORGFRONT
350
1B2
  3
PUCSORGLEFT
350
1B0
  3
PUCSORGRIGHT
350
1B1
  3
PUCSORGTOP
350
1AE
  3
PUCSORTHOREF
350
1AB
  3
PUCSORTHOVIEW
350
1AC
  3
STYLESHEET
350
1A2
  3
TSTACKALIGN
350
19F
  3
TSTACKSIZE
350
1A0
  3
UCSBASE
350
1B6
  3
UCSORGBACK
350
1BC
  3
UCSORGBOTTOM
350
1B8
  3
UCSORGFRONT
350
1BB
  3
UCSORGLEFT
350
1B9
  3
UCSORGRIGHT
350
1BA
  3
UCSORGTOP
350
1B7
  3
UCSORTHOREF
350
1B4
  3
UCSORTHOVIEW
350
1B5
  3
VERSIONGUID
350
1A9
  0
DICTIONARY
  5
1BE
102
{ACAD_REACTORS
330
C
102
}
330
C
100
AcDbDictionary
  3
DIMASSOC
350
1C1
  3
HIDETEXT
350
1C2
  0
MATERIAL
  5
3D
102
{ACAD_REACTORS
330
3B
102
}
102
{ACAD_XDICTIONARY
360
1C5
102
}
330
3B
100
AcDbMaterial
  1
ByBlock
  0
MATERIAL
  5
3C
102
{ACAD_REACTORS
330
3B
102
}
102
{ACAD_XDICTIONARY
360
1C3
102
}
330
3B
100
AcDbMaterial
  1
ByLayer
  0
MATERIAL
  5
3E
102
{ACAD_REACTORS
330
3B
102
}
102
{ACAD_XDICTIONARY
360
1C7
102
}
330
3B
100
AcDbMaterial
  1
Global
  0
MLINESTYLE
  5
18
102
{ACAD_REACTORS
330
17
102
}
330
17
100
AcDbMlineStyle
  2
Standard
 70
     0
  3

 62
   256
 51
90.0
 52
90.0
 71
     2
 49
0.5
 62
   256
  6
BYLAYER
 49
-0.5
 62
   256
  6
BYLAYER
  0
ACAD_PROXY_OBJECT
  5
2F
102
{ACAD_REACTORS
330
2A
102
}
330
2A
100
AcDbProxyObject
 90
      499
 91
      501
 93
      436
310
42CC9915DA5C99599C985B595049028333333333333E3BF0000000000000FB0107901411070040501600405405064090741402480A0340
1001
ACAD
1000
AcDbSavedByObjectVersion
1070
     0
  0
ACAD_PROXY_OBJECT
  5
31
102
{ACAD_REACTORS
330
2A
102
}
330
2A
100
AcDbProxyObject
 90
      499
 91
      501
 93
      500
310
424CD108121A5919195B90640502408333333333333E3BF0000000000000FB01079024090700405020000000000001110200405405064090740C02480A0340
1001
ACAD
1000
AcDbSavedByObjectVersion
1070
     0
  0
ACAD_PROXY_OBJECT
  5
30
102
{ACAD_REACTORS
330
2A
102
}
330
2A
100
AcDbProxyObject
 90
      499
 91
      501
 93
      436
310
42CCD915DA5C99599C985B595059028333333333333E3BF0000000000000FB0107901411070040501600405405064090741402480A0340
1001
ACAD
1000
AcDbSavedByObjectVersion
1070
     0
  0
ACAD_PROXY_OBJECT
  5
32
102
{ACAD_REACTORS
330
2A
102
}
330
2A
100
AcDbProxyObject
 90
      499
 91
      501
 93
      388
310
4150985CDA58D07406404333333333333E3BF0000000000000FB0107A41107004050150841D405064090741402480A0350
1001
ACAD
1000
AcDbSavedByObjectVersion
1070
     0
  0
ACAD_PROXY_OBJECT
  5
36
102
{ACAD_REACTORS
330
2A
102
}
330
2A
100
AcDbProxyObject
 90
      499
 91
      501
 93
      428
310
42109C9A59DA1D195B90C409028333333333333E3BF0000000000000FB010790141107004050150841D405064090741402480A029950
1001
ACAD
1000
AcDbSavedByObjectVersion
1070
     0
  0
ACAD_PROXY_OBJECT
  5
3A
102
{ACAD_REACTORS
330
2A
102
}
330
2A
100
AcDbProxyObject
 90
      499
 91
      501
 93
      452
310
42D0DBDB1BDC90DA185B99D95104090240C333333333333E3BF0000000000000FB0108901411070040501508421405064090741402480A0350
1001
ACAD
1000
AcDbSavedByObjectVersion
1070
     0
  0
ACAD_PROXY_OBJECT
  5
34
102
{ACAD_REACTORS
330
2A
102
}
330
2A
100
AcDbProxyObject
 90
      499
 91
      501
 93
      500
310
4290DBDB98D95C1D1D585B10940D028333333333333E3BF0000000000000FB0107902409070040501000000000000111010841D405064090740C02480A0340
1001
ACAD
1000
AcDbSavedByObjectVersion
1070
     0
  0
ACAD_PROXY_OBJECT
  5
35
102
{ACAD_REACTORS
330
2A
102
}
330
2A
100
AcDbProxyObject
 90
      499
 91
      501
 93
      412
310
40D11A5B50B409028333333333333E3BF0000000000000FB010790141107004050150841D405064090741402480A02677FFFFFD0
1001
ACAD
1000
AcDbSavedByObjectVersion
1070
     0
  0
ACAD_PROXY_OBJECT
  5
39
102
{ACAD_REACTORS
330
2A
102
}
330
2A
100
AcDbProxyObject
 90
      499
 91
      501
 93
      444
310
42D19858D95C185D1D195C9B90F409028333333333333E3BF0000000000000FB010790141107004050150841D405064090741402480A0350
1001
ACAD
1000
AcDbSavedByObjectVersion
1070
     0
  0
ACAD_PROXY_OBJECT
  5
2B
102
{ACAD_REACTORS
330
2A
102
}
330
2A
100
AcDbProxyObject
 90
      499
 91
      501
 93
      388
310
41119B185D240901404333333333333E3BF0000000000000F9010740A41107004050150841D405064090741402480A1B50
1001
ACAD
1000
AcDbSavedByObjectVersion
1070
     0
  0
ACAD_PROXY_OBJECT
  5
2C
102
{ACAD_REACTORS
330
2A
102
}
330
2A
100
AcDbProxyObject
 90
      499
 91
      501
 93
      476
310
43519B185D15DA5D1A115919D95CD0140901404333333333333E3BF0000000000000F9010740901411070040501600405405064090741402480A1B50
1001
ACAD
1000
AcDbSavedByObjectVersion
1070
     0
  0
ACAD_PROXY_OBJECT
  5
2D
102
{ACAD_REACTORS
330
2A
102
}
330
2A
100
AcDbProxyObject
 90
      499
 91
      501
 93
      412
310
41D1DBDD5C985D5910240902404333333333333E3BF0000000000000F9010740A411070040501641D405064090741402480A1B50
1001
ACAD
1000
AcDbSavedByObjectVersion
1070
     0
  0
ACAD_PROXY_OBJECT
  5
2E
102
{ACAD_REACTORS
330
2A
102
}
330
2A
100
AcDbProxyObject
 90
      499
 91
      501
 93
      500
310
4411DBDD5C985D5915DA5D1A115919D95CD0340902404333333333333E3BF0000000000000F9010740901411070040501600405405064090741402480A1B50
1001
ACAD
1000
AcDbSavedByObjectVersion
1070
     0
  0
ACAD_PROXY_OBJECT
  5
38
102
{ACAD_REACTORS
330
2A
102
}
330
2A
100
AcDbProxyObject
 90
      499
 91
      501
 93
      444
310
42D31A5B995C185D1D195C9B90E409028333333333333E3BF0000000000000FB010790141107004050750841D405064090741402483A0350
1001
ACAD
1000
AcDbSavedByObjectVersion
1070
     0
  0
ACAD_PROXY_OBJECT
  5
33
102
{ACAD_REACTORS
330
2A
102
}
330
2A
100
AcDbProxyObject
 90
      499
 91
      501
 93
      420
310
425499585B1A5CDD1A58D08409028333333333333E3BF0000000000000FB01079019070040501508421405064090741402480A1B40
1001
ACAD
1000
AcDbSavedByObjectVersion
1070
     0
  0
ACAD_PROXY_OBJECT
  5
37
102
{ACAD_REACTORS
330
2A
102
}
330
2A
100
AcDbProxyObject
 90
      499
 91
      501
 93
      412
310
41D51A1A58DAD95B90D409028333333333333E3BF0000000000000FB010790141107004050150C41D405064090741402480A0350
1001
ACAD
1000
AcDbSavedByObjectVersion
1070
     0
  0
XRECORD
  5
1A7
102
{ACAD_REACTORS
330
19E
102
}
330
19E
100
AcDbXrecord
 90
        0
  0
XRECORD
  5
1BD
102
{ACAD_REACTORS
330
19E
102
}
330
19E
100
AcDbXrecord
1000
DSTYLE
1002
{
1070
   340
340
11
1002
}
  0
XRECORD
  5
1A8
102
{ACAD_REACTORS
330
19E
102
}
330
19E
100
AcDbXrecord
  1
{0A4DC6DF-A4E8-4A5A-ADD5-3D2CED81BB66}
  0
XRECORD
  5
1A1
102
{ACAD_REACTORS
330
19E
102
}
330
19E
100
AcDbXrecord
  1

  0
XRECORD
  5
1A6
102
{ACAD_REACTORS
330
19E
102
}
330
19E
100
AcDbXrecord
 90
        1
  0
XRECORD
  5
1A3
102
{ACAD_REACTORS
330
19E
102
}
330
19E
100
AcDbXrecord
340
1A
  0
XRECORD
  5
1A5
102
{ACAD_REACTORS
330
19E
102
}
330
19E
100
AcDbXrecord
 90
    10781
  0
XRECORD
  5
1A4
102
{ACAD_REACTORS
330
19E
102
}
330
19E
100
AcDbXrecord
340
19
  0
XRECORD
  5
1AA
102
{ACAD_REACTORS
330
19E
102
}
330
19E
100
AcDbXrecord
 40
0.0
  0
XRECORD
  5
1AD
102
{ACAD_REACTORS
330
19E
102
}
330
19E
100
AcDbXrecord
340
0
  0
XRECORD
  5
1B3
102
{ACAD_REACTORS
330
19E
102
}
330
19E
100
AcDbXrecord
 10
0.0
 20
0.0
 30
0.0
  0
XRECORD
  5
1AF
102
{ACAD_REACTORS
330
19E
102
}
330
19E
100
AcDbXrecord
 10
0.0
 20
0.0
 30
0.0
  0
XRECORD
  5
1B2
102
{ACAD_REACTORS
330
19E
102
}
330
19E
100
AcDbXrecord
 10
0.0
 20
0.0
 30
0.0
  0
XRECORD
  5
1B0
102
{ACAD_REACTORS
330
19E
102
}
330
19E
100
AcDbXrecord
 10
0.0
 20
0.0
 30
0.0
  0
XRECORD
  5
1B1
102
{ACAD_REACTORS
330
19E
102
}
330
19E
100
AcDbXrecord
 10
0.0
 20
0.0
 30
0.0
  0
XRECORD
  5
1AE
102
{ACAD_REACTORS
330
19E
102
}
330
19E
100
AcDbXrecord
 10
0.0
 20
0.0
 30
0.0
  0
XRECORD
  5
1AB
102
{ACAD_REACTORS
330
19E
102
}
330
19E
100
AcDbXrecord
340
0
  0
XRECORD
  5
1AC
102
{ACAD_REACTORS
330
19E
102
}
330
19E
100
AcDbXrecord
 70
     0
  0
XRECORD
  5
1A2
102
{ACAD_REACTORS
330
19E
102
}
330
19E
100
AcDbXrecord
  1

  0
XRECORD
  5
19F
102
{ACAD_REACTORS
330
19E
102
}
330
19E
100
AcDbXrecord
 90
        1
  0
XRECORD
  5
1A0
102
{ACAD_REACTORS
330
19E
102
}
330
19E
100
AcDbXrecord
 90
       70
  0
XRECORD
  5
1B6
102
{ACAD_REACTORS
330
19E
102
}
330
19E
100
AcDbXrecord
340
0
  0
XRECORD
  5
1BC
102
{ACAD_REACTORS
330
19E
102
}
330
19E
100
AcDbXrecord
 10
0.0
 20
0.0
 30
0.0
  0
XRECORD
  5
1B8
102
{ACAD_REACTORS
330
19E
102
}
330
19E
100
AcDbXrecord
 10
0.0
 20
0.0
 30
0.0
  0
XRECORD
  5
1BB
102
{ACAD_REACTORS
330
19E
102
}
330
19E
100
AcDbXrecord
 10
0.0
 20
0.0
 30
0.0
  0
XRECORD
  5
1B9
102
{ACAD_REACTORS
330
19E
102
}
330
19E
100
AcDbXrecord
 10
0.0
 20
0.0
 30
0.0
  0
XRECORD
  5
1BA
102
{ACAD_REACTORS
330
19E
102
}
330
19E
100
AcDbXrecord
 10
0.0
 20
0.0
 30
0.0
  0
XRECORD
  5
1B7
102
{ACAD_REACTORS
330
19E
102
}
330
19E
100
AcDbXrecord
 10
0.0
 20
0.0
 30
0.0
  0
XRECORD
  5
1B4
102
{ACAD_REACTORS
330
19E
102
}
330
19E
100
AcDbXrecord
340
0
  0
XRECORD
  5
1B5
102
{ACAD_REACTORS
330
19E
102
}
330
19E
100
AcDbXrecord
 70
     0
  0
XRECORD
  5
1A9
102
{ACAD_REACTORS
330
19E
102
}
330
19E
100
AcDbXrecord
  1
{FAEB1C32-E019-11D5-929B-00C0DF256EC4}
  0
DICTIONARYVAR
  5
1C1
102
{ACAD_REACTORS
330
1BE
102
}
330
1BE
100
DictionaryVariables
280
     0
  1
2
  0
DICTIONARYVAR
  5
1C2
102
{ACAD_REACTORS
330
1BE
102
}
330
1BE
100
DictionaryVariables
280
     0
  1
1
  0
DICTIONARY
  5
1C5
330
3D
100
AcDbDictionary
280
     1
  3
ACAD_XREC_ROUNDTRIP
360
1C6
  0
DICTIONARY
  5
1C3
330
3C
100
AcDbDictionary
280
     1
  3
ACAD_XREC_ROUNDTRIP
360
1C4
  0
DICTIONARY
  5
1C7
330
3E
100
AcDbDictionary
280
     1
  3
ACAD_XREC_ROUNDTRIP
360
1C8
  0
XRECORD
  5
1C6
102
{ACAD_REACTORS
330
1C5
102
}
330
1C5
100
AcDbXrecord
102
MATERIAL
148
0.0
149
0.0
149
0.0
 93
        0
 94
      127
282
     0
 72
     1
 77
     1
171
     1
175
     1
179
     1
273
     0
  0
XRECORD
  5
1C4
102
{ACAD_REACTORS
330
1C3
102
}
330
1C3
100
AcDbXrecord
102
MATERIAL
148
0.0
149
0.0
149
0.0
 93
        0
 94
      127
282
     0
 72
     1
 77
     1
171
     1
175
     1
179
     1
273
     0
  0
XRECORD
  5
1C8
102
{ACAD_REACTORS
330
1C7
102
}
330
1C7
100
AcDbXrecord
102
MATERIAL
148
0.0
149
0.0
149
0.0
 93
        0
 94
      127
282
     0
 72
     1
 77
     1
171
     1
175
     1
179
     1
273
     0
  0
ENDSEC
  0
EOF
