  0
SECTION
  2
HEADER
  9
$ACADVER
  1
AC1014
  9
$ACADMAINTVER
 70
     9
  9
$DWGCODEPAGE
  3
ANSI_1252
  9
$INSBASE
 10
0.0
 20
0.0
 30
0.0
  9
$EXTMIN
 10
1.000000000000000E+20
 20
1.000000000000000E+20
 30
1.000000000000000E+20
  9
$EXTMAX
 10
-1.000000000000000E+20
 20
-1.000000000000000E+20
 30
-1.000000000000000E+20
  9
$LIMMIN
 10
0.0
 20
0.0
  9
$LIMMAX
 10
12.0
 20
9.0
  9
$ORTHOMODE
 70
     0
  9
$REGENMODE
 70
     1
  9
$FILLMODE
 70
     1
  9
$QTEXTMODE
 70
     0
  9
$MIRRTEXT
 70
     1
  9
$DRAGMODE
 70
     2
  9
$LTSCALE
 40
1.0
  9
$OSMODE
 70
    37
  9
$ATTMODE
 70
     1
  9
$TEXTSIZE
 40
0.2
  9
$TRACEWID
 40
0.05
  9
$TEXTSTYLE
  7
STANDARD
  9
$CLAYER
  8
0
  9
$CELTYPE
  6
BYLAYER
  9
$CECOLOR
 62
   256
  9
$CELTSCALE
 40
1.0
  9
$DELOBJ
 70
     1
  9
$DISPSILH
 70
     0
  9
$DIMSCALE
 40
1.0
  9
$DIMASZ
 40
0.18
  9
$DIMEXO
 40
0.0625
  9
$DIMDLI
 40
0.38
  9
$DIMRND
 40
0.0
  9
$DIMDLE
 40
0.0
  9
$DIMEXE
 40
0.18
  9
$DIMTP
 40
0.0
  9
$DIMTM
 40
0.0
  9
$DIMTXT
 40
0.18
  9
$DIMCEN
 40
0.09
  9
$DIMTSZ
 40
0.0
  9
$DIMTOL
 70
     0
  9
$DIMLIM
 70
     0
  9
$DIMTIH
 70
     1
  9
$DIMTOH
 70
     1
  9
$DIMSE1
 70
     0
  9
$DIMSE2
 70
     0
  9
$DIMTAD
 70
     0
  9
$DIMZIN
 70
     0
  9
$DIMBLK
  1

  9
$DIMASO
 70
     1
  9
$DIMSHO
 70
     1
  9
$DIMPOST
  1

  9
$DIMAPOST
  1

  9
$DIMALT
 70
     0
  9
$DIMALTD
 70
     2
  9
$DIMALTF
 40
25.4
  9
$DIMLFAC
 40
1.0
  9
$DIMTOFL
 70
     0
  9
$DIMTVP
 40
0.0
  9
$DIMTIX
 70
     0
  9
$DIMSOXD
 70
     0
  9
$DIMSAH
 70
     0
  9
$DIMBLK1
  1

  9
$DIMBLK2
  1

  9
$DIMSTYLE
  2
STANDARD
  9
$DIMCLRD
 70
     0
  9
$DIMCLRE
 70
     0
  9
$DIMCLRT
 70
     0
  9
$DIMTFAC
 40
1.0
  9
$DIMGAP
 40
0.09
  9
$DIMJUST
 70
     0
  9
$DIMSD1
 70
     0
  9
$DIMSD2
 70
     0
  9
$DIMTOLJ
 70
     1
  9
$DIMTZIN
 70
     0
  9
$DIMALTZ
 70
     0
  9
$DIMALTTZ
 70
     0
  9
$DIMFIT
 70
     3
  9
$DIMUPT
 70
     0
  9
$DIMUNIT
 70
     2
  9
$DIMDEC
 70
     4
  9
$DIMTDEC
 70
     4
  9
$DIMALTU
 70
     2
  9
$DIMALTTD
 70
     2
  9
$DIMTXSTY
  7
STANDARD
  9
$DIMAUNIT
 70
     0
  9
$LUNITS
 70
     2
  9
$LUPREC
 70
     4
  9
$SKETCHINC
 40
0.1
  9
$FILLETRAD
 40
0.5
  9
$AUNITS
 70
     0
  9
$AUPREC
 70
     0
  9
$MENU
  1
.
  9
$ELEVATION
 40
0.0
  9
$PELEVATION
 40
0.0
  9
$THICKNESS
 40
0.0
  9
$LIMCHECK
 70
     0
  9
$CHAMFERA
 40
0.5
  9
$CHAMFERB
 40
0.5
  9
$CHAMFERC
 40
1.0
  9
$CHAMFERD
 40
0.0
  9
$SKPOLY
 70
     0
  9
$TDCREATE
 40
2457265.863586007
  9
$TDUPDATE
 40
2457265.863586018
  9
$TDINDWG
 40
0.0000000116
  9
$TDUSRTIMER
 40
0.0000000116
  9
$USRTIMER
 70
     1
  9
$ANGBASE
 50
0.0
  9
$ANGDIR
 70
     0
  9
$PDMODE
 70
     0
  9
$PDSIZE
 40
0.0
  9
$PLINEWID
 40
0.0
  9
$COORDS
 70
     1
  9
$SPLFRAME
 70
     0
  9
$SPLINETYPE
 70
     6
  9
$SPLINESEGS
 70
     8
  9
$ATTDIA
 70
     0
  9
$ATTREQ
 70
     1
  9
$HANDLING
 70
     1
  9
$HANDSEED
  5
E0
  9
$SURFTAB1
 70
     6
  9
$SURFTAB2
 70
     6
  9
$SURFTYPE
 70
     6
  9
$SURFU
 70
     6
  9
$SURFV
 70
     6
  9
$UCSNAME
  2

  9
$UCSORG
 10
0.0
 20
0.0
 30
0.0
  9
$UCSXDIR
 10
1.0
 20
0.0
 30
0.0
  9
$UCSYDIR
 10
0.0
 20
1.0
 30
0.0
  9
$PUCSNAME
  2

  9
$PUCSORG
 10
0.0
 20
0.0
 30
0.0
  9
$PUCSXDIR
 10
1.0
 20
0.0
 30
0.0
  9
$PUCSYDIR
 10
0.0
 20
1.0
 30
0.0
  9
$USERI1
 70
     0
  9
$USERI2
 70
     0
  9
$USERI3
 70
     0
  9
$USERI4
 70
     0
  9
$USERI5
 70
     0
  9
$USERR1
 40
0.0
  9
$USERR2
 40
0.0
  9
$USERR3
 40
0.0
  9
$USERR4
 40
0.0
  9
$USERR5
 40
0.0
  9
$WORLDVIEW
 70
     1
  9
$SHADEDGE
 70
     3
  9
$SHADEDIF
 70
    70
  9
$TILEMODE
 70
     1
  9
$MAXACTVP
 70
    64
  9
$PINSBASE
 10
0.0
 20
0.0
 30
0.0
  9
$PLIMCHECK
 70
     0
  9
$PEXTMIN
 10
1.000000000000000E+20
 20
1.000000000000000E+20
 30
1.000000000000000E+20
  9
$PEXTMAX
 10
-1.000000000000000E+20
 20
-1.000000000000000E+20
 30
-1.000000000000000E+20
  9
$PLIMMIN
 10
0.0
 20
0.0
  9
$PLIMMAX
 10
12.0
 20
9.0
  9
$UNITMODE
 70
     0
  9
$VISRETAIN
 70
     1
  9
$PLINEGEN
 70
     0
  9
$PSLTSCALE
 70
     1
  9
$TREEDEPTH
 70
  3020
  9
$PICKSTYLE
 70
     1
  9
$CMLSTYLE
  2
STANDARD
  9
$CMLJUST
 70
     0
  9
$CMLSCALE
 40
1.0
  9
$PROXYGRAPHICS
 70
     1
  9
$MEASUREMENT
 70
     0
  0
ENDSEC
  0
SECTION
  2
CLASSES
  0
CLASS
  1
ACDBDICTIONARYWDFLT
  2
AcDbDictionaryWithDefault
  3
ObjectDBX Classes
 90
        0
280
     0
281
     0
  0
CLASS
  1
VISUALSTYLE
  2
AcDbVisualStyle
  3
ObjectDBX Classes
 90
     4095
280
     0
281
     0
  0
CLASS
  1
MATERIAL
  2
AcDbMaterial
  3
ObjectDBX Classes
 90
     1153
280
     0
281
     0
  0
CLASS
  1
DICTIONARYVAR
  2
AcDbDictionaryVar
  3
ObjectDBX Classes
 90
        0
280
     0
281
     0
  0
CLASS
  1
XRECORD
  2
AcDbXrecord
  3
AutoCAD 2000
 90
        0
280
     0
281
     0
  0
CLASS
  1
LWPOLYLINE
  2
AcDbPolyline
  3
AutoCAD 2000
 90
        0
280
     0
281
     1
  0
CLASS
  1
HATCH
  2
AcDbHatch
  3
AutoCAD 2000
 90
        0
280
     0
281
     1
  0
CLASS
  1
ACDBPLACEHOLDER
  2
AcDbPlaceHolder
  3
ObjectDBX Classes
 90
        0
280
     0
281
     0
  0
CLASS
  1
LAYOUT
  2
AcDbLayout
  3
ObjectDBX Classes
 90
        0
280
     0
281
     0
  0
ENDSEC
  0
SECTION
  2
TABLES
  0
TABLE
  2
VPORT
  5
8
330
0
100
AcDbSymbolTable
 70
     1
  0
VPORT
  5
29
330
8
100
AcDbSymbolTableRecord
100
AcDbViewportTableRecord
  2
*ACTIVE
 70
     0
 10
0.0
 20
0.0
 11
1.0
 21
1.0
 12
0.0
 22
0.0
 13
0.0
 23
0.0
 14
0.5
 24
0.5
 15
0.5
 25
0.5
 16
0.0
 26
0.0
 36
1.0
 17
0.0
 27
0.0
 37
-1000.0
 40
99.17781746714182
 41
1.914432989690722
 42
50.0
 43
490.897286391025
 44
960.6416007213603
 50
0.0
 51
0.0
 71
     0
 72
   100
 73
     1
 74
     3
 75
     0
 76
     0
 77
     0
 78
     0
  0
ENDTAB
  0
TABLE
  2
LTYPE
  5
5
330
0
100
AcDbSymbolTable
 70
     1
  0
LTYPE
  5
14
330
5
100
AcDbSymbolTableRecord
100
AcDbLinetypeTableRecord
  2
BYBLOCK
 70
     0
  3

 72
    65
 73
     0
 40
0.0
  0
LTYPE
  5
15
330
5
100
AcDbSymbolTableRecord
100
AcDbLinetypeTableRecord
  2
BYLAYER
 70
     0
  3

 72
    65
 73
     0
 40
0.0
  0
LTYPE
  5
16
330
5
100
AcDbSymbolTableRecord
100
AcDbLinetypeTableRecord
  2
CONTINUOUS
 70
     0
  3
Solid line
 72
    65
 73
     0
 40
0.0
  0
ENDTAB
  0
TABLE
  2
LAYER
  5
2
330
0
100
AcDbSymbolTable
 70
     3
  0
LAYER
  5
10
330
2
100
AcDbSymbolTableRecord
100
AcDbLayerTableRecord
  2
0
 70
     0
 62
     7
  6
CONTINUOUS
  0
LAYER
  5
3F
330
2
100
AcDbSymbolTableRecord
100
AcDbLayerTableRecord
  2
PROFILEEDGES
 70
     0
 62
     7
  6
CONTINUOUS
  0
LAYER
  5
40
330
2
100
AcDbSymbolTableRecord
100
AcDbLayerTableRecord
  2
SECTIONCUTEDGES
 70
     0
 62
     7
  6
CONTINUOUS
  0
ENDTAB
  0
TABLE
  2
STYLE
  5
3
330
0
100
AcDbSymbolTable
 70
     1
  0
STYLE
  5
11
330
3
100
AcDbSymbolTableRecord
100
AcDbTextStyleTableRecord
  2
STANDARD
 70
     0
 40
0.0
 41
1.0
 50
0.0
 71
     0
 42
0.2
  3
txt
  4

  0
ENDTAB
  0
TABLE
  2
VIEW
  5
6
330
0
100
AcDbSymbolTable
 70
     0
  0
ENDTAB
  0
TABLE
  2
UCS
  5
7
330
0
100
AcDbSymbolTable
 70
     0
  0
ENDTAB
  0
TABLE
  2
APPID
  5
9
330
0
100
AcDbSymbolTable
 70
     1
  0
APPID
  5
12
330
9
100
AcDbSymbolTableRecord
100
AcDbRegAppTableRecord
  2
ACAD
 70
     0
  0
ENDTAB
  0
TABLE
  2
DIMSTYLE
  5
A
330
0
100
AcDbSymbolTable
 70
     1
  0
DIMSTYLE
105
27
330
A
100
AcDbSymbolTableRecord
100
AcDbDimStyleTableRecord
  2
STANDARD
 70
     0
  3

  4

  5

  6

  7

 40
1.0
 41
0.18
 42
0.0625
 43
0.38
 44
0.18
 45
0.0
 46
0.0
 47
0.0
 48
0.0
140
0.18
141
0.09
142
0.0
143
25.4
144
1.0
145
0.0
146
1.0
147
0.09
 71
     0
 72
     0
 73
     1
 74
     1
 75
     0
 76
     0
 77
     0
 78
     0
170
     0
171
     2
172
     0
173
     0
174
     0
175
     0
176
     0
177
     0
178
     0
270
     2
271
     4
272
     4
273
     2
274
     2
340
11
275
     0
280
     0
281
     0
282
     0
283
     1
284
     0
285
     0
286
     0
287
     3
288
     0
  0
ENDTAB
  0
TABLE
  2
BLOCK_RECORD
  5
1
330
0
100
AcDbSymbolTable
 70
     1
  0
BLOCK_RECORD
  5
1F
330
1
100
AcDbSymbolTableRecord
100
AcDbBlockTableRecord
  2
*MODEL_SPACE
  0
BLOCK_RECORD
  5
1B
330
1
100
AcDbSymbolTableRecord
100
AcDbBlockTableRecord
  2
*PAPER_SPACE
  0
ENDTAB
  0
ENDSEC
  0
SECTION
  2
BLOCKS
  0
BLOCK
  5
20
330
1F
100
AcDbEntity
  8
0
100
AcDbBlockBegin
  2
*MODEL_SPACE
 70
     0
 10
0.0
 20
0.0
 30
0.0
  3
*MODEL_SPACE
  1

  0
ENDBLK
  5
21
330
1F
100
AcDbEntity
  8
0
100
AcDbBlockEnd
  0
BLOCK
  5
1C
330
1B
100
AcDbEntity
 67
     1
  8
0
100
AcDbBlockBegin
  2
*PAPER_SPACE
 70
     0
 10
0.0
 20
0.0
 30
0.0
  3
*PAPER_SPACE
  1

  0
ENDBLK
  5
1D
330
1B
100
AcDbEntity
 67
     1
  8
0
100
AcDbBlockEnd
  0
ENDSEC
  0
SECTION
  2
ENTITIES
  0
LINE
  5
41
330
1F
100
AcDbEntity
  8
0
100
AcDbLine
 10
-9.892617939128346
 20
-17.39613974448438
 30
0.0
 11
-10.07323056170686
 21
-19.46055146709673
 31
0.0
  0
LINE
  5
42
330
1F
100
AcDbEntity
  8
0
100
AcDbLine
 10
-9.22570809384625
 20
-17.16975435722544
 30
0.0
 11
-9.892617939128346
 21
-17.39613974448438
 31
0.0
  0
LINE
  5
43
330
1F
100
AcDbEntity
  8
0
100
AcDbLine
 10
-22.28582715434827
 20
-15.82131103436254
 30
0.0
 11
-22.91814520355809
 21
-15.10029048718399
 31
0.0
  0
LINE
  5
44
330
1F
100
AcDbEntity
  8
0
100
AcDbLine
 10
-20.4076878474063
 20
-14.94552029245341
 30
0.0
 11
-22.28582715434827
 21
-15.82131103436254
 31
0.0
  0
LINE
  5
45
330
1F
100
AcDbEntity
  8
0
100
AcDbLine
 10
-16.16309044647219
 20
3.267115033822453
 30
0.0
 11
-15.9824778238935
 21
5.331526756434806
 31
0.0
  0
LINE
  5
46
330
1F
100
AcDbEntity
  8
0
100
AcDbLine
 10
-16.83000029175411
 20
3.040729646563513
 30
0.0
 11
-16.16309044647219
 21
3.267115033822453
 31
0.0
  0
LINE
  5
47
330
1F
100
AcDbEntity
  8
0
100
AcDbLine
 10
-16.83000029175411
 20
3.040729646563513
 30
0.0
 11
-18.23002414949556
 21
4.568587584216554
 31
0.0
  0
LINE
  5
48
330
1F
100
AcDbEntity
  8
0
100
AcDbLine
 10
-19.09013247099804
 20
4.144429099576125
 30
0.0
 11
-18.23002414949556
 21
4.568587584216554
 31
0.0
  0
LINE
  5
49
330
1F
100
AcDbEntity
  8
0
100
AcDbLine
 10
-18.7302817969555
 20
2.103614514101585
 30
0.0
 11
-19.09013247099804
 21
4.144429099576125
 31
0.0
  0
LINE
  5
4A
330
1F
100
AcDbEntity
  8
0
100
AcDbLine
 10
-19.31587439056429
 20
1.71233405252854
 30
0.0
 11
-18.7302817969555
 21
2.103614514101585
 31
0.0
  0
LINE
  5
4B
330
1F
100
AcDbEntity
  8
0
100
AcDbLine
 10
-19.31587439056429
 20
1.71233405252854
 30
0.0
 11
-21.06363232465321
 21
2.825778655426953
 31
0.0
  0
LINE
  5
4C
330
1F
100
AcDbEntity
  8
0
100
AcDbLine
 10
-20.9088621299228
 20
0.3153212992749786
 30
0.0
 11
-21.78465287183176
 21
2.193460606217124
 31
0.0
  0
LINE
  5
4D
330
1F
100
AcDbEntity
  8
0
100
AcDbLine
 10
-21.37323030434142
 20
-0.2141891197776843
 30
0.0
 11
-20.9088621299228
 21
0.3153212992749786
 31
0.0
  0
LINE
  5
4E
330
1F
100
AcDbEntity
  8
0
100
AcDbLine
 10
-22.55036479595665
 20
-1.975895383361329
 30
0.0
 11
-23.88241191398352
 21
-0.3884234449477816
 31
0.0
  0
LINE
  5
4F
330
1F
100
AcDbEntity
  8
0
100
AcDbLine
 10
-2.512784284522496
 20
-9.515131807361843
 30
0.0
 11
-0.8152576001588613
 21
-10.70375278806524
 31
0.0
  0
LINE
  5
50
330
1F
100
AcDbEntity
  8
0
100
AcDbLine
 10
-2.375384858293063
 20
-8.824378245684285
 30
0.0
 11
-2.512784284522496
 21
-9.515131807361843
 31
0.0
  0
LINE
  5
51
330
1F
100
AcDbEntity
  8
0
100
AcDbLine
 10
-21.78465287183176
 20
2.193460606217124
 30
0.0
 11
-21.06363232465321
 21
2.825778655426953
 31
0.0
  0
LINE
  5
52
330
1F
100
AcDbEntity
  8
0
100
AcDbLine
 10
-6.177530957247082
 20
1.28086375621028
 30
0.0
 11
-5.554379098736494
 21
3.257248951745032
 31
0.0
  0
LINE
  5
53
330
1F
100
AcDbEntity
  8
0
100
AcDbLine
 10
-13.38223792652401
 20
-19.80287954391191
 30
0.0
 11
-14.33919282527179
 21
-19.74015740608993
 31
0.0
  0
LINE
  5
54
330
1F
100
AcDbEntity
  8
0
100
AcDbLine
 10
-14.7877200831535
 20
-17.71698168983808
 30
0.0
 11
-14.33919282527179
 21
-19.74015740608993
 31
0.0
  0
LINE
  5
55
330
1F
100
AcDbEntity
  8
0
100
AcDbLine
 10
-2.375384858293063
 20
-8.824378245684285
 30
0.0
 11
-0.3522091420412053
 21
-8.375850987802394
 31
0.0
  0
LINE
  5
56
330
1F
100
AcDbEntity
  8
0
100
AcDbLine
 10
-0.2894870042192352
 20
-7.418896089054615
 30
0.0
 11
-0.3522091420412053
 21
-8.375850987802394
 31
0.0
  0
LINE
  5
57
330
1F
100
AcDbEntity
  8
0
100
AcDbLine
 10
-2.236809616675318
 20
-6.710128621607309
 30
0.0
 11
-0.2894870042192352
 21
-7.418896089054615
 31
0.0
  0
LINE
  5
58
330
1F
100
AcDbEntity
  8
0
100
AcDbLine
 10
-5.146846255677556
 20
-14.4443460099369
 30
0.0
 11
-4.271055513768777
 21
-16.32248531687905
 31
0.0
  0
LINE
  5
59
330
1F
100
AcDbEntity
  8
0
100
AcDbLine
 10
-4.682478081258938
 20
-13.91483559088424
 30
0.0
 11
-5.146846255677556
 21
-14.4443460099369
 31
0.0
  0
LINE
  5
5A
330
1F
100
AcDbEntity
  8
0
100
AcDbLine
 10
-23.77283624600273
 20
-8.121674382174476
 30
0.0
 11
-23.81889876892522
 21
-7.418896089054615
 31
0.0
  0
LINE
  5
5B
330
1F
100
AcDbEntity
  8
0
100
AcDbLine
 10
-8.570892337361835
 20
2.769496079371963
 30
0.0
 11
-7.939237220830547
 21
2.457998247825328
 31
0.0
  0
LINE
  5
5C
330
1F
100
AcDbEntity
  8
0
100
AcDbLine
 10
-3.193845758097074
 20
-11.52147421076949
 30
0.0
 11
-1.123520686061295
 21
-11.61186655554175
 31
0.0
  0
LINE
  5
5D
330
1F
100
AcDbEntity
  8
0
100
AcDbLine
 10
-15.47847364483106
 20
-17.57958226360883
 30
0.0
 11
-16.66709462553446
 21
-19.27710894797228
 31
0.0
  0
LINE
  5
5E
330
1F
100
AcDbEntity
  8
0
100
AcDbLine
 10
-2.282872139597812
 20
-6.007350328487449
 30
0.0
 11
-2.236809616675318
 21
-6.710128621607309
 31
0.0
  0
LINE
  5
5F
330
1F
100
AcDbEntity
  8
0
100
AcDbLine
 10
-13.38223792652401
 20
3.726532220793901
 30
0.0
 11
-12.67347045907635
 21
5.673854833249983
 31
0.0
  0
LINE
  5
60
330
1F
100
AcDbEntity
  8
0
100
AcDbLine
 10
-14.27785419280035
 20
-4.899448845869901
 30
0.0
 11
-14.79562114576667
 21
-5.296745402364657
 31
0.0
  0
LINE
  5
61
330
1F
100
AcDbEntity
  8
0
100
AcDbLine
 10
-7.32542658864504
 20
-16.23263922476369
 30
0.0
 11
-6.965575914602506
 21
-18.27345381023805
 31
0.0
  0
LINE
  5
62
330
1F
100
AcDbEntity
  8
0
100
AcDbLine
 10
-19.87817742835346
 20
-15.4098884668722
 30
0.0
 11
-20.50132928686386
 21
-17.38627366240696
 31
0.0
  0
LINE
  5
63
330
1F
100
AcDbEntity
  8
0
100
AcDbLine
 10
-19.70394310318336
 20
-17.91907007651431
 30
0.0
 11
-20.50132928686386
 21
-17.38627366240696
 31
0.0
  0
LINE
  5
64
330
1F
100
AcDbEntity
  8
0
100
AcDbLine
 10
-18.11647116476999
 20
-16.58702295848725
 30
0.0
 11
-19.70394310318336
 21
-17.91907007651431
 31
0.0
  0
LINE
  5
65
330
1F
100
AcDbEntity
  8
0
100
AcDbLine
 10
-17.48481604823871
 20
-16.89852079003407
 30
0.0
 11
-18.11647116476999
 21
-16.58702295848725
 31
0.0
  0
LINE
  5
66
330
1F
100
AcDbEntity
  8
0
100
AcDbLine
 10
-17.48481604823871
 20
-16.89852079003407
 30
0.0
 11
-17.57520839301096
 21
-18.96884586207003
 31
0.0
  0
LINE
  5
67
330
1F
100
AcDbEntity
  8
0
100
AcDbLine
 10
-16.66709462553446
 20
-19.27710894797228
 30
0.0
 11
-17.57520839301096
 21
-18.96884586207003
 31
0.0
  0
LINE
  5
68
330
1F
100
AcDbEntity
  8
0
100
AcDbLine
 10
-14.7877200831535
 20
-17.71698168983808
 30
0.0
 11
-15.47847364483106
 21
-17.57958226360883
 31
0.0
  0
LINE
  5
69
330
1F
100
AcDbEntity
  8
0
100
AcDbLine
 10
-12.67347045907635
 20
-17.85555693145583
 30
0.0
 11
-13.38223792652401
 21
-19.80287954391191
 31
0.0
  0
LINE
  5
6A
330
1F
100
AcDbEntity
  8
0
100
AcDbLine
 10
-11.97069216595667
 20
-17.80949440853351
 30
0.0
 11
-12.67347045907635
 21
-17.85555693145583
 31
0.0
  0
LINE
  5
6B
330
1F
100
AcDbEntity
  8
0
100
AcDbLine
 10
-11.97069216595667
 20
-17.80949440853351
 30
0.0
 11
-11.01381169681912
 21
-19.64764468739468
 31
0.0
  0
LINE
  5
6C
330
1F
100
AcDbEntity
  8
0
100
AcDbLine
 10
-10.07323056170686
 20
-19.46055146709673
 30
0.0
 11
-11.01381169681912
 21
-19.64764468739468
 31
0.0
  0
LINE
  5
6D
330
1F
100
AcDbEntity
  8
0
100
AcDbLine
 10
-9.22570809384625
 20
-17.16975435722544
 30
0.0
 11
-7.825684236104982
 21
-18.69761229487848
 31
0.0
  0
LINE
  5
6E
330
1F
100
AcDbEntity
  8
0
100
AcDbLine
 10
-6.965575914602506
 20
-18.27345381023805
 30
0.0
 11
-7.825684236104982
 21
-18.69761229487848
 31
0.0
  0
LINE
  5
6F
330
1F
100
AcDbEntity
  8
0
100
AcDbLine
 10
-6.739833995036248
 20
-15.84135876319046
 30
0.0
 11
-7.32542658864504
 21
-16.23263922476369
 31
0.0
  0
LINE
  5
70
330
1F
100
AcDbEntity
  8
0
100
AcDbLine
 10
-6.739833995036248
 20
-15.84135876319046
 30
0.0
 11
-4.992076060947329
 21
-16.95480336608888
 31
0.0
  0
LINE
  5
71
330
1F
100
AcDbEntity
  8
0
100
AcDbLine
 10
-4.271055513768777
 20
-16.32248531687905
 30
0.0
 11
-4.992076060947329
 21
-16.95480336608888
 31
0.0
  0
LINE
  5
72
330
1F
100
AcDbEntity
  8
0
100
AcDbLine
 10
-4.682478081258938
 20
-13.91483559088424
 30
0.0
 11
-2.706092885724006
 21
-14.53798744939465
 31
0.0
  0
LINE
  5
73
330
1F
100
AcDbEntity
  8
0
100
AcDbLine
 10
-2.173296471616837
 20
-13.74060126571414
 30
0.0
 11
-2.706092885724006
 21
-14.53798744939465
 31
0.0
  0
LINE
  5
74
330
1F
100
AcDbEntity
  8
0
100
AcDbLine
 10
-3.50534358964389
 20
-12.15312932730077
 30
0.0
 11
-2.173296471616837
 21
-13.74060126571414
 31
0.0
  0
LINE
  5
75
330
1F
100
AcDbEntity
  8
0
100
AcDbLine
 10
-3.193845758097074
 20
-11.52147421076949
 30
0.0
 11
-3.50534358964389
 21
-12.15312932730077
 31
0.0
  0
LINE
  5
76
330
1F
100
AcDbEntity
  8
0
100
AcDbLine
 10
-0.8152576001588613
 20
-10.70375278806524
 30
0.0
 11
-1.123520686061295
 21
-11.61186655554175
 31
0.0
  0
LINE
  5
77
330
1F
100
AcDbEntity
  8
0
100
AcDbLine
 10
-2.282872139597812
 20
-6.007350328487449
 30
0.0
 11
-0.4447218607366366
 21
-5.050469859349721
 31
0.0
  0
LINE
  5
78
330
1F
100
AcDbEntity
  8
0
100
AcDbLine
 10
-0.6318150810344121
 20
-4.109888724237639
 30
0.0
 11
-0.4447218607366366
 21
-5.050469859349721
 31
0.0
  0
LINE
  5
79
330
1F
100
AcDbEntity
  8
0
100
AcDbLine
 10
-2.696226803646764
 20
-3.929276101659128
 30
0.0
 11
-0.6318150810344121
 21
-4.109888724237639
 31
0.0
  0
LINE
  5
7A
330
1F
100
AcDbEntity
  8
0
100
AcDbLine
 10
-2.922612190905705
 20
-3.262366256377032
 30
0.0
 11
-2.696226803646764
 21
-3.929276101659128
 31
0.0
  0
LINE
  5
7B
330
1F
100
AcDbEntity
  8
0
100
AcDbLine
 10
-2.922612190905705
 20
-3.262366256377032
 30
0.0
 11
-1.394754253252664
 21
-1.862342398635763
 31
0.0
  0
LINE
  5
7C
330
1F
100
AcDbEntity
  8
0
100
AcDbLine
 10
-1.818912737893093
 20
-1.002234077133288
 30
0.0
 11
-1.394754253252664
 21
-1.862342398635763
 31
0.0
  0
LINE
  5
7D
330
1F
100
AcDbEntity
  8
0
100
AcDbLine
 10
-3.859727323367633
 20
-1.362084751175823
 30
0.0
 11
-1.818912737893093
 21
-1.002234077133288
 31
0.0
  0
LINE
  5
7E
330
1F
100
AcDbEntity
  8
0
100
AcDbLine
 10
-4.251007784940859
 20
-0.7764921575670299
 30
0.0
 11
-3.859727323367633
 21
-1.362084751175823
 31
0.0
  0
LINE
  5
7F
330
1F
100
AcDbEntity
  8
0
100
AcDbLine
 10
-4.251007784940859
 20
-0.7764921575670299
 30
0.0
 11
-3.137563182042446
 21
0.9712657765218893
 31
0.0
  0
LINE
  5
80
330
1F
100
AcDbEntity
  8
0
100
AcDbLine
 10
-3.769881231252274
 20
1.692286323700621
 30
0.0
 11
-3.137563182042446
 21
0.9712657765218893
 31
0.0
  0
LINE
  5
81
330
1F
100
AcDbEntity
  8
0
100
AcDbLine
 10
-5.648020538194239
 20
0.8164955817914815
 30
0.0
 11
-3.769881231252274
 21
1.692286323700621
 31
0.0
  0
LINE
  5
82
330
1F
100
AcDbEntity
  8
0
100
AcDbLine
 10
-6.177530957247082
 20
1.28086375621028
 30
0.0
 11
-5.648020538194239
 21
0.8164955817914815
 31
0.0
  0
LINE
  5
83
330
1F
100
AcDbEntity
  8
0
100
AcDbLine
 10
-6.351765282416999
 20
3.790045365852381
 30
0.0
 11
-5.554379098736494
 21
3.257248951745032
 31
0.0
  0
LINE
  5
84
330
1F
100
AcDbEntity
  8
0
100
AcDbLine
 10
-7.939237220830547
 20
2.457998247825328
 30
0.0
 11
-6.351765282416999
 21
3.790045365852381
 31
0.0
  0
LINE
  5
85
330
1F
100
AcDbEntity
  8
0
100
AcDbLine
 10
-8.570892337361835
 20
2.769496079371963
 30
0.0
 11
-8.480499992589397
 21
4.839821151408104
 31
0.0
  0
LINE
  5
86
330
1F
100
AcDbEntity
  8
0
100
AcDbLine
 10
-9.388613760065905
 20
5.148084237310357
 30
0.0
 11
-8.480499992589397
 21
4.839821151408104
 31
0.0
  0
LINE
  5
87
330
1F
100
AcDbEntity
  8
0
100
AcDbLine
 10
-10.5772347407693
 20
3.450557552946902
 30
0.0
 11
-9.388613760065905
 21
5.148084237310357
 31
0.0
  0
LINE
  5
88
330
1F
100
AcDbEntity
  8
0
100
AcDbLine
 10
-11.26798830244686
 20
3.587956979176155
 30
0.0
 11
-10.5772347407693
 21
3.450557552946902
 31
0.0
  0
LINE
  5
89
330
1F
100
AcDbEntity
  8
0
100
AcDbLine
 10
-11.26798830244686
 20
3.587956979176155
 30
0.0
 11
-11.71651556032875
 21
5.611132695428013
 31
0.0
  0
LINE
  5
8A
330
1F
100
AcDbEntity
  8
0
100
AcDbLine
 10
-12.67347045907635
 20
5.673854833249983
 30
0.0
 11
-11.71651556032875
 21
5.611132695428013
 31
0.0
  0
LINE
  5
8B
330
1F
100
AcDbEntity
  8
0
100
AcDbLine
 10
-14.08501621964369
 20
3.680469697871587
 30
0.0
 11
-13.38223792652401
 21
3.726532220793901
 31
0.0
  0
LINE
  5
8C
330
1F
100
AcDbEntity
  8
0
100
AcDbLine
 10
-14.08501621964369
 20
3.680469697871587
 30
0.0
 11
-15.04189668878142
 21
5.518619976732581
 31
0.0
  0
LINE
  5
8D
330
1F
100
AcDbEntity
  8
0
100
AcDbLine
 10
-15.9824778238935
 20
5.331526756434806
 30
0.0
 11
-15.04189668878142
 21
5.518619976732581
 31
0.0
  0
LINE
  5
8E
330
1F
100
AcDbEntity
  8
0
100
AcDbLine
 10
-21.37323030434142
 20
-0.2141891197776843
 30
0.0
 11
-23.34961549987635
 21
0.408962738732724
 31
0.0
  0
LINE
  5
8F
330
1F
100
AcDbEntity
  8
0
100
AcDbLine
 10
-23.88241191398352
 20
-0.3884234449477816
 30
0.0
 11
-23.34961549987635
 21
0.408962738732724
 31
0.0
  0
LINE
  5
90
330
1F
100
AcDbEntity
  8
0
100
AcDbLine
 10
-22.8618626275031
 20
-2.607550499892436
 30
0.0
 11
-22.55036479595665
 21
-1.975895383361329
 31
0.0
  0
LINE
  5
91
330
1F
100
AcDbEntity
  8
0
100
AcDbLine
 10
-22.8618626275031
 20
-2.607550499892436
 30
0.0
 11
-24.93218769953925
 21
-2.51715815512018
 31
0.0
  0
LINE
  5
92
330
1F
100
AcDbEntity
  8
0
100
AcDbLine
 10
-25.2404507854415
 20
-3.425271922596687
 30
0.0
 11
-24.93218769953925
 21
-2.51715815512018
 31
0.0
  0
LINE
  5
93
330
1F
100
AcDbEntity
  8
0
100
AcDbLine
 10
-23.54292410107804
 20
-4.613892903300081
 30
0.0
 11
-25.2404507854415
 21
-3.425271922596687
 31
0.0
  0
LINE
  5
94
330
1F
100
AcDbEntity
  8
0
100
AcDbLine
 10
-23.6803235273073
 20
-5.304646464977639
 30
0.0
 11
-23.54292410107804
 21
-4.613892903300081
 31
0.0
  0
LINE
  5
95
330
1F
100
AcDbEntity
  8
0
100
AcDbLine
 10
-23.6803235273073
 20
-5.304646464977639
 30
0.0
 11
-25.70349924355915
 21
-5.75317372285953
 31
0.0
  0
LINE
  5
96
330
1F
100
AcDbEntity
  8
0
100
AcDbLine
 10
-25.76622138138113
 20
-6.710128621607309
 30
0.0
 11
-25.70349924355915
 21
-5.75317372285953
 31
0.0
  0
LINE
  5
97
330
1F
100
AcDbEntity
  8
0
100
AcDbLine
 10
-23.81889876892522
 20
-7.418896089054615
 30
0.0
 11
-25.76622138138113
 21
-6.710128621607309
 31
0.0
  0
LINE
  5
98
330
1F
100
AcDbEntity
  8
0
100
AcDbLine
 10
-23.77283624600273
 20
-8.121674382174476
 30
0.0
 11
-25.6109865248639
 21
-9.078554851312203
 31
0.0
  0
LINE
  5
99
330
1F
100
AcDbEntity
  8
0
100
AcDbLine
 10
-25.42389330456613
 20
-10.01913598642428
 30
0.0
 11
-25.6109865248639
 21
-9.078554851312203
 31
0.0
  0
LINE
  5
9A
330
1F
100
AcDbEntity
  8
0
100
AcDbLine
 10
-23.3594815819536
 20
-10.1997486090028
 30
0.0
 11
-25.42389330456613
 21
-10.01913598642428
 31
0.0
  0
LINE
  5
9B
330
1F
100
AcDbEntity
  8
0
100
AcDbLine
 10
-23.13309619469484
 20
-10.86665845428489
 30
0.0
 11
-23.3594815819536
 21
-10.1997486090028
 31
0.0
  0
LINE
  5
9C
330
1F
100
AcDbEntity
  8
0
100
AcDbLine
 10
-23.13309619469484
 20
-10.86665845428489
 30
0.0
 11
-24.6609541323477
 21
-12.26668231202616
 31
0.0
  0
LINE
  5
9D
330
1F
100
AcDbEntity
  8
0
100
AcDbLine
 10
-24.23679564770727
 20
-13.12679063352864
 30
0.0
 11
-24.6609541323477
 21
-12.26668231202616
 31
0.0
  0
LINE
  5
9E
330
1F
100
AcDbEntity
  8
0
100
AcDbLine
 10
-22.19598106223291
 20
-12.7669399594861
 30
0.0
 11
-24.23679564770727
 21
-13.12679063352864
 31
0.0
  0
LINE
  5
9F
330
1F
100
AcDbEntity
  8
0
100
AcDbLine
 10
-21.80470060065968
 20
-13.35253255309507
 30
0.0
 11
-22.19598106223291
 21
-12.7669399594861
 31
0.0
  0
LINE
  5
A0
330
1F
100
AcDbEntity
  8
0
100
AcDbLine
 10
-21.80470060065968
 20
-13.35253255309507
 30
0.0
 11
-22.91814520355809
 21
-15.10029048718399
 31
0.0
  0
LINE
  5
A1
330
1F
100
AcDbEntity
  8
0
100
AcDbLine
 10
-19.87817742835346
 20
-15.4098884668722
 30
0.0
 11
-20.4076878474063
 21
-14.94552029245341
 31
0.0
  0
LINE
  5
A2
330
1F
100
AcDbEntity
  8
0
100
AcDbLine
 10
-10.86279068333912
 20
-5.814512355330976
 30
0.0
 11
-11.26008723983387
 21
-5.296745402364657
 31
0.0
  0
LINE
  5
A3
330
1F
100
AcDbEntity
  8
0
100
AcDbLine
 10
-10.61303962707763
 20
-6.417464742574627
 30
0.0
 11
-10.86279068333912
 21
-5.814512355330976
 31
0.0
  0
LINE
  5
A4
330
1F
100
AcDbEntity
  8
0
100
AcDbLine
 10
-10.5278541928003
 20
-7.064512355331052
 30
0.0
 11
-10.61303962707763
 21
-6.417464742574627
 31
0.0
  0
LINE
  5
A5
330
1F
100
AcDbEntity
  8
0
100
AcDbLine
 10
-10.61303962707763
 20
-7.711559968087297
 30
0.0
 11
-10.5278541928003
 21
-7.064512355331052
 31
0.0
  0
LINE
  5
A6
330
1F
100
AcDbEntity
  8
0
100
AcDbLine
 10
-10.86279068333912
 20
-8.31451235533095
 30
0.0
 11
-10.61303962707763
 21
-7.711559968087297
 31
0.0
  0
LINE
  5
A7
330
1F
100
AcDbEntity
  8
0
100
AcDbLine
 10
-11.26008723983369
 20
-8.832279308297268
 30
0.0
 11
-10.86279068333912
 21
-8.31451235533095
 31
0.0
  0
LINE
  5
A8
330
1F
100
AcDbEntity
  8
0
100
AcDbLine
 10
-11.77785419280019
 20
-9.229575864792023
 30
0.0
 11
-11.26008723983369
 21
-8.832279308297268
 31
0.0
  0
LINE
  5
A9
330
1F
100
AcDbEntity
  8
0
100
AcDbLine
 10
-12.38080658004403
 20
-9.479326921053692
 30
0.0
 11
-11.77785419280019
 21
-9.229575864792023
 31
0.0
  0
LINE
  5
AA
330
1F
100
AcDbEntity
  8
0
100
AcDbLine
 10
-13.02785419280027
 20
-9.564512355331026
 30
0.0
 11
-12.38080658004403
 21
-9.479326921053692
 31
0.0
  0
LINE
  5
AB
330
1F
100
AcDbEntity
  8
0
100
AcDbLine
 10
-13.67490180555652
 20
-9.479326921053692
 30
0.0
 11
-13.02785419280027
 21
-9.564512355331026
 31
0.0
  0
LINE
  5
AC
330
1F
100
AcDbEntity
  8
0
100
AcDbLine
 10
-14.27785419280035
 20
-9.229575864792023
 30
0.0
 11
-13.67490180555652
 21
-9.479326921053692
 31
0.0
  0
LINE
  5
AD
330
1F
100
AcDbEntity
  8
0
100
AcDbLine
 10
-14.79562114576667
 20
-8.832279308297268
 30
0.0
 11
-14.27785419280035
 21
-9.229575864792023
 31
0.0
  0
LINE
  5
AE
330
1F
100
AcDbEntity
  8
0
100
AcDbLine
 10
-15.19291770226142
 20
-8.31451235533095
 30
0.0
 11
-14.79562114576667
 21
-8.832279308297268
 31
0.0
  0
LINE
  5
AF
330
1F
100
AcDbEntity
  8
0
100
AcDbLine
 10
-15.44266875852291
 20
-7.711559968087297
 30
0.0
 11
-15.19291770226142
 21
-8.31451235533095
 31
0.0
  0
LINE
  5
B0
330
1F
100
AcDbEntity
  8
0
100
AcDbLine
 10
-15.52785419280024
 20
-7.064512355331052
 30
0.0
 11
-15.44266875852291
 21
-7.711559968087297
 31
0.0
  0
LINE
  5
B1
330
1F
100
AcDbEntity
  8
0
100
AcDbLine
 10
-15.44266875852291
 20
-6.417464742574627
 30
0.0
 11
-15.52785419280024
 21
-7.064512355331052
 31
0.0
  0
LINE
  5
B2
330
1F
100
AcDbEntity
  8
0
100
AcDbLine
 10
-15.19291770226142
 20
-5.814512355330976
 30
0.0
 11
-15.44266875852291
 21
-6.417464742574627
 31
0.0
  0
LINE
  5
B3
330
1F
100
AcDbEntity
  8
0
100
AcDbLine
 10
-14.79562114576667
 20
-5.296745402364657
 30
0.0
 11
-15.19291770226142
 21
-5.814512355330976
 31
0.0
  0
LINE
  5
B4
330
1F
100
AcDbEntity
  8
0
100
AcDbLine
 10
-14.27785419280035
 20
-4.899448845869901
 30
0.0
 11
-11.26008723983387
 21
-5.296745402364657
 31
0.0
  0
ENDSEC
  0
SECTION
  2
OBJECTS
  0
DICTIONARY
  5
C
330
0
100
AcDbDictionary
  3
ACAD_GROUP
350
D
  3
ACAD_LAYOUT
350
1A
  3
ACAD_MATERIAL
350
3B
  3
ACAD_MLEADERSTYLE
350
D7
  3
ACAD_MLINESTYLE
350
17
  3
ACAD_PLOTSETTINGS
350
19
  3
ACAD_VISUALSTYLE
350
2A
  3
ACDBHEADERROUNDTRIPXREC
350
B5
  3
ACDBVARIABLEDICTIONARY
350
D5
  0
DICTIONARY
  5
D
102
{ACAD_REACTORS
330
C
102
}
330
C
100
AcDbDictionary
  0
DICTIONARY
  5
1A
102
{ACAD_REACTORS
330
C
102
}
330
C
100
AcDbDictionary
  0
DICTIONARY
  5
3B
102
{ACAD_REACTORS
330
C
102
}
330
C
100
AcDbDictionary
  3
BYBLOCK
350
3D
  3
BYLAYER
350
3C
  3
GLOBAL
350
3E
  0
DICTIONARY
  5
D7
102
{ACAD_REACTORS
330
C
102
}
330
C
100
AcDbDictionary
  0
DICTIONARY
  5
17
102
{ACAD_REACTORS
330
C
102
}
330
C
100
AcDbDictionary
  3
STANDARD
350
18
  0
DICTIONARY
  5
19
102
{ACAD_REACTORS
330
C
102
}
330
C
100
AcDbDictionary
  0
DICTIONARY
  5
2A
102
{ACAD_REACTORS
330
C
102
}
330
C
100
AcDbDictionary
  3
2DWIREFRAME
350
2F
  3
3D_HIDDEN
350
31
  3
3DWIREFRAME
350
30
  3
BASIC
350
32
  3
BRIGHTEN
350
36
  3
COLORCHANGE
350
3A
  3
CONCEPTUAL
350
34
  3
DIM
350
35
  3
FACEPATTERN
350
39
  3
FLAT
350
2B
  3
FLATWITHEDGES
350
2C
  3
GOURAUD
350
2D
  3
GOURAUDWITHEDGES
350
2E
  3
LINEPATTERN
350
38
  3
REALISTIC
350
33
  3
THICKEN
350
37
  0
DICTIONARY
  5
B5
102
{ACAD_REACTORS
330
C
102
}
330
C
100
AcDbDictionary
  3
CEPSNTYPE
350
BE
  3
DIMSTYLEDATA
350
D4
  3
FINGERPRINTGUID
350
BF
  3
HYPERLINKBASE
350
B8
  3
INSUNITS
350
BD
  3
LAYOUTDICT
350
BA
  3
LWETCUNION
350
BC
  3
PLOTSETDICT
350
BB
  3
PSVPSCALE
350
C1
  3
PUCSBASE
350
C4
  3
PUCSORGBACK
350
CA
  3
PUCSORGBOTTOM
350
C6
  3
PUCSORGFRONT
350
C9
  3
PUCSORGLEFT
350
C7
  3
PUCSORGRIGHT
350
C8
  3
PUCSORGTOP
350
C5
  3
PUCSORTHOREF
350
C2
  3
PUCSORTHOVIEW
350
C3
  3
STYLESHEET
350
B9
  3
TSTACKALIGN
350
B6
  3
TSTACKSIZE
350
B7
  3
UCSBASE
350
CD
  3
UCSORGBACK
350
D3
  3
UCSORGBOTTOM
350
CF
  3
UCSORGFRONT
350
D2
  3
UCSORGLEFT
350
D0
  3
UCSORGRIGHT
350
D1
  3
UCSORGTOP
350
CE
  3
UCSORTHOREF
350
CB
  3
UCSORTHOVIEW
350
CC
  3
VERSIONGUID
350
C0
  0
DICTIONARY
  5
D5
102
{ACAD_REACTORS
330
C
102
}
330
C
100
AcDbDictionary
  3
DIMASSOC
350
D8
  3
HIDETEXT
350
D9
  0
MATERIAL
  5
3D
102
{ACAD_REACTORS
330
3B
102
}
102
{ACAD_XDICTIONARY
360
DC
102
}
330
3B
100
AcDbMaterial
  1
ByBlock
  0
MATERIAL
  5
3C
102
{ACAD_REACTORS
330
3B
102
}
102
{ACAD_XDICTIONARY
360
DA
102
}
330
3B
100
AcDbMaterial
  1
ByLayer
  0
MATERIAL
  5
3E
102
{ACAD_REACTORS
330
3B
102
}
102
{ACAD_XDICTIONARY
360
DE
102
}
330
3B
100
AcDbMaterial
  1
Global
  0
MLINESTYLE
  5
18
102
{ACAD_REACTORS
330
17
102
}
330
17
100
AcDbMlineStyle
  2
Standard
 70
     0
  3

 62
   256
 51
90.0
 52
90.0
 71
     2
 49
0.5
 62
   256
  6
BYLAYER
 49
-0.5
 62
   256
  6
BYLAYER
  0
ACAD_PROXY_OBJECT
  5
2F
102
{ACAD_REACTORS
330
2A
102
}
330
2A
100
AcDbProxyObject
 90
      499
 91
      501
 93
      436
310
42CC9915DA5C99599C985B595049028333333333333E3BF0000000000000FB0107901411070040501600405405064090741402480A0340
1001
ACAD
1000
AcDbSavedByObjectVersion
1070
     0
  0
ACAD_PROXY_OBJECT
  5
31
102
{ACAD_REACTORS
330
2A
102
}
330
2A
100
AcDbProxyObject
 90
      499
 91
      501
 93
      500
310
424CD108121A5919195B90640502408333333333333E3BF0000000000000FB01079024090700405020000000000001110200405405064090740C02480A0340
1001
ACAD
1000
AcDbSavedByObjectVersion
1070
     0
  0
ACAD_PROXY_OBJECT
  5
30
102
{ACAD_REACTORS
330
2A
102
}
330
2A
100
AcDbProxyObject
 90
      499
 91
      501
 93
      436
310
42CCD915DA5C99599C985B595059028333333333333E3BF0000000000000FB0107901411070040501600405405064090741402480A0340
1001
ACAD
1000
AcDbSavedByObjectVersion
1070
     0
  0
ACAD_PROXY_OBJECT
  5
32
102
{ACAD_REACTORS
330
2A
102
}
330
2A
100
AcDbProxyObject
 90
      499
 91
      501
 93
      388
310
4150985CDA58D07406404333333333333E3BF0000000000000FB0107A41107004050150841D405064090741402480A0350
1001
ACAD
1000
AcDbSavedByObjectVersion
1070
     0
  0
ACAD_PROXY_OBJECT
  5
36
102
{ACAD_REACTORS
330
2A
102
}
330
2A
100
AcDbProxyObject
 90
      499
 91
      501
 93
      428
310
42109C9A59DA1D195B90C409028333333333333E3BF0000000000000FB010790141107004050150841D405064090741402480A029950
1001
ACAD
1000
AcDbSavedByObjectVersion
1070
     0
  0
ACAD_PROXY_OBJECT
  5
3A
102
{ACAD_REACTORS
330
2A
102
}
330
2A
100
AcDbProxyObject
 90
      499
 91
      501
 93
      452
310
42D0DBDB1BDC90DA185B99D95104090240C333333333333E3BF0000000000000FB0108901411070040501508421405064090741402480A0350
1001
ACAD
1000
AcDbSavedByObjectVersion
1070
     0
  0
ACAD_PROXY_OBJECT
  5
34
102
{ACAD_REACTORS
330
2A
102
}
330
2A
100
AcDbProxyObject
 90
      499
 91
      501
 93
      500
310
4290DBDB98D95C1D1D585B10940D028333333333333E3BF0000000000000FB0107902409070040501000000000000111010841D405064090740C02480A0340
1001
ACAD
1000
AcDbSavedByObjectVersion
1070
     0
  0
ACAD_PROXY_OBJECT
  5
35
102
{ACAD_REACTORS
330
2A
102
}
330
2A
100
AcDbProxyObject
 90
      499
 91
      501
 93
      412
310
40D11A5B50B409028333333333333E3BF0000000000000FB010790141107004050150841D405064090741402480A02677FFFFFD0
1001
ACAD
1000
AcDbSavedByObjectVersion
1070
     0
  0
ACAD_PROXY_OBJECT
  5
39
102
{ACAD_REACTORS
330
2A
102
}
330
2A
100
AcDbProxyObject
 90
      499
 91
      501
 93
      444
310
42D19858D95C185D1D195C9B90F409028333333333333E3BF0000000000000FB010790141107004050150841D405064090741402480A0350
1001
ACAD
1000
AcDbSavedByObjectVersion
1070
     0
  0
ACAD_PROXY_OBJECT
  5
2B
102
{ACAD_REACTORS
330
2A
102
}
330
2A
100
AcDbProxyObject
 90
      499
 91
      501
 93
      388
310
41119B185D240901404333333333333E3BF0000000000000F9010740A41107004050150841D405064090741402480A1B50
1001
ACAD
1000
AcDbSavedByObjectVersion
1070
     0
  0
ACAD_PROXY_OBJECT
  5
2C
102
{ACAD_REACTORS
330
2A
102
}
330
2A
100
AcDbProxyObject
 90
      499
 91
      501
 93
      476
310
43519B185D15DA5D1A115919D95CD0140901404333333333333E3BF0000000000000F9010740901411070040501600405405064090741402480A1B50
1001
ACAD
1000
AcDbSavedByObjectVersion
1070
     0
  0
ACAD_PROXY_OBJECT
  5
2D
102
{ACAD_REACTORS
330
2A
102
}
330
2A
100
AcDbProxyObject
 90
      499
 91
      501
 93
      412
310
41D1DBDD5C985D5910240902404333333333333E3BF0000000000000F9010740A411070040501641D405064090741402480A1B50
1001
ACAD
1000
AcDbSavedByObjectVersion
1070
     0
  0
ACAD_PROXY_OBJECT
  5
2E
102
{ACAD_REACTORS
330
2A
102
}
330
2A
100
AcDbProxyObject
 90
      499
 91
      501
 93
      500
310
4411DBDD5C985D5915DA5D1A115919D95CD0340902404333333333333E3BF0000000000000F9010740901411070040501600405405064090741402480A1B50
1001
ACAD
1000
AcDbSavedByObjectVersion
1070
     0
  0
ACAD_PROXY_OBJECT
  5
38
102
{ACAD_REACTORS
330
2A
102
}
330
2A
100
AcDbProxyObject
 90
      499
 91
      501
 93
      444
310
42D31A5B995C185D1D195C9B90E409028333333333333E3BF0000000000000FB010790141107004050750841D405064090741402483A0350
1001
ACAD
1000
AcDbSavedByObjectVersion
1070
     0
  0
ACAD_PROXY_OBJECT
  5
33
102
{ACAD_REACTORS
330
2A
102
}
330
2A
100
AcDbProxyObject
 90
      499
 91
      501
 93
      420
310
425499585B1A5CDD1A58D08409028333333333333E3BF0000000000000FB01079019070040501508421405064090741402480A1B40
1001
ACAD
1000
AcDbSavedByObjectVersion
1070
     0
  0
ACAD_PROXY_OBJECT
  5
37
102
{ACAD_REACTORS
330
2A
102
}
330
2A
100
AcDbProxyObject
 90
      499
 91
      501
 93
      412
310
41D51A1A58DAD95B90D409028333333333333E3BF0000000000000FB010790141107004050150C41D405064090741402480A0350
1001
ACAD
1000
AcDbSavedByObjectVersion
1070
     0
  0
XRECORD
  5
BE
102
{ACAD_REACTORS
330
B5
102
}
330
B5
100
AcDbXrecord
 90
        0
  0
XRECORD
  5
D4
102
{ACAD_REACTORS
330
B5
102
}
330
B5
100
AcDbXrecord
1000
DSTYLE
1002
{
1070
   340
340
11
1002
}
  0
XRECORD
  5
BF
102
{ACAD_REACTORS
330
B5
102
}
330
B5
100
AcDbXrecord
  1
{39AEBFC9-9AA7-4D95-B9C2-60C4F7085691}
  0
XRECORD
  5
B8
102
{ACAD_REACTORS
330
B5
102
}
330
B5
100
AcDbXrecord
  1

  0
XRECORD
  5
BD
102
{ACAD_REACTORS
330
B5
102
}
330
B5
100
AcDbXrecord
 90
        1
  0
XRECORD
  5
BA
102
{ACAD_REACTORS
330
B5
102
}
330
B5
100
AcDbXrecord
340
1A
  0
XRECORD
  5
BC
102
{ACAD_REACTORS
330
B5
102
}
330
B5
100
AcDbXrecord
 90
    10781
  0
XRECORD
  5
BB
102
{ACAD_REACTORS
330
B5
102
}
330
B5
100
AcDbXrecord
340
19
  0
XRECORD
  5
C1
102
{ACAD_REACTORS
330
B5
102
}
330
B5
100
AcDbXrecord
 40
0.0
  0
XRECORD
  5
C4
102
{ACAD_REACTORS
330
B5
102
}
330
B5
100
AcDbXrecord
340
0
  0
XRECORD
  5
CA
102
{ACAD_REACTORS
330
B5
102
}
330
B5
100
AcDbXrecord
 10
0.0
 20
0.0
 30
0.0
  0
XRECORD
  5
C6
102
{ACAD_REACTORS
330
B5
102
}
330
B5
100
AcDbXrecord
 10
0.0
 20
0.0
 30
0.0
  0
XRECORD
  5
C9
102
{ACAD_REACTORS
330
B5
102
}
330
B5
100
AcDbXrecord
 10
0.0
 20
0.0
 30
0.0
  0
XRECORD
  5
C7
102
{ACAD_REACTORS
330
B5
102
}
330
B5
100
AcDbXrecord
 10
0.0
 20
0.0
 30
0.0
  0
XRECORD
  5
C8
102
{ACAD_REACTORS
330
B5
102
}
330
B5
100
AcDbXrecord
 10
0.0
 20
0.0
 30
0.0
  0
XRECORD
  5
C5
102
{ACAD_REACTORS
330
B5
102
}
330
B5
100
AcDbXrecord
 10
0.0
 20
0.0
 30
0.0
  0
XRECORD
  5
C2
102
{ACAD_REACTORS
330
B5
102
}
330
B5
100
AcDbXrecord
340
0
  0
XRECORD
  5
C3
102
{ACAD_REACTORS
330
B5
102
}
330
B5
100
AcDbXrecord
 70
     0
  0
XRECORD
  5
B9
102
{ACAD_REACTORS
330
B5
102
}
330
B5
100
AcDbXrecord
  1

  0
XRECORD
  5
B6
102
{ACAD_REACTORS
330
B5
102
}
330
B5
100
AcDbXrecord
 90
        1
  0
XRECORD
  5
B7
102
{ACAD_REACTORS
330
B5
102
}
330
B5
100
AcDbXrecord
 90
       70
  0
XRECORD
  5
CD
102
{ACAD_REACTORS
330
B5
102
}
330
B5
100
AcDbXrecord
340
0
  0
XRECORD
  5
D3
102
{ACAD_REACTORS
330
B5
102
}
330
B5
100
AcDbXrecord
 10
0.0
 20
0.0
 30
0.0
  0
XRECORD
  5
CF
102
{ACAD_REACTORS
330
B5
102
}
330
B5
100
AcDbXrecord
 10
0.0
 20
0.0
 30
0.0
  0
XRECORD
  5
D2
102
{ACAD_REACTORS
330
B5
102
}
330
B5
100
AcDbXrecord
 10
0.0
 20
0.0
 30
0.0
  0
XRECORD
  5
D0
102
{ACAD_REACTORS
330
B5
102
}
330
B5
100
AcDbXrecord
 10
0.0
 20
0.0
 30
0.0
  0
XRECORD
  5
D1
102
{ACAD_REACTORS
330
B5
102
}
330
B5
100
AcDbXrecord
 10
0.0
 20
0.0
 30
0.0
  0
XRECORD
  5
CE
102
{ACAD_REACTORS
330
B5
102
}
330
B5
100
AcDbXrecord
 10
0.0
 20
0.0
 30
0.0
  0
XRECORD
  5
CB
102
{ACAD_REACTORS
330
B5
102
}
330
B5
100
AcDbXrecord
340
0
  0
XRECORD
  5
CC
102
{ACAD_REACTORS
330
B5
102
}
330
B5
100
AcDbXrecord
 70
     0
  0
XRECORD
  5
C0
102
{ACAD_REACTORS
330
B5
102
}
330
B5
100
AcDbXrecord
  1
{FAEB1C32-E019-11D5-929B-00C0DF256EC4}
  0
DICTIONARYVAR
  5
D8
102
{ACAD_REACTORS
330
D5
102
}
330
D5
100
DictionaryVariables
280
     0
  1
2
  0
DICTIONARYVAR
  5
D9
102
{ACAD_REACTORS
330
D5
102
}
330
D5
100
DictionaryVariables
280
     0
  1
1
  0
DICTIONARY
  5
DC
330
3D
100
AcDbDictionary
280
     1
  3
ACAD_XREC_ROUNDTRIP
360
DD
  0
DICTIONARY
  5
DA
330
3C
100
AcDbDictionary
280
     1
  3
ACAD_XREC_ROUNDTRIP
360
DB
  0
DICTIONARY
  5
DE
330
3E
100
AcDbDictionary
280
     1
  3
ACAD_XREC_ROUNDTRIP
360
DF
  0
XRECORD
  5
DD
102
{ACAD_REACTORS
330
DC
102
}
330
DC
100
AcDbXrecord
102
MATERIAL
148
0.0
149
0.0
149
0.0
 93
        0
 94
      127
282
     0
 72
     1
 77
     1
171
     1
175
     1
179
     1
273
     0
  0
XRECORD
  5
DB
102
{ACAD_REACTORS
330
DA
102
}
330
DA
100
AcDbXrecord
102
MATERIAL
148
0.0
149
0.0
149
0.0
 93
        0
 94
      127
282
     0
 72
     1
 77
     1
171
     1
175
     1
179
     1
273
     0
  0
XRECORD
  5
DF
102
{ACAD_REACTORS
330
DE
102
}
330
DE
100
AcDbXrecord
102
MATERIAL
148
0.0
149
0.0
149
0.0
 93
        0
 94
      127
282
     0
 72
     1
 77
     1
171
     1
175
     1
179
     1
273
     0
  0
ENDSEC
  0
EOF
