  0
SECTION
  2
HEADER
  9
$ACADVER
  1
AC1014
  9
$ACADMAINTVER
 70
     9
  9
$DWGCODEPAGE
  3
ANSI_1252
  9
$INSBASE
 10
0.0
 20
0.0
 30
0.0
  9
$EXTMIN
 10
1.000000000000000E+20
 20
1.000000000000000E+20
 30
1.000000000000000E+20
  9
$EXTMAX
 10
-1.000000000000000E+20
 20
-1.000000000000000E+20
 30
-1.000000000000000E+20
  9
$LIMMIN
 10
0.0
 20
0.0
  9
$LIMMAX
 10
12.0
 20
9.0
  9
$ORTHOMODE
 70
     0
  9
$REGENMODE
 70
     1
  9
$FILLMODE
 70
     1
  9
$QTEXTMODE
 70
     0
  9
$MIRRTEXT
 70
     1
  9
$DRAGMODE
 70
     2
  9
$LTSCALE
 40
1.0
  9
$OSMODE
 70
    37
  9
$ATTMODE
 70
     1
  9
$TEXTSIZE
 40
0.2
  9
$TRACEWID
 40
0.05
  9
$TEXTSTYLE
  7
STANDARD
  9
$CLAYER
  8
0
  9
$CELTYPE
  6
BYLAYER
  9
$CECOLOR
 62
   256
  9
$CELTSCALE
 40
1.0
  9
$DELOBJ
 70
     1
  9
$DISPSILH
 70
     0
  9
$DIMSCALE
 40
1.0
  9
$DIMASZ
 40
0.18
  9
$DIMEXO
 40
0.0625
  9
$DIMDLI
 40
0.38
  9
$DIMRND
 40
0.0
  9
$DIMDLE
 40
0.0
  9
$DIMEXE
 40
0.18
  9
$DIMTP
 40
0.0
  9
$DIMTM
 40
0.0
  9
$DIMTXT
 40
0.18
  9
$DIMCEN
 40
0.09
  9
$DIMTSZ
 40
0.0
  9
$DIMTOL
 70
     0
  9
$DIMLIM
 70
     0
  9
$DIMTIH
 70
     1
  9
$DIMTOH
 70
     1
  9
$DIMSE1
 70
     0
  9
$DIMSE2
 70
     0
  9
$DIMTAD
 70
     0
  9
$DIMZIN
 70
     0
  9
$DIMBLK
  1

  9
$DIMASO
 70
     1
  9
$DIMSHO
 70
     1
  9
$DIMPOST
  1

  9
$DIMAPOST
  1

  9
$DIMALT
 70
     0
  9
$DIMALTD
 70
     2
  9
$DIMALTF
 40
25.4
  9
$DIMLFAC
 40
1.0
  9
$DIMTOFL
 70
     0
  9
$DIMTVP
 40
0.0
  9
$DIMTIX
 70
     0
  9
$DIMSOXD
 70
     0
  9
$DIMSAH
 70
     0
  9
$DIMBLK1
  1

  9
$DIMBLK2
  1

  9
$DIMSTYLE
  2
STANDARD
  9
$DIMCLRD
 70
     0
  9
$DIMCLRE
 70
     0
  9
$DIMCLRT
 70
     0
  9
$DIMTFAC
 40
1.0
  9
$DIMGAP
 40
0.09
  9
$DIMJUST
 70
     0
  9
$DIMSD1
 70
     0
  9
$DIMSD2
 70
     0
  9
$DIMTOLJ
 70
     1
  9
$DIMTZIN
 70
     0
  9
$DIMALTZ
 70
     0
  9
$DIMALTTZ
 70
     0
  9
$DIMFIT
 70
     3
  9
$DIMUPT
 70
     0
  9
$DIMUNIT
 70
     2
  9
$DIMDEC
 70
     4
  9
$DIMTDEC
 70
     4
  9
$DIMALTU
 70
     2
  9
$DIMALTTD
 70
     2
  9
$DIMTXSTY
  7
STANDARD
  9
$DIMAUNIT
 70
     0
  9
$LUNITS
 70
     2
  9
$LUPREC
 70
     4
  9
$SKETCHINC
 40
0.1
  9
$FILLETRAD
 40
0.5
  9
$AUNITS
 70
     0
  9
$AUPREC
 70
     0
  9
$MENU
  1
.
  9
$ELEVATION
 40
0.0
  9
$PELEVATION
 40
0.0
  9
$THICKNESS
 40
0.0
  9
$LIMCHECK
 70
     0
  9
$CHAMFERA
 40
0.5
  9
$CHAMFERB
 40
0.5
  9
$CHAMFERC
 40
1.0
  9
$CHAMFERD
 40
0.0
  9
$SKPOLY
 70
     0
  9
$TDCREATE
 40
2457348.826563206
  9
$TDUPDATE
 40
2457348.826563218
  9
$TDINDWG
 40
0.0000000116
  9
$TDUSRTIMER
 40
0.0000000116
  9
$USRTIMER
 70
     1
  9
$ANGBASE
 50
0.0
  9
$ANGDIR
 70
     0
  9
$PDMODE
 70
     0
  9
$PDSIZE
 40
0.0
  9
$PLINEWID
 40
0.0
  9
$COORDS
 70
     1
  9
$SPLFRAME
 70
     0
  9
$SPLINETYPE
 70
     6
  9
$SPLINESEGS
 70
     8
  9
$ATTDIA
 70
     0
  9
$ATTREQ
 70
     1
  9
$HANDLING
 70
     1
  9
$HANDSEED
  5
181
  9
$SURFTAB1
 70
     6
  9
$SURFTAB2
 70
     6
  9
$SURFTYPE
 70
     6
  9
$SURFU
 70
     6
  9
$SURFV
 70
     6
  9
$UCSNAME
  2

  9
$UCSORG
 10
0.0
 20
0.0
 30
0.0
  9
$UCSXDIR
 10
1.0
 20
0.0
 30
0.0
  9
$UCSYDIR
 10
0.0
 20
1.0
 30
0.0
  9
$PUCSNAME
  2

  9
$PUCSORG
 10
0.0
 20
0.0
 30
0.0
  9
$PUCSXDIR
 10
1.0
 20
0.0
 30
0.0
  9
$PUCSYDIR
 10
0.0
 20
1.0
 30
0.0
  9
$USERI1
 70
     0
  9
$USERI2
 70
     0
  9
$USERI3
 70
     0
  9
$USERI4
 70
     0
  9
$USERI5
 70
     0
  9
$USERR1
 40
0.0
  9
$USERR2
 40
0.0
  9
$USERR3
 40
0.0
  9
$USERR4
 40
0.0
  9
$USERR5
 40
0.0
  9
$WORLDVIEW
 70
     1
  9
$SHADEDGE
 70
     3
  9
$SHADEDIF
 70
    70
  9
$TILEMODE
 70
     1
  9
$MAXACTVP
 70
    64
  9
$PINSBASE
 10
0.0
 20
0.0
 30
0.0
  9
$PLIMCHECK
 70
     0
  9
$PEXTMIN
 10
1.000000000000000E+20
 20
1.000000000000000E+20
 30
1.000000000000000E+20
  9
$PEXTMAX
 10
-1.000000000000000E+20
 20
-1.000000000000000E+20
 30
-1.000000000000000E+20
  9
$PLIMMIN
 10
0.0
 20
0.0
  9
$PLIMMAX
 10
12.0
 20
9.0
  9
$UNITMODE
 70
     0
  9
$VISRETAIN
 70
     1
  9
$PLINEGEN
 70
     0
  9
$PSLTSCALE
 70
     1
  9
$TREEDEPTH
 70
  3020
  9
$PICKSTYLE
 70
     1
  9
$CMLSTYLE
  2
STANDARD
  9
$CMLJUST
 70
     0
  9
$CMLSCALE
 40
1.0
  9
$PROXYGRAPHICS
 70
     1
  9
$MEASUREMENT
 70
     0
  0
ENDSEC
  0
SECTION
  2
CLASSES
  0
CLASS
  1
ACDBDICTIONARYWDFLT
  2
AcDbDictionaryWithDefault
  3
ObjectDBX Classes
 90
        0
280
     0
281
     0
  0
CLASS
  1
VISUALSTYLE
  2
AcDbVisualStyle
  3
ObjectDBX Classes
 90
     4095
280
     0
281
     0
  0
CLASS
  1
MATERIAL
  2
AcDbMaterial
  3
ObjectDBX Classes
 90
     1153
280
     0
281
     0
  0
CLASS
  1
DICTIONARYVAR
  2
AcDbDictionaryVar
  3
ObjectDBX Classes
 90
        0
280
     0
281
     0
  0
CLASS
  1
XRECORD
  2
AcDbXrecord
  3
AutoCAD 2000
 90
        0
280
     0
281
     0
  0
CLASS
  1
LWPOLYLINE
  2
AcDbPolyline
  3
AutoCAD 2000
 90
        0
280
     0
281
     1
  0
CLASS
  1
HATCH
  2
AcDbHatch
  3
AutoCAD 2000
 90
        0
280
     0
281
     1
  0
CLASS
  1
ACDBPLACEHOLDER
  2
AcDbPlaceHolder
  3
ObjectDBX Classes
 90
        0
280
     0
281
     0
  0
CLASS
  1
LAYOUT
  2
AcDbLayout
  3
ObjectDBX Classes
 90
        0
280
     0
281
     0
  0
ENDSEC
  0
SECTION
  2
TABLES
  0
TABLE
  2
VPORT
  5
8
330
0
100
AcDbSymbolTable
 70
     1
  0
VPORT
  5
29
330
8
100
AcDbSymbolTableRecord
100
AcDbViewportTableRecord
  2
*ACTIVE
 70
     0
 10
0.0
 20
0.0
 11
1.0
 21
1.0
 12
0.0
 22
0.0
 13
0.0
 23
0.0
 14
0.5
 24
0.5
 15
0.5
 25
0.5
 16
0.0
 26
0.0
 36
1.0
 17
0.0
 27
0.0
 37
-1000.0
 40
180.0707188256179
 41
1.914432989690722
 42
50.0
 43
99.9565437841432
 44
510.3251375351714
 50
0.0
 51
0.0
 71
     0
 72
   100
 73
     1
 74
     3
 75
     0
 76
     0
 77
     0
 78
     0
  0
ENDTAB
  0
TABLE
  2
LTYPE
  5
5
330
0
100
AcDbSymbolTable
 70
     1
  0
LTYPE
  5
14
330
5
100
AcDbSymbolTableRecord
100
AcDbLinetypeTableRecord
  2
BYBLOCK
 70
     0
  3

 72
    65
 73
     0
 40
0.0
  0
LTYPE
  5
15
330
5
100
AcDbSymbolTableRecord
100
AcDbLinetypeTableRecord
  2
BYLAYER
 70
     0
  3

 72
    65
 73
     0
 40
0.0
  0
LTYPE
  5
16
330
5
100
AcDbSymbolTableRecord
100
AcDbLinetypeTableRecord
  2
CONTINUOUS
 70
     0
  3
Solid line
 72
    65
 73
     0
 40
0.0
  0
ENDTAB
  0
TABLE
  2
LAYER
  5
2
330
0
100
AcDbSymbolTable
 70
     3
  0
LAYER
  5
10
330
2
100
AcDbSymbolTableRecord
100
AcDbLayerTableRecord
  2
0
 70
     0
 62
     7
  6
CONTINUOUS
  0
LAYER
  5
3F
330
2
100
AcDbSymbolTableRecord
100
AcDbLayerTableRecord
  2
PROFILEEDGES
 70
     0
 62
     7
  6
CONTINUOUS
  0
LAYER
  5
40
330
2
100
AcDbSymbolTableRecord
100
AcDbLayerTableRecord
  2
SECTIONCUTEDGES
 70
     0
 62
     7
  6
CONTINUOUS
  0
ENDTAB
  0
TABLE
  2
STYLE
  5
3
330
0
100
AcDbSymbolTable
 70
     1
  0
STYLE
  5
11
330
3
100
AcDbSymbolTableRecord
100
AcDbTextStyleTableRecord
  2
STANDARD
 70
     0
 40
0.0
 41
1.0
 50
0.0
 71
     0
 42
0.2
  3
txt
  4

  0
ENDTAB
  0
TABLE
  2
VIEW
  5
6
330
0
100
AcDbSymbolTable
 70
     0
  0
ENDTAB
  0
TABLE
  2
UCS
  5
7
330
0
100
AcDbSymbolTable
 70
     0
  0
ENDTAB
  0
TABLE
  2
APPID
  5
9
330
0
100
AcDbSymbolTable
 70
     1
  0
APPID
  5
12
330
9
100
AcDbSymbolTableRecord
100
AcDbRegAppTableRecord
  2
ACAD
 70
     0
  0
ENDTAB
  0
TABLE
  2
DIMSTYLE
  5
A
330
0
100
AcDbSymbolTable
 70
     1
  0
DIMSTYLE
105
27
330
A
100
AcDbSymbolTableRecord
100
AcDbDimStyleTableRecord
  2
STANDARD
 70
     0
  3

  4

  5

  6

  7

 40
1.0
 41
0.18
 42
0.0625
 43
0.38
 44
0.18
 45
0.0
 46
0.0
 47
0.0
 48
0.0
140
0.18
141
0.09
142
0.0
143
25.4
144
1.0
145
0.0
146
1.0
147
0.09
 71
     0
 72
     0
 73
     1
 74
     1
 75
     0
 76
     0
 77
     0
 78
     0
170
     0
171
     2
172
     0
173
     0
174
     0
175
     0
176
     0
177
     0
178
     0
270
     2
271
     4
272
     4
273
     2
274
     2
340
11
275
     0
280
     0
281
     0
282
     0
283
     1
284
     0
285
     0
286
     0
287
     3
288
     0
  0
ENDTAB
  0
TABLE
  2
BLOCK_RECORD
  5
1
330
0
100
AcDbSymbolTable
 70
     1
  0
BLOCK_RECORD
  5
1F
330
1
100
AcDbSymbolTableRecord
100
AcDbBlockTableRecord
  2
*MODEL_SPACE
  0
BLOCK_RECORD
  5
1B
330
1
100
AcDbSymbolTableRecord
100
AcDbBlockTableRecord
  2
*PAPER_SPACE
  0
ENDTAB
  0
ENDSEC
  0
SECTION
  2
BLOCKS
  0
BLOCK
  5
20
330
1F
100
AcDbEntity
  8
0
100
AcDbBlockBegin
  2
*MODEL_SPACE
 70
     0
 10
0.0
 20
0.0
 30
0.0
  3
*MODEL_SPACE
  1

  0
ENDBLK
  5
21
330
1F
100
AcDbEntity
  8
0
100
AcDbBlockEnd
  0
BLOCK
  5
1C
330
1B
100
AcDbEntity
 67
     1
  8
0
100
AcDbBlockBegin
  2
*PAPER_SPACE
 70
     0
 10
0.0
 20
0.0
 30
0.0
  3
*PAPER_SPACE
  1

  0
ENDBLK
  5
1D
330
1B
100
AcDbEntity
 67
     1
  8
0
100
AcDbBlockEnd
  0
ENDSEC
  0
SECTION
  2
ENTITIES
  0
LINE
  5
41
330
1F
100
AcDbEntity
  8
0
100
AcDbLine
 10
71.14087017584369
 20
12.77203131688084
 30
0.0
 11
29.23432813498139
 21
36.13638210954629
 31
0.0
  0
LINE
  5
42
330
1F
100
AcDbEntity
  8
0
100
AcDbLine
 10
104.0019133623291
 20
-6.650558035461593
 30
0.0
 11
105.0019133623285
 21
-4.918507227892726
 31
0.0
  0
LINE
  5
43
330
1F
100
AcDbEntity
  8
0
100
AcDbLine
 10
105.0019133623285
 20
-4.918507227892726
 30
0.0
 11
113.6621674001725
 21
-9.918507227892265
 31
0.0
  0
LINE
  5
44
330
1F
100
AcDbEntity
  8
0
100
AcDbLine
 10
113.6621674001725
 20
-9.918507227892265
 30
0.0
 11
112.6621674001719
 21
-11.65055803546032
 31
0.0
  0
LINE
  5
45
330
1F
100
AcDbEntity
  8
0
100
AcDbLine
 10
112.6621674001719
 20
-11.65055803546032
 30
0.0
 11
104.0019133623291
 21
-6.650558035461593
 31
0.0
  0
LINE
  5
46
330
1F
100
AcDbEntity
  8
0
100
AcDbLine
 10
139.8397571838481
 20
-24.56075931806512
 30
0.0
 11
138.8397571838483
 21
-26.29281012563403
 31
0.0
  0
LINE
  5
47
330
1F
100
AcDbEntity
  8
0
100
AcDbLine
 10
102.3271785017271
 20
13.14970834306125
 30
0.0
 11
142.2476837266338
 21
37.00268288155375
 31
0.0
  0
LINE
  5
48
330
1F
100
AcDbEntity
  8
0
100
AcDbLine
 10
126.7416801820264
 20
-17.25734286844198
 30
0.0
 11
125.7416801820267
 21
-18.98939367601085
 31
0.0
  0
LINE
  5
49
330
1F
100
AcDbEntity
  8
0
100
AcDbLine
 10
125.7416801820267
 20
-18.98939367601085
 30
0.0
 11
117.0814261441825
 21
-13.98939367600951
 31
0.0
  0
LINE
  5
4A
330
1F
100
AcDbEntity
  8
0
100
AcDbLine
 10
117.0814261441825
 20
-13.98939367600951
 30
0.0
 11
118.0814261441817
 21
-12.25734286844023
 31
0.0
  0
LINE
  5
4B
330
1F
100
AcDbEntity
  8
0
100
AcDbLine
 10
118.0814261441817
 20
-12.25734286844023
 30
0.0
 11
126.7416801820264
 21
-17.25734286844198
 31
0.0
  0
LINE
  5
4C
330
1F
100
AcDbEntity
  8
0
100
AcDbLine
 10
131.1795031460047
 20
-19.56075931806454
 30
0.0
 11
139.8397571838481
 21
-24.56075931806512
 31
0.0
  0
LINE
  5
4D
330
1F
100
AcDbEntity
  8
0
100
AcDbLine
 10
138.8397571838483
 20
-26.29281012563403
 30
0.0
 11
130.1795031460035
 21
-21.29281012563269
 31
0.0
  0
LINE
  5
4E
330
1F
100
AcDbEntity
  8
0
100
AcDbLine
 10
130.1795031460035
 20
-21.29281012563269
 30
0.0
 11
131.1795031460047
 21
-19.56075931806454
 31
0.0
  0
LINE
  5
4F
330
1F
100
AcDbEntity
  8
0
100
AcDbLine
 10
86.25642785607498
 20
65.6674196337076
 30
0.0
 11
86.25642785607498
 21
55.66741963370761
 31
0.0
  0
LINE
  5
50
330
1F
100
AcDbEntity
  8
0
100
AcDbLine
 10
84.48052217719628
 20
50.67244398459367
 30
0.0
 11
86.48052217719636
 21
50.67244398459367
 31
0.0
  0
LINE
  5
51
330
1F
100
AcDbEntity
  8
0
100
AcDbLine
 10
84.48052217719628
 20
40.67244398459376
 30
0.0
 11
84.48052217719628
 21
50.67244398459367
 31
0.0
  0
LINE
  5
52
330
1F
100
AcDbEntity
  8
0
100
AcDbLine
 10
102.2558112444427
 20
14.22123131682893
 30
0.0
 11
141.782852155723
 21
37.83929501316072
 31
0.0
  0
LINE
  5
53
330
1F
100
AcDbEntity
  8
0
100
AcDbLine
 10
70.3620638461718
 20
14.39988091786424
 30
0.0
 11
29.73250368352409
 21
37.05227001897821
 31
0.0
  0
LINE
  5
54
330
1F
100
AcDbEntity
  8
0
100
AcDbLine
 10
84.25642785607508
 20
55.66741963370761
 30
0.0
 11
84.25642785607508
 21
65.6674196337076
 31
0.0
  0
LINE
  5
55
330
1F
100
AcDbEntity
  8
0
100
AcDbLine
 10
84.25642785607508
 20
65.6674196337076
 30
0.0
 11
86.25642785607498
 21
65.6674196337076
 31
0.0
  0
LINE
  5
56
330
1F
100
AcDbEntity
  8
0
100
AcDbLine
 10
86.25642785607498
 20
55.66741963370761
 30
0.0
 11
84.25642785607508
 21
55.66741963370761
 31
0.0
  0
LINE
  5
57
330
1F
100
AcDbEntity
  8
0
100
AcDbLine
 10
86.48052217719636
 20
50.67244398459367
 30
0.0
 11
86.48052217719636
 21
40.67244398459376
 31
0.0
  0
LINE
  5
58
330
1F
100
AcDbEntity
  8
0
100
AcDbLine
 10
86.48052217719636
 20
40.67244398459376
 30
0.0
 11
84.48052217719628
 21
40.67244398459376
 31
0.0
  0
LINE
  5
59
330
1F
100
AcDbEntity
  8
0
100
AcDbLine
 10
84.66466046920996
 20
25.67583582611119
 30
0.0
 11
84.66466046920996
 21
35.67583582611119
 31
0.0
  0
LINE
  5
5A
330
1F
100
AcDbEntity
  8
0
100
AcDbLine
 10
84.66466046920996
 20
35.67583582611119
 30
0.0
 11
86.66466046921005
 21
35.67583582611119
 31
0.0
  0
LINE
  5
5B
330
1F
100
AcDbEntity
  8
0
100
AcDbLine
 10
86.66466046921005
 20
35.67583582611119
 30
0.0
 11
86.66466046921005
 21
25.67583582611119
 31
0.0
  0
LINE
  5
5C
330
1F
100
AcDbEntity
  8
0
100
AcDbLine
 10
86.66466046921005
 20
25.67583582611119
 30
0.0
 11
84.66466046920996
 21
25.67583582611119
 31
0.0
  0
LINE
  5
5D
330
1F
100
AcDbEntity
  8
0
100
AcDbLine
 10
68.30010789502309
 20
-7.23248480051865
 30
0.0
 11
59.63985385717776
 21
-12.23248480051963
 31
0.0
  0
LINE
  5
5E
330
1F
100
AcDbEntity
  8
0
100
AcDbLine
 10
67.30010789502151
 20
-5.500433992950098
 30
0.0
 11
68.30010789502309
 21
-7.23248480051865
 31
0.0
  0
LINE
  5
5F
330
1F
100
AcDbEntity
  8
0
100
AcDbLine
 10
58.63985385717673
 20
-10.50043399294883
 30
0.0
 11
67.30010789502151
 21
-5.500433992950098
 31
0.0
  0
LINE
  5
60
330
1F
100
AcDbEntity
  8
0
100
AcDbLine
 10
59.63985385717776
 20
-12.23248480051963
 30
0.0
 11
58.63985385717673
 21
-10.50043399294883
 31
0.0
  0
LINE
  5
61
330
1F
100
AcDbEntity
  8
0
100
AcDbLine
 10
45.74447936733716
 20
-18.15820651088332
 30
0.0
 11
54.40473340518213
 21
-13.15820651088518
 31
0.0
  0
LINE
  5
62
330
1F
100
AcDbEntity
  8
0
100
AcDbLine
 10
46.74447936733621
 20
-19.89025731845196
 30
0.0
 11
45.74447936733716
 21
-18.15820651088332
 31
0.0
  0
LINE
  5
63
330
1F
100
AcDbEntity
  8
0
100
AcDbLine
 10
55.40473340518118
 20
-14.89025731845351
 30
0.0
 11
46.74447936733621
 21
-19.89025731845196
 31
0.0
  0
LINE
  5
64
330
1F
100
AcDbEntity
  8
0
100
AcDbLine
 10
54.40473340518213
 20
-13.15820651088518
 30
0.0
 11
55.40473340518118
 21
-14.89025731845351
 31
0.0
  0
LINE
  5
65
330
1F
100
AcDbEntity
  8
0
100
AcDbLine
 10
32.87049668663533
 20
-25.84976571037424
 30
0.0
 11
41.53075072447994
 21
-20.84976571037425
 31
0.0
  0
LINE
  5
66
330
1F
100
AcDbEntity
  8
0
100
AcDbLine
 10
41.53075072447994
 20
-20.84976571037425
 30
0.0
 11
42.53075072448062
 21
-22.58181651794402
 31
0.0
  0
LINE
  5
67
330
1F
100
AcDbEntity
  8
0
100
AcDbLine
 10
33.87049668663474
 20
-27.5818165179436
 30
0.0
 11
32.87049668663533
 21
-25.84976571037424
 31
0.0
  0
LINE
  5
68
330
1F
100
AcDbEntity
  8
0
100
AcDbLine
 10
42.53075072448062
 20
-22.58181651794402
 30
0.0
 11
33.87049668663474
 21
-27.5818165179436
 31
0.0
  0
LINE
  5
69
330
1F
100
AcDbEntity
  8
0
100
AcDbLine
 10
87.28267424460155
 20
5.250916349663774
 30
0.0
 11
87.04429631070441
 21
5.561576521443407
 31
0.0
  0
LINE
  5
6A
330
1F
100
AcDbEntity
  8
0
100
AcDbLine
 10
87.04429631070441
 20
5.561576521443407
 30
0.0
 11
86.73363613892444
 21
5.799954455339985
 31
0.0
  0
LINE
  5
6B
330
1F
100
AcDbEntity
  8
0
100
AcDbLine
 10
86.73363613892444
 20
5.799954455339985
 30
0.0
 11
86.37186470657814
 21
5.949805089096644
 31
0.0
  0
LINE
  5
6C
330
1F
100
AcDbEntity
  8
0
100
AcDbLine
 10
86.37186470657814
 20
5.949805089096644
 30
0.0
 11
85.98363613892424
 21
6.000916349662746
 31
0.0
  0
LINE
  5
6D
330
1F
100
AcDbEntity
  8
0
100
AcDbLine
 10
85.98363613892424
 20
6.000916349662746
 30
0.0
 11
85.59540757127053
 21
5.949805089096057
 31
0.0
  0
LINE
  5
6E
330
1F
100
AcDbEntity
  8
0
100
AcDbLine
 10
85.59540757127053
 20
5.949805089096057
 30
0.0
 11
85.23363613892441
 21
5.799954455338835
 31
0.0
  0
LINE
  5
6F
330
1F
100
AcDbEntity
  8
0
100
AcDbLine
 10
85.23363613892441
 20
5.799954455338835
 30
0.0
 11
84.92297596714481
 21
5.561576521441761
 31
0.0
  0
LINE
  5
70
330
1F
100
AcDbEntity
  8
0
100
AcDbLine
 10
84.92297596714481
 20
5.561576521441761
 30
0.0
 11
84.68459803324821
 21
5.250916349661765
 31
0.0
  0
LINE
  5
71
330
1F
100
AcDbEntity
  8
0
100
AcDbLine
 10
84.68459803324821
 20
5.250916349661765
 30
0.0
 11
84.53474739949164
 21
4.889144917315444
 31
0.0
  0
LINE
  5
72
330
1F
100
AcDbEntity
  8
0
100
AcDbLine
 10
84.53474739949164
 20
4.889144917315444
 30
0.0
 11
84.48363613892549
 21
4.500916349661643
 31
0.0
  0
LINE
  5
73
330
1F
100
AcDbEntity
  8
0
100
AcDbLine
 10
84.48363613892549
 20
4.500916349661643
 30
0.0
 11
84.53474739949218
 21
4.112687782007909
 31
0.0
  0
LINE
  5
74
330
1F
100
AcDbEntity
  8
0
100
AcDbLine
 10
84.53474739949218
 20
4.112687782007909
 30
0.0
 11
84.68459803324947
 21
3.750916349661813
 31
0.0
  0
LINE
  5
75
330
1F
100
AcDbEntity
  8
0
100
AcDbLine
 10
84.68459803324947
 20
3.750916349661813
 30
0.0
 11
84.92297596714643
 21
3.44025617788218
 31
0.0
  0
LINE
  5
76
330
1F
100
AcDbEntity
  8
0
100
AcDbLine
 10
84.92297596714643
 20
3.44025617788218
 30
0.0
 11
85.2336361389264
 21
3.201878243985602
 31
0.0
  0
LINE
  5
77
330
1F
100
AcDbEntity
  8
0
100
AcDbLine
 10
85.2336361389264
 20
3.201878243985602
 30
0.0
 11
85.59540757127289
 21
3.052027610228943
 31
0.0
  0
LINE
  5
78
330
1F
100
AcDbEntity
  8
0
100
AcDbLine
 10
85.59540757127289
 20
3.052027610228943
 30
0.0
 11
85.98363613892658
 21
3.000916349662841
 31
0.0
  0
LINE
  5
79
330
1F
100
AcDbEntity
  8
0
100
AcDbLine
 10
85.98363613892658
 20
3.000916349662841
 30
0.0
 11
86.3718647065803
 21
3.052027610229529
 31
0.0
  0
LINE
  5
7A
330
1F
100
AcDbEntity
  8
0
100
AcDbLine
 10
86.3718647065803
 20
3.052027610229529
 30
0.0
 11
86.73363613892641
 21
3.201878243986752
 31
0.0
  0
LINE
  5
7B
330
1F
100
AcDbEntity
  8
0
100
AcDbLine
 10
86.73363613892641
 20
3.201878243986752
 30
0.0
 11
87.04429631070603
 21
3.440256177883827
 31
0.0
  0
LINE
  5
7C
330
1F
100
AcDbEntity
  8
0
100
AcDbLine
 10
87.04429631070603
 20
3.440256177883827
 30
0.0
 11
87.28267424460263
 21
3.750916349663822
 31
0.0
  0
LINE
  5
7D
330
1F
100
AcDbEntity
  8
0
100
AcDbLine
 10
87.28267424460263
 20
3.750916349663822
 30
0.0
 11
87.43252487835939
 21
4.112687782010143
 31
0.0
  0
LINE
  5
7E
330
1F
100
AcDbEntity
  8
0
100
AcDbLine
 10
87.43252487835939
 20
4.112687782010143
 30
0.0
 11
87.48363613892535
 21
4.500916349663944
 31
0.0
  0
LINE
  5
7F
330
1F
100
AcDbEntity
  8
0
100
AcDbLine
 10
87.48363613892535
 20
4.500916349663944
 30
0.0
 11
87.43252487835866
 21
4.889144917317678
 31
0.0
  0
LINE
  5
80
330
1F
100
AcDbEntity
  8
0
100
AcDbLine
 10
87.43252487835866
 20
4.889144917317678
 30
0.0
 11
87.28267424460155
 21
5.250916349663774
 31
0.0
  0
LINE
  5
81
330
1F
100
AcDbEntity
  8
0
100
AcDbLine
 10
143.7660792655783
 20
34.26984757527341
 30
0.0
 11
145.5212654707
 21
30.58291576596966
 31
0.0
  0
LINE
  5
82
330
1F
100
AcDbEntity
  8
0
100
AcDbLine
 10
145.5212654707
 20
30.58291576596966
 30
0.0
 11
147.0414838530046
 21
26.79305022070181
 31
0.0
  0
LINE
  5
83
330
1F
100
AcDbEntity
  8
0
100
AcDbLine
 10
147.0414838530046
 20
26.79305022070181
 30
0.0
 11
148.3207348050591
 21
22.91520780735219
 31
0.0
  0
LINE
  5
84
330
1F
100
AcDbEntity
  8
0
100
AcDbLine
 10
148.3207348050591
 20
22.91520780735219
 30
0.0
 11
149.3539697077897
 21
18.96469259830863
 31
0.0
  0
LINE
  5
85
330
1F
100
AcDbEntity
  8
0
100
AcDbLine
 10
149.3539697077897
 20
18.96469259830863
 30
0.0
 11
150.1371108550755
 21
14.95709547228246
 31
0.0
  0
LINE
  5
86
330
1F
100
AcDbEntity
  8
0
100
AcDbLine
 10
150.1371108550755
 20
14.95709547228246
 30
0.0
 11
150.6670675465914
 21
10.90823258423314
 31
0.0
  0
LINE
  5
87
330
1F
100
AcDbEntity
  8
0
100
AcDbLine
 10
150.6670675465914
 20
10.90823258423314
 30
0.0
 11
150.94174828539
 21
6.834082946230345
 31
0.0
  0
LINE
  5
88
330
1F
100
AcDbEntity
  8
0
100
AcDbLine
 10
150.94174828539
 20
6.834082946230345
 30
0.0
 11
150.9600690320852
 21
2.750725365593325
 31
0.0
  0
LINE
  5
89
330
1F
100
AcDbEntity
  8
0
100
AcDbLine
 10
150.9600690320852
 20
2.750725365593325
 30
0.0
 11
150.7219574830596
 21
-1.325725010815764
 31
0.0
  0
LINE
  5
8A
330
1F
100
AcDbEntity
  8
0
100
AcDbLine
 10
150.7219574830596
 20
-1.325725010815764
 30
0.0
 11
150.2283533558143
 21
-5.379180295714288
 31
0.0
  0
LINE
  5
8B
330
1F
100
AcDbEntity
  8
0
100
AcDbLine
 10
150.2283533558143
 20
-5.379180295714288
 30
0.0
 11
149.4812046803335
 21
-9.393643352940323
 31
0.0
  0
LINE
  5
8C
330
1F
100
AcDbEntity
  8
0
100
AcDbLine
 10
149.4812046803335
 20
-9.393643352940323
 30
0.0
 11
148.4834601110993
 21
-13.35327093084067
 31
0.0
  0
LINE
  5
8D
330
1F
100
AcDbEntity
  8
0
100
AcDbLine
 10
148.4834601110993
 20
-13.35327093084067
 30
0.0
 11
147.2390572901005
 21
-17.24243618834718
 31
0.0
  0
LINE
  5
8E
330
1F
100
AcDbEntity
  8
0
100
AcDbLine
 10
147.2390572901005
 20
-17.24243618834718
 30
0.0
 11
145.752907306758
 21
-21.04579036697903
 31
0.0
  0
LINE
  5
8F
330
1F
100
AcDbEntity
  8
0
100
AcDbLine
 10
145.752907306758
 20
-21.04579036697903
 30
0.0
 11
144.0308753160986
 21
-24.74832336538039
 31
0.0
  0
LINE
  5
90
330
1F
100
AcDbEntity
  8
0
100
AcDbLine
 10
144.0308753160986
 20
-24.74832336538039
 30
0.0
 11
142.079757391668
 21
-28.33542297733304
 31
0.0
  0
LINE
  5
91
330
1F
100
AcDbEntity
  8
0
100
AcDbLine
 10
142.079757391668
 20
-28.33542297733304
 30
0.0
 11
139.9072537045328
 21
-31.79293255945852
 31
0.0
  0
LINE
  5
92
330
1F
100
AcDbEntity
  8
0
100
AcDbLine
 10
139.9072537045328
 20
-31.79293255945852
 30
0.0
 11
137.5219381342238
 21
-35.10720690102205
 31
0.0
  0
LINE
  5
93
330
1F
100
AcDbEntity
  8
0
100
AcDbLine
 10
137.5219381342238
 20
-35.10720690102205
 30
0.0
 11
134.9332244315497
 21
-38.26516607534535
 31
0.0
  0
LINE
  5
94
330
1F
100
AcDbEntity
  8
0
100
AcDbLine
 10
134.9332244315497
 20
-38.26516607534535
 30
0.0
 11
132.1513290668243
 21
-41.25434706030176
 31
0.0
  0
LINE
  5
95
330
1F
100
AcDbEntity
  8
0
100
AcDbLine
 10
132.1513290668243
 20
-41.25434706030176
 30
0.0
 11
129.1872309101252
 21
-44.06295292417052
 31
0.0
  0
LINE
  5
96
330
1F
100
AcDbEntity
  8
0
100
AcDbLine
 10
129.1872309101252
 20
-44.06295292417052
 30
0.0
 11
126.052627902709
 21
-46.67989938273687
 31
0.0
  0
LINE
  5
97
330
1F
100
AcDbEntity
  8
0
100
AcDbLine
 10
126.052627902709
 20
-46.67989938273687
 30
0.0
 11
122.7598908905823
 21
-49.09485854389801
 31
0.0
  0
LINE
  5
98
330
1F
100
AcDbEntity
  8
0
100
AcDbLine
 10
122.7598908905823
 20
-49.09485854389801
 30
0.0
 11
119.3220148024234
 21
-51.2982996671347
 31
0.0
  0
LINE
  5
99
330
1F
100
AcDbEntity
  8
0
100
AcDbLine
 10
119.3220148024234
 20
-51.2982996671347
 30
0.0
 11
115.7525673645361
 21
-53.28152677699003
 31
0.0
  0
LINE
  5
9A
330
1F
100
AcDbEntity
  8
0
100
AcDbLine
 10
115.7525673645361
 20
-53.28152677699003
 30
0.0
 11
112.0656355552323
 21
-55.03671298211169
 31
0.0
  0
LINE
  5
9B
330
1F
100
AcDbEntity
  8
0
100
AcDbLine
 10
112.0656355552323
 20
-55.03671298211169
 30
0.0
 11
108.2757700099645
 21
-56.55693136441635
 31
0.0
  0
LINE
  5
9C
330
1F
100
AcDbEntity
  8
0
100
AcDbLine
 10
108.2757700099645
 20
-56.55693136441635
 30
0.0
 11
104.3979275966149
 21
-57.83618231647076
 31
0.0
  0
LINE
  5
9D
330
1F
100
AcDbEntity
  8
0
100
AcDbLine
 10
104.3979275966149
 20
-57.83618231647076
 30
0.0
 11
100.4474123875713
 21
-58.86941721920137
 31
0.0
  0
LINE
  5
9E
330
1F
100
AcDbEntity
  8
0
100
AcDbLine
 10
100.4474123875713
 20
-58.86941721920137
 30
0.0
 11
96.43981526154518
 21
-59.65255836648719
 31
0.0
  0
LINE
  5
9F
330
1F
100
AcDbEntity
  8
0
100
AcDbLine
 10
96.43981526154518
 20
-59.65255836648719
 30
0.0
 11
92.39095237349588
 21
-60.18251505800306
 31
0.0
  0
LINE
  5
A0
330
1F
100
AcDbEntity
  8
0
100
AcDbLine
 10
92.39095237349588
 20
-60.18251505800306
 30
0.0
 11
88.31680273549306
 21
-60.45719579680175
 31
0.0
  0
LINE
  5
A1
330
1F
100
AcDbEntity
  8
0
100
AcDbLine
 10
88.31680273549306
 20
-60.45719579680175
 30
0.0
 11
86.95872265515722
 21
-60.46328907681757
 31
0.0
  0
LINE
  5
A2
330
1F
100
AcDbEntity
  8
0
100
AcDbLine
 10
84.23344515485608
 20
-60.4755165434969
 30
0.0
 11
80.15699477844697
 21
-60.23740499447126
 31
0.0
  0
LINE
  5
A3
330
1F
100
AcDbEntity
  8
0
100
AcDbLine
 10
80.15699477844697
 20
-60.23740499447126
 30
0.0
 11
76.10353949354842
 21
-59.74380086722604
 31
0.0
  0
LINE
  5
A4
330
1F
100
AcDbEntity
  8
0
100
AcDbLine
 10
76.10353949354842
 20
-59.74380086722604
 30
0.0
 11
72.08907643632234
 21
-58.99665219174516
 31
0.0
  0
LINE
  5
A5
330
1F
100
AcDbEntity
  8
0
100
AcDbLine
 10
72.08907643632234
 20
-58.99665219174516
 30
0.0
 11
68.12944885842198
 21
-57.99890762251101
 31
0.0
  0
LINE
  5
A6
330
1F
100
AcDbEntity
  8
0
100
AcDbLine
 10
68.12944885842198
 20
-57.99890762251101
 30
0.0
 11
64.24028360091553
 21
-56.75450480151221
 31
0.0
  0
LINE
  5
A7
330
1F
100
AcDbEntity
  8
0
100
AcDbLine
 10
64.24028360091553
 20
-56.75450480151221
 30
0.0
 11
60.43692942228368
 21
-55.2683548181697
 31
0.0
  0
LINE
  5
A8
330
1F
100
AcDbEntity
  8
0
100
AcDbLine
 10
60.43692942228368
 20
-55.2683548181697
 30
0.0
 11
56.7343964238823
 21
-53.54632282751034
 31
0.0
  0
LINE
  5
A9
330
1F
100
AcDbEntity
  8
0
100
AcDbLine
 10
56.7343964238823
 20
-53.54632282751034
 30
0.0
 11
53.14729681192967
 21
-51.59520490307971
 31
0.0
  0
LINE
  5
AA
330
1F
100
AcDbEntity
  8
0
100
AcDbLine
 10
53.14729681192967
 20
-51.59520490307971
 30
0.0
 11
49.68978722980415
 21
-49.42270121594454
 31
0.0
  0
LINE
  5
AB
330
1F
100
AcDbEntity
  8
0
100
AcDbLine
 10
49.68978722980415
 20
-49.42270121594454
 30
0.0
 11
46.37551288824061
 21
-47.03738564563544
 31
0.0
  0
LINE
  5
AC
330
1F
100
AcDbEntity
  8
0
100
AcDbLine
 10
46.37551288824061
 20
-47.03738564563544
 30
0.0
 11
43.21755371391732
 21
-44.4486719429614
 31
0.0
  0
LINE
  5
AD
330
1F
100
AcDbEntity
  8
0
100
AcDbLine
 10
43.21755371391732
 20
-44.4486719429614
 30
0.0
 11
40.22837272896093
 21
-41.66677657823605
 31
0.0
  0
LINE
  5
AE
330
1F
100
AcDbEntity
  8
0
100
AcDbLine
 10
40.22837272896093
 20
-41.66677657823605
 30
0.0
 11
37.4197668650922
 21
-38.70267842153688
 31
0.0
  0
LINE
  5
AF
330
1F
100
AcDbEntity
  8
0
100
AcDbLine
 10
37.4197668650922
 20
-38.70267842153688
 30
0.0
 11
34.80282040652585
 21
-35.56807541412074
 31
0.0
  0
LINE
  5
B0
330
1F
100
AcDbEntity
  8
0
100
AcDbLine
 10
34.80282040652585
 20
-35.56807541412074
 30
0.0
 11
32.38786124536467
 21
-32.27533840199401
 31
0.0
  0
LINE
  5
B1
330
1F
100
AcDbEntity
  8
0
100
AcDbLine
 10
32.38786124536467
 20
-32.27533840199401
 30
0.0
 11
30.18442012212802
 21
-28.8374623138351
 31
0.0
  0
LINE
  5
B2
330
1F
100
AcDbEntity
  8
0
100
AcDbLine
 10
30.18442012212802
 20
-28.8374623138351
 30
0.0
 11
28.20119301227269
 21
-25.26801487594782
 31
0.0
  0
LINE
  5
B3
330
1F
100
AcDbEntity
  8
0
100
AcDbLine
 10
28.20119301227269
 20
-25.26801487594782
 30
0.0
 11
26.44600680715105
 21
-21.58108306664407
 31
0.0
  0
LINE
  5
B4
330
1F
100
AcDbEntity
  8
0
100
AcDbLine
 10
26.44600680715105
 20
-21.58108306664407
 30
0.0
 11
24.9257884248464
 21
-17.7912175213762
 31
0.0
  0
LINE
  5
B5
330
1F
100
AcDbEntity
  8
0
100
AcDbLine
 10
24.9257884248464
 20
-17.7912175213762
 30
0.0
 11
23.64653747279199
 21
-13.91337510802658
 31
0.0
  0
LINE
  5
B6
330
1F
100
AcDbEntity
  8
0
100
AcDbLine
 10
23.64653747279199
 20
-13.91337510802658
 30
0.0
 11
22.61330257006131
 21
-9.962859898983018
 31
0.0
  0
LINE
  5
B7
330
1F
100
AcDbEntity
  8
0
100
AcDbLine
 10
22.61330257006131
 20
-9.962859898983018
 30
0.0
 11
21.83016142277553
 21
-5.955262772956829
 31
0.0
  0
LINE
  5
B8
330
1F
100
AcDbEntity
  8
0
100
AcDbLine
 10
21.83016142277553
 20
-5.955262772956829
 30
0.0
 11
21.30020473125963
 21
-1.906399884907578
 31
0.0
  0
LINE
  5
B9
330
1F
100
AcDbEntity
  8
0
100
AcDbLine
 10
21.30020473125963
 20
-1.906399884907578
 30
0.0
 11
21.02552399246098
 21
2.167749753095242
 31
0.0
  0
LINE
  5
BA
330
1F
100
AcDbEntity
  8
0
100
AcDbLine
 10
21.02552399246098
 20
2.167749753095242
 30
0.0
 11
21.00720324576585
 21
6.251107333732262
 31
0.0
  0
LINE
  5
BB
330
1F
100
AcDbEntity
  8
0
100
AcDbLine
 10
21.00720324576585
 20
6.251107333732262
 30
0.0
 11
21.24531479479144
 21
10.32755771014137
 31
0.0
  0
LINE
  5
BC
330
1F
100
AcDbEntity
  8
0
100
AcDbLine
 10
21.24531479479144
 20
10.32755771014137
 30
0.0
 11
21.73891892203665
 21
14.3810129950399
 31
0.0
  0
LINE
  5
BD
330
1F
100
AcDbEntity
  8
0
100
AcDbLine
 10
21.73891892203665
 20
14.3810129950399
 30
0.0
 11
22.48606759751754
 21
18.39547605226591
 31
0.0
  0
LINE
  5
BE
330
1F
100
AcDbEntity
  8
0
100
AcDbLine
 10
22.48606759751754
 20
18.39547605226591
 30
0.0
 11
23.48381216675169
 21
22.35510363016626
 31
0.0
  0
LINE
  5
BF
330
1F
100
AcDbEntity
  8
0
100
AcDbLine
 10
23.48381216675169
 20
22.35510363016626
 30
0.0
 11
24.72821498775052
 21
26.24426888767276
 31
0.0
  0
LINE
  5
C0
330
1F
100
AcDbEntity
  8
0
100
AcDbLine
 10
24.72821498775052
 20
26.24426888767276
 30
0.0
 11
26.214364971093
 21
30.04762306630458
 31
0.0
  0
LINE
  5
C1
330
1F
100
AcDbEntity
  8
0
100
AcDbLine
 10
26.214364971093
 20
30.04762306630458
 30
0.0
 11
27.93639696175239
 21
33.750156064706
 31
0.0
  0
LINE
  5
C2
330
1F
100
AcDbEntity
  8
0
100
AcDbLine
 10
27.93639696175239
 20
33.750156064706
 30
0.0
 11
29.23432813498139
 21
36.13638210954629
 31
0.0
  0
LINE
  5
C3
330
1F
100
AcDbEntity
  8
0
100
AcDbLine
 10
29.88751488618297
 20
37.33725567665863
 30
0.0
 11
32.06001857331817
 21
40.79476525878413
 31
0.0
  0
LINE
  5
C4
330
1F
100
AcDbEntity
  8
0
100
AcDbLine
 10
32.06001857331817
 20
40.79476525878413
 30
0.0
 11
34.44533414362724
 21
44.10903960034764
 31
0.0
  0
LINE
  5
C5
330
1F
100
AcDbEntity
  8
0
100
AcDbLine
 10
34.44533414362724
 20
44.10903960034764
 30
0.0
 11
37.03404784630131
 21
47.26699877467094
 31
0.0
  0
LINE
  5
C6
330
1F
100
AcDbEntity
  8
0
100
AcDbLine
 10
37.03404784630131
 20
47.26699877467094
 30
0.0
 11
39.81594321102669
 21
50.25617975962737
 31
0.0
  0
LINE
  5
C7
330
1F
100
AcDbEntity
  8
0
100
AcDbLine
 10
39.81594321102669
 20
50.25617975962737
 30
0.0
 11
42.78004136772579
 21
53.06478562349611
 31
0.0
  0
LINE
  5
C8
330
1F
100
AcDbEntity
  8
0
100
AcDbLine
 10
42.78004136772579
 20
53.06478562349611
 30
0.0
 11
45.91464437514198
 21
55.68173208206245
 31
0.0
  0
LINE
  5
C9
330
1F
100
AcDbEntity
  8
0
100
AcDbLine
 10
45.91464437514198
 20
55.68173208206245
 30
0.0
 11
49.20738138726865
 21
58.09669124322359
 31
0.0
  0
LINE
  5
CA
330
1F
100
AcDbEntity
  8
0
100
AcDbLine
 10
49.20738138726865
 20
58.09669124322359
 30
0.0
 11
52.64525747542763
 21
60.30013236646028
 31
0.0
  0
LINE
  5
CB
330
1F
100
AcDbEntity
  8
0
100
AcDbLine
 10
52.64525747542763
 20
60.30013236646028
 30
0.0
 11
56.21470491331487
 21
62.28335947631562
 31
0.0
  0
LINE
  5
CC
330
1F
100
AcDbEntity
  8
0
100
AcDbLine
 10
56.21470491331487
 20
62.28335947631562
 30
0.0
 11
59.9016367226186
 21
64.03854568143726
 31
0.0
  0
LINE
  5
CD
330
1F
100
AcDbEntity
  8
0
100
AcDbLine
 10
59.9016367226186
 20
64.03854568143726
 30
0.0
 11
63.69150226788649
 21
65.55876406374195
 31
0.0
  0
LINE
  5
CE
330
1F
100
AcDbEntity
  8
0
100
AcDbLine
 10
63.69150226788649
 20
65.55876406374195
 30
0.0
 11
67.56934468123612
 21
66.83801501579636
 31
0.0
  0
LINE
  5
CF
330
1F
100
AcDbEntity
  8
0
100
AcDbLine
 10
67.56934468123612
 20
66.83801501579636
 30
0.0
 11
71.51985989027972
 21
67.87124991852694
 31
0.0
  0
LINE
  5
D0
330
1F
100
AcDbEntity
  8
0
100
AcDbLine
 10
71.51985989027972
 20
67.87124991852694
 30
0.0
 11
75.52745701630585
 21
68.65439106581277
 31
0.0
  0
LINE
  5
D1
330
1F
100
AcDbEntity
  8
0
100
AcDbLine
 10
75.52745701630585
 20
68.65439106581277
 30
0.0
 11
79.57631990435513
 21
69.18434775732867
 31
0.0
  0
LINE
  5
D2
330
1F
100
AcDbEntity
  8
0
100
AcDbLine
 10
79.57631990435513
 20
69.18434775732867
 30
0.0
 11
83.65046954235795
 21
69.45902849612733
 31
0.0
  0
LINE
  5
D3
330
1F
100
AcDbEntity
  8
0
100
AcDbLine
 10
83.65046954235795
 20
69.45902849612733
 30
0.0
 11
87.73382712299494
 21
69.4773492428225
 31
0.0
  0
LINE
  5
D4
330
1F
100
AcDbEntity
  8
0
100
AcDbLine
 10
87.73382712299494
 20
69.4773492428225
 30
0.0
 11
91.81027749940414
 21
69.23923769379687
 31
0.0
  0
LINE
  5
D5
330
1F
100
AcDbEntity
  8
0
100
AcDbLine
 10
91.81027749940414
 20
69.23923769379687
 30
0.0
 11
95.86373278430258
 21
68.74563356655165
 31
0.0
  0
LINE
  5
D6
330
1F
100
AcDbEntity
  8
0
100
AcDbLine
 10
95.86373278430258
 20
68.74563356655165
 30
0.0
 11
99.87819584152858
 21
67.99848489107077
 31
0.0
  0
LINE
  5
D7
330
1F
100
AcDbEntity
  8
0
100
AcDbLine
 10
99.87819584152858
 20
67.99848489107077
 30
0.0
 11
103.837823419429
 21
67.00074032183662
 31
0.0
  0
LINE
  5
D8
330
1F
100
AcDbEntity
  8
0
100
AcDbLine
 10
103.837823419429
 20
67.00074032183662
 30
0.0
 11
107.7269886769355
 21
65.75633750083779
 31
0.0
  0
LINE
  5
D9
330
1F
100
AcDbEntity
  8
0
100
AcDbLine
 10
107.7269886769355
 20
65.75633750083779
 30
0.0
 11
111.5303428555673
 21
64.27018751749526
 31
0.0
  0
LINE
  5
DA
330
1F
100
AcDbEntity
  8
0
100
AcDbLine
 10
111.5303428555673
 20
64.27018751749526
 30
0.0
 11
115.2328758539687
 21
62.54815552683592
 31
0.0
  0
LINE
  5
DB
330
1F
100
AcDbEntity
  8
0
100
AcDbLine
 10
115.2328758539687
 20
62.54815552683592
 30
0.0
 11
118.8199754659213
 21
60.59703760240533
 31
0.0
  0
LINE
  5
DC
330
1F
100
AcDbEntity
  8
0
100
AcDbLine
 10
118.8199754659213
 20
60.59703760240533
 30
0.0
 11
122.2774850480468
 21
58.42453391527012
 31
0.0
  0
LINE
  5
DD
330
1F
100
AcDbEntity
  8
0
100
AcDbLine
 10
122.2774850480468
 20
58.42453391527012
 30
0.0
 11
125.5917593896104
 21
56.03921834496107
 31
0.0
  0
LINE
  5
DE
330
1F
100
AcDbEntity
  8
0
100
AcDbLine
 10
125.5917593896104
 20
56.03921834496107
 30
0.0
 11
128.7497185639337
 21
53.45050464228694
 31
0.0
  0
LINE
  5
DF
330
1F
100
AcDbEntity
  8
0
100
AcDbLine
 10
128.7497185639337
 20
53.45050464228694
 30
0.0
 11
131.7388995488901
 21
50.66860927756161
 31
0.0
  0
LINE
  5
E0
330
1F
100
AcDbEntity
  8
0
100
AcDbLine
 10
131.7388995488901
 20
50.66860927756161
 30
0.0
 11
134.5475054127588
 21
47.70451112086247
 31
0.0
  0
LINE
  5
E1
330
1F
100
AcDbEntity
  8
0
100
AcDbLine
 10
134.5475054127588
 20
47.70451112086247
 30
0.0
 11
137.1644518713252
 21
44.5699081134463
 31
0.0
  0
LINE
  5
E2
330
1F
100
AcDbEntity
  8
0
100
AcDbLine
 10
137.1644518713252
 20
44.5699081134463
 30
0.0
 11
139.5794110324863
 21
41.2771711013196
 31
0.0
  0
LINE
  5
E3
330
1F
100
AcDbEntity
  8
0
100
AcDbLine
 10
139.5794110324863
 20
41.2771711013196
 30
0.0
 11
141.782852155723
 21
37.83929501316072
 31
0.0
  0
LINE
  5
E4
330
1F
100
AcDbEntity
  8
0
100
AcDbLine
 10
86.95872265515722
 20
-60.46328907681757
 30
0.0
 11
86.28190258165132
 21
-14.45293331832521
 31
0.0
  0
LINE
  5
E5
330
1F
100
AcDbEntity
  8
0
100
AcDbLine
 10
142.2476837266338
 20
37.00268288155375
 30
0.0
 11
143.7660792655783
 21
34.26984757527341
 31
0.0
  0
LINE
  5
E6
330
1F
100
AcDbEntity
  8
0
100
AcDbLine
 10
85.99943213675125
 20
-60.4675931129564
 30
0.0
 11
84.23344515485608
 21
-60.4755165434969
 31
0.0
  0
LINE
  5
E7
330
1F
100
AcDbEntity
  8
0
100
AcDbLine
 10
29.73250368352409
 20
37.05227001897821
 30
0.0
 11
29.88751488618297
 21
37.33725567665863
 31
0.0
  0
LINE
  5
E8
330
1F
100
AcDbEntity
  8
0
100
AcDbLine
 10
76.45538492155578
 20
18.57970993216453
 30
0.0
 11
77.35820151220256
 21
19.15021249316841
 31
0.0
  0
LINE
  5
E9
330
1F
100
AcDbEntity
  8
0
100
AcDbLine
 10
77.35820151220256
 20
19.15021249316841
 30
0.0
 11
78.2950587527348
 21
19.66290097492065
 31
0.0
  0
LINE
  5
EA
330
1F
100
AcDbEntity
  8
0
100
AcDbLine
 10
78.2950587527348
 20
19.66290097492065
 30
0.0
 11
79.26225929563331
 21
20.1157520302089
 31
0.0
  0
LINE
  5
EB
330
1F
100
AcDbEntity
  8
0
100
AcDbLine
 10
79.26225929563331
 20
20.1157520302089
 30
0.0
 11
80.25598604222746
 21
20.50697846280587
 31
0.0
  0
LINE
  5
EC
330
1F
100
AcDbEntity
  8
0
100
AcDbLine
 10
80.25598604222746
 20
20.50697846280587
 30
0.0
 11
81.27231720703875
 21
20.83503628071648
 31
0.0
  0
LINE
  5
ED
330
1F
100
AcDbEntity
  8
0
100
AcDbLine
 10
81.27231720703875
 20
20.83503628071648
 30
0.0
 11
82.30724179527739
 21
21.0986307896088
 31
0.0
  0
LINE
  5
EE
330
1F
100
AcDbEntity
  8
0
100
AcDbLine
 10
82.30724179527739
 20
21.0986307896088
 30
0.0
 11
83.35667543240558
 21
21.29672170238108
 31
0.0
  0
LINE
  5
EF
330
1F
100
AcDbEntity
  8
0
100
AcDbLine
 10
83.35667543240558
 20
21.29672170238108
 30
0.0
 11
84.41647648329824
 21
21.42852724469974
 31
0.0
  0
LINE
  5
F0
330
1F
100
AcDbEntity
  8
0
100
AcDbLine
 10
84.41647648329824
 20
21.42852724469974
 30
0.0
 11
85.48246239738452
 21
21.4935272403055
 31
0.0
  0
LINE
  5
F1
330
1F
100
AcDbEntity
  8
0
100
AcDbLine
 10
85.48246239738452
 20
21.4935272403055
 30
0.0
 11
85.66466046921
 21
21.4935272403055
 31
0.0
  0
LINE
  5
F2
330
1F
100
AcDbEntity
  8
0
100
AcDbLine
 10
100.6329322824311
 20
13.12635097638573
 30
0.0
 11
101.0407815133583
 21
12.38107091131829
 31
0.0
  0
LINE
  5
F3
330
1F
100
AcDbEntity
  8
0
100
AcDbLine
 10
101.1456207641834
 20
12.18949373585354
 30
0.0
 11
101.5984718194716
 21
11.22229319295491
 31
0.0
  0
LINE
  5
F4
330
1F
100
AcDbEntity
  8
0
100
AcDbLine
 10
101.5984718194716
 20
11.22229319295491
 30
0.0
 11
101.9896982520686
 21
10.22856644636083
 31
0.0
  0
LINE
  5
F5
330
1F
100
AcDbEntity
  8
0
100
AcDbLine
 10
101.9896982520686
 20
10.22856644636083
 30
0.0
 11
102.3177560699792
 21
9.212235281549502
 31
0.0
  0
LINE
  5
F6
330
1F
100
AcDbEntity
  8
0
100
AcDbLine
 10
102.3177560699792
 20
9.212235281549502
 30
0.0
 11
102.5813505788715
 21
8.177310693310893
 31
0.0
  0
LINE
  5
F7
330
1F
100
AcDbEntity
  8
0
100
AcDbLine
 10
102.5813505788715
 20
8.177310693310893
 30
0.0
 11
102.7794414916438
 21
7.127877056182704
 31
0.0
  0
LINE
  5
F8
330
1F
100
AcDbEntity
  8
0
100
AcDbLine
 10
102.7794414916438
 20
7.127877056182704
 30
0.0
 11
102.9112470339624
 21
6.068076005290084
 31
0.0
  0
LINE
  5
F9
330
1F
100
AcDbEntity
  8
0
100
AcDbLine
 10
102.9112470339624
 20
6.068076005290084
 30
0.0
 11
102.9762470295682
 21
5.002090091203829
 31
0.0
  0
LINE
  5
FA
330
1F
100
AcDbEntity
  8
0
100
AcDbLine
 10
102.9762470295682
 20
5.002090091203829
 30
0.0
 11
102.9741849531741
 21
3.934126273324233
 31
0.0
  0
LINE
  5
FB
330
1F
100
AcDbEntity
  8
0
100
AcDbLine
 10
102.9741849531741
 20
3.934126273324233
 30
0.0
 11
102.9050689428535
 21
2.868399316934186
 31
0.0
  0
LINE
  5
FC
330
1F
100
AcDbEntity
  8
0
100
AcDbLine
 10
102.9050689428535
 20
2.868399316934186
 30
0.0
 11
102.7691717679231
 21
1.809115159446231
 31
0.0
  0
LINE
  5
FD
330
1F
100
AcDbEntity
  8
0
100
AcDbLine
 10
102.7691717679231
 20
1.809115159446231
 30
0.0
 11
102.5670297524469
 21
0.7604543114890653
 31
0.0
  0
LINE
  5
FE
330
1F
100
AcDbEntity
  8
0
100
AcDbLine
 10
102.5670297524469
 20
0.7604543114890653
 30
0.0
 11
102.2994406586099
 21
-0.2734446416579784
 31
0.0
  0
LINE
  5
FF
330
1F
100
AcDbEntity
  8
0
100
AcDbLine
 10
102.2994406586099
 20
-0.2734446416579784
 30
0.0
 11
101.9674605383158
 21
-1.288501373170341
 31
0.0
  0
LINE
  5
100
330
1F
100
AcDbEntity
  8
0
100
AcDbLine
 10
101.9674605383158
 20
-1.288501373170341
 30
0.0
 11
101.5723995654321
 21
-2.280709917864041
 31
0.0
  0
LINE
  5
101
330
1F
100
AcDbEntity
  8
0
100
AcDbLine
 10
101.5723995654321
 20
-2.280709917864041
 30
0.0
 11
101.1158168651325
 21
-3.246154481910166
 31
0.0
  0
LINE
  5
102
330
1F
100
AcDbEntity
  8
0
100
AcDbLine
 10
101.1158168651325
 20
-3.246154481910166
 30
0.0
 11
100.816967074305
 21
-3.787282649080433
 31
0.0
  0
LINE
  5
103
330
1F
100
AcDbEntity
  8
0
100
AcDbLine
 10
85.41684606258693
 20
-12.48963246458578
 30
0.0
 11
84.3511191061969
 21
-12.42051645426521
 31
0.0
  0
LINE
  5
104
330
1F
100
AcDbEntity
  8
0
100
AcDbLine
 10
84.3511191061969
 20
-12.42051645426521
 30
0.0
 11
83.29183494870895
 21
-12.28461927933482
 31
0.0
  0
LINE
  5
105
330
1F
100
AcDbEntity
  8
0
100
AcDbLine
 10
83.29183494870895
 20
-12.28461927933482
 30
0.0
 11
82.24317410075183
 21
-12.08247726385857
 31
0.0
  0
LINE
  5
106
330
1F
100
AcDbEntity
  8
0
100
AcDbLine
 10
82.24317410075183
 20
-12.08247726385857
 30
0.0
 11
81.20927514760471
 21
-11.81488817002161
 31
0.0
  0
LINE
  5
107
330
1F
100
AcDbEntity
  8
0
100
AcDbLine
 10
81.20927514760471
 20
-11.81488817002161
 30
0.0
 11
80.19421841609237
 21
-11.48290804972753
 31
0.0
  0
LINE
  5
108
330
1F
100
AcDbEntity
  8
0
100
AcDbLine
 10
80.19421841609237
 20
-11.48290804972753
 30
0.0
 11
79.20200987139864
 21
-11.0878470768438
 31
0.0
  0
LINE
  5
109
330
1F
100
AcDbEntity
  8
0
100
AcDbLine
 10
79.20200987139864
 20
-11.0878470768438
 30
0.0
 11
78.23656530735258
 21
-10.63126437654421
 31
0.0
  0
LINE
  5
10A
330
1F
100
AcDbEntity
  8
0
100
AcDbLine
 10
78.23656530735258
 20
-10.63126437654421
 30
0.0
 11
77.3016948925786
 21
-10.11496187215408
 31
0.0
  0
LINE
  5
10B
330
1F
100
AcDbEntity
  8
0
100
AcDbLine
 10
77.3016948925786
 20
-10.11496187215408
 30
0.0
 11
76.40108813350247
 21
-9.54097717378203
 31
0.0
  0
LINE
  5
10C
330
1F
100
AcDbEntity
  8
0
100
AcDbLine
 10
76.40108813350247
 20
-9.54097717378203
 30
0.0
 11
75.53829931355388
 21
-8.911575536803882
 31
0.0
  0
LINE
  5
10D
330
1F
100
AcDbEntity
  8
0
100
AcDbLine
 10
75.53829931355388
 20
-8.911575536803882
 30
0.0
 11
74.71673346603457
 21
-8.229240921934524
 31
0.0
  0
LINE
  5
10E
330
1F
100
AcDbEntity
  8
0
100
AcDbLine
 10
74.71673346603457
 20
-8.229240921934524
 30
0.0
 11
73.93963293600699
 21
-7.496666192169831
 31
0.0
  0
LINE
  5
10F
330
1F
100
AcDbEntity
  8
0
100
AcDbLine
 10
73.93963293600699
 20
-7.496666192169831
 30
0.0
 11
73.21006458423956
 21
-6.716742485286589
 31
0.0
  0
LINE
  5
110
330
1F
100
AcDbEntity
  8
0
100
AcDbLine
 10
73.21006458423956
 20
-6.716742485286589
 30
0.0
 11
72.53090768370878
 21
-5.892547803842628
 31
0.0
  0
LINE
  5
111
330
1F
100
AcDbEntity
  8
0
100
AcDbLine
 10
72.53090768370878
 20
-5.892547803842628
 30
0.0
 11
71.90484255642377
 21
-5.027334867706917
 31
0.0
  0
LINE
  5
112
330
1F
100
AcDbEntity
  8
0
100
AcDbLine
 10
71.90484255642377
 20
-5.027334867706917
 30
0.0
 11
71.33433999541994
 21
-4.124518277060142
 31
0.0
  0
LINE
  5
113
330
1F
100
AcDbEntity
  8
0
100
AcDbLine
 10
71.36775791710865
 20
13.18285759600966
 30
0.0
 11
71.9417426154807
 21
14.08346435508587
 31
0.0
  0
LINE
  5
114
330
1F
100
AcDbEntity
  8
0
100
AcDbLine
 10
71.9417426154807
 20
14.08346435508587
 30
0.0
 11
72.57114425245888
 21
14.94625317503445
 31
0.0
  0
LINE
  5
115
330
1F
100
AcDbEntity
  8
0
100
AcDbLine
 10
72.57114425245888
 20
14.94625317503445
 30
0.0
 11
73.25347886732817
 21
15.76781902255375
 31
0.0
  0
LINE
  5
116
330
1F
100
AcDbEntity
  8
0
100
AcDbLine
 10
73.25347886732817
 20
15.76781902255375
 30
0.0
 11
73.98605359709289
 21
16.54491955258136
 31
0.0
  0
LINE
  5
117
330
1F
100
AcDbEntity
  8
0
100
AcDbLine
 10
73.98605359709289
 20
16.54491955258136
 30
0.0
 11
74.76597730397613
 21
17.27448790434874
 31
0.0
  0
LINE
  5
118
330
1F
100
AcDbEntity
  8
0
100
AcDbLine
 10
74.76597730397613
 20
17.27448790434874
 30
0.0
 11
75.59017198542008
 21
17.95364480487949
 31
0.0
  0
LINE
  5
119
330
1F
100
AcDbEntity
  8
0
100
AcDbLine
 10
75.59017198542008
 20
17.95364480487949
 30
0.0
 11
76.45538492155578
 21
18.57970993216453
 31
0.0
  0
LINE
  5
11A
330
1F
100
AcDbEntity
  8
0
100
AcDbLine
 10
102.2558112444427
 20
14.22123131682893
 30
0.0
 11
100.6329322824311
 21
13.12635097638573
 31
0.0
  0
LINE
  5
11B
330
1F
100
AcDbEntity
  8
0
100
AcDbLine
 10
71.14087017584369
 20
12.77203131688084
 30
0.0
 11
71.36775791710865
 21
13.18285759600966
 31
0.0
  0
LINE
  5
11C
330
1F
100
AcDbEntity
  8
0
100
AcDbLine
 10
86.28190258165132
 20
-12.49169454097991
 30
0.0
 11
85.41684606258693
 21
-12.48963246458578
 31
0.0
  0
LINE
  5
11D
330
1F
100
AcDbEntity
  8
0
100
AcDbLine
 10
86.28190258165132
 20
-14.45293331832521
 30
0.0
 11
86.28190258165132
 21
-12.49169454097991
 31
0.0
  0
LINE
  5
11E
330
1F
100
AcDbEntity
  8
0
100
AcDbLine
 10
75.85159485748932
 20
19.97966757420519
 30
0.0
 11
76.84350695756753
 21
20.58531993040178
 31
0.0
  0
LINE
  5
11F
330
1F
100
AcDbEntity
  8
0
100
AcDbLine
 10
76.84350695756753
 20
20.58531993040178
 30
0.0
 11
77.87149097179685
 21
21.12749449393019
 31
0.0
  0
LINE
  5
120
330
1F
100
AcDbEntity
  8
0
100
AcDbLine
 10
77.87149097179685
 20
21.12749449393019
 30
0.0
 11
78.93148991691412
 21
21.60405154948421
 31
0.0
  0
LINE
  5
121
330
1F
100
AcDbEntity
  8
0
100
AcDbLine
 10
78.93148991691412
 20
21.60405154948421
 30
0.0
 11
80.01932046135052
 21
22.01311034408375
 31
0.0
  0
LINE
  5
122
330
1F
100
AcDbEntity
  8
0
100
AcDbLine
 10
80.01932046135052
 20
22.01311034408375
 30
0.0
 11
81.13068943492975
 21
22.35305650954772
 31
0.0
  0
LINE
  5
123
330
1F
100
AcDbEntity
  8
0
100
AcDbLine
 10
81.13068943492975
 20
22.35305650954772
 30
0.0
 11
82.26121077204917
 21
22.62254843366767
 31
0.0
  0
LINE
  5
124
330
1F
100
AcDbEntity
  8
0
100
AcDbLine
 10
82.26121077204917
 20
22.62254843366767
 30
0.0
 11
83.40642282147721
 21
22.82052255493825
 31
0.0
  0
LINE
  5
125
330
1F
100
AcDbEntity
  8
0
100
AcDbLine
 10
83.40642282147721
 20
22.82052255493825
 30
0.0
 11
84.56180595445248
 21
22.94619755994857
 31
0.0
  0
LINE
  5
126
330
1F
100
AcDbEntity
  8
0
100
AcDbLine
 10
84.56180595445248
 20
22.94619755994857
 30
0.0
 11
85.66466046921
 21
22.99642936271997
 31
0.0
  0
LINE
  5
127
330
1F
100
AcDbEntity
  8
0
100
AcDbLine
 10
102.6102142831929
 20
12.6130615167915
 30
0.0
 11
103.0867713387469
 21
11.55306257167418
 31
0.0
  0
LINE
  5
128
330
1F
100
AcDbEntity
  8
0
100
AcDbLine
 10
103.0867713387469
 20
11.55306257167418
 30
0.0
 11
103.4958301333465
 21
10.46523202723774
 31
0.0
  0
LINE
  5
129
330
1F
100
AcDbEntity
  8
0
100
AcDbLine
 10
103.4958301333465
 20
10.46523202723774
 30
0.0
 11
103.8357762988104
 21
9.35386305365855
 31
0.0
  0
LINE
  5
12A
330
1F
100
AcDbEntity
  8
0
100
AcDbLine
 10
103.8357762988104
 20
9.35386305365855
 30
0.0
 11
104.1052682229304
 21
8.223341716539151
 31
0.0
  0
LINE
  5
12B
330
1F
100
AcDbEntity
  8
0
100
AcDbLine
 10
104.1052682229304
 20
8.223341716539151
 30
0.0
 11
104.303242344201
 21
7.078129667111072
 31
0.0
  0
LINE
  5
12C
330
1F
100
AcDbEntity
  8
0
100
AcDbLine
 10
104.303242344201
 20
7.078129667111072
 30
0.0
 11
104.4289173492113
 21
5.922746534135797
 31
0.0
  0
LINE
  5
12D
330
1F
100
AcDbEntity
  8
0
100
AcDbLine
 10
104.4289173492113
 20
5.922746534135797
 30
0.0
 11
104.481797256132
 21
4.761752086994826
 31
0.0
  0
LINE
  5
12E
330
1F
100
AcDbEntity
  8
0
100
AcDbLine
 10
104.481797256132
 20
4.761752086994826
 30
0.0
 11
104.4616733721291
 21
3.599728240363111
 31
0.0
  0
LINE
  5
12F
330
1F
100
AcDbEntity
  8
0
100
AcDbLine
 10
104.4616733721291
 20
3.599728240363111
 30
0.0
 11
104.3686251169789
 21
2.441260971485138
 31
0.0
  0
LINE
  5
130
330
1F
100
AcDbEntity
  8
0
100
AcDbLine
 10
104.3686251169789
 20
2.441260971485138
 30
0.0
 11
104.2030197096348
 21
1.290922221417771
 31
0.0
  0
LINE
  5
131
330
1F
100
AcDbEntity
  8
0
100
AcDbLine
 10
104.2030197096348
 20
1.290922221417771
 30
0.0
 11
103.9655107189818
 21
0.1532518516677832
 31
0.0
  0
LINE
  5
132
330
1F
100
AcDbEntity
  8
0
100
AcDbLine
 10
103.9655107189818
 20
0.1532518516677832
 30
0.0
 11
103.6570354844983
 21
-0.9672602725676114
 31
0.0
  0
LINE
  5
133
330
1F
100
AcDbEntity
  8
0
100
AcDbLine
 10
103.6570354844983
 20
-0.9672602725676114
 30
0.0
 11
103.278811417006
 21
-2.066192001847307
 31
0.0
  0
LINE
  5
134
330
1F
100
AcDbEntity
  8
0
100
AcDbLine
 10
103.278811417006
 20
-2.066192001847307
 30
0.0
 11
102.8323311941051
 21
-3.139206354690023
 31
0.0
  0
LINE
  5
135
330
1F
100
AcDbEntity
  8
0
100
AcDbLine
 10
102.8323311941051
 20
-3.139206354690023
 30
0.0
 11
102.319356869258
 21
-4.182068633658704
 31
0.0
  0
LINE
  5
136
330
1F
100
AcDbEntity
  8
0
100
AcDbLine
 10
102.319356869258
 20
-4.182068633658704
 30
0.0
 11
102.1301634915931
 21
-4.512523910636432
 31
0.0
  0
LINE
  5
137
330
1F
100
AcDbEntity
  8
0
100
AcDbLine
 10
85.08244802962578
 20
-13.97712088354078
 30
0.0
 11
83.92398076074781
 21
-13.88407262839059
 31
0.0
  0
LINE
  5
138
330
1F
100
AcDbEntity
  8
0
100
AcDbLine
 10
83.92398076074781
 20
-13.88407262839059
 30
0.0
 11
82.77364201068046
 21
-13.71846722104652
 31
0.0
  0
LINE
  5
139
330
1F
100
AcDbEntity
  8
0
100
AcDbLine
 10
82.77364201068046
 20
-13.71846722104652
 30
0.0
 11
81.63597164093055
 21
-13.48095823039347
 31
0.0
  0
LINE
  5
13A
330
1F
100
AcDbEntity
  8
0
100
AcDbLine
 10
81.63597164093055
 20
-13.48095823039347
 30
0.0
 11
80.51545951669506
 21
-13.17248299591001
 31
0.0
  0
LINE
  5
13B
330
1F
100
AcDbEntity
  8
0
100
AcDbLine
 10
80.51545951669506
 20
-13.17248299591001
 30
0.0
 11
79.4165277874154
 21
-12.79425892841768
 31
0.0
  0
LINE
  5
13C
330
1F
100
AcDbEntity
  8
0
100
AcDbLine
 10
79.4165277874154
 20
-12.79425892841768
 30
0.0
 11
78.34351343457269
 21
-12.34777870551677
 31
0.0
  0
LINE
  5
13D
330
1F
100
AcDbEntity
  8
0
100
AcDbLine
 10
78.34351343457269
 20
-12.34777870551677
 30
0.0
 11
77.30065115560399
 21
-11.83480438066966
 31
0.0
  0
LINE
  5
13E
330
1F
100
AcDbEntity
  8
0
100
AcDbLine
 10
77.30065115560399
 20
-11.83480438066966
 30
0.0
 11
76.29205665148596
 21
-11.25736042918081
 31
0.0
  0
LINE
  5
13F
330
1F
100
AcDbEntity
  8
0
100
AcDbLine
 10
76.29205665148596
 20
-11.25736042918081
 30
0.0
 11
75.32171038394341
 21
-10.61772575851773
 31
0.0
  0
LINE
  5
140
330
1F
100
AcDbEntity
  8
0
100
AcDbLine
 10
75.32171038394341
 20
-10.61772575851773
 30
0.0
 11
74.39344186638516
 21
-9.918424714504233
 31
0.0
  0
LINE
  5
141
330
1F
100
AcDbEntity
  8
0
100
AcDbLine
 10
74.39344186638516
 20
-9.918424714504233
 30
0.0
 11
73.51091455056458
 21
-9.162217118880756
 31
0.0
  0
LINE
  5
142
330
1F
100
AcDbEntity
  8
0
100
AcDbLine
 10
73.51091455056458
 20
-9.162217118880756
 30
0.0
 11
72.67761136860878
 21
-8.352087377548893
 31
0.0
  0
LINE
  5
143
330
1F
100
AcDbEntity
  8
0
100
AcDbLine
 10
72.67761136860878
 20
-8.352087377548893
 30
0.0
 11
71.89682098747697
 21
-7.491232702484559
 31
0.0
  0
LINE
  5
144
330
1F
100
AcDbEntity
  8
0
100
AcDbLine
 10
71.89682098747697
 20
-7.491232702484559
 30
0.0
 11
71.17162483009416
 21
-6.58305049380318
 31
0.0
  0
LINE
  5
145
330
1F
100
AcDbEntity
  8
0
100
AcDbLine
 10
71.17162483009416
 20
-6.58305049380318
 30
0.0
 11
70.50488491438307
 21
-5.631124931773403
 31
0.0
  0
LINE
  5
146
330
1F
100
AcDbEntity
  8
0
100
AcDbLine
 10
70.50488491438307
 20
-5.631124931773403
 30
0.0
 11
70.08153817729922
 21
-4.937785350500768
 31
0.0
  0
LINE
  5
147
330
1F
100
AcDbEntity
  8
0
100
AcDbLine
 10
70.86499403074497
 20
15.16284210464489
 30
0.0
 11
71.56429507475852
 21
16.09111062220313
 31
0.0
  0
LINE
  5
148
330
1F
100
AcDbEntity
  8
0
100
AcDbLine
 10
71.56429507475852
 20
16.09111062220313
 30
0.0
 11
72.32050267038191
 21
16.97363793802372
 31
0.0
  0
LINE
  5
149
330
1F
100
AcDbEntity
  8
0
100
AcDbLine
 10
72.32050267038191
 20
16.97363793802372
 30
0.0
 11
73.1306324117138
 21
17.80694111997952
 31
0.0
  0
LINE
  5
14A
330
1F
100
AcDbEntity
  8
0
100
AcDbLine
 10
73.1306324117138
 20
17.80694111997952
 30
0.0
 11
73.99148708677814
 21
18.58773150111138
 31
0.0
  0
LINE
  5
14B
330
1F
100
AcDbEntity
  8
0
100
AcDbLine
 10
73.99148708677814
 20
18.58773150111138
 30
0.0
 11
74.89966929545957
 21
19.31292765849413
 31
0.0
  0
LINE
  5
14C
330
1F
100
AcDbEntity
  8
0
100
AcDbLine
 10
74.89966929545957
 20
19.31292765849413
 30
0.0
 11
75.85159485748932
 21
19.97966757420519
 31
0.0
  0
LINE
  5
14D
330
1F
100
AcDbEntity
  8
0
100
AcDbLine
 10
70.3620638461718
 20
14.39988091786424
 30
0.0
 11
70.86499403074497
 21
15.16284210464489
 31
0.0
  0
LINE
  5
14E
330
1F
100
AcDbEntity
  8
0
100
AcDbLine
 10
70.08153817729922
 20
-4.937785350500768
 30
0.0
 11
71.33433999541994
 21
-4.124518277060142
 31
0.0
  0
LINE
  5
14F
330
1F
100
AcDbEntity
  8
0
100
AcDbLine
 10
85.32368514630224
 20
-15.38867159155518
 30
0.0
 11
85.99943213675125
 21
-60.4675931129564
 31
0.0
  0
LINE
  5
150
330
1F
100
AcDbEntity
  8
0
100
AcDbLine
 10
85.32368514630224
 20
-13.97712088354078
 30
0.0
 11
85.08244802962578
 21
-13.97712088354078
 31
0.0
  0
LINE
  5
151
330
1F
100
AcDbEntity
  8
0
100
AcDbLine
 10
85.32368514630224
 20
-15.38867159155518
 30
0.0
 11
85.32368514630224
 21
-13.97712088354078
 31
0.0
  0
LINE
  5
152
330
1F
100
AcDbEntity
  8
0
100
AcDbLine
 10
102.1301634915931
 20
-4.512523910636432
 30
0.0
 11
100.816967074305
 21
-3.787282649080433
 31
0.0
  0
LINE
  5
153
330
1F
100
AcDbEntity
  8
0
100
AcDbLine
 10
101.0407815133583
 20
12.38107091131829
 30
0.0
 11
101.1456207641834
 21
12.18949373585354
 31
0.0
  0
LINE
  5
154
330
1F
100
AcDbEntity
  8
0
100
AcDbLine
 10
102.3271785017271
 20
13.14970834306125
 30
0.0
 11
102.6102142831929
 21
12.6130615167915
 31
0.0
  0
LINE
  5
155
330
1F
100
AcDbEntity
  8
0
100
AcDbLine
 10
85.66466046921
 20
22.99642936271997
 30
0.0
 11
85.66466046921
 21
21.4935272403055
 31
0.0
  0
ENDSEC
  0
SECTION
  2
OBJECTS
  0
DICTIONARY
  5
C
330
0
100
AcDbDictionary
  3
ACAD_GROUP
350
D
  3
ACAD_LAYOUT
350
1A
  3
ACAD_MATERIAL
350
3B
  3
ACAD_MLEADERSTYLE
350
178
  3
ACAD_MLINESTYLE
350
17
  3
ACAD_PLOTSETTINGS
350
19
  3
ACAD_VISUALSTYLE
350
2A
  3
ACDBHEADERROUNDTRIPXREC
350
156
  3
ACDBVARIABLEDICTIONARY
350
176
  0
DICTIONARY
  5
D
102
{ACAD_REACTORS
330
C
102
}
330
C
100
AcDbDictionary
  0
DICTIONARY
  5
1A
102
{ACAD_REACTORS
330
C
102
}
330
C
100
AcDbDictionary
  0
DICTIONARY
  5
3B
102
{ACAD_REACTORS
330
C
102
}
330
C
100
AcDbDictionary
  3
BYBLOCK
350
3D
  3
BYLAYER
350
3C
  3
GLOBAL
350
3E
  0
DICTIONARY
  5
178
102
{ACAD_REACTORS
330
C
102
}
330
C
100
AcDbDictionary
  0
DICTIONARY
  5
17
102
{ACAD_REACTORS
330
C
102
}
330
C
100
AcDbDictionary
  3
STANDARD
350
18
  0
DICTIONARY
  5
19
102
{ACAD_REACTORS
330
C
102
}
330
C
100
AcDbDictionary
  0
DICTIONARY
  5
2A
102
{ACAD_REACTORS
330
C
102
}
330
C
100
AcDbDictionary
  3
2DWIREFRAME
350
2F
  3
3D_HIDDEN
350
31
  3
3DWIREFRAME
350
30
  3
BASIC
350
32
  3
BRIGHTEN
350
36
  3
COLORCHANGE
350
3A
  3
CONCEPTUAL
350
34
  3
DIM
350
35
  3
FACEPATTERN
350
39
  3
FLAT
350
2B
  3
FLATWITHEDGES
350
2C
  3
GOURAUD
350
2D
  3
GOURAUDWITHEDGES
350
2E
  3
LINEPATTERN
350
38
  3
REALISTIC
350
33
  3
THICKEN
350
37
  0
DICTIONARY
  5
156
102
{ACAD_REACTORS
330
C
102
}
330
C
100
AcDbDictionary
  3
CEPSNTYPE
350
15F
  3
DIMSTYLEDATA
350
175
  3
FINGERPRINTGUID
350
160
  3
HYPERLINKBASE
350
159
  3
INSUNITS
350
15E
  3
LAYOUTDICT
350
15B
  3
LWETCUNION
350
15D
  3
PLOTSETDICT
350
15C
  3
PSVPSCALE
350
162
  3
PUCSBASE
350
165
  3
PUCSORGBACK
350
16B
  3
PUCSORGBOTTOM
350
167
  3
PUCSORGFRONT
350
16A
  3
PUCSORGLEFT
350
168
  3
PUCSORGRIGHT
350
169
  3
PUCSORGTOP
350
166
  3
PUCSORTHOREF
350
163
  3
PUCSORTHOVIEW
350
164
  3
STYLESHEET
350
15A
  3
TSTACKALIGN
350
157
  3
TSTACKSIZE
350
158
  3
UCSBASE
350
16E
  3
UCSORGBACK
350
174
  3
UCSORGBOTTOM
350
170
  3
UCSORGFRONT
350
173
  3
UCSORGLEFT
350
171
  3
UCSORGRIGHT
350
172
  3
UCSORGTOP
350
16F
  3
UCSORTHOREF
350
16C
  3
UCSORTHOVIEW
350
16D
  3
VERSIONGUID
350
161
  0
DICTIONARY
  5
176
102
{ACAD_REACTORS
330
C
102
}
330
C
100
AcDbDictionary
  3
DIMASSOC
350
179
  3
HIDETEXT
350
17A
  0
MATERIAL
  5
3D
102
{ACAD_REACTORS
330
3B
102
}
102
{ACAD_XDICTIONARY
360
17D
102
}
330
3B
100
AcDbMaterial
  1
ByBlock
  0
MATERIAL
  5
3C
102
{ACAD_REACTORS
330
3B
102
}
102
{ACAD_XDICTIONARY
360
17B
102
}
330
3B
100
AcDbMaterial
  1
ByLayer
  0
MATERIAL
  5
3E
102
{ACAD_REACTORS
330
3B
102
}
102
{ACAD_XDICTIONARY
360
17F
102
}
330
3B
100
AcDbMaterial
  1
Global
  0
MLINESTYLE
  5
18
102
{ACAD_REACTORS
330
17
102
}
330
17
100
AcDbMlineStyle
  2
Standard
 70
     0
  3

 62
   256
 51
90.0
 52
90.0
 71
     2
 49
0.5
 62
   256
  6
BYLAYER
 49
-0.5
 62
   256
  6
BYLAYER
  0
ACAD_PROXY_OBJECT
  5
2F
102
{ACAD_REACTORS
330
2A
102
}
330
2A
100
AcDbProxyObject
 90
      499
 91
      501
 93
      436
310
42CC9915DA5C99599C985B595049028333333333333E3BF0000000000000FB0107901411070040501600405405064090741402480A0340
1001
ACAD
1000
AcDbSavedByObjectVersion
1070
     0
  0
ACAD_PROXY_OBJECT
  5
31
102
{ACAD_REACTORS
330
2A
102
}
330
2A
100
AcDbProxyObject
 90
      499
 91
      501
 93
      500
310
424CD108121A5919195B90640502408333333333333E3BF0000000000000FB01079024090700405020000000000001110200405405064090740C02480A0340
1001
ACAD
1000
AcDbSavedByObjectVersion
1070
     0
  0
ACAD_PROXY_OBJECT
  5
30
102
{ACAD_REACTORS
330
2A
102
}
330
2A
100
AcDbProxyObject
 90
      499
 91
      501
 93
      436
310
42CCD915DA5C99599C985B595059028333333333333E3BF0000000000000FB0107901411070040501600405405064090741402480A0340
1001
ACAD
1000
AcDbSavedByObjectVersion
1070
     0
  0
ACAD_PROXY_OBJECT
  5
32
102
{ACAD_REACTORS
330
2A
102
}
330
2A
100
AcDbProxyObject
 90
      499
 91
      501
 93
      388
310
4150985CDA58D07406404333333333333E3BF0000000000000FB0107A41107004050150841D405064090741402480A0350
1001
ACAD
1000
AcDbSavedByObjectVersion
1070
     0
  0
ACAD_PROXY_OBJECT
  5
36
102
{ACAD_REACTORS
330
2A
102
}
330
2A
100
AcDbProxyObject
 90
      499
 91
      501
 93
      428
310
42109C9A59DA1D195B90C409028333333333333E3BF0000000000000FB010790141107004050150841D405064090741402480A029950
1001
ACAD
1000
AcDbSavedByObjectVersion
1070
     0
  0
ACAD_PROXY_OBJECT
  5
3A
102
{ACAD_REACTORS
330
2A
102
}
330
2A
100
AcDbProxyObject
 90
      499
 91
      501
 93
      452
310
42D0DBDB1BDC90DA185B99D95104090240C333333333333E3BF0000000000000FB0108901411070040501508421405064090741402480A0350
1001
ACAD
1000
AcDbSavedByObjectVersion
1070
     0
  0
ACAD_PROXY_OBJECT
  5
34
102
{ACAD_REACTORS
330
2A
102
}
330
2A
100
AcDbProxyObject
 90
      499
 91
      501
 93
      500
310
4290DBDB98D95C1D1D585B10940D028333333333333E3BF0000000000000FB0107902409070040501000000000000111010841D405064090740C02480A0340
1001
ACAD
1000
AcDbSavedByObjectVersion
1070
     0
  0
ACAD_PROXY_OBJECT
  5
35
102
{ACAD_REACTORS
330
2A
102
}
330
2A
100
AcDbProxyObject
 90
      499
 91
      501
 93
      412
310
40D11A5B50B409028333333333333E3BF0000000000000FB010790141107004050150841D405064090741402480A02677FFFFFD0
1001
ACAD
1000
AcDbSavedByObjectVersion
1070
     0
  0
ACAD_PROXY_OBJECT
  5
39
102
{ACAD_REACTORS
330
2A
102
}
330
2A
100
AcDbProxyObject
 90
      499
 91
      501
 93
      444
310
42D19858D95C185D1D195C9B90F409028333333333333E3BF0000000000000FB010790141107004050150841D405064090741402480A0350
1001
ACAD
1000
AcDbSavedByObjectVersion
1070
     0
  0
ACAD_PROXY_OBJECT
  5
2B
102
{ACAD_REACTORS
330
2A
102
}
330
2A
100
AcDbProxyObject
 90
      499
 91
      501
 93
      388
310
41119B185D240901404333333333333E3BF0000000000000F9010740A41107004050150841D405064090741402480A1B50
1001
ACAD
1000
AcDbSavedByObjectVersion
1070
     0
  0
ACAD_PROXY_OBJECT
  5
2C
102
{ACAD_REACTORS
330
2A
102
}
330
2A
100
AcDbProxyObject
 90
      499
 91
      501
 93
      476
310
43519B185D15DA5D1A115919D95CD0140901404333333333333E3BF0000000000000F9010740901411070040501600405405064090741402480A1B50
1001
ACAD
1000
AcDbSavedByObjectVersion
1070
     0
  0
ACAD_PROXY_OBJECT
  5
2D
102
{ACAD_REACTORS
330
2A
102
}
330
2A
100
AcDbProxyObject
 90
      499
 91
      501
 93
      412
310
41D1DBDD5C985D5910240902404333333333333E3BF0000000000000F9010740A411070040501641D405064090741402480A1B50
1001
ACAD
1000
AcDbSavedByObjectVersion
1070
     0
  0
ACAD_PROXY_OBJECT
  5
2E
102
{ACAD_REACTORS
330
2A
102
}
330
2A
100
AcDbProxyObject
 90
      499
 91
      501
 93
      500
310
4411DBDD5C985D5915DA5D1A115919D95CD0340902404333333333333E3BF0000000000000F9010740901411070040501600405405064090741402480A1B50
1001
ACAD
1000
AcDbSavedByObjectVersion
1070
     0
  0
ACAD_PROXY_OBJECT
  5
38
102
{ACAD_REACTORS
330
2A
102
}
330
2A
100
AcDbProxyObject
 90
      499
 91
      501
 93
      444
310
42D31A5B995C185D1D195C9B90E409028333333333333E3BF0000000000000FB010790141107004050750841D405064090741402483A0350
1001
ACAD
1000
AcDbSavedByObjectVersion
1070
     0
  0
ACAD_PROXY_OBJECT
  5
33
102
{ACAD_REACTORS
330
2A
102
}
330
2A
100
AcDbProxyObject
 90
      499
 91
      501
 93
      420
310
425499585B1A5CDD1A58D08409028333333333333E3BF0000000000000FB01079019070040501508421405064090741402480A1B40
1001
ACAD
1000
AcDbSavedByObjectVersion
1070
     0
  0
ACAD_PROXY_OBJECT
  5
37
102
{ACAD_REACTORS
330
2A
102
}
330
2A
100
AcDbProxyObject
 90
      499
 91
      501
 93
      412
310
41D51A1A58DAD95B90D409028333333333333E3BF0000000000000FB010790141107004050150C41D405064090741402480A0350
1001
ACAD
1000
AcDbSavedByObjectVersion
1070
     0
  0
XRECORD
  5
15F
102
{ACAD_REACTORS
330
156
102
}
330
156
100
AcDbXrecord
 90
        0
  0
XRECORD
  5
175
102
{ACAD_REACTORS
330
156
102
}
330
156
100
AcDbXrecord
1000
DSTYLE
1002
{
1070
   340
340
11
1002
}
  0
XRECORD
  5
160
102
{ACAD_REACTORS
330
156
102
}
330
156
100
AcDbXrecord
  1
{CC2B58F1-0E17-4F59-81D3-FC54B4685663}
  0
XRECORD
  5
159
102
{ACAD_REACTORS
330
156
102
}
330
156
100
AcDbXrecord
  1

  0
XRECORD
  5
15E
102
{ACAD_REACTORS
330
156
102
}
330
156
100
AcDbXrecord
 90
        1
  0
XRECORD
  5
15B
102
{ACAD_REACTORS
330
156
102
}
330
156
100
AcDbXrecord
340
1A
  0
XRECORD
  5
15D
102
{ACAD_REACTORS
330
156
102
}
330
156
100
AcDbXrecord
 90
    10781
  0
XRECORD
  5
15C
102
{ACAD_REACTORS
330
156
102
}
330
156
100
AcDbXrecord
340
19
  0
XRECORD
  5
162
102
{ACAD_REACTORS
330
156
102
}
330
156
100
AcDbXrecord
 40
0.0
  0
XRECORD
  5
165
102
{ACAD_REACTORS
330
156
102
}
330
156
100
AcDbXrecord
340
0
  0
XRECORD
  5
16B
102
{ACAD_REACTORS
330
156
102
}
330
156
100
AcDbXrecord
 10
0.0
 20
0.0
 30
0.0
  0
XRECORD
  5
167
102
{ACAD_REACTORS
330
156
102
}
330
156
100
AcDbXrecord
 10
0.0
 20
0.0
 30
0.0
  0
XRECORD
  5
16A
102
{ACAD_REACTORS
330
156
102
}
330
156
100
AcDbXrecord
 10
0.0
 20
0.0
 30
0.0
  0
XRECORD
  5
168
102
{ACAD_REACTORS
330
156
102
}
330
156
100
AcDbXrecord
 10
0.0
 20
0.0
 30
0.0
  0
XRECORD
  5
169
102
{ACAD_REACTORS
330
156
102
}
330
156
100
AcDbXrecord
 10
0.0
 20
0.0
 30
0.0
  0
XRECORD
  5
166
102
{ACAD_REACTORS
330
156
102
}
330
156
100
AcDbXrecord
 10
0.0
 20
0.0
 30
0.0
  0
XRECORD
  5
163
102
{ACAD_REACTORS
330
156
102
}
330
156
100
AcDbXrecord
340
0
  0
XRECORD
  5
164
102
{ACAD_REACTORS
330
156
102
}
330
156
100
AcDbXrecord
 70
     0
  0
XRECORD
  5
15A
102
{ACAD_REACTORS
330
156
102
}
330
156
100
AcDbXrecord
  1

  0
XRECORD
  5
157
102
{ACAD_REACTORS
330
156
102
}
330
156
100
AcDbXrecord
 90
        1
  0
XRECORD
  5
158
102
{ACAD_REACTORS
330
156
102
}
330
156
100
AcDbXrecord
 90
       70
  0
XRECORD
  5
16E
102
{ACAD_REACTORS
330
156
102
}
330
156
100
AcDbXrecord
340
0
  0
XRECORD
  5
174
102
{ACAD_REACTORS
330
156
102
}
330
156
100
AcDbXrecord
 10
0.0
 20
0.0
 30
0.0
  0
XRECORD
  5
170
102
{ACAD_REACTORS
330
156
102
}
330
156
100
AcDbXrecord
 10
0.0
 20
0.0
 30
0.0
  0
XRECORD
  5
173
102
{ACAD_REACTORS
330
156
102
}
330
156
100
AcDbXrecord
 10
0.0
 20
0.0
 30
0.0
  0
XRECORD
  5
171
102
{ACAD_REACTORS
330
156
102
}
330
156
100
AcDbXrecord
 10
0.0
 20
0.0
 30
0.0
  0
XRECORD
  5
172
102
{ACAD_REACTORS
330
156
102
}
330
156
100
AcDbXrecord
 10
0.0
 20
0.0
 30
0.0
  0
XRECORD
  5
16F
102
{ACAD_REACTORS
330
156
102
}
330
156
100
AcDbXrecord
 10
0.0
 20
0.0
 30
0.0
  0
XRECORD
  5
16C
102
{ACAD_REACTORS
330
156
102
}
330
156
100
AcDbXrecord
340
0
  0
XRECORD
  5
16D
102
{ACAD_REACTORS
330
156
102
}
330
156
100
AcDbXrecord
 70
     0
  0
XRECORD
  5
161
102
{ACAD_REACTORS
330
156
102
}
330
156
100
AcDbXrecord
  1
{FAEB1C32-E019-11D5-929B-00C0DF256EC4}
  0
DICTIONARYVAR
  5
179
102
{ACAD_REACTORS
330
176
102
}
330
176
100
DictionaryVariables
280
     0
  1
2
  0
DICTIONARYVAR
  5
17A
102
{ACAD_REACTORS
330
176
102
}
330
176
100
DictionaryVariables
280
     0
  1
1
  0
DICTIONARY
  5
17D
330
3D
100
AcDbDictionary
280
     1
  3
ACAD_XREC_ROUNDTRIP
360
17E
  0
DICTIONARY
  5
17B
330
3C
100
AcDbDictionary
280
     1
  3
ACAD_XREC_ROUNDTRIP
360
17C
  0
DICTIONARY
  5
17F
330
3E
100
AcDbDictionary
280
     1
  3
ACAD_XREC_ROUNDTRIP
360
180
  0
XRECORD
  5
17E
102
{ACAD_REACTORS
330
17D
102
}
330
17D
100
AcDbXrecord
102
MATERIAL
148
0.0
149
0.0
149
0.0
 93
        0
 94
      127
282
     0
 72
     1
 77
     1
171
     1
175
     1
179
     1
273
     0
  0
XRECORD
  5
17C
102
{ACAD_REACTORS
330
17B
102
}
330
17B
100
AcDbXrecord
102
MATERIAL
148
0.0
149
0.0
149
0.0
 93
        0
 94
      127
282
     0
 72
     1
 77
     1
171
     1
175
     1
179
     1
273
     0
  0
XRECORD
  5
180
102
{ACAD_REACTORS
330
17F
102
}
330
17F
100
AcDbXrecord
102
MATERIAL
148
0.0
149
0.0
149
0.0
 93
        0
 94
      127
282
     0
 72
     1
 77
     1
171
     1
175
     1
179
     1
273
     0
  0
ENDSEC
  0
EOF
