  0
SECTION
  2
HEADER
  9
$ACADVER
  1
AC1014
  9
$ACADMAINTVER
 70
     9
  9
$DWGCODEPAGE
  3
ANSI_1252
  9
$INSBASE
 10
0.0
 20
0.0
 30
0.0
  9
$EXTMIN
 10
1.000000000000000E+20
 20
1.000000000000000E+20
 30
1.000000000000000E+20
  9
$EXTMAX
 10
-1.000000000000000E+20
 20
-1.000000000000000E+20
 30
-1.000000000000000E+20
  9
$LIMMIN
 10
0.0
 20
0.0
  9
$LIMMAX
 10
12.0
 20
9.0
  9
$ORTHOMODE
 70
     0
  9
$REGENMODE
 70
     1
  9
$FILLMODE
 70
     1
  9
$QTEXTMODE
 70
     0
  9
$MIRRTEXT
 70
     1
  9
$DRAGMODE
 70
     2
  9
$LTSCALE
 40
1.0
  9
$OSMODE
 70
    37
  9
$ATTMODE
 70
     1
  9
$TEXTSIZE
 40
0.2
  9
$TRACEWID
 40
0.05
  9
$TEXTSTYLE
  7
STANDARD
  9
$CLAYER
  8
0
  9
$CELTYPE
  6
BYLAYER
  9
$CECOLOR
 62
   256
  9
$CELTSCALE
 40
1.0
  9
$DELOBJ
 70
     1
  9
$DISPSILH
 70
     0
  9
$DIMSCALE
 40
1.0
  9
$DIMASZ
 40
0.18
  9
$DIMEXO
 40
0.0625
  9
$DIMDLI
 40
0.38
  9
$DIMRND
 40
0.0
  9
$DIMDLE
 40
0.0
  9
$DIMEXE
 40
0.18
  9
$DIMTP
 40
0.0
  9
$DIMTM
 40
0.0
  9
$DIMTXT
 40
0.18
  9
$DIMCEN
 40
0.09
  9
$DIMTSZ
 40
0.0
  9
$DIMTOL
 70
     0
  9
$DIMLIM
 70
     0
  9
$DIMTIH
 70
     1
  9
$DIMTOH
 70
     1
  9
$DIMSE1
 70
     0
  9
$DIMSE2
 70
     0
  9
$DIMTAD
 70
     0
  9
$DIMZIN
 70
     0
  9
$DIMBLK
  1

  9
$DIMASO
 70
     1
  9
$DIMSHO
 70
     1
  9
$DIMPOST
  1

  9
$DIMAPOST
  1

  9
$DIMALT
 70
     0
  9
$DIMALTD
 70
     2
  9
$DIMALTF
 40
25.4
  9
$DIMLFAC
 40
1.0
  9
$DIMTOFL
 70
     0
  9
$DIMTVP
 40
0.0
  9
$DIMTIX
 70
     0
  9
$DIMSOXD
 70
     0
  9
$DIMSAH
 70
     0
  9
$DIMBLK1
  1

  9
$DIMBLK2
  1

  9
$DIMSTYLE
  2
STANDARD
  9
$DIMCLRD
 70
     0
  9
$DIMCLRE
 70
     0
  9
$DIMCLRT
 70
     0
  9
$DIMTFAC
 40
1.0
  9
$DIMGAP
 40
0.09
  9
$DIMJUST
 70
     0
  9
$DIMSD1
 70
     0
  9
$DIMSD2
 70
     0
  9
$DIMTOLJ
 70
     1
  9
$DIMTZIN
 70
     0
  9
$DIMALTZ
 70
     0
  9
$DIMALTTZ
 70
     0
  9
$DIMFIT
 70
     3
  9
$DIMUPT
 70
     0
  9
$DIMUNIT
 70
     2
  9
$DIMDEC
 70
     4
  9
$DIMTDEC
 70
     4
  9
$DIMALTU
 70
     2
  9
$DIMALTTD
 70
     2
  9
$DIMTXSTY
  7
STANDARD
  9
$DIMAUNIT
 70
     0
  9
$LUNITS
 70
     2
  9
$LUPREC
 70
     4
  9
$SKETCHINC
 40
0.1
  9
$FILLETRAD
 40
0.5
  9
$AUNITS
 70
     0
  9
$AUPREC
 70
     0
  9
$MENU
  1
.
  9
$ELEVATION
 40
0.0
  9
$PELEVATION
 40
0.0
  9
$THICKNESS
 40
0.0
  9
$LIMCHECK
 70
     0
  9
$CHAMFERA
 40
0.5
  9
$CHAMFERB
 40
0.5
  9
$CHAMFERC
 40
1.0
  9
$CHAMFERD
 40
0.0
  9
$SKPOLY
 70
     0
  9
$TDCREATE
 40
2457272.879499468
  9
$TDUPDATE
 40
2457272.879499479
  9
$TDINDWG
 40
0.0000000116
  9
$TDUSRTIMER
 40
0.0000000116
  9
$USRTIMER
 70
     1
  9
$ANGBASE
 50
0.0
  9
$ANGDIR
 70
     0
  9
$PDMODE
 70
     0
  9
$PDSIZE
 40
0.0
  9
$PLINEWID
 40
0.0
  9
$COORDS
 70
     1
  9
$SPLFRAME
 70
     0
  9
$SPLINETYPE
 70
     6
  9
$SPLINESEGS
 70
     8
  9
$ATTDIA
 70
     0
  9
$ATTREQ
 70
     1
  9
$HANDLING
 70
     1
  9
$HANDSEED
  5
124
  9
$SURFTAB1
 70
     6
  9
$SURFTAB2
 70
     6
  9
$SURFTYPE
 70
     6
  9
$SURFU
 70
     6
  9
$SURFV
 70
     6
  9
$UCSNAME
  2

  9
$UCSORG
 10
0.0
 20
0.0
 30
0.0
  9
$UCSXDIR
 10
1.0
 20
0.0
 30
0.0
  9
$UCSYDIR
 10
0.0
 20
1.0
 30
0.0
  9
$PUCSNAME
  2

  9
$PUCSORG
 10
0.0
 20
0.0
 30
0.0
  9
$PUCSXDIR
 10
1.0
 20
0.0
 30
0.0
  9
$PUCSYDIR
 10
0.0
 20
1.0
 30
0.0
  9
$USERI1
 70
     0
  9
$USERI2
 70
     0
  9
$USERI3
 70
     0
  9
$USERI4
 70
     0
  9
$USERI5
 70
     0
  9
$USERR1
 40
0.0
  9
$USERR2
 40
0.0
  9
$USERR3
 40
0.0
  9
$USERR4
 40
0.0
  9
$USERR5
 40
0.0
  9
$WORLDVIEW
 70
     1
  9
$SHADEDGE
 70
     3
  9
$SHADEDIF
 70
    70
  9
$TILEMODE
 70
     1
  9
$MAXACTVP
 70
    64
  9
$PINSBASE
 10
0.0
 20
0.0
 30
0.0
  9
$PLIMCHECK
 70
     0
  9
$PEXTMIN
 10
1.000000000000000E+20
 20
1.000000000000000E+20
 30
1.000000000000000E+20
  9
$PEXTMAX
 10
-1.000000000000000E+20
 20
-1.000000000000000E+20
 30
-1.000000000000000E+20
  9
$PLIMMIN
 10
0.0
 20
0.0
  9
$PLIMMAX
 10
12.0
 20
9.0
  9
$UNITMODE
 70
     0
  9
$VISRETAIN
 70
     1
  9
$PLINEGEN
 70
     0
  9
$PSLTSCALE
 70
     1
  9
$TREEDEPTH
 70
  3020
  9
$PICKSTYLE
 70
     1
  9
$CMLSTYLE
  2
STANDARD
  9
$CMLJUST
 70
     0
  9
$CMLSCALE
 40
1.0
  9
$PROXYGRAPHICS
 70
     1
  9
$MEASUREMENT
 70
     0
  0
ENDSEC
  0
SECTION
  2
CLASSES
  0
CLASS
  1
ACDBDICTIONARYWDFLT
  2
AcDbDictionaryWithDefault
  3
ObjectDBX Classes
 90
        0
280
     0
281
     0
  0
CLASS
  1
VISUALSTYLE
  2
AcDbVisualStyle
  3
ObjectDBX Classes
 90
     4095
280
     0
281
     0
  0
CLASS
  1
MATERIAL
  2
AcDbMaterial
  3
ObjectDBX Classes
 90
     1153
280
     0
281
     0
  0
CLASS
  1
DICTIONARYVAR
  2
AcDbDictionaryVar
  3
ObjectDBX Classes
 90
        0
280
     0
281
     0
  0
CLASS
  1
XRECORD
  2
AcDbXrecord
  3
AutoCAD 2000
 90
        0
280
     0
281
     0
  0
CLASS
  1
LWPOLYLINE
  2
AcDbPolyline
  3
AutoCAD 2000
 90
        0
280
     0
281
     1
  0
CLASS
  1
HATCH
  2
AcDbHatch
  3
AutoCAD 2000
 90
        0
280
     0
281
     1
  0
CLASS
  1
ACDBPLACEHOLDER
  2
AcDbPlaceHolder
  3
ObjectDBX Classes
 90
        0
280
     0
281
     0
  0
CLASS
  1
LAYOUT
  2
AcDbLayout
  3
ObjectDBX Classes
 90
        0
280
     0
281
     0
  0
ENDSEC
  0
SECTION
  2
TABLES
  0
TABLE
  2
VPORT
  5
8
330
0
100
AcDbSymbolTable
 70
     1
  0
VPORT
  5
29
330
8
100
AcDbSymbolTableRecord
100
AcDbViewportTableRecord
  2
*ACTIVE
 70
     0
 10
0.0
 20
0.0
 11
1.0
 21
1.0
 12
0.0
 22
0.0
 13
0.0
 23
0.0
 14
0.5
 24
0.5
 15
0.5
 25
0.5
 16
0.0
 26
0.0
 36
1.0
 17
0.0
 27
0.0
 37
-1000.0
 40
568.2261963510005
 41
1.914432989690722
 42
50.0
 43
1986.479356668924
 44
2788.575242172125
 50
0.0
 51
0.0
 71
     0
 72
   100
 73
     1
 74
     3
 75
     0
 76
     0
 77
     0
 78
     0
  0
ENDTAB
  0
TABLE
  2
LTYPE
  5
5
330
0
100
AcDbSymbolTable
 70
     1
  0
LTYPE
  5
14
330
5
100
AcDbSymbolTableRecord
100
AcDbLinetypeTableRecord
  2
BYBLOCK
 70
     0
  3

 72
    65
 73
     0
 40
0.0
  0
LTYPE
  5
15
330
5
100
AcDbSymbolTableRecord
100
AcDbLinetypeTableRecord
  2
BYLAYER
 70
     0
  3

 72
    65
 73
     0
 40
0.0
  0
LTYPE
  5
16
330
5
100
AcDbSymbolTableRecord
100
AcDbLinetypeTableRecord
  2
CONTINUOUS
 70
     0
  3
Solid line
 72
    65
 73
     0
 40
0.0
  0
ENDTAB
  0
TABLE
  2
LAYER
  5
2
330
0
100
AcDbSymbolTable
 70
     3
  0
LAYER
  5
10
330
2
100
AcDbSymbolTableRecord
100
AcDbLayerTableRecord
  2
0
 70
     0
 62
     7
  6
CONTINUOUS
  0
LAYER
  5
3F
330
2
100
AcDbSymbolTableRecord
100
AcDbLayerTableRecord
  2
PROFILEEDGES
 70
     0
 62
     7
  6
CONTINUOUS
  0
LAYER
  5
40
330
2
100
AcDbSymbolTableRecord
100
AcDbLayerTableRecord
  2
SECTIONCUTEDGES
 70
     0
 62
     7
  6
CONTINUOUS
  0
ENDTAB
  0
TABLE
  2
STYLE
  5
3
330
0
100
AcDbSymbolTable
 70
     1
  0
STYLE
  5
11
330
3
100
AcDbSymbolTableRecord
100
AcDbTextStyleTableRecord
  2
STANDARD
 70
     0
 40
0.0
 41
1.0
 50
0.0
 71
     0
 42
0.2
  3
txt
  4

  0
ENDTAB
  0
TABLE
  2
VIEW
  5
6
330
0
100
AcDbSymbolTable
 70
     0
  0
ENDTAB
  0
TABLE
  2
UCS
  5
7
330
0
100
AcDbSymbolTable
 70
     0
  0
ENDTAB
  0
TABLE
  2
APPID
  5
9
330
0
100
AcDbSymbolTable
 70
     1
  0
APPID
  5
12
330
9
100
AcDbSymbolTableRecord
100
AcDbRegAppTableRecord
  2
ACAD
 70
     0
  0
ENDTAB
  0
TABLE
  2
DIMSTYLE
  5
A
330
0
100
AcDbSymbolTable
 70
     1
  0
DIMSTYLE
105
27
330
A
100
AcDbSymbolTableRecord
100
AcDbDimStyleTableRecord
  2
STANDARD
 70
     0
  3

  4

  5

  6

  7

 40
1.0
 41
0.18
 42
0.0625
 43
0.38
 44
0.18
 45
0.0
 46
0.0
 47
0.0
 48
0.0
140
0.18
141
0.09
142
0.0
143
25.4
144
1.0
145
0.0
146
1.0
147
0.09
 71
     0
 72
     0
 73
     1
 74
     1
 75
     0
 76
     0
 77
     0
 78
     0
170
     0
171
     2
172
     0
173
     0
174
     0
175
     0
176
     0
177
     0
178
     0
270
     2
271
     4
272
     4
273
     2
274
     2
340
11
275
     0
280
     0
281
     0
282
     0
283
     1
284
     0
285
     0
286
     0
287
     3
288
     0
  0
ENDTAB
  0
TABLE
  2
BLOCK_RECORD
  5
1
330
0
100
AcDbSymbolTable
 70
     1
  0
BLOCK_RECORD
  5
1F
330
1
100
AcDbSymbolTableRecord
100
AcDbBlockTableRecord
  2
*MODEL_SPACE
  0
BLOCK_RECORD
  5
1B
330
1
100
AcDbSymbolTableRecord
100
AcDbBlockTableRecord
  2
*PAPER_SPACE
  0
ENDTAB
  0
ENDSEC
  0
SECTION
  2
BLOCKS
  0
BLOCK
  5
20
330
1F
100
AcDbEntity
  8
0
100
AcDbBlockBegin
  2
*MODEL_SPACE
 70
     0
 10
0.0
 20
0.0
 30
0.0
  3
*MODEL_SPACE
  1

  0
ENDBLK
  5
21
330
1F
100
AcDbEntity
  8
0
100
AcDbBlockEnd
  0
BLOCK
  5
1C
330
1B
100
AcDbEntity
 67
     1
  8
0
100
AcDbBlockBegin
  2
*PAPER_SPACE
 70
     0
 10
0.0
 20
0.0
 30
0.0
  3
*PAPER_SPACE
  1

  0
ENDBLK
  5
1D
330
1B
100
AcDbEntity
 67
     1
  8
0
100
AcDbBlockEnd
  0
ENDSEC
  0
SECTION
  2
ENTITIES
  0
LINE
  5
41
330
1F
100
AcDbEntity
  8
0
100
AcDbLine
 10
399.5347379629853
 20
-30.90156043091322
 30
0.0
 11
399.5347379629847
 21
265.5984395690865
 31
0.0
  0
LINE
  5
42
330
1F
100
AcDbEntity
  8
0
100
AcDbLine
 10
448.5347379629852
 20
-30.90156043091313
 30
0.0
 11
399.5347379629853
 21
-30.90156043091322
 31
0.0
  0
LINE
  5
43
330
1F
100
AcDbEntity
  8
0
100
AcDbLine
 10
448.5347379629846
 20
265.5984395690866
 30
0.0
 11
448.5347379629852
 21
-30.90156043091313
 31
0.0
  0
LINE
  5
44
330
1F
100
AcDbEntity
  8
0
100
AcDbLine
 10
399.5347379629847
 20
265.5984395690865
 30
0.0
 11
448.5347379629846
 21
265.5984395690866
 31
0.0
  0
LINE
  5
45
330
1F
100
AcDbEntity
  8
0
100
AcDbLine
 10
-94.5939180433512
 20
81.10329957532133
 30
0.0
 11
-94.99605771292481
 21
81.1481336119029
 31
0.0
  0
LINE
  5
46
330
1F
100
AcDbEntity
  8
0
100
AcDbLine
 10
-96.32273428414376
 20
80.34661675282959
 30
0.0
 11
-96.47012204325152
 21
79.96978356274919
 31
0.0
  0
LINE
  5
47
330
1F
100
AcDbEntity
  8
0
100
AcDbLine
 10
-96.47012204325152
 20
79.96978356274919
 30
0.0
 11
-96.5149560798331
 21
79.56764389317549
 31
0.0
  0
LINE
  5
48
330
1F
100
AcDbEntity
  8
0
100
AcDbLine
 10
-96.5149560798331
 20
79.56764389317549
 30
0.0
 11
-96.45418102838718
 21
79.16760289802279
 31
0.0
  0
LINE
  5
49
330
1F
100
AcDbEntity
  8
0
100
AcDbLine
 10
-95.33660603067933
 20
78.09357956284873
 30
0.0
 11
-94.93446636110572
 21
78.04874552626715
 31
0.0
  0
LINE
  5
4A
330
1F
100
AcDbEntity
  8
0
100
AcDbLine
 10
-94.96526203701525
 20
238.048439569085
 30
0.0
 11
-94.56409251710627
 21
238.1012545383369
 31
0.0
  0
LINE
  5
4B
330
1F
100
AcDbEntity
  8
0
100
AcDbLine
 10
-94.56409251710627
 20
238.1012545383369
 30
0.0
 11
-94.19026203701524
 21
238.2561001932191
 31
0.0
  0
LINE
  5
4C
330
1F
100
AcDbEntity
  8
0
100
AcDbLine
 10
-93.6385854657964
 20
80.39995642815833
 30
0.0
 11
-93.8912387018411
 21
80.71601456679281
 31
0.0
  0
LINE
  5
4D
330
1F
100
AcDbEntity
  8
0
100
AcDbLine
 10
-164.4652620370152
 20
17.59843956908447
 30
0.0
 11
-15.46526203701517
 21
17.5984395690848
 31
0.0
  0
LINE
  5
4E
330
1F
100
AcDbEntity
  8
0
100
AcDbLine
 10
-164.4652620370153
 20
265.5984395690847
 30
0.0
 11
-164.4652620370152
 21
17.59843956908447
 31
0.0
  0
LINE
  5
4F
330
1F
100
AcDbEntity
  8
0
100
AcDbLine
 10
23.53473796298469
 20
265.5984395690847
 30
0.0
 11
-164.4652620370153
 21
265.5984395690847
 31
0.0
  0
LINE
  5
50
330
1F
100
AcDbEntity
  8
0
100
AcDbLine
 10
-95.36643155692423
 20
238.1012545383369
 30
0.0
 11
-94.96526203701525
 21
238.048439569085
 31
0.0
  0
LINE
  5
51
330
1F
100
AcDbEntity
  8
0
100
AcDbLine
 10
-96.30760141288111
 20
238.823439569085
 30
0.0
 11
-96.06127754785432
 21
238.5024240582459
 31
0.0
  0
LINE
  5
52
330
1F
100
AcDbEntity
  8
0
100
AcDbLine
 10
-96.45418102838718
 20
79.16760289802279
 30
0.0
 11
-96.29193860823413
 21
78.79692271001171
 31
0.0
  0
LINE
  5
53
330
1F
100
AcDbEntity
  8
0
100
AcDbLine
 10
-96.29193860823413
 20
78.79692271001171
 30
0.0
 11
-96.03928537218925
 21
78.48086457137725
 31
0.0
  0
LINE
  5
54
330
1F
100
AcDbEntity
  8
0
100
AcDbLine
 10
-94.99605771292481
 20
81.1481336119029
 30
0.0
 11
-95.39609870807745
 21
81.08735856045695
 31
0.0
  0
LINE
  5
55
330
1F
100
AcDbEntity
  8
0
100
AcDbLine
 10
-93.6229226611494
 20
240.373439569085
 30
0.0
 11
-93.869246526176
 21
240.6944550799242
 31
0.0
  0
LINE
  5
56
330
1F
100
AcDbEntity
  8
0
100
AcDbLine
 10
-93.869246526176
 20
240.6944550799242
 30
0.0
 11
-94.19026203701524
 21
240.9407789449509
 31
0.0
  0
LINE
  5
57
330
1F
100
AcDbEntity
  8
0
100
AcDbLine
 10
-96.06127754785432
 20
240.6944550799242
 30
0.0
 11
-96.30760141288111
 21
240.373439569085
 31
0.0
  0
LINE
  5
58
330
1F
100
AcDbEntity
  8
0
100
AcDbLine
 10
-96.03928537218925
 20
78.48086457137725
 30
0.0
 11
-95.71343922075984
 21
78.24096732195657
 31
0.0
  0
LINE
  5
59
330
1F
100
AcDbEntity
  8
0
100
AcDbLine
 10
-95.71343922075984
 20
78.24096732195657
 30
0.0
 11
-95.33660603067933
 21
78.09357956284873
 31
0.0
  0
LINE
  5
5A
330
1F
100
AcDbEntity
  8
0
100
AcDbLine
 10
-93.47634304564335
 20
80.02927624014725
 30
0.0
 11
-93.6385854657964
 21
80.39995642815833
 31
0.0
  0
LINE
  5
5B
330
1F
100
AcDbEntity
  8
0
100
AcDbLine
 10
-95.74026203701526
 20
240.9407789449509
 30
0.0
 11
-96.06127754785432
 21
240.6944550799242
 31
0.0
  0
LINE
  5
5C
330
1F
100
AcDbEntity
  8
0
100
AcDbLine
 10
-96.46244706776329
 20
239.9996090889939
 30
0.0
 11
-96.51526203701526
 21
239.598439569085
 31
0.0
  0
LINE
  5
5D
330
1F
100
AcDbEntity
  8
0
100
AcDbLine
 10
-94.96526203701525
 20
241.148439569085
 30
0.0
 11
-95.36643155692423
 21
241.0956245998331
 31
0.0
  0
LINE
  5
5E
330
1F
100
AcDbEntity
  8
0
100
AcDbLine
 10
-95.36643155692423
 20
241.0956245998331
 30
0.0
 11
-95.74026203701526
 21
240.9407789449509
 31
0.0
  0
LINE
  5
5F
330
1F
100
AcDbEntity
  8
0
100
AcDbLine
 10
-94.93446636110572
 20
78.04874552626715
 30
0.0
 11
-94.53442536595308
 21
78.10952057771311
 31
0.0
  0
LINE
  5
60
330
1F
100
AcDbEntity
  8
0
100
AcDbLine
 10
-96.51526203701526
 20
239.598439569085
 30
0.0
 11
-96.46244706776329
 21
239.1972700491761
 31
0.0
  0
LINE
  5
61
330
1F
100
AcDbEntity
  8
0
100
AcDbLine
 10
-96.46244706776329
 20
239.1972700491761
 30
0.0
 11
-96.30760141288111
 21
238.823439569085
 31
0.0
  0
LINE
  5
62
330
1F
100
AcDbEntity
  8
0
100
AcDbLine
 10
-95.39609870807745
 20
81.08735856045695
 30
0.0
 11
-95.76677889608862
 21
80.92511614030397
 31
0.0
  0
LINE
  5
63
330
1F
100
AcDbEntity
  8
0
100
AcDbLine
 10
-93.84768703930752
 20
78.52441623391096
 30
0.0
 11
-93.60778978988677
 21
78.85026238534046
 31
0.0
  0
LINE
  5
64
330
1F
100
AcDbEntity
  8
0
100
AcDbLine
 10
-93.60778978988677
 20
78.85026238534046
 30
0.0
 11
-93.46040203077882
 21
79.22709557542086
 31
0.0
  0
LINE
  5
65
330
1F
100
AcDbEntity
  8
0
100
AcDbLine
 10
-94.53442536595308
 20
78.10952057771311
 30
0.0
 11
-94.1637451779419
 21
78.27176299786609
 31
0.0
  0
LINE
  5
66
330
1F
100
AcDbEntity
  8
0
100
AcDbLine
 10
-94.1637451779419
 20
78.27176299786609
 30
0.0
 11
-93.84768703930752
 21
78.52441623391096
 31
0.0
  0
LINE
  5
67
330
1F
100
AcDbEntity
  8
0
100
AcDbLine
 10
-93.41526203701524
 20
239.598439569085
 30
0.0
 11
-93.46807700626721
 21
239.9996090889939
 31
0.0
  0
LINE
  5
68
330
1F
100
AcDbEntity
  8
0
100
AcDbLine
 10
-93.46807700626721
 20
239.9996090889939
 30
0.0
 11
-93.6229226611494
 21
240.373439569085
 31
0.0
  0
LINE
  5
69
330
1F
100
AcDbEntity
  8
0
100
AcDbLine
 10
-96.30760141288111
 20
240.373439569085
 30
0.0
 11
-96.46244706776329
 21
239.9996090889939
 31
0.0
  0
LINE
  5
6A
330
1F
100
AcDbEntity
  8
0
100
AcDbLine
 10
-93.6229226611494
 20
238.823439569085
 30
0.0
 11
-93.46807700626721
 21
239.1972700491761
 31
0.0
  0
LINE
  5
6B
330
1F
100
AcDbEntity
  8
0
100
AcDbLine
 10
-93.46807700626721
 20
239.1972700491761
 30
0.0
 11
-93.41526203701524
 21
239.598439569085
 31
0.0
  0
LINE
  5
6C
330
1F
100
AcDbEntity
  8
0
100
AcDbLine
 10
-95.76677889608862
 20
80.92511614030397
 30
0.0
 11
-96.08283703472301
 21
80.6724629042591
 31
0.0
  0
LINE
  5
6D
330
1F
100
AcDbEntity
  8
0
100
AcDbLine
 10
-93.869246526176
 20
238.5024240582459
 30
0.0
 11
-93.6229226611494
 21
238.823439569085
 31
0.0
  0
LINE
  5
6E
330
1F
100
AcDbEntity
  8
0
100
AcDbLine
 10
-96.08283703472301
 20
80.6724629042591
 30
0.0
 11
-96.32273428414376
 21
80.34661675282959
 31
0.0
  0
LINE
  5
6F
330
1F
100
AcDbEntity
  8
0
100
AcDbLine
 10
-94.19026203701524
 20
238.2561001932191
 30
0.0
 11
-93.869246526176
 21
238.5024240582459
 31
0.0
  0
LINE
  5
70
330
1F
100
AcDbEntity
  8
0
100
AcDbLine
 10
-93.46040203077882
 20
79.22709557542086
 30
0.0
 11
-93.41556799419725
 21
79.62923524499456
 31
0.0
  0
LINE
  5
71
330
1F
100
AcDbEntity
  8
0
100
AcDbLine
 10
-93.41556799419725
 20
79.62923524499456
 30
0.0
 11
-93.47634304564335
 21
80.02927624014725
 31
0.0
  0
LINE
  5
72
330
1F
100
AcDbEntity
  8
0
100
AcDbLine
 10
-93.8912387018411
 20
80.71601456679281
 30
0.0
 11
-94.21708485327069
 21
80.95591181621349
 31
0.0
  0
LINE
  5
73
330
1F
100
AcDbEntity
  8
0
100
AcDbLine
 10
-94.21708485327069
 20
80.95591181621349
 30
0.0
 11
-94.5939180433512
 21
81.10329957532133
 31
0.0
  0
LINE
  5
74
330
1F
100
AcDbEntity
  8
0
100
AcDbLine
 10
-96.06127754785432
 20
238.5024240582459
 30
0.0
 11
-95.74026203701526
 21
238.2561001932191
 31
0.0
  0
LINE
  5
75
330
1F
100
AcDbEntity
  8
0
100
AcDbLine
 10
-95.74026203701526
 20
238.2561001932191
 30
0.0
 11
-95.36643155692423
 21
238.1012545383369
 31
0.0
  0
LINE
  5
76
330
1F
100
AcDbEntity
  8
0
100
AcDbLine
 10
-15.46526203701517
 20
7.598439569085072
 30
0.0
 11
23.5347379629848
 21
7.598439569084967
 31
0.0
  0
LINE
  5
77
330
1F
100
AcDbEntity
  8
0
100
AcDbLine
 10
-15.46526203701517
 20
7.598439569085072
 30
0.0
 11
-15.46526203701517
 21
17.5984395690848
 31
0.0
  0
LINE
  5
78
330
1F
100
AcDbEntity
  8
0
100
AcDbLine
 10
-94.19026203701524
 20
240.9407789449509
 30
0.0
 11
-94.56409251710627
 21
241.0956245998331
 31
0.0
  0
LINE
  5
79
330
1F
100
AcDbEntity
  8
0
100
AcDbLine
 10
-94.56409251710627
 20
241.0956245998331
 30
0.0
 11
-94.96526203701525
 21
241.148439569085
 31
0.0
  0
LINE
  5
7A
330
1F
100
AcDbEntity
  8
0
100
AcDbLine
 10
-197.9652620370155
 20
152.761269823451
 30
0.0
 11
-197.9652620370155
 21
109.7612698234511
 31
0.0
  0
LINE
  5
7B
330
1F
100
AcDbEntity
  8
0
100
AcDbLine
 10
-184.8652620370149
 20
152.761269823451
 30
0.0
 11
-197.9652620370155
 21
152.761269823451
 31
0.0
  0
LINE
  5
7C
330
1F
100
AcDbEntity
  8
0
100
AcDbLine
 10
-184.8652620370149
 20
109.7612698234511
 30
0.0
 11
-184.8652620370149
 21
152.761269823451
 31
0.0
  0
LINE
  5
7D
330
1F
100
AcDbEntity
  8
0
100
AcDbLine
 10
-164.4652620370153
 20
265.5984395690847
 30
0.0
 11
-480.9652620370152
 21
265.5984395690847
 31
0.0
  0
LINE
  5
7E
330
1F
100
AcDbEntity
  8
0
100
AcDbLine
 10
-480.9652620370152
 20
265.5984395690847
 30
0.0
 11
-480.9652620370152
 21
7.598439569084158
 31
0.0
  0
LINE
  5
7F
330
1F
100
AcDbEntity
  8
0
100
AcDbLine
 10
-480.9652620370152
 20
7.598439569084158
 30
0.0
 11
-164.4652620370154
 21
7.598439569084158
 31
0.0
  0
LINE
  5
80
330
1F
100
AcDbEntity
  8
0
100
AcDbLine
 10
-197.9652620370155
 20
109.7612698234511
 30
0.0
 11
-184.8652620370149
 21
109.7612698234511
 31
0.0
  0
LINE
  5
81
330
1F
100
AcDbEntity
  8
0
100
AcDbLine
 10
399.5347379629847
 20
265.5984395690865
 30
0.0
 11
211.5347379629848
 21
265.5984395690847
 31
0.0
  0
LINE
  5
82
330
1F
100
AcDbEntity
  8
0
100
AcDbLine
 10
211.5347379629881
 20
-52.40156043091537
 30
0.0
 11
399.5347379629881
 21
-52.40156043091343
 31
0.0
  0
LINE
  5
83
330
1F
100
AcDbEntity
  8
0
100
AcDbLine
 10
-480.9652620370152
 20
-250.4015604309164
 30
0.0
 11
-164.4652620370154
 21
-250.4015604309164
 31
0.0
  0
LINE
  5
84
330
1F
100
AcDbEntity
  8
0
100
AcDbLine
 10
-480.9652620370152
 20
7.598439569084158
 30
0.0
 11
-480.9652620370152
 21
-250.4015604309164
 31
0.0
  0
LINE
  5
85
330
1F
100
AcDbEntity
  8
0
100
AcDbLine
 10
-197.9652620370155
 20
-148.2387301765495
 30
0.0
 11
-184.8652620370149
 21
-148.2387301765495
 31
0.0
  0
LINE
  5
86
330
1F
100
AcDbEntity
  8
0
100
AcDbLine
 10
-184.8652620370149
 20
-148.2387301765495
 30
0.0
 11
-184.8652620370149
 21
-105.2387301765495
 31
0.0
  0
LINE
  5
87
330
1F
100
AcDbEntity
  8
0
100
AcDbLine
 10
-184.8652620370149
 20
-105.2387301765495
 30
0.0
 11
-197.9652620370155
 21
-105.2387301765495
 31
0.0
  0
LINE
  5
88
330
1F
100
AcDbEntity
  8
0
100
AcDbLine
 10
-197.9652620370155
 20
-105.2387301765495
 30
0.0
 11
-197.9652620370155
 21
-148.2387301765495
 31
0.0
  0
LINE
  5
89
330
1F
100
AcDbEntity
  8
0
100
AcDbLine
 10
10.0820979333013
 20
-57.99198787288599
 30
0.0
 11
10.00596857669765
 21
-58.38939286246735
 31
0.0
  0
LINE
  5
8A
330
1F
100
AcDbEntity
  8
0
100
AcDbLine
 10
-20.20745276448807
 20
-58.80732852151292
 30
0.0
 11
-20.484741608428
 21
-59.1020102170887
 31
0.0
  0
LINE
  5
8B
330
1F
100
AcDbEntity
  8
0
100
AcDbLine
 10
7.839370439771366
 20
-56.51629366683742
 30
0.0
 11
8.221597934641325
 21
-56.38352112883934
 31
0.0
  0
LINE
  5
8C
330
1F
100
AcDbEntity
  8
0
100
AcDbLine
 10
-20.26481225084284
 20
-56.92104000232822
 30
0.0
 11
-20.05193922435764
 21
-57.26514969308992
 31
0.0
  0
LINE
  5
8D
330
1F
100
AcDbEntity
  8
0
100
AcDbLine
 10
7.06350734927137
 20
-57.4137279993645
 30
0.0
 11
7.239898640875978
 21
-57.04956798381228
 31
0.0
  0
LINE
  5
8E
330
1F
100
AcDbEntity
  8
0
100
AcDbLine
 10
149.5347379629843
 20
7.598439569084158
 30
0.0
 11
149.5347379629843
 21
-147.4015604309158
 31
0.0
  0
LINE
  5
8F
330
1F
100
AcDbEntity
  8
0
100
AcDbLine
 10
8.221597934641325
 20
-56.38352112883934
 30
0.0
 11
8.625165404954481
 21
-56.35420046059905
 31
0.0
  0
LINE
  5
90
330
1F
100
AcDbEntity
  8
0
100
AcDbLine
 10
-22.01462183351504
 20
-59.35094092408882
 30
0.0
 11
-22.37103012761261
 21
-59.15936970344347
 31
0.0
  0
LINE
  5
91
330
1F
100
AcDbEntity
  8
0
100
AcDbLine
 10
-22.37103012761261
 20
-59.15936970344347
 30
0.0
 11
-22.66571182318839
 21
-58.88208085950363
 31
0.0
  0
LINE
  5
92
330
1F
100
AcDbEntity
  8
0
100
AcDbLine
 10
9.692828548354468
 20
-56.87135356039058
 30
0.0
 11
9.920004727062926
 21
-57.20619290770287
 31
0.0
  0
LINE
  5
93
330
1F
100
AcDbEntity
  8
0
100
AcDbLine
 10
-21.71419274401574
 20
-56.37168020582888
 30
0.0
 11
-21.30974849688519
 21
-56.35938160249292
 31
0.0
  0
LINE
  5
94
330
1F
100
AcDbEntity
  8
0
100
AcDbLine
 10
7.149471198906008
 20
-58.59692795412898
 30
0.0
 11
7.016698660907838
 21
-58.21470045925902
 31
0.0
  0
LINE
  5
95
330
1F
100
AcDbEntity
  8
0
100
AcDbLine
 10
9.23010548619766
 20
-59.28682719499443
 30
0.0
 11
8.8478779913277
 21
-59.41959973299251
 31
0.0
  0
LINE
  5
96
330
1F
100
AcDbEntity
  8
0
100
AcDbLine
 10
-21.62077557714613
 20
-59.44373925933893
 30
0.0
 11
-22.01462183351504
 21
-59.35094092408882
 31
0.0
  0
LINE
  5
97
330
1F
100
AcDbEntity
  8
0
100
AcDbLine
 10
-22.91464253018851
 20
-57.35220063441658
 30
0.0
 11
-22.72307130954325
 21
-56.99579234031893
 31
0.0
  0
LINE
  5
98
330
1F
100
AcDbEntity
  8
0
100
AcDbLine
 10
-164.4652620370156
 20
-147.4015604309158
 30
0.0
 11
-164.4652620370154
 21
7.598439569084158
 31
0.0
  0
LINE
  5
99
330
1F
100
AcDbEntity
  8
0
100
AcDbLine
 10
149.5347379629843
 20
-147.4015604309158
 30
0.0
 11
-164.4652620370156
 21
-147.4015604309158
 31
0.0
  0
LINE
  5
9A
330
1F
100
AcDbEntity
  8
0
100
AcDbLine
 10
8.8478779913277
 20
-59.41959973299251
 30
0.0
 11
8.444310521014453
 21
-59.44892040123263
 31
0.0
  0
LINE
  5
9B
330
1F
100
AcDbEntity
  8
0
100
AcDbLine
 10
8.444310521014453
 20
-59.44892040123263
 30
0.0
 11
8.04690553143318
 21
-59.37279104462898
 31
0.0
  0
LINE
  5
9C
330
1F
100
AcDbEntity
  8
0
100
AcDbLine
 10
8.04690553143318
 20
-59.37279104462898
 30
0.0
 11
7.682745515880779
 21
-59.19639975302437
 31
0.0
  0
LINE
  5
9D
330
1F
100
AcDbEntity
  8
0
100
AcDbLine
 10
7.682745515880779
 20
-59.19639975302437
 30
0.0
 11
7.376647377614466
 21
-58.93176730144109
 31
0.0
  0
LINE
  5
9E
330
1F
100
AcDbEntity
  8
0
100
AcDbLine
 10
7.376647377614466
 20
-58.93176730144109
 30
0.0
 11
7.149471198906008
 21
-58.59692795412898
 31
0.0
  0
LINE
  5
9F
330
1F
100
AcDbEntity
  8
0
100
AcDbLine
 10
7.016698660907838
 20
-58.21470045925902
 30
0.0
 11
6.987377992667723
 21
-57.81113298894586
 31
0.0
  0
LINE
  5
A0
330
1F
100
AcDbEntity
  8
0
100
AcDbLine
 10
6.987377992667723
 20
-57.81113298894586
 30
0.0
 11
7.06350734927137
 21
-57.4137279993645
 31
0.0
  0
LINE
  5
A1
330
1F
100
AcDbEntity
  8
0
100
AcDbLine
 10
7.239898640875978
 20
-57.04956798381228
 30
0.0
 11
7.50453109245926
 21
-56.74346984554597
 31
0.0
  0
LINE
  5
A2
330
1F
100
AcDbEntity
  8
0
100
AcDbLine
 10
7.50453109245926
 20
-56.74346984554597
 30
0.0
 11
7.839370439771366
 21
-56.51629366683742
 31
0.0
  0
LINE
  5
A3
330
1F
100
AcDbEntity
  8
0
100
AcDbLine
 10
8.625165404954481
 20
-56.35420046059905
 30
0.0
 11
9.022570394535844
 21
-56.43032981720287
 31
0.0
  0
LINE
  5
A4
330
1F
100
AcDbEntity
  8
0
100
AcDbLine
 10
9.022570394535844
 20
-56.43032981720287
 30
0.0
 11
9.386730410088155
 21
-56.60672110880748
 31
0.0
  0
LINE
  5
A5
330
1F
100
AcDbEntity
  8
0
100
AcDbLine
 10
9.386730410088155
 20
-56.60672110880748
 30
0.0
 11
9.692828548354468
 21
-56.87135356039058
 31
0.0
  0
LINE
  5
A6
330
1F
100
AcDbEntity
  8
0
100
AcDbLine
 10
9.920004727062926
 20
-57.20619290770287
 30
0.0
 11
10.0527772650611
 21
-57.58842040257283
 31
0.0
  0
LINE
  5
A7
330
1F
100
AcDbEntity
  8
0
100
AcDbLine
 10
10.0527772650611
 20
-57.58842040257283
 30
0.0
 11
10.0820979333013
 21
-57.99198787288599
 31
0.0
  0
LINE
  5
A8
330
1F
100
AcDbEntity
  8
0
100
AcDbLine
 10
10.00596857669765
 20
-58.38939286246735
 30
0.0
 11
9.829577285092956
 21
-58.75355287801957
 31
0.0
  0
LINE
  5
A9
330
1F
100
AcDbEntity
  8
0
100
AcDbLine
 10
9.829577285092956
 20
-58.75355287801957
 30
0.0
 11
9.564944833509765
 21
-59.05965101628588
 31
0.0
  0
LINE
  5
AA
330
1F
100
AcDbEntity
  8
0
100
AcDbLine
 10
9.564944833509765
 20
-59.05965101628588
 30
0.0
 11
9.23010548619766
 21
-59.28682719499443
 31
0.0
  0
LINE
  5
AB
330
1F
100
AcDbEntity
  8
0
100
AcDbLine
 10
-22.10167277484171
 20
-56.48823761825778
 30
0.0
 11
-21.71419274401574
 21
-56.37168020582888
 31
0.0
  0
LINE
  5
AC
330
1F
100
AcDbEntity
  8
0
100
AcDbLine
 10
-21.30974849688519
 20
-56.35938160249292
 30
0.0
 11
-20.91590224051627
 21
-56.45217993774303
 31
0.0
  0
LINE
  5
AD
330
1F
100
AcDbEntity
  8
0
100
AcDbLine
 10
-20.91590224051627
 20
-56.45217993774303
 30
0.0
 11
-20.5594939464187
 21
-56.64375115838838
 31
0.0
  0
LINE
  5
AE
330
1F
100
AcDbEntity
  8
0
100
AcDbLine
 10
-20.5594939464187
 20
-56.64375115838838
 30
0.0
 11
-20.26481225084284
 21
-56.92104000232822
 31
0.0
  0
LINE
  5
AF
330
1F
100
AcDbEntity
  8
0
100
AcDbLine
 10
-20.05193922435764
 20
-57.26514969308992
 30
0.0
 11
-19.93538181192856
 21
-57.6526297239158
 31
0.0
  0
LINE
  5
B0
330
1F
100
AcDbEntity
  8
0
100
AcDbLine
 10
-19.93538181192856
 20
-57.6526297239158
 30
0.0
 11
-19.92308320859261
 21
-58.05707397104635
 31
0.0
  0
LINE
  5
B1
330
1F
100
AcDbEntity
  8
0
100
AcDbLine
 10
-19.92308320859261
 20
-58.05707397104635
 30
0.0
 11
-20.01588154384271
 21
-58.45092022741527
 31
0.0
  0
LINE
  5
B2
330
1F
100
AcDbEntity
  8
0
100
AcDbLine
 10
-20.01588154384271
 20
-58.45092022741527
 30
0.0
 11
-20.20745276448807
 21
-58.80732852151292
 31
0.0
  0
LINE
  5
B3
330
1F
100
AcDbEntity
  8
0
100
AcDbLine
 10
-20.484741608428
 20
-59.1020102170887
 30
0.0
 11
-20.8288512991896
 21
-59.31488324357408
 31
0.0
  0
LINE
  5
B4
330
1F
100
AcDbEntity
  8
0
100
AcDbLine
 10
-20.8288512991896
 20
-59.31488324357408
 30
0.0
 11
-21.21633133001549
 21
-59.43144065600297
 31
0.0
  0
LINE
  5
B5
330
1F
100
AcDbEntity
  8
0
100
AcDbLine
 10
-21.21633133001549
 20
-59.43144065600297
 30
0.0
 11
-21.62077557714613
 21
-59.44373925933893
 31
0.0
  0
LINE
  5
B6
330
1F
100
AcDbEntity
  8
0
100
AcDbLine
 10
-22.66571182318839
 20
-58.88208085950363
 30
0.0
 11
-22.87858484967376
 21
-58.53797116874193
 31
0.0
  0
LINE
  5
B7
330
1F
100
AcDbEntity
  8
0
100
AcDbLine
 10
-22.87858484967376
 20
-58.53797116874193
 30
0.0
 11
-22.99514226210266
 21
-58.15049113791605
 31
0.0
  0
LINE
  5
B8
330
1F
100
AcDbEntity
  8
0
100
AcDbLine
 10
-22.99514226210266
 20
-58.15049113791605
 30
0.0
 11
-23.00744086543862
 21
-57.7460468907855
 31
0.0
  0
LINE
  5
B9
330
1F
100
AcDbEntity
  8
0
100
AcDbLine
 10
-23.00744086543862
 20
-57.7460468907855
 30
0.0
 11
-22.91464253018851
 21
-57.35220063441658
 31
0.0
  0
LINE
  5
BA
330
1F
100
AcDbEntity
  8
0
100
AcDbLine
 10
-22.72307130954325
 20
-56.99579234031893
 30
0.0
 11
-22.44578246560332
 21
-56.70111064474315
 31
0.0
  0
LINE
  5
BB
330
1F
100
AcDbEntity
  8
0
100
AcDbLine
 10
-22.44578246560332
 20
-56.70111064474315
 30
0.0
 11
-22.10167277484171
 21
-56.48823761825778
 31
0.0
  0
LINE
  5
BC
330
1F
100
AcDbEntity
  8
0
100
AcDbLine
 10
93.406081956649
 20
81.10329957532133
 30
0.0
 11
93.00394228707539
 21
81.1481336119029
 31
0.0
  0
LINE
  5
BD
330
1F
100
AcDbEntity
  8
0
100
AcDbLine
 10
91.67726571585644
 20
80.34661675282959
 30
0.0
 11
91.52987795674868
 21
79.96978356274919
 31
0.0
  0
LINE
  5
BE
330
1F
100
AcDbEntity
  8
0
100
AcDbLine
 10
91.52987795674868
 20
79.96978356274919
 30
0.0
 11
91.4850439201671
 21
79.56764389317549
 31
0.0
  0
LINE
  5
BF
330
1F
100
AcDbEntity
  8
0
100
AcDbLine
 10
91.4850439201671
 20
79.56764389317549
 30
0.0
 11
91.54581897161302
 21
79.16760289802279
 31
0.0
  0
LINE
  5
C0
330
1F
100
AcDbEntity
  8
0
100
AcDbLine
 10
92.66339396932086
 20
78.09357956284873
 30
0.0
 11
93.06553363889446
 21
78.04874552626715
 31
0.0
  0
LINE
  5
C1
330
1F
100
AcDbEntity
  8
0
100
AcDbLine
 10
93.03473796298495
 20
238.048439569085
 30
0.0
 11
93.43590748289391
 21
238.1012545383369
 31
0.0
  0
LINE
  5
C2
330
1F
100
AcDbEntity
  8
0
100
AcDbLine
 10
93.43590748289391
 20
238.1012545383369
 30
0.0
 11
93.80973796298495
 21
238.2561001932191
 31
0.0
  0
LINE
  5
C3
330
1F
100
AcDbEntity
  8
0
100
AcDbLine
 10
94.3614145342038
 20
80.39995642815833
 30
0.0
 11
94.1087612981591
 21
80.71601456679281
 31
0.0
  0
LINE
  5
C4
330
1F
100
AcDbEntity
  8
0
100
AcDbLine
 10
23.53473796298498
 20
17.59843956908447
 30
0.0
 11
172.534737962985
 21
17.5984395690848
 31
0.0
  0
LINE
  5
C5
330
1F
100
AcDbEntity
  8
0
100
AcDbLine
 10
23.53473796298469
 20
265.5984395690847
 30
0.0
 11
23.53473796298498
 21
17.59843956908447
 31
0.0
  0
LINE
  5
C6
330
1F
100
AcDbEntity
  8
0
100
AcDbLine
 10
211.5347379629848
 20
265.5984395690847
 30
0.0
 11
23.53473796298469
 21
265.5984395690847
 31
0.0
  0
LINE
  5
C7
330
1F
100
AcDbEntity
  8
0
100
AcDbLine
 10
92.63356844307597
 20
238.1012545383369
 30
0.0
 11
93.03473796298495
 21
238.048439569085
 31
0.0
  0
LINE
  5
C8
330
1F
100
AcDbEntity
  8
0
100
AcDbLine
 10
91.69239858711909
 20
238.823439569085
 30
0.0
 11
91.93872245214588
 21
238.5024240582459
 31
0.0
  0
LINE
  5
C9
330
1F
100
AcDbEntity
  8
0
100
AcDbLine
 10
91.54581897161302
 20
79.16760289802279
 30
0.0
 11
91.70806139176607
 21
78.79692271001171
 31
0.0
  0
LINE
  5
CA
330
1F
100
AcDbEntity
  8
0
100
AcDbLine
 10
91.70806139176607
 20
78.79692271001171
 30
0.0
 11
91.96071462781094
 21
78.48086457137725
 31
0.0
  0
LINE
  5
CB
330
1F
100
AcDbEntity
  8
0
100
AcDbLine
 10
93.00394228707539
 20
81.1481336119029
 30
0.0
 11
92.60390129192275
 21
81.08735856045695
 31
0.0
  0
LINE
  5
CC
330
1F
100
AcDbEntity
  8
0
100
AcDbLine
 10
94.3770773388508
 20
240.373439569085
 30
0.0
 11
94.13075347382419
 21
240.6944550799242
 31
0.0
  0
LINE
  5
CD
330
1F
100
AcDbEntity
  8
0
100
AcDbLine
 10
94.13075347382419
 20
240.6944550799242
 30
0.0
 11
93.80973796298495
 21
240.9407789449509
 31
0.0
  0
LINE
  5
CE
330
1F
100
AcDbEntity
  8
0
100
AcDbLine
 10
91.93872245214588
 20
240.6944550799242
 30
0.0
 11
91.69239858711909
 21
240.373439569085
 31
0.0
  0
LINE
  5
CF
330
1F
100
AcDbEntity
  8
0
100
AcDbLine
 10
91.96071462781094
 20
78.48086457137725
 30
0.0
 11
92.28656077924036
 21
78.24096732195657
 31
0.0
  0
LINE
  5
D0
330
1F
100
AcDbEntity
  8
0
100
AcDbLine
 10
92.28656077924036
 20
78.24096732195657
 30
0.0
 11
92.66339396932086
 21
78.09357956284873
 31
0.0
  0
LINE
  5
D1
330
1F
100
AcDbEntity
  8
0
100
AcDbLine
 10
94.52365695435685
 20
80.02927624014725
 30
0.0
 11
94.3614145342038
 21
80.39995642815833
 31
0.0
  0
LINE
  5
D2
330
1F
100
AcDbEntity
  8
0
100
AcDbLine
 10
92.25973796298494
 20
240.9407789449509
 30
0.0
 11
91.93872245214588
 21
240.6944550799242
 31
0.0
  0
LINE
  5
D3
330
1F
100
AcDbEntity
  8
0
100
AcDbLine
 10
91.5375529322369
 20
239.9996090889939
 30
0.0
 11
91.48473796298494
 21
239.598439569085
 31
0.0
  0
LINE
  5
D4
330
1F
100
AcDbEntity
  8
0
100
AcDbLine
 10
93.03473796298495
 20
241.148439569085
 30
0.0
 11
92.63356844307597
 21
241.0956245998331
 31
0.0
  0
LINE
  5
D5
330
1F
100
AcDbEntity
  8
0
100
AcDbLine
 10
92.63356844307597
 20
241.0956245998331
 30
0.0
 11
92.25973796298494
 21
240.9407789449509
 31
0.0
  0
LINE
  5
D6
330
1F
100
AcDbEntity
  8
0
100
AcDbLine
 10
211.534737962985
 20
7.598439569084967
 30
0.0
 11
211.5347379629848
 21
265.5984395690847
 31
0.0
  0
LINE
  5
D7
330
1F
100
AcDbEntity
  8
0
100
AcDbLine
 10
93.06553363889446
 20
78.04874552626715
 30
0.0
 11
93.46557463404712
 21
78.10952057771311
 31
0.0
  0
LINE
  5
D8
330
1F
100
AcDbEntity
  8
0
100
AcDbLine
 10
91.48473796298494
 20
239.598439569085
 30
0.0
 11
91.5375529322369
 21
239.1972700491761
 31
0.0
  0
LINE
  5
D9
330
1F
100
AcDbEntity
  8
0
100
AcDbLine
 10
91.5375529322369
 20
239.1972700491761
 30
0.0
 11
91.69239858711909
 21
238.823439569085
 31
0.0
  0
LINE
  5
DA
330
1F
100
AcDbEntity
  8
0
100
AcDbLine
 10
92.60390129192275
 20
81.08735856045695
 30
0.0
 11
92.23322110391157
 21
80.92511614030397
 31
0.0
  0
LINE
  5
DB
330
1F
100
AcDbEntity
  8
0
100
AcDbLine
 10
94.15231296069268
 20
78.52441623391096
 30
0.0
 11
94.39221021011343
 21
78.85026238534046
 31
0.0
  0
LINE
  5
DC
330
1F
100
AcDbEntity
  8
0
100
AcDbLine
 10
94.39221021011343
 20
78.85026238534046
 30
0.0
 11
94.53959796922138
 21
79.22709557542086
 31
0.0
  0
LINE
  5
DD
330
1F
100
AcDbEntity
  8
0
100
AcDbLine
 10
93.46557463404712
 20
78.10952057771311
 30
0.0
 11
93.8362548220583
 21
78.27176299786609
 31
0.0
  0
LINE
  5
DE
330
1F
100
AcDbEntity
  8
0
100
AcDbLine
 10
93.8362548220583
 20
78.27176299786609
 30
0.0
 11
94.15231296069268
 21
78.52441623391096
 31
0.0
  0
LINE
  5
DF
330
1F
100
AcDbEntity
  8
0
100
AcDbLine
 10
94.58473796298495
 20
239.598439569085
 30
0.0
 11
94.53192299373299
 21
239.9996090889939
 31
0.0
  0
LINE
  5
E0
330
1F
100
AcDbEntity
  8
0
100
AcDbLine
 10
94.53192299373299
 20
239.9996090889939
 30
0.0
 11
94.3770773388508
 21
240.373439569085
 31
0.0
  0
LINE
  5
E1
330
1F
100
AcDbEntity
  8
0
100
AcDbLine
 10
91.69239858711909
 20
240.373439569085
 30
0.0
 11
91.5375529322369
 21
239.9996090889939
 31
0.0
  0
LINE
  5
E2
330
1F
100
AcDbEntity
  8
0
100
AcDbLine
 10
94.3770773388508
 20
238.823439569085
 30
0.0
 11
94.53192299373299
 21
239.1972700491761
 31
0.0
  0
LINE
  5
E3
330
1F
100
AcDbEntity
  8
0
100
AcDbLine
 10
94.53192299373299
 20
239.1972700491761
 30
0.0
 11
94.58473796298495
 21
239.598439569085
 31
0.0
  0
LINE
  5
E4
330
1F
100
AcDbEntity
  8
0
100
AcDbLine
 10
92.23322110391157
 20
80.92511614030397
 30
0.0
 11
91.91716296527717
 21
80.6724629042591
 31
0.0
  0
LINE
  5
E5
330
1F
100
AcDbEntity
  8
0
100
AcDbLine
 10
94.13075347382419
 20
238.5024240582459
 30
0.0
 11
94.3770773388508
 21
238.823439569085
 31
0.0
  0
LINE
  5
E6
330
1F
100
AcDbEntity
  8
0
100
AcDbLine
 10
91.91716296527717
 20
80.6724629042591
 30
0.0
 11
91.67726571585644
 21
80.34661675282959
 31
0.0
  0
LINE
  5
E7
330
1F
100
AcDbEntity
  8
0
100
AcDbLine
 10
93.80973796298495
 20
238.2561001932191
 30
0.0
 11
94.13075347382419
 21
238.5024240582459
 31
0.0
  0
LINE
  5
E8
330
1F
100
AcDbEntity
  8
0
100
AcDbLine
 10
94.53959796922138
 20
79.22709557542086
 30
0.0
 11
94.58443200580294
 21
79.62923524499456
 31
0.0
  0
LINE
  5
E9
330
1F
100
AcDbEntity
  8
0
100
AcDbLine
 10
94.58443200580294
 20
79.62923524499456
 30
0.0
 11
94.52365695435685
 21
80.02927624014725
 31
0.0
  0
LINE
  5
EA
330
1F
100
AcDbEntity
  8
0
100
AcDbLine
 10
94.1087612981591
 20
80.71601456679281
 30
0.0
 11
93.7829151467295
 21
80.95591181621349
 31
0.0
  0
LINE
  5
EB
330
1F
100
AcDbEntity
  8
0
100
AcDbLine
 10
93.7829151467295
 20
80.95591181621349
 30
0.0
 11
93.406081956649
 21
81.10329957532133
 31
0.0
  0
LINE
  5
EC
330
1F
100
AcDbEntity
  8
0
100
AcDbLine
 10
91.93872245214588
 20
238.5024240582459
 30
0.0
 11
92.25973796298494
 21
238.2561001932191
 31
0.0
  0
LINE
  5
ED
330
1F
100
AcDbEntity
  8
0
100
AcDbLine
 10
92.25973796298494
 20
238.2561001932191
 30
0.0
 11
92.63356844307597
 21
238.1012545383369
 31
0.0
  0
LINE
  5
EE
330
1F
100
AcDbEntity
  8
0
100
AcDbLine
 10
172.534737962985
 20
7.598439569085072
 30
0.0
 11
211.534737962985
 21
7.598439569084967
 31
0.0
  0
LINE
  5
EF
330
1F
100
AcDbEntity
  8
0
100
AcDbLine
 10
172.534737962985
 20
7.598439569085072
 30
0.0
 11
172.534737962985
 21
17.5984395690848
 31
0.0
  0
LINE
  5
F0
330
1F
100
AcDbEntity
  8
0
100
AcDbLine
 10
93.80973796298495
 20
240.9407789449509
 30
0.0
 11
93.43590748289391
 21
241.0956245998331
 31
0.0
  0
LINE
  5
F1
330
1F
100
AcDbEntity
  8
0
100
AcDbLine
 10
93.43590748289391
 20
241.0956245998331
 30
0.0
 11
93.03473796298495
 21
241.148439569085
 31
0.0
  0
LINE
  5
F2
330
1F
100
AcDbEntity
  8
0
100
AcDbLine
 10
23.5347379629848
 20
7.598439569084967
 30
0.0
 11
23.53473796298498
 21
17.59843956908447
 31
0.0
  0
LINE
  5
F3
330
1F
100
AcDbEntity
  8
0
100
AcDbLine
 10
-164.4652620370154
 20
7.598439569084158
 30
0.0
 11
-164.4652620370152
 21
17.59843956908447
 31
0.0
  0
LINE
  5
F4
330
1F
100
AcDbEntity
  8
0
100
AcDbLine
 10
211.534737962985
 20
7.598439569084967
 30
0.0
 11
211.5347379629881
 21
-52.40156043091537
 31
0.0
  0
LINE
  5
F5
330
1F
100
AcDbEntity
  8
0
100
AcDbLine
 10
399.5347379629881
 20
-52.40156043091343
 30
0.0
 11
399.5347379629853
 21
-30.90156043091322
 31
0.0
  0
LINE
  5
F6
330
1F
100
AcDbEntity
  8
0
100
AcDbLine
 10
-164.4652620370154
 20
-250.4015604309164
 30
0.0
 11
-164.4652620370156
 21
-147.4015604309158
 31
0.0
  0
LINE
  5
F7
330
1F
100
AcDbEntity
  8
0
100
AcDbLine
 10
23.5347379629848
 20
7.598439569084967
 30
0.0
 11
149.5347379629843
 21
7.598439569084158
 31
0.0
  0
LINE
  5
F8
330
1F
100
AcDbEntity
  8
0
100
AcDbLine
 10
-164.4652620370154
 20
7.598439569084158
 30
0.0
 11
-15.46526203701517
 21
7.598439569085072
 31
0.0
  0
ENDSEC
  0
SECTION
  2
OBJECTS
  0
DICTIONARY
  5
C
330
0
100
AcDbDictionary
  3
ACAD_GROUP
350
D
  3
ACAD_LAYOUT
350
1A
  3
ACAD_MATERIAL
350
3B
  3
ACAD_MLEADERSTYLE
350
11B
  3
ACAD_MLINESTYLE
350
17
  3
ACAD_PLOTSETTINGS
350
19
  3
ACAD_VISUALSTYLE
350
2A
  3
ACDBHEADERROUNDTRIPXREC
350
F9
  3
ACDBVARIABLEDICTIONARY
350
119
  0
DICTIONARY
  5
D
102
{ACAD_REACTORS
330
C
102
}
330
C
100
AcDbDictionary
  0
DICTIONARY
  5
1A
102
{ACAD_REACTORS
330
C
102
}
330
C
100
AcDbDictionary
  0
DICTIONARY
  5
3B
102
{ACAD_REACTORS
330
C
102
}
330
C
100
AcDbDictionary
  3
BYBLOCK
350
3D
  3
BYLAYER
350
3C
  3
GLOBAL
350
3E
  0
DICTIONARY
  5
11B
102
{ACAD_REACTORS
330
C
102
}
330
C
100
AcDbDictionary
  0
DICTIONARY
  5
17
102
{ACAD_REACTORS
330
C
102
}
330
C
100
AcDbDictionary
  3
STANDARD
350
18
  0
DICTIONARY
  5
19
102
{ACAD_REACTORS
330
C
102
}
330
C
100
AcDbDictionary
  0
DICTIONARY
  5
2A
102
{ACAD_REACTORS
330
C
102
}
330
C
100
AcDbDictionary
  3
2DWIREFRAME
350
2F
  3
3D_HIDDEN
350
31
  3
3DWIREFRAME
350
30
  3
BASIC
350
32
  3
BRIGHTEN
350
36
  3
COLORCHANGE
350
3A
  3
CONCEPTUAL
350
34
  3
DIM
350
35
  3
FACEPATTERN
350
39
  3
FLAT
350
2B
  3
FLATWITHEDGES
350
2C
  3
GOURAUD
350
2D
  3
GOURAUDWITHEDGES
350
2E
  3
LINEPATTERN
350
38
  3
REALISTIC
350
33
  3
THICKEN
350
37
  0
DICTIONARY
  5
F9
102
{ACAD_REACTORS
330
C
102
}
330
C
100
AcDbDictionary
  3
CEPSNTYPE
350
102
  3
DIMSTYLEDATA
350
118
  3
FINGERPRINTGUID
350
103
  3
HYPERLINKBASE
350
FC
  3
INSUNITS
350
101
  3
LAYOUTDICT
350
FE
  3
LWETCUNION
350
100
  3
PLOTSETDICT
350
FF
  3
PSVPSCALE
350
105
  3
PUCSBASE
350
108
  3
PUCSORGBACK
350
10E
  3
PUCSORGBOTTOM
350
10A
  3
PUCSORGFRONT
350
10D
  3
PUCSORGLEFT
350
10B
  3
PUCSORGRIGHT
350
10C
  3
PUCSORGTOP
350
109
  3
PUCSORTHOREF
350
106
  3
PUCSORTHOVIEW
350
107
  3
STYLESHEET
350
FD
  3
TSTACKALIGN
350
FA
  3
TSTACKSIZE
350
FB
  3
UCSBASE
350
111
  3
UCSORGBACK
350
117
  3
UCSORGBOTTOM
350
113
  3
UCSORGFRONT
350
116
  3
UCSORGLEFT
350
114
  3
UCSORGRIGHT
350
115
  3
UCSORGTOP
350
112
  3
UCSORTHOREF
350
10F
  3
UCSORTHOVIEW
350
110
  3
VERSIONGUID
350
104
  0
DICTIONARY
  5
119
102
{ACAD_REACTORS
330
C
102
}
330
C
100
AcDbDictionary
  3
DIMASSOC
350
11C
  3
HIDETEXT
350
11D
  0
MATERIAL
  5
3D
102
{ACAD_REACTORS
330
3B
102
}
102
{ACAD_XDICTIONARY
360
120
102
}
330
3B
100
AcDbMaterial
  1
ByBlock
  0
MATERIAL
  5
3C
102
{ACAD_REACTORS
330
3B
102
}
102
{ACAD_XDICTIONARY
360
11E
102
}
330
3B
100
AcDbMaterial
  1
ByLayer
  0
MATERIAL
  5
3E
102
{ACAD_REACTORS
330
3B
102
}
102
{ACAD_XDICTIONARY
360
122
102
}
330
3B
100
AcDbMaterial
  1
Global
  0
MLINESTYLE
  5
18
102
{ACAD_REACTORS
330
17
102
}
330
17
100
AcDbMlineStyle
  2
Standard
 70
     0
  3

 62
   256
 51
90.0
 52
90.0
 71
     2
 49
0.5
 62
   256
  6
BYLAYER
 49
-0.5
 62
   256
  6
BYLAYER
  0
ACAD_PROXY_OBJECT
  5
2F
102
{ACAD_REACTORS
330
2A
102
}
330
2A
100
AcDbProxyObject
 90
      499
 91
      501
 93
      436
310
42CC9915DA5C99599C985B595049028333333333333E3BF0000000000000FB0107901411070040501600405405064090741402480A0340
1001
ACAD
1000
AcDbSavedByObjectVersion
1070
     0
  0
ACAD_PROXY_OBJECT
  5
31
102
{ACAD_REACTORS
330
2A
102
}
330
2A
100
AcDbProxyObject
 90
      499
 91
      501
 93
      500
310
424CD108121A5919195B90640502408333333333333E3BF0000000000000FB01079024090700405020000000000001110200405405064090740C02480A0340
1001
ACAD
1000
AcDbSavedByObjectVersion
1070
     0
  0
ACAD_PROXY_OBJECT
  5
30
102
{ACAD_REACTORS
330
2A
102
}
330
2A
100
AcDbProxyObject
 90
      499
 91
      501
 93
      436
310
42CCD915DA5C99599C985B595059028333333333333E3BF0000000000000FB0107901411070040501600405405064090741402480A0340
1001
ACAD
1000
AcDbSavedByObjectVersion
1070
     0
  0
ACAD_PROXY_OBJECT
  5
32
102
{ACAD_REACTORS
330
2A
102
}
330
2A
100
AcDbProxyObject
 90
      499
 91
      501
 93
      388
310
4150985CDA58D07406404333333333333E3BF0000000000000FB0107A41107004050150841D405064090741402480A0350
1001
ACAD
1000
AcDbSavedByObjectVersion
1070
     0
  0
ACAD_PROXY_OBJECT
  5
36
102
{ACAD_REACTORS
330
2A
102
}
330
2A
100
AcDbProxyObject
 90
      499
 91
      501
 93
      428
310
42109C9A59DA1D195B90C409028333333333333E3BF0000000000000FB010790141107004050150841D405064090741402480A029950
1001
ACAD
1000
AcDbSavedByObjectVersion
1070
     0
  0
ACAD_PROXY_OBJECT
  5
3A
102
{ACAD_REACTORS
330
2A
102
}
330
2A
100
AcDbProxyObject
 90
      499
 91
      501
 93
      452
310
42D0DBDB1BDC90DA185B99D95104090240C333333333333E3BF0000000000000FB0108901411070040501508421405064090741402480A0350
1001
ACAD
1000
AcDbSavedByObjectVersion
1070
     0
  0
ACAD_PROXY_OBJECT
  5
34
102
{ACAD_REACTORS
330
2A
102
}
330
2A
100
AcDbProxyObject
 90
      499
 91
      501
 93
      500
310
4290DBDB98D95C1D1D585B10940D028333333333333E3BF0000000000000FB0107902409070040501000000000000111010841D405064090740C02480A0340
1001
ACAD
1000
AcDbSavedByObjectVersion
1070
     0
  0
ACAD_PROXY_OBJECT
  5
35
102
{ACAD_REACTORS
330
2A
102
}
330
2A
100
AcDbProxyObject
 90
      499
 91
      501
 93
      412
310
40D11A5B50B409028333333333333E3BF0000000000000FB010790141107004050150841D405064090741402480A02677FFFFFD0
1001
ACAD
1000
AcDbSavedByObjectVersion
1070
     0
  0
ACAD_PROXY_OBJECT
  5
39
102
{ACAD_REACTORS
330
2A
102
}
330
2A
100
AcDbProxyObject
 90
      499
 91
      501
 93
      444
310
42D19858D95C185D1D195C9B90F409028333333333333E3BF0000000000000FB010790141107004050150841D405064090741402480A0350
1001
ACAD
1000
AcDbSavedByObjectVersion
1070
     0
  0
ACAD_PROXY_OBJECT
  5
2B
102
{ACAD_REACTORS
330
2A
102
}
330
2A
100
AcDbProxyObject
 90
      499
 91
      501
 93
      388
310
41119B185D240901404333333333333E3BF0000000000000F9010740A41107004050150841D405064090741402480A1B50
1001
ACAD
1000
AcDbSavedByObjectVersion
1070
     0
  0
ACAD_PROXY_OBJECT
  5
2C
102
{ACAD_REACTORS
330
2A
102
}
330
2A
100
AcDbProxyObject
 90
      499
 91
      501
 93
      476
310
43519B185D15DA5D1A115919D95CD0140901404333333333333E3BF0000000000000F9010740901411070040501600405405064090741402480A1B50
1001
ACAD
1000
AcDbSavedByObjectVersion
1070
     0
  0
ACAD_PROXY_OBJECT
  5
2D
102
{ACAD_REACTORS
330
2A
102
}
330
2A
100
AcDbProxyObject
 90
      499
 91
      501
 93
      412
310
41D1DBDD5C985D5910240902404333333333333E3BF0000000000000F9010740A411070040501641D405064090741402480A1B50
1001
ACAD
1000
AcDbSavedByObjectVersion
1070
     0
  0
ACAD_PROXY_OBJECT
  5
2E
102
{ACAD_REACTORS
330
2A
102
}
330
2A
100
AcDbProxyObject
 90
      499
 91
      501
 93
      500
310
4411DBDD5C985D5915DA5D1A115919D95CD0340902404333333333333E3BF0000000000000F9010740901411070040501600405405064090741402480A1B50
1001
ACAD
1000
AcDbSavedByObjectVersion
1070
     0
  0
ACAD_PROXY_OBJECT
  5
38
102
{ACAD_REACTORS
330
2A
102
}
330
2A
100
AcDbProxyObject
 90
      499
 91
      501
 93
      444
310
42D31A5B995C185D1D195C9B90E409028333333333333E3BF0000000000000FB010790141107004050750841D405064090741402483A0350
1001
ACAD
1000
AcDbSavedByObjectVersion
1070
     0
  0
ACAD_PROXY_OBJECT
  5
33
102
{ACAD_REACTORS
330
2A
102
}
330
2A
100
AcDbProxyObject
 90
      499
 91
      501
 93
      420
310
425499585B1A5CDD1A58D08409028333333333333E3BF0000000000000FB01079019070040501508421405064090741402480A1B40
1001
ACAD
1000
AcDbSavedByObjectVersion
1070
     0
  0
ACAD_PROXY_OBJECT
  5
37
102
{ACAD_REACTORS
330
2A
102
}
330
2A
100
AcDbProxyObject
 90
      499
 91
      501
 93
      412
310
41D51A1A58DAD95B90D409028333333333333E3BF0000000000000FB010790141107004050150C41D405064090741402480A0350
1001
ACAD
1000
AcDbSavedByObjectVersion
1070
     0
  0
XRECORD
  5
102
102
{ACAD_REACTORS
330
F9
102
}
330
F9
100
AcDbXrecord
 90
        0
  0
XRECORD
  5
118
102
{ACAD_REACTORS
330
F9
102
}
330
F9
100
AcDbXrecord
1000
DSTYLE
1002
{
1070
   340
340
11
1002
}
  0
XRECORD
  5
103
102
{ACAD_REACTORS
330
F9
102
}
330
F9
100
AcDbXrecord
  1
{173C3C9E-38A7-49F2-B04E-F32338F7B740}
  0
XRECORD
  5
FC
102
{ACAD_REACTORS
330
F9
102
}
330
F9
100
AcDbXrecord
  1

  0
XRECORD
  5
101
102
{ACAD_REACTORS
330
F9
102
}
330
F9
100
AcDbXrecord
 90
        1
  0
XRECORD
  5
FE
102
{ACAD_REACTORS
330
F9
102
}
330
F9
100
AcDbXrecord
340
1A
  0
XRECORD
  5
100
102
{ACAD_REACTORS
330
F9
102
}
330
F9
100
AcDbXrecord
 90
    10781
  0
XRECORD
  5
FF
102
{ACAD_REACTORS
330
F9
102
}
330
F9
100
AcDbXrecord
340
19
  0
XRECORD
  5
105
102
{ACAD_REACTORS
330
F9
102
}
330
F9
100
AcDbXrecord
 40
0.0
  0
XRECORD
  5
108
102
{ACAD_REACTORS
330
F9
102
}
330
F9
100
AcDbXrecord
340
0
  0
XRECORD
  5
10E
102
{ACAD_REACTORS
330
F9
102
}
330
F9
100
AcDbXrecord
 10
0.0
 20
0.0
 30
0.0
  0
XRECORD
  5
10A
102
{ACAD_REACTORS
330
F9
102
}
330
F9
100
AcDbXrecord
 10
0.0
 20
0.0
 30
0.0
  0
XRECORD
  5
10D
102
{ACAD_REACTORS
330
F9
102
}
330
F9
100
AcDbXrecord
 10
0.0
 20
0.0
 30
0.0
  0
XRECORD
  5
10B
102
{ACAD_REACTORS
330
F9
102
}
330
F9
100
AcDbXrecord
 10
0.0
 20
0.0
 30
0.0
  0
XRECORD
  5
10C
102
{ACAD_REACTORS
330
F9
102
}
330
F9
100
AcDbXrecord
 10
0.0
 20
0.0
 30
0.0
  0
XRECORD
  5
109
102
{ACAD_REACTORS
330
F9
102
}
330
F9
100
AcDbXrecord
 10
0.0
 20
0.0
 30
0.0
  0
XRECORD
  5
106
102
{ACAD_REACTORS
330
F9
102
}
330
F9
100
AcDbXrecord
340
0
  0
XRECORD
  5
107
102
{ACAD_REACTORS
330
F9
102
}
330
F9
100
AcDbXrecord
 70
     0
  0
XRECORD
  5
FD
102
{ACAD_REACTORS
330
F9
102
}
330
F9
100
AcDbXrecord
  1

  0
XRECORD
  5
FA
102
{ACAD_REACTORS
330
F9
102
}
330
F9
100
AcDbXrecord
 90
        1
  0
XRECORD
  5
FB
102
{ACAD_REACTORS
330
F9
102
}
330
F9
100
AcDbXrecord
 90
       70
  0
XRECORD
  5
111
102
{ACAD_REACTORS
330
F9
102
}
330
F9
100
AcDbXrecord
340
0
  0
XRECORD
  5
117
102
{ACAD_REACTORS
330
F9
102
}
330
F9
100
AcDbXrecord
 10
0.0
 20
0.0
 30
0.0
  0
XRECORD
  5
113
102
{ACAD_REACTORS
330
F9
102
}
330
F9
100
AcDbXrecord
 10
0.0
 20
0.0
 30
0.0
  0
XRECORD
  5
116
102
{ACAD_REACTORS
330
F9
102
}
330
F9
100
AcDbXrecord
 10
0.0
 20
0.0
 30
0.0
  0
XRECORD
  5
114
102
{ACAD_REACTORS
330
F9
102
}
330
F9
100
AcDbXrecord
 10
0.0
 20
0.0
 30
0.0
  0
XRECORD
  5
115
102
{ACAD_REACTORS
330
F9
102
}
330
F9
100
AcDbXrecord
 10
0.0
 20
0.0
 30
0.0
  0
XRECORD
  5
112
102
{ACAD_REACTORS
330
F9
102
}
330
F9
100
AcDbXrecord
 10
0.0
 20
0.0
 30
0.0
  0
XRECORD
  5
10F
102
{ACAD_REACTORS
330
F9
102
}
330
F9
100
AcDbXrecord
340
0
  0
XRECORD
  5
110
102
{ACAD_REACTORS
330
F9
102
}
330
F9
100
AcDbXrecord
 70
     0
  0
XRECORD
  5
104
102
{ACAD_REACTORS
330
F9
102
}
330
F9
100
AcDbXrecord
  1
{FAEB1C32-E019-11D5-929B-00C0DF256EC4}
  0
DICTIONARYVAR
  5
11C
102
{ACAD_REACTORS
330
119
102
}
330
119
100
DictionaryVariables
280
     0
  1
2
  0
DICTIONARYVAR
  5
11D
102
{ACAD_REACTORS
330
119
102
}
330
119
100
DictionaryVariables
280
     0
  1
1
  0
DICTIONARY
  5
120
330
3D
100
AcDbDictionary
280
     1
  3
ACAD_XREC_ROUNDTRIP
360
121
  0
DICTIONARY
  5
11E
330
3C
100
AcDbDictionary
280
     1
  3
ACAD_XREC_ROUNDTRIP
360
11F
  0
DICTIONARY
  5
122
330
3E
100
AcDbDictionary
280
     1
  3
ACAD_XREC_ROUNDTRIP
360
123
  0
XRECORD
  5
121
102
{ACAD_REACTORS
330
120
102
}
330
120
100
AcDbXrecord
102
MATERIAL
148
0.0
149
0.0
149
0.0
 93
        0
 94
      127
282
     0
 72
     1
 77
     1
171
     1
175
     1
179
     1
273
     0
  0
XRECORD
  5
11F
102
{ACAD_REACTORS
330
11E
102
}
330
11E
100
AcDbXrecord
102
MATERIAL
148
0.0
149
0.0
149
0.0
 93
        0
 94
      127
282
     0
 72
     1
 77
     1
171
     1
175
     1
179
     1
273
     0
  0
XRECORD
  5
123
102
{ACAD_REACTORS
330
122
102
}
330
122
100
AcDbXrecord
102
MATERIAL
148
0.0
149
0.0
149
0.0
 93
        0
 94
      127
282
     0
 72
     1
 77
     1
171
     1
175
     1
179
     1
273
     0
  0
ENDSEC
  0
EOF
