  0
SECTION
  2
HEADER
  9
$ACADVER
  1
AC1014
  9
$ACADMAINTVER
 70
     9
  9
$DWGCODEPAGE
  3
ANSI_1252
  9
$INSBASE
 10
0.0
 20
0.0
 30
0.0
  9
$EXTMIN
 10
1.000000000000000E+20
 20
1.000000000000000E+20
 30
1.000000000000000E+20
  9
$EXTMAX
 10
-1.000000000000000E+20
 20
-1.000000000000000E+20
 30
-1.000000000000000E+20
  9
$LIMMIN
 10
0.0
 20
0.0
  9
$LIMMAX
 10
12.0
 20
9.0
  9
$ORTHOMODE
 70
     0
  9
$REGENMODE
 70
     1
  9
$FILLMODE
 70
     1
  9
$QTEXTMODE
 70
     0
  9
$MIRRTEXT
 70
     1
  9
$DRAGMODE
 70
     2
  9
$LTSCALE
 40
1.0
  9
$OSMODE
 70
    37
  9
$ATTMODE
 70
     1
  9
$TEXTSIZE
 40
0.2
  9
$TRACEWID
 40
0.05
  9
$TEXTSTYLE
  7
STANDARD
  9
$CLAYER
  8
0
  9
$CELTYPE
  6
BYLAYER
  9
$CECOLOR
 62
   256
  9
$CELTSCALE
 40
1.0
  9
$DELOBJ
 70
     1
  9
$DISPSILH
 70
     0
  9
$DIMSCALE
 40
1.0
  9
$DIMASZ
 40
0.18
  9
$DIMEXO
 40
0.0625
  9
$DIMDLI
 40
0.38
  9
$DIMRND
 40
0.0
  9
$DIMDLE
 40
0.0
  9
$DIMEXE
 40
0.18
  9
$DIMTP
 40
0.0
  9
$DIMTM
 40
0.0
  9
$DIMTXT
 40
0.18
  9
$DIMCEN
 40
0.09
  9
$DIMTSZ
 40
0.0
  9
$DIMTOL
 70
     0
  9
$DIMLIM
 70
     0
  9
$DIMTIH
 70
     1
  9
$DIMTOH
 70
     1
  9
$DIMSE1
 70
     0
  9
$DIMSE2
 70
     0
  9
$DIMTAD
 70
     0
  9
$DIMZIN
 70
     0
  9
$DIMBLK
  1

  9
$DIMASO
 70
     1
  9
$DIMSHO
 70
     1
  9
$DIMPOST
  1

  9
$DIMAPOST
  1

  9
$DIMALT
 70
     0
  9
$DIMALTD
 70
     2
  9
$DIMALTF
 40
25.4
  9
$DIMLFAC
 40
1.0
  9
$DIMTOFL
 70
     0
  9
$DIMTVP
 40
0.0
  9
$DIMTIX
 70
     0
  9
$DIMSOXD
 70
     0
  9
$DIMSAH
 70
     0
  9
$DIMBLK1
  1

  9
$DIMBLK2
  1

  9
$DIMSTYLE
  2
STANDARD
  9
$DIMCLRD
 70
     0
  9
$DIMCLRE
 70
     0
  9
$DIMCLRT
 70
     0
  9
$DIMTFAC
 40
1.0
  9
$DIMGAP
 40
0.09
  9
$DIMJUST
 70
     0
  9
$DIMSD1
 70
     0
  9
$DIMSD2
 70
     0
  9
$DIMTOLJ
 70
     1
  9
$DIMTZIN
 70
     0
  9
$DIMALTZ
 70
     0
  9
$DIMALTTZ
 70
     0
  9
$DIMFIT
 70
     3
  9
$DIMUPT
 70
     0
  9
$DIMUNIT
 70
     2
  9
$DIMDEC
 70
     4
  9
$DIMTDEC
 70
     4
  9
$DIMALTU
 70
     2
  9
$DIMALTTD
 70
     2
  9
$DIMTXSTY
  7
STANDARD
  9
$DIMAUNIT
 70
     0
  9
$LUNITS
 70
     2
  9
$LUPREC
 70
     4
  9
$SKETCHINC
 40
0.1
  9
$FILLETRAD
 40
0.5
  9
$AUNITS
 70
     0
  9
$AUPREC
 70
     0
  9
$MENU
  1
.
  9
$ELEVATION
 40
0.0
  9
$PELEVATION
 40
0.0
  9
$THICKNESS
 40
0.0
  9
$LIMCHECK
 70
     0
  9
$CHAMFERA
 40
0.5
  9
$CHAMFERB
 40
0.5
  9
$CHAMFERC
 40
1.0
  9
$CHAMFERD
 40
0.0
  9
$SKPOLY
 70
     0
  9
$TDCREATE
 40
2457358.337394271
  9
$TDUPDATE
 40
2457358.337394282
  9
$TDINDWG
 40
0.0000000116
  9
$TDUSRTIMER
 40
0.0000000116
  9
$USRTIMER
 70
     1
  9
$ANGBASE
 50
0.0
  9
$ANGDIR
 70
     0
  9
$PDMODE
 70
     0
  9
$PDSIZE
 40
0.0
  9
$PLINEWID
 40
0.0
  9
$COORDS
 70
     1
  9
$SPLFRAME
 70
     0
  9
$SPLINETYPE
 70
     6
  9
$SPLINESEGS
 70
     8
  9
$ATTDIA
 70
     0
  9
$ATTREQ
 70
     1
  9
$HANDLING
 70
     1
  9
$HANDSEED
  5
162
  9
$SURFTAB1
 70
     6
  9
$SURFTAB2
 70
     6
  9
$SURFTYPE
 70
     6
  9
$SURFU
 70
     6
  9
$SURFV
 70
     6
  9
$UCSNAME
  2

  9
$UCSORG
 10
0.0
 20
0.0
 30
0.0
  9
$UCSXDIR
 10
1.0
 20
0.0
 30
0.0
  9
$UCSYDIR
 10
0.0
 20
1.0
 30
0.0
  9
$PUCSNAME
  2

  9
$PUCSORG
 10
0.0
 20
0.0
 30
0.0
  9
$PUCSXDIR
 10
1.0
 20
0.0
 30
0.0
  9
$PUCSYDIR
 10
0.0
 20
1.0
 30
0.0
  9
$USERI1
 70
     0
  9
$USERI2
 70
     0
  9
$USERI3
 70
     0
  9
$USERI4
 70
     0
  9
$USERI5
 70
     0
  9
$USERR1
 40
0.0
  9
$USERR2
 40
0.0
  9
$USERR3
 40
0.0
  9
$USERR4
 40
0.0
  9
$USERR5
 40
0.0
  9
$WORLDVIEW
 70
     1
  9
$SHADEDGE
 70
     3
  9
$SHADEDIF
 70
    70
  9
$TILEMODE
 70
     1
  9
$MAXACTVP
 70
    64
  9
$PINSBASE
 10
0.0
 20
0.0
 30
0.0
  9
$PLIMCHECK
 70
     0
  9
$PEXTMIN
 10
1.000000000000000E+20
 20
1.000000000000000E+20
 30
1.000000000000000E+20
  9
$PEXTMAX
 10
-1.000000000000000E+20
 20
-1.000000000000000E+20
 30
-1.000000000000000E+20
  9
$PLIMMIN
 10
0.0
 20
0.0
  9
$PLIMMAX
 10
12.0
 20
9.0
  9
$UNITMODE
 70
     0
  9
$VISRETAIN
 70
     1
  9
$PLINEGEN
 70
     0
  9
$PSLTSCALE
 70
     1
  9
$TREEDEPTH
 70
  3020
  9
$PICKSTYLE
 70
     1
  9
$CMLSTYLE
  2
STANDARD
  9
$CMLJUST
 70
     0
  9
$CMLSCALE
 40
1.0
  9
$PROXYGRAPHICS
 70
     1
  9
$MEASUREMENT
 70
     0
  0
ENDSEC
  0
SECTION
  2
CLASSES
  0
CLASS
  1
ACDBDICTIONARYWDFLT
  2
AcDbDictionaryWithDefault
  3
ObjectDBX Classes
 90
        0
280
     0
281
     0
  0
CLASS
  1
VISUALSTYLE
  2
AcDbVisualStyle
  3
ObjectDBX Classes
 90
     4095
280
     0
281
     0
  0
CLASS
  1
MATERIAL
  2
AcDbMaterial
  3
ObjectDBX Classes
 90
     1153
280
     0
281
     0
  0
CLASS
  1
DICTIONARYVAR
  2
AcDbDictionaryVar
  3
ObjectDBX Classes
 90
        0
280
     0
281
     0
  0
CLASS
  1
XRECORD
  2
AcDbXrecord
  3
AutoCAD 2000
 90
        0
280
     0
281
     0
  0
CLASS
  1
LWPOLYLINE
  2
AcDbPolyline
  3
AutoCAD 2000
 90
        0
280
     0
281
     1
  0
CLASS
  1
HATCH
  2
AcDbHatch
  3
AutoCAD 2000
 90
        0
280
     0
281
     1
  0
CLASS
  1
ACDBPLACEHOLDER
  2
AcDbPlaceHolder
  3
ObjectDBX Classes
 90
        0
280
     0
281
     0
  0
CLASS
  1
LAYOUT
  2
AcDbLayout
  3
ObjectDBX Classes
 90
        0
280
     0
281
     0
  0
ENDSEC
  0
SECTION
  2
TABLES
  0
TABLE
  2
VPORT
  5
8
330
0
100
AcDbSymbolTable
 70
     1
  0
VPORT
  5
29
330
8
100
AcDbSymbolTableRecord
100
AcDbViewportTableRecord
  2
*ACTIVE
 70
     0
 10
0.0
 20
0.0
 11
1.0
 21
1.0
 12
0.0
 22
0.0
 13
0.0
 23
0.0
 14
0.5
 24
0.5
 15
0.5
 25
0.5
 16
0.0
 26
0.0
 36
1.0
 17
0.0
 27
0.0
 37
-1000.0
 40
130.1295566552562
 41
1.763768115942029
 42
50.0
 43
686.5464793911381
 44
1249.268392165943
 50
0.0
 51
0.0
 71
     0
 72
   100
 73
     1
 74
     3
 75
     0
 76
     0
 77
     0
 78
     0
  0
ENDTAB
  0
TABLE
  2
LTYPE
  5
5
330
0
100
AcDbSymbolTable
 70
     1
  0
LTYPE
  5
14
330
5
100
AcDbSymbolTableRecord
100
AcDbLinetypeTableRecord
  2
BYBLOCK
 70
     0
  3

 72
    65
 73
     0
 40
0.0
  0
LTYPE
  5
15
330
5
100
AcDbSymbolTableRecord
100
AcDbLinetypeTableRecord
  2
BYLAYER
 70
     0
  3

 72
    65
 73
     0
 40
0.0
  0
LTYPE
  5
16
330
5
100
AcDbSymbolTableRecord
100
AcDbLinetypeTableRecord
  2
CONTINUOUS
 70
     0
  3
Solid line
 72
    65
 73
     0
 40
0.0
  0
ENDTAB
  0
TABLE
  2
LAYER
  5
2
330
0
100
AcDbSymbolTable
 70
     3
  0
LAYER
  5
10
330
2
100
AcDbSymbolTableRecord
100
AcDbLayerTableRecord
  2
0
 70
     0
 62
     7
  6
CONTINUOUS
  0
LAYER
  5
3F
330
2
100
AcDbSymbolTableRecord
100
AcDbLayerTableRecord
  2
PROFILEEDGES
 70
     0
 62
     7
  6
CONTINUOUS
  0
LAYER
  5
40
330
2
100
AcDbSymbolTableRecord
100
AcDbLayerTableRecord
  2
SECTIONCUTEDGES
 70
     0
 62
     7
  6
CONTINUOUS
  0
ENDTAB
  0
TABLE
  2
STYLE
  5
3
330
0
100
AcDbSymbolTable
 70
     1
  0
STYLE
  5
11
330
3
100
AcDbSymbolTableRecord
100
AcDbTextStyleTableRecord
  2
STANDARD
 70
     0
 40
0.0
 41
1.0
 50
0.0
 71
     0
 42
0.2
  3
txt
  4

  0
ENDTAB
  0
TABLE
  2
VIEW
  5
6
330
0
100
AcDbSymbolTable
 70
     0
  0
ENDTAB
  0
TABLE
  2
UCS
  5
7
330
0
100
AcDbSymbolTable
 70
     0
  0
ENDTAB
  0
TABLE
  2
APPID
  5
9
330
0
100
AcDbSymbolTable
 70
     1
  0
APPID
  5
12
330
9
100
AcDbSymbolTableRecord
100
AcDbRegAppTableRecord
  2
ACAD
 70
     0
  0
ENDTAB
  0
TABLE
  2
DIMSTYLE
  5
A
330
0
100
AcDbSymbolTable
 70
     1
  0
DIMSTYLE
105
27
330
A
100
AcDbSymbolTableRecord
100
AcDbDimStyleTableRecord
  2
STANDARD
 70
     0
  3

  4

  5

  6

  7

 40
1.0
 41
0.18
 42
0.0625
 43
0.38
 44
0.18
 45
0.0
 46
0.0
 47
0.0
 48
0.0
140
0.18
141
0.09
142
0.0
143
25.4
144
1.0
145
0.0
146
1.0
147
0.09
 71
     0
 72
     0
 73
     1
 74
     1
 75
     0
 76
     0
 77
     0
 78
     0
170
     0
171
     2
172
     0
173
     0
174
     0
175
     0
176
     0
177
     0
178
     0
270
     2
271
     4
272
     4
273
     2
274
     2
340
11
275
     0
280
     0
281
     0
282
     0
283
     1
284
     0
285
     0
286
     0
287
     3
288
     0
  0
ENDTAB
  0
TABLE
  2
BLOCK_RECORD
  5
1
330
0
100
AcDbSymbolTable
 70
     1
  0
BLOCK_RECORD
  5
1F
330
1
100
AcDbSymbolTableRecord
100
AcDbBlockTableRecord
  2
*MODEL_SPACE
  0
BLOCK_RECORD
  5
1B
330
1
100
AcDbSymbolTableRecord
100
AcDbBlockTableRecord
  2
*PAPER_SPACE
  0
ENDTAB
  0
ENDSEC
  0
SECTION
  2
BLOCKS
  0
BLOCK
  5
20
330
1F
100
AcDbEntity
  8
0
100
AcDbBlockBegin
  2
*MODEL_SPACE
 70
     0
 10
0.0
 20
0.0
 30
0.0
  3
*MODEL_SPACE
  1

  0
ENDBLK
  5
21
330
1F
100
AcDbEntity
  8
0
100
AcDbBlockEnd
  0
BLOCK
  5
1C
330
1B
100
AcDbEntity
 67
     1
  8
0
100
AcDbBlockBegin
  2
*PAPER_SPACE
 70
     0
 10
0.0
 20
0.0
 30
0.0
  3
*PAPER_SPACE
  1

  0
ENDBLK
  5
1D
330
1B
100
AcDbEntity
 67
     1
  8
0
100
AcDbBlockEnd
  0
ENDSEC
  0
SECTION
  2
ENTITIES
  0
LINE
  5
41
330
1F
100
AcDbEntity
  8
0
100
AcDbLine
 10
-76.09459732808922
 20
50.82891531817538
 30
0.0
 11
-76.4684278081803
 21
50.6740696632932
 31
0.0
  0
LINE
  5
42
330
1F
100
AcDbEntity
  8
0
100
AcDbLine
 10
-76.4684278081803
 20
50.6740696632932
 30
0.0
 11
-76.86959732808923
 21
50.62125469404123
 31
0.0
  0
LINE
  5
43
330
1F
100
AcDbEntity
  8
0
100
AcDbLine
 10
-76.86959732808923
 20
50.62125469404123
 30
0.0
 11
-77.27076684799806
 21
50.67406966329315
 31
0.0
  0
LINE
  5
44
330
1F
100
AcDbEntity
  8
0
100
AcDbLine
 10
-77.27076684799806
 20
50.67406966329315
 30
0.0
 11
-77.64459732808928
 21
50.82891531817531
 31
0.0
  0
LINE
  5
45
330
1F
100
AcDbEntity
  8
0
100
AcDbLine
 10
-77.64459732808928
 20
50.82891531817531
 30
0.0
 11
-77.96561283892834
 21
51.07523918320203
 31
0.0
  0
LINE
  5
46
330
1F
100
AcDbEntity
  8
0
100
AcDbLine
 10
-77.96561283892834
 20
51.07523918320203
 30
0.0
 11
-78.21193670395513
 21
51.3962546940412
 31
0.0
  0
LINE
  5
47
330
1F
100
AcDbEntity
  8
0
100
AcDbLine
 10
-78.21193670395513
 20
51.3962546940412
 30
0.0
 11
-78.36678235883731
 21
51.77008517413228
 31
0.0
  0
LINE
  5
48
330
1F
100
AcDbEntity
  8
0
100
AcDbLine
 10
-78.36678235883731
 20
51.77008517413228
 30
0.0
 11
-78.41959732808924
 21
52.17125469404115
 31
0.0
  0
LINE
  5
49
330
1F
100
AcDbEntity
  8
0
100
AcDbLine
 10
-78.41959732808924
 20
52.17125469404115
 30
0.0
 11
-78.3667823588374
 21
52.57242421395009
 31
0.0
  0
LINE
  5
4A
330
1F
100
AcDbEntity
  8
0
100
AcDbLine
 10
-78.3667823588374
 20
52.57242421395009
 30
0.0
 11
-78.21193670395513
 21
52.94625469404121
 31
0.0
  0
LINE
  5
4B
330
1F
100
AcDbEntity
  8
0
100
AcDbLine
 10
-78.21193670395513
 20
52.94625469404121
 30
0.0
 11
-77.96561283892842
 21
53.26727020488036
 31
0.0
  0
LINE
  5
4C
330
1F
100
AcDbEntity
  8
0
100
AcDbLine
 10
-77.96561283892842
 20
53.26727020488036
 30
0.0
 11
-77.64459732808936
 21
53.5135940699071
 31
0.0
  0
LINE
  5
4D
330
1F
100
AcDbEntity
  8
0
100
AcDbLine
 10
-78.36678235883731
 20
-43.22991482586798
 30
0.0
 11
-78.41959732808928
 21
-42.82874530595907
 31
0.0
  0
LINE
  5
4E
330
1F
100
AcDbEntity
  8
0
100
AcDbLine
 10
-76.46842780818034
 20
-41.33156027521092
 30
0.0
 11
-76.09459732808922
 21
-41.48640593009311
 31
0.0
  0
LINE
  5
4F
330
1F
100
AcDbEntity
  8
0
100
AcDbLine
 10
-76.09459732808922
 20
-41.48640593009311
 30
0.0
 11
-75.77358181725012
 21
-41.73272979511983
 31
0.0
  0
LINE
  5
50
330
1F
100
AcDbEntity
  8
0
100
AcDbLine
 10
-75.77358181725012
 20
-41.73272979511983
 30
0.0
 11
-75.52725795222332
 21
-42.05374530595898
 31
0.0
  0
LINE
  5
51
330
1F
100
AcDbEntity
  8
0
100
AcDbLine
 10
-78.41959732808928
 20
-42.82874530595907
 30
0.0
 11
-78.36678235883731
 21
-42.42757578605015
 31
0.0
  0
LINE
  5
52
330
1F
100
AcDbEntity
  8
0
100
AcDbLine
 10
-78.36678235883731
 20
-42.42757578605015
 30
0.0
 11
-78.21193670395513
 21
-42.05374530595905
 31
0.0
  0
LINE
  5
53
330
1F
100
AcDbEntity
  8
0
100
AcDbLine
 10
-78.21193670395513
 20
-42.05374530595905
 30
0.0
 11
-77.96561283892842
 21
-41.73272979511987
 31
0.0
  0
LINE
  5
54
330
1F
100
AcDbEntity
  8
0
100
AcDbLine
 10
-77.96561283892842
 20
-41.73272979511987
 30
0.0
 11
-77.64459732808928
 21
-41.48640593009313
 31
0.0
  0
LINE
  5
55
330
1F
100
AcDbEntity
  8
0
100
AcDbLine
 10
-99.96561283892834
 20
-41.73272979512016
 30
0.0
 11
-99.64459732808915
 21
-41.48640593009345
 31
0.0
  0
LINE
  5
56
330
1F
100
AcDbEntity
  8
0
100
AcDbLine
 10
-99.64459732808915
 20
-41.48640593009345
 30
0.0
 11
-99.27076684799806
 21
-41.33156027521126
 31
0.0
  0
LINE
  5
57
330
1F
100
AcDbEntity
  8
0
100
AcDbLine
 10
-99.27076684799806
 20
-41.33156027521126
 30
0.0
 11
-98.86959732808914
 21
-41.27874530595934
 31
0.0
  0
LINE
  5
58
330
1F
100
AcDbEntity
  8
0
100
AcDbLine
 10
-98.86959732808914
 20
-41.27874530595934
 30
0.0
 11
-98.46842780818031
 21
-41.33156027521126
 31
0.0
  0
LINE
  5
59
330
1F
100
AcDbEntity
  8
0
100
AcDbLine
 10
-98.46842780818031
 20
-41.33156027521126
 30
0.0
 11
-98.09459732808918
 21
-41.48640593009345
 31
0.0
  0
LINE
  5
5A
330
1F
100
AcDbEntity
  8
0
100
AcDbLine
 10
-76.86959732808918
 20
-44.37874530595909
 30
0.0
 11
-77.27076684799815
 21
-44.32593033670714
 31
0.0
  0
LINE
  5
5B
330
1F
100
AcDbEntity
  8
0
100
AcDbLine
 10
-77.27076684799815
 20
-44.32593033670714
 30
0.0
 11
-77.64459732808919
 21
-44.17108468182498
 31
0.0
  0
LINE
  5
5C
330
1F
100
AcDbEntity
  8
0
100
AcDbLine
 10
-77.64459732808919
 20
-44.17108468182498
 30
0.0
 11
-77.96561283892838
 21
-43.92476081679823
 31
0.0
  0
LINE
  5
5D
330
1F
100
AcDbEntity
  8
0
100
AcDbLine
 10
-77.96561283892838
 20
-43.92476081679823
 30
0.0
 11
-78.21193670395513
 21
-43.60374530595908
 31
0.0
  0
LINE
  5
5E
330
1F
100
AcDbEntity
  8
0
100
AcDbLine
 10
-78.21193670395513
 20
-43.60374530595908
 30
0.0
 11
-78.36678235883731
 21
-43.22991482586798
 31
0.0
  0
LINE
  5
5F
330
1F
100
AcDbEntity
  8
0
100
AcDbLine
 10
-67.86959732808924
 20
59.67125469404098
 30
0.0
 11
-67.86959732808924
 21
-50.32874530595904
 31
0.0
  0
LINE
  5
60
330
1F
100
AcDbEntity
  8
0
100
AcDbLine
 10
-107.8695973280893
 20
59.67125469404098
 30
0.0
 11
-67.86959732808924
 21
59.67125469404098
 31
0.0
  0
LINE
  5
61
330
1F
100
AcDbEntity
  8
0
100
AcDbLine
 10
-76.49579916201992
 20
30.85861986671819
 30
0.0
 11
-75.18710362720928
 21
27.69914935756125
 31
0.0
  0
LINE
  5
62
330
1F
100
AcDbEntity
  8
0
100
AcDbLine
 10
-75.18710362720928
 20
27.69914935756125
 30
0.0
 11
-74.74073195159606
 21
24.30861986671824
 31
0.0
  0
LINE
  5
63
330
1F
100
AcDbEntity
  8
0
100
AcDbLine
 10
-74.74073195159606
 20
24.30861986671824
 30
0.0
 11
-75.18710362720928
 21
20.91809037587527
 31
0.0
  0
LINE
  5
64
330
1F
100
AcDbEntity
  8
0
100
AcDbLine
 10
-75.18710362720928
 20
20.91809037587527
 30
0.0
 11
-76.49579916201992
 21
17.75861986671828
 31
0.0
  0
LINE
  5
65
330
1F
100
AcDbEntity
  8
0
100
AcDbLine
 10
-76.49579916201992
 20
17.75861986671828
 30
0.0
 11
-78.57763311805226
 21
15.04552103317452
 31
0.0
  0
LINE
  5
66
330
1F
100
AcDbEntity
  8
0
100
AcDbLine
 10
-84.450202460753
 20
36.96224819110493
 30
0.0
 11
-81.29073195159606
 21
35.65355265629429
 31
0.0
  0
LINE
  5
67
330
1F
100
AcDbEntity
  8
0
100
AcDbLine
 10
-78.57763311805226
 20
15.04552103317452
 30
0.0
 11
-81.29073195159602
 21
12.96368707714219
 31
0.0
  0
LINE
  5
68
330
1F
100
AcDbEntity
  8
0
100
AcDbLine
 10
-81.29073195159602
 20
12.96368707714219
 30
0.0
 11
-84.450202460753
 21
11.6549915423315
 31
0.0
  0
LINE
  5
69
330
1F
100
AcDbEntity
  8
0
100
AcDbLine
 10
-100.4943602759828
 20
27.69914935756121
 30
0.0
 11
-99.18566474117212
 21
30.85861986671819
 31
0.0
  0
LINE
  5
6A
330
1F
100
AcDbEntity
  8
0
100
AcDbLine
 10
-84.450202460753
 20
11.6549915423315
 30
0.0
 11
-87.84073195159597
 21
11.20861986671833
 31
0.0
  0
LINE
  5
6B
330
1F
100
AcDbEntity
  8
0
100
AcDbLine
 10
-87.84073195159597
 20
11.20861986671833
 30
0.0
 11
-91.23126144243899
 21
11.6549915423315
 31
0.0
  0
LINE
  5
6C
330
1F
100
AcDbEntity
  8
0
100
AcDbLine
 10
-91.23126144243899
 20
11.6549915423315
 30
0.0
 11
-94.39073195159597
 21
12.96368707714215
 31
0.0
  0
LINE
  5
6D
330
1F
100
AcDbEntity
  8
0
100
AcDbLine
 10
-94.39073195159597
 20
12.96368707714215
 30
0.0
 11
-97.10383078513973
 21
15.04552103317452
 31
0.0
  0
LINE
  5
6E
330
1F
100
AcDbEntity
  8
0
100
AcDbLine
 10
-97.10383078513973
 20
15.04552103317452
 30
0.0
 11
-99.18566474117206
 21
17.75861986671824
 31
0.0
  0
LINE
  5
6F
330
1F
100
AcDbEntity
  8
0
100
AcDbLine
 10
-99.18566474117206
 20
17.75861986671824
 30
0.0
 11
-100.4943602759828
 21
20.91809037587522
 31
0.0
  0
LINE
  5
70
330
1F
100
AcDbEntity
  8
0
100
AcDbLine
 10
-100.4943602759828
 20
20.91809037587522
 30
0.0
 11
-100.940731951596
 21
24.30861986671824
 31
0.0
  0
LINE
  5
71
330
1F
100
AcDbEntity
  8
0
100
AcDbLine
 10
-91.83182724527984
 20
-13.79041742056606
 30
0.0
 11
-92.03774181568711
 21
-12.71350700729311
 31
0.0
  0
LINE
  5
72
330
1F
100
AcDbEntity
  8
0
100
AcDbLine
 10
-92.03774181568711
 20
-12.71350700729311
 30
0.0
 11
-91.95791509242837
 21
-11.61999681402764
 31
0.0
  0
LINE
  5
73
330
1F
100
AcDbEntity
  8
0
100
AcDbLine
 10
-81.29073195159606
 20
35.65355265629429
 30
0.0
 11
-78.5776331180523
 21
33.57171870026196
 31
0.0
  0
LINE
  5
74
330
1F
100
AcDbEntity
  8
0
100
AcDbLine
 10
-78.5776331180523
 20
33.57171870026196
 30
0.0
 11
-76.49579916201992
 21
30.85861986671819
 31
0.0
  0
LINE
  5
75
330
1F
100
AcDbEntity
  8
0
100
AcDbLine
 10
-100.940731951596
 20
24.30861986671824
 30
0.0
 11
-100.4943602759828
 21
27.69914935756121
 31
0.0
  0
LINE
  5
76
330
1F
100
AcDbEntity
  8
0
100
AcDbLine
 10
-99.18566474117212
 20
30.85861986671819
 30
0.0
 11
-97.10383078513973
 21
33.57171870026191
 31
0.0
  0
LINE
  5
77
330
1F
100
AcDbEntity
  8
0
100
AcDbLine
 10
-97.10383078513973
 20
33.57171870026191
 30
0.0
 11
-94.39073195159597
 21
35.65355265629429
 31
0.0
  0
LINE
  5
78
330
1F
100
AcDbEntity
  8
0
100
AcDbLine
 10
-94.39073195159597
 20
35.65355265629429
 30
0.0
 11
-91.23126144243903
 21
36.96224819110493
 31
0.0
  0
LINE
  5
79
330
1F
100
AcDbEntity
  8
0
100
AcDbLine
 10
-91.23126144243903
 20
36.96224819110493
 30
0.0
 11
-87.84073195159601
 21
37.40861986671815
 31
0.0
  0
LINE
  5
7A
330
1F
100
AcDbEntity
  8
0
100
AcDbLine
 10
-87.84073195159601
 20
37.40861986671815
 30
0.0
 11
-84.450202460753
 21
36.96224819110493
 31
0.0
  0
LINE
  5
7B
330
1F
100
AcDbEntity
  8
0
100
AcDbLine
 10
-86.52431775099953
 20
-16.45694005653293
 30
0.0
 11
-87.60122816427244
 21
-16.66285462694016
 31
0.0
  0
LINE
  5
7C
330
1F
100
AcDbEntity
  8
0
100
AcDbLine
 10
-87.60122816427244
 20
-16.66285462694016
 30
0.0
 11
-88.6947383575379
 21
-16.5830279036814
 31
0.0
  0
LINE
  5
7D
330
1F
100
AcDbEntity
  8
0
100
AcDbLine
 10
-88.6947383575379
 20
-16.5830279036814
 30
0.0
 11
-89.73032741823583
 21
-16.22289994602695
 31
0.0
  0
LINE
  5
7E
330
1F
100
AcDbEntity
  8
0
100
AcDbLine
 10
-89.73032741823583
 20
-16.22289994602695
 30
0.0
 11
-90.63742166327167
 21
-15.60701287915129
 31
0.0
  0
LINE
  5
7F
330
1F
100
AcDbEntity
  8
0
100
AcDbLine
 10
-90.63742166327167
 20
-15.60701287915129
 30
0.0
 11
-91.35420411889011
 21
-14.77733838886052
 31
0.0
  0
LINE
  5
80
330
1F
100
AcDbEntity
  8
0
100
AcDbLine
 10
-91.35420411889011
 20
-14.77733838886052
 30
0.0
 11
-91.83182724527984
 21
-13.79041742056606
 31
0.0
  0
LINE
  5
81
330
1F
100
AcDbEntity
  8
0
100
AcDbLine
 10
-91.95791509242837
 20
-11.61999681402764
 30
0.0
 11
-91.59778713477385
 21
-10.58440775332967
 31
0.0
  0
LINE
  5
82
330
1F
100
AcDbEntity
  8
0
100
AcDbLine
 10
-91.59778713477385
 20
-10.58440775332967
 30
0.0
 11
-90.98190006789821
 21
-9.677313508293928
 31
0.0
  0
LINE
  5
83
330
1F
100
AcDbEntity
  8
0
100
AcDbLine
 10
-90.98190006789821
 20
-9.677313508293928
 30
0.0
 11
-90.15222557760747
 21
-8.960531052675483
 31
0.0
  0
LINE
  5
84
330
1F
100
AcDbEntity
  8
0
100
AcDbLine
 10
-90.15222557760747
 20
-8.960531052675483
 30
0.0
 11
-89.16530460931301
 21
-8.482907926285666
 31
0.0
  0
LINE
  5
85
330
1F
100
AcDbEntity
  8
0
100
AcDbLine
 10
-89.16530460931301
 20
-8.482907926285666
 30
0.0
 11
-88.08839419604007
 21
-8.276993355878476
 31
0.0
  0
LINE
  5
86
330
1F
100
AcDbEntity
  8
0
100
AcDbLine
 10
-88.08839419604007
 20
-8.276993355878476
 30
0.0
 11
-86.9948840027746
 21
-8.356820079137211
 31
0.0
  0
LINE
  5
87
330
1F
100
AcDbEntity
  8
0
100
AcDbLine
 10
-86.9948840027746
 20
-8.356820079137211
 30
0.0
 11
-85.95929494207664
 21
-8.716948036791692
 31
0.0
  0
LINE
  5
88
330
1F
100
AcDbEntity
  8
0
100
AcDbLine
 10
-85.95929494207664
 20
-8.716948036791692
 30
0.0
 11
-85.05220069704089
 21
-9.332835103667342
 31
0.0
  0
LINE
  5
89
330
1F
100
AcDbEntity
  8
0
100
AcDbLine
 10
-85.05220069704089
 20
-9.332835103667342
 30
0.0
 11
-84.33541824142239
 21
-10.16250959395812
 31
0.0
  0
LINE
  5
8A
330
1F
100
AcDbEntity
  8
0
100
AcDbLine
 10
-84.33541824142239
 20
-10.16250959395812
 30
0.0
 11
-83.85779511503262
 21
-11.14943056225258
 31
0.0
  0
LINE
  5
8B
330
1F
100
AcDbEntity
  8
0
100
AcDbLine
 10
-83.85779511503262
 20
-11.14943056225258
 30
0.0
 11
-83.65188054462539
 21
-12.22634097552553
 31
0.0
  0
LINE
  5
8C
330
1F
100
AcDbEntity
  8
0
100
AcDbLine
 10
-83.65188054462539
 20
-12.22634097552553
 30
0.0
 11
-83.73170726788415
 21
-13.31985116879095
 31
0.0
  0
LINE
  5
8D
330
1F
100
AcDbEntity
  8
0
100
AcDbLine
 10
-83.73170726788415
 20
-13.31985116879095
 30
0.0
 11
-84.09183522553865
 21
-14.35544022948891
 31
0.0
  0
LINE
  5
8E
330
1F
100
AcDbEntity
  8
0
100
AcDbLine
 10
-84.09183522553865
 20
-14.35544022948891
 30
0.0
 11
-84.70772229241426
 21
-15.26253447452466
 31
0.0
  0
LINE
  5
8F
330
1F
100
AcDbEntity
  8
0
100
AcDbLine
 10
-84.70772229241426
 20
-15.26253447452466
 30
0.0
 11
-85.53739678270503
 21
-15.97931693014315
 31
0.0
  0
LINE
  5
90
330
1F
100
AcDbEntity
  8
0
100
AcDbLine
 10
-85.53739678270503
 20
-15.97931693014315
 30
0.0
 11
-86.52431775099953
 21
-16.45694005653293
 31
0.0
  0
LINE
  5
91
330
1F
100
AcDbEntity
  8
0
100
AcDbLine
 10
-107.8695973280893
 20
-50.32874530595904
 30
0.0
 11
-107.8695973280893
 21
59.67125469404098
 31
0.0
  0
LINE
  5
92
330
1F
100
AcDbEntity
  8
0
100
AcDbLine
 10
-67.86959732808924
 20
-50.32874530595904
 30
0.0
 11
-107.8695973280893
 21
-50.32874530595904
 31
0.0
  0
LINE
  5
93
330
1F
100
AcDbEntity
  8
0
100
AcDbLine
 10
-71.43552409015473
 20
7.550407353831383
 30
0.0
 11
-71.7920176611914
 21
7.358994871243274
 31
0.0
  0
LINE
  5
94
330
1F
100
AcDbEntity
  8
0
100
AcDbLine
 10
-71.7920176611914
 20
7.358994871243274
 30
0.0
 11
-72.18590520432592
 21
7.266371936478163
 31
0.0
  0
LINE
  5
95
330
1F
100
AcDbEntity
  8
0
100
AcDbLine
 10
-72.18590520432592
 20
7.266371936478163
 30
0.0
 11
-72.59034393442356
 21
7.278850649473719
 31
0.0
  0
LINE
  5
96
330
1F
100
AcDbEntity
  8
0
100
AcDbLine
 10
-72.59034393442356
 20
7.278850649473719
 30
0.0
 11
-72.9777720203948
 21
7.395580606561327
 31
0.0
  0
LINE
  5
97
330
1F
100
AcDbEntity
  8
0
100
AcDbLine
 10
-72.9777720203948
 20
7.395580606561327
 30
0.0
 11
-73.32178687843597
 21
7.608606854070851
 31
0.0
  0
LINE
  5
98
330
1F
100
AcDbEntity
  8
0
100
AcDbLine
 10
-73.32178687843597
 20
7.608606854070851
 30
0.0
 11
-73.5989444644828
 21
7.903412005277
 31
0.0
  0
LINE
  5
99
330
1F
100
AcDbEntity
  8
0
100
AcDbLine
 10
-73.5989444644828
 20
7.903412005277
 30
0.0
 11
-73.7903569470709
 21
8.259905576313667
 31
0.0
  0
LINE
  5
9A
330
1F
100
AcDbEntity
  8
0
100
AcDbLine
 10
-73.7903569470709
 20
8.259905576313667
 30
0.0
 11
-73.88297988183608
 21
8.653793119448167
 31
0.0
  0
LINE
  5
9B
330
1F
100
AcDbEntity
  8
0
100
AcDbLine
 10
-73.88297988183608
 20
8.653793119448167
 30
0.0
 11
-73.87050116884046
 21
9.058231849545823
 31
0.0
  0
LINE
  5
9C
330
1F
100
AcDbEntity
  8
0
100
AcDbLine
 10
-73.87050116884046
 20
9.058231849545823
 30
0.0
 11
-73.75377121175289
 21
9.44565993551706
 31
0.0
  0
LINE
  5
9D
330
1F
100
AcDbEntity
  8
0
100
AcDbLine
 10
-73.75377121175289
 20
9.44565993551706
 30
0.0
 11
-73.54074496424337
 21
9.789674793558193
 31
0.0
  0
LINE
  5
9E
330
1F
100
AcDbEntity
  8
0
100
AcDbLine
 10
-73.54074496424337
 20
9.789674793558193
 30
0.0
 11
-73.24593981303723
 21
10.06683237960506
 31
0.0
  0
LINE
  5
9F
330
1F
100
AcDbEntity
  8
0
100
AcDbLine
 10
-73.24593981303723
 20
10.06683237960506
 30
0.0
 11
-72.88944624200056
 21
10.25824486219322
 31
0.0
  0
LINE
  5
A0
330
1F
100
AcDbEntity
  8
0
100
AcDbLine
 10
-72.88944624200056
 20
10.25824486219322
 30
0.0
 11
-72.49555869886608
 21
10.3508677969583
 31
0.0
  0
LINE
  5
A1
330
1F
100
AcDbEntity
  8
0
100
AcDbLine
 10
-72.49555869886608
 20
10.3508677969583
 30
0.0
 11
-72.0911199687684
 21
10.33838908396275
 31
0.0
  0
LINE
  5
A2
330
1F
100
AcDbEntity
  8
0
100
AcDbLine
 10
-72.0911199687684
 20
10.33838908396275
 30
0.0
 11
-71.70369188279716
 21
10.22165912687514
 31
0.0
  0
LINE
  5
A3
330
1F
100
AcDbEntity
  8
0
100
AcDbLine
 10
-71.70369188279716
 20
10.22165912687514
 30
0.0
 11
-71.35967702475608
 21
10.00863287936564
 31
0.0
  0
LINE
  5
A4
330
1F
100
AcDbEntity
  8
0
100
AcDbLine
 10
-71.35967702475608
 20
10.00863287936564
 30
0.0
 11
-71.08251943870921
 21
9.713827728159444
 31
0.0
  0
LINE
  5
A5
330
1F
100
AcDbEntity
  8
0
100
AcDbLine
 10
-71.08251943870921
 20
9.713827728159444
 30
0.0
 11
-70.89110695612105
 21
9.3573341571228
 31
0.0
  0
LINE
  5
A6
330
1F
100
AcDbEntity
  8
0
100
AcDbLine
 10
-70.89110695612105
 20
9.3573341571228
 30
0.0
 11
-70.79848402135588
 21
8.963446613988301
 31
0.0
  0
LINE
  5
A7
330
1F
100
AcDbEntity
  8
0
100
AcDbLine
 10
-70.79848402135588
 20
8.963446613988301
 30
0.0
 11
-70.81096273435149
 21
8.559007883890667
 31
0.0
  0
LINE
  5
A8
330
1F
100
AcDbEntity
  8
0
100
AcDbLine
 10
-70.81096273435149
 20
8.559007883890667
 30
0.0
 11
-70.9276926914391
 21
8.171579797919385
 31
0.0
  0
LINE
  5
A9
330
1F
100
AcDbEntity
  8
0
100
AcDbLine
 10
-70.9276926914391
 20
8.171579797919385
 30
0.0
 11
-71.14071893894858
 21
7.827564939878297
 31
0.0
  0
LINE
  5
AA
330
1F
100
AcDbEntity
  8
0
100
AcDbLine
 10
-71.14071893894858
 20
7.827564939878297
 30
0.0
 11
-71.43552409015473
 21
7.550407353831383
 31
0.0
  0
LINE
  5
AB
330
1F
100
AcDbEntity
  8
0
100
AcDbLine
 10
-70.93144142503355
 20
40.45391066298087
 30
0.0
 11
-70.81244828754262
 21
40.06717168393806
 31
0.0
  0
LINE
  5
AC
330
1F
100
AcDbEntity
  8
0
100
AcDbLine
 10
-70.81244828754262
 20
40.06717168393806
 30
0.0
 11
-70.79760515614882
 21
39.66281282582873
 31
0.0
  0
LINE
  5
AD
330
1F
100
AcDbEntity
  8
0
100
AcDbLine
 10
-70.79760515614882
 20
39.66281282582873
 30
0.0
 11
-70.88792356572714
 21
39.26839047659854
 31
0.0
  0
LINE
  5
AE
330
1F
100
AcDbEntity
  8
0
100
AcDbLine
 10
-70.88792356572714
 20
39.26839047659854
 30
0.0
 11
-71.077248465923
 21
38.91078386753371
 31
0.0
  0
LINE
  5
AF
330
1F
100
AcDbEntity
  8
0
100
AcDbLine
 10
-71.077248465923
 20
38.91078386753371
 30
0.0
 11
-71.35267767766237
 21
38.61436329806917
 31
0.0
  0
LINE
  5
B0
330
1F
100
AcDbEntity
  8
0
100
AcDbLine
 10
-71.35267767766237
 20
38.61436329806917
 30
0.0
 11
-71.69544115533334
 21
38.39932934015576
 31
0.0
  0
LINE
  5
B1
330
1F
100
AcDbEntity
  8
0
100
AcDbLine
 10
-71.69544115533334
 20
38.39932934015576
 30
0.0
 11
-72.0821801343762
 21
38.28033620266488
 31
0.0
  0
LINE
  5
B2
330
1F
100
AcDbEntity
  8
0
100
AcDbLine
 10
-72.0821801343762
 20
38.28033620266488
 30
0.0
 11
-72.48653899248544
 21
38.26549307127107
 31
0.0
  0
LINE
  5
B3
330
1F
100
AcDbEntity
  8
0
100
AcDbLine
 10
-72.48653899248544
 20
38.26549307127107
 30
0.0
 11
-72.88096134171568
 21
38.35581148084934
 31
0.0
  0
LINE
  5
B4
330
1F
100
AcDbEntity
  8
0
100
AcDbLine
 10
-72.88096134171568
 20
38.35581148084934
 30
0.0
 11
-73.23856795078045
 21
38.54513638104526
 31
0.0
  0
LINE
  5
B5
330
1F
100
AcDbEntity
  8
0
100
AcDbLine
 10
-73.23856795078045
 20
38.54513638104526
 30
0.0
 11
-73.53498852024504
 21
38.82056559278458
 31
0.0
  0
LINE
  5
B6
330
1F
100
AcDbEntity
  8
0
100
AcDbLine
 10
-73.53498852024504
 20
38.82056559278458
 30
0.0
 11
-73.75002247815841
 21
39.16332907045555
 31
0.0
  0
LINE
  5
B7
330
1F
100
AcDbEntity
  8
0
100
AcDbLine
 10
-73.75002247815841
 20
39.16332907045555
 30
0.0
 11
-73.86901561564937
 21
39.55006804949841
 31
0.0
  0
LINE
  5
B8
330
1F
100
AcDbEntity
  8
0
100
AcDbLine
 10
-73.86901561564937
 20
39.55006804949841
 30
0.0
 11
-73.88385874704313
 21
39.95442690760769
 31
0.0
  0
LINE
  5
B9
330
1F
100
AcDbEntity
  8
0
100
AcDbLine
 10
-73.88385874704313
 20
39.95442690760769
 30
0.0
 11
-73.79354033746483
 21
40.34884925683792
 31
0.0
  0
LINE
  5
BA
330
1F
100
AcDbEntity
  8
0
100
AcDbLine
 10
-73.79354033746483
 20
40.34884925683792
 30
0.0
 11
-73.60421543726899
 21
40.70645586590271
 31
0.0
  0
LINE
  5
BB
330
1F
100
AcDbEntity
  8
0
100
AcDbLine
 10
-73.60421543726899
 20
40.70645586590271
 30
0.0
 11
-73.32878622552968
 21
41.0028764353673
 31
0.0
  0
LINE
  5
BC
330
1F
100
AcDbEntity
  8
0
100
AcDbLine
 10
-73.32878622552968
 20
41.0028764353673
 30
0.0
 11
-72.98602274785866
 21
41.21791039328066
 31
0.0
  0
LINE
  5
BD
330
1F
100
AcDbEntity
  8
0
100
AcDbLine
 10
-72.98602274785866
 20
41.21791039328066
 30
0.0
 11
-72.59928376881581
 21
41.33690353077159
 31
0.0
  0
LINE
  5
BE
330
1F
100
AcDbEntity
  8
0
100
AcDbLine
 10
-72.59928376881581
 20
41.33690353077159
 30
0.0
 11
-72.19492491070652
 21
41.35174666216539
 31
0.0
  0
LINE
  5
BF
330
1F
100
AcDbEntity
  8
0
100
AcDbLine
 10
-72.19492491070652
 20
41.35174666216539
 30
0.0
 11
-71.80050256147634
 21
41.26142825258708
 31
0.0
  0
LINE
  5
C0
330
1F
100
AcDbEntity
  8
0
100
AcDbLine
 10
-71.80050256147634
 20
41.26142825258708
 30
0.0
 11
-71.4428959524115
 21
41.0721033523912
 31
0.0
  0
LINE
  5
C1
330
1F
100
AcDbEntity
  8
0
100
AcDbLine
 10
-71.4428959524115
 20
41.0721033523912
 30
0.0
 11
-71.14647538294696
 21
40.79667414065189
 31
0.0
  0
LINE
  5
C2
330
1F
100
AcDbEntity
  8
0
100
AcDbLine
 10
-71.14647538294696
 20
40.79667414065189
 30
0.0
 11
-70.93144142503355
 21
40.45391066298087
 31
0.0
  0
LINE
  5
C3
330
1F
100
AcDbEntity
  8
0
100
AcDbLine
 10
-104.4618767924235
 20
40.87891620226544
 30
0.0
 11
-104.146661632819
 21
41.13262037613044
 31
0.0
  0
LINE
  5
C4
330
1F
100
AcDbEntity
  8
0
100
AcDbLine
 10
-104.146661632819
 20
41.13262037613044
 30
0.0
 11
-103.7765236973009
 21
41.29609610329327
 31
0.0
  0
LINE
  5
C5
330
1F
100
AcDbEntity
  8
0
100
AcDbLine
 10
-103.7765236973009
 20
41.29609610329327
 30
0.0
 11
-103.3766872744929
 21
41.35820278310421
 31
0.0
  0
LINE
  5
C6
330
1F
100
AcDbEntity
  8
0
100
AcDbLine
 10
-103.3766872744929
 20
41.35820278310421
 30
0.0
 11
-102.9744005558484
 21
41.31470794797033
 31
0.0
  0
LINE
  5
C7
330
1F
100
AcDbEntity
  8
0
100
AcDbLine
 10
-102.9744005558484
 20
41.31470794797033
 30
0.0
 11
-102.597078716433
 21
41.16857569902729
 31
0.0
  0
LINE
  5
C8
330
1F
100
AcDbEntity
  8
0
100
AcDbLine
 10
-102.597078716433
 20
41.16857569902729
 30
0.0
 11
-102.2704356160488
 21
40.92976470754571
 31
0.0
  0
LINE
  5
C9
330
1F
100
AcDbEntity
  8
0
100
AcDbLine
 10
-102.2704356160488
 20
40.92976470754571
 30
0.0
 11
-102.0167314421838
 21
40.61454954794117
 31
0.0
  0
LINE
  5
CA
330
1F
100
AcDbEntity
  8
0
100
AcDbLine
 10
-102.0167314421838
 20
40.61454954794117
 30
0.0
 11
-101.8532557150209
 21
40.24441161242308
 31
0.0
  0
LINE
  5
CB
330
1F
100
AcDbEntity
  8
0
100
AcDbLine
 10
-101.8532557150209
 20
40.24441161242308
 30
0.0
 11
-101.79114903521
 21
39.84457518961509
 31
0.0
  0
LINE
  5
CC
330
1F
100
AcDbEntity
  8
0
100
AcDbLine
 10
-101.79114903521
 20
39.84457518961509
 30
0.0
 11
-101.8346438703439
 21
39.44228847097067
 31
0.0
  0
LINE
  5
CD
330
1F
100
AcDbEntity
  8
0
100
AcDbLine
 10
-101.8346438703439
 20
39.44228847097067
 30
0.0
 11
-101.980776119287
 21
39.06496663155516
 31
0.0
  0
LINE
  5
CE
330
1F
100
AcDbEntity
  8
0
100
AcDbLine
 10
-101.980776119287
 20
39.06496663155516
 30
0.0
 11
-102.2195871107685
 21
38.73832353117098
 31
0.0
  0
LINE
  5
CF
330
1F
100
AcDbEntity
  8
0
100
AcDbLine
 10
-102.2195871107685
 20
38.73832353117098
 30
0.0
 11
-102.534802270373
 21
38.48461935730598
 31
0.0
  0
LINE
  5
D0
330
1F
100
AcDbEntity
  8
0
100
AcDbLine
 10
-102.534802270373
 20
38.48461935730598
 30
0.0
 11
-102.9049402058912
 21
38.32114363014315
 31
0.0
  0
LINE
  5
D1
330
1F
100
AcDbEntity
  8
0
100
AcDbLine
 10
-102.9049402058912
 20
38.32114363014315
 30
0.0
 11
-103.3047766286991
 21
38.25903695033217
 31
0.0
  0
LINE
  5
D2
330
1F
100
AcDbEntity
  8
0
100
AcDbLine
 10
-103.3047766286991
 20
38.25903695033217
 30
0.0
 11
-103.7070633473436
 21
38.3025317854661
 31
0.0
  0
LINE
  5
D3
330
1F
100
AcDbEntity
  8
0
100
AcDbLine
 10
-103.7070633473436
 20
38.3025317854661
 30
0.0
 11
-104.0843851867591
 21
38.44866403440908
 31
0.0
  0
LINE
  5
D4
330
1F
100
AcDbEntity
  8
0
100
AcDbLine
 10
-104.0843851867591
 20
38.44866403440908
 30
0.0
 11
-104.4110282871433
 21
38.68747502589067
 31
0.0
  0
LINE
  5
D5
330
1F
100
AcDbEntity
  8
0
100
AcDbLine
 10
-104.4110282871433
 20
38.68747502589067
 30
0.0
 11
-104.6647324610083
 21
39.0026901854952
 31
0.0
  0
LINE
  5
D6
330
1F
100
AcDbEntity
  8
0
100
AcDbLine
 10
-104.6647324610083
 20
39.0026901854952
 30
0.0
 11
-104.828208188171
 21
39.37282812101335
 31
0.0
  0
LINE
  5
D7
330
1F
100
AcDbEntity
  8
0
100
AcDbLine
 10
-104.828208188171
 20
39.37282812101335
 30
0.0
 11
-104.890314867982
 21
39.77266454382134
 31
0.0
  0
LINE
  5
D8
330
1F
100
AcDbEntity
  8
0
100
AcDbLine
 10
-104.890314867982
 20
39.77266454382134
 30
0.0
 11
-104.8468200328481
 21
40.17495126246575
 31
0.0
  0
LINE
  5
D9
330
1F
100
AcDbEntity
  8
0
100
AcDbLine
 10
-104.8468200328481
 20
40.17495126246575
 30
0.0
 11
-104.7006877839052
 21
40.55227310188122
 31
0.0
  0
LINE
  5
DA
330
1F
100
AcDbEntity
  8
0
100
AcDbLine
 10
-104.7006877839052
 20
40.55227310188122
 30
0.0
 11
-104.4618767924235
 21
40.87891620226544
 31
0.0
  0
LINE
  5
DB
330
1F
100
AcDbEntity
  8
0
100
AcDbLine
 10
-103.2002206369013
 20
7.265001853593612
 30
0.0
 11
-103.6045261840065
 21
7.28123235762078
 31
0.0
  0
LINE
  5
DC
330
1F
100
AcDbEntity
  8
0
100
AcDbLine
 10
-103.6045261840065
 20
7.28123235762078
 30
0.0
 11
-103.9908545901136
 21
7.401551796265729
 31
0.0
  0
LINE
  5
DD
330
1F
100
AcDbEntity
  8
0
100
AcDbLine
 10
-103.9908545901136
 20
7.401551796265729
 30
0.0
 11
-104.3328782127841
 21
7.617760598622085
 31
0.0
  0
LINE
  5
DE
330
1F
100
AcDbEntity
  8
0
100
AcDbLine
 10
-104.3328782127841
 20
7.617760598622085
 30
0.0
 11
-104.6072887073538
 21
7.915124492111204
 31
0.0
  0
LINE
  5
DF
330
1F
100
AcDbEntity
  8
0
100
AcDbLine
 10
-104.6072887073538
 20
7.915124492111204
 30
0.0
 11
-104.7953854521027
 21
8.273378618808882
 31
0.0
  0
LINE
  5
E0
330
1F
100
AcDbEntity
  8
0
100
AcDbLine
 10
-104.7953854521027
 20
8.273378618808882
 30
0.0
 11
-104.8843499647206
 21
8.66810855202359
 31
0.0
  0
LINE
  5
E1
330
1F
100
AcDbEntity
  8
0
100
AcDbLine
 10
-104.8843499647206
 20
8.66810855202359
 30
0.0
 11
-104.8681194606935
 21
9.072414099128796
 31
0.0
  0
LINE
  5
E2
330
1F
100
AcDbEntity
  8
0
100
AcDbLine
 10
-104.8681194606935
 20
9.072414099128796
 30
0.0
 11
-104.7478000220485
 21
9.458742505235815
 31
0.0
  0
LINE
  5
E3
330
1F
100
AcDbEntity
  8
0
100
AcDbLine
 10
-104.7478000220485
 20
9.458742505235815
 30
0.0
 11
-104.5315912196921
 21
9.800766127906325
 31
0.0
  0
LINE
  5
E4
330
1F
100
AcDbEntity
  8
0
100
AcDbLine
 10
-104.5315912196921
 20
9.800766127906325
 30
0.0
 11
-104.2342273262031
 21
10.07517662247608
 31
0.0
  0
LINE
  5
E5
330
1F
100
AcDbEntity
  8
0
100
AcDbLine
 10
-104.2342273262031
 20
10.07517662247608
 30
0.0
 11
-103.8759731995054
 21
10.26327336722496
 31
0.0
  0
LINE
  5
E6
330
1F
100
AcDbEntity
  8
0
100
AcDbLine
 10
-103.8759731995054
 20
10.26327336722496
 30
0.0
 11
-103.4812432662907
 21
10.35223787984283
 31
0.0
  0
LINE
  5
E7
330
1F
100
AcDbEntity
  8
0
100
AcDbLine
 10
-103.4812432662907
 20
10.35223787984283
 30
0.0
 11
-103.0769377191855
 21
10.33600737581569
 31
0.0
  0
LINE
  5
E8
330
1F
100
AcDbEntity
  8
0
100
AcDbLine
 10
-103.0769377191855
 20
10.33600737581569
 30
0.0
 11
-102.6906093130784
 21
10.21568793717074
 31
0.0
  0
LINE
  5
E9
330
1F
100
AcDbEntity
  8
0
100
AcDbLine
 10
-102.6906093130784
 20
10.21568793717074
 30
0.0
 11
-102.3485856904079
 21
9.999479134814383
 31
0.0
  0
LINE
  5
EA
330
1F
100
AcDbEntity
  8
0
100
AcDbLine
 10
-102.3485856904079
 20
9.999479134814383
 30
0.0
 11
-102.0741751958382
 21
9.702115241325263
 31
0.0
  0
LINE
  5
EB
330
1F
100
AcDbEntity
  8
0
100
AcDbLine
 10
-102.0741751958382
 20
9.702115241325263
 30
0.0
 11
-101.8860784510893
 21
9.343861114627607
 31
0.0
  0
LINE
  5
EC
330
1F
100
AcDbEntity
  8
0
100
AcDbLine
 10
-101.8860784510893
 20
9.343861114627607
 30
0.0
 11
-101.7971139384714
 21
8.9491311814129
 31
0.0
  0
LINE
  5
ED
330
1F
100
AcDbEntity
  8
0
100
AcDbLine
 10
-101.7971139384714
 20
8.9491311814129
 30
0.0
 11
-101.8133444424986
 21
8.544825634307673
 31
0.0
  0
LINE
  5
EE
330
1F
100
AcDbEntity
  8
0
100
AcDbLine
 10
-101.8133444424986
 20
8.544825634307673
 30
0.0
 11
-101.9336638811435
 21
8.158497228200654
 31
0.0
  0
LINE
  5
EF
330
1F
100
AcDbEntity
  8
0
100
AcDbLine
 10
-101.9336638811435
 20
8.158497228200654
 30
0.0
 11
-102.1498726834998
 21
7.816473605530165
 31
0.0
  0
LINE
  5
F0
330
1F
100
AcDbEntity
  8
0
100
AcDbLine
 10
-102.1498726834998
 20
7.816473605530165
 30
0.0
 11
-102.447236576989
 21
7.542063110960385
 31
0.0
  0
LINE
  5
F1
330
1F
100
AcDbEntity
  8
0
100
AcDbLine
 10
-102.447236576989
 20
7.542063110960385
 30
0.0
 11
-102.8054907036866
 21
7.353966366211534
 31
0.0
  0
LINE
  5
F2
330
1F
100
AcDbEntity
  8
0
100
AcDbLine
 10
-102.8054907036866
 20
7.353966366211534
 30
0.0
 11
-103.2002206369013
 21
7.265001853593612
 31
0.0
  0
LINE
  5
F3
330
1F
100
AcDbEntity
  8
0
100
AcDbLine
 10
-98.09459732808918
 20
-41.48640593009345
 30
0.0
 11
-97.77358181725008
 21
-41.73272979512019
 31
0.0
  0
LINE
  5
F4
330
1F
100
AcDbEntity
  8
0
100
AcDbLine
 10
-97.77358181725008
 20
-41.73272979512019
 30
0.0
 11
-97.52725795222332
 21
-42.05374530595934
 31
0.0
  0
LINE
  5
F5
330
1F
100
AcDbEntity
  8
0
100
AcDbLine
 10
-97.52725795222332
 20
-42.05374530595934
 30
0.0
 11
-97.37241229734114
 21
-42.42757578605042
 31
0.0
  0
LINE
  5
F6
330
1F
100
AcDbEntity
  8
0
100
AcDbLine
 10
-97.37241229734114
 20
-42.42757578605042
 30
0.0
 11
-97.31959732808922
 21
-42.82874530595932
 31
0.0
  0
LINE
  5
F7
330
1F
100
AcDbEntity
  8
0
100
AcDbLine
 10
-97.31959732808922
 20
-42.82874530595932
 30
0.0
 11
-97.37241229734114
 21
-43.22991482586823
 31
0.0
  0
LINE
  5
F8
330
1F
100
AcDbEntity
  8
0
100
AcDbLine
 10
-97.37241229734114
 20
-43.22991482586823
 30
0.0
 11
-97.52725795222332
 21
-43.60374530595931
 31
0.0
  0
LINE
  5
F9
330
1F
100
AcDbEntity
  8
0
100
AcDbLine
 10
-97.52725795222332
 20
-43.60374530595931
 30
0.0
 11
-97.77358181725008
 21
-43.92476081679846
 31
0.0
  0
LINE
  5
FA
330
1F
100
AcDbEntity
  8
0
100
AcDbLine
 10
-97.77358181725008
 20
-43.92476081679846
 30
0.0
 11
-98.09459732808926
 21
-44.17108468182518
 31
0.0
  0
LINE
  5
FB
330
1F
100
AcDbEntity
  8
0
100
AcDbLine
 10
-98.09459732808926
 20
-44.17108468182518
 30
0.0
 11
-98.46842780818031
 21
-44.32593033670734
 31
0.0
  0
LINE
  5
FC
330
1F
100
AcDbEntity
  8
0
100
AcDbLine
 10
-98.46842780818031
 20
-44.32593033670734
 30
0.0
 11
-98.86959732808923
 21
-44.37874530595928
 31
0.0
  0
LINE
  5
FD
330
1F
100
AcDbEntity
  8
0
100
AcDbLine
 10
-98.86959732808923
 20
-44.37874530595928
 30
0.0
 11
-99.27076684799812
 21
-44.32593033670734
 31
0.0
  0
LINE
  5
FE
330
1F
100
AcDbEntity
  8
0
100
AcDbLine
 10
-99.27076684799812
 20
-44.32593033670734
 30
0.0
 11
-99.64459732808919
 21
-44.17108468182516
 31
0.0
  0
LINE
  5
FF
330
1F
100
AcDbEntity
  8
0
100
AcDbLine
 10
-99.64459732808919
 20
-44.17108468182516
 30
0.0
 11
-99.9656128389284
 21
-43.92476081679844
 31
0.0
  0
LINE
  5
100
330
1F
100
AcDbEntity
  8
0
100
AcDbLine
 10
-99.9656128389284
 20
-43.92476081679844
 30
0.0
 11
-100.211936703955
 21
-43.60374530595929
 31
0.0
  0
LINE
  5
101
330
1F
100
AcDbEntity
  8
0
100
AcDbLine
 10
-100.211936703955
 20
-43.60374530595929
 30
0.0
 11
-100.3667823588372
 21
-43.22991482586819
 31
0.0
  0
LINE
  5
102
330
1F
100
AcDbEntity
  8
0
100
AcDbLine
 10
-100.3667823588372
 20
-43.22991482586819
 30
0.0
 11
-100.4195973280892
 21
-42.8287453059593
 31
0.0
  0
LINE
  5
103
330
1F
100
AcDbEntity
  8
0
100
AcDbLine
 10
-100.4195973280892
 20
-42.8287453059593
 30
0.0
 11
-100.3667823588372
 21
-42.4275757860504
 31
0.0
  0
LINE
  5
104
330
1F
100
AcDbEntity
  8
0
100
AcDbLine
 10
-100.3667823588372
 20
-42.4275757860504
 30
0.0
 11
-100.211936703955
 21
-42.0537453059593
 31
0.0
  0
LINE
  5
105
330
1F
100
AcDbEntity
  8
0
100
AcDbLine
 10
-100.211936703955
 20
-42.0537453059593
 30
0.0
 11
-99.96561283892834
 21
-41.73272979512016
 31
0.0
  0
LINE
  5
106
330
1F
100
AcDbEntity
  8
0
100
AcDbLine
 10
-100.3667823588372
 20
51.77008517413223
 30
0.0
 11
-100.4195973280891
 21
52.17125469404111
 31
0.0
  0
LINE
  5
107
330
1F
100
AcDbEntity
  8
0
100
AcDbLine
 10
-100.4195973280891
 20
52.17125469404111
 30
0.0
 11
-100.3667823588371
 21
52.57242421394999
 31
0.0
  0
LINE
  5
108
330
1F
100
AcDbEntity
  8
0
100
AcDbLine
 10
-100.3667823588371
 20
52.57242421394999
 30
0.0
 11
-100.211936703955
 21
52.94625469404107
 31
0.0
  0
LINE
  5
109
330
1F
100
AcDbEntity
  8
0
100
AcDbLine
 10
-100.211936703955
 20
52.94625469404107
 30
0.0
 11
-99.96561283892825
 21
53.26727020488018
 31
0.0
  0
LINE
  5
10A
330
1F
100
AcDbEntity
  8
0
100
AcDbLine
 10
-99.96561283892825
 20
53.26727020488018
 30
0.0
 11
-99.6445973280891
 21
53.51359406990688
 31
0.0
  0
LINE
  5
10B
330
1F
100
AcDbEntity
  8
0
100
AcDbLine
 10
-99.6445973280891
 20
53.51359406990688
 30
0.0
 11
-99.27076684799802
 21
53.66843972478906
 31
0.0
  0
LINE
  5
10C
330
1F
100
AcDbEntity
  8
0
100
AcDbLine
 10
-99.27076684799802
 20
53.66843972478906
 30
0.0
 11
-98.86959732808918
 21
53.72125469404099
 31
0.0
  0
LINE
  5
10D
330
1F
100
AcDbEntity
  8
0
100
AcDbLine
 10
-98.86959732808918
 20
53.72125469404099
 30
0.0
 11
-98.46842780818031
 21
53.66843972478902
 31
0.0
  0
LINE
  5
10E
330
1F
100
AcDbEntity
  8
0
100
AcDbLine
 10
-98.46842780818031
 20
53.66843972478902
 30
0.0
 11
-98.09459732808918
 21
53.51359406990683
 31
0.0
  0
LINE
  5
10F
330
1F
100
AcDbEntity
  8
0
100
AcDbLine
 10
-98.09459732808918
 20
53.51359406990683
 30
0.0
 11
-97.77358181725012
 21
53.26727020488013
 31
0.0
  0
LINE
  5
110
330
1F
100
AcDbEntity
  8
0
100
AcDbLine
 10
-97.77358181725012
 20
53.26727020488013
 30
0.0
 11
-97.52725795222338
 21
52.94625469404098
 31
0.0
  0
LINE
  5
111
330
1F
100
AcDbEntity
  8
0
100
AcDbLine
 10
-97.52725795222338
 20
52.94625469404098
 30
0.0
 11
-97.37241229734119
 21
52.5724242139499
 31
0.0
  0
LINE
  5
112
330
1F
100
AcDbEntity
  8
0
100
AcDbLine
 10
-97.37241229734119
 20
52.5724242139499
 30
0.0
 11
-97.31959732808927
 21
52.17125469404102
 31
0.0
  0
LINE
  5
113
330
1F
100
AcDbEntity
  8
0
100
AcDbLine
 10
-97.31959732808927
 20
52.17125469404102
 30
0.0
 11
-97.37241229734123
 21
51.77008517413214
 31
0.0
  0
LINE
  5
114
330
1F
100
AcDbEntity
  8
0
100
AcDbLine
 10
-97.37241229734123
 20
51.77008517413214
 30
0.0
 11
-97.52725795222338
 21
51.39625469404106
 31
0.0
  0
LINE
  5
115
330
1F
100
AcDbEntity
  8
0
100
AcDbLine
 10
-97.52725795222338
 20
51.39625469404106
 30
0.0
 11
-97.7735818172502
 21
51.07523918320194
 31
0.0
  0
LINE
  5
116
330
1F
100
AcDbEntity
  8
0
100
AcDbLine
 10
-97.7735818172502
 20
51.07523918320194
 30
0.0
 11
-98.09459732808926
 21
50.82891531817524
 31
0.0
  0
LINE
  5
117
330
1F
100
AcDbEntity
  8
0
100
AcDbLine
 10
-98.09459732808926
 20
50.82891531817524
 30
0.0
 11
-98.46842780818035
 21
50.6740696632931
 31
0.0
  0
LINE
  5
118
330
1F
100
AcDbEntity
  8
0
100
AcDbLine
 10
-98.46842780818035
 20
50.6740696632931
 30
0.0
 11
-98.86959732808927
 21
50.62125469404116
 31
0.0
  0
LINE
  5
119
330
1F
100
AcDbEntity
  8
0
100
AcDbLine
 10
-98.86959732808927
 20
50.62125469404116
 30
0.0
 11
-99.27076684799812
 21
50.6740696632931
 31
0.0
  0
LINE
  5
11A
330
1F
100
AcDbEntity
  8
0
100
AcDbLine
 10
-99.27076684799812
 20
50.6740696632931
 30
0.0
 11
-99.64459732808919
 21
50.82891531817529
 31
0.0
  0
LINE
  5
11B
330
1F
100
AcDbEntity
  8
0
100
AcDbLine
 10
-99.64459732808919
 20
50.82891531817529
 30
0.0
 11
-99.9656128389283
 21
51.07523918320203
 31
0.0
  0
LINE
  5
11C
330
1F
100
AcDbEntity
  8
0
100
AcDbLine
 10
-99.9656128389283
 20
51.07523918320203
 30
0.0
 11
-100.211936703955
 21
51.39625469404115
 31
0.0
  0
LINE
  5
11D
330
1F
100
AcDbEntity
  8
0
100
AcDbLine
 10
-100.211936703955
 20
51.39625469404115
 30
0.0
 11
-100.3667823588372
 21
51.77008517413223
 31
0.0
  0
LINE
  5
11E
330
1F
100
AcDbEntity
  8
0
100
AcDbLine
 10
-77.64459732808936
 20
53.5135940699071
 30
0.0
 11
-77.27076684799825
 21
53.66843972478929
 31
0.0
  0
LINE
  5
11F
330
1F
100
AcDbEntity
  8
0
100
AcDbLine
 10
-77.27076684799825
 20
53.66843972478929
 30
0.0
 11
-76.86959732808936
 21
53.72125469404126
 31
0.0
  0
LINE
  5
120
330
1F
100
AcDbEntity
  8
0
100
AcDbLine
 10
-76.86959732808936
 20
53.72125469404126
 30
0.0
 11
-76.46842780818044
 21
53.66843972478933
 31
0.0
  0
LINE
  5
121
330
1F
100
AcDbEntity
  8
0
100
AcDbLine
 10
-76.46842780818044
 20
53.66843972478933
 30
0.0
 11
-76.09459732808926
 21
53.51359406990715
 31
0.0
  0
LINE
  5
122
330
1F
100
AcDbEntity
  8
0
100
AcDbLine
 10
-76.09459732808926
 20
53.51359406990715
 30
0.0
 11
-75.77358181725016
 21
53.26727020488045
 31
0.0
  0
LINE
  5
123
330
1F
100
AcDbEntity
  8
0
100
AcDbLine
 10
-75.77358181725016
 20
53.26727020488045
 30
0.0
 11
-75.52725795222341
 21
52.94625469404129
 31
0.0
  0
LINE
  5
124
330
1F
100
AcDbEntity
  8
0
100
AcDbLine
 10
-75.52725795222341
 20
52.94625469404129
 30
0.0
 11
-75.37241229734123
 21
52.57242421395022
 31
0.0
  0
LINE
  5
125
330
1F
100
AcDbEntity
  8
0
100
AcDbLine
 10
-75.37241229734123
 20
52.57242421395022
 30
0.0
 11
-75.31959732808926
 21
52.17125469404129
 31
0.0
  0
LINE
  5
126
330
1F
100
AcDbEntity
  8
0
100
AcDbLine
 10
-75.31959732808926
 20
52.17125469404129
 30
0.0
 11
-75.37241229734119
 21
51.77008517413241
 31
0.0
  0
LINE
  5
127
330
1F
100
AcDbEntity
  8
0
100
AcDbLine
 10
-75.37241229734119
 20
51.77008517413241
 30
0.0
 11
-75.52725795222332
 21
51.39625469404129
 31
0.0
  0
LINE
  5
128
330
1F
100
AcDbEntity
  8
0
100
AcDbLine
 10
-75.52725795222332
 20
51.39625469404129
 30
0.0
 11
-75.77358181725006
 21
51.07523918320212
 31
0.0
  0
LINE
  5
129
330
1F
100
AcDbEntity
  8
0
100
AcDbLine
 10
-75.77358181725006
 20
51.07523918320212
 30
0.0
 11
-76.09459732808922
 21
50.82891531817538
 31
0.0
  0
LINE
  5
12A
330
1F
100
AcDbEntity
  8
0
100
AcDbLine
 10
-77.64459732808928
 20
-41.48640593009313
 30
0.0
 11
-77.27076684799815
 21
-41.33156027521095
 31
0.0
  0
LINE
  5
12B
330
1F
100
AcDbEntity
  8
0
100
AcDbLine
 10
-77.27076684799815
 20
-41.33156027521095
 30
0.0
 11
-76.86959732808927
 21
-41.278745305959
 31
0.0
  0
LINE
  5
12C
330
1F
100
AcDbEntity
  8
0
100
AcDbLine
 10
-76.86959732808927
 20
-41.278745305959
 30
0.0
 11
-76.46842780818034
 21
-41.33156027521092
 31
0.0
  0
LINE
  5
12D
330
1F
100
AcDbEntity
  8
0
100
AcDbLine
 10
-75.52725795222332
 20
-42.05374530595898
 30
0.0
 11
-75.37241229734114
 21
-42.42757578605008
 31
0.0
  0
LINE
  5
12E
330
1F
100
AcDbEntity
  8
0
100
AcDbLine
 10
-75.37241229734114
 20
-42.42757578605008
 30
0.0
 11
-75.31959732808917
 21
-42.82874530595901
 31
0.0
  0
LINE
  5
12F
330
1F
100
AcDbEntity
  8
0
100
AcDbLine
 10
-75.31959732808917
 20
-42.82874530595901
 30
0.0
 11
-75.37241229734104
 21
-43.22991482586792
 31
0.0
  0
LINE
  5
130
330
1F
100
AcDbEntity
  8
0
100
AcDbLine
 10
-75.37241229734104
 20
-43.22991482586792
 30
0.0
 11
-75.52725795222328
 21
-43.60374530595904
 31
0.0
  0
LINE
  5
131
330
1F
100
AcDbEntity
  8
0
100
AcDbLine
 10
-75.52725795222328
 20
-43.60374530595904
 30
0.0
 11
-75.77358181725002
 21
-43.92476081679819
 31
0.0
  0
LINE
  5
132
330
1F
100
AcDbEntity
  8
0
100
AcDbLine
 10
-75.77358181725002
 20
-43.92476081679819
 30
0.0
 11
-76.09459732808918
 21
-44.17108468182493
 31
0.0
  0
LINE
  5
133
330
1F
100
AcDbEntity
  8
0
100
AcDbLine
 10
-76.09459732808918
 20
-44.17108468182493
 30
0.0
 11
-76.4684278081803
 21
-44.32593033670712
 31
0.0
  0
LINE
  5
134
330
1F
100
AcDbEntity
  8
0
100
AcDbLine
 10
-76.4684278081803
 20
-44.32593033670712
 30
0.0
 11
-76.86959732808918
 21
-44.37874530595909
 31
0.0
  0
LINE
  5
135
330
1F
100
AcDbEntity
  8
0
100
AcDbLine
 10
94.13849509065369
 20
65.06477832762812
 30
0.0
 11
94.13849509065369
 21
-65.06477832762812
 31
0.0
  0
LINE
  5
136
330
1F
100
AcDbEntity
  8
0
100
AcDbLine
 10
96.13849509065369
 20
-65.06477832762812
 30
0.0
 11
96.13849509065368
 21
65.06477832762812
 31
0.0
  0
ENDSEC
  0
SECTION
  2
OBJECTS
  0
DICTIONARY
  5
C
330
0
100
AcDbDictionary
  3
ACAD_GROUP
350
D
  3
ACAD_LAYOUT
350
1A
  3
ACAD_MATERIAL
350
3B
  3
ACAD_MLEADERSTYLE
350
159
  3
ACAD_MLINESTYLE
350
17
  3
ACAD_PLOTSETTINGS
350
19
  3
ACAD_VISUALSTYLE
350
2A
  3
ACDBHEADERROUNDTRIPXREC
350
137
  3
ACDBVARIABLEDICTIONARY
350
157
  0
DICTIONARY
  5
D
102
{ACAD_REACTORS
330
C
102
}
330
C
100
AcDbDictionary
  0
DICTIONARY
  5
1A
102
{ACAD_REACTORS
330
C
102
}
330
C
100
AcDbDictionary
  0
DICTIONARY
  5
3B
102
{ACAD_REACTORS
330
C
102
}
330
C
100
AcDbDictionary
  3
BYBLOCK
350
3D
  3
BYLAYER
350
3C
  3
GLOBAL
350
3E
  0
DICTIONARY
  5
159
102
{ACAD_REACTORS
330
C
102
}
330
C
100
AcDbDictionary
  0
DICTIONARY
  5
17
102
{ACAD_REACTORS
330
C
102
}
330
C
100
AcDbDictionary
  3
STANDARD
350
18
  0
DICTIONARY
  5
19
102
{ACAD_REACTORS
330
C
102
}
330
C
100
AcDbDictionary
  0
DICTIONARY
  5
2A
102
{ACAD_REACTORS
330
C
102
}
330
C
100
AcDbDictionary
  3
2DWIREFRAME
350
2F
  3
3D_HIDDEN
350
31
  3
3DWIREFRAME
350
30
  3
BASIC
350
32
  3
BRIGHTEN
350
36
  3
COLORCHANGE
350
3A
  3
CONCEPTUAL
350
34
  3
DIM
350
35
  3
FACEPATTERN
350
39
  3
FLAT
350
2B
  3
FLATWITHEDGES
350
2C
  3
GOURAUD
350
2D
  3
GOURAUDWITHEDGES
350
2E
  3
LINEPATTERN
350
38
  3
REALISTIC
350
33
  3
THICKEN
350
37
  0
DICTIONARY
  5
137
102
{ACAD_REACTORS
330
C
102
}
330
C
100
AcDbDictionary
  3
CEPSNTYPE
350
140
  3
DIMSTYLEDATA
350
156
  3
FINGERPRINTGUID
350
141
  3
HYPERLINKBASE
350
13A
  3
INSUNITS
350
13F
  3
LAYOUTDICT
350
13C
  3
LWETCUNION
350
13E
  3
PLOTSETDICT
350
13D
  3
PSVPSCALE
350
143
  3
PUCSBASE
350
146
  3
PUCSORGBACK
350
14C
  3
PUCSORGBOTTOM
350
148
  3
PUCSORGFRONT
350
14B
  3
PUCSORGLEFT
350
149
  3
PUCSORGRIGHT
350
14A
  3
PUCSORGTOP
350
147
  3
PUCSORTHOREF
350
144
  3
PUCSORTHOVIEW
350
145
  3
STYLESHEET
350
13B
  3
TSTACKALIGN
350
138
  3
TSTACKSIZE
350
139
  3
UCSBASE
350
14F
  3
UCSORGBACK
350
155
  3
UCSORGBOTTOM
350
151
  3
UCSORGFRONT
350
154
  3
UCSORGLEFT
350
152
  3
UCSORGRIGHT
350
153
  3
UCSORGTOP
350
150
  3
UCSORTHOREF
350
14D
  3
UCSORTHOVIEW
350
14E
  3
VERSIONGUID
350
142
  0
DICTIONARY
  5
157
102
{ACAD_REACTORS
330
C
102
}
330
C
100
AcDbDictionary
  3
DIMASSOC
350
15A
  3
HIDETEXT
350
15B
  0
MATERIAL
  5
3D
102
{ACAD_REACTORS
330
3B
102
}
102
{ACAD_XDICTIONARY
360
15E
102
}
330
3B
100
AcDbMaterial
  1
ByBlock
  0
MATERIAL
  5
3C
102
{ACAD_REACTORS
330
3B
102
}
102
{ACAD_XDICTIONARY
360
15C
102
}
330
3B
100
AcDbMaterial
  1
ByLayer
  0
MATERIAL
  5
3E
102
{ACAD_REACTORS
330
3B
102
}
102
{ACAD_XDICTIONARY
360
160
102
}
330
3B
100
AcDbMaterial
  1
Global
  0
MLINESTYLE
  5
18
102
{ACAD_REACTORS
330
17
102
}
330
17
100
AcDbMlineStyle
  2
Standard
 70
     0
  3

 62
   256
 51
90.0
 52
90.0
 71
     2
 49
0.5
 62
   256
  6
BYLAYER
 49
-0.5
 62
   256
  6
BYLAYER
  0
ACAD_PROXY_OBJECT
  5
2F
102
{ACAD_REACTORS
330
2A
102
}
330
2A
100
AcDbProxyObject
 90
      499
 91
      501
 93
      436
310
42CC9915DA5C99599C985B595049028333333333333E3BF0000000000000FB0107901411070040501600405405064090741402480A0340
1001
ACAD
1000
AcDbSavedByObjectVersion
1070
     0
  0
ACAD_PROXY_OBJECT
  5
31
102
{ACAD_REACTORS
330
2A
102
}
330
2A
100
AcDbProxyObject
 90
      499
 91
      501
 93
      500
310
424CD108121A5919195B90640502408333333333333E3BF0000000000000FB01079024090700405020000000000001110200405405064090740C02480A0340
1001
ACAD
1000
AcDbSavedByObjectVersion
1070
     0
  0
ACAD_PROXY_OBJECT
  5
30
102
{ACAD_REACTORS
330
2A
102
}
330
2A
100
AcDbProxyObject
 90
      499
 91
      501
 93
      436
310
42CCD915DA5C99599C985B595059028333333333333E3BF0000000000000FB0107901411070040501600405405064090741402480A0340
1001
ACAD
1000
AcDbSavedByObjectVersion
1070
     0
  0
ACAD_PROXY_OBJECT
  5
32
102
{ACAD_REACTORS
330
2A
102
}
330
2A
100
AcDbProxyObject
 90
      499
 91
      501
 93
      388
310
4150985CDA58D07406404333333333333E3BF0000000000000FB0107A41107004050150841D405064090741402480A0350
1001
ACAD
1000
AcDbSavedByObjectVersion
1070
     0
  0
ACAD_PROXY_OBJECT
  5
36
102
{ACAD_REACTORS
330
2A
102
}
330
2A
100
AcDbProxyObject
 90
      499
 91
      501
 93
      428
310
42109C9A59DA1D195B90C409028333333333333E3BF0000000000000FB010790141107004050150841D405064090741402480A029950
1001
ACAD
1000
AcDbSavedByObjectVersion
1070
     0
  0
ACAD_PROXY_OBJECT
  5
3A
102
{ACAD_REACTORS
330
2A
102
}
330
2A
100
AcDbProxyObject
 90
      499
 91
      501
 93
      452
310
42D0DBDB1BDC90DA185B99D95104090240C333333333333E3BF0000000000000FB0108901411070040501508421405064090741402480A0350
1001
ACAD
1000
AcDbSavedByObjectVersion
1070
     0
  0
ACAD_PROXY_OBJECT
  5
34
102
{ACAD_REACTORS
330
2A
102
}
330
2A
100
AcDbProxyObject
 90
      499
 91
      501
 93
      500
310
4290DBDB98D95C1D1D585B10940D028333333333333E3BF0000000000000FB0107902409070040501000000000000111010841D405064090740C02480A0340
1001
ACAD
1000
AcDbSavedByObjectVersion
1070
     0
  0
ACAD_PROXY_OBJECT
  5
35
102
{ACAD_REACTORS
330
2A
102
}
330
2A
100
AcDbProxyObject
 90
      499
 91
      501
 93
      412
310
40D11A5B50B409028333333333333E3BF0000000000000FB010790141107004050150841D405064090741402480A02677FFFFFD0
1001
ACAD
1000
AcDbSavedByObjectVersion
1070
     0
  0
ACAD_PROXY_OBJECT
  5
39
102
{ACAD_REACTORS
330
2A
102
}
330
2A
100
AcDbProxyObject
 90
      499
 91
      501
 93
      444
310
42D19858D95C185D1D195C9B90F409028333333333333E3BF0000000000000FB010790141107004050150841D405064090741402480A0350
1001
ACAD
1000
AcDbSavedByObjectVersion
1070
     0
  0
ACAD_PROXY_OBJECT
  5
2B
102
{ACAD_REACTORS
330
2A
102
}
330
2A
100
AcDbProxyObject
 90
      499
 91
      501
 93
      388
310
41119B185D240901404333333333333E3BF0000000000000F9010740A41107004050150841D405064090741402480A1B50
1001
ACAD
1000
AcDbSavedByObjectVersion
1070
     0
  0
ACAD_PROXY_OBJECT
  5
2C
102
{ACAD_REACTORS
330
2A
102
}
330
2A
100
AcDbProxyObject
 90
      499
 91
      501
 93
      476
310
43519B185D15DA5D1A115919D95CD0140901404333333333333E3BF0000000000000F9010740901411070040501600405405064090741402480A1B50
1001
ACAD
1000
AcDbSavedByObjectVersion
1070
     0
  0
ACAD_PROXY_OBJECT
  5
2D
102
{ACAD_REACTORS
330
2A
102
}
330
2A
100
AcDbProxyObject
 90
      499
 91
      501
 93
      412
310
41D1DBDD5C985D5910240902404333333333333E3BF0000000000000F9010740A411070040501641D405064090741402480A1B50
1001
ACAD
1000
AcDbSavedByObjectVersion
1070
     0
  0
ACAD_PROXY_OBJECT
  5
2E
102
{ACAD_REACTORS
330
2A
102
}
330
2A
100
AcDbProxyObject
 90
      499
 91
      501
 93
      500
310
4411DBDD5C985D5915DA5D1A115919D95CD0340902404333333333333E3BF0000000000000F9010740901411070040501600405405064090741402480A1B50
1001
ACAD
1000
AcDbSavedByObjectVersion
1070
     0
  0
ACAD_PROXY_OBJECT
  5
38
102
{ACAD_REACTORS
330
2A
102
}
330
2A
100
AcDbProxyObject
 90
      499
 91
      501
 93
      444
310
42D31A5B995C185D1D195C9B90E409028333333333333E3BF0000000000000FB010790141107004050750841D405064090741402483A0350
1001
ACAD
1000
AcDbSavedByObjectVersion
1070
     0
  0
ACAD_PROXY_OBJECT
  5
33
102
{ACAD_REACTORS
330
2A
102
}
330
2A
100
AcDbProxyObject
 90
      499
 91
      501
 93
      420
310
425499585B1A5CDD1A58D08409028333333333333E3BF0000000000000FB01079019070040501508421405064090741402480A1B40
1001
ACAD
1000
AcDbSavedByObjectVersion
1070
     0
  0
ACAD_PROXY_OBJECT
  5
37
102
{ACAD_REACTORS
330
2A
102
}
330
2A
100
AcDbProxyObject
 90
      499
 91
      501
 93
      412
310
41D51A1A58DAD95B90D409028333333333333E3BF0000000000000FB010790141107004050150C41D405064090741402480A0350
1001
ACAD
1000
AcDbSavedByObjectVersion
1070
     0
  0
XRECORD
  5
140
102
{ACAD_REACTORS
330
137
102
}
330
137
100
AcDbXrecord
 90
        0
  0
XRECORD
  5
156
102
{ACAD_REACTORS
330
137
102
}
330
137
100
AcDbXrecord
1000
DSTYLE
1002
{
1070
   340
340
11
1002
}
  0
XRECORD
  5
141
102
{ACAD_REACTORS
330
137
102
}
330
137
100
AcDbXrecord
  1
{FDCA621E-35BC-4303-808B-7A4A13BFEB3C}
  0
XRECORD
  5
13A
102
{ACAD_REACTORS
330
137
102
}
330
137
100
AcDbXrecord
  1

  0
XRECORD
  5
13F
102
{ACAD_REACTORS
330
137
102
}
330
137
100
AcDbXrecord
 90
        1
  0
XRECORD
  5
13C
102
{ACAD_REACTORS
330
137
102
}
330
137
100
AcDbXrecord
340
1A
  0
XRECORD
  5
13E
102
{ACAD_REACTORS
330
137
102
}
330
137
100
AcDbXrecord
 90
    10781
  0
XRECORD
  5
13D
102
{ACAD_REACTORS
330
137
102
}
330
137
100
AcDbXrecord
340
19
  0
XRECORD
  5
143
102
{ACAD_REACTORS
330
137
102
}
330
137
100
AcDbXrecord
 40
0.0
  0
XRECORD
  5
146
102
{ACAD_REACTORS
330
137
102
}
330
137
100
AcDbXrecord
340
0
  0
XRECORD
  5
14C
102
{ACAD_REACTORS
330
137
102
}
330
137
100
AcDbXrecord
 10
0.0
 20
0.0
 30
0.0
  0
XRECORD
  5
148
102
{ACAD_REACTORS
330
137
102
}
330
137
100
AcDbXrecord
 10
0.0
 20
0.0
 30
0.0
  0
XRECORD
  5
14B
102
{ACAD_REACTORS
330
137
102
}
330
137
100
AcDbXrecord
 10
0.0
 20
0.0
 30
0.0
  0
XRECORD
  5
149
102
{ACAD_REACTORS
330
137
102
}
330
137
100
AcDbXrecord
 10
0.0
 20
0.0
 30
0.0
  0
XRECORD
  5
14A
102
{ACAD_REACTORS
330
137
102
}
330
137
100
AcDbXrecord
 10
0.0
 20
0.0
 30
0.0
  0
XRECORD
  5
147
102
{ACAD_REACTORS
330
137
102
}
330
137
100
AcDbXrecord
 10
0.0
 20
0.0
 30
0.0
  0
XRECORD
  5
144
102
{ACAD_REACTORS
330
137
102
}
330
137
100
AcDbXrecord
340
0
  0
XRECORD
  5
145
102
{ACAD_REACTORS
330
137
102
}
330
137
100
AcDbXrecord
 70
     0
  0
XRECORD
  5
13B
102
{ACAD_REACTORS
330
137
102
}
330
137
100
AcDbXrecord
  1

  0
XRECORD
  5
138
102
{ACAD_REACTORS
330
137
102
}
330
137
100
AcDbXrecord
 90
        1
  0
XRECORD
  5
139
102
{ACAD_REACTORS
330
137
102
}
330
137
100
AcDbXrecord
 90
       70
  0
XRECORD
  5
14F
102
{ACAD_REACTORS
330
137
102
}
330
137
100
AcDbXrecord
340
0
  0
XRECORD
  5
155
102
{ACAD_REACTORS
330
137
102
}
330
137
100
AcDbXrecord
 10
0.0
 20
0.0
 30
0.0
  0
XRECORD
  5
151
102
{ACAD_REACTORS
330
137
102
}
330
137
100
AcDbXrecord
 10
0.0
 20
0.0
 30
0.0
  0
XRECORD
  5
154
102
{ACAD_REACTORS
330
137
102
}
330
137
100
AcDbXrecord
 10
0.0
 20
0.0
 30
0.0
  0
XRECORD
  5
152
102
{ACAD_REACTORS
330
137
102
}
330
137
100
AcDbXrecord
 10
0.0
 20
0.0
 30
0.0
  0
XRECORD
  5
153
102
{ACAD_REACTORS
330
137
102
}
330
137
100
AcDbXrecord
 10
0.0
 20
0.0
 30
0.0
  0
XRECORD
  5
150
102
{ACAD_REACTORS
330
137
102
}
330
137
100
AcDbXrecord
 10
0.0
 20
0.0
 30
0.0
  0
XRECORD
  5
14D
102
{ACAD_REACTORS
330
137
102
}
330
137
100
AcDbXrecord
340
0
  0
XRECORD
  5
14E
102
{ACAD_REACTORS
330
137
102
}
330
137
100
AcDbXrecord
 70
     0
  0
XRECORD
  5
142
102
{ACAD_REACTORS
330
137
102
}
330
137
100
AcDbXrecord
  1
{FAEB1C32-E019-11D5-929B-00C0DF256EC4}
  0
DICTIONARYVAR
  5
15A
102
{ACAD_REACTORS
330
157
102
}
330
157
100
DictionaryVariables
280
     0
  1
2
  0
DICTIONARYVAR
  5
15B
102
{ACAD_REACTORS
330
157
102
}
330
157
100
DictionaryVariables
280
     0
  1
1
  0
DICTIONARY
  5
15E
330
3D
100
AcDbDictionary
280
     1
  3
ACAD_XREC_ROUNDTRIP
360
15F
  0
DICTIONARY
  5
15C
330
3C
100
AcDbDictionary
280
     1
  3
ACAD_XREC_ROUNDTRIP
360
15D
  0
DICTIONARY
  5
160
330
3E
100
AcDbDictionary
280
     1
  3
ACAD_XREC_ROUNDTRIP
360
161
  0
XRECORD
  5
15F
102
{ACAD_REACTORS
330
15E
102
}
330
15E
100
AcDbXrecord
102
MATERIAL
148
0.0
149
0.0
149
0.0
 93
        0
 94
      127
282
     0
 72
     1
 77
     1
171
     1
175
     1
179
     1
273
     0
  0
XRECORD
  5
15D
102
{ACAD_REACTORS
330
15C
102
}
330
15C
100
AcDbXrecord
102
MATERIAL
148
0.0
149
0.0
149
0.0
 93
        0
 94
      127
282
     0
 72
     1
 77
     1
171
     1
175
     1
179
     1
273
     0
  0
XRECORD
  5
161
102
{ACAD_REACTORS
330
160
102
}
330
160
100
AcDbXrecord
102
MATERIAL
148
0.0
149
0.0
149
0.0
 93
        0
 94
      127
282
     0
 72
     1
 77
     1
171
     1
175
     1
179
     1
273
     0
  0
ENDSEC
  0
EOF
