  0
SECTION
  2
HEADER
  9
$ACADVER
  1
AC1014
  9
$ACADMAINTVER
 70
     9
  9
$DWGCODEPAGE
  3
ANSI_1252
  9
$INSBASE
 10
0.0
 20
0.0
 30
0.0
  9
$EXTMIN
 10
1.000000000000000E+20
 20
1.000000000000000E+20
 30
1.000000000000000E+20
  9
$EXTMAX
 10
-1.000000000000000E+20
 20
-1.000000000000000E+20
 30
-1.000000000000000E+20
  9
$LIMMIN
 10
0.0
 20
0.0
  9
$LIMMAX
 10
12.0
 20
9.0
  9
$ORTHOMODE
 70
     0
  9
$REGENMODE
 70
     1
  9
$FILLMODE
 70
     1
  9
$QTEXTMODE
 70
     0
  9
$MIRRTEXT
 70
     1
  9
$DRAGMODE
 70
     2
  9
$LTSCALE
 40
1.0
  9
$OSMODE
 70
    37
  9
$ATTMODE
 70
     1
  9
$TEXTSIZE
 40
0.2
  9
$TRACEWID
 40
0.05
  9
$TEXTSTYLE
  7
STANDARD
  9
$CLAYER
  8
0
  9
$CELTYPE
  6
BYLAYER
  9
$CECOLOR
 62
   256
  9
$CELTSCALE
 40
1.0
  9
$DELOBJ
 70
     1
  9
$DISPSILH
 70
     0
  9
$DIMSCALE
 40
1.0
  9
$DIMASZ
 40
0.18
  9
$DIMEXO
 40
0.0625
  9
$DIMDLI
 40
0.38
  9
$DIMRND
 40
0.0
  9
$DIMDLE
 40
0.0
  9
$DIMEXE
 40
0.18
  9
$DIMTP
 40
0.0
  9
$DIMTM
 40
0.0
  9
$DIMTXT
 40
0.18
  9
$DIMCEN
 40
0.09
  9
$DIMTSZ
 40
0.0
  9
$DIMTOL
 70
     0
  9
$DIMLIM
 70
     0
  9
$DIMTIH
 70
     1
  9
$DIMTOH
 70
     1
  9
$DIMSE1
 70
     0
  9
$DIMSE2
 70
     0
  9
$DIMTAD
 70
     0
  9
$DIMZIN
 70
     0
  9
$DIMBLK
  1

  9
$DIMASO
 70
     1
  9
$DIMSHO
 70
     1
  9
$DIMPOST
  1

  9
$DIMAPOST
  1

  9
$DIMALT
 70
     0
  9
$DIMALTD
 70
     2
  9
$DIMALTF
 40
25.4
  9
$DIMLFAC
 40
1.0
  9
$DIMTOFL
 70
     0
  9
$DIMTVP
 40
0.0
  9
$DIMTIX
 70
     0
  9
$DIMSOXD
 70
     0
  9
$DIMSAH
 70
     0
  9
$DIMBLK1
  1

  9
$DIMBLK2
  1

  9
$DIMSTYLE
  2
STANDARD
  9
$DIMCLRD
 70
     0
  9
$DIMCLRE
 70
     0
  9
$DIMCLRT
 70
     0
  9
$DIMTFAC
 40
1.0
  9
$DIMGAP
 40
0.09
  9
$DIMJUST
 70
     0
  9
$DIMSD1
 70
     0
  9
$DIMSD2
 70
     0
  9
$DIMTOLJ
 70
     1
  9
$DIMTZIN
 70
     0
  9
$DIMALTZ
 70
     0
  9
$DIMALTTZ
 70
     0
  9
$DIMFIT
 70
     3
  9
$DIMUPT
 70
     0
  9
$DIMUNIT
 70
     2
  9
$DIMDEC
 70
     4
  9
$DIMTDEC
 70
     4
  9
$DIMALTU
 70
     2
  9
$DIMALTTD
 70
     2
  9
$DIMTXSTY
  7
STANDARD
  9
$DIMAUNIT
 70
     0
  9
$LUNITS
 70
     2
  9
$LUPREC
 70
     4
  9
$SKETCHINC
 40
0.1
  9
$FILLETRAD
 40
0.5
  9
$AUNITS
 70
     0
  9
$AUPREC
 70
     0
  9
$MENU
  1
.
  9
$ELEVATION
 40
0.0
  9
$PELEVATION
 40
0.0
  9
$THICKNESS
 40
0.0
  9
$LIMCHECK
 70
     0
  9
$CHAMFERA
 40
0.5
  9
$CHAMFERB
 40
0.5
  9
$CHAMFERC
 40
1.0
  9
$CHAMFERD
 40
0.0
  9
$SKPOLY
 70
     0
  9
$TDCREATE
 40
2457358.337974977
  9
$TDUPDATE
 40
2457358.337974988
  9
$TDINDWG
 40
0.0000000116
  9
$TDUSRTIMER
 40
0.0000000116
  9
$USRTIMER
 70
     1
  9
$ANGBASE
 50
0.0
  9
$ANGDIR
 70
     0
  9
$PDMODE
 70
     0
  9
$PDSIZE
 40
0.0
  9
$PLINEWID
 40
0.0
  9
$COORDS
 70
     1
  9
$SPLFRAME
 70
     0
  9
$SPLINETYPE
 70
     6
  9
$SPLINESEGS
 70
     8
  9
$ATTDIA
 70
     0
  9
$ATTREQ
 70
     1
  9
$HANDLING
 70
     1
  9
$HANDSEED
  5
FC
  9
$SURFTAB1
 70
     6
  9
$SURFTAB2
 70
     6
  9
$SURFTYPE
 70
     6
  9
$SURFU
 70
     6
  9
$SURFV
 70
     6
  9
$UCSNAME
  2

  9
$UCSORG
 10
0.0
 20
0.0
 30
0.0
  9
$UCSXDIR
 10
1.0
 20
0.0
 30
0.0
  9
$UCSYDIR
 10
0.0
 20
1.0
 30
0.0
  9
$PUCSNAME
  2

  9
$PUCSORG
 10
0.0
 20
0.0
 30
0.0
  9
$PUCSXDIR
 10
1.0
 20
0.0
 30
0.0
  9
$PUCSYDIR
 10
0.0
 20
1.0
 30
0.0
  9
$USERI1
 70
     0
  9
$USERI2
 70
     0
  9
$USERI3
 70
     0
  9
$USERI4
 70
     0
  9
$USERI5
 70
     0
  9
$USERR1
 40
0.0
  9
$USERR2
 40
0.0
  9
$USERR3
 40
0.0
  9
$USERR4
 40
0.0
  9
$USERR5
 40
0.0
  9
$WORLDVIEW
 70
     1
  9
$SHADEDGE
 70
     3
  9
$SHADEDIF
 70
    70
  9
$TILEMODE
 70
     1
  9
$MAXACTVP
 70
    64
  9
$PINSBASE
 10
0.0
 20
0.0
 30
0.0
  9
$PLIMCHECK
 70
     0
  9
$PEXTMIN
 10
1.000000000000000E+20
 20
1.000000000000000E+20
 30
1.000000000000000E+20
  9
$PEXTMAX
 10
-1.000000000000000E+20
 20
-1.000000000000000E+20
 30
-1.000000000000000E+20
  9
$PLIMMIN
 10
0.0
 20
0.0
  9
$PLIMMAX
 10
12.0
 20
9.0
  9
$UNITMODE
 70
     0
  9
$VISRETAIN
 70
     1
  9
$PLINEGEN
 70
     0
  9
$PSLTSCALE
 70
     1
  9
$TREEDEPTH
 70
  3020
  9
$PICKSTYLE
 70
     1
  9
$CMLSTYLE
  2
STANDARD
  9
$CMLJUST
 70
     0
  9
$CMLSCALE
 40
1.0
  9
$PROXYGRAPHICS
 70
     1
  9
$MEASUREMENT
 70
     0
  0
ENDSEC
  0
SECTION
  2
CLASSES
  0
CLASS
  1
ACDBDICTIONARYWDFLT
  2
AcDbDictionaryWithDefault
  3
ObjectDBX Classes
 90
        0
280
     0
281
     0
  0
CLASS
  1
VISUALSTYLE
  2
AcDbVisualStyle
  3
ObjectDBX Classes
 90
     4095
280
     0
281
     0
  0
CLASS
  1
MATERIAL
  2
AcDbMaterial
  3
ObjectDBX Classes
 90
     1153
280
     0
281
     0
  0
CLASS
  1
DICTIONARYVAR
  2
AcDbDictionaryVar
  3
ObjectDBX Classes
 90
        0
280
     0
281
     0
  0
CLASS
  1
XRECORD
  2
AcDbXrecord
  3
AutoCAD 2000
 90
        0
280
     0
281
     0
  0
CLASS
  1
LWPOLYLINE
  2
AcDbPolyline
  3
AutoCAD 2000
 90
        0
280
     0
281
     1
  0
CLASS
  1
HATCH
  2
AcDbHatch
  3
AutoCAD 2000
 90
        0
280
     0
281
     1
  0
CLASS
  1
ACDBPLACEHOLDER
  2
AcDbPlaceHolder
  3
ObjectDBX Classes
 90
        0
280
     0
281
     0
  0
CLASS
  1
LAYOUT
  2
AcDbLayout
  3
ObjectDBX Classes
 90
        0
280
     0
281
     0
  0
ENDSEC
  0
SECTION
  2
TABLES
  0
TABLE
  2
VPORT
  5
8
330
0
100
AcDbSymbolTable
 70
     1
  0
VPORT
  5
29
330
8
100
AcDbSymbolTableRecord
100
AcDbViewportTableRecord
  2
*ACTIVE
 70
     0
 10
0.0
 20
0.0
 11
1.0
 21
1.0
 12
0.0
 22
0.0
 13
0.0
 23
0.0
 14
0.5
 24
0.5
 15
0.5
 25
0.5
 16
0.0
 26
0.0
 36
1.0
 17
0.0
 27
0.0
 37
-1000.0
 40
50.41485647273257
 41
1.763768115942029
 42
50.0
 43
686.5464793911381
 44
1249.268392165943
 50
0.0
 51
0.0
 71
     0
 72
   100
 73
     1
 74
     3
 75
     0
 76
     0
 77
     0
 78
     0
  0
ENDTAB
  0
TABLE
  2
LTYPE
  5
5
330
0
100
AcDbSymbolTable
 70
     1
  0
LTYPE
  5
14
330
5
100
AcDbSymbolTableRecord
100
AcDbLinetypeTableRecord
  2
BYBLOCK
 70
     0
  3

 72
    65
 73
     0
 40
0.0
  0
LTYPE
  5
15
330
5
100
AcDbSymbolTableRecord
100
AcDbLinetypeTableRecord
  2
BYLAYER
 70
     0
  3

 72
    65
 73
     0
 40
0.0
  0
LTYPE
  5
16
330
5
100
AcDbSymbolTableRecord
100
AcDbLinetypeTableRecord
  2
CONTINUOUS
 70
     0
  3
Solid line
 72
    65
 73
     0
 40
0.0
  0
ENDTAB
  0
TABLE
  2
LAYER
  5
2
330
0
100
AcDbSymbolTable
 70
     3
  0
LAYER
  5
10
330
2
100
AcDbSymbolTableRecord
100
AcDbLayerTableRecord
  2
0
 70
     0
 62
     7
  6
CONTINUOUS
  0
LAYER
  5
3F
330
2
100
AcDbSymbolTableRecord
100
AcDbLayerTableRecord
  2
PROFILEEDGES
 70
     0
 62
     7
  6
CONTINUOUS
  0
LAYER
  5
40
330
2
100
AcDbSymbolTableRecord
100
AcDbLayerTableRecord
  2
SECTIONCUTEDGES
 70
     0
 62
     7
  6
CONTINUOUS
  0
ENDTAB
  0
TABLE
  2
STYLE
  5
3
330
0
100
AcDbSymbolTable
 70
     1
  0
STYLE
  5
11
330
3
100
AcDbSymbolTableRecord
100
AcDbTextStyleTableRecord
  2
STANDARD
 70
     0
 40
0.0
 41
1.0
 50
0.0
 71
     0
 42
0.2
  3
txt
  4

  0
ENDTAB
  0
TABLE
  2
VIEW
  5
6
330
0
100
AcDbSymbolTable
 70
     0
  0
ENDTAB
  0
TABLE
  2
UCS
  5
7
330
0
100
AcDbSymbolTable
 70
     0
  0
ENDTAB
  0
TABLE
  2
APPID
  5
9
330
0
100
AcDbSymbolTable
 70
     1
  0
APPID
  5
12
330
9
100
AcDbSymbolTableRecord
100
AcDbRegAppTableRecord
  2
ACAD
 70
     0
  0
ENDTAB
  0
TABLE
  2
DIMSTYLE
  5
A
330
0
100
AcDbSymbolTable
 70
     1
  0
DIMSTYLE
105
27
330
A
100
AcDbSymbolTableRecord
100
AcDbDimStyleTableRecord
  2
STANDARD
 70
     0
  3

  4

  5

  6

  7

 40
1.0
 41
0.18
 42
0.0625
 43
0.38
 44
0.18
 45
0.0
 46
0.0
 47
0.0
 48
0.0
140
0.18
141
0.09
142
0.0
143
25.4
144
1.0
145
0.0
146
1.0
147
0.09
 71
     0
 72
     0
 73
     1
 74
     1
 75
     0
 76
     0
 77
     0
 78
     0
170
     0
171
     2
172
     0
173
     0
174
     0
175
     0
176
     0
177
     0
178
     0
270
     2
271
     4
272
     4
273
     2
274
     2
340
11
275
     0
280
     0
281
     0
282
     0
283
     1
284
     0
285
     0
286
     0
287
     3
288
     0
  0
ENDTAB
  0
TABLE
  2
BLOCK_RECORD
  5
1
330
0
100
AcDbSymbolTable
 70
     1
  0
BLOCK_RECORD
  5
1F
330
1
100
AcDbSymbolTableRecord
100
AcDbBlockTableRecord
  2
*MODEL_SPACE
  0
BLOCK_RECORD
  5
1B
330
1
100
AcDbSymbolTableRecord
100
AcDbBlockTableRecord
  2
*PAPER_SPACE
  0
ENDTAB
  0
ENDSEC
  0
SECTION
  2
BLOCKS
  0
BLOCK
  5
20
330
1F
100
AcDbEntity
  8
0
100
AcDbBlockBegin
  2
*MODEL_SPACE
 70
     0
 10
0.0
 20
0.0
 30
0.0
  3
*MODEL_SPACE
  1

  0
ENDBLK
  5
21
330
1F
100
AcDbEntity
  8
0
100
AcDbBlockEnd
  0
BLOCK
  5
1C
330
1B
100
AcDbEntity
 67
     1
  8
0
100
AcDbBlockBegin
  2
*PAPER_SPACE
 70
     0
 10
0.0
 20
0.0
 30
0.0
  3
*PAPER_SPACE
  1

  0
ENDBLK
  5
1D
330
1B
100
AcDbEntity
 67
     1
  8
0
100
AcDbBlockEnd
  0
ENDSEC
  0
SECTION
  2
ENTITIES
  0
LINE
  5
41
330
1F
100
AcDbEntity
  8
0
100
AcDbLine
 10
7.416480525809535
 20
-0.2560225696118024
 30
0.0
 11
6.692937661117073
 21
0.0436786979021019
 31
0.0
  0
LINE
  5
42
330
1F
100
AcDbEntity
  8
0
100
AcDbLine
 10
6.692937661117073
 20
0.0436786979021019
 30
0.0
 11
6.071617317557444
 21
0.5204345656957546
 31
0.0
  0
LINE
  5
43
330
1F
100
AcDbEntity
  8
0
100
AcDbLine
 10
6.071617317557444
 20
0.5204345656957546
 30
0.0
 11
5.594861449763746
 21
1.141754909255383
 31
0.0
  0
LINE
  5
44
330
1F
100
AcDbEntity
  8
0
100
AcDbLine
 10
5.594861449763746
 20
1.141754909255383
 30
0.0
 11
5.295160182249887
 21
1.865297773947845
 31
0.0
  0
LINE
  5
45
330
1F
100
AcDbEntity
  8
0
100
AcDbLine
 10
5.295160182249887
 20
1.865297773947845
 30
0.0
 11
5.192937661117098
 21
2.641754909255402
 31
0.0
  0
LINE
  5
46
330
1F
100
AcDbEntity
  8
0
100
AcDbLine
 10
5.192937661117098
 20
2.641754909255402
 30
0.0
 11
5.295160182249887
 21
3.41821204456296
 31
0.0
  0
LINE
  5
47
330
1F
100
AcDbEntity
  8
0
100
AcDbLine
 10
5.295160182249887
 20
3.41821204456296
 30
0.0
 11
5.594861449763746
 21
4.141754909255377
 31
0.0
  0
LINE
  5
48
330
1F
100
AcDbEntity
  8
0
100
AcDbLine
 10
5.594861449763746
 20
4.141754909255377
 30
0.0
 11
6.071617317557444
 21
4.76307525281505
 31
0.0
  0
LINE
  5
49
330
1F
100
AcDbEntity
  8
0
100
AcDbLine
 10
6.071617317557444
 20
4.76307525281505
 30
0.0
 11
6.692937661117073
 21
5.239831120608703
 31
0.0
  0
LINE
  5
4A
330
1F
100
AcDbEntity
  8
0
100
AcDbLine
 10
6.692937661117073
 20
5.239831120608703
 30
0.0
 11
7.416480525809535
 21
5.539532388122607
 31
0.0
  0
LINE
  5
4B
330
1F
100
AcDbEntity
  8
0
100
AcDbLine
 10
19.92518540006002
 20
-12.7473085981558
 30
0.0
 11
19.2016425353676
 21
-12.4476073306419
 31
0.0
  0
LINE
  5
4C
330
1F
100
AcDbEntity
  8
0
100
AcDbLine
 10
19.2016425353676
 20
-12.4476073306419
 30
0.0
 11
18.58032219180793
 21
-11.97085146284825
 31
0.0
  0
LINE
  5
4D
330
1F
100
AcDbEntity
  8
0
100
AcDbLine
 10
18.58032219180793
 20
-11.97085146284825
 30
0.0
 11
18.10356632401428
 21
-11.34953111928862
 31
0.0
  0
LINE
  5
4E
330
1F
100
AcDbEntity
  8
0
100
AcDbLine
 10
18.10356632401428
 20
-11.34953111928862
 30
0.0
 11
17.80386505650037
 21
-10.62598825459616
 31
0.0
  0
LINE
  5
4F
330
1F
100
AcDbEntity
  8
0
100
AcDbLine
 10
10.79101387247039
 20
1.141754909255428
 30
0.0
 11
10.31425800467674
 21
0.5204345656957546
 31
0.0
  0
LINE
  5
50
330
1F
100
AcDbEntity
  8
0
100
AcDbLine
 10
10.31425800467674
 20
0.5204345656957546
 30
0.0
 11
9.692937661117067
 21
0.0436786979021019
 31
0.0
  0
LINE
  5
51
330
1F
100
AcDbEntity
  8
0
100
AcDbLine
 10
9.692937661117067
 20
0.0436786979021019
 30
0.0
 11
8.96939479642465
 21
-0.2560225696118024
 31
0.0
  0
LINE
  5
52
330
1F
100
AcDbEntity
  8
0
100
AcDbLine
 10
8.96939479642465
 20
-0.2560225696118024
 30
0.0
 11
8.192937661117092
 21
-0.358245090744592
 31
0.0
  0
LINE
  5
53
330
1F
100
AcDbEntity
  8
0
100
AcDbLine
 10
8.192937661117092
 20
-0.358245090744592
 30
0.0
 11
7.416480525809535
 21
-0.2560225696118024
 31
0.0
  0
LINE
  5
54
330
1F
100
AcDbEntity
  8
0
100
AcDbLine
 10
22.82296287892722
 20
-7.728210775728952
 30
0.0
 11
23.29971874672092
 21
-8.34953111928858
 31
0.0
  0
LINE
  5
55
330
1F
100
AcDbEntity
  8
0
100
AcDbLine
 10
23.29971874672092
 20
-8.34953111928858
 30
0.0
 11
23.59942001423478
 21
-9.073073983981043
 31
0.0
  0
LINE
  5
56
330
1F
100
AcDbEntity
  8
0
100
AcDbLine
 10
23.59942001423478
 20
-9.073073983981043
 30
0.0
 11
23.70164253536757
 21
-9.8495311192886
 31
0.0
  0
LINE
  5
57
330
1F
100
AcDbEntity
  8
0
100
AcDbLine
 10
23.70164253536757
 20
-9.8495311192886
 30
0.0
 11
23.59942001423478
 21
-10.62598825459616
 31
0.0
  0
LINE
  5
58
330
1F
100
AcDbEntity
  8
0
100
AcDbLine
 10
23.59942001423478
 20
-10.62598825459616
 30
0.0
 11
23.29971874672092
 21
-11.34953111928857
 31
0.0
  0
LINE
  5
59
330
1F
100
AcDbEntity
  8
0
100
AcDbLine
 10
23.29971874672092
 20
-11.34953111928857
 30
0.0
 11
22.82296287892722
 21
-11.97085146284825
 31
0.0
  0
LINE
  5
5A
330
1F
100
AcDbEntity
  8
0
100
AcDbLine
 10
22.82296287892722
 20
-11.97085146284825
 30
0.0
 11
22.2016425353676
 21
-12.4476073306419
 31
0.0
  0
LINE
  5
5B
330
1F
100
AcDbEntity
  8
0
100
AcDbLine
 10
22.2016425353676
 20
-12.4476073306419
 30
0.0
 11
21.47809967067518
 21
-12.7473085981558
 31
0.0
  0
LINE
  5
5C
330
1F
100
AcDbEntity
  8
0
100
AcDbLine
 10
21.47809967067518
 20
-12.7473085981558
 30
0.0
 11
20.70164253536758
 21
-12.84953111928859
 31
0.0
  0
LINE
  5
5D
330
1F
100
AcDbEntity
  8
0
100
AcDbLine
 10
20.70164253536758
 20
-12.84953111928859
 30
0.0
 11
19.92518540006002
 21
-12.7473085981558
 31
0.0
  0
LINE
  5
5E
330
1F
100
AcDbEntity
  8
0
100
AcDbLine
 10
18.10356632401428
 20
-8.34953111928858
 30
0.0
 11
18.58032219180793
 21
-7.728210775728952
 31
0.0
  0
LINE
  5
5F
330
1F
100
AcDbEntity
  8
0
100
AcDbLine
 10
18.58032219180793
 20
-7.728210775728952
 30
0.0
 11
19.2016425353676
 21
-7.251454907935299
 31
0.0
  0
LINE
  5
60
330
1F
100
AcDbEntity
  8
0
100
AcDbLine
 10
19.2016425353676
 20
-7.251454907935299
 30
0.0
 11
19.92518540006002
 21
-6.951753640421395
 31
0.0
  0
LINE
  5
61
330
1F
100
AcDbEntity
  8
0
100
AcDbLine
 10
11.19293766111709
 20
2.641754909255402
 30
0.0
 11
11.0907151399843
 21
1.865297773947845
 31
0.0
  0
LINE
  5
62
330
1F
100
AcDbEntity
  8
0
100
AcDbLine
 10
11.0907151399843
 20
1.865297773947845
 30
0.0
 11
10.79101387247039
 21
1.141754909255428
 31
0.0
  0
LINE
  5
63
330
1F
100
AcDbEntity
  8
0
100
AcDbLine
 10
20.70164253536758
 20
-6.849531119288605
 30
0.0
 11
21.47809967067514
 21
-6.951753640421395
 31
0.0
  0
LINE
  5
64
330
1F
100
AcDbEntity
  8
0
100
AcDbLine
 10
21.47809967067514
 20
-6.951753640421395
 30
0.0
 11
22.2016425353676
 21
-7.251454907935299
 31
0.0
  0
LINE
  5
65
330
1F
100
AcDbEntity
  8
0
100
AcDbLine
 10
22.2016425353676
 20
-7.251454907935299
 30
0.0
 11
22.82296287892722
 21
-7.728210775728952
 31
0.0
  0
LINE
  5
66
330
1F
100
AcDbEntity
  8
0
100
AcDbLine
 10
17.80386505650037
 20
-10.62598825459616
 30
0.0
 11
17.70164253536758
 21
-9.8495311192886
 31
0.0
  0
LINE
  5
67
330
1F
100
AcDbEntity
  8
0
100
AcDbLine
 10
17.70164253536758
 20
-9.8495311192886
 30
0.0
 11
17.80386505650037
 21
-9.073073983981043
 31
0.0
  0
LINE
  5
68
330
1F
100
AcDbEntity
  8
0
100
AcDbLine
 10
19.90776958534623
 20
18.04823422715451
 30
0.0
 11
20.68422672065379
 21
18.1504567482873
 31
0.0
  0
LINE
  5
69
330
1F
100
AcDbEntity
  8
0
100
AcDbLine
 10
20.68422672065379
 20
18.1504567482873
 30
0.0
 11
21.46068385596135
 21
18.04823422715451
 31
0.0
  0
LINE
  5
6A
330
1F
100
AcDbEntity
  8
0
100
AcDbLine
 10
21.46068385596135
 20
18.04823422715451
 30
0.0
 11
22.18422672065381
 21
17.7485329596406
 31
0.0
  0
LINE
  5
6B
330
1F
100
AcDbEntity
  8
0
100
AcDbLine
 10
22.18422672065381
 20
17.7485329596406
 30
0.0
 11
22.80554706421344
 21
17.27177709184695
 31
0.0
  0
LINE
  5
6C
330
1F
100
AcDbEntity
  8
0
100
AcDbLine
 10
22.80554706421344
 20
17.27177709184695
 30
0.0
 11
23.28230293200709
 21
16.65045674828728
 31
0.0
  0
LINE
  5
6D
330
1F
100
AcDbEntity
  8
0
100
AcDbLine
 10
23.28230293200709
 20
16.65045674828728
 30
0.0
 11
23.58200419952099
 21
15.92691388359486
 31
0.0
  0
LINE
  5
6E
330
1F
100
AcDbEntity
  8
0
100
AcDbLine
 10
23.58200419952099
 20
15.92691388359486
 30
0.0
 11
23.68422672065379
 21
15.1504567482873
 31
0.0
  0
LINE
  5
6F
330
1F
100
AcDbEntity
  8
0
100
AcDbLine
 10
23.68422672065379
 20
15.1504567482873
 30
0.0
 11
23.58200419952099
 21
14.37399961297975
 31
0.0
  0
LINE
  5
70
330
1F
100
AcDbEntity
  8
0
100
AcDbLine
 10
23.58200419952099
 20
14.37399961297975
 30
0.0
 11
23.28230293200714
 21
13.65045674828728
 31
0.0
  0
LINE
  5
71
330
1F
100
AcDbEntity
  8
0
100
AcDbLine
 10
23.28230293200714
 20
13.65045674828728
 30
0.0
 11
22.80554706421344
 21
13.02913640472766
 31
0.0
  0
LINE
  5
72
330
1F
100
AcDbEntity
  8
0
100
AcDbLine
 10
17.80386505650037
 20
-9.073073983981043
 30
0.0
 11
18.10356632401428
 21
-8.34953111928858
 31
0.0
  0
LINE
  5
73
330
1F
100
AcDbEntity
  8
0
100
AcDbLine
 10
18.08615050930049
 20
16.65045674828728
 30
0.0
 11
18.56290637709414
 21
17.27177709184695
 31
0.0
  0
LINE
  5
74
330
1F
100
AcDbEntity
  8
0
100
AcDbLine
 10
18.56290637709414
 20
17.27177709184695
 30
0.0
 11
19.18422672065377
 21
17.7485329596406
 31
0.0
  0
LINE
  5
75
330
1F
100
AcDbEntity
  8
0
100
AcDbLine
 10
12.70702625004135
 20
4.160093662291511
 30
0.0
 11
13.50622963007837
 21
6.089541301471322
 31
0.0
  0
LINE
  5
76
330
1F
100
AcDbEntity
  8
0
100
AcDbLine
 10
13.50622963007837
 20
6.089541301471322
 30
0.0
 11
14.77757861086149
 21
7.746395550963724
 31
0.0
  0
LINE
  5
77
330
1F
100
AcDbEntity
  8
0
100
AcDbLine
 10
14.77757861086149
 20
7.746395550963724
 30
0.0
 11
16.43443286035389
 21
9.017744531746843
 31
0.0
  0
LINE
  5
78
330
1F
100
AcDbEntity
  8
0
100
AcDbLine
 10
16.43443286035389
 20
9.017744531746843
 30
0.0
 11
18.3638804995337
 21
9.81694791178386
 31
0.0
  0
LINE
  5
79
330
1F
100
AcDbEntity
  8
0
100
AcDbLine
 10
18.3638804995337
 20
9.81694791178386
 30
0.0
 11
20.43443286035388
 21
10.08954130147131
 31
0.0
  0
LINE
  5
7A
330
1F
100
AcDbEntity
  8
0
100
AcDbLine
 10
20.43443286035388
 20
10.08954130147131
 30
0.0
 11
22.50498522117406
 21
9.81694791178386
 31
0.0
  0
LINE
  5
7B
330
1F
100
AcDbEntity
  8
0
100
AcDbLine
 10
22.50498522117406
 20
9.81694791178386
 30
0.0
 11
24.43443286035387
 21
9.017744531746843
 31
0.0
  0
LINE
  5
7C
330
1F
100
AcDbEntity
  8
0
100
AcDbLine
 10
24.43443286035387
 20
9.017744531746843
 30
0.0
 11
26.09128710984627
 21
7.746395550963724
 31
0.0
  0
LINE
  5
7D
330
1F
100
AcDbEntity
  8
0
100
AcDbLine
 10
26.09128710984627
 20
7.746395550963724
 30
0.0
 11
27.36263609062939
 21
6.089541301471322
 31
0.0
  0
LINE
  5
7E
330
1F
100
AcDbEntity
  8
0
100
AcDbLine
 10
22.80554706421344
 20
13.02913640472766
 30
0.0
 11
22.18422672065381
 21
12.55238053693396
 31
0.0
  0
LINE
  5
7F
330
1F
100
AcDbEntity
  8
0
100
AcDbLine
 10
22.18422672065381
 20
12.55238053693396
 30
0.0
 11
21.46068385596135
 21
12.2526792694201
 31
0.0
  0
LINE
  5
80
330
1F
100
AcDbEntity
  8
0
100
AcDbLine
 10
21.46068385596135
 20
12.2526792694201
 30
0.0
 11
20.68422672065379
 21
12.15045674828731
 31
0.0
  0
LINE
  5
81
330
1F
100
AcDbEntity
  8
0
100
AcDbLine
 10
20.68422672065379
 20
12.15045674828731
 30
0.0
 11
19.90776958534623
 21
12.2526792694201
 31
0.0
  0
LINE
  5
82
330
1F
100
AcDbEntity
  8
0
100
AcDbLine
 10
19.90776958534623
 20
12.2526792694201
 30
0.0
 11
19.18422672065377
 21
12.55238053693396
 31
0.0
  0
LINE
  5
83
330
1F
100
AcDbEntity
  8
0
100
AcDbLine
 10
19.18422672065377
 20
12.55238053693396
 30
0.0
 11
18.56290637709414
 21
13.02913640472766
 31
0.0
  0
LINE
  5
84
330
1F
100
AcDbEntity
  8
0
100
AcDbLine
 10
18.56290637709414
 20
13.02913640472766
 30
0.0
 11
18.08615050930049
 21
13.65045674828728
 31
0.0
  0
LINE
  5
85
330
1F
100
AcDbEntity
  8
0
100
AcDbLine
 10
18.08615050930049
 20
13.65045674828728
 30
0.0
 11
17.78644924178658
 21
14.37399961297975
 31
0.0
  0
LINE
  5
86
330
1F
100
AcDbEntity
  8
0
100
AcDbLine
 10
17.78644924178658
 20
14.37399961297975
 30
0.0
 11
17.6842267206538
 21
15.1504567482873
 31
0.0
  0
LINE
  5
87
330
1F
100
AcDbEntity
  8
0
100
AcDbLine
 10
17.6842267206538
 20
15.1504567482873
 30
0.0
 11
17.78644924178658
 21
15.92691388359486
 31
0.0
  0
LINE
  5
88
330
1F
100
AcDbEntity
  8
0
100
AcDbLine
 10
17.78644924178658
 20
15.92691388359486
 30
0.0
 11
18.08615050930049
 21
16.65045674828728
 31
0.0
  0
LINE
  5
89
330
1F
100
AcDbEntity
  8
0
100
AcDbLine
 10
19.18422672065377
 20
17.7485329596406
 30
0.0
 11
19.90776958534623
 21
18.04823422715451
 31
0.0
  0
LINE
  5
8A
330
1F
100
AcDbEntity
  8
0
100
AcDbLine
 10
19.92518540006002
 20
-6.951753640421395
 30
0.0
 11
20.70164253536758
 21
-6.849531119288605
 31
0.0
  0
LINE
  5
8B
330
1F
100
AcDbEntity
  8
0
100
AcDbLine
 10
4.013693813439688
 20
-2.310382465271524
 30
0.0
 11
5.712000996018374
 21
-6.410458698528678
 31
0.0
  0
LINE
  5
8C
330
1F
100
AcDbEntity
  8
0
100
AcDbLine
 10
32.45524814052517
 20
-9.931273978699963
 30
0.0
 11
35.15686472468938
 21
-6.410458698528678
 31
0.0
  0
LINE
  5
8D
330
1F
100
AcDbEntity
  8
0
100
AcDbLine
 10
37.43443286035389
 20
2.089541301471329
 30
0.0
 11
36.85517190726807
 21
6.489465068214183
 31
0.0
  0
LINE
  5
8E
330
1F
100
AcDbEntity
  8
0
100
AcDbLine
 10
3.434432860353866
 20
2.089541301471329
 30
0.0
 11
4.013693813439688
 21
-2.310382465271524
 31
0.0
  0
LINE
  5
8F
330
1F
100
AcDbEntity
  8
0
100
AcDbLine
 10
8.413617580182587
 20
14.11035658164262
 30
0.0
 11
5.712000996018374
 21
10.58954130147134
 31
0.0
  0
LINE
  5
90
330
1F
100
AcDbEntity
  8
0
100
AcDbLine
 10
16.03450909361098
 20
-14.33119774544286
 30
0.0
 11
20.43443286035388
 21
-14.91045869852868
 31
0.0
  0
LINE
  5
91
330
1F
100
AcDbEntity
  8
0
100
AcDbLine
 10
11.93443286035392
 20
16.81197316580683
 30
0.0
 11
8.413617580182587
 21
14.11035658164262
 31
0.0
  0
LINE
  5
92
330
1F
100
AcDbEntity
  8
0
100
AcDbLine
 10
28.93443286035393
 20
16.81197316580683
 30
0.0
 11
24.83435662709678
 21
18.51028034838552
 31
0.0
  0
LINE
  5
93
330
1F
100
AcDbEntity
  8
0
100
AcDbLine
 10
24.83435662709678
 20
18.51028034838552
 30
0.0
 11
20.43443286035388
 21
19.08954130147134
 31
0.0
  0
LINE
  5
94
330
1F
100
AcDbEntity
  8
0
100
AcDbLine
 10
20.43443286035388
 20
19.08954130147134
 30
0.0
 11
16.03450909361098
 21
18.51028034838552
 31
0.0
  0
LINE
  5
95
330
1F
100
AcDbEntity
  8
0
100
AcDbLine
 10
16.03450909361098
 20
18.51028034838552
 30
0.0
 11
11.93443286035392
 21
16.81197316580683
 31
0.0
  0
LINE
  5
96
330
1F
100
AcDbEntity
  8
0
100
AcDbLine
 10
5.712000996018374
 20
10.58954130147134
 30
0.0
 11
4.013693813439688
 21
6.489465068214183
 31
0.0
  0
LINE
  5
97
330
1F
100
AcDbEntity
  8
0
100
AcDbLine
 10
4.013693813439688
 20
6.489465068214183
 30
0.0
 11
3.434432860353866
 21
2.089541301471329
 31
0.0
  0
LINE
  5
98
330
1F
100
AcDbEntity
  8
0
100
AcDbLine
 10
5.712000996018374
 20
-6.410458698528678
 30
0.0
 11
8.413617580182587
 21
-9.931273978699963
 31
0.0
  0
LINE
  5
99
330
1F
100
AcDbEntity
  8
0
100
AcDbLine
 10
8.413617580182587
 20
-9.931273978699963
 30
0.0
 11
11.93443286035383
 21
-12.63289056286413
 31
0.0
  0
LINE
  5
9A
330
1F
100
AcDbEntity
  8
0
100
AcDbLine
 10
11.93443286035383
 20
-12.63289056286413
 30
0.0
 11
16.03450909361098
 21
-14.33119774544286
 31
0.0
  0
LINE
  5
9B
330
1F
100
AcDbEntity
  8
0
100
AcDbLine
 10
20.43443286035388
 20
-14.91045869852868
 30
0.0
 11
24.83435662709669
 21
-14.33119774544286
 31
0.0
  0
LINE
  5
9C
330
1F
100
AcDbEntity
  8
0
100
AcDbLine
 10
24.83435662709669
 20
-14.33119774544286
 30
0.0
 11
28.93443286035384
 21
-12.63289056286418
 31
0.0
  0
LINE
  5
9D
330
1F
100
AcDbEntity
  8
0
100
AcDbLine
 10
28.93443286035384
 20
-12.63289056286418
 30
0.0
 11
32.45524814052517
 21
-9.931273978699963
 31
0.0
  0
LINE
  5
9E
330
1F
100
AcDbEntity
  8
0
100
AcDbLine
 10
35.15686472468938
 20
-6.410458698528678
 30
0.0
 11
36.85517190726807
 21
-2.310382465271569
 31
0.0
  0
LINE
  5
9F
330
1F
100
AcDbEntity
  8
0
100
AcDbLine
 10
36.85517190726807
 20
-2.310382465271569
 30
0.0
 11
37.43443286035389
 21
2.089541301471329
 31
0.0
  0
LINE
  5
A0
330
1F
100
AcDbEntity
  8
0
100
AcDbLine
 10
36.85517190726807
 20
6.489465068214183
 30
0.0
 11
35.15686472468938
 21
10.58954130147134
 31
0.0
  0
LINE
  5
A1
330
1F
100
AcDbEntity
  8
0
100
AcDbLine
 10
35.15686472468938
 20
10.58954130147134
 30
0.0
 11
32.45524814052517
 21
14.11035658164262
 31
0.0
  0
LINE
  5
A2
330
1F
100
AcDbEntity
  8
0
100
AcDbLine
 10
32.45524814052517
 20
14.11035658164262
 30
0.0
 11
28.93443286035393
 21
16.81197316580683
 31
0.0
  0
LINE
  5
A3
330
1F
100
AcDbEntity
  8
0
100
AcDbLine
 10
27.36263609062939
 20
6.089541301471322
 30
0.0
 11
28.16183947066641
 21
4.160093662291511
 31
0.0
  0
LINE
  5
A4
330
1F
100
AcDbEntity
  8
0
100
AcDbLine
 10
28.16183947066641
 20
4.160093662291511
 30
0.0
 11
28.43443286035387
 21
2.089541301471329
 31
0.0
  0
LINE
  5
A5
330
1F
100
AcDbEntity
  8
0
100
AcDbLine
 10
28.43443286035387
 20
2.089541301471329
 30
0.0
 11
28.16183947066641
 21
0.0189889406511472
 31
0.0
  0
LINE
  5
A6
330
1F
100
AcDbEntity
  8
0
100
AcDbLine
 10
28.16183947066641
 20
0.0189889406511472
 30
0.0
 11
27.36263609062939
 21
-1.910458698528663
 31
0.0
  0
LINE
  5
A7
330
1F
100
AcDbEntity
  8
0
100
AcDbLine
 10
27.36263609062939
 20
-1.910458698528663
 30
0.0
 11
26.09128710984627
 21
-3.567312948021065
 31
0.0
  0
LINE
  5
A8
330
1F
100
AcDbEntity
  8
0
100
AcDbLine
 10
26.09128710984627
 20
-3.567312948021065
 30
0.0
 11
24.43443286035387
 21
-4.838661928804184
 31
0.0
  0
LINE
  5
A9
330
1F
100
AcDbEntity
  8
0
100
AcDbLine
 10
24.43443286035387
 20
-4.838661928804184
 30
0.0
 11
22.50498522117406
 21
-5.637865308841202
 31
0.0
  0
LINE
  5
AA
330
1F
100
AcDbEntity
  8
0
100
AcDbLine
 10
22.50498522117406
 20
-5.637865308841202
 30
0.0
 11
20.43443286035388
 21
-5.910458698528656
 31
0.0
  0
LINE
  5
AB
330
1F
100
AcDbEntity
  8
0
100
AcDbLine
 10
20.43443286035388
 20
-5.910458698528656
 30
0.0
 11
18.3638804995337
 21
-5.637865308841202
 31
0.0
  0
LINE
  5
AC
330
1F
100
AcDbEntity
  8
0
100
AcDbLine
 10
18.3638804995337
 20
-5.637865308841202
 30
0.0
 11
16.43443286035389
 21
-4.838661928804184
 31
0.0
  0
LINE
  5
AD
330
1F
100
AcDbEntity
  8
0
100
AcDbLine
 10
16.43443286035389
 20
-4.838661928804184
 30
0.0
 11
14.77757861086149
 21
-3.567312948021065
 31
0.0
  0
LINE
  5
AE
330
1F
100
AcDbEntity
  8
0
100
AcDbLine
 10
14.77757861086149
 20
-3.567312948021065
 30
0.0
 11
13.50622963007837
 21
-1.910458698528663
 31
0.0
  0
LINE
  5
AF
330
1F
100
AcDbEntity
  8
0
100
AcDbLine
 10
13.50622963007837
 20
-1.910458698528663
 30
0.0
 11
12.70702625004135
 21
0.0189889406511472
 31
0.0
  0
LINE
  5
B0
330
1F
100
AcDbEntity
  8
0
100
AcDbLine
 10
12.70702625004135
 20
0.0189889406511472
 30
0.0
 11
12.43443286035389
 21
2.089541301471329
 31
0.0
  0
LINE
  5
B1
330
1F
100
AcDbEntity
  8
0
100
AcDbLine
 10
12.43443286035389
 20
2.089541301471329
 30
0.0
 11
12.70702625004135
 21
4.160093662291511
 31
0.0
  0
LINE
  5
B2
330
1F
100
AcDbEntity
  8
0
100
AcDbLine
 10
7.416480525809535
 20
5.539532388122607
 30
0.0
 11
8.192937661117092
 21
5.641754909255397
 31
0.0
  0
LINE
  5
B3
330
1F
100
AcDbEntity
  8
0
100
AcDbLine
 10
8.192937661117092
 20
5.641754909255397
 30
0.0
 11
8.96939479642465
 21
5.539532388122607
 31
0.0
  0
LINE
  5
B4
330
1F
100
AcDbEntity
  8
0
100
AcDbLine
 10
8.96939479642465
 20
5.539532388122607
 30
0.0
 11
9.692937661117067
 21
5.239831120608703
 31
0.0
  0
LINE
  5
B5
330
1F
100
AcDbEntity
  8
0
100
AcDbLine
 10
9.692937661117067
 20
5.239831120608703
 30
0.0
 11
10.31425800467674
 21
4.76307525281505
 31
0.0
  0
LINE
  5
B6
330
1F
100
AcDbEntity
  8
0
100
AcDbLine
 10
10.31425800467674
 20
4.76307525281505
 30
0.0
 11
10.79101387247039
 21
4.141754909255423
 31
0.0
  0
LINE
  5
B7
330
1F
100
AcDbEntity
  8
0
100
AcDbLine
 10
10.79101387247039
 20
4.141754909255423
 30
0.0
 11
11.0907151399843
 21
3.41821204456296
 31
0.0
  0
LINE
  5
B8
330
1F
100
AcDbEntity
  8
0
100
AcDbLine
 10
11.0907151399843
 20
3.41821204456296
 30
0.0
 11
11.19293766111709
 21
2.641754909255402
 31
0.0
  0
LINE
  5
B9
330
1F
100
AcDbEntity
  8
0
100
AcDbLine
 10
34.69293159490429
 20
5.257246931096601
 30
0.0
 11
35.31425193846393
 21
4.780491063302904
 31
0.0
  0
LINE
  5
BA
330
1F
100
AcDbEntity
  8
0
100
AcDbLine
 10
35.31425193846393
 20
4.780491063302904
 30
0.0
 11
35.79100780625762
 21
4.159170719743275
 31
0.0
  0
LINE
  5
BB
330
1F
100
AcDbEntity
  8
0
100
AcDbLine
 10
35.79100780625762
 20
4.159170719743275
 30
0.0
 11
36.09070907377153
 21
3.435627855050858
 31
0.0
  0
LINE
  5
BC
330
1F
100
AcDbEntity
  8
0
100
AcDbLine
 10
36.09070907377153
 20
3.435627855050858
 30
0.0
 11
36.19293159490432
 21
2.659170719743256
 31
0.0
  0
LINE
  5
BD
330
1F
100
AcDbEntity
  8
0
100
AcDbLine
 10
36.19293159490432
 20
2.659170719743256
 30
0.0
 11
36.09070907377153
 21
1.882713584435699
 31
0.0
  0
LINE
  5
BE
330
1F
100
AcDbEntity
  8
0
100
AcDbLine
 10
36.09070907377153
 20
1.882713584435699
 30
0.0
 11
35.79100780625762
 21
1.159170719743281
 31
0.0
  0
LINE
  5
BF
330
1F
100
AcDbEntity
  8
0
100
AcDbLine
 10
35.79100780625762
 20
1.159170719743281
 30
0.0
 11
35.31425193846393
 21
0.537850376183653
 31
0.0
  0
LINE
  5
C0
330
1F
100
AcDbEntity
  8
0
100
AcDbLine
 10
35.31425193846393
 20
0.537850376183653
 30
0.0
 11
34.69293159490429
 21
0.0610945083899551
 31
0.0
  0
LINE
  5
C1
330
1F
100
AcDbEntity
  8
0
100
AcDbLine
 10
34.69293159490429
 20
0.0610945083899551
 30
0.0
 11
33.96938873021188
 21
-0.2386067591239492
 31
0.0
  0
LINE
  5
C2
330
1F
100
AcDbEntity
  8
0
100
AcDbLine
 10
33.96938873021188
 20
-0.2386067591239492
 30
0.0
 11
33.19293159490432
 21
-0.3408292802567388
 31
0.0
  0
LINE
  5
C3
330
1F
100
AcDbEntity
  8
0
100
AcDbLine
 10
33.19293159490432
 20
-0.3408292802567388
 30
0.0
 11
32.41647445959672
 21
-0.2386067591239492
 31
0.0
  0
LINE
  5
C4
330
1F
100
AcDbEntity
  8
0
100
AcDbLine
 10
32.41647445959672
 20
-0.2386067591239492
 30
0.0
 11
31.6929315949043
 21
0.0610945083899551
 31
0.0
  0
LINE
  5
C5
330
1F
100
AcDbEntity
  8
0
100
AcDbLine
 10
31.6929315949043
 20
0.0610945083899551
 30
0.0
 11
31.07161125134467
 21
0.537850376183653
 31
0.0
  0
LINE
  5
C6
330
1F
100
AcDbEntity
  8
0
100
AcDbLine
 10
31.07161125134467
 20
0.537850376183653
 30
0.0
 11
30.59485538355097
 21
1.159170719743281
 31
0.0
  0
LINE
  5
C7
330
1F
100
AcDbEntity
  8
0
100
AcDbLine
 10
30.59485538355097
 20
1.159170719743281
 30
0.0
 11
30.29515411603712
 21
1.882713584435699
 31
0.0
  0
LINE
  5
C8
330
1F
100
AcDbEntity
  8
0
100
AcDbLine
 10
30.29515411603712
 20
1.882713584435699
 30
0.0
 11
30.19293159490428
 21
2.659170719743256
 31
0.0
  0
LINE
  5
C9
330
1F
100
AcDbEntity
  8
0
100
AcDbLine
 10
30.19293159490428
 20
2.659170719743256
 30
0.0
 11
30.29515411603712
 21
3.435627855050858
 31
0.0
  0
LINE
  5
CA
330
1F
100
AcDbEntity
  8
0
100
AcDbLine
 10
30.29515411603712
 20
3.435627855050858
 30
0.0
 11
30.59485538355097
 21
4.159170719743275
 31
0.0
  0
LINE
  5
CB
330
1F
100
AcDbEntity
  8
0
100
AcDbLine
 10
30.59485538355097
 20
4.159170719743275
 30
0.0
 11
31.07161125134467
 21
4.780491063302904
 31
0.0
  0
LINE
  5
CC
330
1F
100
AcDbEntity
  8
0
100
AcDbLine
 10
31.07161125134467
 20
4.780491063302904
 30
0.0
 11
31.6929315949043
 21
5.257246931096601
 31
0.0
  0
LINE
  5
CD
330
1F
100
AcDbEntity
  8
0
100
AcDbLine
 10
31.6929315949043
 20
5.257246931096601
 30
0.0
 11
32.41647445959672
 21
5.556948198610461
 31
0.0
  0
LINE
  5
CE
330
1F
100
AcDbEntity
  8
0
100
AcDbLine
 10
32.41647445959672
 20
5.556948198610461
 30
0.0
 11
33.19293159490432
 21
5.659170719743296
 31
0.0
  0
LINE
  5
CF
330
1F
100
AcDbEntity
  8
0
100
AcDbLine
 10
33.19293159490432
 20
5.659170719743296
 30
0.0
 11
33.96938873021188
 21
5.556948198610461
 31
0.0
  0
LINE
  5
D0
330
1F
100
AcDbEntity
  8
0
100
AcDbLine
 10
33.96938873021188
 20
5.556948198610461
 30
0.0
 11
34.69293159490429
 21
5.257246931096601
 31
0.0
  0
ENDSEC
  0
SECTION
  2
OBJECTS
  0
DICTIONARY
  5
C
330
0
100
AcDbDictionary
  3
ACAD_GROUP
350
D
  3
ACAD_LAYOUT
350
1A
  3
ACAD_MATERIAL
350
3B
  3
ACAD_MLEADERSTYLE
350
F3
  3
ACAD_MLINESTYLE
350
17
  3
ACAD_PLOTSETTINGS
350
19
  3
ACAD_VISUALSTYLE
350
2A
  3
ACDBHEADERROUNDTRIPXREC
350
D1
  3
ACDBVARIABLEDICTIONARY
350
F1
  0
DICTIONARY
  5
D
102
{ACAD_REACTORS
330
C
102
}
330
C
100
AcDbDictionary
  0
DICTIONARY
  5
1A
102
{ACAD_REACTORS
330
C
102
}
330
C
100
AcDbDictionary
  0
DICTIONARY
  5
3B
102
{ACAD_REACTORS
330
C
102
}
330
C
100
AcDbDictionary
  3
BYBLOCK
350
3D
  3
BYLAYER
350
3C
  3
GLOBAL
350
3E
  0
DICTIONARY
  5
F3
102
{ACAD_REACTORS
330
C
102
}
330
C
100
AcDbDictionary
  0
DICTIONARY
  5
17
102
{ACAD_REACTORS
330
C
102
}
330
C
100
AcDbDictionary
  3
STANDARD
350
18
  0
DICTIONARY
  5
19
102
{ACAD_REACTORS
330
C
102
}
330
C
100
AcDbDictionary
  0
DICTIONARY
  5
2A
102
{ACAD_REACTORS
330
C
102
}
330
C
100
AcDbDictionary
  3
2DWIREFRAME
350
2F
  3
3D_HIDDEN
350
31
  3
3DWIREFRAME
350
30
  3
BASIC
350
32
  3
BRIGHTEN
350
36
  3
COLORCHANGE
350
3A
  3
CONCEPTUAL
350
34
  3
DIM
350
35
  3
FACEPATTERN
350
39
  3
FLAT
350
2B
  3
FLATWITHEDGES
350
2C
  3
GOURAUD
350
2D
  3
GOURAUDWITHEDGES
350
2E
  3
LINEPATTERN
350
38
  3
REALISTIC
350
33
  3
THICKEN
350
37
  0
DICTIONARY
  5
D1
102
{ACAD_REACTORS
330
C
102
}
330
C
100
AcDbDictionary
  3
CEPSNTYPE
350
DA
  3
DIMSTYLEDATA
350
F0
  3
FINGERPRINTGUID
350
DB
  3
HYPERLINKBASE
350
D4
  3
INSUNITS
350
D9
  3
LAYOUTDICT
350
D6
  3
LWETCUNION
350
D8
  3
PLOTSETDICT
350
D7
  3
PSVPSCALE
350
DD
  3
PUCSBASE
350
E0
  3
PUCSORGBACK
350
E6
  3
PUCSORGBOTTOM
350
E2
  3
PUCSORGFRONT
350
E5
  3
PUCSORGLEFT
350
E3
  3
PUCSORGRIGHT
350
E4
  3
PUCSORGTOP
350
E1
  3
PUCSORTHOREF
350
DE
  3
PUCSORTHOVIEW
350
DF
  3
STYLESHEET
350
D5
  3
TSTACKALIGN
350
D2
  3
TSTACKSIZE
350
D3
  3
UCSBASE
350
E9
  3
UCSORGBACK
350
EF
  3
UCSORGBOTTOM
350
EB
  3
UCSORGFRONT
350
EE
  3
UCSORGLEFT
350
EC
  3
UCSORGRIGHT
350
ED
  3
UCSORGTOP
350
EA
  3
UCSORTHOREF
350
E7
  3
UCSORTHOVIEW
350
E8
  3
VERSIONGUID
350
DC
  0
DICTIONARY
  5
F1
102
{ACAD_REACTORS
330
C
102
}
330
C
100
AcDbDictionary
  3
DIMASSOC
350
F4
  3
HIDETEXT
350
F5
  0
MATERIAL
  5
3D
102
{ACAD_REACTORS
330
3B
102
}
102
{ACAD_XDICTIONARY
360
F8
102
}
330
3B
100
AcDbMaterial
  1
ByBlock
  0
MATERIAL
  5
3C
102
{ACAD_REACTORS
330
3B
102
}
102
{ACAD_XDICTIONARY
360
F6
102
}
330
3B
100
AcDbMaterial
  1
ByLayer
  0
MATERIAL
  5
3E
102
{ACAD_REACTORS
330
3B
102
}
102
{ACAD_XDICTIONARY
360
FA
102
}
330
3B
100
AcDbMaterial
  1
Global
  0
MLINESTYLE
  5
18
102
{ACAD_REACTORS
330
17
102
}
330
17
100
AcDbMlineStyle
  2
Standard
 70
     0
  3

 62
   256
 51
90.0
 52
90.0
 71
     2
 49
0.5
 62
   256
  6
BYLAYER
 49
-0.5
 62
   256
  6
BYLAYER
  0
ACAD_PROXY_OBJECT
  5
2F
102
{ACAD_REACTORS
330
2A
102
}
330
2A
100
AcDbProxyObject
 90
      499
 91
      501
 93
      436
310
42CC9915DA5C99599C985B595049028333333333333E3BF0000000000000FB0107901411070040501600405405064090741402480A0340
1001
ACAD
1000
AcDbSavedByObjectVersion
1070
     0
  0
ACAD_PROXY_OBJECT
  5
31
102
{ACAD_REACTORS
330
2A
102
}
330
2A
100
AcDbProxyObject
 90
      499
 91
      501
 93
      500
310
424CD108121A5919195B90640502408333333333333E3BF0000000000000FB01079024090700405020000000000001110200405405064090740C02480A0340
1001
ACAD
1000
AcDbSavedByObjectVersion
1070
     0
  0
ACAD_PROXY_OBJECT
  5
30
102
{ACAD_REACTORS
330
2A
102
}
330
2A
100
AcDbProxyObject
 90
      499
 91
      501
 93
      436
310
42CCD915DA5C99599C985B595059028333333333333E3BF0000000000000FB0107901411070040501600405405064090741402480A0340
1001
ACAD
1000
AcDbSavedByObjectVersion
1070
     0
  0
ACAD_PROXY_OBJECT
  5
32
102
{ACAD_REACTORS
330
2A
102
}
330
2A
100
AcDbProxyObject
 90
      499
 91
      501
 93
      388
310
4150985CDA58D07406404333333333333E3BF0000000000000FB0107A41107004050150841D405064090741402480A0350
1001
ACAD
1000
AcDbSavedByObjectVersion
1070
     0
  0
ACAD_PROXY_OBJECT
  5
36
102
{ACAD_REACTORS
330
2A
102
}
330
2A
100
AcDbProxyObject
 90
      499
 91
      501
 93
      428
310
42109C9A59DA1D195B90C409028333333333333E3BF0000000000000FB010790141107004050150841D405064090741402480A029950
1001
ACAD
1000
AcDbSavedByObjectVersion
1070
     0
  0
ACAD_PROXY_OBJECT
  5
3A
102
{ACAD_REACTORS
330
2A
102
}
330
2A
100
AcDbProxyObject
 90
      499
 91
      501
 93
      452
310
42D0DBDB1BDC90DA185B99D95104090240C333333333333E3BF0000000000000FB0108901411070040501508421405064090741402480A0350
1001
ACAD
1000
AcDbSavedByObjectVersion
1070
     0
  0
ACAD_PROXY_OBJECT
  5
34
102
{ACAD_REACTORS
330
2A
102
}
330
2A
100
AcDbProxyObject
 90
      499
 91
      501
 93
      500
310
4290DBDB98D95C1D1D585B10940D028333333333333E3BF0000000000000FB0107902409070040501000000000000111010841D405064090740C02480A0340
1001
ACAD
1000
AcDbSavedByObjectVersion
1070
     0
  0
ACAD_PROXY_OBJECT
  5
35
102
{ACAD_REACTORS
330
2A
102
}
330
2A
100
AcDbProxyObject
 90
      499
 91
      501
 93
      412
310
40D11A5B50B409028333333333333E3BF0000000000000FB010790141107004050150841D405064090741402480A02677FFFFFD0
1001
ACAD
1000
AcDbSavedByObjectVersion
1070
     0
  0
ACAD_PROXY_OBJECT
  5
39
102
{ACAD_REACTORS
330
2A
102
}
330
2A
100
AcDbProxyObject
 90
      499
 91
      501
 93
      444
310
42D19858D95C185D1D195C9B90F409028333333333333E3BF0000000000000FB010790141107004050150841D405064090741402480A0350
1001
ACAD
1000
AcDbSavedByObjectVersion
1070
     0
  0
ACAD_PROXY_OBJECT
  5
2B
102
{ACAD_REACTORS
330
2A
102
}
330
2A
100
AcDbProxyObject
 90
      499
 91
      501
 93
      388
310
41119B185D240901404333333333333E3BF0000000000000F9010740A41107004050150841D405064090741402480A1B50
1001
ACAD
1000
AcDbSavedByObjectVersion
1070
     0
  0
ACAD_PROXY_OBJECT
  5
2C
102
{ACAD_REACTORS
330
2A
102
}
330
2A
100
AcDbProxyObject
 90
      499
 91
      501
 93
      476
310
43519B185D15DA5D1A115919D95CD0140901404333333333333E3BF0000000000000F9010740901411070040501600405405064090741402480A1B50
1001
ACAD
1000
AcDbSavedByObjectVersion
1070
     0
  0
ACAD_PROXY_OBJECT
  5
2D
102
{ACAD_REACTORS
330
2A
102
}
330
2A
100
AcDbProxyObject
 90
      499
 91
      501
 93
      412
310
41D1DBDD5C985D5910240902404333333333333E3BF0000000000000F9010740A411070040501641D405064090741402480A1B50
1001
ACAD
1000
AcDbSavedByObjectVersion
1070
     0
  0
ACAD_PROXY_OBJECT
  5
2E
102
{ACAD_REACTORS
330
2A
102
}
330
2A
100
AcDbProxyObject
 90
      499
 91
      501
 93
      500
310
4411DBDD5C985D5915DA5D1A115919D95CD0340902404333333333333E3BF0000000000000F9010740901411070040501600405405064090741402480A1B50
1001
ACAD
1000
AcDbSavedByObjectVersion
1070
     0
  0
ACAD_PROXY_OBJECT
  5
38
102
{ACAD_REACTORS
330
2A
102
}
330
2A
100
AcDbProxyObject
 90
      499
 91
      501
 93
      444
310
42D31A5B995C185D1D195C9B90E409028333333333333E3BF0000000000000FB010790141107004050750841D405064090741402483A0350
1001
ACAD
1000
AcDbSavedByObjectVersion
1070
     0
  0
ACAD_PROXY_OBJECT
  5
33
102
{ACAD_REACTORS
330
2A
102
}
330
2A
100
AcDbProxyObject
 90
      499
 91
      501
 93
      420
310
425499585B1A5CDD1A58D08409028333333333333E3BF0000000000000FB01079019070040501508421405064090741402480A1B40
1001
ACAD
1000
AcDbSavedByObjectVersion
1070
     0
  0
ACAD_PROXY_OBJECT
  5
37
102
{ACAD_REACTORS
330
2A
102
}
330
2A
100
AcDbProxyObject
 90
      499
 91
      501
 93
      412
310
41D51A1A58DAD95B90D409028333333333333E3BF0000000000000FB010790141107004050150C41D405064090741402480A0350
1001
ACAD
1000
AcDbSavedByObjectVersion
1070
     0
  0
XRECORD
  5
DA
102
{ACAD_REACTORS
330
D1
102
}
330
D1
100
AcDbXrecord
 90
        0
  0
XRECORD
  5
F0
102
{ACAD_REACTORS
330
D1
102
}
330
D1
100
AcDbXrecord
1000
DSTYLE
1002
{
1070
   340
340
11
1002
}
  0
XRECORD
  5
DB
102
{ACAD_REACTORS
330
D1
102
}
330
D1
100
AcDbXrecord
  1
{3FFA13E6-A2E1-4720-A7CD-6C8E365CFC54}
  0
XRECORD
  5
D4
102
{ACAD_REACTORS
330
D1
102
}
330
D1
100
AcDbXrecord
  1

  0
XRECORD
  5
D9
102
{ACAD_REACTORS
330
D1
102
}
330
D1
100
AcDbXrecord
 90
        1
  0
XRECORD
  5
D6
102
{ACAD_REACTORS
330
D1
102
}
330
D1
100
AcDbXrecord
340
1A
  0
XRECORD
  5
D8
102
{ACAD_REACTORS
330
D1
102
}
330
D1
100
AcDbXrecord
 90
    10781
  0
XRECORD
  5
D7
102
{ACAD_REACTORS
330
D1
102
}
330
D1
100
AcDbXrecord
340
19
  0
XRECORD
  5
DD
102
{ACAD_REACTORS
330
D1
102
}
330
D1
100
AcDbXrecord
 40
0.0
  0
XRECORD
  5
E0
102
{ACAD_REACTORS
330
D1
102
}
330
D1
100
AcDbXrecord
340
0
  0
XRECORD
  5
E6
102
{ACAD_REACTORS
330
D1
102
}
330
D1
100
AcDbXrecord
 10
0.0
 20
0.0
 30
0.0
  0
XRECORD
  5
E2
102
{ACAD_REACTORS
330
D1
102
}
330
D1
100
AcDbXrecord
 10
0.0
 20
0.0
 30
0.0
  0
XRECORD
  5
E5
102
{ACAD_REACTORS
330
D1
102
}
330
D1
100
AcDbXrecord
 10
0.0
 20
0.0
 30
0.0
  0
XRECORD
  5
E3
102
{ACAD_REACTORS
330
D1
102
}
330
D1
100
AcDbXrecord
 10
0.0
 20
0.0
 30
0.0
  0
XRECORD
  5
E4
102
{ACAD_REACTORS
330
D1
102
}
330
D1
100
AcDbXrecord
 10
0.0
 20
0.0
 30
0.0
  0
XRECORD
  5
E1
102
{ACAD_REACTORS
330
D1
102
}
330
D1
100
AcDbXrecord
 10
0.0
 20
0.0
 30
0.0
  0
XRECORD
  5
DE
102
{ACAD_REACTORS
330
D1
102
}
330
D1
100
AcDbXrecord
340
0
  0
XRECORD
  5
DF
102
{ACAD_REACTORS
330
D1
102
}
330
D1
100
AcDbXrecord
 70
     0
  0
XRECORD
  5
D5
102
{ACAD_REACTORS
330
D1
102
}
330
D1
100
AcDbXrecord
  1

  0
XRECORD
  5
D2
102
{ACAD_REACTORS
330
D1
102
}
330
D1
100
AcDbXrecord
 90
        1
  0
XRECORD
  5
D3
102
{ACAD_REACTORS
330
D1
102
}
330
D1
100
AcDbXrecord
 90
       70
  0
XRECORD
  5
E9
102
{ACAD_REACTORS
330
D1
102
}
330
D1
100
AcDbXrecord
340
0
  0
XRECORD
  5
EF
102
{ACAD_REACTORS
330
D1
102
}
330
D1
100
AcDbXrecord
 10
0.0
 20
0.0
 30
0.0
  0
XRECORD
  5
EB
102
{ACAD_REACTORS
330
D1
102
}
330
D1
100
AcDbXrecord
 10
0.0
 20
0.0
 30
0.0
  0
XRECORD
  5
EE
102
{ACAD_REACTORS
330
D1
102
}
330
D1
100
AcDbXrecord
 10
0.0
 20
0.0
 30
0.0
  0
XRECORD
  5
EC
102
{ACAD_REACTORS
330
D1
102
}
330
D1
100
AcDbXrecord
 10
0.0
 20
0.0
 30
0.0
  0
XRECORD
  5
ED
102
{ACAD_REACTORS
330
D1
102
}
330
D1
100
AcDbXrecord
 10
0.0
 20
0.0
 30
0.0
  0
XRECORD
  5
EA
102
{ACAD_REACTORS
330
D1
102
}
330
D1
100
AcDbXrecord
 10
0.0
 20
0.0
 30
0.0
  0
XRECORD
  5
E7
102
{ACAD_REACTORS
330
D1
102
}
330
D1
100
AcDbXrecord
340
0
  0
XRECORD
  5
E8
102
{ACAD_REACTORS
330
D1
102
}
330
D1
100
AcDbXrecord
 70
     0
  0
XRECORD
  5
DC
102
{ACAD_REACTORS
330
D1
102
}
330
D1
100
AcDbXrecord
  1
{FAEB1C32-E019-11D5-929B-00C0DF256EC4}
  0
DICTIONARYVAR
  5
F4
102
{ACAD_REACTORS
330
F1
102
}
330
F1
100
DictionaryVariables
280
     0
  1
2
  0
DICTIONARYVAR
  5
F5
102
{ACAD_REACTORS
330
F1
102
}
330
F1
100
DictionaryVariables
280
     0
  1
1
  0
DICTIONARY
  5
F8
330
3D
100
AcDbDictionary
280
     1
  3
ACAD_XREC_ROUNDTRIP
360
F9
  0
DICTIONARY
  5
F6
330
3C
100
AcDbDictionary
280
     1
  3
ACAD_XREC_ROUNDTRIP
360
F7
  0
DICTIONARY
  5
FA
330
3E
100
AcDbDictionary
280
     1
  3
ACAD_XREC_ROUNDTRIP
360
FB
  0
XRECORD
  5
F9
102
{ACAD_REACTORS
330
F8
102
}
330
F8
100
AcDbXrecord
102
MATERIAL
148
0.0
149
0.0
149
0.0
 93
        0
 94
      127
282
     0
 72
     1
 77
     1
171
     1
175
     1
179
     1
273
     0
  0
XRECORD
  5
F7
102
{ACAD_REACTORS
330
F6
102
}
330
F6
100
AcDbXrecord
102
MATERIAL
148
0.0
149
0.0
149
0.0
 93
        0
 94
      127
282
     0
 72
     1
 77
     1
171
     1
175
     1
179
     1
273
     0
  0
XRECORD
  5
FB
102
{ACAD_REACTORS
330
FA
102
}
330
FA
100
AcDbXrecord
102
MATERIAL
148
0.0
149
0.0
149
0.0
 93
        0
 94
      127
282
     0
 72
     1
 77
     1
171
     1
175
     1
179
     1
273
     0
  0
ENDSEC
  0
EOF
