  0
SECTION
  2
HEADER
  9
$ACADVER
  1
AC1014
  9
$ACADMAINTVER
 70
     9
  9
$DWGCODEPAGE
  3
ANSI_1252
  9
$INSBASE
 10
0.0
 20
0.0
 30
0.0
  9
$EXTMIN
 10
1.000000000000000E+20
 20
1.000000000000000E+20
 30
1.000000000000000E+20
  9
$EXTMAX
 10
-1.000000000000000E+20
 20
-1.000000000000000E+20
 30
-1.000000000000000E+20
  9
$LIMMIN
 10
0.0
 20
0.0
  9
$LIMMAX
 10
12.0
 20
9.0
  9
$ORTHOMODE
 70
     0
  9
$REGENMODE
 70
     1
  9
$FILLMODE
 70
     1
  9
$QTEXTMODE
 70
     0
  9
$MIRRTEXT
 70
     1
  9
$DRAGMODE
 70
     2
  9
$LTSCALE
 40
1.0
  9
$OSMODE
 70
    37
  9
$ATTMODE
 70
     1
  9
$TEXTSIZE
 40
0.2
  9
$TRACEWID
 40
0.05
  9
$TEXTSTYLE
  7
STANDARD
  9
$CLAYER
  8
0
  9
$CELTYPE
  6
BYLAYER
  9
$CECOLOR
 62
   256
  9
$CELTSCALE
 40
1.0
  9
$DELOBJ
 70
     1
  9
$DISPSILH
 70
     0
  9
$DIMSCALE
 40
1.0
  9
$DIMASZ
 40
0.18
  9
$DIMEXO
 40
0.0625
  9
$DIMDLI
 40
0.38
  9
$DIMRND
 40
0.0
  9
$DIMDLE
 40
0.0
  9
$DIMEXE
 40
0.18
  9
$DIMTP
 40
0.0
  9
$DIMTM
 40
0.0
  9
$DIMTXT
 40
0.18
  9
$DIMCEN
 40
0.09
  9
$DIMTSZ
 40
0.0
  9
$DIMTOL
 70
     0
  9
$DIMLIM
 70
     0
  9
$DIMTIH
 70
     1
  9
$DIMTOH
 70
     1
  9
$DIMSE1
 70
     0
  9
$DIMSE2
 70
     0
  9
$DIMTAD
 70
     0
  9
$DIMZIN
 70
     0
  9
$DIMBLK
  1

  9
$DIMASO
 70
     1
  9
$DIMSHO
 70
     1
  9
$DIMPOST
  1

  9
$DIMAPOST
  1

  9
$DIMALT
 70
     0
  9
$DIMALTD
 70
     2
  9
$DIMALTF
 40
25.4
  9
$DIMLFAC
 40
1.0
  9
$DIMTOFL
 70
     0
  9
$DIMTVP
 40
0.0
  9
$DIMTIX
 70
     0
  9
$DIMSOXD
 70
     0
  9
$DIMSAH
 70
     0
  9
$DIMBLK1
  1

  9
$DIMBLK2
  1

  9
$DIMSTYLE
  2
STANDARD
  9
$DIMCLRD
 70
     0
  9
$DIMCLRE
 70
     0
  9
$DIMCLRT
 70
     0
  9
$DIMTFAC
 40
1.0
  9
$DIMGAP
 40
0.09
  9
$DIMJUST
 70
     0
  9
$DIMSD1
 70
     0
  9
$DIMSD2
 70
     0
  9
$DIMTOLJ
 70
     1
  9
$DIMTZIN
 70
     0
  9
$DIMALTZ
 70
     0
  9
$DIMALTTZ
 70
     0
  9
$DIMFIT
 70
     3
  9
$DIMUPT
 70
     0
  9
$DIMUNIT
 70
     2
  9
$DIMDEC
 70
     4
  9
$DIMTDEC
 70
     4
  9
$DIMALTU
 70
     2
  9
$DIMALTTD
 70
     2
  9
$DIMTXSTY
  7
STANDARD
  9
$DIMAUNIT
 70
     0
  9
$LUNITS
 70
     2
  9
$LUPREC
 70
     4
  9
$SKETCHINC
 40
0.1
  9
$FILLETRAD
 40
0.5
  9
$AUNITS
 70
     0
  9
$AUPREC
 70
     0
  9
$MENU
  1
.
  9
$ELEVATION
 40
0.0
  9
$PELEVATION
 40
0.0
  9
$THICKNESS
 40
0.0
  9
$LIMCHECK
 70
     0
  9
$CHAMFERA
 40
0.5
  9
$CHAMFERB
 40
0.5
  9
$CHAMFERC
 40
1.0
  9
$CHAMFERD
 40
0.0
  9
$SKPOLY
 70
     0
  9
$TDCREATE
 40
2457358.337697187
  9
$TDUPDATE
 40
2457358.337697199
  9
$TDINDWG
 40
0.0000000116
  9
$TDUSRTIMER
 40
0.0000000116
  9
$USRTIMER
 70
     1
  9
$ANGBASE
 50
0.0
  9
$ANGDIR
 70
     0
  9
$PDMODE
 70
     0
  9
$PDSIZE
 40
0.0
  9
$PLINEWID
 40
0.0
  9
$COORDS
 70
     1
  9
$SPLFRAME
 70
     0
  9
$SPLINETYPE
 70
     6
  9
$SPLINESEGS
 70
     8
  9
$ATTDIA
 70
     0
  9
$ATTREQ
 70
     1
  9
$HANDLING
 70
     1
  9
$HANDSEED
  5
160
  9
$SURFTAB1
 70
     6
  9
$SURFTAB2
 70
     6
  9
$SURFTYPE
 70
     6
  9
$SURFU
 70
     6
  9
$SURFV
 70
     6
  9
$UCSNAME
  2

  9
$UCSORG
 10
0.0
 20
0.0
 30
0.0
  9
$UCSXDIR
 10
1.0
 20
0.0
 30
0.0
  9
$UCSYDIR
 10
0.0
 20
1.0
 30
0.0
  9
$PUCSNAME
  2

  9
$PUCSORG
 10
0.0
 20
0.0
 30
0.0
  9
$PUCSXDIR
 10
1.0
 20
0.0
 30
0.0
  9
$PUCSYDIR
 10
0.0
 20
1.0
 30
0.0
  9
$USERI1
 70
     0
  9
$USERI2
 70
     0
  9
$USERI3
 70
     0
  9
$USERI4
 70
     0
  9
$USERI5
 70
     0
  9
$USERR1
 40
0.0
  9
$USERR2
 40
0.0
  9
$USERR3
 40
0.0
  9
$USERR4
 40
0.0
  9
$USERR5
 40
0.0
  9
$WORLDVIEW
 70
     1
  9
$SHADEDGE
 70
     3
  9
$SHADEDIF
 70
    70
  9
$TILEMODE
 70
     1
  9
$MAXACTVP
 70
    64
  9
$PINSBASE
 10
0.0
 20
0.0
 30
0.0
  9
$PLIMCHECK
 70
     0
  9
$PEXTMIN
 10
1.000000000000000E+20
 20
1.000000000000000E+20
 30
1.000000000000000E+20
  9
$PEXTMAX
 10
-1.000000000000000E+20
 20
-1.000000000000000E+20
 30
-1.000000000000000E+20
  9
$PLIMMIN
 10
0.0
 20
0.0
  9
$PLIMMAX
 10
12.0
 20
9.0
  9
$UNITMODE
 70
     0
  9
$VISRETAIN
 70
     1
  9
$PLINEGEN
 70
     0
  9
$PSLTSCALE
 70
     1
  9
$TREEDEPTH
 70
  3020
  9
$PICKSTYLE
 70
     1
  9
$CMLSTYLE
  2
STANDARD
  9
$CMLJUST
 70
     0
  9
$CMLSCALE
 40
1.0
  9
$PROXYGRAPHICS
 70
     1
  9
$MEASUREMENT
 70
     0
  0
ENDSEC
  0
SECTION
  2
CLASSES
  0
CLASS
  1
ACDBDICTIONARYWDFLT
  2
AcDbDictionaryWithDefault
  3
ObjectDBX Classes
 90
        0
280
     0
281
     0
  0
CLASS
  1
VISUALSTYLE
  2
AcDbVisualStyle
  3
ObjectDBX Classes
 90
     4095
280
     0
281
     0
  0
CLASS
  1
MATERIAL
  2
AcDbMaterial
  3
ObjectDBX Classes
 90
     1153
280
     0
281
     0
  0
CLASS
  1
DICTIONARYVAR
  2
AcDbDictionaryVar
  3
ObjectDBX Classes
 90
        0
280
     0
281
     0
  0
CLASS
  1
XRECORD
  2
AcDbXrecord
  3
AutoCAD 2000
 90
        0
280
     0
281
     0
  0
CLASS
  1
LWPOLYLINE
  2
AcDbPolyline
  3
AutoCAD 2000
 90
        0
280
     0
281
     1
  0
CLASS
  1
HATCH
  2
AcDbHatch
  3
AutoCAD 2000
 90
        0
280
     0
281
     1
  0
CLASS
  1
ACDBPLACEHOLDER
  2
AcDbPlaceHolder
  3
ObjectDBX Classes
 90
        0
280
     0
281
     0
  0
CLASS
  1
LAYOUT
  2
AcDbLayout
  3
ObjectDBX Classes
 90
        0
280
     0
281
     0
  0
ENDSEC
  0
SECTION
  2
TABLES
  0
TABLE
  2
VPORT
  5
8
330
0
100
AcDbSymbolTable
 70
     1
  0
VPORT
  5
29
330
8
100
AcDbSymbolTableRecord
100
AcDbViewportTableRecord
  2
*ACTIVE
 70
     0
 10
0.0
 20
0.0
 11
1.0
 21
1.0
 12
0.0
 22
0.0
 13
0.0
 23
0.0
 14
0.5
 24
0.5
 15
0.5
 25
0.5
 16
0.0
 26
0.0
 36
1.0
 17
0.0
 27
0.0
 37
-1000.0
 40
130.1295566552562
 41
1.763768115942029
 42
50.0
 43
686.5464793911381
 44
1249.268392165943
 50
0.0
 51
0.0
 71
     0
 72
   100
 73
     1
 74
     3
 75
     0
 76
     0
 77
     0
 78
     0
  0
ENDTAB
  0
TABLE
  2
LTYPE
  5
5
330
0
100
AcDbSymbolTable
 70
     1
  0
LTYPE
  5
14
330
5
100
AcDbSymbolTableRecord
100
AcDbLinetypeTableRecord
  2
BYBLOCK
 70
     0
  3

 72
    65
 73
     0
 40
0.0
  0
LTYPE
  5
15
330
5
100
AcDbSymbolTableRecord
100
AcDbLinetypeTableRecord
  2
BYLAYER
 70
     0
  3

 72
    65
 73
     0
 40
0.0
  0
LTYPE
  5
16
330
5
100
AcDbSymbolTableRecord
100
AcDbLinetypeTableRecord
  2
CONTINUOUS
 70
     0
  3
Solid line
 72
    65
 73
     0
 40
0.0
  0
ENDTAB
  0
TABLE
  2
LAYER
  5
2
330
0
100
AcDbSymbolTable
 70
     3
  0
LAYER
  5
10
330
2
100
AcDbSymbolTableRecord
100
AcDbLayerTableRecord
  2
0
 70
     0
 62
     7
  6
CONTINUOUS
  0
LAYER
  5
3F
330
2
100
AcDbSymbolTableRecord
100
AcDbLayerTableRecord
  2
PROFILEEDGES
 70
     0
 62
     7
  6
CONTINUOUS
  0
LAYER
  5
40
330
2
100
AcDbSymbolTableRecord
100
AcDbLayerTableRecord
  2
SECTIONCUTEDGES
 70
     0
 62
     7
  6
CONTINUOUS
  0
ENDTAB
  0
TABLE
  2
STYLE
  5
3
330
0
100
AcDbSymbolTable
 70
     1
  0
STYLE
  5
11
330
3
100
AcDbSymbolTableRecord
100
AcDbTextStyleTableRecord
  2
STANDARD
 70
     0
 40
0.0
 41
1.0
 50
0.0
 71
     0
 42
0.2
  3
txt
  4

  0
ENDTAB
  0
TABLE
  2
VIEW
  5
6
330
0
100
AcDbSymbolTable
 70
     0
  0
ENDTAB
  0
TABLE
  2
UCS
  5
7
330
0
100
AcDbSymbolTable
 70
     0
  0
ENDTAB
  0
TABLE
  2
APPID
  5
9
330
0
100
AcDbSymbolTable
 70
     1
  0
APPID
  5
12
330
9
100
AcDbSymbolTableRecord
100
AcDbRegAppTableRecord
  2
ACAD
 70
     0
  0
ENDTAB
  0
TABLE
  2
DIMSTYLE
  5
A
330
0
100
AcDbSymbolTable
 70
     1
  0
DIMSTYLE
105
27
330
A
100
AcDbSymbolTableRecord
100
AcDbDimStyleTableRecord
  2
STANDARD
 70
     0
  3

  4

  5

  6

  7

 40
1.0
 41
0.18
 42
0.0625
 43
0.38
 44
0.18
 45
0.0
 46
0.0
 47
0.0
 48
0.0
140
0.18
141
0.09
142
0.0
143
25.4
144
1.0
145
0.0
146
1.0
147
0.09
 71
     0
 72
     0
 73
     1
 74
     1
 75
     0
 76
     0
 77
     0
 78
     0
170
     0
171
     2
172
     0
173
     0
174
     0
175
     0
176
     0
177
     0
178
     0
270
     2
271
     4
272
     4
273
     2
274
     2
340
11
275
     0
280
     0
281
     0
282
     0
283
     1
284
     0
285
     0
286
     0
287
     3
288
     0
  0
ENDTAB
  0
TABLE
  2
BLOCK_RECORD
  5
1
330
0
100
AcDbSymbolTable
 70
     1
  0
BLOCK_RECORD
  5
1F
330
1
100
AcDbSymbolTableRecord
100
AcDbBlockTableRecord
  2
*MODEL_SPACE
  0
BLOCK_RECORD
  5
1B
330
1
100
AcDbSymbolTableRecord
100
AcDbBlockTableRecord
  2
*PAPER_SPACE
  0
ENDTAB
  0
ENDSEC
  0
SECTION
  2
BLOCKS
  0
BLOCK
  5
20
330
1F
100
AcDbEntity
  8
0
100
AcDbBlockBegin
  2
*MODEL_SPACE
 70
     0
 10
0.0
 20
0.0
 30
0.0
  3
*MODEL_SPACE
  1

  0
ENDBLK
  5
21
330
1F
100
AcDbEntity
  8
0
100
AcDbBlockEnd
  0
BLOCK
  5
1C
330
1B
100
AcDbEntity
 67
     1
  8
0
100
AcDbBlockBegin
  2
*PAPER_SPACE
 70
     0
 10
0.0
 20
0.0
 30
0.0
  3
*PAPER_SPACE
  1

  0
ENDBLK
  5
1D
330
1B
100
AcDbEntity
 67
     1
  8
0
100
AcDbBlockEnd
  0
ENDSEC
  0
SECTION
  2
ENTITIES
  0
LINE
  5
41
330
1F
100
AcDbEntity
  8
0
100
AcDbLine
 10
96.43154970858824
 20
51.92613950664446
 30
0.0
 11
96.80538018867932
 21
52.08098516152665
 31
0.0
  0
LINE
  5
42
330
1F
100
AcDbEntity
  8
0
100
AcDbLine
 10
96.80538018867932
 20
52.08098516152665
 30
0.0
 11
97.20654970858823
 21
52.13380013077862
 31
0.0
  0
LINE
  5
43
330
1F
100
AcDbEntity
  8
0
100
AcDbLine
 10
106.2065497085883
 20
58.08380013077834
 30
0.0
 11
106.2065497085883
 21
-51.91619986922168
 31
0.0
  0
LINE
  5
44
330
1F
100
AcDbEntity
  8
0
100
AcDbLine
 10
82.72194291778749
 20
-16.36479295212316
 30
0.0
 11
82.24431979139769
 21
-15.3778719838287
 31
0.0
  0
LINE
  5
45
330
1F
100
AcDbEntity
  8
0
100
AcDbLine
 10
66.20654970858834
 20
58.08380013077834
 30
0.0
 11
106.2065497085883
 21
58.08380013077834
 31
0.0
  0
LINE
  5
46
330
1F
100
AcDbEntity
  8
0
100
AcDbLine
 10
87.55182928567805
 20
-18.04439461979556
 30
0.0
 11
86.47491887240511
 21
-18.2503091902028
 31
0.0
  0
LINE
  5
47
330
1F
100
AcDbEntity
  8
0
100
AcDbLine
 10
86.47491887240511
 20
-18.2503091902028
 30
0.0
 11
85.38140867913965
 21
-18.17048246694404
 31
0.0
  0
LINE
  5
48
330
1F
100
AcDbEntity
  8
0
100
AcDbLine
 10
85.38140867913965
 20
-18.17048246694404
 30
0.0
 11
84.3458196184417
 21
-17.81035450928958
 31
0.0
  0
LINE
  5
49
330
1F
100
AcDbEntity
  8
0
100
AcDbLine
 10
84.3458196184417
 20
-17.81035450928958
 30
0.0
 11
83.43872537340596
 21
-17.19446744241393
 31
0.0
  0
LINE
  5
4A
330
1F
100
AcDbEntity
  8
0
100
AcDbLine
 10
83.43872537340596
 20
-17.19446744241393
 30
0.0
 11
82.72194291778749
 21
-16.36479295212316
 31
0.0
  0
LINE
  5
4B
330
1F
100
AcDbEntity
  8
0
100
AcDbLine
 10
89.0239463396367
 20
-10.92028966692998
 30
0.0
 11
89.74072879525514
 21
-11.74996415722076
 31
0.0
  0
LINE
  5
4C
330
1F
100
AcDbEntity
  8
0
100
AcDbLine
 10
82.24431979139769
 20
-15.3778719838287
 30
0.0
 11
82.03840522099048
 21
-14.30096157055575
 31
0.0
  0
LINE
  5
4D
330
1F
100
AcDbEntity
  8
0
100
AcDbLine
 10
82.03840522099048
 20
-14.30096157055575
 30
0.0
 11
82.11823194424922
 21
-13.20745137729028
 31
0.0
  0
LINE
  5
4E
330
1F
100
AcDbEntity
  8
0
100
AcDbLine
 10
82.11823194424922
 20
-13.20745137729028
 30
0.0
 11
82.4783599019037
 21
-12.17186231659232
 31
0.0
  0
LINE
  5
4F
330
1F
100
AcDbEntity
  8
0
100
AcDbLine
 10
82.4783599019037
 20
-12.17186231659232
 30
0.0
 11
83.09424696877934
 21
-11.26476807155657
 31
0.0
  0
LINE
  5
50
330
1F
100
AcDbEntity
  8
0
100
AcDbLine
 10
83.09424696877934
 20
-11.26476807155657
 30
0.0
 11
83.92392145907012
 21
-10.54798561593812
 31
0.0
  0
LINE
  5
51
330
1F
100
AcDbEntity
  8
0
100
AcDbLine
 10
83.92392145907012
 20
-10.54798561593812
 30
0.0
 11
84.91084242736459
 21
-10.07036248954831
 31
0.0
  0
LINE
  5
52
330
1F
100
AcDbEntity
  8
0
100
AcDbLine
 10
84.91084242736459
 20
-10.07036248954831
 30
0.0
 11
85.98775284063751
 21
-9.864447919141115
 31
0.0
  0
LINE
  5
53
330
1F
100
AcDbEntity
  8
0
100
AcDbLine
 10
85.98775284063751
 20
-9.864447919141115
 30
0.0
 11
87.08126303390297
 21
-9.94427464239985
 31
0.0
  0
LINE
  5
54
330
1F
100
AcDbEntity
  8
0
100
AcDbLine
 10
87.08126303390297
 20
-9.94427464239985
 30
0.0
 11
88.11685209460094
 21
-10.30440260005433
 31
0.0
  0
LINE
  5
55
330
1F
100
AcDbEntity
  8
0
100
AcDbLine
 10
88.11685209460094
 20
-10.30440260005433
 30
0.0
 11
89.0239463396367
 21
-10.92028966692998
 31
0.0
  0
LINE
  5
56
330
1F
100
AcDbEntity
  8
0
100
AcDbLine
 10
89.74072879525514
 20
-11.74996415722076
 30
0.0
 11
90.21835192164495
 21
-12.73688512551522
 31
0.0
  0
LINE
  5
57
330
1F
100
AcDbEntity
  8
0
100
AcDbLine
 10
90.21835192164495
 20
-12.73688512551522
 30
0.0
 11
90.42426649205214
 21
-13.81379553878817
 31
0.0
  0
LINE
  5
58
330
1F
100
AcDbEntity
  8
0
100
AcDbLine
 10
90.42426649205214
 20
-13.81379553878817
 30
0.0
 11
90.34443976879342
 21
-14.90730573205359
 31
0.0
  0
LINE
  5
59
330
1F
100
AcDbEntity
  8
0
100
AcDbLine
 10
90.34443976879342
 20
-14.90730573205359
 30
0.0
 11
89.98431181113895
 21
-15.94289479275155
 31
0.0
  0
LINE
  5
5A
330
1F
100
AcDbEntity
  8
0
100
AcDbLine
 10
89.98431181113895
 20
-15.94289479275155
 30
0.0
 11
89.36842474426328
 21
-16.8499890377873
 31
0.0
  0
LINE
  5
5B
330
1F
100
AcDbEntity
  8
0
100
AcDbLine
 10
89.36842474426328
 20
-16.8499890377873
 30
0.0
 11
88.53875025397252
 21
-17.56677149340579
 31
0.0
  0
LINE
  5
5C
330
1F
100
AcDbEntity
  8
0
100
AcDbLine
 10
88.53875025397252
 20
-17.56677149340579
 30
0.0
 11
87.55182928567805
 21
-18.04439461979556
 31
0.0
  0
LINE
  5
5D
330
1F
100
AcDbEntity
  8
0
100
AcDbLine
 10
66.20654970858834
 20
-51.91619986922168
 30
0.0
 11
66.20654970858834
 21
58.08380013077834
 31
0.0
  0
LINE
  5
5E
330
1F
100
AcDbEntity
  8
0
100
AcDbLine
 10
106.2065497085883
 20
-51.91619986922168
 30
0.0
 11
66.20654970858834
 21
-51.91619986922168
 31
0.0
  0
LINE
  5
5F
330
1F
100
AcDbEntity
  8
0
100
AcDbLine
 10
74.11053419774925
 20
-43.3201843583828
 30
0.0
 11
74.43154970858838
 21
-43.07386049335609
 31
0.0
  0
LINE
  5
60
330
1F
100
AcDbEntity
  8
0
100
AcDbLine
 10
74.43154970858838
 20
-43.07386049335609
 30
0.0
 11
74.80538018867948
 21
-42.9190148384739
 31
0.0
  0
LINE
  5
61
330
1F
100
AcDbEntity
  8
0
100
AcDbLine
 10
74.80538018867948
 20
-42.9190148384739
 30
0.0
 11
75.20654970858837
 21
-42.86619986922198
 31
0.0
  0
LINE
  5
62
330
1F
100
AcDbEntity
  8
0
100
AcDbLine
 10
75.20654970858837
 20
-42.86619986922198
 30
0.0
 11
75.60771922849729
 21
-42.9190148384739
 31
0.0
  0
LINE
  5
63
330
1F
100
AcDbEntity
  8
0
100
AcDbLine
 10
75.60771922849729
 20
-42.9190148384739
 30
0.0
 11
75.98154970858837
 21
-43.07386049335609
 31
0.0
  0
LINE
  5
64
330
1F
100
AcDbEntity
  8
0
100
AcDbLine
 10
75.98154970858837
 20
-43.07386049335609
 30
0.0
 11
76.3025652194275
 21
-43.32018435838282
 31
0.0
  0
LINE
  5
65
330
1F
100
AcDbEntity
  8
0
100
AcDbLine
 10
76.3025652194275
 20
-43.32018435838282
 30
0.0
 11
76.54888908445423
 21
-43.64119986922199
 31
0.0
  0
LINE
  5
66
330
1F
100
AcDbEntity
  8
0
100
AcDbLine
 10
76.54888908445423
 20
-43.64119986922199
 30
0.0
 11
76.70373473933641
 21
-44.01503034931306
 31
0.0
  0
LINE
  5
67
330
1F
100
AcDbEntity
  8
0
100
AcDbLine
 10
76.70373473933641
 20
-44.01503034931306
 30
0.0
 11
76.75654970858835
 21
-44.41619986922196
 31
0.0
  0
LINE
  5
68
330
1F
100
AcDbEntity
  8
0
100
AcDbLine
 10
76.75654970858835
 20
-44.41619986922196
 30
0.0
 11
76.70373473933641
 21
-44.81736938913087
 31
0.0
  0
LINE
  5
69
330
1F
100
AcDbEntity
  8
0
100
AcDbLine
 10
76.70373473933641
 20
-44.81736938913087
 30
0.0
 11
76.54888908445422
 21
-45.19119986922195
 31
0.0
  0
LINE
  5
6A
330
1F
100
AcDbEntity
  8
0
100
AcDbLine
 10
76.54888908445422
 20
-45.19119986922195
 30
0.0
 11
76.30256521942749
 21
-45.5122153800611
 31
0.0
  0
LINE
  5
6B
330
1F
100
AcDbEntity
  8
0
100
AcDbLine
 10
76.30256521942749
 20
-45.5122153800611
 30
0.0
 11
75.98154970858835
 21
-45.75853924508782
 31
0.0
  0
LINE
  5
6C
330
1F
100
AcDbEntity
  8
0
100
AcDbLine
 10
75.98154970858835
 20
-45.75853924508782
 30
0.0
 11
75.60771922849725
 21
-45.91338489996998
 31
0.0
  0
LINE
  5
6D
330
1F
100
AcDbEntity
  8
0
100
AcDbLine
 10
75.60771922849725
 20
-45.91338489996998
 30
0.0
 11
75.20654970858835
 21
-45.96619986922192
 31
0.0
  0
LINE
  5
6E
330
1F
100
AcDbEntity
  8
0
100
AcDbLine
 10
75.20654970858835
 20
-45.96619986922192
 30
0.0
 11
74.80538018867945
 21
-45.91338489996998
 31
0.0
  0
LINE
  5
6F
330
1F
100
AcDbEntity
  8
0
100
AcDbLine
 10
74.80538018867945
 20
-45.91338489996998
 30
0.0
 11
74.43154970858836
 21
-45.7585392450878
 31
0.0
  0
LINE
  5
70
330
1F
100
AcDbEntity
  8
0
100
AcDbLine
 10
74.43154970858836
 20
-45.7585392450878
 30
0.0
 11
74.11053419774922
 21
-45.51221538006108
 31
0.0
  0
LINE
  5
71
330
1F
100
AcDbEntity
  8
0
100
AcDbLine
 10
74.11053419774922
 20
-45.51221538006108
 30
0.0
 11
73.8642103327225
 21
-45.19119986922193
 31
0.0
  0
LINE
  5
72
330
1F
100
AcDbEntity
  8
0
100
AcDbLine
 10
73.8642103327225
 20
-45.19119986922193
 30
0.0
 11
73.70936467784033
 21
-44.81736938913082
 31
0.0
  0
LINE
  5
73
330
1F
100
AcDbEntity
  8
0
100
AcDbLine
 10
73.70936467784033
 20
-44.81736938913082
 30
0.0
 11
73.65654970858837
 21
-44.41619986922194
 31
0.0
  0
LINE
  5
74
330
1F
100
AcDbEntity
  8
0
100
AcDbLine
 10
73.65654970858837
 20
-44.41619986922194
 30
0.0
 11
73.70936467784034
 21
-44.01503034931304
 31
0.0
  0
LINE
  5
75
330
1F
100
AcDbEntity
  8
0
100
AcDbLine
 10
73.70936467784034
 20
-44.01503034931304
 30
0.0
 11
73.86421033272251
 21
-43.64119986922194
 31
0.0
  0
LINE
  5
76
330
1F
100
AcDbEntity
  8
0
100
AcDbLine
 10
73.86421033272251
 20
-43.64119986922194
 30
0.0
 11
74.11053419774925
 21
-43.3201843583828
 31
0.0
  0
LINE
  5
77
330
1F
100
AcDbEntity
  8
0
100
AcDbLine
 10
73.7093646778404
 20
50.18263061086959
 30
0.0
 11
73.65654970858846
 21
50.58380013077847
 31
0.0
  0
LINE
  5
78
330
1F
100
AcDbEntity
  8
0
100
AcDbLine
 10
73.65654970858846
 20
50.58380013077847
 30
0.0
 11
73.70936467784041
 21
50.98496965068735
 31
0.0
  0
LINE
  5
79
330
1F
100
AcDbEntity
  8
0
100
AcDbLine
 10
73.70936467784041
 20
50.98496965068735
 30
0.0
 11
73.86421033272259
 21
51.35880013077843
 31
0.0
  0
LINE
  5
7A
330
1F
100
AcDbEntity
  8
0
100
AcDbLine
 10
73.86421033272259
 20
51.35880013077843
 30
0.0
 11
74.11053419774932
 21
51.67981564161754
 31
0.0
  0
LINE
  5
7B
330
1F
100
AcDbEntity
  8
0
100
AcDbLine
 10
74.11053419774932
 20
51.67981564161754
 30
0.0
 11
74.43154970858845
 21
51.92613950664424
 31
0.0
  0
LINE
  5
7C
330
1F
100
AcDbEntity
  8
0
100
AcDbLine
 10
74.43154970858845
 20
51.92613950664424
 30
0.0
 11
74.80538018867952
 21
52.08098516152642
 31
0.0
  0
LINE
  5
7D
330
1F
100
AcDbEntity
  8
0
100
AcDbLine
 10
74.80538018867952
 20
52.08098516152642
 30
0.0
 11
75.20654970858841
 21
52.13380013077835
 31
0.0
  0
LINE
  5
7E
330
1F
100
AcDbEntity
  8
0
100
AcDbLine
 10
75.20654970858841
 20
52.13380013077835
 30
0.0
 11
75.60771922849729
 21
52.08098516152638
 31
0.0
  0
LINE
  5
7F
330
1F
100
AcDbEntity
  8
0
100
AcDbLine
 10
75.60771922849729
 20
52.08098516152638
 30
0.0
 11
75.98154970858836
 21
51.92613950664419
 31
0.0
  0
LINE
  5
80
330
1F
100
AcDbEntity
  8
0
100
AcDbLine
 10
75.98154970858836
 20
51.92613950664419
 30
0.0
 11
76.30256521942748
 21
51.67981564161749
 31
0.0
  0
LINE
  5
81
330
1F
100
AcDbEntity
  8
0
100
AcDbLine
 10
76.30256521942748
 20
51.67981564161749
 30
0.0
 11
76.54888908445419
 21
51.35880013077834
 31
0.0
  0
LINE
  5
82
330
1F
100
AcDbEntity
  8
0
100
AcDbLine
 10
76.54888908445419
 20
51.35880013077834
 30
0.0
 11
76.70373473933634
 21
50.98496965068726
 31
0.0
  0
LINE
  5
83
330
1F
100
AcDbEntity
  8
0
100
AcDbLine
 10
76.70373473933634
 20
50.98496965068726
 30
0.0
 11
76.75654970858827
 21
50.58380013077838
 31
0.0
  0
LINE
  5
84
330
1F
100
AcDbEntity
  8
0
100
AcDbLine
 10
76.75654970858827
 20
50.58380013077838
 30
0.0
 11
76.70373473933631
 21
50.1826306108695
 31
0.0
  0
LINE
  5
85
330
1F
100
AcDbEntity
  8
0
100
AcDbLine
 10
76.70373473933631
 20
50.1826306108695
 30
0.0
 11
76.54888908445415
 21
49.80880013077842
 31
0.0
  0
LINE
  5
86
330
1F
100
AcDbEntity
  8
0
100
AcDbLine
 10
76.54888908445415
 20
49.80880013077842
 30
0.0
 11
76.30256521942741
 21
49.48778461993931
 31
0.0
  0
LINE
  5
87
330
1F
100
AcDbEntity
  8
0
100
AcDbLine
 10
76.30256521942741
 20
49.48778461993931
 30
0.0
 11
75.98154970858828
 21
49.24146075491262
 31
0.0
  0
LINE
  5
88
330
1F
100
AcDbEntity
  8
0
100
AcDbLine
 10
75.98154970858828
 20
49.24146075491262
 30
0.0
 11
75.6077192284972
 21
49.08661510003048
 31
0.0
  0
LINE
  5
89
330
1F
100
AcDbEntity
  8
0
100
AcDbLine
 10
75.6077192284972
 20
49.08661510003048
 30
0.0
 11
75.20654970858833
 21
49.03380013077851
 31
0.0
  0
LINE
  5
8A
330
1F
100
AcDbEntity
  8
0
100
AcDbLine
 10
75.20654970858833
 20
49.03380013077851
 30
0.0
 11
74.80538018867944
 21
49.08661510003048
 31
0.0
  0
LINE
  5
8B
330
1F
100
AcDbEntity
  8
0
100
AcDbLine
 10
74.80538018867944
 20
49.08661510003048
 30
0.0
 11
74.43154970858838
 21
49.24146075491266
 31
0.0
  0
LINE
  5
8C
330
1F
100
AcDbEntity
  8
0
100
AcDbLine
 10
74.43154970858838
 20
49.24146075491266
 30
0.0
 11
74.11053419774925
 21
49.4877846199394
 31
0.0
  0
LINE
  5
8D
330
1F
100
AcDbEntity
  8
0
100
AcDbLine
 10
74.11053419774925
 20
49.4877846199394
 30
0.0
 11
73.86421033272254
 21
49.80880013077851
 31
0.0
  0
LINE
  5
8E
330
1F
100
AcDbEntity
  8
0
100
AcDbLine
 10
73.86421033272254
 20
49.80880013077851
 30
0.0
 11
73.7093646778404
 21
50.18263061086959
 31
0.0
  0
LINE
  5
8F
330
1F
100
AcDbEntity
  8
0
100
AcDbLine
 10
97.20654970858823
 20
52.13380013077862
 30
0.0
 11
97.60771922849715
 21
52.08098516152669
 31
0.0
  0
LINE
  5
90
330
1F
100
AcDbEntity
  8
0
100
AcDbLine
 10
97.60771922849715
 20
52.08098516152669
 30
0.0
 11
97.98154970858825
 21
51.92613950664451
 31
0.0
  0
LINE
  5
91
330
1F
100
AcDbEntity
  8
0
100
AcDbLine
 10
97.98154970858825
 20
51.92613950664451
 30
0.0
 11
98.30256521942742
 21
51.67981564161781
 31
0.0
  0
LINE
  5
92
330
1F
100
AcDbEntity
  8
0
100
AcDbLine
 10
98.30256521942742
 20
51.67981564161781
 30
0.0
 11
98.54888908445416
 21
51.35880013077865
 31
0.0
  0
LINE
  5
93
330
1F
100
AcDbEntity
  8
0
100
AcDbLine
 10
98.54888908445416
 20
51.35880013077865
 30
0.0
 11
98.70373473933634
 21
50.98496965068758
 31
0.0
  0
LINE
  5
94
330
1F
100
AcDbEntity
  8
0
100
AcDbLine
 10
98.70373473933634
 20
50.98496965068758
 30
0.0
 11
98.75654970858831
 21
50.58380013077865
 31
0.0
  0
LINE
  5
95
330
1F
100
AcDbEntity
  8
0
100
AcDbLine
 10
98.75654970858831
 20
50.58380013077865
 30
0.0
 11
98.70373473933638
 21
50.18263061086977
 31
0.0
  0
LINE
  5
96
330
1F
100
AcDbEntity
  8
0
100
AcDbLine
 10
98.70373473933638
 20
50.18263061086977
 30
0.0
 11
98.54888908445423
 21
49.80880013077865
 31
0.0
  0
LINE
  5
97
330
1F
100
AcDbEntity
  8
0
100
AcDbLine
 10
98.54888908445423
 20
49.80880013077865
 30
0.0
 11
98.3025652194275
 21
49.4877846199395
 31
0.0
  0
LINE
  5
98
330
1F
100
AcDbEntity
  8
0
100
AcDbLine
 10
98.3025652194275
 20
49.4877846199395
 30
0.0
 11
97.98154970858836
 21
49.24146075491275
 31
0.0
  0
LINE
  5
99
330
1F
100
AcDbEntity
  8
0
100
AcDbLine
 10
97.98154970858836
 20
49.24146075491275
 30
0.0
 11
97.60771922849727
 21
49.08661510003056
 31
0.0
  0
LINE
  5
9A
330
1F
100
AcDbEntity
  8
0
100
AcDbLine
 10
97.60771922849727
 20
49.08661510003056
 30
0.0
 11
97.20654970858837
 21
49.0338001307786
 31
0.0
  0
LINE
  5
9B
330
1F
100
AcDbEntity
  8
0
100
AcDbLine
 10
97.20654970858837
 20
49.0338001307786
 30
0.0
 11
96.80538018867946
 21
49.08661510003052
 31
0.0
  0
LINE
  5
9C
330
1F
100
AcDbEntity
  8
0
100
AcDbLine
 10
96.80538018867946
 20
49.08661510003052
 30
0.0
 11
96.43154970858835
 21
49.24146075491266
 31
0.0
  0
LINE
  5
9D
330
1F
100
AcDbEntity
  8
0
100
AcDbLine
 10
96.43154970858835
 20
49.24146075491266
 30
0.0
 11
96.11053419774919
 21
49.4877846199394
 31
0.0
  0
LINE
  5
9E
330
1F
100
AcDbEntity
  8
0
100
AcDbLine
 10
96.11053419774919
 20
49.4877846199394
 30
0.0
 11
95.86421033272245
 21
49.80880013077856
 31
0.0
  0
LINE
  5
9F
330
1F
100
AcDbEntity
  8
0
100
AcDbLine
 10
95.86421033272245
 20
49.80880013077856
 30
0.0
 11
95.70936467784026
 21
50.18263061086964
 31
0.0
  0
LINE
  5
A0
330
1F
100
AcDbEntity
  8
0
100
AcDbLine
 10
95.70936467784026
 20
50.18263061086964
 30
0.0
 11
95.65654970858829
 21
50.58380013077851
 31
0.0
  0
LINE
  5
A1
330
1F
100
AcDbEntity
  8
0
100
AcDbLine
 10
95.65654970858829
 20
50.58380013077851
 30
0.0
 11
95.70936467784021
 21
50.98496965068745
 31
0.0
  0
LINE
  5
A2
330
1F
100
AcDbEntity
  8
0
100
AcDbLine
 10
95.70936467784021
 20
50.98496965068745
 30
0.0
 11
95.86421033272238
 21
51.35880013077857
 31
0.0
  0
LINE
  5
A3
330
1F
100
AcDbEntity
  8
0
100
AcDbLine
 10
95.86421033272238
 20
51.35880013077857
 30
0.0
 11
96.1105341977491
 21
51.67981564161772
 31
0.0
  0
LINE
  5
A4
330
1F
100
AcDbEntity
  8
0
100
AcDbLine
 10
96.1105341977491
 20
51.67981564161772
 30
0.0
 11
96.43154970858824
 21
51.92613950664446
 31
0.0
  0
LINE
  5
A5
330
1F
100
AcDbEntity
  8
0
100
AcDbLine
 10
95.70936467784026
 20
-44.81736938913062
 30
0.0
 11
95.6565497085883
 21
-44.41619986922171
 31
0.0
  0
LINE
  5
A6
330
1F
100
AcDbEntity
  8
0
100
AcDbLine
 10
95.6565497085883
 20
-44.41619986922171
 30
0.0
 11
95.70936467784024
 21
-44.01503034931279
 31
0.0
  0
LINE
  5
A7
330
1F
100
AcDbEntity
  8
0
100
AcDbLine
 10
95.70936467784024
 20
-44.01503034931279
 30
0.0
 11
95.86421033272241
 21
-43.64119986922169
 31
0.0
  0
LINE
  5
A8
330
1F
100
AcDbEntity
  8
0
100
AcDbLine
 10
95.86421033272241
 20
-43.64119986922169
 30
0.0
 11
96.11053419774915
 21
-43.32018435838251
 31
0.0
  0
LINE
  5
A9
330
1F
100
AcDbEntity
  8
0
100
AcDbLine
 10
96.11053419774915
 20
-43.32018435838251
 30
0.0
 11
96.43154970858829
 21
-43.07386049335577
 31
0.0
  0
LINE
  5
AA
330
1F
100
AcDbEntity
  8
0
100
AcDbLine
 10
96.43154970858829
 20
-43.07386049335577
 30
0.0
 11
96.8053801886794
 21
-42.91901483847359
 31
0.0
  0
LINE
  5
AB
330
1F
100
AcDbEntity
  8
0
100
AcDbLine
 10
96.8053801886794
 20
-42.91901483847359
 30
0.0
 11
97.20654970858831
 21
-42.86619986922164
 31
0.0
  0
LINE
  5
AC
330
1F
100
AcDbEntity
  8
0
100
AcDbLine
 10
97.20654970858831
 20
-42.86619986922164
 30
0.0
 11
97.60771922849723
 21
-42.91901483847357
 31
0.0
  0
LINE
  5
AD
330
1F
100
AcDbEntity
  8
0
100
AcDbLine
 10
97.60771922849723
 20
-42.91901483847357
 30
0.0
 11
97.98154970858835
 21
-43.07386049335575
 31
0.0
  0
LINE
  5
AE
330
1F
100
AcDbEntity
  8
0
100
AcDbLine
 10
97.98154970858835
 20
-43.07386049335575
 30
0.0
 11
98.3025652194275
 21
-43.32018435838247
 31
0.0
  0
LINE
  5
AF
330
1F
100
AcDbEntity
  8
0
100
AcDbLine
 10
98.3025652194275
 20
-43.32018435838247
 30
0.0
 11
98.54888908445425
 21
-43.64119986922162
 31
0.0
  0
LINE
  5
B0
330
1F
100
AcDbEntity
  8
0
100
AcDbLine
 10
98.54888908445425
 20
-43.64119986922162
 30
0.0
 11
98.70373473933643
 21
-44.01503034931272
 31
0.0
  0
LINE
  5
B1
330
1F
100
AcDbEntity
  8
0
100
AcDbLine
 10
98.70373473933643
 20
-44.01503034931272
 30
0.0
 11
98.7565497085884
 21
-44.41619986922165
 31
0.0
  0
LINE
  5
B2
330
1F
100
AcDbEntity
  8
0
100
AcDbLine
 10
98.7565497085884
 20
-44.41619986922165
 30
0.0
 11
98.70373473933645
 21
-44.81736938913055
 31
0.0
  0
LINE
  5
B3
330
1F
100
AcDbEntity
  8
0
100
AcDbLine
 10
98.70373473933645
 20
-44.81736938913055
 30
0.0
 11
98.54888908445429
 21
-45.19119986922168
 31
0.0
  0
LINE
  5
B4
330
1F
100
AcDbEntity
  8
0
100
AcDbLine
 10
98.54888908445429
 20
-45.19119986922168
 30
0.0
 11
98.30256521942755
 21
-45.51221538006083
 31
0.0
  0
LINE
  5
B5
330
1F
100
AcDbEntity
  8
0
100
AcDbLine
 10
98.30256521942755
 20
-45.51221538006083
 30
0.0
 11
97.9815497085884
 21
-45.75853924508757
 31
0.0
  0
LINE
  5
B6
330
1F
100
AcDbEntity
  8
0
100
AcDbLine
 10
97.9815497085884
 20
-45.75853924508757
 30
0.0
 11
97.6077192284973
 21
-45.91338489996976
 31
0.0
  0
LINE
  5
B7
330
1F
100
AcDbEntity
  8
0
100
AcDbLine
 10
97.6077192284973
 20
-45.91338489996976
 30
0.0
 11
97.20654970858838
 21
-45.96619986922173
 31
0.0
  0
LINE
  5
B8
330
1F
100
AcDbEntity
  8
0
100
AcDbLine
 10
97.20654970858838
 20
-45.96619986922173
 30
0.0
 11
96.80538018867946
 21
-45.91338489996978
 31
0.0
  0
LINE
  5
B9
330
1F
100
AcDbEntity
  8
0
100
AcDbLine
 10
96.80538018867946
 20
-45.91338489996978
 30
0.0
 11
96.43154970858835
 21
-45.75853924508762
 31
0.0
  0
LINE
  5
BA
330
1F
100
AcDbEntity
  8
0
100
AcDbLine
 10
96.43154970858835
 20
-45.75853924508762
 30
0.0
 11
96.11053419774919
 21
-45.51221538006087
 31
0.0
  0
LINE
  5
BB
330
1F
100
AcDbEntity
  8
0
100
AcDbLine
 10
96.11053419774919
 20
-45.51221538006087
 30
0.0
 11
95.86421033272245
 21
-45.19119986922172
 31
0.0
  0
LINE
  5
BC
330
1F
100
AcDbEntity
  8
0
100
AcDbLine
 10
95.86421033272245
 20
-45.19119986922172
 30
0.0
 11
95.70936467784026
 21
-44.81736938913062
 31
0.0
  0
LINE
  5
BD
330
1F
100
AcDbEntity
  8
0
100
AcDbLine
 10
87.36653860960914
 20
19.94729825403711
 30
0.0
 11
88.04477259954002
 21
20.33887683069727
 31
0.0
  0
LINE
  5
BE
330
1F
100
AcDbEntity
  8
0
100
AcDbLine
 10
87.36653860960914
 20
19.94729825403711
 30
0.0
 11
86.61006688917402
 21
19.74460226744954
 31
0.0
  0
LINE
  5
BF
330
1F
100
AcDbEntity
  8
0
100
AcDbLine
 10
85.8269097358537
 20
19.74460226744954
 30
0.0
 11
86.61006688917402
 21
19.74460226744954
 31
0.0
  0
LINE
  5
C0
330
1F
100
AcDbEntity
  8
0
100
AcDbLine
 10
85.07043801541859
 20
19.94729825403711
 30
0.0
 11
85.8269097358537
 21
19.74460226744954
 31
0.0
  0
LINE
  5
C1
330
1F
100
AcDbEntity
  8
0
100
AcDbLine
 10
84.3922040254877
 20
20.33887683069727
 30
0.0
 11
85.07043801541859
 21
19.94729825403711
 31
0.0
  0
LINE
  5
C2
330
1F
100
AcDbEntity
  8
0
100
AcDbLine
 10
83.83842829164016
 20
20.89265256454481
 30
0.0
 11
84.3922040254877
 21
20.33887683069727
 31
0.0
  0
LINE
  5
C3
330
1F
100
AcDbEntity
  8
0
100
AcDbLine
 10
83.83842829164016
 20
20.89265256454481
 30
0.0
 11
83.44684971497999
 21
21.5708865544757
 31
0.0
  0
LINE
  5
C4
330
1F
100
AcDbEntity
  8
0
100
AcDbLine
 10
83.44684971497999
 20
21.5708865544757
 30
0.0
 11
83.24415372839242
 21
22.3273582749108
 31
0.0
  0
LINE
  5
C5
330
1F
100
AcDbEntity
  8
0
100
AcDbLine
 10
83.24415372839242
 20
22.3273582749108
 30
0.0
 11
83.24415372839242
 21
23.11051542823113
 31
0.0
  0
LINE
  5
C6
330
1F
100
AcDbEntity
  8
0
100
AcDbLine
 10
83.24415372839242
 20
23.11051542823113
 30
0.0
 11
83.44684971497999
 21
23.86698714866623
 31
0.0
  0
LINE
  5
C7
330
1F
100
AcDbEntity
  8
0
100
AcDbLine
 10
83.44684971497999
 20
23.86698714866623
 30
0.0
 11
83.83842829164016
 21
24.54522113859712
 31
0.0
  0
LINE
  5
C8
330
1F
100
AcDbEntity
  8
0
100
AcDbLine
 10
83.83842829164016
 20
24.54522113859712
 30
0.0
 11
84.3922040254877
 21
25.09899687244465
 31
0.0
  0
LINE
  5
C9
330
1F
100
AcDbEntity
  8
0
100
AcDbLine
 10
84.3922040254877
 20
25.09899687244465
 30
0.0
 11
85.07043801541859
 21
25.49057544910482
 31
0.0
  0
LINE
  5
CA
330
1F
100
AcDbEntity
  8
0
100
AcDbLine
 10
85.07043801541859
 20
25.49057544910482
 30
0.0
 11
85.8269097358537
 21
25.69327143569238
 31
0.0
  0
LINE
  5
CB
330
1F
100
AcDbEntity
  8
0
100
AcDbLine
 10
85.8269097358537
 20
25.69327143569238
 30
0.0
 11
86.610066889174
 21
25.69327143569238
 31
0.0
  0
LINE
  5
CC
330
1F
100
AcDbEntity
  8
0
100
AcDbLine
 10
86.610066889174
 20
25.69327143569238
 30
0.0
 11
87.36653860960912
 21
25.49057544910482
 31
0.0
  0
LINE
  5
CD
330
1F
100
AcDbEntity
  8
0
100
AcDbLine
 10
88.04477259954002
 20
25.0989968724447
 30
0.0
 11
87.36653860960912
 21
25.49057544910482
 31
0.0
  0
LINE
  5
CE
330
1F
100
AcDbEntity
  8
0
100
AcDbLine
 10
88.04477259954002
 20
25.0989968724447
 30
0.0
 11
88.59854833338757
 21
24.54522113859712
 31
0.0
  0
LINE
  5
CF
330
1F
100
AcDbEntity
  8
0
100
AcDbLine
 10
88.59854833338757
 20
24.54522113859712
 30
0.0
 11
88.99012691004772
 21
23.86698714866623
 31
0.0
  0
LINE
  5
D0
330
1F
100
AcDbEntity
  8
0
100
AcDbLine
 10
89.19282289663529
 20
23.11051542823113
 30
0.0
 11
88.99012691004772
 21
23.86698714866623
 31
0.0
  0
LINE
  5
D1
330
1F
100
AcDbEntity
  8
0
100
AcDbLine
 10
89.19282289663529
 20
23.11051542823113
 30
0.0
 11
89.19282289663529
 21
22.3273582749108
 31
0.0
  0
LINE
  5
D2
330
1F
100
AcDbEntity
  8
0
100
AcDbLine
 10
89.19282289663529
 20
22.3273582749108
 30
0.0
 11
88.99012691004772
 21
21.5708865544757
 31
0.0
  0
LINE
  5
D3
330
1F
100
AcDbEntity
  8
0
100
AcDbLine
 10
88.59854833338757
 20
20.89265256454481
 30
0.0
 11
88.99012691004772
 21
21.5708865544757
 31
0.0
  0
LINE
  5
D4
330
1F
100
AcDbEntity
  8
0
100
AcDbLine
 10
88.04477259954002
 20
20.33887683069727
 30
0.0
 11
88.59854833338757
 21
20.89265256454481
 31
0.0
  0
LINE
  5
D5
330
1F
100
AcDbEntity
  8
0
100
AcDbLine
 10
99.81437625294193
 20
-14.98375503359607
 30
0.0
 11
99.50040265525848
 21
-15.23898924246298
 31
0.0
  0
LINE
  5
D6
330
1F
100
AcDbEntity
  8
0
100
AcDbLine
 10
99.50040265525848
 20
-15.23898924246298
 30
0.0
 11
99.13106797426673
 21
-15.40426420982012
 31
0.0
  0
LINE
  5
D7
330
1F
100
AcDbEntity
  8
0
100
AcDbLine
 10
99.13106797426673
 20
-15.40426420982012
 30
0.0
 11
98.73154175812181
 21
-15.46831671977197
 31
0.0
  0
LINE
  5
D8
330
1F
100
AcDbEntity
  8
0
100
AcDbLine
 10
98.73154175812181
 20
-15.46831671977197
 30
0.0
 11
98.32905105820575
 21
-15.42678169961705
 31
0.0
  0
LINE
  5
D9
330
1F
100
AcDbEntity
  8
0
100
AcDbLine
 10
98.32905105820575
 20
-15.42678169961705
 30
0.0
 11
97.95102495057046
 21
-15.282489692339
 31
0.0
  0
LINE
  5
DA
330
1F
100
AcDbEntity
  8
0
100
AcDbLine
 10
97.95102495057046
 20
-15.282489692339
 30
0.0
 11
97.62322528973364
 21
-15.04527395978012
 31
0.0
  0
LINE
  5
DB
330
1F
100
AcDbEntity
  8
0
100
AcDbLine
 10
97.62322528973364
 20
-15.04527395978012
 30
0.0
 11
97.36799108086674
 21
-14.73130036209667
 31
0.0
  0
LINE
  5
DC
330
1F
100
AcDbEntity
  8
0
100
AcDbLine
 10
97.36799108086674
 20
-14.73130036209667
 30
0.0
 11
97.20271611350957
 21
-14.36196568110489
 31
0.0
  0
LINE
  5
DD
330
1F
100
AcDbEntity
  8
0
100
AcDbLine
 10
97.20271611350957
 20
-14.36196568110489
 30
0.0
 11
97.13866360355775
 21
-13.96243946495999
 31
0.0
  0
LINE
  5
DE
330
1F
100
AcDbEntity
  8
0
100
AcDbLine
 10
97.13866360355775
 20
-13.96243946495999
 30
0.0
 11
97.18019862371268
 21
-13.55994876504392
 31
0.0
  0
LINE
  5
DF
330
1F
100
AcDbEntity
  8
0
100
AcDbLine
 10
97.18019862371268
 20
-13.55994876504392
 30
0.0
 11
97.32449063099068
 21
-13.18192265740865
 31
0.0
  0
LINE
  5
E0
330
1F
100
AcDbEntity
  8
0
100
AcDbLine
 10
97.32449063099068
 20
-13.18192265740865
 30
0.0
 11
97.5617063635496
 21
-12.85412299657181
 31
0.0
  0
LINE
  5
E1
330
1F
100
AcDbEntity
  8
0
100
AcDbLine
 10
97.5617063635496
 20
-12.85412299657181
 30
0.0
 11
97.87567996123305
 21
-12.59888878770492
 31
0.0
  0
LINE
  5
E2
330
1F
100
AcDbEntity
  8
0
100
AcDbLine
 10
97.87567996123305
 20
-12.59888878770492
 30
0.0
 11
98.24501464222482
 21
-12.43361382034776
 31
0.0
  0
LINE
  5
E3
330
1F
100
AcDbEntity
  8
0
100
AcDbLine
 10
98.24501464222482
 20
-12.43361382034776
 30
0.0
 11
98.64454085836972
 21
-12.36956131039592
 31
0.0
  0
LINE
  5
E4
330
1F
100
AcDbEntity
  8
0
100
AcDbLine
 10
98.64454085836972
 20
-12.36956131039592
 30
0.0
 11
99.0470315582858
 21
-12.41109633055088
 31
0.0
  0
LINE
  5
E5
330
1F
100
AcDbEntity
  8
0
100
AcDbLine
 10
99.0470315582858
 20
-12.41109633055088
 30
0.0
 11
99.42505766592106
 21
-12.55538833782888
 31
0.0
  0
LINE
  5
E6
330
1F
100
AcDbEntity
  8
0
100
AcDbLine
 10
99.42505766592106
 20
-12.55538833782888
 30
0.0
 11
99.7528573267579
 21
-12.79260407038778
 31
0.0
  0
LINE
  5
E7
330
1F
100
AcDbEntity
  8
0
100
AcDbLine
 10
99.7528573267579
 20
-12.79260407038778
 30
0.0
 11
100.0080915356248
 21
-13.10657766807123
 31
0.0
  0
LINE
  5
E8
330
1F
100
AcDbEntity
  8
0
100
AcDbLine
 10
100.0080915356248
 20
-13.10657766807123
 30
0.0
 11
100.1733665029819
 21
-13.47591234906299
 31
0.0
  0
LINE
  5
E9
330
1F
100
AcDbEntity
  8
0
100
AcDbLine
 10
100.1733665029819
 20
-13.47591234906299
 30
0.0
 11
100.2374190129338
 21
-13.8754385652079
 31
0.0
  0
LINE
  5
EA
330
1F
100
AcDbEntity
  8
0
100
AcDbLine
 10
100.2374190129338
 20
-13.8754385652079
 30
0.0
 11
100.1958839927789
 21
-14.27792926512396
 31
0.0
  0
LINE
  5
EB
330
1F
100
AcDbEntity
  8
0
100
AcDbLine
 10
100.1958839927789
 20
-14.27792926512396
 30
0.0
 11
100.0515919855008
 21
-14.65595537275926
 31
0.0
  0
LINE
  5
EC
330
1F
100
AcDbEntity
  8
0
100
AcDbLine
 10
100.0515919855008
 20
-14.65595537275926
 30
0.0
 11
99.81437625294193
 21
-14.98375503359607
 31
0.0
  0
LINE
  5
ED
330
1F
100
AcDbEntity
  8
0
100
AcDbLine
 10
85.24897732818077
 20
-0.1879319254580706
 30
0.0
 11
85.60154196718854
 21
0.0106202591228493
 31
0.0
  0
LINE
  5
EE
330
1F
100
AcDbEntity
  8
0
100
AcDbLine
 10
85.60154196718854
 20
0.0106202591228493
 30
0.0
 11
85.99348234425867
 21
0.1111564988708169
 31
0.0
  0
LINE
  5
EF
330
1F
100
AcDbEntity
  8
0
100
AcDbLine
 10
85.99348234425867
 20
0.1111564988708169
 30
0.0
 11
86.39808837040596
 21
0.1068254151909073
 31
0.0
  0
LINE
  5
F0
330
1F
100
AcDbEntity
  8
0
100
AcDbLine
 10
86.39808837040596
 20
0.1068254151909073
 30
0.0
 11
86.78778681359151
 21
-0.0020778357214818
 31
0.0
  0
LINE
  5
F1
330
1F
100
AcDbEntity
  8
0
100
AcDbLine
 10
86.78778681359151
 20
-0.0020778357214818
 30
0.0
 11
87.13602036891938
 21
-0.20813167728785
 31
0.0
  0
LINE
  5
F2
330
1F
100
AcDbEntity
  8
0
100
AcDbLine
 10
87.13602036891938
 20
-0.20813167728785
 30
0.0
 11
87.41905749507713
 21
-0.4972938807254543
 31
0.0
  0
LINE
  5
F3
330
1F
100
AcDbEntity
  8
0
100
AcDbLine
 10
87.41905749507713
 20
-0.4972938807254543
 30
0.0
 11
87.61760967965806
 21
-0.849858519733233
 31
0.0
  0
LINE
  5
F4
330
1F
100
AcDbEntity
  8
0
100
AcDbLine
 10
87.61760967965806
 20
-0.849858519733233
 30
0.0
 11
87.718145919406
 21
-1.241798896803372
 31
0.0
  0
LINE
  5
F5
330
1F
100
AcDbEntity
  8
0
100
AcDbLine
 10
87.718145919406
 20
-1.241798896803372
 30
0.0
 11
87.71381483572611
 21
-1.646404922950637
 31
0.0
  0
LINE
  5
F6
330
1F
100
AcDbEntity
  8
0
100
AcDbLine
 10
87.71381483572611
 20
-1.646404922950637
 30
0.0
 11
87.6049115848137
 21
-2.03610336613621
 31
0.0
  0
LINE
  5
F7
330
1F
100
AcDbEntity
  8
0
100
AcDbLine
 10
87.6049115848137
 20
-2.03610336613621
 30
0.0
 11
87.39885774324736
 21
-2.384336921464079
 31
0.0
  0
LINE
  5
F8
330
1F
100
AcDbEntity
  8
0
100
AcDbLine
 10
87.39885774324736
 20
-2.384336921464079
 30
0.0
 11
87.10969553980975
 21
-2.667374047621806
 31
0.0
  0
LINE
  5
F9
330
1F
100
AcDbEntity
  8
0
100
AcDbLine
 10
87.10969553980975
 20
-2.667374047621806
 30
0.0
 11
86.75713090080198
 21
-2.865926232202725
 31
0.0
  0
LINE
  5
FA
330
1F
100
AcDbEntity
  8
0
100
AcDbLine
 10
86.75713090080198
 20
-2.865926232202725
 30
0.0
 11
86.36519052373184
 21
-2.966462471950693
 31
0.0
  0
LINE
  5
FB
330
1F
100
AcDbEntity
  8
0
100
AcDbLine
 10
86.36519052373184
 20
-2.966462471950693
 30
0.0
 11
85.96058449758456
 21
-2.962131388270784
 31
0.0
  0
LINE
  5
FC
330
1F
100
AcDbEntity
  8
0
100
AcDbLine
 10
85.96058449758456
 20
-2.962131388270784
 30
0.0
 11
85.570886054399
 21
-2.853228137358395
 31
0.0
  0
LINE
  5
FD
330
1F
100
AcDbEntity
  8
0
100
AcDbLine
 10
85.570886054399
 20
-2.853228137358395
 30
0.0
 11
85.22265249907113
 21
-2.647174295792026
 31
0.0
  0
LINE
  5
FE
330
1F
100
AcDbEntity
  8
0
100
AcDbLine
 10
85.22265249907113
 20
-2.647174295792026
 30
0.0
 11
84.9396153729134
 21
-2.3580120923544
 31
0.0
  0
LINE
  5
FF
330
1F
100
AcDbEntity
  8
0
100
AcDbLine
 10
84.9396153729134
 20
-2.3580120923544
 30
0.0
 11
84.74106318833245
 21
-2.005447453346644
 31
0.0
  0
LINE
  5
100
330
1F
100
AcDbEntity
  8
0
100
AcDbLine
 10
84.74106318833245
 20
-2.005447453346644
 30
0.0
 11
84.64052694858452
 21
-1.613507076276504
 31
0.0
  0
LINE
  5
101
330
1F
100
AcDbEntity
  8
0
100
AcDbLine
 10
84.64052694858452
 20
-1.613507076276504
 30
0.0
 11
84.64485803226441
 21
-1.208901050129239
 31
0.0
  0
LINE
  5
102
330
1F
100
AcDbEntity
  8
0
100
AcDbLine
 10
84.64485803226441
 20
-1.208901050129239
 30
0.0
 11
84.7537612831768
 21
-0.819202606943667
 31
0.0
  0
LINE
  5
103
330
1F
100
AcDbEntity
  8
0
100
AcDbLine
 10
84.7537612831768
 20
-0.819202606943667
 30
0.0
 11
84.95981512474314
 21
-0.4709690516157978
 31
0.0
  0
LINE
  5
104
330
1F
100
AcDbEntity
  8
0
100
AcDbLine
 10
84.95981512474314
 20
-0.4709690516157978
 30
0.0
 11
85.24897732818077
 21
-0.1879319254580706
 31
0.0
  0
LINE
  5
105
330
1F
100
AcDbEntity
  8
0
100
AcDbLine
 10
72.29603793473566
 20
-13.2545977507743
 30
0.0
 11
72.51992122128301
 21
-12.91754950580683
 31
0.0
  0
LINE
  5
106
330
1F
100
AcDbEntity
  8
0
100
AcDbLine
 10
72.51992122128301
 20
-12.91754950580683
 30
0.0
 11
72.82341037474954
 21
-12.64993115972598
 31
0.0
  0
LINE
  5
107
330
1F
100
AcDbEntity
  8
0
100
AcDbLine
 10
72.82341037474954
 20
-12.64993115972598
 30
0.0
 11
73.18582311086604
 21
-12.46998046055685
 31
0.0
  0
LINE
  5
108
330
1F
100
AcDbEntity
  8
0
100
AcDbLine
 10
73.18582311086604
 20
-12.46998046055685
 30
0.0
 11
73.58246160058152
 21
-12.38996075106529
 31
0.0
  0
LINE
  5
109
330
1F
100
AcDbEntity
  8
0
100
AcDbLine
 10
73.58246160058152
 20
-12.38996075106529
 30
0.0
 11
73.98629558629798
 21
-12.41532524221433
 31
0.0
  0
LINE
  5
10A
330
1F
100
AcDbEntity
  8
0
100
AcDbLine
 10
73.98629558629798
 20
-12.41532524221433
 30
0.0
 11
74.36980444925607
 21
-12.54434538584895
 31
0.0
  0
LINE
  5
10B
330
1F
100
AcDbEntity
  8
0
100
AcDbLine
 10
74.36980444925607
 20
-12.54434538584895
 30
0.0
 11
74.70685269422351
 21
-12.7682286723963
 31
0.0
  0
LINE
  5
10C
330
1F
100
AcDbEntity
  8
0
100
AcDbLine
 10
74.70685269422351
 20
-12.7682286723963
 30
0.0
 11
74.9744710403044
 21
-13.07171782586281
 31
0.0
  0
LINE
  5
10D
330
1F
100
AcDbEntity
  8
0
100
AcDbLine
 10
74.9744710403044
 20
-13.07171782586281
 30
0.0
 11
75.1544217394735
 21
-13.4341305619793
 31
0.0
  0
LINE
  5
10E
330
1F
100
AcDbEntity
  8
0
100
AcDbLine
 10
75.1544217394735
 20
-13.4341305619793
 30
0.0
 11
75.23444144896506
 21
-13.83076905169479
 31
0.0
  0
LINE
  5
10F
330
1F
100
AcDbEntity
  8
0
100
AcDbLine
 10
75.23444144896506
 20
-13.83076905169479
 30
0.0
 11
75.20907695781604
 21
-14.23460303741127
 31
0.0
  0
LINE
  5
110
330
1F
100
AcDbEntity
  8
0
100
AcDbLine
 10
75.20907695781604
 20
-14.23460303741127
 30
0.0
 11
75.08005681418143
 21
-14.61811190036934
 31
0.0
  0
LINE
  5
111
330
1F
100
AcDbEntity
  8
0
100
AcDbLine
 10
75.08005681418143
 20
-14.61811190036934
 30
0.0
 11
74.85617352763407
 21
-14.95516014533681
 31
0.0
  0
LINE
  5
112
330
1F
100
AcDbEntity
  8
0
100
AcDbLine
 10
74.85617352763407
 20
-14.95516014533681
 30
0.0
 11
74.55268437416755
 21
-15.22277849141767
 31
0.0
  0
LINE
  5
113
330
1F
100
AcDbEntity
  8
0
100
AcDbLine
 10
74.55268437416755
 20
-15.22277849141767
 30
0.0
 11
74.19027163805106
 21
-15.40272919058678
 31
0.0
  0
LINE
  5
114
330
1F
100
AcDbEntity
  8
0
100
AcDbLine
 10
74.19027163805106
 20
-15.40272919058678
 30
0.0
 11
73.79363314833557
 21
-15.48274890007835
 31
0.0
  0
LINE
  5
115
330
1F
100
AcDbEntity
  8
0
100
AcDbLine
 10
73.79363314833557
 20
-15.48274890007835
 30
0.0
 11
73.38979916261913
 21
-15.45738440892932
 31
0.0
  0
LINE
  5
116
330
1F
100
AcDbEntity
  8
0
100
AcDbLine
 10
73.38979916261913
 20
-15.45738440892932
 30
0.0
 11
73.00629029966103
 21
-15.32836426529471
 31
0.0
  0
LINE
  5
117
330
1F
100
AcDbEntity
  8
0
100
AcDbLine
 10
73.00629029966103
 20
-15.32836426529471
 30
0.0
 11
72.66924205469357
 21
-15.10448097874735
 31
0.0
  0
LINE
  5
118
330
1F
100
AcDbEntity
  8
0
100
AcDbLine
 10
72.66924205469357
 20
-15.10448097874735
 30
0.0
 11
72.40162370861269
 21
-14.80099182528083
 31
0.0
  0
LINE
  5
119
330
1F
100
AcDbEntity
  8
0
100
AcDbLine
 10
72.40162370861269
 20
-14.80099182528083
 30
0.0
 11
72.22167300944358
 21
-14.43857908916433
 31
0.0
  0
LINE
  5
11A
330
1F
100
AcDbEntity
  8
0
100
AcDbLine
 10
72.22167300944358
 20
-14.43857908916433
 30
0.0
 11
72.14165329995204
 21
-14.04194059944885
 31
0.0
  0
LINE
  5
11B
330
1F
100
AcDbEntity
  8
0
100
AcDbLine
 10
72.14165329995204
 20
-14.04194059944885
 30
0.0
 11
72.16701779110106
 21
-13.63810661373241
 31
0.0
  0
LINE
  5
11C
330
1F
100
AcDbEntity
  8
0
100
AcDbLine
 10
72.16701779110106
 20
-13.63810661373241
 30
0.0
 11
72.29603793473566
 21
-13.2545977507743
 31
0.0
  0
LINE
  5
11D
330
1F
100
AcDbEntity
  8
0
100
AcDbLine
 10
84.85441287284317
 20
-27.20264085411582
 30
0.0
 11
84.69956721796099
 21
-26.82881037402475
 31
0.0
  0
LINE
  5
11E
330
1F
100
AcDbEntity
  8
0
100
AcDbLine
 10
84.69956721796099
 20
-26.82881037402475
 30
0.0
 11
84.64675224870905
 21
-26.42764085411582
 31
0.0
  0
LINE
  5
11F
330
1F
100
AcDbEntity
  8
0
100
AcDbLine
 10
84.64675224870905
 20
-26.42764085411582
 30
0.0
 11
84.69956721796099
 21
-26.02647133420693
 31
0.0
  0
LINE
  5
120
330
1F
100
AcDbEntity
  8
0
100
AcDbLine
 10
84.69956721796099
 20
-26.02647133420693
 30
0.0
 11
84.85441287284317
 21
-25.65264085411582
 31
0.0
  0
LINE
  5
121
330
1F
100
AcDbEntity
  8
0
100
AcDbLine
 10
84.85441287284317
 20
-25.65264085411582
 30
0.0
 11
85.10073673786991
 21
-25.33162534327668
 31
0.0
  0
LINE
  5
122
330
1F
100
AcDbEntity
  8
0
100
AcDbLine
 10
85.10073673786991
 20
-25.33162534327668
 30
0.0
 11
85.42175224870905
 21
-25.08530147824996
 31
0.0
  0
LINE
  5
123
330
1F
100
AcDbEntity
  8
0
100
AcDbLine
 10
85.42175224870905
 20
-25.08530147824996
 30
0.0
 11
85.79558272880014
 21
-24.93045582336778
 31
0.0
  0
LINE
  5
124
330
1F
100
AcDbEntity
  8
0
100
AcDbLine
 10
85.79558272880014
 20
-24.93045582336778
 30
0.0
 11
86.19675224870905
 21
-24.87764085411583
 31
0.0
  0
LINE
  5
125
330
1F
100
AcDbEntity
  8
0
100
AcDbLine
 10
86.19675224870905
 20
-24.87764085411583
 30
0.0
 11
86.59792176861795
 21
-24.93045582336778
 31
0.0
  0
LINE
  5
126
330
1F
100
AcDbEntity
  8
0
100
AcDbLine
 10
86.59792176861795
 20
-24.93045582336778
 30
0.0
 11
86.97175224870905
 21
-25.08530147824996
 31
0.0
  0
LINE
  5
127
330
1F
100
AcDbEntity
  8
0
100
AcDbLine
 10
86.97175224870905
 20
-25.08530147824996
 30
0.0
 11
87.29276775954821
 21
-25.33162534327668
 31
0.0
  0
LINE
  5
128
330
1F
100
AcDbEntity
  8
0
100
AcDbLine
 10
87.29276775954821
 20
-25.33162534327668
 30
0.0
 11
87.53909162457492
 21
-25.65264085411582
 31
0.0
  0
LINE
  5
129
330
1F
100
AcDbEntity
  8
0
100
AcDbLine
 10
87.53909162457492
 20
-25.65264085411582
 30
0.0
 11
87.69393727945712
 21
-26.02647133420693
 31
0.0
  0
LINE
  5
12A
330
1F
100
AcDbEntity
  8
0
100
AcDbLine
 10
87.69393727945712
 20
-26.02647133420693
 30
0.0
 11
87.74675224870906
 21
-26.42764085411582
 31
0.0
  0
LINE
  5
12B
330
1F
100
AcDbEntity
  8
0
100
AcDbLine
 10
87.74675224870906
 20
-26.42764085411582
 30
0.0
 11
87.69393727945712
 21
-26.82881037402475
 31
0.0
  0
LINE
  5
12C
330
1F
100
AcDbEntity
  8
0
100
AcDbLine
 10
87.69393727945712
 20
-26.82881037402475
 30
0.0
 11
87.53909162457494
 21
-27.20264085411582
 31
0.0
  0
LINE
  5
12D
330
1F
100
AcDbEntity
  8
0
100
AcDbLine
 10
87.53909162457494
 20
-27.20264085411582
 30
0.0
 11
87.29276775954821
 21
-27.52365636495498
 31
0.0
  0
LINE
  5
12E
330
1F
100
AcDbEntity
  8
0
100
AcDbLine
 10
87.29276775954821
 20
-27.52365636495498
 30
0.0
 11
86.97175224870905
 21
-27.76998022998172
 31
0.0
  0
LINE
  5
12F
330
1F
100
AcDbEntity
  8
0
100
AcDbLine
 10
86.97175224870905
 20
-27.76998022998172
 30
0.0
 11
86.59792176861797
 21
-27.92482588486388
 31
0.0
  0
LINE
  5
130
330
1F
100
AcDbEntity
  8
0
100
AcDbLine
 10
86.59792176861797
 20
-27.92482588486388
 30
0.0
 11
86.19675224870905
 21
-27.97764085411583
 31
0.0
  0
LINE
  5
131
330
1F
100
AcDbEntity
  8
0
100
AcDbLine
 10
86.19675224870905
 20
-27.97764085411583
 30
0.0
 11
85.79558272880014
 21
-27.92482588486388
 31
0.0
  0
LINE
  5
132
330
1F
100
AcDbEntity
  8
0
100
AcDbLine
 10
85.79558272880014
 20
-27.92482588486388
 30
0.0
 11
85.42175224870905
 21
-27.76998022998172
 31
0.0
  0
LINE
  5
133
330
1F
100
AcDbEntity
  8
0
100
AcDbLine
 10
85.42175224870905
 20
-27.76998022998172
 30
0.0
 11
85.10073673786991
 21
-27.52365636495498
 31
0.0
  0
LINE
  5
134
330
1F
100
AcDbEntity
  8
0
100
AcDbLine
 10
85.10073673786991
 20
-27.52365636495498
 30
0.0
 11
84.85441287284317
 21
-27.20264085411582
 31
0.0
  0
ENDSEC
  0
SECTION
  2
OBJECTS
  0
DICTIONARY
  5
C
330
0
100
AcDbDictionary
  3
ACAD_GROUP
350
D
  3
ACAD_LAYOUT
350
1A
  3
ACAD_MATERIAL
350
3B
  3
ACAD_MLEADERSTYLE
350
157
  3
ACAD_MLINESTYLE
350
17
  3
ACAD_PLOTSETTINGS
350
19
  3
ACAD_VISUALSTYLE
350
2A
  3
ACDBHEADERROUNDTRIPXREC
350
135
  3
ACDBVARIABLEDICTIONARY
350
155
  0
DICTIONARY
  5
D
102
{ACAD_REACTORS
330
C
102
}
330
C
100
AcDbDictionary
  0
DICTIONARY
  5
1A
102
{ACAD_REACTORS
330
C
102
}
330
C
100
AcDbDictionary
  0
DICTIONARY
  5
3B
102
{ACAD_REACTORS
330
C
102
}
330
C
100
AcDbDictionary
  3
BYBLOCK
350
3D
  3
BYLAYER
350
3C
  3
GLOBAL
350
3E
  0
DICTIONARY
  5
157
102
{ACAD_REACTORS
330
C
102
}
330
C
100
AcDbDictionary
  0
DICTIONARY
  5
17
102
{ACAD_REACTORS
330
C
102
}
330
C
100
AcDbDictionary
  3
STANDARD
350
18
  0
DICTIONARY
  5
19
102
{ACAD_REACTORS
330
C
102
}
330
C
100
AcDbDictionary
  0
DICTIONARY
  5
2A
102
{ACAD_REACTORS
330
C
102
}
330
C
100
AcDbDictionary
  3
2DWIREFRAME
350
2F
  3
3D_HIDDEN
350
31
  3
3DWIREFRAME
350
30
  3
BASIC
350
32
  3
BRIGHTEN
350
36
  3
COLORCHANGE
350
3A
  3
CONCEPTUAL
350
34
  3
DIM
350
35
  3
FACEPATTERN
350
39
  3
FLAT
350
2B
  3
FLATWITHEDGES
350
2C
  3
GOURAUD
350
2D
  3
GOURAUDWITHEDGES
350
2E
  3
LINEPATTERN
350
38
  3
REALISTIC
350
33
  3
THICKEN
350
37
  0
DICTIONARY
  5
135
102
{ACAD_REACTORS
330
C
102
}
330
C
100
AcDbDictionary
  3
CEPSNTYPE
350
13E
  3
DIMSTYLEDATA
350
154
  3
FINGERPRINTGUID
350
13F
  3
HYPERLINKBASE
350
138
  3
INSUNITS
350
13D
  3
LAYOUTDICT
350
13A
  3
LWETCUNION
350
13C
  3
PLOTSETDICT
350
13B
  3
PSVPSCALE
350
141
  3
PUCSBASE
350
144
  3
PUCSORGBACK
350
14A
  3
PUCSORGBOTTOM
350
146
  3
PUCSORGFRONT
350
149
  3
PUCSORGLEFT
350
147
  3
PUCSORGRIGHT
350
148
  3
PUCSORGTOP
350
145
  3
PUCSORTHOREF
350
142
  3
PUCSORTHOVIEW
350
143
  3
STYLESHEET
350
139
  3
TSTACKALIGN
350
136
  3
TSTACKSIZE
350
137
  3
UCSBASE
350
14D
  3
UCSORGBACK
350
153
  3
UCSORGBOTTOM
350
14F
  3
UCSORGFRONT
350
152
  3
UCSORGLEFT
350
150
  3
UCSORGRIGHT
350
151
  3
UCSORGTOP
350
14E
  3
UCSORTHOREF
350
14B
  3
UCSORTHOVIEW
350
14C
  3
VERSIONGUID
350
140
  0
DICTIONARY
  5
155
102
{ACAD_REACTORS
330
C
102
}
330
C
100
AcDbDictionary
  3
DIMASSOC
350
158
  3
HIDETEXT
350
159
  0
MATERIAL
  5
3D
102
{ACAD_REACTORS
330
3B
102
}
102
{ACAD_XDICTIONARY
360
15C
102
}
330
3B
100
AcDbMaterial
  1
ByBlock
  0
MATERIAL
  5
3C
102
{ACAD_REACTORS
330
3B
102
}
102
{ACAD_XDICTIONARY
360
15A
102
}
330
3B
100
AcDbMaterial
  1
ByLayer
  0
MATERIAL
  5
3E
102
{ACAD_REACTORS
330
3B
102
}
102
{ACAD_XDICTIONARY
360
15E
102
}
330
3B
100
AcDbMaterial
  1
Global
  0
MLINESTYLE
  5
18
102
{ACAD_REACTORS
330
17
102
}
330
17
100
AcDbMlineStyle
  2
Standard
 70
     0
  3

 62
   256
 51
90.0
 52
90.0
 71
     2
 49
0.5
 62
   256
  6
BYLAYER
 49
-0.5
 62
   256
  6
BYLAYER
  0
ACAD_PROXY_OBJECT
  5
2F
102
{ACAD_REACTORS
330
2A
102
}
330
2A
100
AcDbProxyObject
 90
      499
 91
      501
 93
      436
310
42CC9915DA5C99599C985B595049028333333333333E3BF0000000000000FB0107901411070040501600405405064090741402480A0340
1001
ACAD
1000
AcDbSavedByObjectVersion
1070
     0
  0
ACAD_PROXY_OBJECT
  5
31
102
{ACAD_REACTORS
330
2A
102
}
330
2A
100
AcDbProxyObject
 90
      499
 91
      501
 93
      500
310
424CD108121A5919195B90640502408333333333333E3BF0000000000000FB01079024090700405020000000000001110200405405064090740C02480A0340
1001
ACAD
1000
AcDbSavedByObjectVersion
1070
     0
  0
ACAD_PROXY_OBJECT
  5
30
102
{ACAD_REACTORS
330
2A
102
}
330
2A
100
AcDbProxyObject
 90
      499
 91
      501
 93
      436
310
42CCD915DA5C99599C985B595059028333333333333E3BF0000000000000FB0107901411070040501600405405064090741402480A0340
1001
ACAD
1000
AcDbSavedByObjectVersion
1070
     0
  0
ACAD_PROXY_OBJECT
  5
32
102
{ACAD_REACTORS
330
2A
102
}
330
2A
100
AcDbProxyObject
 90
      499
 91
      501
 93
      388
310
4150985CDA58D07406404333333333333E3BF0000000000000FB0107A41107004050150841D405064090741402480A0350
1001
ACAD
1000
AcDbSavedByObjectVersion
1070
     0
  0
ACAD_PROXY_OBJECT
  5
36
102
{ACAD_REACTORS
330
2A
102
}
330
2A
100
AcDbProxyObject
 90
      499
 91
      501
 93
      428
310
42109C9A59DA1D195B90C409028333333333333E3BF0000000000000FB010790141107004050150841D405064090741402480A029950
1001
ACAD
1000
AcDbSavedByObjectVersion
1070
     0
  0
ACAD_PROXY_OBJECT
  5
3A
102
{ACAD_REACTORS
330
2A
102
}
330
2A
100
AcDbProxyObject
 90
      499
 91
      501
 93
      452
310
42D0DBDB1BDC90DA185B99D95104090240C333333333333E3BF0000000000000FB0108901411070040501508421405064090741402480A0350
1001
ACAD
1000
AcDbSavedByObjectVersion
1070
     0
  0
ACAD_PROXY_OBJECT
  5
34
102
{ACAD_REACTORS
330
2A
102
}
330
2A
100
AcDbProxyObject
 90
      499
 91
      501
 93
      500
310
4290DBDB98D95C1D1D585B10940D028333333333333E3BF0000000000000FB0107902409070040501000000000000111010841D405064090740C02480A0340
1001
ACAD
1000
AcDbSavedByObjectVersion
1070
     0
  0
ACAD_PROXY_OBJECT
  5
35
102
{ACAD_REACTORS
330
2A
102
}
330
2A
100
AcDbProxyObject
 90
      499
 91
      501
 93
      412
310
40D11A5B50B409028333333333333E3BF0000000000000FB010790141107004050150841D405064090741402480A02677FFFFFD0
1001
ACAD
1000
AcDbSavedByObjectVersion
1070
     0
  0
ACAD_PROXY_OBJECT
  5
39
102
{ACAD_REACTORS
330
2A
102
}
330
2A
100
AcDbProxyObject
 90
      499
 91
      501
 93
      444
310
42D19858D95C185D1D195C9B90F409028333333333333E3BF0000000000000FB010790141107004050150841D405064090741402480A0350
1001
ACAD
1000
AcDbSavedByObjectVersion
1070
     0
  0
ACAD_PROXY_OBJECT
  5
2B
102
{ACAD_REACTORS
330
2A
102
}
330
2A
100
AcDbProxyObject
 90
      499
 91
      501
 93
      388
310
41119B185D240901404333333333333E3BF0000000000000F9010740A41107004050150841D405064090741402480A1B50
1001
ACAD
1000
AcDbSavedByObjectVersion
1070
     0
  0
ACAD_PROXY_OBJECT
  5
2C
102
{ACAD_REACTORS
330
2A
102
}
330
2A
100
AcDbProxyObject
 90
      499
 91
      501
 93
      476
310
43519B185D15DA5D1A115919D95CD0140901404333333333333E3BF0000000000000F9010740901411070040501600405405064090741402480A1B50
1001
ACAD
1000
AcDbSavedByObjectVersion
1070
     0
  0
ACAD_PROXY_OBJECT
  5
2D
102
{ACAD_REACTORS
330
2A
102
}
330
2A
100
AcDbProxyObject
 90
      499
 91
      501
 93
      412
310
41D1DBDD5C985D5910240902404333333333333E3BF0000000000000F9010740A411070040501641D405064090741402480A1B50
1001
ACAD
1000
AcDbSavedByObjectVersion
1070
     0
  0
ACAD_PROXY_OBJECT
  5
2E
102
{ACAD_REACTORS
330
2A
102
}
330
2A
100
AcDbProxyObject
 90
      499
 91
      501
 93
      500
310
4411DBDD5C985D5915DA5D1A115919D95CD0340902404333333333333E3BF0000000000000F9010740901411070040501600405405064090741402480A1B50
1001
ACAD
1000
AcDbSavedByObjectVersion
1070
     0
  0
ACAD_PROXY_OBJECT
  5
38
102
{ACAD_REACTORS
330
2A
102
}
330
2A
100
AcDbProxyObject
 90
      499
 91
      501
 93
      444
310
42D31A5B995C185D1D195C9B90E409028333333333333E3BF0000000000000FB010790141107004050750841D405064090741402483A0350
1001
ACAD
1000
AcDbSavedByObjectVersion
1070
     0
  0
ACAD_PROXY_OBJECT
  5
33
102
{ACAD_REACTORS
330
2A
102
}
330
2A
100
AcDbProxyObject
 90
      499
 91
      501
 93
      420
310
425499585B1A5CDD1A58D08409028333333333333E3BF0000000000000FB01079019070040501508421405064090741402480A1B40
1001
ACAD
1000
AcDbSavedByObjectVersion
1070
     0
  0
ACAD_PROXY_OBJECT
  5
37
102
{ACAD_REACTORS
330
2A
102
}
330
2A
100
AcDbProxyObject
 90
      499
 91
      501
 93
      412
310
41D51A1A58DAD95B90D409028333333333333E3BF0000000000000FB010790141107004050150C41D405064090741402480A0350
1001
ACAD
1000
AcDbSavedByObjectVersion
1070
     0
  0
XRECORD
  5
13E
102
{ACAD_REACTORS
330
135
102
}
330
135
100
AcDbXrecord
 90
        0
  0
XRECORD
  5
154
102
{ACAD_REACTORS
330
135
102
}
330
135
100
AcDbXrecord
1000
DSTYLE
1002
{
1070
   340
340
11
1002
}
  0
XRECORD
  5
13F
102
{ACAD_REACTORS
330
135
102
}
330
135
100
AcDbXrecord
  1
{EAABE049-57C8-4162-995A-450EFD51D11F}
  0
XRECORD
  5
138
102
{ACAD_REACTORS
330
135
102
}
330
135
100
AcDbXrecord
  1

  0
XRECORD
  5
13D
102
{ACAD_REACTORS
330
135
102
}
330
135
100
AcDbXrecord
 90
        1
  0
XRECORD
  5
13A
102
{ACAD_REACTORS
330
135
102
}
330
135
100
AcDbXrecord
340
1A
  0
XRECORD
  5
13C
102
{ACAD_REACTORS
330
135
102
}
330
135
100
AcDbXrecord
 90
    10781
  0
XRECORD
  5
13B
102
{ACAD_REACTORS
330
135
102
}
330
135
100
AcDbXrecord
340
19
  0
XRECORD
  5
141
102
{ACAD_REACTORS
330
135
102
}
330
135
100
AcDbXrecord
 40
0.0
  0
XRECORD
  5
144
102
{ACAD_REACTORS
330
135
102
}
330
135
100
AcDbXrecord
340
0
  0
XRECORD
  5
14A
102
{ACAD_REACTORS
330
135
102
}
330
135
100
AcDbXrecord
 10
0.0
 20
0.0
 30
0.0
  0
XRECORD
  5
146
102
{ACAD_REACTORS
330
135
102
}
330
135
100
AcDbXrecord
 10
0.0
 20
0.0
 30
0.0
  0
XRECORD
  5
149
102
{ACAD_REACTORS
330
135
102
}
330
135
100
AcDbXrecord
 10
0.0
 20
0.0
 30
0.0
  0
XRECORD
  5
147
102
{ACAD_REACTORS
330
135
102
}
330
135
100
AcDbXrecord
 10
0.0
 20
0.0
 30
0.0
  0
XRECORD
  5
148
102
{ACAD_REACTORS
330
135
102
}
330
135
100
AcDbXrecord
 10
0.0
 20
0.0
 30
0.0
  0
XRECORD
  5
145
102
{ACAD_REACTORS
330
135
102
}
330
135
100
AcDbXrecord
 10
0.0
 20
0.0
 30
0.0
  0
XRECORD
  5
142
102
{ACAD_REACTORS
330
135
102
}
330
135
100
AcDbXrecord
340
0
  0
XRECORD
  5
143
102
{ACAD_REACTORS
330
135
102
}
330
135
100
AcDbXrecord
 70
     0
  0
XRECORD
  5
139
102
{ACAD_REACTORS
330
135
102
}
330
135
100
AcDbXrecord
  1

  0
XRECORD
  5
136
102
{ACAD_REACTORS
330
135
102
}
330
135
100
AcDbXrecord
 90
        1
  0
XRECORD
  5
137
102
{ACAD_REACTORS
330
135
102
}
330
135
100
AcDbXrecord
 90
       70
  0
XRECORD
  5
14D
102
{ACAD_REACTORS
330
135
102
}
330
135
100
AcDbXrecord
340
0
  0
XRECORD
  5
153
102
{ACAD_REACTORS
330
135
102
}
330
135
100
AcDbXrecord
 10
0.0
 20
0.0
 30
0.0
  0
XRECORD
  5
14F
102
{ACAD_REACTORS
330
135
102
}
330
135
100
AcDbXrecord
 10
0.0
 20
0.0
 30
0.0
  0
XRECORD
  5
152
102
{ACAD_REACTORS
330
135
102
}
330
135
100
AcDbXrecord
 10
0.0
 20
0.0
 30
0.0
  0
XRECORD
  5
150
102
{ACAD_REACTORS
330
135
102
}
330
135
100
AcDbXrecord
 10
0.0
 20
0.0
 30
0.0
  0
XRECORD
  5
151
102
{ACAD_REACTORS
330
135
102
}
330
135
100
AcDbXrecord
 10
0.0
 20
0.0
 30
0.0
  0
XRECORD
  5
14E
102
{ACAD_REACTORS
330
135
102
}
330
135
100
AcDbXrecord
 10
0.0
 20
0.0
 30
0.0
  0
XRECORD
  5
14B
102
{ACAD_REACTORS
330
135
102
}
330
135
100
AcDbXrecord
340
0
  0
XRECORD
  5
14C
102
{ACAD_REACTORS
330
135
102
}
330
135
100
AcDbXrecord
 70
     0
  0
XRECORD
  5
140
102
{ACAD_REACTORS
330
135
102
}
330
135
100
AcDbXrecord
  1
{FAEB1C32-E019-11D5-929B-00C0DF256EC4}
  0
DICTIONARYVAR
  5
158
102
{ACAD_REACTORS
330
155
102
}
330
155
100
DictionaryVariables
280
     0
  1
2
  0
DICTIONARYVAR
  5
159
102
{ACAD_REACTORS
330
155
102
}
330
155
100
DictionaryVariables
280
     0
  1
1
  0
DICTIONARY
  5
15C
330
3D
100
AcDbDictionary
280
     1
  3
ACAD_XREC_ROUNDTRIP
360
15D
  0
DICTIONARY
  5
15A
330
3C
100
AcDbDictionary
280
     1
  3
ACAD_XREC_ROUNDTRIP
360
15B
  0
DICTIONARY
  5
15E
330
3E
100
AcDbDictionary
280
     1
  3
ACAD_XREC_ROUNDTRIP
360
15F
  0
XRECORD
  5
15D
102
{ACAD_REACTORS
330
15C
102
}
330
15C
100
AcDbXrecord
102
MATERIAL
148
0.0
149
0.0
149
0.0
 93
        0
 94
      127
282
     0
 72
     1
 77
     1
171
     1
175
     1
179
     1
273
     0
  0
XRECORD
  5
15B
102
{ACAD_REACTORS
330
15A
102
}
330
15A
100
AcDbXrecord
102
MATERIAL
148
0.0
149
0.0
149
0.0
 93
        0
 94
      127
282
     0
 72
     1
 77
     1
171
     1
175
     1
179
     1
273
     0
  0
XRECORD
  5
15F
102
{ACAD_REACTORS
330
15E
102
}
330
15E
100
AcDbXrecord
102
MATERIAL
148
0.0
149
0.0
149
0.0
 93
        0
 94
      127
282
     0
 72
     1
 77
     1
171
     1
175
     1
179
     1
273
     0
  0
ENDSEC
  0
EOF
