  0
SECTION
  2
HEADER
  9
$ACADVER
  1
AC1014
  9
$ACADMAINTVER
 70
     9
  9
$DWGCODEPAGE
  3
ANSI_1252
  9
$INSBASE
 10
0.0
 20
0.0
 30
0.0
  9
$EXTMIN
 10
1.000000000000000E+20
 20
1.000000000000000E+20
 30
1.000000000000000E+20
  9
$EXTMAX
 10
-1.000000000000000E+20
 20
-1.000000000000000E+20
 30
-1.000000000000000E+20
  9
$LIMMIN
 10
0.0
 20
0.0
  9
$LIMMAX
 10
12.0
 20
9.0
  9
$ORTHOMODE
 70
     0
  9
$REGENMODE
 70
     1
  9
$FILLMODE
 70
     1
  9
$QTEXTMODE
 70
     0
  9
$MIRRTEXT
 70
     1
  9
$DRAGMODE
 70
     2
  9
$LTSCALE
 40
1.0
  9
$OSMODE
 70
    37
  9
$ATTMODE
 70
     1
  9
$TEXTSIZE
 40
0.2
  9
$TRACEWID
 40
0.05
  9
$TEXTSTYLE
  7
STANDARD
  9
$CLAYER
  8
0
  9
$CELTYPE
  6
BYLAYER
  9
$CECOLOR
 62
   256
  9
$CELTSCALE
 40
1.0
  9
$DELOBJ
 70
     1
  9
$DISPSILH
 70
     0
  9
$DIMSCALE
 40
1.0
  9
$DIMASZ
 40
0.18
  9
$DIMEXO
 40
0.0625
  9
$DIMDLI
 40
0.38
  9
$DIMRND
 40
0.0
  9
$DIMDLE
 40
0.0
  9
$DIMEXE
 40
0.18
  9
$DIMTP
 40
0.0
  9
$DIMTM
 40
0.0
  9
$DIMTXT
 40
0.18
  9
$DIMCEN
 40
0.09
  9
$DIMTSZ
 40
0.0
  9
$DIMTOL
 70
     0
  9
$DIMLIM
 70
     0
  9
$DIMTIH
 70
     1
  9
$DIMTOH
 70
     1
  9
$DIMSE1
 70
     0
  9
$DIMSE2
 70
     0
  9
$DIMTAD
 70
     0
  9
$DIMZIN
 70
     0
  9
$DIMBLK
  1

  9
$DIMASO
 70
     1
  9
$DIMSHO
 70
     1
  9
$DIMPOST
  1

  9
$DIMAPOST
  1

  9
$DIMALT
 70
     0
  9
$DIMALTD
 70
     2
  9
$DIMALTF
 40
25.4
  9
$DIMLFAC
 40
1.0
  9
$DIMTOFL
 70
     0
  9
$DIMTVP
 40
0.0
  9
$DIMTIX
 70
     0
  9
$DIMSOXD
 70
     0
  9
$DIMSAH
 70
     0
  9
$DIMBLK1
  1

  9
$DIMBLK2
  1

  9
$DIMSTYLE
  2
STANDARD
  9
$DIMCLRD
 70
     0
  9
$DIMCLRE
 70
     0
  9
$DIMCLRT
 70
     0
  9
$DIMTFAC
 40
1.0
  9
$DIMGAP
 40
0.09
  9
$DIMJUST
 70
     0
  9
$DIMSD1
 70
     0
  9
$DIMSD2
 70
     0
  9
$DIMTOLJ
 70
     1
  9
$DIMTZIN
 70
     0
  9
$DIMALTZ
 70
     0
  9
$DIMALTTZ
 70
     0
  9
$DIMFIT
 70
     3
  9
$DIMUPT
 70
     0
  9
$DIMUNIT
 70
     2
  9
$DIMDEC
 70
     4
  9
$DIMTDEC
 70
     4
  9
$DIMALTU
 70
     2
  9
$DIMALTTD
 70
     2
  9
$DIMTXSTY
  7
STANDARD
  9
$DIMAUNIT
 70
     0
  9
$LUNITS
 70
     2
  9
$LUPREC
 70
     4
  9
$SKETCHINC
 40
0.1
  9
$FILLETRAD
 40
0.5
  9
$AUNITS
 70
     0
  9
$AUPREC
 70
     0
  9
$MENU
  1
.
  9
$ELEVATION
 40
0.0
  9
$PELEVATION
 40
0.0
  9
$THICKNESS
 40
0.0
  9
$LIMCHECK
 70
     0
  9
$CHAMFERA
 40
0.5
  9
$CHAMFERB
 40
0.5
  9
$CHAMFERC
 40
1.0
  9
$CHAMFERD
 40
0.0
  9
$SKPOLY
 70
     0
  9
$TDCREATE
 40
2457358.339019109
  9
$TDUPDATE
 40
2457358.33901912
  9
$TDINDWG
 40
0.0000000116
  9
$TDUSRTIMER
 40
0.0000000116
  9
$USRTIMER
 70
     1
  9
$ANGBASE
 50
0.0
  9
$ANGDIR
 70
     0
  9
$PDMODE
 70
     0
  9
$PDSIZE
 40
0.0
  9
$PLINEWID
 40
0.0
  9
$COORDS
 70
     1
  9
$SPLFRAME
 70
     0
  9
$SPLINETYPE
 70
     6
  9
$SPLINESEGS
 70
     8
  9
$ATTDIA
 70
     0
  9
$ATTREQ
 70
     1
  9
$HANDLING
 70
     1
  9
$HANDSEED
  5
E0
  9
$SURFTAB1
 70
     6
  9
$SURFTAB2
 70
     6
  9
$SURFTYPE
 70
     6
  9
$SURFU
 70
     6
  9
$SURFV
 70
     6
  9
$UCSNAME
  2

  9
$UCSORG
 10
0.0
 20
0.0
 30
0.0
  9
$UCSXDIR
 10
1.0
 20
0.0
 30
0.0
  9
$UCSYDIR
 10
0.0
 20
1.0
 30
0.0
  9
$PUCSNAME
  2

  9
$PUCSORG
 10
0.0
 20
0.0
 30
0.0
  9
$PUCSXDIR
 10
1.0
 20
0.0
 30
0.0
  9
$PUCSYDIR
 10
0.0
 20
1.0
 30
0.0
  9
$USERI1
 70
     0
  9
$USERI2
 70
     0
  9
$USERI3
 70
     0
  9
$USERI4
 70
     0
  9
$USERI5
 70
     0
  9
$USERR1
 40
0.0
  9
$USERR2
 40
0.0
  9
$USERR3
 40
0.0
  9
$USERR4
 40
0.0
  9
$USERR5
 40
0.0
  9
$WORLDVIEW
 70
     1
  9
$SHADEDGE
 70
     3
  9
$SHADEDIF
 70
    70
  9
$TILEMODE
 70
     1
  9
$MAXACTVP
 70
    64
  9
$PINSBASE
 10
0.0
 20
0.0
 30
0.0
  9
$PLIMCHECK
 70
     0
  9
$PEXTMIN
 10
1.000000000000000E+20
 20
1.000000000000000E+20
 30
1.000000000000000E+20
  9
$PEXTMAX
 10
-1.000000000000000E+20
 20
-1.000000000000000E+20
 30
-1.000000000000000E+20
  9
$PLIMMIN
 10
0.0
 20
0.0
  9
$PLIMMAX
 10
12.0
 20
9.0
  9
$UNITMODE
 70
     0
  9
$VISRETAIN
 70
     1
  9
$PLINEGEN
 70
     0
  9
$PSLTSCALE
 70
     1
  9
$TREEDEPTH
 70
  3020
  9
$PICKSTYLE
 70
     1
  9
$CMLSTYLE
  2
STANDARD
  9
$CMLJUST
 70
     0
  9
$CMLSCALE
 40
1.0
  9
$PROXYGRAPHICS
 70
     1
  9
$MEASUREMENT
 70
     0
  0
ENDSEC
  0
SECTION
  2
CLASSES
  0
CLASS
  1
ACDBDICTIONARYWDFLT
  2
AcDbDictionaryWithDefault
  3
ObjectDBX Classes
 90
        0
280
     0
281
     0
  0
CLASS
  1
VISUALSTYLE
  2
AcDbVisualStyle
  3
ObjectDBX Classes
 90
     4095
280
     0
281
     0
  0
CLASS
  1
MATERIAL
  2
AcDbMaterial
  3
ObjectDBX Classes
 90
     1153
280
     0
281
     0
  0
CLASS
  1
DICTIONARYVAR
  2
AcDbDictionaryVar
  3
ObjectDBX Classes
 90
        0
280
     0
281
     0
  0
CLASS
  1
XRECORD
  2
AcDbXrecord
  3
AutoCAD 2000
 90
        0
280
     0
281
     0
  0
CLASS
  1
LWPOLYLINE
  2
AcDbPolyline
  3
AutoCAD 2000
 90
        0
280
     0
281
     1
  0
CLASS
  1
HATCH
  2
AcDbHatch
  3
AutoCAD 2000
 90
        0
280
     0
281
     1
  0
CLASS
  1
ACDBPLACEHOLDER
  2
AcDbPlaceHolder
  3
ObjectDBX Classes
 90
        0
280
     0
281
     0
  0
CLASS
  1
LAYOUT
  2
AcDbLayout
  3
ObjectDBX Classes
 90
        0
280
     0
281
     0
  0
ENDSEC
  0
SECTION
  2
TABLES
  0
TABLE
  2
VPORT
  5
8
330
0
100
AcDbSymbolTable
 70
     1
  0
VPORT
  5
29
330
8
100
AcDbSymbolTableRecord
100
AcDbViewportTableRecord
  2
*ACTIVE
 70
     0
 10
0.0
 20
0.0
 11
1.0
 21
1.0
 12
0.0
 22
0.0
 13
0.0
 23
0.0
 14
0.5
 24
0.5
 15
0.5
 25
0.5
 16
0.0
 26
0.0
 36
1.0
 17
0.0
 27
0.0
 37
-1000.0
 40
56.23253538790364
 41
1.763768115942029
 42
50.0
 43
686.5464793911381
 44
1249.268392165943
 50
0.0
 51
0.0
 71
     0
 72
   100
 73
     1
 74
     3
 75
     0
 76
     0
 77
     0
 78
     0
  0
ENDTAB
  0
TABLE
  2
LTYPE
  5
5
330
0
100
AcDbSymbolTable
 70
     1
  0
LTYPE
  5
14
330
5
100
AcDbSymbolTableRecord
100
AcDbLinetypeTableRecord
  2
BYBLOCK
 70
     0
  3

 72
    65
 73
     0
 40
0.0
  0
LTYPE
  5
15
330
5
100
AcDbSymbolTableRecord
100
AcDbLinetypeTableRecord
  2
BYLAYER
 70
     0
  3

 72
    65
 73
     0
 40
0.0
  0
LTYPE
  5
16
330
5
100
AcDbSymbolTableRecord
100
AcDbLinetypeTableRecord
  2
CONTINUOUS
 70
     0
  3
Solid line
 72
    65
 73
     0
 40
0.0
  0
ENDTAB
  0
TABLE
  2
LAYER
  5
2
330
0
100
AcDbSymbolTable
 70
     3
  0
LAYER
  5
10
330
2
100
AcDbSymbolTableRecord
100
AcDbLayerTableRecord
  2
0
 70
     0
 62
     7
  6
CONTINUOUS
  0
LAYER
  5
3F
330
2
100
AcDbSymbolTableRecord
100
AcDbLayerTableRecord
  2
PROFILEEDGES
 70
     0
 62
     7
  6
CONTINUOUS
  0
LAYER
  5
40
330
2
100
AcDbSymbolTableRecord
100
AcDbLayerTableRecord
  2
SECTIONCUTEDGES
 70
     0
 62
     7
  6
CONTINUOUS
  0
ENDTAB
  0
TABLE
  2
STYLE
  5
3
330
0
100
AcDbSymbolTable
 70
     1
  0
STYLE
  5
11
330
3
100
AcDbSymbolTableRecord
100
AcDbTextStyleTableRecord
  2
STANDARD
 70
     0
 40
0.0
 41
1.0
 50
0.0
 71
     0
 42
0.2
  3
txt
  4

  0
ENDTAB
  0
TABLE
  2
VIEW
  5
6
330
0
100
AcDbSymbolTable
 70
     0
  0
ENDTAB
  0
TABLE
  2
UCS
  5
7
330
0
100
AcDbSymbolTable
 70
     0
  0
ENDTAB
  0
TABLE
  2
APPID
  5
9
330
0
100
AcDbSymbolTable
 70
     1
  0
APPID
  5
12
330
9
100
AcDbSymbolTableRecord
100
AcDbRegAppTableRecord
  2
ACAD
 70
     0
  0
ENDTAB
  0
TABLE
  2
DIMSTYLE
  5
A
330
0
100
AcDbSymbolTable
 70
     1
  0
DIMSTYLE
105
27
330
A
100
AcDbSymbolTableRecord
100
AcDbDimStyleTableRecord
  2
STANDARD
 70
     0
  3

  4

  5

  6

  7

 40
1.0
 41
0.18
 42
0.0625
 43
0.38
 44
0.18
 45
0.0
 46
0.0
 47
0.0
 48
0.0
140
0.18
141
0.09
142
0.0
143
25.4
144
1.0
145
0.0
146
1.0
147
0.09
 71
     0
 72
     0
 73
     1
 74
     1
 75
     0
 76
     0
 77
     0
 78
     0
170
     0
171
     2
172
     0
173
     0
174
     0
175
     0
176
     0
177
     0
178
     0
270
     2
271
     4
272
     4
273
     2
274
     2
340
11
275
     0
280
     0
281
     0
282
     0
283
     1
284
     0
285
     0
286
     0
287
     3
288
     0
  0
ENDTAB
  0
TABLE
  2
BLOCK_RECORD
  5
1
330
0
100
AcDbSymbolTable
 70
     1
  0
BLOCK_RECORD
  5
1F
330
1
100
AcDbSymbolTableRecord
100
AcDbBlockTableRecord
  2
*MODEL_SPACE
  0
BLOCK_RECORD
  5
1B
330
1
100
AcDbSymbolTableRecord
100
AcDbBlockTableRecord
  2
*PAPER_SPACE
  0
ENDTAB
  0
ENDSEC
  0
SECTION
  2
BLOCKS
  0
BLOCK
  5
20
330
1F
100
AcDbEntity
  8
0
100
AcDbBlockBegin
  2
*MODEL_SPACE
 70
     0
 10
0.0
 20
0.0
 30
0.0
  3
*MODEL_SPACE
  1

  0
ENDBLK
  5
21
330
1F
100
AcDbEntity
  8
0
100
AcDbBlockEnd
  0
BLOCK
  5
1C
330
1B
100
AcDbEntity
 67
     1
  8
0
100
AcDbBlockBegin
  2
*PAPER_SPACE
 70
     0
 10
0.0
 20
0.0
 30
0.0
  3
*PAPER_SPACE
  1

  0
ENDBLK
  5
1D
330
1B
100
AcDbEntity
 67
     1
  8
0
100
AcDbBlockEnd
  0
ENDSEC
  0
SECTION
  2
ENTITIES
  0
LINE
  5
41
330
1F
100
AcDbEntity
  8
0
100
AcDbLine
 10
29.7391550427921
 20
18.23400925385106
 30
0.0
 11
30.77528538530848
 21
18.02791011450723
 31
0.0
  0
LINE
  5
42
330
1F
100
AcDbEntity
  8
0
100
AcDbLine
 10
27.09935620726216
 20
-0.2446947479096341
 30
0.0
 11
27.74640382001827
 21
-0.1595093136323019
 31
0.0
  0
LINE
  5
43
330
1F
100
AcDbEntity
  8
0
100
AcDbLine
 10
27.74640382001827
 20
-0.1595093136323019
 30
0.0
 11
28.34935620726215
 21
0.0902417426292775
 31
0.0
  0
LINE
  5
44
330
1F
100
AcDbEntity
  8
0
100
AcDbLine
 10
28.34935620726215
 20
0.0902417426292775
 30
0.0
 11
28.86712316022856
 21
0.4875382991239881
 31
0.0
  0
LINE
  5
45
330
1F
100
AcDbEntity
  8
0
100
AcDbLine
 10
28.86712316022856
 20
0.4875382991239881
 30
0.0
 11
29.26441971672322
 21
1.005305252090352
 31
0.0
  0
LINE
  5
46
330
1F
100
AcDbEntity
  8
0
100
AcDbLine
 10
29.26441971672322
 20
1.005305252090352
 30
0.0
 11
29.51417077298476
 21
1.608257639334094
 31
0.0
  0
LINE
  5
47
330
1F
100
AcDbEntity
  8
0
100
AcDbLine
 10
29.51417077298476
 20
1.608257639334094
 30
0.0
 11
29.59935620726204
 21
2.255305252090339
 31
0.0
  0
LINE
  5
48
330
1F
100
AcDbEntity
  8
0
100
AcDbLine
 10
29.59935620726204
 20
2.255305252090339
 30
0.0
 11
29.51417077298476
 21
2.902352864846674
 31
0.0
  0
LINE
  5
49
330
1F
100
AcDbEntity
  8
0
100
AcDbLine
 10
29.51417077298476
 20
2.902352864846674
 30
0.0
 11
29.26441971672318
 21
3.505305252090325
 31
0.0
  0
LINE
  5
4A
330
1F
100
AcDbEntity
  8
0
100
AcDbLine
 10
25.33158925429568
 20
4.023072205056734
 30
0.0
 11
24.93429269780092
 21
3.505305252090325
 31
0.0
  0
LINE
  5
4B
330
1F
100
AcDbEntity
  8
0
100
AcDbLine
 10
24.93429269780092
 20
3.505305252090325
 30
0.0
 11
24.68454164153948
 21
2.902352864846674
 31
0.0
  0
LINE
  5
4C
330
1F
100
AcDbEntity
  8
0
100
AcDbLine
 10
24.68454164153948
 20
2.902352864846674
 30
0.0
 11
24.59935620726214
 21
2.255305252090339
 31
0.0
  0
LINE
  5
4D
330
1F
100
AcDbEntity
  8
0
100
AcDbLine
 10
24.59935620726214
 20
2.255305252090339
 30
0.0
 11
24.68454164153948
 21
1.608257639334094
 31
0.0
  0
LINE
  5
4E
330
1F
100
AcDbEntity
  8
0
100
AcDbLine
 10
24.68454164153948
 20
1.608257639334094
 30
0.0
 11
24.93429269780097
 21
1.005305252090352
 31
0.0
  0
LINE
  5
4F
330
1F
100
AcDbEntity
  8
0
100
AcDbLine
 10
24.93429269780097
 20
1.005305252090352
 30
0.0
 11
25.33158925429572
 21
0.4875382991239881
 31
0.0
  0
LINE
  5
50
330
1F
100
AcDbEntity
  8
0
100
AcDbLine
 10
25.33158925429572
 20
0.4875382991239881
 30
0.0
 11
25.84935620726204
 21
0.0902417426292775
 31
0.0
  0
LINE
  5
51
330
1F
100
AcDbEntity
  8
0
100
AcDbLine
 10
25.84935620726204
 20
0.0902417426292775
 30
0.0
 11
26.45230859450583
 21
-0.1595093136323019
 31
0.0
  0
LINE
  5
52
330
1F
100
AcDbEntity
  8
0
100
AcDbLine
 10
26.45230859450583
 20
-0.1595093136323019
 30
0.0
 11
27.09935620726216
 21
-0.2446947479096341
 31
0.0
  0
LINE
  5
53
330
1F
100
AcDbEntity
  8
0
100
AcDbLine
 10
25.84935620726204
 20
4.42036876155149
 30
0.0
 11
28.86712316022851
 21
4.023072205056734
 31
0.0
  0
LINE
  5
54
330
1F
100
AcDbEntity
  8
0
100
AcDbLine
 10
33.78479899041982
 20
17.00631790414486
 30
0.0
 11
33.92038750757825
 21
20.11180551219889
 31
0.0
  0
LINE
  5
55
330
1F
100
AcDbEntity
  8
0
100
AcDbLine
 10
37.37484106059194
 20
14.77336941940225
 30
0.0
 11
38.16910668917121
 21
14.07681715777418
 31
0.0
  0
LINE
  5
56
330
1F
100
AcDbEntity
  8
0
100
AcDbLine
 10
37.11348957283698
 20
18.53714183386544
 30
0.0
 11
38.30956884835773
 21
17.73794721270442
 31
0.0
  0
LINE
  5
57
330
1F
100
AcDbEntity
  8
0
100
AcDbLine
 10
34.73228166521675
 20
16.53907115682486
 30
0.0
 11
37.11348957283698
 21
18.53714183386544
 31
0.0
  0
LINE
  5
58
330
1F
100
AcDbEntity
  8
0
100
AcDbLine
 10
37.37484106059194
 20
14.77336941940225
 30
0.0
 11
38.30956884835773
 21
17.73794721270442
 31
0.0
  0
LINE
  5
59
330
1F
100
AcDbEntity
  8
0
100
AcDbLine
 10
40.26462581905123
 20
11.68733554873637
 30
0.0
 11
40.85154651141107
 21
10.80894665832318
 31
0.0
  0
LINE
  5
5A
330
1F
100
AcDbEntity
  8
0
100
AcDbLine
 10
40.9863156495842
 20
15.39050327063762
 30
0.0
 11
41.93479272339885
 21
14.30897244986975
 31
0.0
  0
LINE
  5
5B
330
1F
100
AcDbEntity
  8
0
100
AcDbLine
 10
38.16910668917121
 20
14.07681715777418
 30
0.0
 11
40.9863156495842
 21
15.39050327063762
 31
0.0
  0
LINE
  5
5C
330
1F
100
AcDbEntity
  8
0
100
AcDbLine
 10
40.26462581905123
 20
11.68733554873637
 30
0.0
 11
41.93479272339885
 21
14.30897244986975
 31
0.0
  0
LINE
  5
5D
330
1F
100
AcDbEntity
  8
0
100
AcDbLine
 10
42.25721921010388
 20
7.958524400521234
 30
0.0
 11
42.59679729099224
 21
6.958159632598225
 31
0.0
  0
LINE
  5
5E
330
1F
100
AcDbEntity
  8
0
100
AcDbLine
 10
43.38119278903722
 20
-7.758828113484477
 30
0.0
 11
42.58199816787629
 21
-8.954907389005236
 31
0.0
  0
LINE
  5
5F
330
1F
100
AcDbEntity
  8
0
100
AcDbLine
 10
40.85154651141107
 20
10.80894665832318
 30
0.0
 11
43.91276838962275
 21
11.34872266938694
 31
0.0
  0
LINE
  5
60
330
1F
100
AcDbEntity
  8
0
100
AcDbLine
 10
42.25721921010388
 20
7.958524400521234
 30
0.0
 11
44.54900611658343
 21
10.05856018713327
 31
0.0
  0
LINE
  5
61
330
1F
100
AcDbEntity
  8
0
100
AcDbLine
 10
43.21682928706576
 20
3.841048292355744
 30
0.0
 11
43.28592307144955
 21
2.786880852675954
 31
0.0
  0
LINE
  5
62
330
1F
100
AcDbEntity
  8
0
100
AcDbLine
 10
45.69341487491072
 20
6.687240698730323
 30
0.0
 11
45.97405470535761
 21
5.276368996062155
 31
0.0
  0
LINE
  5
63
330
1F
100
AcDbEntity
  8
0
100
AcDbLine
 10
42.59679729099224
 20
6.958159632598225
 30
0.0
 11
45.69341487491072
 21
6.687240698730323
 31
0.0
  0
LINE
  5
64
330
1F
100
AcDbEntity
  8
0
100
AcDbLine
 10
43.21682928706576
 20
3.841048292355744
 30
0.0
 11
45.97405470535761
 21
5.276368996062155
 31
0.0
  0
LINE
  5
65
330
1F
100
AcDbEntity
  8
0
100
AcDbLine
 10
43.07806020902288
 20
-0.3844935834395549
 30
0.0
 11
42.87196106967878
 21
-1.420623925955984
 31
0.0
  0
LINE
  5
66
330
1F
100
AcDbEntity
  8
0
100
AcDbLine
 10
46.20690699013349
 20
1.723729651504769
 30
0.0
 11
46.11282378340067
 21
0.2882973033831909
 31
0.0
  0
LINE
  5
67
330
1F
100
AcDbEntity
  8
0
100
AcDbLine
 10
43.28592307144955
 20
2.786880852675954
 30
0.0
 11
46.20690699013349
 21
1.723729651504769
 31
0.0
  0
LINE
  5
68
330
1F
100
AcDbEntity
  8
0
100
AcDbLine
 10
43.07806020902288
 20
-0.3844935834395549
 30
0.0
 11
46.11282378340067
 21
0.2882973033831909
 31
0.0
  0
LINE
  5
69
330
1F
100
AcDbEntity
  8
0
100
AcDbLine
 10
41.85036885931673
 20
-4.430137531067316
 30
0.0
 11
41.38312211199668
 21
-5.377620205864246
 31
0.0
  0
LINE
  5
6A
330
1F
100
AcDbEntity
  8
0
100
AcDbLine
 10
45.41825109622418
 20
-3.203555397011074
 30
0.0
 11
44.95585646737045
 21
-4.5657260482257
 31
0.0
  0
LINE
  5
6B
330
1F
100
AcDbEntity
  8
0
100
AcDbLine
 10
42.87196106967878
 20
-1.420623925955984
 30
0.0
 11
45.41825109622418
 21
-3.203555397011074
 31
0.0
  0
LINE
  5
6C
330
1F
100
AcDbEntity
  8
0
100
AcDbLine
 10
41.85036885931673
 20
-4.430137531067316
 30
0.0
 11
44.95585646737045
 21
-4.5657260482257
 31
0.0
  0
LINE
  5
6D
330
1F
100
AcDbEntity
  8
0
100
AcDbLine
 10
39.61742037457407
 20
-8.020179601239533
 30
0.0
 11
38.92086811294601
 21
-8.814445229818663
 31
0.0
  0
LINE
  5
6E
330
1F
100
AcDbEntity
  8
0
100
AcDbLine
 10
16.8238713539322
 20
-10.26275891522148
 30
0.0
 11
16.02960572535307
 21
-9.566206653593417
 31
0.0
  0
LINE
  5
6F
330
1F
100
AcDbEntity
  8
0
100
AcDbLine
 10
17.08522284168739
 20
-14.02653132968468
 30
0.0
 11
15.88914356616663
 21
-13.22733670852374
 31
0.0
  0
LINE
  5
70
330
1F
100
AcDbEntity
  8
0
100
AcDbLine
 10
41.38312211199668
 20
-5.377620205864246
 30
0.0
 11
43.38119278903722
 21
-7.758828113484477
 31
0.0
  0
LINE
  5
71
330
1F
100
AcDbEntity
  8
0
100
AcDbLine
 10
39.61742037457407
 20
-8.020179601239533
 30
0.0
 11
42.58199816787629
 21
-8.954907389005236
 31
0.0
  0
LINE
  5
72
330
1F
100
AcDbEntity
  8
0
100
AcDbLine
 10
36.53138650390802
 20
-10.90996435969882
 30
0.0
 11
35.652997613495
 21
-11.49688505205857
 31
0.0
  0
LINE
  5
73
330
1F
100
AcDbEntity
  8
0
100
AcDbLine
 10
40.23455422580935
 20
-11.6316541902317
 30
0.0
 11
39.15302340504157
 21
-12.58013126404635
 31
0.0
  0
LINE
  5
74
330
1F
100
AcDbEntity
  8
0
100
AcDbLine
 10
38.92086811294601
 20
-8.814445229818663
 30
0.0
 11
40.23455422580935
 21
-11.6316541902317
 31
0.0
  0
LINE
  5
75
330
1F
100
AcDbEntity
  8
0
100
AcDbLine
 10
36.53138650390802
 20
-10.90996435969882
 30
0.0
 11
39.15302340504157
 21
-12.58013126404635
 31
0.0
  0
LINE
  5
76
330
1F
100
AcDbEntity
  8
0
100
AcDbLine
 10
30.77528538530848
 20
18.02791011450723
 30
0.0
 11
32.55821685636353
 21
20.57420014105236
 31
0.0
  0
LINE
  5
77
330
1F
100
AcDbEntity
  8
0
100
AcDbLine
 10
27.63093180784778
 20
21.36285603496176
 30
0.0
 11
29.06636415596931
 21
21.2687728282288
 31
0.0
  0
LINE
  5
78
330
1F
100
AcDbEntity
  8
0
100
AcDbLine
 10
26.5677806066765
 20
18.44187211627781
 30
0.0
 11
27.63093180784778
 21
21.36285603496176
 31
0.0
  0
LINE
  5
79
330
1F
100
AcDbEntity
  8
0
100
AcDbLine
 10
29.7391550427921
 20
18.23400925385106
 30
0.0
 11
29.06636415596931
 21
21.2687728282288
 31
0.0
  0
LINE
  5
7A
330
1F
100
AcDbEntity
  8
0
100
AcDbLine
 10
33.78479899041982
 20
17.00631790414486
 30
0.0
 11
34.73228166521675
 21
16.53907115682486
 31
0.0
  0
LINE
  5
7B
330
1F
100
AcDbEntity
  8
0
100
AcDbLine
 10
32.55821685636353
 20
20.57420014105236
 30
0.0
 11
33.92038750757825
 21
20.11180551219889
 31
0.0
  0
LINE
  5
7C
330
1F
100
AcDbEntity
  8
0
100
AcDbLine
 10
43.91276838962275
 20
11.34872266938694
 30
0.0
 11
44.54900611658343
 21
10.05856018713327
 31
0.0
  0
LINE
  5
7D
330
1F
100
AcDbEntity
  8
0
100
AcDbLine
 10
32.80257535569292
 20
-12.90255775075142
 30
0.0
 11
31.80221058777005
 21
-13.24213583163974
 31
0.0
  0
LINE
  5
7E
330
1F
100
AcDbEntity
  8
0
100
AcDbLine
 10
36.19277362455868
 20
-14.55810693027029
 30
0.0
 11
34.90261114230505
 21
-15.19434465723089
 31
0.0
  0
LINE
  5
7F
330
1F
100
AcDbEntity
  8
0
100
AcDbLine
 10
35.652997613495
 20
-11.49688505205857
 30
0.0
 11
36.19277362455868
 21
-14.55810693027029
 31
0.0
  0
LINE
  5
80
330
1F
100
AcDbEntity
  8
0
100
AcDbLine
 10
32.80257535569292
 20
-12.90255775075142
 30
0.0
 11
34.90261114230505
 21
-15.19434465723089
 31
0.0
  0
LINE
  5
81
330
1F
100
AcDbEntity
  8
0
100
AcDbLine
 10
28.68509924752739
 20
-13.86216782771335
 30
0.0
 11
27.63093180784778
 21
-13.93126161209705
 31
0.0
  0
LINE
  5
82
330
1F
100
AcDbEntity
  8
0
100
AcDbLine
 10
31.53129165390219
 20
-16.3387534155584
 30
0.0
 11
30.12041995123384
 21
-16.61939324600511
 31
0.0
  0
LINE
  5
83
330
1F
100
AcDbEntity
  8
0
100
AcDbLine
 10
31.80221058777005
 20
-13.24213583163974
 30
0.0
 11
31.53129165390219
 21
-16.3387534155584
 31
0.0
  0
LINE
  5
84
330
1F
100
AcDbEntity
  8
0
100
AcDbLine
 10
28.68509924752739
 20
-13.86216782771335
 30
0.0
 11
30.12041995123384
 21
-16.61939324600511
 31
0.0
  0
LINE
  5
85
330
1F
100
AcDbEntity
  8
0
100
AcDbLine
 10
24.45955737173213
 20
-13.72339874967034
 30
0.0
 11
23.42342702921584
 21
-13.51729961032646
 31
0.0
  0
LINE
  5
86
330
1F
100
AcDbEntity
  8
0
100
AcDbLine
 10
26.56778060667655
 20
-16.85224553078103
 30
0.0
 11
25.13234825855483
 21
-16.75816232404817
 31
0.0
  0
LINE
  5
87
330
1F
100
AcDbEntity
  8
0
100
AcDbLine
 10
27.63093180784778
 20
-13.93126161209705
 30
0.0
 11
26.56778060667655
 21
-16.85224553078103
 31
0.0
  0
LINE
  5
88
330
1F
100
AcDbEntity
  8
0
100
AcDbLine
 10
24.45955737173213
 20
-13.72339874967034
 30
0.0
 11
25.13234825855483
 21
-16.75816232404817
 31
0.0
  0
LINE
  5
89
330
1F
100
AcDbEntity
  8
0
100
AcDbLine
 10
20.41391342410446
 20
-12.49570739996418
 30
0.0
 11
19.46643074930753
 21
-12.02846065264414
 31
0.0
  0
LINE
  5
8A
330
1F
100
AcDbEntity
  8
0
100
AcDbLine
 10
21.6404955581607
 20
-16.06358963687168
 30
0.0
 11
20.27832490694603
 21
-15.60119500801817
 31
0.0
  0
LINE
  5
8B
330
1F
100
AcDbEntity
  8
0
100
AcDbLine
 10
23.42342702921584
 20
-13.51729961032646
 30
0.0
 11
21.6404955581607
 21
-16.06358963687168
 31
0.0
  0
LINE
  5
8C
330
1F
100
AcDbEntity
  8
0
100
AcDbLine
 10
20.41391342410446
 20
-12.49570739996418
 30
0.0
 11
20.27832490694603
 21
-15.60119500801817
 31
0.0
  0
LINE
  5
8D
330
1F
100
AcDbEntity
  8
0
100
AcDbLine
 10
18.54571480102923
 20
16.00749555623925
 30
0.0
 11
18.00593878996542
 21
19.06871743445101
 31
0.0
  0
LINE
  5
8E
330
1F
100
AcDbEntity
  8
0
100
AcDbLine
 10
21.39613705883122
 20
17.41316825493218
 30
0.0
 11
19.29610127221918
 21
19.70495516141157
 31
0.0
  0
LINE
  5
8F
330
1F
100
AcDbEntity
  8
0
100
AcDbLine
 10
25.51361316699676
 20
18.37277833189412
 30
0.0
 11
26.5677806066765
 21
18.44187211627781
 31
0.0
  0
LINE
  5
90
330
1F
100
AcDbEntity
  8
0
100
AcDbLine
 10
22.66742076062222
 20
20.84936391973908
 30
0.0
 11
24.07829246329035
 21
21.13000375018574
 31
0.0
  0
LINE
  5
91
330
1F
100
AcDbEntity
  8
0
100
AcDbLine
 10
22.39650182675409
 20
17.75274633582046
 30
0.0
 11
22.66742076062222
 21
20.84936391973908
 31
0.0
  0
LINE
  5
92
330
1F
100
AcDbEntity
  8
0
100
AcDbLine
 10
19.46643074930753
 20
-12.02846065264414
 30
0.0
 11
17.08522284168739
 21
-14.02653132968468
 31
0.0
  0
LINE
  5
93
330
1F
100
AcDbEntity
  8
0
100
AcDbLine
 10
16.8238713539322
 20
-10.26275891522148
 30
0.0
 11
15.88914356616663
 21
-13.22733670852374
 31
0.0
  0
LINE
  5
94
330
1F
100
AcDbEntity
  8
0
100
AcDbLine
 10
13.93408659547291
 20
-7.176725044555649
 30
0.0
 11
13.34716590311316
 21
-6.298336154142461
 31
0.0
  0
LINE
  5
95
330
1F
100
AcDbEntity
  8
0
100
AcDbLine
 10
13.21239676493999
 20
-10.87989276645695
 30
0.0
 11
12.26391969112542
 21
-9.798361945689027
 31
0.0
  0
LINE
  5
96
330
1F
100
AcDbEntity
  8
0
100
AcDbLine
 10
16.02960572535307
 20
-9.566206653593417
 30
0.0
 11
13.21239676493999
 21
-10.87989276645695
 31
0.0
  0
LINE
  5
97
330
1F
100
AcDbEntity
  8
0
100
AcDbLine
 10
13.93408659547291
 20
-7.176725044555649
 30
0.0
 11
12.26391969112542
 21
-9.798361945689027
 31
0.0
  0
LINE
  5
98
330
1F
100
AcDbEntity
  8
0
100
AcDbLine
 10
11.94149320442009
 20
-3.447913896340466
 30
0.0
 11
11.60191512353195
 21
-2.447549128417502
 31
0.0
  0
LINE
  5
99
330
1F
100
AcDbEntity
  8
0
100
AcDbLine
 10
10.28594402490144
 20
-6.838112165206217
 30
0.0
 11
9.649706297940886
 21
-5.547949682952549
 31
0.0
  0
LINE
  5
9A
330
1F
100
AcDbEntity
  8
0
100
AcDbLine
 10
13.34716590311316
 20
-6.298336154142461
 30
0.0
 11
10.28594402490144
 21
-6.838112165206217
 31
0.0
  0
LINE
  5
9B
330
1F
100
AcDbEntity
  8
0
100
AcDbLine
 10
11.94149320442009
 20
-3.447913896340466
 30
0.0
 11
9.649706297940886
 21
-5.547949682952549
 31
0.0
  0
LINE
  5
9C
330
1F
100
AcDbEntity
  8
0
100
AcDbLine
 10
10.98188312745834
 20
0.6695622118250237
 30
0.0
 11
10.91278934307464
 21
1.723729651504769
 31
0.0
  0
LINE
  5
9D
330
1F
100
AcDbEntity
  8
0
100
AcDbLine
 10
8.505297539613375
 20
-2.176630194549555
 30
0.0
 11
8.224657709166665
 21
-0.7657584918813878
 31
0.0
  0
LINE
  5
9E
330
1F
100
AcDbEntity
  8
0
100
AcDbLine
 10
11.60191512353195
 20
-2.447549128417502
 30
0.0
 11
8.505297539613375
 21
-2.176630194549555
 31
0.0
  0
LINE
  5
9F
330
1F
100
AcDbEntity
  8
0
100
AcDbLine
 10
10.98188312745834
 20
0.6695622118250237
 30
0.0
 11
8.224657709166665
 21
-0.7657584918813878
 31
0.0
  0
LINE
  5
A0
330
1F
100
AcDbEntity
  8
0
100
AcDbLine
 10
11.12065220550149
 20
4.895104087620322
 30
0.0
 11
11.32675134484523
 21
5.931234430136707
 31
0.0
  0
LINE
  5
A1
330
1F
100
AcDbEntity
  8
0
100
AcDbLine
 10
7.991805424390744
 20
2.786880852675909
 30
0.0
 11
8.085888631123744
 21
4.222313200797577
 31
0.0
  0
LINE
  5
A2
330
1F
100
AcDbEntity
  8
0
100
AcDbLine
 10
10.91278934307464
 20
1.723729651504769
 30
0.0
 11
7.991805424390744
 21
2.786880852675909
 31
0.0
  0
LINE
  5
A3
330
1F
100
AcDbEntity
  8
0
100
AcDbLine
 10
11.12065220550149
 20
4.895104087620322
 30
0.0
 11
8.085888631123744
 21
4.222313200797577
 31
0.0
  0
LINE
  5
A4
330
1F
100
AcDbEntity
  8
0
100
AcDbLine
 10
12.34834355520764
 20
8.940748035248083
 30
0.0
 11
12.81559030252754
 21
9.888230710044969
 31
0.0
  0
LINE
  5
A5
330
1F
100
AcDbEntity
  8
0
100
AcDbLine
 10
8.780461318300183
 20
7.714165901191842
 30
0.0
 11
9.242855947153563
 21
9.076336552406422
 31
0.0
  0
LINE
  5
A6
330
1F
100
AcDbEntity
  8
0
100
AcDbLine
 10
11.32675134484523
 20
5.931234430136707
 30
0.0
 11
8.780461318300183
 21
7.714165901191842
 31
0.0
  0
LINE
  5
A7
330
1F
100
AcDbEntity
  8
0
100
AcDbLine
 10
12.34834355520764
 20
8.940748035248083
 30
0.0
 11
9.242855947153563
 21
9.076336552406422
 31
0.0
  0
LINE
  5
A8
330
1F
100
AcDbEntity
  8
0
100
AcDbLine
 10
14.58129203995021
 20
12.53079010542021
 30
0.0
 11
15.27784430157827
 21
13.32505573399934
 31
0.0
  0
LINE
  5
A9
330
1F
100
AcDbEntity
  8
0
100
AcDbLine
 10
10.81751962548706
 20
12.26943861766515
 30
0.0
 11
11.61671424664794
 21
13.46551789318596
 31
0.0
  0
LINE
  5
AA
330
1F
100
AcDbEntity
  8
0
100
AcDbLine
 10
12.81559030252754
 20
9.888230710044969
 30
0.0
 11
10.81751962548706
 21
12.26943861766515
 31
0.0
  0
LINE
  5
AB
330
1F
100
AcDbEntity
  8
0
100
AcDbLine
 10
14.58129203995021
 20
12.53079010542021
 30
0.0
 11
11.61671424664794
 21
13.46551789318596
 31
0.0
  0
LINE
  5
AC
330
1F
100
AcDbEntity
  8
0
100
AcDbLine
 10
17.66732591061613
 20
15.42057486387946
 30
0.0
 11
18.54571480102923
 21
16.00749555623925
 31
0.0
  0
LINE
  5
AD
330
1F
100
AcDbEntity
  8
0
100
AcDbLine
 10
13.96415818871479
 20
16.14226469441247
 30
0.0
 11
15.0456890094827
 21
17.09074176822712
 31
0.0
  0
LINE
  5
AE
330
1F
100
AcDbEntity
  8
0
100
AcDbLine
 10
15.27784430157827
 20
13.32505573399934
 30
0.0
 11
13.96415818871479
 21
16.14226469441247
 31
0.0
  0
LINE
  5
AF
330
1F
100
AcDbEntity
  8
0
100
AcDbLine
 10
17.66732591061613
 20
15.42057486387946
 30
0.0
 11
15.0456890094827
 21
17.09074176822712
 31
0.0
  0
LINE
  5
B0
330
1F
100
AcDbEntity
  8
0
100
AcDbLine
 10
21.39613705883122
 20
17.41316825493218
 30
0.0
 11
22.39650182675409
 21
17.75274633582046
 31
0.0
  0
LINE
  5
B1
330
1F
100
AcDbEntity
  8
0
100
AcDbLine
 10
18.00593878996542
 20
19.06871743445101
 30
0.0
 11
19.29610127221918
 21
19.70495516141157
 31
0.0
  0
LINE
  5
B2
330
1F
100
AcDbEntity
  8
0
100
AcDbLine
 10
25.51361316699676
 20
18.37277833189412
 30
0.0
 11
24.07829246329035
 21
21.13000375018574
 31
0.0
  0
LINE
  5
B3
330
1F
100
AcDbEntity
  8
0
100
AcDbLine
 10
29.26441971672318
 20
3.505305252090325
 30
0.0
 11
28.86712316022851
 21
4.023072205056734
 31
0.0
  0
LINE
  5
B4
330
1F
100
AcDbEntity
  8
0
100
AcDbLine
 10
25.84935620726204
 20
4.42036876155149
 30
0.0
 11
25.33158925429568
 21
4.023072205056734
 31
0.0
  0
ENDSEC
  0
SECTION
  2
OBJECTS
  0
DICTIONARY
  5
C
330
0
100
AcDbDictionary
  3
ACAD_GROUP
350
D
  3
ACAD_LAYOUT
350
1A
  3
ACAD_MATERIAL
350
3B
  3
ACAD_MLEADERSTYLE
350
D7
  3
ACAD_MLINESTYLE
350
17
  3
ACAD_PLOTSETTINGS
350
19
  3
ACAD_VISUALSTYLE
350
2A
  3
ACDBHEADERROUNDTRIPXREC
350
B5
  3
ACDBVARIABLEDICTIONARY
350
D5
  0
DICTIONARY
  5
D
102
{ACAD_REACTORS
330
C
102
}
330
C
100
AcDbDictionary
  0
DICTIONARY
  5
1A
102
{ACAD_REACTORS
330
C
102
}
330
C
100
AcDbDictionary
  0
DICTIONARY
  5
3B
102
{ACAD_REACTORS
330
C
102
}
330
C
100
AcDbDictionary
  3
BYBLOCK
350
3D
  3
BYLAYER
350
3C
  3
GLOBAL
350
3E
  0
DICTIONARY
  5
D7
102
{ACAD_REACTORS
330
C
102
}
330
C
100
AcDbDictionary
  0
DICTIONARY
  5
17
102
{ACAD_REACTORS
330
C
102
}
330
C
100
AcDbDictionary
  3
STANDARD
350
18
  0
DICTIONARY
  5
19
102
{ACAD_REACTORS
330
C
102
}
330
C
100
AcDbDictionary
  0
DICTIONARY
  5
2A
102
{ACAD_REACTORS
330
C
102
}
330
C
100
AcDbDictionary
  3
2DWIREFRAME
350
2F
  3
3D_HIDDEN
350
31
  3
3DWIREFRAME
350
30
  3
BASIC
350
32
  3
BRIGHTEN
350
36
  3
COLORCHANGE
350
3A
  3
CONCEPTUAL
350
34
  3
DIM
350
35
  3
FACEPATTERN
350
39
  3
FLAT
350
2B
  3
FLATWITHEDGES
350
2C
  3
GOURAUD
350
2D
  3
GOURAUDWITHEDGES
350
2E
  3
LINEPATTERN
350
38
  3
REALISTIC
350
33
  3
THICKEN
350
37
  0
DICTIONARY
  5
B5
102
{ACAD_REACTORS
330
C
102
}
330
C
100
AcDbDictionary
  3
CEPSNTYPE
350
BE
  3
DIMSTYLEDATA
350
D4
  3
FINGERPRINTGUID
350
BF
  3
HYPERLINKBASE
350
B8
  3
INSUNITS
350
BD
  3
LAYOUTDICT
350
BA
  3
LWETCUNION
350
BC
  3
PLOTSETDICT
350
BB
  3
PSVPSCALE
350
C1
  3
PUCSBASE
350
C4
  3
PUCSORGBACK
350
CA
  3
PUCSORGBOTTOM
350
C6
  3
PUCSORGFRONT
350
C9
  3
PUCSORGLEFT
350
C7
  3
PUCSORGRIGHT
350
C8
  3
PUCSORGTOP
350
C5
  3
PUCSORTHOREF
350
C2
  3
PUCSORTHOVIEW
350
C3
  3
STYLESHEET
350
B9
  3
TSTACKALIGN
350
B6
  3
TSTACKSIZE
350
B7
  3
UCSBASE
350
CD
  3
UCSORGBACK
350
D3
  3
UCSORGBOTTOM
350
CF
  3
UCSORGFRONT
350
D2
  3
UCSORGLEFT
350
D0
  3
UCSORGRIGHT
350
D1
  3
UCSORGTOP
350
CE
  3
UCSORTHOREF
350
CB
  3
UCSORTHOVIEW
350
CC
  3
VERSIONGUID
350
C0
  0
DICTIONARY
  5
D5
102
{ACAD_REACTORS
330
C
102
}
330
C
100
AcDbDictionary
  3
DIMASSOC
350
D8
  3
HIDETEXT
350
D9
  0
MATERIAL
  5
3D
102
{ACAD_REACTORS
330
3B
102
}
102
{ACAD_XDICTIONARY
360
DC
102
}
330
3B
100
AcDbMaterial
  1
ByBlock
  0
MATERIAL
  5
3C
102
{ACAD_REACTORS
330
3B
102
}
102
{ACAD_XDICTIONARY
360
DA
102
}
330
3B
100
AcDbMaterial
  1
ByLayer
  0
MATERIAL
  5
3E
102
{ACAD_REACTORS
330
3B
102
}
102
{ACAD_XDICTIONARY
360
DE
102
}
330
3B
100
AcDbMaterial
  1
Global
  0
MLINESTYLE
  5
18
102
{ACAD_REACTORS
330
17
102
}
330
17
100
AcDbMlineStyle
  2
Standard
 70
     0
  3

 62
   256
 51
90.0
 52
90.0
 71
     2
 49
0.5
 62
   256
  6
BYLAYER
 49
-0.5
 62
   256
  6
BYLAYER
  0
ACAD_PROXY_OBJECT
  5
2F
102
{ACAD_REACTORS
330
2A
102
}
330
2A
100
AcDbProxyObject
 90
      499
 91
      501
 93
      436
310
42CC9915DA5C99599C985B595049028333333333333E3BF0000000000000FB0107901411070040501600405405064090741402480A0340
1001
ACAD
1000
AcDbSavedByObjectVersion
1070
     0
  0
ACAD_PROXY_OBJECT
  5
31
102
{ACAD_REACTORS
330
2A
102
}
330
2A
100
AcDbProxyObject
 90
      499
 91
      501
 93
      500
310
424CD108121A5919195B90640502408333333333333E3BF0000000000000FB01079024090700405020000000000001110200405405064090740C02480A0340
1001
ACAD
1000
AcDbSavedByObjectVersion
1070
     0
  0
ACAD_PROXY_OBJECT
  5
30
102
{ACAD_REACTORS
330
2A
102
}
330
2A
100
AcDbProxyObject
 90
      499
 91
      501
 93
      436
310
42CCD915DA5C99599C985B595059028333333333333E3BF0000000000000FB0107901411070040501600405405064090741402480A0340
1001
ACAD
1000
AcDbSavedByObjectVersion
1070
     0
  0
ACAD_PROXY_OBJECT
  5
32
102
{ACAD_REACTORS
330
2A
102
}
330
2A
100
AcDbProxyObject
 90
      499
 91
      501
 93
      388
310
4150985CDA58D07406404333333333333E3BF0000000000000FB0107A41107004050150841D405064090741402480A0350
1001
ACAD
1000
AcDbSavedByObjectVersion
1070
     0
  0
ACAD_PROXY_OBJECT
  5
36
102
{ACAD_REACTORS
330
2A
102
}
330
2A
100
AcDbProxyObject
 90
      499
 91
      501
 93
      428
310
42109C9A59DA1D195B90C409028333333333333E3BF0000000000000FB010790141107004050150841D405064090741402480A029950
1001
ACAD
1000
AcDbSavedByObjectVersion
1070
     0
  0
ACAD_PROXY_OBJECT
  5
3A
102
{ACAD_REACTORS
330
2A
102
}
330
2A
100
AcDbProxyObject
 90
      499
 91
      501
 93
      452
310
42D0DBDB1BDC90DA185B99D95104090240C333333333333E3BF0000000000000FB0108901411070040501508421405064090741402480A0350
1001
ACAD
1000
AcDbSavedByObjectVersion
1070
     0
  0
ACAD_PROXY_OBJECT
  5
34
102
{ACAD_REACTORS
330
2A
102
}
330
2A
100
AcDbProxyObject
 90
      499
 91
      501
 93
      500
310
4290DBDB98D95C1D1D585B10940D028333333333333E3BF0000000000000FB0107902409070040501000000000000111010841D405064090740C02480A0340
1001
ACAD
1000
AcDbSavedByObjectVersion
1070
     0
  0
ACAD_PROXY_OBJECT
  5
35
102
{ACAD_REACTORS
330
2A
102
}
330
2A
100
AcDbProxyObject
 90
      499
 91
      501
 93
      412
310
40D11A5B50B409028333333333333E3BF0000000000000FB010790141107004050150841D405064090741402480A02677FFFFFD0
1001
ACAD
1000
AcDbSavedByObjectVersion
1070
     0
  0
ACAD_PROXY_OBJECT
  5
39
102
{ACAD_REACTORS
330
2A
102
}
330
2A
100
AcDbProxyObject
 90
      499
 91
      501
 93
      444
310
42D19858D95C185D1D195C9B90F409028333333333333E3BF0000000000000FB010790141107004050150841D405064090741402480A0350
1001
ACAD
1000
AcDbSavedByObjectVersion
1070
     0
  0
ACAD_PROXY_OBJECT
  5
2B
102
{ACAD_REACTORS
330
2A
102
}
330
2A
100
AcDbProxyObject
 90
      499
 91
      501
 93
      388
310
41119B185D240901404333333333333E3BF0000000000000F9010740A41107004050150841D405064090741402480A1B50
1001
ACAD
1000
AcDbSavedByObjectVersion
1070
     0
  0
ACAD_PROXY_OBJECT
  5
2C
102
{ACAD_REACTORS
330
2A
102
}
330
2A
100
AcDbProxyObject
 90
      499
 91
      501
 93
      476
310
43519B185D15DA5D1A115919D95CD0140901404333333333333E3BF0000000000000F9010740901411070040501600405405064090741402480A1B50
1001
ACAD
1000
AcDbSavedByObjectVersion
1070
     0
  0
ACAD_PROXY_OBJECT
  5
2D
102
{ACAD_REACTORS
330
2A
102
}
330
2A
100
AcDbProxyObject
 90
      499
 91
      501
 93
      412
310
41D1DBDD5C985D5910240902404333333333333E3BF0000000000000F9010740A411070040501641D405064090741402480A1B50
1001
ACAD
1000
AcDbSavedByObjectVersion
1070
     0
  0
ACAD_PROXY_OBJECT
  5
2E
102
{ACAD_REACTORS
330
2A
102
}
330
2A
100
AcDbProxyObject
 90
      499
 91
      501
 93
      500
310
4411DBDD5C985D5915DA5D1A115919D95CD0340902404333333333333E3BF0000000000000F9010740901411070040501600405405064090741402480A1B50
1001
ACAD
1000
AcDbSavedByObjectVersion
1070
     0
  0
ACAD_PROXY_OBJECT
  5
38
102
{ACAD_REACTORS
330
2A
102
}
330
2A
100
AcDbProxyObject
 90
      499
 91
      501
 93
      444
310
42D31A5B995C185D1D195C9B90E409028333333333333E3BF0000000000000FB010790141107004050750841D405064090741402483A0350
1001
ACAD
1000
AcDbSavedByObjectVersion
1070
     0
  0
ACAD_PROXY_OBJECT
  5
33
102
{ACAD_REACTORS
330
2A
102
}
330
2A
100
AcDbProxyObject
 90
      499
 91
      501
 93
      420
310
425499585B1A5CDD1A58D08409028333333333333E3BF0000000000000FB01079019070040501508421405064090741402480A1B40
1001
ACAD
1000
AcDbSavedByObjectVersion
1070
     0
  0
ACAD_PROXY_OBJECT
  5
37
102
{ACAD_REACTORS
330
2A
102
}
330
2A
100
AcDbProxyObject
 90
      499
 91
      501
 93
      412
310
41D51A1A58DAD95B90D409028333333333333E3BF0000000000000FB010790141107004050150C41D405064090741402480A0350
1001
ACAD
1000
AcDbSavedByObjectVersion
1070
     0
  0
XRECORD
  5
BE
102
{ACAD_REACTORS
330
B5
102
}
330
B5
100
AcDbXrecord
 90
        0
  0
XRECORD
  5
D4
102
{ACAD_REACTORS
330
B5
102
}
330
B5
100
AcDbXrecord
1000
DSTYLE
1002
{
1070
   340
340
11
1002
}
  0
XRECORD
  5
BF
102
{ACAD_REACTORS
330
B5
102
}
330
B5
100
AcDbXrecord
  1
{8AEE65B8-D9D1-49D6-A74F-08AD09B50E9E}
  0
XRECORD
  5
B8
102
{ACAD_REACTORS
330
B5
102
}
330
B5
100
AcDbXrecord
  1

  0
XRECORD
  5
BD
102
{ACAD_REACTORS
330
B5
102
}
330
B5
100
AcDbXrecord
 90
        1
  0
XRECORD
  5
BA
102
{ACAD_REACTORS
330
B5
102
}
330
B5
100
AcDbXrecord
340
1A
  0
XRECORD
  5
BC
102
{ACAD_REACTORS
330
B5
102
}
330
B5
100
AcDbXrecord
 90
    10781
  0
XRECORD
  5
BB
102
{ACAD_REACTORS
330
B5
102
}
330
B5
100
AcDbXrecord
340
19
  0
XRECORD
  5
C1
102
{ACAD_REACTORS
330
B5
102
}
330
B5
100
AcDbXrecord
 40
0.0
  0
XRECORD
  5
C4
102
{ACAD_REACTORS
330
B5
102
}
330
B5
100
AcDbXrecord
340
0
  0
XRECORD
  5
CA
102
{ACAD_REACTORS
330
B5
102
}
330
B5
100
AcDbXrecord
 10
0.0
 20
0.0
 30
0.0
  0
XRECORD
  5
C6
102
{ACAD_REACTORS
330
B5
102
}
330
B5
100
AcDbXrecord
 10
0.0
 20
0.0
 30
0.0
  0
XRECORD
  5
C9
102
{ACAD_REACTORS
330
B5
102
}
330
B5
100
AcDbXrecord
 10
0.0
 20
0.0
 30
0.0
  0
XRECORD
  5
C7
102
{ACAD_REACTORS
330
B5
102
}
330
B5
100
AcDbXrecord
 10
0.0
 20
0.0
 30
0.0
  0
XRECORD
  5
C8
102
{ACAD_REACTORS
330
B5
102
}
330
B5
100
AcDbXrecord
 10
0.0
 20
0.0
 30
0.0
  0
XRECORD
  5
C5
102
{ACAD_REACTORS
330
B5
102
}
330
B5
100
AcDbXrecord
 10
0.0
 20
0.0
 30
0.0
  0
XRECORD
  5
C2
102
{ACAD_REACTORS
330
B5
102
}
330
B5
100
AcDbXrecord
340
0
  0
XRECORD
  5
C3
102
{ACAD_REACTORS
330
B5
102
}
330
B5
100
AcDbXrecord
 70
     0
  0
XRECORD
  5
B9
102
{ACAD_REACTORS
330
B5
102
}
330
B5
100
AcDbXrecord
  1

  0
XRECORD
  5
B6
102
{ACAD_REACTORS
330
B5
102
}
330
B5
100
AcDbXrecord
 90
        1
  0
XRECORD
  5
B7
102
{ACAD_REACTORS
330
B5
102
}
330
B5
100
AcDbXrecord
 90
       70
  0
XRECORD
  5
CD
102
{ACAD_REACTORS
330
B5
102
}
330
B5
100
AcDbXrecord
340
0
  0
XRECORD
  5
D3
102
{ACAD_REACTORS
330
B5
102
}
330
B5
100
AcDbXrecord
 10
0.0
 20
0.0
 30
0.0
  0
XRECORD
  5
CF
102
{ACAD_REACTORS
330
B5
102
}
330
B5
100
AcDbXrecord
 10
0.0
 20
0.0
 30
0.0
  0
XRECORD
  5
D2
102
{ACAD_REACTORS
330
B5
102
}
330
B5
100
AcDbXrecord
 10
0.0
 20
0.0
 30
0.0
  0
XRECORD
  5
D0
102
{ACAD_REACTORS
330
B5
102
}
330
B5
100
AcDbXrecord
 10
0.0
 20
0.0
 30
0.0
  0
XRECORD
  5
D1
102
{ACAD_REACTORS
330
B5
102
}
330
B5
100
AcDbXrecord
 10
0.0
 20
0.0
 30
0.0
  0
XRECORD
  5
CE
102
{ACAD_REACTORS
330
B5
102
}
330
B5
100
AcDbXrecord
 10
0.0
 20
0.0
 30
0.0
  0
XRECORD
  5
CB
102
{ACAD_REACTORS
330
B5
102
}
330
B5
100
AcDbXrecord
340
0
  0
XRECORD
  5
CC
102
{ACAD_REACTORS
330
B5
102
}
330
B5
100
AcDbXrecord
 70
     0
  0
XRECORD
  5
C0
102
{ACAD_REACTORS
330
B5
102
}
330
B5
100
AcDbXrecord
  1
{FAEB1C32-E019-11D5-929B-00C0DF256EC4}
  0
DICTIONARYVAR
  5
D8
102
{ACAD_REACTORS
330
D5
102
}
330
D5
100
DictionaryVariables
280
     0
  1
2
  0
DICTIONARYVAR
  5
D9
102
{ACAD_REACTORS
330
D5
102
}
330
D5
100
DictionaryVariables
280
     0
  1
1
  0
DICTIONARY
  5
DC
330
3D
100
AcDbDictionary
280
     1
  3
ACAD_XREC_ROUNDTRIP
360
DD
  0
DICTIONARY
  5
DA
330
3C
100
AcDbDictionary
280
     1
  3
ACAD_XREC_ROUNDTRIP
360
DB
  0
DICTIONARY
  5
DE
330
3E
100
AcDbDictionary
280
     1
  3
ACAD_XREC_ROUNDTRIP
360
DF
  0
XRECORD
  5
DD
102
{ACAD_REACTORS
330
DC
102
}
330
DC
100
AcDbXrecord
102
MATERIAL
148
0.0
149
0.0
149
0.0
 93
        0
 94
      127
282
     0
 72
     1
 77
     1
171
     1
175
     1
179
     1
273
     0
  0
XRECORD
  5
DB
102
{ACAD_REACTORS
330
DA
102
}
330
DA
100
AcDbXrecord
102
MATERIAL
148
0.0
149
0.0
149
0.0
 93
        0
 94
      127
282
     0
 72
     1
 77
     1
171
     1
175
     1
179
     1
273
     0
  0
XRECORD
  5
DF
102
{ACAD_REACTORS
330
DE
102
}
330
DE
100
AcDbXrecord
102
MATERIAL
148
0.0
149
0.0
149
0.0
 93
        0
 94
      127
282
     0
 72
     1
 77
     1
171
     1
175
     1
179
     1
273
     0
  0
ENDSEC
  0
EOF
